<?xml version="1.0" encoding="UTF-8" standalone="no"?><!DOCTYPE svg PUBLIC "-//W3C//DTD SVG 1.1//EN" "http://www.w3.org/Graphics/SVG/1.1/DTD/svg11.dtd"><svg width="100%" height="100%" viewBox="0 0 3389 1978" version="1.1" xmlns="http://www.w3.org/2000/svg" xmlns:xlink="http://www.w3.org/1999/xlink" xml:space="preserve" xmlns:serif="http://www.serif.com/" style="fill-rule:evenodd;clip-rule:evenodd;stroke-linecap:round;stroke-linejoin:round;stroke-miterlimit:1.5;"><path d="M1696.71,258.152c-181.11,-370.706 -647.903,-287.931 -1073.75,-89.251c-242.44,113.113 -589.27,73.76 -622.968,89.251l0,1717.64l1696.71,-0c15.212,-53.341 77.294,-1559.43 0,-1717.64Z" style="fill:#d20018;"/><path d="M1692.19,258.152c181.11,-370.706 647.903,-287.931 1073.75,-89.251c242.441,113.113 589.271,73.76 622.969,89.251l-0,1717.64l-1696.72,-0c-15.211,-53.341 -77.293,-1559.43 0,-1717.64Z" style="fill:#d20018;"/><path d="M2360.98,1798.68c229.779,24.563 841.922,195.126 865.944,177.11l-1433.03,-0c34.715,-32.311 169.978,-143.784 314,-162.6c73.765,-9.638 209.206,-19.2 253.088,-14.51Z" style="fill:#9d0a0e;"/><path d="M1039.35,1797.35c-229.778,24.562 -841.922,195.125 -865.943,177.109l1433.03,-0c-34.715,-32.311 -169.978,-143.784 -314.001,-162.6c-73.765,-9.637 -209.205,-19.2 -253.088,-14.509Z" style="fill:#9d0a0e;"/><path d="M1615.24,337.874c-5.737,-86.573 -153.161,-156.896 -215.645,-184.623c-153.6,-68.161 -360.145,-21.39 -648.03,99.445c-210.925,88.533 -556.469,71.95 -585.245,85.178l-4.333,1549.8c430.978,-71.664 581.459,-147.081 797.977,-177.627c312.534,-44.092 526.24,18.102 653.832,159.641c-15.914,-28.959 12.477,-1365.34 1.444,-1531.82" style="fill:#fefffd;"/><path id="vv" d="M1773.67,337.874c5.738,-86.573 153.162,-156.896 215.645,-184.623c153.6,-68.161 360.146,-21.39 648.031,99.445c210.925,88.533 556.469,71.95 585.245,85.178l4.333,1549.8c-430.978,-71.664 -581.46,-147.081 -797.977,-177.627c-312.535,-44.092 -526.24,18.102 -653.832,159.641c15.914,-28.959 -12.478,-1365.34 -1.445,-1531.82Z" style="fill:#fefffd;"/><g><path d="M2285.91,622.21c-41.125,24.5 -90.125,88.375 -90.125,88.375c-20.125,24.5 -40.25,53.375 -57.75,83.125c0,0 -61.25,110.25 -59.5,168c0,6.125 1.75,9.625 3.5,12.25c0.875,1.75 1.75,2.625 3.5,2.625c6.125,6.125 21,7 21,7c29.75,2.625 77,1.75 77,1.75c-9.625,42.875 -17.5,77.875 -21.875,98c-19.25,83.125 -22.75,119 15.75,119c26.25,0 45.5,-68.25 45.5,-68.25c12.25,-35.875 26.25,-91 40.25,-151.375c7.875,0 14.875,-0.875 19.25,-1.75c27.125,-5.25 27.125,-17.5 27.125,-17.5c0,-7 -8.75,-11.375 -22.75,-14c-4.375,-0.875 -10.5,-1.75 -15.75,-2.625c24.5,-113.75 45.5,-236.25 47.25,-278.25c1.75,-70.875 -32.375,-46.375 -32.375,-46.375Zm-93.625,321.125c-40.25,-5.25 -84.875,3.5 -84.875,3.5c28.875,-70.875 58.625,-122.5 58.625,-122.5c64.75,-109.375 87.5,-126 87.5,-126c-20.125,65.625 -42.875,162.75 -61.25,245Zm110.25,-245c0,0 -0.875,-37.625 -0.875,-62.125c0,0 15.75,16.625 0.875,62.125Z" style="fill:#d20018;fill-rule:nonzero;"/><path d="M2565.91,620.46c-45.5,-6.125 -77,15.75 -84.875,22.75c0,0 -38.5,25.375 -78.75,127.75c-5.25,14.875 -10.5,30.625 -14.875,46.375c-9.625,30.625 -17.5,62.125 -24.5,92.75c-7,30.625 -13.125,61.25 -17.5,89.25c0,0 -33.25,156.625 44.625,202.125c5.25,1.75 21.875,6.125 44.625,4.375c57.75,-5.25 95.375,-49 95.375,-49c52.5,-57.75 86.625,-162.75 86.625,-162.75c56,-160.125 40.25,-257.25 40.25,-257.25c-13.125,-111.125 -91,-116.375 -91,-116.375Zm16.625,160.125c-1.75,14.875 -3.5,29.75 -5.25,44.625c-2.625,15.75 -6.125,31.5 -9.625,47.25c-3.5,15.75 -7,32.375 -11.375,49c-7,31.5 -14.875,61.25 -23.625,88.375c0,0 -17.5,47.25 -38.5,83.125l0.875,0c0,0 -55.125,97.125 -91,75.25c-33.25,-15.75 -21.875,-119.875 -21.875,-119.875c1.75,-23.625 5.25,-48.125 10.5,-74.375c4.375,-25.375 10.5,-52.5 16.625,-78.75c46.375,-203 108.5,-245.875 108.5,-245.875c9.625,-4.375 41.125,-14 59.5,58.625c0,0 5.25,22.75 5.25,41.125c0.875,9.625 0,20.125 0,31.5Zm8.75,-131.25c0,0 32.375,0.875 36.75,49c0,0 -19.25,-36.75 -36.75,-49Z" style="fill:#d20018;fill-rule:nonzero;"/><path d="M2887.03,622.21c-41.125,24.5 -90.125,88.375 -90.125,88.375c-20.125,24.5 -40.25,53.375 -57.75,83.125c0,0 -61.25,110.25 -59.5,168c0,6.125 1.75,9.625 3.5,12.25c0.875,1.75 1.75,2.625 3.5,2.625c6.125,6.125 21,7 21,7c29.75,2.625 77,1.75 77,1.75c-9.625,42.875 -17.5,77.875 -21.875,98c-19.25,83.125 -22.75,119 15.75,119c26.25,0 45.5,-68.25 45.5,-68.25c12.25,-35.875 26.25,-91 40.25,-151.375c7.875,0 14.875,-0.875 19.25,-1.75c27.125,-5.25 27.125,-17.5 27.125,-17.5c0,-7 -8.75,-11.375 -22.75,-14c-4.375,-0.875 -10.5,-1.75 -15.75,-2.625c24.5,-113.75 45.5,-236.25 47.25,-278.25c1.75,-70.875 -32.375,-46.375 -32.375,-46.375Zm-93.625,321.125c-40.25,-5.25 -84.875,3.5 -84.875,3.5c28.875,-70.875 58.625,-122.5 58.625,-122.5c64.75,-109.375 87.5,-126 87.5,-126c-20.125,65.625 -42.875,162.75 -61.25,245Zm110.25,-245c0,0 -0.875,-37.625 -0.875,-62.125c0,0 15.75,16.625 0.875,62.125Z" style="fill:#d20018;fill-rule:nonzero;"/></g><g><path d="M661.075,889.788c-13.611,-34.253 375.819,-45.25 362.208,-10.997c34.906,-19.304 83.801,-11.829 111.638,18.899c27.837,30.729 36.041,71.851 6.895,97.514c40.964,-4.06 70.526,23.854 80.461,62.171c9.935,38.318 -13.911,76.63 -52.82,88.618c38.909,11.989 86.405,41.322 76.506,79.649c-7.856,30.417 -15.078,48.83 -59.877,59.343c29.146,25.663 31.748,69.289 3.911,100.017c-27.837,30.728 -76.732,38.203 -111.638,18.9c13.611,34.253 -5.547,74.553 -45.773,91.605c-40.226,17.053 -87.962,5.113 -109.898,-25.612c-4.619,36.06 -41.743,65.051 -86.39,65.051c-44.647,0 -81.771,-28.991 -86.391,-65.051c-21.935,30.725 -69.672,42.665 -109.897,25.612c-40.226,-17.052 -59.384,-57.352 -45.773,-91.605c-34.907,19.303 -83.801,11.828 -111.638,-18.9c-27.837,-30.728 -25.235,-74.354 3.911,-100.017c-45.523,-6.577 -40.526,-67.889 -33.884,-81.899c11.783,-24.85 23.367,-34.107 62.275,-46.096c-38.908,-11.988 -62.755,-50.3 -52.82,-88.618c9.935,-38.318 50.303,-63.727 91.267,-59.668c-29.146,-25.662 -31.748,-69.288 -3.911,-100.017c27.837,-30.728 76.732,-38.203 111.638,-18.899Z" style="fill:#fefffd;stroke:#000;stroke-width:33.33px;"/><path d="M661.075,889.788c-13.611,-34.253 375.819,-45.25 362.208,-10.997c34.906,-19.304 83.801,-11.829 111.638,18.899c27.837,30.729 36.041,71.851 6.895,97.514c40.964,-4.06 70.526,23.854 80.461,62.171c9.935,38.318 -13.911,76.63 -52.82,88.618c38.909,11.989 86.405,41.322 76.506,79.649c-7.856,30.417 -15.078,48.83 -59.877,59.343c29.146,25.663 31.748,69.289 3.911,100.017c-27.837,30.728 -76.732,38.203 -111.638,18.9c13.611,34.253 -5.547,74.553 -45.773,91.605c-40.226,17.053 -87.962,5.113 -109.898,-25.612c-4.619,36.06 -41.743,65.051 -86.39,65.051c-44.647,0 -81.771,-28.991 -86.391,-65.051c-21.935,30.725 -69.672,42.665 -109.897,25.612c-40.226,-17.052 -59.384,-57.352 -45.773,-91.605c-34.907,19.303 -83.801,11.828 -111.638,-18.9c-27.837,-30.728 -25.235,-74.354 3.911,-100.017c-45.523,-6.577 -40.526,-67.889 -33.884,-81.899c11.783,-24.85 23.367,-34.107 62.275,-46.096c-38.908,-11.988 -62.755,-50.3 -52.82,-88.618c9.935,-38.318 50.303,-63.727 91.267,-59.668c-29.146,-25.662 -31.748,-69.288 -3.911,-100.017c27.837,-30.728 76.732,-38.203 111.638,-18.899Z" style="fill:#fefffd;"/><path d="M765.775,1504.39c15.443,11.761 35.89,19.012 58.218,19.012c44.647,-0 81.771,-28.991 86.39,-65.051c3.44,4.817 7.513,9.173 12.095,13.029c-5.428,35.367 -42.145,63.569 -86.18,63.569c-28.931,0 -54.704,-12.173 -70.523,-30.559Zm-157.995,-31.969c5.886,4.509 12.551,8.416 19.924,11.542c40.226,17.053 87.963,5.112 109.898,-25.612c0.863,6.736 2.86,13.225 5.829,19.326c-23.934,24.849 -66.792,33.362 -103.421,17.833c-13.122,-5.562 -24.002,-13.598 -32.23,-23.089Zm613.896,-300.081c18.025,14.193 29.683,32.413 24.287,53.305c-7.856,30.417 -15.078,48.83 -59.877,59.343c29.146,25.663 31.748,69.289 3.911,100.017c-27.837,30.728 -76.732,38.203 -111.638,18.9c13.611,34.253 -5.547,74.553 -45.773,91.605c-38.299,16.236 -83.407,6.19 -106.57,-21.326c24.736,18.459 61.927,23.488 94.265,9.779c40.225,-17.053 59.384,-57.352 45.772,-91.606c34.907,19.304 83.802,11.829 111.638,-18.899c27.837,-30.728 25.236,-74.355 -3.91,-100.017c44.799,-10.513 52.021,-28.927 59.877,-59.343c4.027,-15.596 -1.448,-29.702 -11.982,-41.758Zm-740.171,211.431c28.489,21.853 69.831,25.506 100.427,8.586c-2.388,6.008 -3.767,12.202 -4.2,18.429c-32.569,9.663 -71.463,0.347 -95.133,-25.781c-0.37,-0.409 -0.735,-0.819 -1.094,-1.234Zm-22.907,-115.624c4.383,2.573 9.547,4.418 15.606,5.294c-1.839,1.619 -3.572,3.31 -5.197,5.063c-4.214,-2.824 -7.644,-6.361 -10.409,-10.357Zm18.887,-135.488c7.33,5.531 15.788,9.914 25.111,12.787c-2.638,0.813 -5.151,1.613 -7.544,2.407c-6.68,-4.244 -12.589,-9.383 -17.567,-15.194Zm713.512,-124.352c15.155,11.246 25.995,28.686 31.28,49.071c9.128,35.206 -10.261,70.408 -43.648,85.19c-7.184,-3.238 -14.47,-5.96 -21.477,-8.119c38.908,-11.989 62.755,-50.301 52.82,-88.618c-3.719,-14.343 -10.187,-27.227 -18.975,-37.524Zm-67.264,-120.909c4.003,3.071 7.756,6.507 11.188,10.295c24.257,26.777 33.606,61.447 16.321,86.903c-6.809,-1.337 -14.071,-1.696 -21.731,-0.937c28.752,-25.315 21.156,-65.677 -5.778,-96.261Z" style="fill:#d9d9d9;"/><path d="M1111.45,913.614c-16.365,-95.223 40.071,123.512 -19.96,221.075c-47.585,-22.138 -438.353,-25.265 -498.285,2.01c-41.259,-72.554 -18.167,-289.804 -16.317,-224.487c47.019,-87.316 138.813,-57.15 260.457,-62.563c82.516,-3.672 110.795,-38.739 180.017,-11.979c25.033,9.677 52.749,58.351 94.088,75.944Z" style="fill:#f9cfb0;"/><clipPath id="_clip1"><path d="M1111.45,913.614c-16.365,-95.223 40.071,123.512 -19.96,221.075c-47.585,-22.138 -438.353,-25.265 -498.285,2.01c-41.259,-72.554 -18.167,-289.804 -16.317,-224.487c47.019,-87.316 138.813,-57.15 260.457,-62.563c82.516,-3.672 110.795,-38.739 180.017,-11.979c25.033,9.677 52.749,58.351 94.088,75.944Z"/></clipPath><g clip-path="url(#_clip1)"><path d="M1097.29,1130.51c-1.85,5.154 24.816,26.611 17.824,19.793c141.091,13.628 144.689,-318.557 172.37,-406.504l-5.434,-1.12l-1.709,0.552l2.097,0.606c-32.381,32.941 -44.65,136.386 -68.28,212.575c-31.254,100.772 -73.15,174.212 -116.868,174.098Zm-41.443,-230.477c1.986,2.385 3.927,4.91 5.817,7.573c0.692,-0.735 1.38,-1.463 2.063,-2.183c-2.582,-1.944 -5.209,-3.739 -7.88,-5.39Z" style="fill:#eabd9b;"/><path d="M590.412,1130.2c2.314,5.057 -18.636,31.628 -13.297,23.422c-118.155,33.396 -152.625,-318.222 -206.04,-394.616l4.691,-2.035l1.592,0.298l-1.787,0.967c33.081,29.022 60.383,123.007 91.279,198.361c40.865,99.667 84.674,180.739 123.562,173.603Zm7.025,-246.076c-1.458,2.797 -2.858,5.731 -4.195,8.801c-0.71,-0.653 -1.417,-1.299 -2.118,-1.936c2.045,-2.435 4.151,-4.721 6.313,-6.865Z" style="fill:#eabd9b;"/><path d="M706.652,1338.9c2.681,4.873 59.99,-9.709 64.708,-18.286c-61.551,29.122 -112.312,-45.468 -147.227,-145.154c-28.532,-81.463 -47.141,-185.549 -46.93,-214.778c-31.154,16.611 -27.519,172.763 55.537,235.448c103.171,77.867 28.344,162.419 73.912,142.77Z" style="fill:#eabd9b;"/><path d="M1001.55,1398.77c-2.475,4.979 -136.056,-126.053 -141.128,-134.426c60.451,-23.65 91.29,-39.313 99.639,-44.061c47.947,-27.27 103.463,-73.418 118.964,-95.749c8.196,-11.808 40.717,-82.757 36.108,-109.046c10.194,17.294 7.781,162.922 -45.681,237.556c-75.852,105.889 -21.555,163.459 -67.902,145.726Z" style="fill:#eabd9b;"/></g><path d="M1111.45,913.614c-16.365,-95.223 40.071,123.512 -19.96,221.075c-47.585,-22.138 -438.353,-25.265 -498.285,2.01c-41.259,-72.554 -18.167,-289.804 -16.317,-224.487c47.019,-87.316 138.813,-57.15 260.457,-62.563c82.516,-3.672 110.795,-38.739 180.017,-11.979c25.033,9.677 52.749,58.351 94.088,75.944Z" style="fill:none;stroke:#000;stroke-width:16.67px;"/><path d="M727.395,982.187c12.8,0.311 -2.911,-23.591 -21.242,-30.16c-20.142,-7.217 -42.299,-2.932 -47.314,7.112c-1.896,3.798 21.374,7.413 37.343,8.496c15.371,1.044 27.868,14.47 31.213,14.552Z" style="fill:#fefffd;"/><clipPath id="_clip2"><path d="M727.395,982.187c12.8,0.311 -2.911,-23.591 -21.242,-30.16c-20.142,-7.217 -42.299,-2.932 -47.314,7.112c-1.896,3.798 21.374,7.413 37.343,8.496c15.371,1.044 27.868,14.47 31.213,14.552Z"/></clipPath><g clip-path="url(#_clip2)"><path d="M657.337,959.598c9.599,-6.644 31.91,-12.151 47.272,-6.319c21.322,8.095 28.208,22.165 24.531,28.943l-0.13,-0.1c0.923,0.96 1.811,1.855 2.673,2.668c4.336,-6.387 -3.744,-21.108 -23.216,-32.875c-20.4,-12.327 -48.169,-0.938 -51.298,7.636c0.056,0.016 0.112,0.032 0.168,0.047Z" style="fill:#e6e6e6;"/></g><path d="M957.827,987.816c-12.692,1.69 0.351,-23.767 17.866,-32.275c19.246,-9.347 41.736,-7.476 47.805,1.968c2.294,3.571 -20.45,9.675 -36.208,12.474c-15.17,2.695 -26.145,17.391 -29.463,17.833Z" style="fill:#fefffd;"/><clipPath id="_clip3"><path d="M957.827,987.816c-12.692,1.69 0.351,-23.767 17.866,-32.275c19.246,-9.347 41.736,-7.476 47.805,1.968c2.294,3.571 -20.45,9.675 -36.208,12.474c-15.17,2.695 -26.145,17.391 -29.463,17.833Z"/></clipPath><g clip-path="url(#_clip3)"><path d="M1025.04,957.804c-10.26,-5.571 -33.034,-8.64 -47.678,-1.185c-20.324,10.348 -25.653,25.078 -21.266,31.42l0.118,-0.113c-0.814,1.053 -1.601,2.039 -2.369,2.94c-5.001,-5.882 1.445,-21.388 19.535,-35.186c18.951,-14.456 47.787,-6.128 51.822,2.058c-0.054,0.023 -0.108,0.045 -0.162,0.066Z" style="fill:#e6e6e6;"/></g><g><path d="M1149.85,1103.73c0.159,6.642 -3.772,44.774 -23.376,65.569c-12.777,13.552 -53.278,48.145 -123.332,55.117c-45.436,4.522 -142.432,4.375 -157.737,-84.614c-6.959,-40.459 20.644,-69.08 66.291,-70.174c32.341,-0.774 45.608,12.961 91.446,27.829c16.476,5.345 21.125,9.217 59.803,18.011c15.184,3.452 42.272,2.518 56.381,-0c6.523,-1.165 30.467,-14.107 30.524,-11.738Z" style="fill:#fefffd;stroke:#000;stroke-width:33.33px;"/><path d="M1149.85,1103.73c0.159,6.642 -3.772,44.774 -23.376,65.569c-12.777,13.552 -53.278,48.145 -123.332,55.117c-45.436,4.522 -142.432,4.375 -157.737,-84.614c-6.959,-40.459 20.644,-69.08 66.291,-70.174c32.341,-0.774 45.608,12.961 91.446,27.829c16.476,5.345 21.125,9.217 59.803,18.011c15.184,3.452 42.272,2.518 56.381,-0c6.523,-1.165 30.467,-14.107 30.524,-11.738Z" style="fill:#fefffd;"/><path d="M1145.56,1104.56c2.589,-1.013 4.271,-1.456 4.286,-0.83c0.159,6.642 -3.772,44.774 -23.376,65.569c-12.777,13.552 -53.278,48.145 -123.332,55.117c-34.981,3.481 -100.524,4.196 -135.816,-36.267c35.396,34.997 95.715,35.802 128.837,33.404c70.216,-5.083 111.635,-38.572 124.772,-51.776c20.157,-20.259 25.113,-58.272 25.133,-64.915c0,-0.202 -0.176,-0.298 -0.504,-0.302Z" style="fill:#bfbfbf;"/></g><g><path d="M524.738,1103.73c-0.159,6.642 3.771,44.774 23.376,65.569c12.776,13.552 53.278,48.145 123.332,55.117c45.436,4.522 142.432,4.375 157.737,-84.614c6.959,-40.459 -20.644,-69.08 -66.291,-70.174c-32.341,-0.774 -45.609,12.961 -91.446,27.829c-16.476,5.345 -21.125,9.217 -59.803,18.011c-15.184,3.452 -42.272,2.518 -56.381,-0c-6.524,-1.165 -30.467,-14.107 -30.524,-11.738Z" style="fill:#fefffd;stroke:#000;stroke-width:33.33px;"/><path d="M524.738,1103.73c-0.159,6.642 3.771,44.774 23.376,65.569c12.776,13.552 53.278,48.145 123.332,55.117c45.436,4.522 142.432,4.375 157.737,-84.614c6.959,-40.459 -20.644,-69.08 -66.291,-70.174c-32.341,-0.774 -45.609,12.961 -91.446,27.829c-16.476,5.345 -21.125,9.217 -59.803,18.011c-15.184,3.452 -42.272,2.518 -56.381,-0c-6.524,-1.165 -30.467,-14.107 -30.524,-11.738Z" style="fill:#fefffd;"/><path d="M529.024,1104.56c-2.589,-1.013 -4.271,-1.456 -4.286,-0.83c-0.159,6.642 3.771,44.774 23.376,65.569c12.776,13.552 53.278,48.145 123.332,55.117c34.981,3.481 100.524,4.196 135.816,-36.267c-35.396,34.997 -95.715,35.802 -128.837,33.404c-70.216,-5.083 -111.635,-38.572 -124.772,-51.776c-20.157,-20.259 -25.113,-58.272 -25.133,-64.915c-0,-0.202 0.176,-0.298 0.504,-0.302Z" style="fill:#bfbfbf;"/></g><ellipse cx="835.51" cy="1069.59" rx="43.658" ry="45.603" style="fill:#f9cfb0;stroke:#623a28;stroke-width:18.75px;"/><ellipse cx="835.51" cy="1069.59" rx="43.658" ry="45.603" style="fill:#f9cfb0;"/><clipPath id="_clip4"><ellipse cx="835.51" cy="1069.59" rx="43.658" ry="45.603"/></clipPath><g clip-path="url(#_clip4)"><path d="M853.989,1028.27c14.871,7.277 25.179,23.052 25.179,41.322c-0,25.169 -19.563,45.603 -43.658,45.603c-10.346,0 -19.857,-3.767 -27.34,-10.058c5.611,2.746 11.875,4.281 18.48,4.281c24.095,-0 43.657,-20.434 43.657,-45.603c0,-14.362 -6.369,-27.182 -16.318,-35.545Z" style="fill:#eabd9b;"/><path d="M815.338,1111.46c-1.533,-0.601 -3.043,-1.297 -4.526,-2.092c-21.238,-11.381 -28.829,-38.631 -16.941,-60.816c11.889,-22.185 38.783,-30.956 60.021,-19.575c1.482,0.794 2.898,1.666 4.248,2.61c-20.393,-7.999 -44.436,1.031 -55.494,21.667c-11.059,20.636 -5.262,45.656 12.692,58.206Z" style="fill:#eabd9b;"/></g><ellipse cx="701.806" cy="1023.94" rx="21.643" ry="26.331" style="fill:#1a1a1a;"/><path d="M687.649,1043.85c-6.098,-4.658 -10.157,-12.915 -10.157,-22.317c0,-14.532 9.698,-26.331 21.644,-26.331c5.411,-0 10.361,2.421 14.157,6.42c-3.331,-2.544 -7.269,-4.015 -11.487,-4.015c-11.945,0 -21.643,11.799 -21.643,26.332c0,7.949 2.902,15.08 7.486,19.911Z" style="fill:#4d4d4d;"/><ellipse cx="975.484" cy="1024.34" rx="22.732" ry="26.634" style="fill:#1a1a1a;"/><path d="M965.224,1048.11c-7.398,-4.397 -12.472,-13.394 -12.472,-23.769c-0,-14.7 10.186,-26.635 22.732,-26.635c4.878,0 9.399,1.804 13.105,4.874c-3.082,-1.831 -6.569,-2.864 -10.26,-2.864c-12.547,-0 -22.733,11.934 -22.733,26.634c0,8.985 3.806,16.936 9.628,21.76Z" style="fill:#4d4d4d;"/></g><g><path d="M609.399,734.856c-0,0 -3.191,-7.593 -0,-31.309c-0,-0 29.785,-84.221 101.65,-146.649c82.341,-71.529 195.844,-108.042 236.551,-113.259c40.707,-5.216 114.416,-8.644 151.728,42.912c37.312,51.557 145.075,286.694 138.088,346.461l-33.181,0.323c6.845,8.658 -117.499,-150.974 -147.67,-206.362c-15.178,-27.865 11.902,121.071 20.585,118.177c0,-0 -59.123,46.198 -65.506,67.244c-0,-0 -51.965,-62.364 -61.49,-103.043c-0,-0 -39.467,106.359 -81.635,119.707c-0,0 -82.658,-51.136 -92.477,-132.105c0,0 -39.873,121.331 -71.36,132.105c-0,0 -29.806,-91.288 -95.283,-94.202" style="fill:#d20018;stroke:#000;stroke-width:33.33px;"/><path d="M609.399,734.856c-0,0 -3.191,-7.593 -0,-31.309c-0,-0 29.785,-84.221 101.65,-146.649c82.341,-71.529 195.844,-108.042 236.551,-113.259c40.707,-5.216 114.416,-8.644 151.728,42.912c37.312,51.557 145.075,286.694 138.088,346.461l-33.181,0.323c6.845,8.658 -117.499,-150.974 -147.67,-206.362c-15.178,-27.865 11.902,121.071 20.585,118.177c0,-0 -59.123,46.198 -65.506,67.244c-0,-0 -51.965,-62.364 -61.49,-103.043c-0,-0 -39.467,106.359 -81.635,119.707c-0,0 -82.658,-51.136 -92.477,-132.105c0,0 -39.873,121.331 -71.36,132.105c-0,0 -29.806,-91.288 -95.283,-94.202" style="fill:#d20018;"/><path d="M993.836,440.908c37.383,0.83 79.96,10.363 105.492,45.643c37.312,51.557 145.075,286.694 138.088,346.461l-33.166,0.323c0.342,0.445 0.348,0.459 -0.015,0l0.015,0l-0.214,-0.282l-0.466,-0.606l19.593,-0.191c6.986,-59.767 -100.777,-294.904 -138.088,-346.461c-22.335,-30.861 -57.712,-42.021 -91.239,-44.887Zm9.089,360.523c16.356,-22.957 59.972,-57.037 59.972,-57.037c-8.683,2.894 -21.438,-145.319 -6.259,-117.454c2.818,5.174 -1.375,12.398 2.896,19.157c3.921,35.248 11.738,101.012 17.616,99.053c0,-0 -59.123,46.198 -65.506,67.244c-0,-0 -3.443,-4.132 -8.719,-10.963Z" style="fill:#9d0a0e;"/><path d="M1089.29,749.307c-85.616,-33.054 -398.099,-84.377 -495.393,-48.347c-36.287,13.439 -37.829,47.27 -43.213,88.488c-4.721,36.143 -19.146,77.965 28.531,116.695c245.238,36.635 429.657,33.734 528.378,-6.859c-8.448,-23.373 23.591,-36.877 28.389,-70.663c6.454,-45.445 -9.495,-64.954 -46.692,-79.314Z" style="fill:#fefffd;stroke:#000;stroke-width:35.42px;"/><path d="M1089.29,749.307c-85.616,-33.054 -398.099,-84.377 -495.393,-48.347c-36.287,13.439 -37.829,47.27 -43.213,88.488c-4.721,36.143 -19.146,77.965 28.531,116.695c245.238,36.635 429.657,33.734 528.378,-6.859c-8.448,-23.373 23.591,-36.877 28.389,-70.663c6.454,-45.445 -9.495,-64.954 -46.692,-79.314Z" style="fill:#fefffd;"/><path d="M1038.88,734.047c14.325,3.938 26.488,7.795 35.906,11.431c37.197,14.361 53.146,33.87 46.692,79.315c-4.798,33.786 -36.837,47.29 -28.389,70.663c-97.102,39.927 -277.114,43.388 -516.344,8.631c0.8,0.684 1.625,1.371 2.468,2.056c245.238,36.635 429.657,33.734 528.378,-6.859c-8.448,-23.373 23.591,-36.877 28.389,-70.663c6.454,-45.445 -9.495,-64.954 -46.692,-79.314c-12.457,-4.81 -29.717,-10.006 -50.408,-15.26Z" style="fill:#e6e6e6;"/><g><ellipse cx="1262.52" cy="872.674" rx="68.982" ry="62.453" style="fill:#fefffd;"/><clipPath id="_clip5"><ellipse cx="1262.52" cy="872.674" rx="68.982" ry="62.453"/></clipPath><g clip-path="url(#_clip5)"><path d="M1253.18,934.885c-1.596,0.16 -3.216,0.242 -4.852,0.242c-30.24,0 -54.79,-27.984 -54.79,-62.453c-0,-34.469 24.55,-62.453 54.79,-62.453c1.636,-0 3.256,0.082 4.852,0.242c-27.973,2.805 -49.94,29.607 -49.94,62.211c0,32.604 21.967,59.406 49.94,62.211Z" style="fill:#f2f2f2;"/><path d="M1257.1,810.412c1.792,-0.127 3.599,-0.191 5.423,-0.191c38.072,-0 68.982,27.984 68.982,62.453c0,34.469 -30.91,62.453 -68.982,62.453c-1.824,0 -3.631,-0.064 -5.423,-0.191c35.541,-2.505 63.56,-29.444 63.56,-62.262c0,-32.818 -28.019,-59.757 -63.56,-62.262Z" style="fill:#ccc;"/><path d="M1268.57,937.604c-0.537,0.012 -1.076,0.017 -1.617,0.017c-38.354,0 -69.492,-28.543 -69.492,-63.7c0,-35.157 31.138,-63.7 69.492,-63.7c0.541,-0 1.08,0.006 1.617,0.017c-37.608,0.789 -71.109,27.775 -71.109,62.436c0,34.661 33.501,64.141 71.109,64.93Z" style="fill:#f6ca04;stroke:#fefffd;stroke-width:8.33px;"/></g><ellipse cx="1262.52" cy="872.674" rx="68.982" ry="62.453" style="fill:none;stroke:#000;stroke-width:14.58px;"/></g></g></svg>