<svg xmlns="http://www.w3.org/2000/svg" viewBox="0 0 3389 1978" xml:space="preserve" style="fill-rule:evenodd;clip-rule:evenodd;stroke-linecap:round;stroke-linejoin:round;stroke-miterlimit:1.5"><path d="M1696.71 258.152C1515.6-112.554 1048.807-29.779 622.96 168.901 380.52 282.014 33.69 242.661-.008 258.152v1717.64h1696.71c15.212-53.341 77.294-1559.43 0-1717.64Z" style="fill:#d20018"/><path d="M1692.19 258.152c181.11-370.706 647.903-287.931 1073.75-89.251 242.441 113.113 589.271 73.76 622.969 89.251v1717.64h-1696.72c-15.211-53.341-77.293-1559.43 0-1717.64Z" style="fill:#d20018"/><path d="M2360.98 1798.68c229.779 24.563 841.922 195.126 865.944 177.11h-1433.03c34.715-32.311 169.978-143.784 314-162.6 73.765-9.638 209.206-19.2 253.088-14.51ZM1039.35 1797.35c-229.778 24.562-841.922 195.125-865.943 177.109h1433.03c-34.715-32.311-169.978-143.784-314.001-162.6-73.765-9.637-209.205-19.2-253.088-14.509Z" style="fill:#9d0a0e"/><path d="M1615.24 337.874c-5.737-86.573-153.161-156.896-215.645-184.623-153.6-68.161-360.145-21.39-648.03 99.445-210.925 88.533-556.469 71.95-585.245 85.178l-4.333 1549.8c430.978-71.664 581.459-147.081 797.977-177.627 312.534-44.092 526.24 18.102 653.832 159.641-15.914-28.959 12.477-1365.34 1.444-1531.82M1773.67 337.874c5.738-86.573 153.162-156.896 215.645-184.623 153.6-68.161 360.146-21.39 648.031 99.445 210.925 88.533 556.469 71.95 585.245 85.178l4.333 1549.8c-430.978-71.664-581.46-147.081-797.977-177.627-312.535-44.092-526.24 18.102-653.832 159.641 15.914-28.959-12.478-1365.34-1.445-1531.82Z" style="fill:#fefffd"/><path d="M2285.91 622.21c-41.125 24.5-90.125 88.375-90.125 88.375-20.125 24.5-40.25 53.375-57.75 83.125 0 0-61.25 110.25-59.5 168 0 6.125 1.75 9.625 3.5 12.25.875 1.75 1.75 2.625 3.5 2.625 6.125 6.125 21 7 21 7 29.75 2.625 77 1.75 77 1.75-9.625 42.875-17.5 77.875-21.875 98-19.25 83.125-22.75 119 15.75 119 26.25 0 45.5-68.25 45.5-68.25 12.25-35.875 26.25-91 40.25-151.375 7.875 0 14.875-.875 19.25-1.75 27.125-5.25 27.125-17.5 27.125-17.5 0-7-8.75-11.375-22.75-14-4.375-.875-10.5-1.75-15.75-2.625 24.5-113.75 45.5-236.25 47.25-278.25 1.75-70.875-32.375-46.375-32.375-46.375Zm-93.625 321.125c-40.25-5.25-84.875 3.5-84.875 3.5 28.875-70.875 58.625-122.5 58.625-122.5 64.75-109.375 87.5-126 87.5-126-20.125 65.625-42.875 162.75-61.25 245Zm110.25-245s-.875-37.625-.875-62.125c0 0 15.75 16.625.875 62.125ZM2565.91 620.46c-45.5-6.125-77 15.75-84.875 22.75 0 0-38.5 25.375-78.75 127.75-5.25 14.875-10.5 30.625-14.875 46.375-9.625 30.625-17.5 62.125-24.5 92.75s-13.125 61.25-17.5 89.25c0 0-33.25 156.625 44.625 202.125 5.25 1.75 21.875 6.125 44.625 4.375 57.75-5.25 95.375-49 95.375-49 52.5-57.75 86.625-162.75 86.625-162.75 56-160.125 40.25-257.25 40.25-257.25-13.125-111.125-91-116.375-91-116.375Zm16.625 160.125-5.25 44.625c-2.625 15.75-6.125 31.5-9.625 47.25s-7 32.375-11.375 49c-7 31.5-14.875 61.25-23.625 88.375 0 0-17.5 47.25-38.5 83.125h.875s-55.125 97.125-91 75.25c-33.25-15.75-21.875-119.875-21.875-119.875 1.75-23.625 5.25-48.125 10.5-74.375 4.375-25.375 10.5-52.5 16.625-78.75 46.375-203 108.5-245.875 108.5-245.875 9.625-4.375 41.125-14 59.5 58.625 0 0 5.25 22.75 5.25 41.125.875 9.625 0 20.125 0 31.5Zm8.75-131.25s32.375.875 36.75 49c0 0-19.25-36.75-36.75-49ZM2887.03 622.21c-41.125 24.5-90.125 88.375-90.125 88.375-20.125 24.5-40.25 53.375-57.75 83.125 0 0-61.25 110.25-59.5 168 0 6.125 1.75 9.625 3.5 12.25.875 1.75 1.75 2.625 3.5 2.625 6.125 6.125 21 7 21 7 29.75 2.625 77 1.75 77 1.75-9.625 42.875-17.5 77.875-21.875 98-19.25 83.125-22.75 119 15.75 119 26.25 0 45.5-68.25 45.5-68.25 12.25-35.875 26.25-91 40.25-151.375 7.875 0 14.875-.875 19.25-1.75 27.125-5.25 27.125-17.5 27.125-17.5 0-7-8.75-11.375-22.75-14-4.375-.875-10.5-1.75-15.75-2.625 24.5-113.75 45.5-236.25 47.25-278.25 1.75-70.875-32.375-46.375-32.375-46.375Zm-93.625 321.125c-40.25-5.25-84.875 3.5-84.875 3.5 28.875-70.875 58.625-122.5 58.625-122.5 64.75-109.375 87.5-126 87.5-126-20.125 65.625-42.875 162.75-61.25 245Zm110.25-245s-.875-37.625-.875-62.125c0 0 15.75 16.625.875 62.125Z" style="fill:#d20018;fill-rule:nonzero"/><g><path d="M661.075 889.788c-13.611-34.253 375.819-45.25 362.208-10.997 34.906-19.304 83.801-11.829 111.638 18.899 27.837 30.729 36.041 71.851 6.895 97.514 40.964-4.06 70.526 23.854 80.461 62.171 9.935 38.318-13.911 76.63-52.82 88.618 38.909 11.989 86.405 41.322 76.506 79.649-7.856 30.417-15.078 48.83-59.877 59.343 29.146 25.663 31.748 69.289 3.911 100.017-27.837 30.728-76.732 38.203-111.638 18.9 13.611 34.253-5.547 74.553-45.773 91.605-40.226 17.053-87.962 5.113-109.898-25.612-4.619 36.06-41.743 65.051-86.39 65.051s-81.771-28.991-86.391-65.051c-21.935 30.725-69.672 42.665-109.897 25.612-40.226-17.052-59.384-57.352-45.773-91.605-34.907 19.303-83.801 11.828-111.638-18.9-27.837-30.728-25.235-74.354 3.911-100.017-45.523-6.577-40.526-67.889-33.884-81.899 11.783-24.85 23.367-34.107 62.275-46.096-38.908-11.988-62.755-50.3-52.82-88.618 9.935-38.318 50.303-63.727 91.267-59.668-29.146-25.662-31.748-69.288-3.911-100.017 27.837-30.728 76.732-38.203 111.638-18.899Z" style="fill:#fefffd;stroke:#000;stroke-width:33.33px"/><path d="M661.075 889.788c-13.611-34.253 375.819-45.25 362.208-10.997 34.906-19.304 83.801-11.829 111.638 18.899 27.837 30.729 36.041 71.851 6.895 97.514 40.964-4.06 70.526 23.854 80.461 62.171 9.935 38.318-13.911 76.63-52.82 88.618 38.909 11.989 86.405 41.322 76.506 79.649-7.856 30.417-15.078 48.83-59.877 59.343 29.146 25.663 31.748 69.289 3.911 100.017-27.837 30.728-76.732 38.203-111.638 18.9 13.611 34.253-5.547 74.553-45.773 91.605-40.226 17.053-87.962 5.113-109.898-25.612-4.619 36.06-41.743 65.051-86.39 65.051s-81.771-28.991-86.391-65.051c-21.935 30.725-69.672 42.665-109.897 25.612-40.226-17.052-59.384-57.352-45.773-91.605-34.907 19.303-83.801 11.828-111.638-18.9-27.837-30.728-25.235-74.354 3.911-100.017-45.523-6.577-40.526-67.889-33.884-81.899 11.783-24.85 23.367-34.107 62.275-46.096-38.908-11.988-62.755-50.3-52.82-88.618 9.935-38.318 50.303-63.727 91.267-59.668-29.146-25.662-31.748-69.288-3.911-100.017 27.837-30.728 76.732-38.203 111.638-18.899Z" style="fill:#fefffd"/><path d="M765.775 1504.39c15.443 11.761 35.89 19.012 58.218 19.012 44.647 0 81.771-28.991 86.39-65.051 3.44 4.817 7.513 9.173 12.095 13.029-5.428 35.367-42.145 63.569-86.18 63.569-28.931 0-54.704-12.173-70.523-30.559Zm-157.995-31.969c5.886 4.509 12.551 8.416 19.924 11.542 40.226 17.053 87.963 5.112 109.898-25.612.863 6.736 2.86 13.225 5.829 19.326-23.934 24.849-66.792 33.362-103.421 17.833-13.122-5.562-24.002-13.598-32.23-23.089Zm613.896-300.081c18.025 14.193 29.683 32.413 24.287 53.305-7.856 30.417-15.078 48.83-59.877 59.343 29.146 25.663 31.748 69.289 3.911 100.017-27.837 30.728-76.732 38.203-111.638 18.9 13.611 34.253-5.547 74.553-45.773 91.605-38.299 16.236-83.407 6.19-106.57-21.326 24.736 18.459 61.927 23.488 94.265 9.779 40.225-17.053 59.384-57.352 45.772-91.606 34.907 19.304 83.802 11.829 111.638-18.899 27.837-30.728 25.236-74.355-3.91-100.017 44.799-10.513 52.021-28.927 59.877-59.343 4.027-15.596-1.448-29.702-11.982-41.758Zm-740.171 211.431c28.489 21.853 69.831 25.506 100.427 8.586a61.284 61.284 0 0 0-4.2 18.429c-32.569 9.663-71.463.347-95.133-25.781-.37-.409-.735-.819-1.094-1.234Zm-22.907-115.624c4.383 2.573 9.547 4.418 15.606 5.294a71.575 71.575 0 0 0-5.197 5.063c-4.214-2.824-7.644-6.361-10.409-10.357Zm18.887-135.488c7.33 5.531 15.788 9.914 25.111 12.787a370.616 370.616 0 0 0-7.544 2.407 78.655 78.655 0 0 1-17.567-15.194Zm713.512-124.352c15.155 11.246 25.995 28.686 31.28 49.071 9.128 35.206-10.261 70.408-43.648 85.19a185.738 185.738 0 0 0-21.477-8.119c38.908-11.989 62.755-50.301 52.82-88.618-3.719-14.343-10.187-27.227-18.975-37.524Zm-67.264-120.909a84.45 84.45 0 0 1 11.188 10.295c24.257 26.777 33.606 61.447 16.321 86.903-6.809-1.337-14.071-1.696-21.731-.937 28.752-25.315 21.156-65.677-5.778-96.261Z" style="fill:#d9d9d9"/><path d="M1111.45 913.614c-16.365-95.223 40.071 123.512-19.96 221.075-47.585-22.138-438.353-25.265-498.285 2.01-41.259-72.554-18.167-289.804-16.317-224.487 47.019-87.316 138.813-57.15 260.457-62.563 82.516-3.672 110.795-38.739 180.017-11.979 25.033 9.677 52.749 58.351 94.088 75.944Z" style="fill:#f9cfb0"/><clipPath id="a"><path d="M1111.45 913.614c-16.365-95.223 40.071 123.512-19.96 221.075-47.585-22.138-438.353-25.265-498.285 2.01-41.259-72.554-18.167-289.804-16.317-224.487 47.019-87.316 138.813-57.15 260.457-62.563 82.516-3.672 110.795-38.739 180.017-11.979 25.033 9.677 52.749 58.351 94.088 75.944Z"/></clipPath><g clip-path="url(#a)"><path d="M1097.29 1130.51c-1.85 5.154 24.816 26.611 17.824 19.793 141.091 13.628 144.689-318.557 172.37-406.504l-5.434-1.12-1.709.552 2.097.606c-32.381 32.941-44.65 136.386-68.28 212.575-31.254 100.772-73.15 174.212-116.868 174.098Zm-41.443-230.477a123.85 123.85 0 0 1 5.817 7.573c.692-.735 1.38-1.463 2.063-2.183a104.068 104.068 0 0 0-7.88-5.39ZM590.412 1130.2c2.314 5.057-18.636 31.628-13.297 23.422C458.96 1187.018 424.49 835.4 371.075 759.006l4.691-2.035 1.592.298-1.787.967c33.081 29.022 60.383 123.007 91.279 198.361 40.865 99.667 84.674 180.739 123.562 173.603Zm7.025-246.076a139.784 139.784 0 0 0-4.195 8.801c-.71-.653-1.417-1.299-2.118-1.936a102.458 102.458 0 0 1 6.313-6.865Z" style="fill:#eabd9b"/><path d="M706.652 1338.9c2.681 4.873 59.99-9.709 64.708-18.286-61.551 29.122-112.312-45.468-147.227-145.154-28.532-81.463-47.141-185.549-46.93-214.778-31.154 16.611-27.519 172.763 55.537 235.448 103.171 77.867 28.344 162.419 73.912 142.77ZM1001.55 1398.77c-2.475 4.979-136.056-126.053-141.128-134.426 60.451-23.65 91.29-39.313 99.639-44.061 47.947-27.27 103.463-73.418 118.964-95.749 8.196-11.808 40.717-82.757 36.108-109.046 10.194 17.294 7.781 162.922-45.681 237.556-75.852 105.889-21.555 163.459-67.902 145.726Z" style="fill:#eabd9b"/></g><path d="M1111.45 913.614c-16.365-95.223 40.071 123.512-19.96 221.075-47.585-22.138-438.353-25.265-498.285 2.01-41.259-72.554-18.167-289.804-16.317-224.487 47.019-87.316 138.813-57.15 260.457-62.563 82.516-3.672 110.795-38.739 180.017-11.979 25.033 9.677 52.749 58.351 94.088 75.944Z" style="fill:none;stroke:#000;stroke-width:16.67px"/><path d="M727.395 982.187c12.8.311-2.911-23.591-21.242-30.16-20.142-7.217-42.299-2.932-47.314 7.112-1.896 3.798 21.374 7.413 37.343 8.496 15.371 1.044 27.868 14.47 31.213 14.552Z" style="fill:#fefffd"/><clipPath id="b"><path d="M727.395 982.187c12.8.311-2.911-23.591-21.242-30.16-20.142-7.217-42.299-2.932-47.314 7.112-1.896 3.798 21.374 7.413 37.343 8.496 15.371 1.044 27.868 14.47 31.213 14.552Z"/></clipPath><g clip-path="url(#b)"><path d="M657.337 959.598c9.599-6.644 31.91-12.151 47.272-6.319 21.322 8.095 28.208 22.165 24.531 28.943l-.13-.1c.923.96 1.811 1.855 2.673 2.668 4.336-6.387-3.744-21.108-23.216-32.875-20.4-12.327-48.169-.938-51.298 7.636l.168.047Z" style="fill:#e6e6e6"/></g><path d="M957.827 987.816c-12.692 1.69.351-23.767 17.866-32.275 19.246-9.347 41.736-7.476 47.805 1.968 2.294 3.571-20.45 9.675-36.208 12.474-15.17 2.695-26.145 17.391-29.463 17.833Z" style="fill:#fefffd"/><clipPath id="c"><path d="M957.827 987.816c-12.692 1.69.351-23.767 17.866-32.275 19.246-9.347 41.736-7.476 47.805 1.968 2.294 3.571-20.45 9.675-36.208 12.474-15.17 2.695-26.145 17.391-29.463 17.833Z"/></clipPath><g clip-path="url(#c)"><path d="M1025.04 957.804c-10.26-5.571-33.034-8.64-47.678-1.185-20.324 10.348-25.653 25.078-21.266 31.42l.118-.113a79.738 79.738 0 0 1-2.369 2.94c-5.001-5.882 1.445-21.388 19.535-35.186 18.951-14.456 47.787-6.128 51.822 2.058a5.507 5.507 0 0 1-.162.066Z" style="fill:#e6e6e6"/></g><path d="M1149.85 1103.73c.159 6.642-3.772 44.774-23.376 65.569-12.777 13.552-53.278 48.145-123.332 55.117-45.436 4.522-142.432 4.375-157.737-84.614-6.959-40.459 20.644-69.08 66.291-70.174 32.341-.774 45.608 12.961 91.446 27.829 16.476 5.345 21.125 9.217 59.803 18.011 15.184 3.452 42.272 2.518 56.381 0 6.523-1.165 30.467-14.107 30.524-11.738Z" style="fill:#fefffd;stroke:#000;stroke-width:33.33px"/><path d="M1149.85 1103.73c.159 6.642-3.772 44.774-23.376 65.569-12.777 13.552-53.278 48.145-123.332 55.117-45.436 4.522-142.432 4.375-157.737-84.614-6.959-40.459 20.644-69.08 66.291-70.174 32.341-.774 45.608 12.961 91.446 27.829 16.476 5.345 21.125 9.217 59.803 18.011 15.184 3.452 42.272 2.518 56.381 0 6.523-1.165 30.467-14.107 30.524-11.738Z" style="fill:#fefffd"/><path d="M1145.56 1104.56c2.589-1.013 4.271-1.456 4.286-.83.159 6.642-3.772 44.774-23.376 65.569-12.777 13.552-53.278 48.145-123.332 55.117-34.981 3.481-100.524 4.196-135.816-36.267 35.396 34.997 95.715 35.802 128.837 33.404 70.216-5.083 111.635-38.572 124.772-51.776 20.157-20.259 25.113-58.272 25.133-64.915 0-.202-.176-.298-.504-.302Z" style="fill:#bfbfbf"/><path d="M524.738 1103.73c-.159 6.642 3.771 44.774 23.376 65.569 12.776 13.552 53.278 48.145 123.332 55.117 45.436 4.522 142.432 4.375 157.737-84.614 6.959-40.459-20.644-69.08-66.291-70.174-32.341-.774-45.609 12.961-91.446 27.829-16.476 5.345-21.125 9.217-59.803 18.011-15.184 3.452-42.272 2.518-56.381 0-6.524-1.165-30.467-14.107-30.524-11.738Z" style="fill:#fefffd;stroke:#000;stroke-width:33.33px"/><path d="M524.738 1103.73c-.159 6.642 3.771 44.774 23.376 65.569 12.776 13.552 53.278 48.145 123.332 55.117 45.436 4.522 142.432 4.375 157.737-84.614 6.959-40.459-20.644-69.08-66.291-70.174-32.341-.774-45.609 12.961-91.446 27.829-16.476 5.345-21.125 9.217-59.803 18.011-15.184 3.452-42.272 2.518-56.381 0-6.524-1.165-30.467-14.107-30.524-11.738Z" style="fill:#fefffd"/><path d="M529.024 1104.56c-2.589-1.013-4.271-1.456-4.286-.83-.159 6.642 3.771 44.774 23.376 65.569 12.776 13.552 53.278 48.145 123.332 55.117 34.981 3.481 100.524 4.196 135.816-36.267-35.396 34.997-95.715 35.802-128.837 33.404-70.216-5.083-111.635-38.572-124.772-51.776-20.157-20.259-25.113-58.272-25.133-64.915 0-.202.176-.298.504-.302Z" style="fill:#bfbfbf"/><ellipse cx="835.51" cy="1069.59" rx="43.658" ry="45.603" style="fill:#f9cfb0;stroke:#623a28;stroke-width:18.75px"/><ellipse cx="835.51" cy="1069.59" rx="43.658" ry="45.603" style="fill:#f9cfb0"/><clipPath id="d"><ellipse cx="835.51" cy="1069.59" rx="43.658" ry="45.603"/></clipPath><g clip-path="url(#d)"><path d="M853.989 1028.27c14.871 7.277 25.179 23.052 25.179 41.322 0 25.169-19.563 45.603-43.658 45.603-10.346 0-19.857-3.767-27.34-10.058a41.904 41.904 0 0 0 18.48 4.281c24.095 0 43.657-20.434 43.657-45.603 0-14.362-6.369-27.182-16.318-35.545Z" style="fill:#eabd9b"/><path d="M815.338 1111.46a42.086 42.086 0 0 1-4.526-2.092c-21.238-11.381-28.829-38.631-16.941-60.816 11.889-22.185 38.783-30.956 60.021-19.575a42.116 42.116 0 0 1 4.248 2.61c-20.393-7.999-44.436 1.031-55.494 21.667-11.059 20.636-5.262 45.656 12.692 58.206Z" style="fill:#eabd9b"/></g><ellipse cx="701.806" cy="1023.94" rx="21.643" ry="26.331" style="fill:#1a1a1a"/><path d="M687.649 1043.85c-6.098-4.658-10.157-12.915-10.157-22.317 0-14.532 9.698-26.331 21.644-26.331 5.411 0 10.361 2.421 14.157 6.42-3.331-2.544-7.269-4.015-11.487-4.015-11.945 0-21.643 11.799-21.643 26.332 0 7.949 2.902 15.08 7.486 19.911Z" style="fill:#4d4d4d"/><ellipse cx="975.484" cy="1024.34" rx="22.732" ry="26.634" style="fill:#1a1a1a"/><path d="M965.224 1048.11c-7.398-4.397-12.472-13.394-12.472-23.769 0-14.7 10.186-26.635 22.732-26.635 4.878 0 9.399 1.804 13.105 4.874-3.082-1.831-6.569-2.864-10.26-2.864-12.547 0-22.733 11.934-22.733 26.634 0 8.985 3.806 16.936 9.628 21.76Z" style="fill:#4d4d4d"/></g><g><path d="M609.399 734.856s-3.191-7.593 0-31.309c0 0 29.785-84.221 101.65-146.649C793.39 485.369 906.893 448.856 947.6 443.639c40.707-5.216 114.416-8.644 151.728 42.912 37.312 51.557 145.075 286.694 138.088 346.461l-33.181.323c6.845 8.658-117.499-150.974-147.67-206.362-15.178-27.865 11.902 121.071 20.585 118.177 0 0-59.123 46.198-65.506 67.244 0 0-51.965-62.364-61.49-103.043 0 0-39.467 106.359-81.635 119.707 0 0-82.658-51.136-92.477-132.105 0 0-39.873 121.331-71.36 132.105 0 0-29.806-91.288-95.283-94.202" style="fill:#d20018;stroke:#000;stroke-width:33.33px"/><path d="M609.399 734.856s-3.191-7.593 0-31.309c0 0 29.785-84.221 101.65-146.649C793.39 485.369 906.893 448.856 947.6 443.639c40.707-5.216 114.416-8.644 151.728 42.912 37.312 51.557 145.075 286.694 138.088 346.461l-33.181.323c6.845 8.658-117.499-150.974-147.67-206.362-15.178-27.865 11.902 121.071 20.585 118.177 0 0-59.123 46.198-65.506 67.244 0 0-51.965-62.364-61.49-103.043 0 0-39.467 106.359-81.635 119.707 0 0-82.658-51.136-92.477-132.105 0 0-39.873 121.331-71.36 132.105 0 0-29.806-91.288-95.283-94.202" style="fill:#d20018"/><path d="M993.836 440.908c37.383.83 79.96 10.363 105.492 45.643 37.312 51.557 145.075 286.694 138.088 346.461l-33.166.323c.342.445.348.459-.015 0h.015l-.214-.282-.466-.606 19.593-.191c6.986-59.767-100.777-294.904-138.088-346.461-22.335-30.861-57.712-42.021-91.239-44.887Zm9.089 360.523c16.356-22.957 59.972-57.037 59.972-57.037-8.683 2.894-21.438-145.319-6.259-117.454 2.818 5.174-1.375 12.398 2.896 19.157 3.921 35.248 11.738 101.012 17.616 99.053 0 0-59.123 46.198-65.506 67.244 0 0-3.443-4.132-8.719-10.963Z" style="fill:#9d0a0e"/><path d="M1089.29 749.307c-85.616-33.054-398.099-84.377-495.393-48.347-36.287 13.439-37.829 47.27-43.213 88.488-4.721 36.143-19.146 77.965 28.531 116.695 245.238 36.635 429.657 33.734 528.378-6.859-8.448-23.373 23.591-36.877 28.389-70.663 6.454-45.445-9.495-64.954-46.692-79.314Z" style="fill:#fefffd;stroke:#000;stroke-width:35.42px"/><path d="M1089.29 749.307c-85.616-33.054-398.099-84.377-495.393-48.347-36.287 13.439-37.829 47.27-43.213 88.488-4.721 36.143-19.146 77.965 28.531 116.695 245.238 36.635 429.657 33.734 528.378-6.859-8.448-23.373 23.591-36.877 28.389-70.663 6.454-45.445-9.495-64.954-46.692-79.314Z" style="fill:#fefffd"/><path d="M1038.88 734.047c14.325 3.938 26.488 7.795 35.906 11.431 37.197 14.361 53.146 33.87 46.692 79.315-4.798 33.786-36.837 47.29-28.389 70.663-97.102 39.927-277.114 43.388-516.344 8.631.8.684 1.625 1.371 2.468 2.056 245.238 36.635 429.657 33.734 528.378-6.859-8.448-23.373 23.591-36.877 28.389-70.663 6.454-45.445-9.495-64.954-46.692-79.314-12.457-4.81-29.717-10.006-50.408-15.26Z" style="fill:#e6e6e6"/><ellipse cx="1262.52" cy="872.674" rx="68.982" ry="62.453" style="fill:#fefffd"/><clipPath id="e"><ellipse cx="1262.52" cy="872.674" rx="68.982" ry="62.453"/></clipPath><g clip-path="url(#e)"><path d="M1253.18 934.885c-1.596.16-3.216.242-4.852.242-30.24 0-54.79-27.984-54.79-62.453s24.55-62.453 54.79-62.453c1.636 0 3.256.082 4.852.242-27.973 2.805-49.94 29.607-49.94 62.211s21.967 59.406 49.94 62.211Z" style="fill:#f2f2f2"/><path d="M1257.1 810.412a76.675 76.675 0 0 1 5.423-.191c38.072 0 68.982 27.984 68.982 62.453s-30.91 62.453-68.982 62.453c-1.824 0-3.631-.064-5.423-.191 35.541-2.505 63.56-29.444 63.56-62.262s-28.019-59.757-63.56-62.262Z" style="fill:#ccc"/><path d="M1268.57 937.604a72.39 72.39 0 0 1-1.617.017c-38.354 0-69.492-28.543-69.492-63.7 0-35.157 31.138-63.7 69.492-63.7.541 0 1.08.006 1.617.017-37.608.789-71.109 27.775-71.109 62.436s33.501 64.141 71.109 64.93Z" style="fill:#f6ca04;stroke:#fefffd;stroke-width:8.33px"/></g><ellipse cx="1262.52" cy="872.674" rx="68.982" ry="62.453" style="fill:none;stroke:#000;stroke-width:14.58px"/></g></svg>