<?xml version="1.0" encoding="UTF-8" standalone="no"?><!DOCTYPE svg PUBLIC "-//W3C//DTD SVG 1.1//EN" "http://www.w3.org/Graphics/SVG/1.1/DTD/svg11.dtd"><svg width="100%" height="100%" viewBox="0 0 1065 1386" version="1.1" xmlns="http://www.w3.org/2000/svg" xmlns:xlink="http://www.w3.org/1999/xlink" xml:space="preserve" xmlns:serif="http://www.serif.com/" style="fill-rule:evenodd;clip-rule:evenodd;stroke-linecap:round;stroke-linejoin:round;stroke-miterlimit:1.5;"><g id="Instructions"><rect x="386.597" y="289.652" width="291.585" height="50.671" style="fill:#d20018;"/><ellipse cx="532.389" cy="852.698" rx="532.389" ry="532.389" style="fill:none;"/><clipPath id="_clip1"><ellipse cx="532.389" cy="852.698" rx="532.389" ry="532.389"/></clipPath><g clip-path="url(#_clip1)"><path d="M13.476,972.14c-8.82,-38.424 -13.476,-78.394 -13.476,-119.442c0,-83.801 19.404,-163.107 53.944,-233.632l157.826,122.146l155.906,-110.109l164.713,109.818l170.409,-109.818c54.904,36.606 102.557,72.07 157.461,108.676c29.448,-23.926 112.267,-86.371 152.021,-117.737c33.635,69.775 52.499,148.03 52.499,230.656c-0,40.725 -4.583,80.389 -13.253,118.469l-61.34,-54.071c0,-0 -91.809,83.332 -124.406,109.817c-54.904,-36.606 -109.809,-73.211 -164.713,-109.817l-170.408,109.817l-164.713,-109.817l-152.035,109.732l-136.602,-109.732l-63.833,55.044Z" style="fill:#fefffd;"/><ellipse cx="532.389" cy="852.698" rx="532.389" ry="532.389" style="fill:#d20018;"/><path d="M379.347,1369.15c-123.51,-38.599 -234.86,-122.682 -306.978,-244.76c-150.779,-255.232 -73.34,-580.513 172.824,-725.935c46.057,-27.208 94.778,-46.205 144.515,-57.432c-38.958,11.466 -77.036,27.841 -113.434,49.344c-249.135,147.177 -325.868,479.162 -171.246,740.898c66.255,112.154 164.308,193.327 274.319,237.885Z" style="fill:#f8495d;"/><path d="M687.859,343.407c218.076,66.561 376.92,269.523 376.92,509.291c-0,293.834 -238.556,532.389 -532.39,532.389c-67.787,0 -132.632,-12.696 -192.313,-35.85c49.211,15.021 101.405,23.098 155.47,23.098c293.834,-0 532.389,-238.556 532.389,-532.39c0,-226.046 -141.182,-419.377 -340.076,-496.538Z" style="fill:#9d0a0e;stroke:#d20018;stroke-width:6.25px;"/><path d="M967.076,747.507c0,-51.018 -41.42,-92.439 -92.439,-92.439l-684.496,0c-51.018,0 -92.438,41.421 -92.438,92.439l-0,184.877c-0,51.018 41.42,92.439 92.438,92.439l684.496,-0c51.019,-0 92.439,-41.421 92.439,-92.439l0,-184.877Z" style="fill:#fefffd;"/><path d="M76.355,958.424l136.602,109.732l152.035,-109.732l164.713,109.817l170.408,-109.817c54.905,36.606 109.809,73.211 164.713,109.817c32.597,-26.485 124.406,-109.817 124.406,-109.817l67.003,59.063l-22.866,79.523l-27.726,-35.296l-148.068,120.033c-54.905,-36.606 -102.557,-72.07 -157.462,-108.676l-170.408,109.818l-164.713,-109.818l-149.732,118.249l-138.905,-115.096l-43.46,24.537l-24.352,-83.862l67.812,-58.475" style="fill:#390;stroke:#00863d;stroke-width:6.25px;"/><path d="M43.713,592.019l53.684,-79.603l96.515,98.942l172.967,-114.647l164.713,109.817l170.409,-109.817c54.904,36.605 109.808,73.211 164.713,109.817c32.596,-26.485 109.177,-88.679 109.177,-88.679l46.756,75.534c-32.597,26.485 -130.588,100.166 -163.185,126.651c-54.904,-36.606 -102.557,-72.07 -157.461,-108.676l-170.409,109.817l-164.713,-109.817l-155.906,110.109l-167.26,-129.448Z" style="fill:#390;stroke:#00863d;stroke-width:6.25px;"/></g><g id="Extra-Font" serif:id="Extra Font"><path d="M254.716,772.667c0,-1.782 -2.226,-2.449 -3.339,-1.336c-20.705,21.15 -62.338,10.241 -85.715,2.894c0,-0 -44.082,-15.139 -59.221,14.694c-2.226,4.453 -4.23,10.686 -4.453,16.475c0,-0 -3.339,25.603 23.822,27.829c13.136,0.891 16.475,-6.233 16.698,-11.354c0,-2.226 -0.891,-4.23 -1.558,-5.566c-0.446,-0.89 -1.782,-0.89 -2.004,0c-2.227,5.343 -6.011,6.679 -6.011,6.679c-3.562,1.336 -8.683,1.336 -12.023,0.445c-5.788,-1.781 -12.467,-5.343 -12.245,-17.365c0,-0 1.559,-29.165 33.618,-25.826c12.023,1.336 24.268,8.238 24.268,8.238c5.12,2.894 10.018,5.12 14.471,6.901c-8.015,18.702 -13.803,39.407 -16.92,55.659c-0,0 -6.234,29.388 -2.449,46.754c0.89,4.453 2.671,7.569 5.12,9.796c-10.018,1.558 -15.807,0.445 -19.592,-1.781c-2.226,-1.114 -3.562,-2.895 -4.23,-4.23c-0.445,-0.668 -1.336,-0.668 -1.781,-0c-1.558,2.226 -3.785,6.679 -2.449,10.909c2.227,6.901 6.679,11.132 29.388,5.566c21.373,-5.344 27.162,-0.668 28.72,2.449c0.445,0.89 1.781,0.89 2.449,0.222c2.449,-3.339 5.789,-9.35 -1.113,-14.471c-3.562,-2.449 -12.245,-1.559 -19.369,-0.668c-0.891,0.223 -1.781,0.223 -2.449,0.445c-2.004,-6.456 -1.559,-20.26 7.347,-51.874c7.347,-26.271 14.916,-44.75 14.916,-44.75c0.891,-3.562 0.445,-6.233 -0.668,-8.46c8.46,2.227 13.358,2.449 13.358,2.449c41.188,3.34 44.082,-20.482 43.414,-30.723Zm-3.784,5.12c-0,0 0.89,11.355 -8.015,13.136c-0,-0 6.011,-6.234 8.015,-13.136Z" style="fill-rule:nonzero;"/><path d="M221.766,920.719c1.113,0 2.227,-1.113 2.227,-2.449c0.222,-3.339 0.89,-7.347 1.335,-11.577c15.362,-48.98 39.63,-71.021 43.192,-70.353c6.011,1.114 -8.906,26.717 -8.906,26.717c-12.245,20.482 -12.245,36.957 -12.245,36.957c-0.445,20.928 14.472,20.26 14.472,20.26c23.376,-0.668 46.531,-46.308 50.093,-53.655c0.445,-0.891 0.668,-1.781 0.668,-2.672c-0,-2.671 -1.113,-5.12 -2.227,-6.679c-0.668,-1.113 -2.003,-0.89 -2.671,0.223c-18.034,38.738 -41.856,57.44 -45.195,54.991c-4.453,-2.895 7.569,-28.72 18.701,-46.308c12.022,-19.147 9.351,-34.732 -1.781,-39.184c-14.471,-6.012 -30.946,16.475 -30.946,16.475c-4.676,5.788 -8.906,12.467 -12.468,18.033c2.004,-5.343 4.007,-10.909 6.456,-17.365c0.446,-0.668 0.668,-1.559 0.668,-2.449c1.114,-10.019 -5.343,-16.475 -12.467,-18.257c-1.781,-0.445 -3.562,0.446 -4.453,2.227c-7.57,18.701 -12.022,35.176 -14.694,46.753c-2.894,11.577 -4.898,29.166 -4.898,37.403c1.113,6.902 8.683,10.909 15.139,10.909Zm62.784,-75.473c-0,-0 -1.114,-8.46 -2.895,-10.909c0,-0 6.234,2.894 2.895,10.909Zm-46.531,-1.113c-0,-0 -0.223,-6.457 -1.113,-10.019c-0,-0 4.675,3.117 1.113,10.019Z" style="fill-rule:nonzero;"/><path d="M293.455,918.716c-0.223,11.799 14.471,22.708 30.056,11.799c13.581,-9.128 10.686,-36.957 7.569,-54.1c9.796,-6.457 20.26,-10.241 24.268,-11.8c2.449,-0.89 4.23,-2.894 4.898,-5.343c-0,-0.445 -0,-1.113 0.222,-1.781c0,-0.891 -0.89,-1.781 -2.003,-1.336c-11.577,3.562 -21.151,7.792 -29.166,12.468c-0.222,-1.336 -0.445,-2.227 -0.445,-3.117c-1.113,-4.23 -1.781,-8.015 -2.226,-11.132c11.577,-7.125 18.256,-17.366 15.584,-24.713c-3.339,-9.128 -16.252,-4.898 -16.252,-4.898c-0,0 -18.702,4.898 -20.928,21.596c0,-0 -2.004,16.698 6.234,35.844c-18.479,18.256 -17.811,36.513 -17.811,36.513Zm45.418,-81.93c-0,-0 -0.891,-5.566 -3.117,-8.238c-0,0 5.788,1.113 3.117,8.238Zm-9.796,-4.23c-0,-0 3.785,-0.668 4.007,3.562c0,2.671 -0.445,4.452 -7.347,10.909c-0.89,-14.249 3.34,-14.471 3.34,-14.471Zm-15.139,58.553c2.003,9.796 3.339,25.38 -8.238,33.618c-0,-0 -10.464,-11.132 8.238,-33.618Z" style="fill-rule:nonzero;"/><path d="M366.48,812.296c-13.359,50.538 -15.362,78.367 -15.362,78.367c-2.449,30.724 17.143,29.611 17.143,29.611c22.263,0.445 40.074,-44.082 44.081,-52.987c0.668,-1.781 0.891,-3.785 0.446,-5.566c-0.223,-1.781 -1.113,-3.34 -1.781,-4.676c-0.668,-0.89 -2.227,-0.89 -2.672,0.223c-17.366,42.969 -35.176,59.221 -39.629,55.214c-6.679,-6.011 10.909,-70.353 20.26,-102.858c15.584,0 19.592,5.343 20.482,8.238c0.445,0.89 1.336,1.113 2.004,0.445c3.117,-3.34 9.351,-11.355 -0.668,-16.253c-3.785,-2.003 -11.577,-1.781 -19.369,-1.335c1.113,-3.785 2.003,-6.679 2.449,-8.238c0.445,-0.89 0.445,-2.004 0.222,-3.117c-1.335,-8.46 -11.577,-10.686 -15.807,-11.132c-1.113,0 -2.004,0.446 -2.226,1.559c-2.672,8.237 -4.898,16.03 -7.124,23.377c-12.913,1.335 -20.483,0.445 -25.381,-1.559c-3.117,-1.336 -4.898,-4.007 -5.788,-6.011c-0.223,-0.891 -1.559,-0.891 -2.004,-0.223c-2.004,2.895 -5.121,8.238 -3.117,12.468c2.672,6.011 8.015,8.683 33.841,4.453Zm23.599,-17.589c-0,0 -0.445,-5.565 -1.781,-8.46c-0,0 4.898,2.449 1.781,8.46Z" style="fill-rule:nonzero;"/><path d="M412.565,920.719c1.113,0 2.226,-0.89 2.226,-2.226c0.223,-3.562 0.891,-7.57 1.336,-11.8c15.362,-48.757 39.629,-70.798 43.192,-70.353c-0,0 -26.494,34.954 -10.464,44.75c20.037,9.351 37.848,-13.358 37.848,-13.358c1.781,-2.894 2.671,-6.902 2.226,-10.241c0,-0.891 -1.336,-1.113 -1.781,-0.446c-6.902,10.019 -18.701,18.034 -30.501,19.147c-1.558,0 -2.226,-1.781 -1.113,-2.672c17.365,-15.139 24.935,-40.297 14.694,-46.53c-13.358,-8.015 -30.947,16.475 -30.947,16.475c-4.675,6.011 -8.905,12.467 -12.467,18.256c2.004,-5.566 4.007,-11.132 6.456,-17.366c0.446,-0.89 0.668,-1.781 0.668,-2.671c1.113,-9.796 -5.343,-16.475 -12.467,-18.257c-1.782,-0.445 -3.563,0.668 -4.453,2.227c-7.57,18.924 -12.022,35.176 -14.694,46.976c-2.894,11.577 -4.898,28.943 -4.898,37.18c1.113,6.902 8.683,10.909 15.139,10.909Zm57.44,-76.364c0,0 0.891,-6.011 -0.89,-10.909c-0,0 6.011,3.785 0.89,10.909Zm-41.855,-0.222c-0,-0 -0,-6.679 -0.668,-10.019c-0,-0 4.452,3.34 0.668,10.019Z" style="fill-rule:nonzero;"/><path d="M492.937,918.938c-0,0 10.909,1.113 24.044,-22.709c-0.445,25.381 17.366,24.268 17.366,24.268c23.377,-0.668 40.965,-46.977 43.636,-53.878c0.223,-0.668 0.446,-1.559 0.446,-2.449c-0,-2.449 -1.113,-4.676 -2.004,-6.457c-0.668,-1.335 -2.449,-1.113 -2.894,0.223c-14.917,39.184 -35.177,57.217 -38.739,54.768c-4.23,-2.894 6.902,-43.191 17.811,-71.02c0.445,-0.891 0.668,-2.004 0.668,-2.895c0.668,-9.35 -5.789,-14.471 -12.69,-15.584c-2.449,-0.445 -4.676,0.668 -5.566,2.894c-3.785,9.573 -6.679,18.479 -9.128,26.271c-21.596,63.674 -32.282,58.776 -32.282,58.776c-4.231,-2.894 6.233,-40.52 16.697,-68.127c1.113,-2.894 1.113,-6.011 -0.222,-8.682c-2.672,-5.789 -8.015,-7.57 -13.804,-7.793c-1.781,0 -3.562,1.114 -4.23,2.672c-15.584,39.629 -16.252,60.112 -16.252,60.112c-2.895,30.946 17.143,29.61 17.143,29.61Zm54.768,-77.032c-0,0 -0.668,-7.347 -2.226,-11.354c-0,-0 8.015,4.007 2.226,11.354Zm-42.078,2.004c-0,-0 0.222,-6.679 -0.445,-10.019c-0,0 4.452,3.117 0.445,10.019Z" style="fill-rule:nonzero;"/><path d="M588.67,920.051c34.508,3.34 56.104,-48.534 57.885,-53.21c0,-0.222 0.223,-0.445 0.223,-0.667c0.89,-3.563 -0,-6.902 -0.891,-9.129c-0.445,-0.89 -2.003,-0.89 -2.449,0c-4.675,11.132 -25.825,56.105 -52.096,54.546c-20.26,-2.449 -2.672,-42.523 -2.672,-42.523c-0,-0 14.917,-37.403 23.377,-36.958c3.339,0 4.23,4.676 4.452,10.019c0,0.89 0.668,1.336 1.336,1.113c2.004,-0.891 3.785,-2.672 4.898,-5.121c0.223,-0.89 0.223,-1.781 0.223,-2.449c-1.113,-7.124 -4.898,-11.577 -12.245,-11.799c-24.713,-0.223 -39.184,34.508 -39.184,34.508c0,0 -27.829,56.995 17.143,61.67Zm30.724,-85.492c-0,0 -2.004,-4.898 -4.676,-7.347c0,0 5.789,0.891 4.676,7.347Z" style="fill-rule:nonzero;"/><path d="M653.234,812.296c-13.358,50.538 -15.362,78.367 -15.362,78.367c-2.449,30.724 17.143,29.611 17.143,29.611c22.264,0.445 40.075,-44.082 44.082,-52.987c0.668,-1.781 0.891,-3.785 0.446,-5.566c-0.223,-1.781 -1.114,-3.34 -1.782,-4.676c-0.667,-0.89 -2.226,-0.89 -2.671,0.223c-17.366,42.969 -35.177,59.221 -39.629,55.214c-6.679,-6.011 10.909,-70.353 20.26,-102.858c15.584,0 19.591,5.343 20.482,8.238c0.445,0.89 1.336,1.113 2.004,0.445c3.117,-3.34 9.35,-11.355 -0.668,-16.253c-3.785,-2.003 -11.577,-1.781 -19.369,-1.335c1.113,-3.785 2.003,-6.679 2.449,-8.238c0.445,-0.89 0.445,-2.004 0.222,-3.117c-1.336,-8.46 -11.577,-10.686 -15.807,-11.132c-1.113,0 -2.004,0.446 -2.226,1.559c-2.672,8.237 -4.898,16.03 -7.125,23.377c-12.913,1.335 -20.482,0.445 -25.38,-1.559c-3.117,-1.336 -4.898,-4.007 -5.789,-6.011c-0.222,-0.891 -1.558,-0.891 -2.003,-0.223c-2.004,2.895 -5.121,8.238 -3.117,12.468c2.671,6.011 8.015,8.683 33.84,4.453Zm23.6,-17.589c-0,0 -0.446,-5.565 -1.781,-8.46c-0,0 4.898,2.449 1.781,8.46Z" style="fill-rule:nonzero;"/><path d="M701.546,920.274c23.377,-0.668 41.188,-46.976 43.637,-53.655c0.222,-0.891 0.445,-1.781 0.445,-2.449c0,-2.449 -0.89,-4.898 -2.004,-6.679c-0.667,-1.113 -2.449,-0.891 -2.894,0.222c-14.916,39.184 -35.176,57.44 -38.516,54.991c-4.23,-3.117 4.898,-38.293 15.585,-65.9c0.445,-0.89 0.668,-2.004 0.668,-2.894c0.89,-9.351 -5.789,-14.471 -12.913,-15.807c-2.227,-0.223 -4.23,0.89 -5.121,3.117c-15.362,39.184 -16.03,59.666 -16.03,59.666c-2.894,30.724 17.143,29.388 17.143,29.388Zm13.804,-77.477c-0,4.675 -2.227,5.566 -2.227,5.566c0,-0 1.113,-7.793 -0.668,-11.355c0,0 3.117,1.336 2.895,5.789Zm-2.672,-17.143c6.234,4.675 10.687,-2.004 12.468,-5.566c0.668,-1.336 1.113,-2.894 0.89,-4.453c-1.113,-7.347 -6.902,-9.796 -10.464,-10.464c-1.336,-0.222 -2.894,0.446 -3.339,2.004c-5.566,13.581 0.445,18.479 0.445,18.479Zm10.241,-12.913c0,-0 3.117,4.007 -0.89,8.46c-0,0 1.336,-7.347 0.89,-8.46Z" style="fill-rule:nonzero;"/><path d="M757.873,920.274c17.588,-0.668 27.384,-14.471 32.728,-28.72c16.029,-6.679 27.384,-20.037 31.391,-26.048c1.781,-2.672 2.004,-6.012 0.891,-8.461c-0.446,-0.89 -1.781,-0.89 -2.449,-0.222c-8.683,11.577 -18.034,19.814 -26.717,24.935c2.672,-11.354 3.117,-20.928 3.117,-20.928c0,0 2.672,-36.067 -21.818,-36.067c0,0 -19.147,-0.668 -28.943,24.713c-6.233,6.011 -13.135,16.03 -16.029,31.837c-0,-0 -7.125,40.074 27.829,38.961Zm32.728,-80.371c-0,-0 -4.676,-6.012 -7.793,-8.683c0,-0 7.125,1.113 7.793,8.683Zm-30.279,25.825c3.562,-24.935 14.694,-30.278 14.694,-30.278c13.358,-0.668 12.022,28.052 12.022,28.052c-0.668,9.128 -2.003,16.698 -4.007,22.709c-5.121,1.558 -9.573,1.781 -13.358,0.668c-11.355,-3.117 -9.351,-21.151 -9.351,-21.151Zm-10.909,22.264c3.785,3.785 9.351,6.456 17.811,7.347c4.23,0.445 8.46,0.222 12.467,-0.445c-8.46,18.256 -21.373,19.369 -21.373,19.369c-10.018,0.668 -10.018,-15.585 -8.905,-26.271Z" style="fill-rule:nonzero;"/><path d="M824.219,920.719c1.113,0 2.226,-1.113 2.226,-2.449c0.223,-3.339 0.89,-7.347 1.336,-11.577c15.362,-48.98 39.629,-71.021 43.191,-70.353c6.011,1.114 -8.905,26.717 -8.905,26.717c-12.245,20.482 -12.245,36.957 -12.245,36.957c-0.446,20.928 14.471,20.26 14.471,20.26c23.377,-0.668 46.531,-46.308 50.093,-53.655c0.445,-0.891 0.668,-1.781 0.668,-2.672c-0,-2.671 -1.113,-5.12 -2.226,-6.679c-0.668,-1.113 -2.004,-0.89 -2.672,0.223c-18.034,38.738 -41.856,57.44 -45.195,54.991c-4.453,-2.895 7.569,-28.72 18.701,-46.308c12.023,-19.147 9.351,-34.732 -1.781,-39.184c-14.471,-6.012 -30.946,16.475 -30.946,16.475c-4.676,5.788 -8.906,12.467 -12.468,18.033c2.004,-5.343 4.008,-10.909 6.457,-17.365c0.445,-0.668 0.668,-1.559 0.668,-2.449c1.113,-10.019 -5.344,-16.475 -12.468,-18.257c-1.781,-0.445 -3.562,0.446 -4.453,2.227c-7.569,18.701 -12.022,35.176 -14.694,46.753c-2.894,11.577 -4.898,29.166 -4.898,37.403c1.113,6.902 8.683,10.909 15.14,10.909Zm62.783,-75.473c-0,-0 -1.113,-8.46 -2.894,-10.909c-0,-0 6.233,2.894 2.894,10.909Zm-46.531,-1.113c-0,-0 -0.223,-6.457 -1.113,-10.019c-0,-0 4.675,3.117 1.113,10.019Z" style="fill-rule:nonzero;"/><path d="M895.907,918.716c-0.222,11.799 14.472,22.708 30.056,11.799c13.581,-9.128 10.687,-36.957 7.57,-54.1c9.796,-6.457 20.26,-10.241 24.267,-11.8c2.449,-0.89 4.23,-2.894 4.898,-5.343c-0,-0.445 -0,-1.113 0.223,-1.781c-0,-0.891 -0.891,-1.781 -2.004,-1.336c-11.577,3.562 -21.151,7.792 -29.165,12.468c-0.223,-1.336 -0.446,-2.227 -0.446,-3.117c-1.113,-4.23 -1.781,-8.015 -2.226,-11.132c11.577,-7.125 18.256,-17.366 15.584,-24.713c-3.339,-9.128 -16.252,-4.898 -16.252,-4.898c0,0 -18.701,4.898 -20.928,21.596c0,-0 -2.003,16.698 6.234,35.844c-18.479,18.256 -17.811,36.513 -17.811,36.513Zm45.418,-81.93c-0,-0 -0.891,-5.566 -3.117,-8.238c0,0 5.789,1.113 3.117,8.238Zm-9.796,-4.23c-0,-0 3.785,-0.668 4.007,3.562c0,2.671 -0.445,4.452 -7.347,10.909c-0.89,-14.249 3.34,-14.471 3.34,-14.471Zm-15.139,58.553c2.003,9.796 3.339,25.38 -8.238,33.618c0,-0 -10.464,-11.132 8.238,-33.618Z" style="fill-rule:nonzero;"/></g><ellipse cx="534.665" cy="86.574" rx="78.113" ry="78.241" style="fill:none;stroke:#f6ca04;stroke-width:16.67px;"/><ellipse cx="534.665" cy="86.955" rx="67.872" ry="68.686" style="fill:none;stroke:#d1b123;stroke-width:6.25px;"/><path d="M676.223,284.32c1.292,2.4 1.959,4.928 1.959,7.484c-0,0.191 -0.004,0.381 -0.011,0.571l0.011,0.045l-0.013,0c-0.516,12.511 -16.71,22.568 -36.583,22.568c-19.873,-0 -36.067,-10.057 -36.583,-22.568l-0.026,0c-0.512,12.511 -16.575,22.568 -36.287,22.568c-19.712,-0 -35.776,-10.057 -36.288,-22.568l-2.301,0c-0.512,12.511 -16.575,22.568 -36.288,22.568c-19.712,-0 -35.775,-10.057 -36.287,-22.568l-0.025,0c-0.5,12.511 -16.191,22.568 -35.446,22.568c-19.255,-0 -34.946,-10.057 -35.446,-22.568l-0.012,0l0.011,-0.046c-0.008,-0.189 -0.011,-0.379 -0.011,-0.57c-0,-2.49 0.613,-4.954 1.802,-7.298l26.278,-115.378l233.683,0l27.863,115.192Z" style="fill:#f6ca04;"/><clipPath id="_clip2"><path d="M676.223,284.32c1.292,2.4 1.959,4.928 1.959,7.484c-0,0.191 -0.004,0.381 -0.011,0.571l0.011,0.045l-0.013,0c-0.516,12.511 -16.71,22.568 -36.583,22.568c-19.873,-0 -36.067,-10.057 -36.583,-22.568l-0.026,0c-0.512,12.511 -16.575,22.568 -36.287,22.568c-19.712,-0 -35.776,-10.057 -36.288,-22.568l-2.301,0c-0.512,12.511 -16.575,22.568 -36.288,22.568c-19.712,-0 -35.775,-10.057 -36.287,-22.568l-0.025,0c-0.5,12.511 -16.191,22.568 -35.446,22.568c-19.255,-0 -34.946,-10.057 -35.446,-22.568l-0.012,0l0.011,-0.046c-0.008,-0.189 -0.011,-0.379 -0.011,-0.57c-0,-2.49 0.613,-4.954 1.802,-7.298l26.278,-115.378l233.683,0l27.863,115.192Z"/></clipPath><g clip-path="url(#_clip2)"><path d="M645.727,169.786l4.909,-0.658l27.862,115.192c1.292,2.4 1.959,4.928 1.959,7.484c0,0.191 -0.003,0.381 -0.011,0.571l0.011,0.045l-0.012,0c-0.517,12.511 -16.711,22.568 -36.583,22.568c-12.236,-0 -24.1,-2.176 -30.744,-8.025c6.276,3.206 15.281,3.489 23.965,3.489c19.872,0 27.759,-3.466 33.661,-8.468c5.496,-4.658 1.748,-21.542 1.748,-21.542l-26.765,-110.656Zm-102.842,137.921c6.208,3.167 25.568,4.082 34.069,3.142c18.237,-2.015 28.2,-20.082 28.2,-20.082c0.167,4.037 -1.363,7.252 1.665,10.521c-4.73,9.29 -18.409,16.015 -34.528,16.015c-12.089,-0 -22.806,-3.783 -29.406,-9.596Zm-75.729,-0.1c6.208,3.166 23.743,5.173 32.132,3.509c21.501,-4.265 31.177,-18.643 31.177,-18.643c0.137,3.332 -1.191,1.901 0.928,4.743c-3.819,10.188 -18.186,17.772 -35.304,17.772c-12.089,-0 -22.333,-1.569 -28.933,-7.381Zm-72.291,-0.348c6.003,3.051 25.49,4.052 33.59,2.869c19.653,-2.871 29.542,-18.146 29.542,-18.146c0.166,4.06 -3.005,3.764 0.032,7.048c-4.648,9.262 -17.987,15.958 -33.698,15.958c-11.68,-0 -23.006,-2.026 -29.466,-7.729Z" style="fill:#cdaa0a;"/></g></g></svg>