<?xml version="1.0" encoding="UTF-8" standalone="no"?><!DOCTYPE svg PUBLIC "-//W3C//DTD SVG 1.1//EN" "http://www.w3.org/Graphics/SVG/1.1/DTD/svg11.dtd"><svg width="100%" height="100%" viewBox="0 0 1065 1386" version="1.1" xmlns="http://www.w3.org/2000/svg" xmlns:xlink="http://www.w3.org/1999/xlink" xml:space="preserve" xmlns:serif="http://www.serif.com/" style="fill-rule:evenodd;clip-rule:evenodd;stroke-linecap:round;stroke-linejoin:round;stroke-miterlimit:1.5;"><rect x="386.597" y="289.652" width="291.585" height="50.671" style="fill:#d20018;"/><ellipse cx="532.389" cy="852.698" rx="532.389" ry="532.389" style="fill:none;"/><clipPath id="_clip1"><ellipse cx="532.389" cy="852.698" rx="532.389" ry="532.389"/></clipPath><g clip-path="url(#_clip1)"><path d="M13.476,972.14c-8.82,-38.424 -13.476,-78.394 -13.476,-119.442c0,-83.801 19.404,-163.107 53.944,-233.632l157.826,122.146l155.906,-110.109l164.713,109.818l170.409,-109.818c54.904,36.606 102.557,72.07 157.461,108.676c29.448,-23.926 112.267,-86.371 152.021,-117.737c33.635,69.775 52.499,148.03 52.499,230.656c-0,40.725 -4.583,80.389 -13.253,118.469l-61.34,-54.071c0,-0 -91.809,83.332 -124.406,109.817c-54.904,-36.606 -109.809,-73.211 -164.713,-109.817l-170.408,109.817l-164.713,-109.817l-152.035,109.732l-136.602,-109.732l-63.833,55.044Z" style="fill:#fefffd;"/><ellipse cx="532.389" cy="852.698" rx="532.389" ry="532.389" style="fill:#d20018;"/><path d="M379.347,1369.15c-123.51,-38.599 -234.86,-122.682 -306.978,-244.76c-150.779,-255.232 -73.34,-580.513 172.824,-725.935c46.057,-27.208 94.778,-46.205 144.515,-57.432c-38.958,11.466 -77.036,27.841 -113.434,49.344c-249.135,147.177 -325.868,479.162 -171.246,740.898c66.255,112.154 164.308,193.327 274.319,237.885Z" style="fill:#f8495d;"/><path d="M687.859,343.407c218.076,66.561 376.92,269.523 376.92,509.291c-0,293.834 -238.556,532.389 -532.39,532.389c-67.787,0 -132.632,-12.696 -192.313,-35.85c49.211,15.021 101.405,23.098 155.47,23.098c293.834,-0 532.389,-238.556 532.389,-532.39c0,-226.046 -141.182,-419.377 -340.076,-496.538Z" style="fill:#9d0a0e;stroke:#d20018;stroke-width:6.25px;"/><path d="M967.076,747.507c0,-51.018 -41.42,-92.439 -92.439,-92.439l-684.496,0c-51.018,0 -92.438,41.421 -92.438,92.439l-0,184.877c-0,51.018 41.42,92.439 92.438,92.439l684.496,-0c51.019,-0 92.439,-41.421 92.439,-92.439l0,-184.877Z" style="fill:#fefffd;"/><path d="M76.355,958.424l136.602,109.732l152.035,-109.732l164.713,109.817l170.408,-109.817c54.905,36.606 109.809,73.211 164.713,109.817c32.597,-26.485 124.406,-109.817 124.406,-109.817l67.003,59.063l-22.866,79.523l-27.726,-35.296l-148.068,120.033c-54.905,-36.606 -102.557,-72.07 -157.462,-108.676l-170.408,109.818l-164.713,-109.818l-149.732,118.249l-138.905,-115.096l-43.46,24.537l-24.352,-83.862l67.812,-58.475" style="fill:#390;stroke:#00863d;stroke-width:6.25px;"/><path d="M43.713,592.019l53.684,-79.603l96.515,98.942l172.967,-114.647l164.713,109.817l170.409,-109.817c54.904,36.605 109.808,73.211 164.713,109.817c32.596,-26.485 109.177,-88.679 109.177,-88.679l46.756,75.534c-32.597,26.485 -130.588,100.166 -163.185,126.651c-54.904,-36.606 -102.557,-72.07 -157.461,-108.676l-170.409,109.817l-164.713,-109.817l-155.906,110.109l-167.26,-129.448Z" style="fill:#390;stroke:#00863d;stroke-width:6.25px;"/></g><g id="Extra-Font" serif:id="Extra Font"><path d="M520.85,734.854c0,-1.616 -2.263,-2.263 -3.233,-0.97c-35.236,34.267 -148.381,10.668 -189.76,2.263c0,0 -85.99,-22.629 -102.477,63.685c-10.345,53.016 25.215,72.413 44.935,73.382c19.073,0.97 23.599,-9.374 23.599,-16.81c-0,-3.556 -1.294,-6.465 -2.263,-8.728c-0.647,-0.97 -2.587,-0.97 -2.91,0.323c-2.909,8.082 -8.405,10.022 -8.405,10.022c-3.879,1.616 -10.345,2.263 -15.194,0.969c-41.055,-12.284 -30.064,-58.188 -30.064,-58.188c15.84,-70.474 96.012,-45.582 96.012,-45.582c10.021,3.233 19.396,5.819 28.448,8.405c-7.759,0.324 -16.81,2.91 -20.043,14.548c-0,-0 -6.142,23.922 -12.931,51.076c-12.931,2.263 -17.457,1.617 -21.982,-0.323c-4.526,-1.939 -7.436,-5.495 -9.375,-8.082c-0.647,-0.969 -2.263,-0.969 -2.91,0.324c-2.586,3.879 -7.112,12.284 -3.556,17.78c4.849,7.758 14.224,9.698 34.267,4.202c-2.263,9.052 -4.203,18.103 -6.465,26.508c-14.871,62.715 -24.246,72.09 -34.59,71.443c-1.94,-0.323 -2.91,2.263 -1.617,3.556c8.728,8.405 22.629,8.405 31.681,0.647c18.426,-16.164 31.357,-65.301 31.357,-65.301c4.203,-15.194 8.082,-30.064 11.961,-44.935c18.103,-1.293 25.539,5.496 28.125,9.375c0.97,0.97 2.263,0.97 3.232,0c3.88,-5.172 11.961,-18.426 -2.909,-22.952c-6.465,-1.94 -14.547,-0.647 -25.215,1.616c4.526,-18.426 8.728,-36.853 12.284,-56.572c54.31,13.901 84.051,15.84 84.051,15.84c66.27,5.496 67.563,-33.943 65.947,-47.521Zm-6.465,10.345c-0,-0 1.293,16.81 -11.638,19.396c-0,0 8.728,-9.051 11.638,-19.396Z" style="fill-rule:nonzero;"/><path d="M419.666,950.8c25.539,-0.97 39.762,-21.013 47.521,-41.702c23.276,-9.699 39.762,-29.095 45.581,-37.823c2.586,-3.879 2.91,-8.729 1.293,-12.285c-0.646,-1.293 -2.586,-1.293 -3.556,-0.323c-12.607,16.81 -26.185,28.771 -38.792,36.207c3.879,-16.487 4.526,-30.388 4.526,-30.388c-0,0 3.879,-52.37 -31.681,-52.37c0,0 -27.801,-0.97 -42.025,35.883c-9.052,8.729 -19.073,23.276 -23.276,46.228c0,0 -10.344,58.189 40.409,56.573Zm47.521,-116.701c-0,-0 -6.789,-8.729 -11.315,-12.608c0,-0 10.345,1.616 11.315,12.608Zm-43.965,37.499c5.172,-36.206 21.336,-43.965 21.336,-43.965c19.396,-0.97 17.457,40.732 17.457,40.732c-0.97,13.254 -2.91,24.246 -5.819,32.974c-7.435,2.263 -13.901,2.586 -19.397,0.97c-16.486,-4.526 -13.577,-30.711 -13.577,-30.711Zm-15.84,32.327c5.495,5.496 13.577,9.375 25.862,10.668c6.142,0.647 12.284,0.323 18.103,-0.646c-12.285,26.508 -31.034,28.124 -31.034,28.124c-14.548,0.97 -14.548,-22.629 -12.931,-38.146Z" style="fill-rule:nonzero;"/><path d="M535.397,950.8c25.539,-0.97 39.763,-21.013 47.521,-41.702c23.276,-9.699 39.763,-29.095 45.581,-37.823c2.587,-3.879 2.91,-8.729 1.293,-12.285c-0.646,-1.293 -2.586,-1.293 -3.556,-0.323c-12.607,16.81 -26.184,28.771 -38.792,36.207c3.879,-16.487 4.526,-30.388 4.526,-30.388c-0,0 3.879,-52.37 -31.681,-52.37c0,0 -27.801,-0.97 -42.025,35.883c-9.052,8.729 -19.073,23.276 -23.276,46.228c0,0 -10.344,58.189 40.409,56.573Zm47.521,-116.701c0,-0 -6.789,-8.729 -11.314,-12.608c-0,-0 10.344,1.616 11.314,12.608Zm-43.965,37.499c5.173,-36.206 21.336,-43.965 21.336,-43.965c19.396,-0.97 17.457,40.732 17.457,40.732c-0.97,13.254 -2.91,24.246 -5.819,32.974c-7.435,2.263 -13.901,2.586 -19.396,0.97c-16.487,-4.526 -13.578,-30.711 -13.578,-30.711Zm-15.84,32.327c5.496,5.496 13.577,9.375 25.862,10.668c6.142,0.647 12.284,0.323 18.103,-0.646c-12.284,26.508 -31.034,28.124 -31.034,28.124c-14.547,0.97 -14.547,-22.629 -12.931,-38.146Z" style="fill-rule:nonzero;"/><path d="M634.965,948.86c19.396,2.909 34.267,-15.194 43.318,-31.357c0.323,35.236 25.215,33.297 25.215,33.297c33.944,-0.97 63.362,-64.008 68.857,-76.939c1.293,-2.586 1.617,-5.172 0.97,-8.082c-0.647,-2.586 -1.616,-4.849 -2.586,-6.465c-0.97,-1.617 -3.233,-1.617 -3.879,-0c-23.276,56.572 -54.633,81.464 -62.392,80.494c-5.819,-0.646 2.263,-42.348 11.961,-75.968c32.327,-21.66 44.935,-57.866 44.935,-57.866c22.952,-63.038 -12.284,-63.361 -12.284,-63.361c-21.66,-0.97 -42.026,52.37 -52.047,84.374c-3.233,-6.789 -8.405,-11.315 -16.81,-11.638c-32.327,-1.293 -56.573,46.874 -56.573,46.874c-22.305,44.612 -17.133,82.758 11.315,86.637Zm122.196,-196.872c0,-0 -8.081,5.495 -10.991,13.577c0,0 -1.616,-14.224 10.991,-13.577Zm-0.969,9.375c-0,-0 3.879,17.456 -5.173,41.702c-4.849,13.254 -14.224,30.387 -29.741,44.934c7.759,-25.215 25.862,-81.141 34.914,-86.636Zm-108.62,117.024c0,-0 24.246,-52.37 36.53,-51.077c9.375,0.646 4.849,25.862 2.263,37.823c-0.647,1.939 -0.97,3.879 -1.616,5.495l-0,0.323c-0.324,1.617 -0.647,2.91 -0.97,4.526c-2.586,6.789 -24.569,63.361 -45.905,64.008c0,0 -15.84,-5.172 9.698,-61.098Z" style="fill-rule:nonzero;"/><path d="M745.524,948.537c-0.324,17.133 21.012,32.973 43.641,17.133c19.72,-13.254 15.517,-53.663 10.991,-78.555c14.224,-9.375 29.418,-14.87 35.237,-17.133c3.556,-1.293 6.142,-4.203 7.112,-7.759c0,-0.646 0,-1.616 0.323,-2.586c0,-1.293 -1.293,-2.586 -2.909,-1.94c-16.81,5.173 -30.711,11.315 -42.349,18.104c-0.323,-1.94 -0.646,-3.233 -0.646,-4.526c-1.617,-6.142 -2.586,-11.638 -3.233,-16.164c16.81,-10.344 26.508,-25.215 22.629,-35.883c-4.849,-13.254 -23.599,-7.112 -23.599,-7.112c0,0 -27.155,7.112 -30.387,31.357c-0,0 -2.91,24.246 9.051,52.047c-26.831,26.508 -25.861,53.017 -25.861,53.017Zm65.947,-118.964c-0,-0 -1.293,-8.082 -4.526,-11.961c0,-0 8.405,1.616 4.526,11.961Zm-14.224,-6.142c0,-0 5.496,-0.97 5.819,5.172c-0,3.879 -0.647,6.465 -10.668,15.84c-1.293,-20.689 4.849,-21.012 4.849,-21.012Zm-21.982,85.02c2.909,14.224 4.849,36.853 -11.961,48.814c-0,-0 -15.194,-16.164 11.961,-48.814Z" style="fill-rule:nonzero;"/></g><ellipse cx="534.665" cy="86.574" rx="78.113" ry="78.241" style="fill:none;stroke:#f6ca04;stroke-width:16.67px;"/><ellipse cx="534.665" cy="86.955" rx="67.872" ry="68.686" style="fill:none;stroke:#d1b123;stroke-width:6.25px;"/><path d="M676.223,284.32c1.292,2.4 1.959,4.928 1.959,7.484c-0,0.191 -0.004,0.381 -0.011,0.571l0.011,0.045l-0.013,0c-0.516,12.511 -16.71,22.568 -36.583,22.568c-19.873,-0 -36.067,-10.057 -36.583,-22.568l-0.026,0c-0.512,12.511 -16.575,22.568 -36.287,22.568c-19.712,-0 -35.776,-10.057 -36.288,-22.568l-2.301,0c-0.512,12.511 -16.575,22.568 -36.288,22.568c-19.712,-0 -35.775,-10.057 -36.287,-22.568l-0.025,0c-0.5,12.511 -16.191,22.568 -35.446,22.568c-19.255,-0 -34.946,-10.057 -35.446,-22.568l-0.012,0l0.011,-0.046c-0.008,-0.189 -0.011,-0.379 -0.011,-0.57c-0,-2.49 0.613,-4.954 1.802,-7.298l26.278,-115.378l233.683,0l27.863,115.192Z" style="fill:#f6ca04;"/><clipPath id="_clip2"><path d="M676.223,284.32c1.292,2.4 1.959,4.928 1.959,7.484c-0,0.191 -0.004,0.381 -0.011,0.571l0.011,0.045l-0.013,0c-0.516,12.511 -16.71,22.568 -36.583,22.568c-19.873,-0 -36.067,-10.057 -36.583,-22.568l-0.026,0c-0.512,12.511 -16.575,22.568 -36.287,22.568c-19.712,-0 -35.776,-10.057 -36.288,-22.568l-2.301,0c-0.512,12.511 -16.575,22.568 -36.288,22.568c-19.712,-0 -35.775,-10.057 -36.287,-22.568l-0.025,0c-0.5,12.511 -16.191,22.568 -35.446,22.568c-19.255,-0 -34.946,-10.057 -35.446,-22.568l-0.012,0l0.011,-0.046c-0.008,-0.189 -0.011,-0.379 -0.011,-0.57c-0,-2.49 0.613,-4.954 1.802,-7.298l26.278,-115.378l233.683,0l27.863,115.192Z"/></clipPath><g clip-path="url(#_clip2)"><path d="M645.727,169.786l4.909,-0.658l27.862,115.192c1.292,2.4 1.959,4.928 1.959,7.484c0,0.191 -0.003,0.381 -0.011,0.571l0.011,0.045l-0.012,0c-0.517,12.511 -16.711,22.568 -36.583,22.568c-12.236,-0 -24.1,-2.176 -30.744,-8.025c6.276,3.206 15.281,3.489 23.965,3.489c19.872,0 27.759,-3.466 33.661,-8.468c5.496,-4.658 1.748,-21.542 1.748,-21.542l-26.765,-110.656Zm-102.842,137.921c6.208,3.167 25.568,4.082 34.069,3.142c18.237,-2.015 28.2,-20.082 28.2,-20.082c0.167,4.037 -1.363,7.252 1.665,10.521c-4.73,9.29 -18.409,16.015 -34.528,16.015c-12.089,-0 -22.806,-3.783 -29.406,-9.596Zm-75.729,-0.1c6.208,3.166 23.743,5.173 32.132,3.509c21.501,-4.265 31.177,-18.643 31.177,-18.643c0.137,3.332 -1.191,1.901 0.928,4.743c-3.819,10.188 -18.186,17.772 -35.304,17.772c-12.089,-0 -22.333,-1.569 -28.933,-7.381Zm-72.291,-0.348c6.003,3.051 25.49,4.052 33.59,2.869c19.653,-2.871 29.542,-18.146 29.542,-18.146c0.166,4.06 -3.005,3.764 0.032,7.048c-4.648,9.262 -17.987,15.958 -33.698,15.958c-11.68,-0 -23.006,-2.026 -29.466,-7.729Z" style="fill:#cdaa0a;"/></g></svg>