<?xml version="1.0" encoding="UTF-8" standalone="no"?><!DOCTYPE svg PUBLIC "-//W3C//DTD SVG 1.1//EN" "http://www.w3.org/Graphics/SVG/1.1/DTD/svg11.dtd"><svg width="100%" height="100%" viewBox="0 0 1065 1386" version="1.1" xmlns="http://www.w3.org/2000/svg" xmlns:xlink="http://www.w3.org/1999/xlink" xml:space="preserve" xmlns:serif="http://www.serif.com/" style="fill-rule:evenodd;clip-rule:evenodd;stroke-linecap:round;stroke-linejoin:round;stroke-miterlimit:1.5;"><g><rect x="386.597" y="289.652" width="291.585" height="50.671" style="fill:#390;"/><ellipse cx="532.389" cy="852.698" rx="532.389" ry="532.389" style="fill:none;"/><clipPath id="_clip1"><ellipse cx="532.389" cy="852.698" rx="532.389" ry="532.389"/></clipPath><g clip-path="url(#_clip1)"><path d="M13.476,972.14c-8.82,-38.424 -13.476,-78.394 -13.476,-119.442c0,-83.801 19.404,-163.107 53.944,-233.632l157.826,122.146l155.906,-110.109l164.713,109.818l170.409,-109.818c54.904,36.606 102.557,72.07 157.461,108.676c29.448,-23.926 112.267,-86.371 152.021,-117.737c33.635,69.775 52.499,148.03 52.499,230.656c-0,40.725 -4.583,80.389 -13.253,118.469l-61.34,-54.071c0,-0 -91.809,83.332 -124.406,109.817c-54.904,-36.606 -109.809,-73.211 -164.713,-109.817l-170.408,109.817l-164.713,-109.817l-152.035,109.732l-136.602,-109.732l-63.833,55.044Z" style="fill:#fefffd;"/><ellipse cx="532.389" cy="852.698" rx="532.389" ry="532.389" style="fill:#390;"/><path d="M379.347,1369.15c-123.51,-38.599 -234.86,-122.682 -306.978,-244.76c-150.779,-255.232 -73.34,-580.513 172.824,-725.935c46.057,-27.208 94.778,-46.205 144.515,-57.432c-38.958,11.466 -77.036,27.841 -113.434,49.344c-249.135,147.177 -325.868,479.162 -171.246,740.898c66.255,112.154 164.308,193.327 274.319,237.885Z" style="fill:#6fbc49;"/><path d="M687.859,343.407c218.076,66.561 376.92,269.523 376.92,509.291c-0,293.834 -238.556,532.389 -532.39,532.389c-67.787,0 -132.632,-12.696 -192.313,-35.85c49.211,15.021 101.405,23.098 155.47,23.098c293.834,-0 532.389,-238.556 532.389,-532.39c0,-226.046 -141.182,-419.377 -340.076,-496.538Z" style="fill:#00863d;stroke:#00863d;stroke-width:6.25px;"/><path d="M967.076,747.507c0,-51.018 -41.42,-92.439 -92.439,-92.439l-684.496,0c-51.018,0 -92.438,41.421 -92.438,92.439l-0,184.877c-0,51.018 41.42,92.439 92.438,92.439l684.496,-0c51.019,-0 92.439,-41.421 92.439,-92.439l0,-184.877Z" style="fill:#fefffd;"/><path d="M76.355,958.424l136.602,109.732l152.035,-109.732l164.713,109.817l170.408,-109.817c54.905,36.606 109.809,73.211 164.713,109.817c32.597,-26.485 124.406,-109.817 124.406,-109.817l67.003,59.063l-22.866,79.523l-27.726,-35.296l-148.068,120.033c-54.905,-36.606 -102.557,-72.07 -157.462,-108.676l-170.408,109.818l-164.713,-109.818l-149.732,118.249l-138.905,-115.096l-43.46,24.537l-24.352,-83.862l67.812,-58.475" style="fill:#d20018;stroke:#9d0a0e;stroke-width:6.25px;"/><path d="M43.713,592.019l53.684,-79.603l96.515,98.942l172.967,-114.647l164.713,109.817l170.409,-109.817c54.904,36.605 109.808,73.211 164.713,109.817c32.596,-26.485 109.177,-88.679 109.177,-88.679l46.756,75.534c-32.597,26.485 -130.588,100.166 -163.185,126.651c-54.904,-36.606 -102.557,-72.07 -157.461,-108.676l-170.409,109.817l-164.713,-109.817l-155.906,110.109l-167.26,-129.448Z" style="fill:#d20018;stroke:#9d0a0e;stroke-width:6.25px;"/></g><g id="Extra-Font" serif:id="Extra Font"><path d="M266.596,789.235c0.679,1.357 2.713,1.357 3.731,-0.339c4.408,-8.817 17.973,-34.589 36.963,-49.849c-13.564,28.824 -23.738,65.449 -29.164,90.543c0,0 -5.765,24.077 -5.426,47.476c-19.668,4.409 -21.025,28.147 -21.025,28.147c-4.069,37.98 29.503,39.337 29.503,39.337c16.956,1.356 36.625,-6.104 55.276,-21.364c7.121,8.478 15.599,21.703 29.503,21.703c15.599,0 17.973,-16.617 18.312,-23.399c0.339,-1.017 -1.017,-1.695 -2.035,-1.017c-4.747,3.391 -8.817,3.052 -8.817,3.052c-7.121,-0 -15.599,-4.748 -25.094,-10.852c22.721,-23.399 42.728,-58.667 51.885,-103.43c18.99,-89.526 -62.058,-92.578 -62.058,-92.578c-40.016,-1.017 -61.719,22.042 -72.232,39.337c-1.017,1.357 -1.695,3.052 -2.035,4.748c-1.356,5.087 -3.052,17.295 2.713,28.485Zm14.921,145.481c-23.738,0.339 -19.668,-28.147 -19.668,-28.147c1.356,-11.869 6.443,-16.956 11.191,-18.99c1.695,17.634 8.138,32.894 24.755,34.928c1.356,0 2.035,-1.017 1.696,-2.034c-1.357,-4.748 -1.357,-14.921 -0.34,-27.468c8.817,5.425 17.973,12.547 24.756,18.312c-11.53,13.903 -25.434,23.399 -42.39,23.399Zm107.5,-179.392c-0,0 -7.461,-12.208 -17.634,-21.364c-0,-0 14.582,3.052 17.634,21.364Zm-50.528,-28.146c-0,-0 46.458,4.069 27.807,88.169c0,0 -10.852,50.528 -34.59,85.796c-10.173,-7.121 -20.686,-14.243 -31.198,-18.99c2.035,-15.26 5.426,-32.216 9.495,-47.815c10.852,-40.355 22.382,-71.893 22.382,-71.893c5.425,-18.99 -16.278,-24.416 -22.721,-25.772c8.817,-6.443 18.312,-10.513 28.825,-9.495Z" style="fill-rule:nonzero;"/><path d="M421.572,942.854c20.347,3.052 35.946,-15.938 45.441,-32.894c0.339,36.964 26.451,34.929 26.451,34.929c35.607,-1.017 62.736,-71.553 66.466,-81.727c0.34,-1.356 0.679,-2.712 0.679,-3.73c-0,-3.73 -1.357,-7.46 -2.713,-10.173c-1.018,-1.696 -3.73,-1.357 -4.748,0.339c-22.72,59.684 -53.58,87.491 -58.667,83.761c-6.443,-4.747 6.104,-63.075 22.382,-105.125c0.678,-1.696 1.017,-3.392 1.356,-5.087c1.018,-13.904 -7.121,-22.721 -16.955,-25.434c-3.731,-1.017 -7.461,1.018 -8.817,4.409c-2.035,4.747 -3.731,9.495 -5.426,13.904c-3.052,-7.461 -8.817,-12.887 -17.973,-13.226c-33.912,-1.356 -59.345,49.172 -59.345,49.172c-23.399,46.797 -17.973,86.813 11.869,90.882Zm89.187,-115.299c-0,0 -1.017,-13.564 -3.052,-17.973c-0,0 10.173,5.765 3.052,17.973Zm-75.962,41.372c0,0 25.434,-54.936 38.32,-53.58c9.834,0.679 5.087,27.469 2.035,39.677c-0.339,2.034 -0.678,4.069 -1.357,5.765l0,0.339c-0.339,1.695 -0.678,3.052 -1.017,4.747c-2.713,7.122 -25.773,66.467 -48.154,67.145c-0,0 -16.617,-5.426 10.173,-64.093Z" style="fill-rule:nonzero;"/><path d="M568.747,780.418c-20.346,76.979 -23.398,119.369 -23.398,119.369c-3.731,46.798 26.111,45.102 26.111,45.102c33.912,0.678 61.041,-67.145 67.145,-80.709c1.017,-2.713 1.357,-5.765 0.678,-8.478c-0.339,-2.713 -1.695,-5.087 -2.713,-7.121c-1.017,-1.357 -3.391,-1.357 -4.069,0.339c-26.451,65.449 -53.58,90.204 -60.362,84.1c-10.174,-9.156 16.616,-107.16 30.859,-156.671c23.738,0 29.842,8.139 31.199,12.547c0.678,1.357 2.034,1.696 3.052,0.679c4.747,-5.087 14.242,-17.295 -1.018,-24.756c-5.765,-3.052 -17.634,-2.713 -29.503,-2.034c1.696,-5.765 3.052,-10.174 3.731,-12.548c0.678,-1.356 0.678,-3.052 0.339,-4.747c-2.035,-12.887 -17.634,-16.278 -24.077,-16.956c-1.696,-0 -3.053,0.678 -3.392,2.374c-4.069,12.547 -7.46,24.416 -10.851,35.607c-19.669,2.034 -31.199,0.678 -38.659,-2.374c-4.748,-2.035 -7.461,-6.104 -8.817,-9.156c-0.339,-1.357 -2.374,-1.357 -3.052,-0.339c-3.052,4.408 -7.8,12.547 -4.748,18.99c4.069,9.156 12.208,13.226 51.545,6.782Zm35.947,-26.79c-0,0 -0.679,-8.477 -2.713,-12.886c-0,0 7.46,3.73 2.713,12.886Z" style="fill-rule:nonzero;"/><path d="M654.883,944.55c52.901,5.087 85.456,-74.266 88.169,-81.048c0,-0.34 0.339,-0.679 0.339,-1.018c1.357,-5.426 0,-10.851 -1.695,-13.903c-0.339,-1.357 -2.374,-1.357 -3.052,-0c-7.122,16.277 -39.677,85.456 -79.692,83.083c-17.634,-2.035 -16.278,-23.399 -12.208,-40.694c13.903,-1.018 44.763,-7.461 56.632,-43.407c15.938,-49.171 -14.921,-49.511 -14.921,-49.511c-37.642,-0.339 -59.684,52.563 -59.684,52.563c-0,0 -42.39,86.814 26.112,93.935Zm24.416,-137.002c1.695,-1.357 5.087,-2.035 7.46,-1.018c0,0 -8.138,3.731 -11.53,10.852c0,-0 0,-6.443 4.07,-9.834Zm-24.416,59.345c-0,-0 22.72,-56.972 35.607,-56.293c-0,-0 8.817,3.73 -2.713,36.624c-9.156,24.755 -28.147,31.199 -37.642,32.894c2.374,-7.799 4.748,-13.225 4.748,-13.225Z" style="fill-rule:nonzero;"/><path d="M715.923,942.515c-0.339,17.973 22.043,34.59 45.781,17.973c20.686,-13.903 16.277,-56.293 11.53,-82.405c14.921,-9.834 30.859,-15.599 36.963,-17.973c3.73,-1.356 6.443,-4.408 7.461,-8.138c-0,-0.679 -0,-1.696 0.339,-2.713c-0,-1.357 -1.357,-2.713 -3.052,-2.035c-17.634,5.426 -32.216,11.869 -44.424,18.99c-0.34,-2.034 -0.679,-3.391 -0.679,-4.747c-1.695,-6.443 -2.713,-12.208 -3.391,-16.956c17.634,-10.852 27.808,-26.451 23.738,-37.642c-5.086,-13.903 -24.755,-7.46 -24.755,-7.46c-0,-0 -28.486,7.46 -31.877,32.894c0,0 -3.052,25.434 9.495,54.597c-28.146,27.808 -27.129,55.615 -27.129,55.615Zm69.18,-124.794c-0,0 -1.357,-8.478 -4.748,-12.547c-0,-0 8.817,1.695 4.748,12.547Zm-14.922,-6.443c0,-0 5.765,-1.017 6.105,5.426c-0,4.069 -0.679,6.782 -11.191,16.616c-1.357,-21.703 5.086,-22.042 5.086,-22.042Zm-23.059,89.187c3.052,14.921 5.086,38.659 -12.548,51.206c0,0 -15.938,-16.955 12.548,-51.206Z" style="fill-rule:nonzero;"/></g><ellipse cx="534.665" cy="86.574" rx="78.113" ry="78.241" style="fill:none;stroke:#f6ca04;stroke-width:16.67px;"/><ellipse cx="534.665" cy="86.955" rx="67.872" ry="68.686" style="fill:none;stroke:#d1b123;stroke-width:6.25px;"/><path d="M676.223,284.32c1.292,2.4 1.959,4.928 1.959,7.484c-0,0.191 -0.004,0.381 -0.011,0.571l0.011,0.045l-0.013,0c-0.516,12.511 -16.71,22.568 -36.583,22.568c-19.873,-0 -36.067,-10.057 -36.583,-22.568l-0.026,0c-0.512,12.511 -16.575,22.568 -36.287,22.568c-19.712,-0 -35.776,-10.057 -36.288,-22.568l-2.301,0c-0.512,12.511 -16.575,22.568 -36.288,22.568c-19.712,-0 -35.775,-10.057 -36.287,-22.568l-0.025,0c-0.5,12.511 -16.191,22.568 -35.446,22.568c-19.255,-0 -34.946,-10.057 -35.446,-22.568l-0.012,0l0.011,-0.046c-0.008,-0.189 -0.011,-0.379 -0.011,-0.57c-0,-2.49 0.613,-4.954 1.802,-7.298l26.278,-115.378l233.683,0l27.863,115.192Z" style="fill:#f6ca04;"/><clipPath id="_clip2"><path d="M676.223,284.32c1.292,2.4 1.959,4.928 1.959,7.484c-0,0.191 -0.004,0.381 -0.011,0.571l0.011,0.045l-0.013,0c-0.516,12.511 -16.71,22.568 -36.583,22.568c-19.873,-0 -36.067,-10.057 -36.583,-22.568l-0.026,0c-0.512,12.511 -16.575,22.568 -36.287,22.568c-19.712,-0 -35.776,-10.057 -36.288,-22.568l-2.301,0c-0.512,12.511 -16.575,22.568 -36.288,22.568c-19.712,-0 -35.775,-10.057 -36.287,-22.568l-0.025,0c-0.5,12.511 -16.191,22.568 -35.446,22.568c-19.255,-0 -34.946,-10.057 -35.446,-22.568l-0.012,0l0.011,-0.046c-0.008,-0.189 -0.011,-0.379 -0.011,-0.57c-0,-2.49 0.613,-4.954 1.802,-7.298l26.278,-115.378l233.683,0l27.863,115.192Z"/></clipPath><g clip-path="url(#_clip2)"><path d="M645.727,169.786l4.909,-0.658l27.862,115.192c1.292,2.4 1.959,4.928 1.959,7.484c0,0.191 -0.003,0.381 -0.011,0.571l0.011,0.045l-0.012,0c-0.517,12.511 -16.711,22.568 -36.583,22.568c-12.236,-0 -24.1,-2.176 -30.744,-8.025c6.276,3.206 15.281,3.489 23.965,3.489c19.872,0 27.759,-3.466 33.661,-8.468c5.496,-4.658 1.748,-21.542 1.748,-21.542l-26.765,-110.656Zm-102.842,137.921c6.208,3.167 25.568,4.082 34.069,3.142c18.237,-2.015 28.2,-20.082 28.2,-20.082c0.167,4.037 -1.363,7.252 1.665,10.521c-4.73,9.29 -18.409,16.015 -34.528,16.015c-12.089,-0 -22.806,-3.783 -29.406,-9.596Zm-75.729,-0.1c6.208,3.166 23.743,5.173 32.132,3.509c21.501,-4.265 31.177,-18.643 31.177,-18.643c0.137,3.332 -1.191,1.901 0.928,4.743c-3.819,10.188 -18.186,17.772 -35.304,17.772c-12.089,-0 -22.333,-1.569 -28.933,-7.381Zm-72.291,-0.348c6.003,3.051 25.49,4.052 33.59,2.869c19.653,-2.871 29.542,-18.146 29.542,-18.146c0.166,4.06 -3.005,3.764 0.032,7.048c-4.648,9.262 -17.987,15.958 -33.698,15.958c-11.68,-0 -23.006,-2.026 -29.466,-7.729Z" style="fill:#cdaa0a;"/></g></g></svg>