<?xml version="1.0" encoding="UTF-8" standalone="no"?><!DOCTYPE svg PUBLIC "-//W3C//DTD SVG 1.1//EN" "http://www.w3.org/Graphics/SVG/1.1/DTD/svg11.dtd"><svg width="100%" height="100%" viewBox="0 0 1065 1386" version="1.1" xmlns="http://www.w3.org/2000/svg" xmlns:xlink="http://www.w3.org/1999/xlink" xml:space="preserve" xmlns:serif="http://www.serif.com/" style="fill-rule:evenodd;clip-rule:evenodd;stroke-linecap:round;stroke-linejoin:round;stroke-miterlimit:1.5;"><rect x="386.597" y="289.652" width="291.585" height="50.671" style="fill:#d20018;"/><ellipse cx="532.389" cy="852.698" rx="532.389" ry="532.389" style="fill:none;"/><clipPath id="_clip1"><ellipse cx="532.389" cy="852.698" rx="532.389" ry="532.389"/></clipPath><g clip-path="url(#_clip1)"><path d="M13.476,972.14c-8.82,-38.424 -13.476,-78.394 -13.476,-119.442c0,-83.801 19.404,-163.107 53.944,-233.632l157.826,122.146l155.906,-110.109l164.713,109.818l170.409,-109.818c54.904,36.606 102.557,72.07 157.461,108.676c29.448,-23.926 112.267,-86.371 152.021,-117.737c33.635,69.775 52.499,148.03 52.499,230.656c-0,40.725 -4.583,80.389 -13.253,118.469l-61.34,-54.071c0,-0 -91.809,83.332 -124.406,109.817c-54.904,-36.606 -109.809,-73.211 -164.713,-109.817l-170.408,109.817l-164.713,-109.817l-152.035,109.732l-136.602,-109.732l-63.833,55.044Z" style="fill:#fefffd;"/><ellipse cx="532.389" cy="852.698" rx="532.389" ry="532.389" style="fill:#d20018;"/><path d="M379.347,1369.15c-123.51,-38.599 -234.86,-122.682 -306.978,-244.76c-150.779,-255.232 -73.34,-580.513 172.824,-725.935c46.057,-27.208 94.778,-46.205 144.515,-57.432c-38.958,11.466 -77.036,27.841 -113.434,49.344c-249.135,147.177 -325.868,479.162 -171.246,740.898c66.255,112.154 164.308,193.327 274.319,237.885Z" style="fill:#f8495d;"/><path d="M687.859,343.407c218.076,66.561 376.92,269.523 376.92,509.291c-0,293.834 -238.556,532.389 -532.39,532.389c-67.787,0 -132.632,-12.696 -192.313,-35.85c49.211,15.021 101.405,23.098 155.47,23.098c293.834,-0 532.389,-238.556 532.389,-532.39c0,-226.046 -141.182,-419.377 -340.076,-496.538Z" style="fill:#9d0a0e;stroke:#d20018;stroke-width:6.25px;"/><path d="M967.076,747.507c0,-51.018 -41.42,-92.439 -92.439,-92.439l-684.496,0c-51.018,0 -92.438,41.421 -92.438,92.439l-0,184.877c-0,51.018 41.42,92.439 92.438,92.439l684.496,-0c51.019,-0 92.439,-41.421 92.439,-92.439l0,-184.877Z" style="fill:#fefffd;"/><g id="Extra-Font" serif:id="Extra Font"><path d="M299.194,736.736c-9.646,-1.484 -18.055,0 -25.228,2.721c-5.689,-6.431 -15.087,-5.689 -15.087,-5.689c-0,0 -46.004,0.99 -75.189,75.931c-0,0 -29.185,78.157 23.991,89.782c18.55,3.957 31.906,-3.463 41.552,-14.84c0.247,2.473 0.495,4.947 1.236,6.678c2.226,6.925 9.399,10.388 16.324,7.667c0.99,-0.247 1.237,-1.731 0.495,-2.226c-5.441,-4.205 -6.183,-20.281 8.409,-66.532c2.721,0.742 3.958,2.473 4.452,3.71c0.495,0.989 1.732,0.989 2.226,0.247c2.226,-3.215 5.689,-9.151 -0.247,-13.85c-3.215,-2.474 -11.13,-1.732 -17.313,-0.495c-5.194,0.742 -9.399,1.731 -9.399,1.731c-9.893,1.732 -15.582,0.742 -19.044,-1.484c-1.732,-0.989 -2.721,-2.473 -3.463,-3.71c-0.495,-0.742 -1.484,-0.742 -1.979,0.248c-1.484,2.226 -3.215,6.183 -2.473,10.14c1.731,6.678 5.689,10.635 26.217,4.947c1.237,-0.248 2.721,-0.495 3.71,-0.742c-3.71,17.808 -16.818,71.479 -45.756,59.607c-0,-0 -30.175,-12.861 -4.7,-79.146c0,-0 7.42,-18.798 17.808,-37.1c10.636,-18.303 24.486,-35.616 36.358,-34.379c0,-0 2.473,0.247 3.71,3.462c-10.883,6.184 -17.066,14.593 -17.066,14.593c-22.754,30.174 -4.204,35.121 -4.204,35.121c7.667,2.226 15.334,-2.968 20.281,-8.657c8.162,-9.151 11.624,-22.259 11.624,-22.259c1.732,-6.926 1.979,-12.12 0.99,-16.077c5.936,-1.979 13.108,-2.226 21.27,-0.247c22.26,5.688 58.618,25.228 80.383,33.142c21.765,7.915 56.144,11.13 67.522,-11.377c7.172,-13.851 2.72,-22.507 -0.248,-26.465c-0.989,-0.989 -2.473,-0.494 -2.968,0.742c-5.194,18.303 -30.916,21.766 -30.916,21.766c-38.337,5.194 -78.404,-21.518 -113.278,-26.96Zm-34.379,24.239c-0,-0 -1.979,5.194 -4.7,11.13c-3.957,7.914 -9.646,16.818 -13.603,14.345c-6.678,-3.957 7.915,-23.249 7.915,-23.249c2.72,-3.957 6.925,-8.409 12.366,-12.119c0,2.72 -0.742,5.936 -1.978,9.893Zm180.552,-10.635c0,-0 3.463,11.872 -5.689,16.571c0,-0 6.184,-11.377 5.689,-16.571Z" style="fill-rule:nonzero;"/><path d="M300.183,900.717c1.237,0 2.474,-0.989 2.474,-2.473c0.247,-3.957 0.989,-8.409 1.484,-13.108c17.065,-54.166 44.025,-78.652 47.982,-78.157c-0,-0 -29.433,38.831 -11.625,49.713c22.26,10.388 42.047,-14.84 42.047,-14.84c1.978,-3.215 2.968,-7.667 2.473,-11.377c0,-0.989 -1.484,-1.236 -1.979,-0.494c-7.667,11.129 -20.775,20.033 -33.884,21.27c-1.731,0 -2.473,-1.979 -1.237,-2.968c19.292,-16.819 27.701,-44.767 16.324,-51.692c-14.84,-8.904 -34.379,18.302 -34.379,18.302c-5.194,6.678 -9.893,13.851 -13.851,20.281c2.226,-6.183 4.452,-12.366 7.173,-19.291c0.495,-0.99 0.742,-1.979 0.742,-2.968c1.237,-10.883 -5.936,-18.303 -13.851,-20.282c-1.978,-0.494 -3.957,0.742 -4.946,2.474c-8.409,21.023 -13.356,39.078 -16.324,52.187c-3.215,12.861 -5.441,32.153 -5.441,41.304c1.236,7.667 9.646,12.119 16.818,12.119Zm63.812,-84.834c-0,-0 0.989,-6.678 -0.989,-12.12c-0,0 6.677,4.205 0.989,12.12Zm-46.499,-0.248c0,0 0,-7.42 -0.742,-11.13c0,0 4.947,3.71 0.742,11.13Z" style="fill-rule:nonzero;"/><path d="M398.621,899.975c38.584,3.71 62.328,-54.165 64.307,-59.112c-0,-0.247 0.247,-0.495 0.247,-0.742c0.989,-3.957 -0,-7.915 -1.237,-10.14c-0.247,-0.99 -1.731,-0.99 -2.226,-0c-5.194,11.871 -28.938,62.327 -58.123,60.596c-12.861,-1.484 -11.872,-17.066 -8.904,-29.68c10.141,-0.742 32.648,-5.441 41.305,-31.658c11.624,-35.864 -10.883,-36.111 -10.883,-36.111c-27.454,-0.247 -43.53,38.336 -43.53,38.336c-0,0 -30.917,63.317 19.044,68.511Zm17.808,-99.922c1.237,-0.989 3.71,-1.484 5.442,-0.742c-0,0 -5.936,2.721 -8.41,7.915c0,-0 0,-4.699 2.968,-7.173Zm-17.808,43.283c0,0 16.572,-41.551 25.97,-41.057c0,0 6.431,2.721 -1.978,26.712c-6.678,18.055 -20.529,22.755 -27.454,23.991c1.731,-5.688 3.462,-9.646 3.462,-9.646Z" style="fill-rule:nonzero;"/><path d="M475.047,899.975c38.584,3.71 62.328,-54.165 64.306,-59.112c0,-0.247 0.248,-0.495 0.248,-0.742c0.989,-3.957 -0,-7.915 -1.237,-10.14c-0.247,-0.99 -1.731,-0.99 -2.226,-0c-5.194,11.871 -28.938,62.327 -58.123,60.596c-12.861,-1.484 -11.872,-17.066 -8.904,-29.68c10.141,-0.742 32.648,-5.441 41.304,-31.658c11.625,-35.864 -10.882,-36.111 -10.882,-36.111c-27.454,-0.247 -43.531,38.336 -43.531,38.336c0,0 -30.916,63.317 19.045,68.511Zm17.808,-99.922c1.236,-0.989 3.71,-1.484 5.441,-0.742c0,0 -5.936,2.721 -8.409,7.915c-0,-0 -0,-4.699 2.968,-7.173Zm-17.808,43.283c-0,0 16.571,-41.551 25.97,-41.057c-0,0 6.43,2.721 -1.979,26.712c-6.678,18.055 -20.528,22.755 -27.454,23.991c1.732,-5.688 3.463,-9.646 3.463,-9.646Z" style="fill-rule:nonzero;"/><path d="M545.536,780.267c-14.839,56.144 -17.065,87.061 -17.065,87.061c-2.721,34.131 19.044,32.895 19.044,32.895c24.733,0.494 44.52,-48.972 48.972,-58.865c0.742,-1.979 0.989,-4.205 0.495,-6.184c-0.248,-1.978 -1.237,-3.71 -1.979,-5.193c-0.742,-0.99 -2.473,-0.99 -2.968,0.247c-19.292,47.735 -39.079,65.79 -44.025,61.338c-7.42,-6.678 12.119,-78.157 22.507,-114.267c17.313,-0 21.765,5.936 22.755,9.151c0.494,0.989 1.484,1.237 2.226,0.495c3.462,-3.71 10.387,-12.614 -0.742,-18.055c-4.205,-2.226 -12.862,-1.979 -21.518,-1.484c1.236,-4.205 2.226,-7.42 2.72,-9.152c0.495,-0.989 0.495,-2.226 0.248,-3.462c-1.484,-9.399 -12.862,-11.872 -17.561,-12.367c-1.237,0 -2.226,0.495 -2.473,1.731c-2.968,9.152 -5.442,17.808 -7.915,25.97c-14.345,1.484 -22.754,0.495 -28.196,-1.731c-3.462,-1.484 -5.441,-4.452 -6.43,-6.678c-0.248,-0.989 -1.732,-0.989 -2.226,-0.247c-2.226,3.215 -5.689,9.151 -3.463,13.85c2.968,6.678 8.904,9.646 37.594,4.947Zm26.218,-19.539c-0,-0 -0.495,-6.184 -1.979,-9.399c0,-0 5.441,2.721 1.979,9.399Z" style="fill-rule:nonzero;"/><path d="M599.208,900.223c25.969,-0.742 45.756,-52.187 48.477,-59.607c0.247,-0.99 0.494,-1.979 0.494,-2.721c0,-2.721 -0.989,-5.441 -2.226,-7.42c-0.742,-1.236 -2.72,-0.989 -3.215,0.248c-16.571,43.53 -39.079,63.811 -42.789,61.09c-4.699,-3.462 5.442,-42.541 17.314,-73.21c0.494,-0.989 0.742,-2.226 0.742,-3.215c0.989,-10.388 -6.431,-16.077 -14.346,-17.561c-2.473,-0.247 -4.699,0.99 -5.688,3.463c-17.066,43.53 -17.808,66.285 -17.808,66.285c-3.215,34.132 19.045,32.648 19.045,32.648Zm15.334,-86.072c0,5.194 -2.473,6.184 -2.473,6.184c-0,-0 1.236,-8.657 -0.742,-12.614c-0,-0 3.462,1.484 3.215,6.43Zm-2.968,-19.044c6.925,5.194 11.872,-2.226 13.851,-6.184c0.742,-1.484 1.236,-3.215 0.989,-4.946c-1.237,-8.162 -7.667,-10.883 -11.625,-11.625c-1.484,-0.247 -3.215,0.495 -3.71,2.226c-6.183,15.087 0.495,20.529 0.495,20.529Zm11.377,-14.346c0,0 3.463,4.452 -0.989,9.399c0,0 1.484,-8.162 0.989,-9.399Z" style="fill-rule:nonzero;"/><path d="M646.943,900.717c1.236,0 2.473,-1.236 2.473,-2.72c0.247,-3.71 0.989,-8.162 1.484,-12.861c17.066,-54.413 44.025,-78.899 47.982,-78.157c6.678,1.236 -9.893,29.679 -9.893,29.679c-13.603,22.755 -13.603,41.058 -13.603,41.058c-0.495,23.249 16.076,22.507 16.076,22.507c25.97,-0.742 51.693,-51.445 55.65,-59.607c0.495,-0.99 0.742,-1.979 0.742,-2.968c-0,-2.968 -1.237,-5.689 -2.473,-7.42c-0.742,-1.237 -2.226,-0.989 -2.968,0.247c-20.034,43.036 -46.499,63.812 -50.209,61.091c-4.946,-3.215 8.41,-31.906 20.776,-51.445c13.356,-21.27 10.388,-38.584 -1.978,-43.53c-16.077,-6.678 -34.38,18.302 -34.38,18.302c-5.194,6.431 -9.893,13.851 -13.85,20.034c2.226,-5.936 4.452,-12.119 7.172,-19.292c0.495,-0.742 0.742,-1.731 0.742,-2.72c1.237,-11.13 -5.936,-18.303 -13.85,-20.282c-1.979,-0.494 -3.957,0.495 -4.947,2.474c-8.409,20.776 -13.356,39.078 -16.324,51.939c-3.215,12.862 -5.441,32.401 -5.441,41.552c1.237,7.667 9.646,12.119 16.819,12.119Zm69.747,-83.845c0,-0 -1.236,-9.399 -3.215,-12.119c-0,-0 6.925,3.215 3.215,12.119Zm-51.692,-1.237c-0,0 -0.248,-7.172 -1.237,-11.13c0,0 5.194,3.463 1.237,11.13Z" style="fill-rule:nonzero;"/><path d="M737.466,904.922c-25.97,32.401 1.484,40.068 1.484,40.068c28.691,8.409 47.735,-30.422 59.112,-69.006c18.798,-11.872 29.68,-23.991 35.863,-35.616c2.226,-4.452 1.732,-8.162 0,-10.882c-0.494,-0.495 -1.236,-0.495 -1.731,0.247c-8.656,15.582 -19.539,26.465 -30.669,34.874c5.936,-23.002 9.646,-44.025 10.883,-52.682c0.742,-5.688 -1.484,-11.13 -6.184,-14.345c-2.968,-1.979 -6.183,-3.215 -8.656,-3.71c-2.474,-0.495 -4.947,0.989 -5.442,3.71c0,0.742 -0.247,1.484 -0.247,2.473c-2.721,-3.957 -6.431,-6.678 -11.872,-6.678c-26.217,-0.247 -40.315,35.369 -40.315,35.369c-13.603,30.669 -0.989,53.424 18.55,54.166c7.915,0.247 14.593,-4.205 19.539,-10.388c-0.742,2.473 -1.731,4.946 -2.473,7.42c-15.335,7.914 -29.185,14.097 -37.842,24.98Zm2.968,30.175c0,-0 -12.119,-1.484 2.226,-21.518c0,-0 8.657,-11.872 28.691,-23.002c-8.657,22.754 -20.282,45.262 -30.917,44.52Zm68.016,-119.214c0,-0 -0.742,-8.162 -3.462,-13.356c-0,-0 6.678,2.226 3.462,13.356Zm-48.971,60.101c-0,0 -14.098,-0.494 -0.742,-39.078c-0,-0 13.85,-35.616 24.485,-36.111c7.42,-0.247 4.947,22.013 4.452,27.454c-0.247,1.484 -0.494,2.968 -0.742,4.452c-1.978,5.689 -13.603,41.305 -27.453,43.283Z" style="fill-rule:nonzero;"/><path d="M814.634,898.491c-0.248,13.109 16.076,25.228 33.389,13.109c15.088,-10.141 11.872,-41.057 8.41,-60.102c10.882,-7.172 22.507,-11.377 26.959,-13.108c2.721,-0.99 4.699,-3.216 5.441,-5.936c0,-0.495 0,-1.237 0.248,-1.979c-0,-0.989 -0.99,-1.978 -2.226,-1.484c-12.862,3.957 -23.497,8.657 -32.401,13.851c-0.247,-1.484 -0.495,-2.474 -0.495,-3.463c-1.236,-4.699 -1.978,-8.904 -2.473,-12.366c12.861,-7.915 20.281,-19.292 17.313,-27.454c-3.71,-10.141 -18.055,-5.442 -18.055,-5.442c0,0 -20.776,5.442 -23.249,23.992c-0,-0 -2.226,18.549 6.925,39.82c-20.528,20.281 -19.786,40.562 -19.786,40.562Zm50.455,-91.018c0,0 -0.989,-6.183 -3.462,-9.151c-0,0 6.43,1.237 3.462,9.151Zm-10.882,-4.699c-0,-0 4.204,-0.742 4.452,3.957c-0,2.968 -0.495,4.947 -8.162,12.12c-0.99,-15.83 3.71,-16.077 3.71,-16.077Zm-16.819,65.048c2.226,10.883 3.71,28.196 -9.151,37.347c-0,0 -11.625,-12.366 9.151,-37.347Z" style="fill-rule:nonzero;"/></g><path d="M76.355,958.424l136.602,109.732l152.035,-109.732l164.713,109.817l170.408,-109.817c54.905,36.606 109.809,73.211 164.713,109.817c32.597,-26.485 124.406,-109.817 124.406,-109.817l67.003,59.063l-22.866,79.523l-27.726,-35.296l-148.068,120.033c-54.905,-36.606 -102.557,-72.07 -157.462,-108.676l-170.408,109.818l-164.713,-109.818l-149.732,118.249l-138.905,-115.096l-43.46,24.537l-24.352,-83.862l67.812,-58.475" style="fill:#390;stroke:#00863d;stroke-width:6.25px;"/><path d="M43.713,592.019l53.684,-79.603l96.515,98.942l172.967,-114.647l164.713,109.817l170.409,-109.817c54.904,36.605 109.808,73.211 164.713,109.817c32.596,-26.485 109.177,-88.679 109.177,-88.679l46.756,75.534c-32.597,26.485 -130.588,100.166 -163.185,126.651c-54.904,-36.606 -102.557,-72.07 -157.461,-108.676l-170.409,109.817l-164.713,-109.817l-155.906,110.109l-167.26,-129.448Z" style="fill:#390;stroke:#00863d;stroke-width:6.25px;"/></g><ellipse cx="534.665" cy="86.574" rx="78.113" ry="78.241" style="fill:none;stroke:#f6ca04;stroke-width:16.67px;"/><ellipse cx="534.665" cy="86.955" rx="67.872" ry="68.686" style="fill:none;stroke:#d1b123;stroke-width:6.25px;"/><path d="M676.223,284.32c1.292,2.4 1.959,4.928 1.959,7.484c-0,0.191 -0.004,0.381 -0.011,0.571l0.011,0.045l-0.013,0c-0.516,12.511 -16.71,22.568 -36.583,22.568c-19.873,-0 -36.067,-10.057 -36.583,-22.568l-0.026,0c-0.512,12.511 -16.575,22.568 -36.287,22.568c-19.712,-0 -35.776,-10.057 -36.288,-22.568l-2.301,0c-0.512,12.511 -16.575,22.568 -36.288,22.568c-19.712,-0 -35.775,-10.057 -36.287,-22.568l-0.025,0c-0.5,12.511 -16.191,22.568 -35.446,22.568c-19.255,-0 -34.946,-10.057 -35.446,-22.568l-0.012,0l0.011,-0.046c-0.008,-0.189 -0.011,-0.379 -0.011,-0.57c-0,-2.49 0.613,-4.954 1.802,-7.298l26.278,-115.378l233.683,0l27.863,115.192Z" style="fill:#f6ca04;"/><clipPath id="_clip2"><path d="M676.223,284.32c1.292,2.4 1.959,4.928 1.959,7.484c-0,0.191 -0.004,0.381 -0.011,0.571l0.011,0.045l-0.013,0c-0.516,12.511 -16.71,22.568 -36.583,22.568c-19.873,-0 -36.067,-10.057 -36.583,-22.568l-0.026,0c-0.512,12.511 -16.575,22.568 -36.287,22.568c-19.712,-0 -35.776,-10.057 -36.288,-22.568l-2.301,0c-0.512,12.511 -16.575,22.568 -36.288,22.568c-19.712,-0 -35.775,-10.057 -36.287,-22.568l-0.025,0c-0.5,12.511 -16.191,22.568 -35.446,22.568c-19.255,-0 -34.946,-10.057 -35.446,-22.568l-0.012,0l0.011,-0.046c-0.008,-0.189 -0.011,-0.379 -0.011,-0.57c-0,-2.49 0.613,-4.954 1.802,-7.298l26.278,-115.378l233.683,0l27.863,115.192Z"/></clipPath><g clip-path="url(#_clip2)"><path d="M645.727,169.786l4.909,-0.658l27.862,115.192c1.292,2.4 1.959,4.928 1.959,7.484c0,0.191 -0.003,0.381 -0.011,0.571l0.011,0.045l-0.012,0c-0.517,12.511 -16.711,22.568 -36.583,22.568c-12.236,-0 -24.1,-2.176 -30.744,-8.025c6.276,3.206 15.281,3.489 23.965,3.489c19.872,0 27.759,-3.466 33.661,-8.468c5.496,-4.658 1.748,-21.542 1.748,-21.542l-26.765,-110.656Zm-102.842,137.921c6.208,3.167 25.568,4.082 34.069,3.142c18.237,-2.015 28.2,-20.082 28.2,-20.082c0.167,4.037 -1.363,7.252 1.665,10.521c-4.73,9.29 -18.409,16.015 -34.528,16.015c-12.089,-0 -22.806,-3.783 -29.406,-9.596Zm-75.729,-0.1c6.208,3.166 23.743,5.173 32.132,3.509c21.501,-4.265 31.177,-18.643 31.177,-18.643c0.137,3.332 -1.191,1.901 0.928,4.743c-3.819,10.188 -18.186,17.772 -35.304,17.772c-12.089,-0 -22.333,-1.569 -28.933,-7.381Zm-72.291,-0.348c6.003,3.051 25.49,4.052 33.59,2.869c19.653,-2.871 29.542,-18.146 29.542,-18.146c0.166,4.06 -3.005,3.764 0.032,7.048c-4.648,9.262 -17.987,15.958 -33.698,15.958c-11.68,-0 -23.006,-2.026 -29.466,-7.729Z" style="fill:#cdaa0a;"/></g></svg>