<svg xmlns="http://www.w3.org/2000/svg" viewBox="0 0 3332 1706" xml:space="preserve" style="fill-rule:evenodd;clip-rule:evenodd;stroke-linejoin:round;stroke-miterlimit:2"><path style="fill:#fefffd" d="M0 506.06h734.124v687.059H0z"/><clipPath id="a"><path d="M0 506.06h734.124v687.059H0z"/></clipPath><g clip-path="url(#a)"><path d="m392.572 506.06 96.227 97.198-146.183 147.658 146.437 147.297-146.657 147.124 146.419 145.883H342.158l-146.419-145.883 146.657-147.124-146.437-147.297 146.183-147.658-100.394-97.198H0v687.058h734.124V506.06H392.572Z" style="fill:#d20018"/></g><path style="fill:#fefffd" d="M2596.91 506.06h734.124v687.059H2596.91z"/><path d="m2938.47 506.06-96.227 97.198 146.183 147.658-146.438 147.297 146.657 147.124-146.418 145.883h146.657l146.418-145.883-146.657-147.124 146.438-147.297L2988.9 603.258l100.393-97.198h241.748v687.058h-734.123V506.06h341.552Z" style="fill:#d20018"/><path d="m953.563 677.824 219.439-171.764v687.058l-219.439-171.764-219.439 171.764V506.06l219.439 171.764Z" style="fill:#9d0a0e"/><clipPath id="b"><path d="m953.563 677.824 219.439-171.764v687.058l-219.439-171.764-219.439 171.764V506.06l219.439 171.764Z"/></clipPath><g clip-path="url(#b)"><path style="fill:#390" d="M925.93 655.785h55.265v387.607H925.93z"/></g><path d="m2377.47 677.824 219.44-171.764v687.058l-219.44-171.764-219.439 171.764V506.06l219.439 171.764Z" style="fill:#9d0a0e"/><clipPath id="c"><path d="m2377.47 677.824 219.44-171.764v687.058l-219.44-171.764-219.439 171.764V506.06l219.439 171.764Z"/></clipPath><g clip-path="url(#c)"><path style="fill:#390" d="M2349.84 655.785h55.265v387.607h-55.265z"/></g><path style="fill:#d20018" d="M1173 506.06h985.033v687.059H1173z"/><path style="fill:#390" d="M1516.72 506.06h297.592v687.059H1516.72z"/><path d="M2073.55 715.899c0-73.786-59.905-133.691-133.691-133.691H1393.86c-73.786 0-133.691 59.905-133.691 133.691v267.38c0 73.786 59.905 133.691 133.691 133.691h545.999c73.786 0 133.691-59.905 133.691-133.691v-267.38Z" style="fill:#fefffd"/><path d="M423.434 160.54c6.575 9.777 22.631 34.55 70.931 64.927 53.117 33.408 195.202 86.456 208.218 92.553 14.432 6.76 68.724 34.18 79.493 42.023 19.219 13.997 35.972 34.721 48.446 54.402 3.454 5.45 62.873 116.964 74.578 152.077 3.807 11.419 8.868 21.202 12.426 32.304l.094.624c2.145 15.066 9.855 80.56 9.855 80.56 1.614 13.703 14.05 23.518 27.753 21.903 13.703-1.614 23.518-14.049 21.903-27.753 0 0-10.474-85.706-11.35-88.567-3.699-12.086-9.145-22.579-13.247-34.883-12.543-37.627-76.079-157.191-79.78-163.031-15.677-24.735-37.089-50.462-61.242-68.053-11.912-8.676-71.755-39.407-87.72-46.885-12.665-5.932-151.122-57.091-202.807-89.598-46.748-29.402-56.9-52.497-60.723-56.774-7.166-8.018-14.676-9.122-19.803-9.122-13.798 0-25 11.202-25 25 0 7.221 3.069 13.732 7.975 18.293Zm15.62 6.669.09.003-.797-.061.707.058Zm-1.432-.118.22.018-.832-.105.612.087Zm-1.458-.209.328.047-.712-.127.384.08Zm-1.483-.31.25.053-.362-.084.112.031Z" style="fill:#390"/><path d="M936.948 630.243c-7.277 5.155-11.556 14.049-10.374 23.51 2.317 18.549 12.549 25.105 16.86 27.089 7.918 3.643 26.791 6.282 36.975-16.511 11.662-26.099 31.662-164.115 6.585-267.87-16.318-67.512-43.508-94.38-56.806-110.812-27.657-34.174-22.6-23.999-46.817-56.742-4.754-6.428-58.748-58.804-94.956-126.821-5.293-9.942-16.203-57.522-16.411-77.349C771.859 10.94 760.54-.144 746.743.001c-13.797.145-24.881 11.464-24.736 25.262.27 25.766 15.394 87.397 22.272 100.319 37.889 71.173 93.918 126.331 98.892 133.057 24.934 33.712 19.675 23.279 48.15 58.465 10.951 13.531 33.634 35.507 47.072 91.104 17.964 74.326 4.267 183.887-1.445 222.035ZM2907.35 1545.05c-6.575-9.777-22.631-34.549-70.931-64.927-53.117-33.408-195.201-86.456-208.218-92.553-14.432-6.76-68.724-34.179-79.493-42.022-19.218-13.997-35.972-34.722-48.446-54.403-3.454-5.45-62.873-116.964-74.578-152.076-3.807-11.419-8.868-21.202-12.426-32.305l-.094-.624c-2.144-15.065-9.855-80.559-9.855-80.559-1.614-13.703-14.05-23.518-27.753-21.904-13.703 1.614-23.517 14.05-21.903 27.753 0 0 10.474 85.707 11.35 88.568 3.699 12.085 9.145 22.578 13.247 34.883 12.543 37.626 76.079 157.191 79.78 163.031 15.677 24.734 37.089 50.461 61.242 68.052 11.912 8.676 71.756 39.407 87.72 46.885 12.666 5.933 151.122 57.092 202.808 89.599 46.747 29.401 56.9 52.496 60.722 56.774 7.166 8.017 14.676 9.122 19.803 9.122 13.798 0 25-11.202 25-25 0-7.222-3.068-13.733-7.975-18.294Zm-11.497-6.084.362.084-.112-.032-.25-.052Zm-1.561-.305.713.127-.385-.08-.328-.047Zm-1.35-.18.832.106-.612-.088-.22-.018Zm-1.302-.102.797.06-.707-.058-.09-.002Z" style="fill:#390"/><path d="M2393.84 1075.35c7.277-5.155 11.556-14.049 10.374-23.51-2.317-18.549-12.549-25.105-16.86-27.088-7.918-3.643-26.791-6.282-36.975 16.51-11.662 26.099-31.662 164.116-6.584 267.87 16.317 67.513 43.507 94.38 56.805 110.812 27.657 34.175 22.6 23.999 46.817 56.743 4.754 6.427 58.748 58.803 94.956 126.82 5.293 9.943 16.203 57.523 16.411 77.349.145 13.797 11.464 24.881 25.261 24.736 13.797-.145 24.881-11.464 24.736-25.261-.27-25.767-15.393-87.398-22.272-100.319-37.889-71.174-93.918-126.332-98.892-133.057-24.934-33.713-19.675-23.279-48.15-58.465-10.951-13.532-33.634-35.507-47.072-91.105-17.964-74.325-4.267-183.886 1.445-222.035Z" style="fill:#390"/><g><path d="M1547.81 700.635c-10.442-11.312-27.409-10.007-27.409-10.007s-48.292-1.305-76.136 57.864c0 0-28.28 55.253 3.48 74.831 0 0-54.818 4.35-68.305 64.389 0 0-20.883 79.182 66.13 94.409 90.928 16.097 128.779-107.461 128.779-107.461s3.045-9.571-4.351-15.662c-1.305-.87-3.045-.435-3.48.87-6.091 17.403-45.247 117.467-112.682 106.591 0 0-43.506-4.351-33.935-65.695 0 0 8.266-59.169 48.292-56.123 0 0 19.578.87 23.929 16.532.435 1.741 2.61 2.176 3.915.435 2.611-3.48 5.656-10.006 4.351-16.967-1.305-6.091-7.831-12.617-21.318-17.403-29.15-10.876-4.786-70.48-4.786-70.48 20.448-56.558 52.643-55.253 52.643-55.253s3.915.435 6.961 6.091c-18.708 10.876-28.714 25.669-28.714 25.669-36.981 53.077-4.351 61.779-4.351 61.779 13.922 3.915 26.539-5.221 34.805-15.228 13.487-16.097 18.708-39.155 18.708-39.155 2.175-12.182 2.175-21.319 0-28.28 10.441-3.48 23.058-3.915 37.415-.435 39.591 10.007 105.286 44.377 144.441 58.299 38.721 13.922 99.63 19.578 117.903-20.013 11.311-25.234 2.175-40.896-3.481-46.987-1.74-1.74-3.915-.87-4.35.87-6.961 32.63-52.643 39.156-52.643 39.156-67 9.136-139.656-37.851-201.87-47.422-16.967-2.61-31.759 0-43.941 4.786Zm-14.357 37.85s-2.611 9.137-7.396 19.578c-6.091 13.922-14.793 29.585-22.189 25.234-12.181-6.961 11.312-40.896 11.312-40.896 4.786-6.961 11.747-14.792 21.318-21.318-.435 4.785-1.305 10.441-3.045 17.402Zm317.161-18.707s7.396 20.883-8.266 29.149c0 0 10.007-20.013 8.266-29.149Z" style="fill-rule:nonzero"/><path d="M1539.55 982.556c1.305.87 3.48.435 4.785-.435 13.052-10.006 26.104-21.753 38.286-34.805 10.006 19.143 26.104 38.286 53.078 36.11 43.071-1.74 81.792-100.499 85.272-109.636 0-.435 0-.87.435-1.74.435-5.221-1.305-10.007-4.35-12.617-1.741-1.74-4.351-.87-5.221 1.305-43.506 99.63-70.48 106.591-70.48 106.591-14.358 2.61-24.799-30.02-30.02-52.208 38.721-46.552 68.305-95.279 74.831-107.025 1.305-1.741 1.305-4.351 0-6.526-2.61-4.351-8.266-6.961-14.357-6.961-2.175 0-4.351 1.305-5.221 3.48-19.143 36.545-40.461 67.435-60.039 92.669-6.526-34.37-8.266-77.442-8.701-89.624 0-1.74-1.305-3.48-3.48-4.35-12.182-3.916-23.929-1.74-32.195 6.526-3.481 3.915-5.221 8.701-5.221 13.922.87 15.662 3.916 54.818 13.922 94.844 0 0 1.305 6.526 4.351 16.097-19.578 20.883-33.935 33.935-39.156 38.721-1.305.87-2.175 2.61-2.175 4.786 0 6.526 3.045 9.571 5.656 10.876Zm54.818-164.889s-6.526-14.792-12.182-16.533c0 0 12.182-5.655 12.182 16.533Z" style="fill-rule:nonzero"/><path d="M1746.2 798.089c12.617 9.136 20.883-3.916 24.364-10.877 1.305-2.61 2.175-5.655 1.74-8.701-2.176-14.357-13.487-18.708-20.448-20.448-2.611-.435-5.656 1.305-6.526 3.916-10.877 26.539.87 36.11.87 36.11Zm20.013-24.799s6.091 7.832-1.74 16.098c0 0 2.61-13.922 1.74-16.098Zm143.571-36.98c-7.396-3.481-24.364-3.045-40.026-1.74v-.87c.87-2.176.87-4.351.435-6.091-2.175-16.098-21.318-20.448-30.019-21.754-2.611-.435-4.786 1.306-5.656 3.481a1298.625 1298.625 0 0 1-9.136 30.019c-23.494 2.176-37.851 0-46.987-3.48-6.091-2.61-9.572-8.266-11.312-12.182-.87-1.305-2.61-1.74-3.916-.435-3.48 5.656-10.006 16.532-6.09 24.364 5.22 11.746 15.227 16.967 63.519 9.571-15.662 55.253-23.929 97.889-28.714 126.169-27.844 60.909-60.039 89.188-66.13 84.837-8.266-6.091 9.571-74.831 30.454-128.779.871-1.74 1.306-3.915 1.306-5.656 1.74-18.272-11.312-28.279-25.234-30.454-4.351-.87-8.266 1.74-10.007 5.656-30.019 76.571-30.889 116.597-30.889 116.597-6.091 60.474 33.065 57.863 33.065 57.863 24.798-.87 46.117-27.844 61.344-54.383-2.611 56.124 33.935 54.383 33.935 54.383 43.506.87 78.311-86.142 86.142-103.98 1.306-3.045 1.741-6.961.871-10.442-.436-3.48-2.176-6.961-3.481-9.136-1.305-2.175-4.351-1.74-5.221.435-33.935 83.968-69.175 115.292-77.441 107.896-13.922-13.052 27.844-161.844 43.941-216.662 32.63-.87 40.896 10.442 42.637 16.533.87 1.305 2.61 1.74 3.915.435 6.091-6.091 18.273-22.189-1.305-32.195Zm-158.363 95.714c0 8.701-4.351 10.877-4.351 10.877s1.74-15.663-1.74-22.624c0 0 6.526 3.046 6.091 11.747Zm110.071-93.974s-.87-10.876-3.481-16.967c0 0 10.007 5.22 3.481 16.967Z" style="fill-rule:nonzero"/></g></svg>