<?xml version="1.0" encoding="UTF-8" standalone="no"?><!DOCTYPE svg PUBLIC "-//W3C//DTD SVG 1.1//EN" "http://www.w3.org/Graphics/SVG/1.1/DTD/svg11.dtd"><svg width="100%" height="100%" viewBox="0 0 3332 1706" version="1.1" xmlns="http://www.w3.org/2000/svg" xmlns:xlink="http://www.w3.org/1999/xlink" xml:space="preserve" xmlns:serif="http://www.serif.com/" style="fill-rule:evenodd;clip-rule:evenodd;stroke-linejoin:round;stroke-miterlimit:2;"><g><rect x="0" y="506.06" width="734.124" height="687.059" style="fill:#fefffd;"/><clipPath id="_clip1"><rect x="0" y="506.06" width="734.124" height="687.059"/></clipPath><g clip-path="url(#_clip1)"><path d="M392.572,506.06l96.227,97.198l-146.183,147.658l146.437,147.297l-146.657,147.124l146.419,145.883l-146.657,-0l-146.419,-145.883l146.657,-147.124l-146.437,-147.297l146.183,-147.658l-100.394,-97.198l-241.748,-0l0,687.058l734.124,0l-0,-687.058l-341.552,-0Z" style="fill:#d20018;"/></g><rect x="2596.91" y="506.06" width="734.124" height="687.059" style="fill:#fefffd;"/><path d="M2938.47,506.06l-96.227,97.198l146.183,147.658l-146.438,147.297l146.657,147.124l-146.418,145.883l146.657,-0l146.418,-145.883l-146.657,-147.124l146.438,-147.297l-146.183,-147.658l100.393,-97.198l241.748,-0l0,687.058l-734.123,0l-0,-687.058l341.552,-0Z" style="fill:#d20018;"/><path id="Left" d="M953.563,677.824l219.439,-171.764l0,687.058l-219.439,-171.764l-219.439,171.764l-0,-687.058l219.439,171.764Z" style="fill:#9d0a0e;"/><clipPath id="_clip2"><path id="Left1" serif:id="Left" d="M953.563,677.824l219.439,-171.764l0,687.058l-219.439,-171.764l-219.439,171.764l-0,-687.058l219.439,171.764Z"/></clipPath><g clip-path="url(#_clip2)"><rect x="925.93" y="655.785" width="55.265" height="387.607" style="fill:#390;"/></g><path id="Right" d="M2377.47,677.824l219.44,-171.764l-0,687.058l-219.44,-171.764l-219.439,171.764l0,-687.058l219.439,171.764Z" style="fill:#9d0a0e;"/><clipPath id="_clip3"><path d="M2377.47,677.824l219.44,-171.764l-0,687.058l-219.44,-171.764l-219.439,171.764l0,-687.058l219.439,171.764Z"/></clipPath><g clip-path="url(#_clip3)"><rect x="2349.84" y="655.785" width="55.265" height="387.607" style="fill:#390;"/></g><rect x="1173" y="506.06" width="985.033" height="687.059" style="fill:#d20018;"/><rect x="1516.72" y="506.06" width="297.592" height="687.059" style="fill:#390;"/><path d="M2073.55,715.899c-0,-73.786 -59.905,-133.691 -133.691,-133.691l-545.999,0c-73.786,0 -133.691,59.905 -133.691,133.691l0,267.38c0,73.786 59.905,133.691 133.691,133.691l545.999,-0c73.786,-0 133.691,-59.905 133.691,-133.691l-0,-267.38Z" style="fill:#fefffd;"/><path d="M423.434,160.54c6.575,9.777 22.631,34.55 70.931,64.927c53.117,33.408 195.202,86.456 208.218,92.553c14.432,6.76 68.724,34.18 79.493,42.023c19.219,13.997 35.972,34.721 48.446,54.402c3.454,5.45 62.873,116.964 74.578,152.077c3.807,11.419 8.868,21.202 12.426,32.304l0.094,0.624c2.145,15.066 9.855,80.56 9.855,80.56c1.614,13.703 14.05,23.518 27.753,21.903c13.703,-1.614 23.518,-14.049 21.903,-27.753c0,0 -10.474,-85.706 -11.35,-88.567c-3.699,-12.086 -9.145,-22.579 -13.247,-34.883c-12.543,-37.627 -76.079,-157.191 -79.78,-163.031c-15.677,-24.735 -37.089,-50.462 -61.242,-68.053c-11.912,-8.676 -71.755,-39.407 -87.72,-46.885c-12.665,-5.932 -151.122,-57.091 -202.807,-89.598c-46.748,-29.402 -56.9,-52.497 -60.723,-56.774c-7.166,-8.018 -14.676,-9.122 -19.803,-9.122c-13.798,-0 -25,11.202 -25,25c-0,7.221 3.069,13.732 7.975,18.293Zm15.62,6.669l0.09,0.003l-0.797,-0.061l0.707,0.058Zm-1.432,-0.118l0.22,0.018l-0.832,-0.105l0.612,0.087Zm-1.458,-0.209l0.328,0.047l-0.712,-0.127l0.384,0.08Zm-1.483,-0.31l0.25,0.053l-0.362,-0.084l0.112,0.031Z" style="fill:#390;"/><path d="M936.948,630.243c-7.277,5.155 -11.556,14.049 -10.374,23.51c2.317,18.549 12.549,25.105 16.86,27.089c7.918,3.643 26.791,6.282 36.975,-16.511c11.662,-26.099 31.662,-164.115 6.585,-267.87c-16.318,-67.512 -43.508,-94.38 -56.806,-110.812c-27.657,-34.174 -22.6,-23.999 -46.817,-56.742c-4.754,-6.428 -58.748,-58.804 -94.956,-126.821c-5.293,-9.942 -16.203,-57.522 -16.411,-77.349c-0.145,-13.797 -11.464,-24.881 -25.261,-24.736c-13.797,0.145 -24.881,11.464 -24.736,25.262c0.27,25.766 15.394,87.397 22.272,100.319c37.889,71.173 93.918,126.331 98.892,133.057c24.934,33.712 19.675,23.279 48.15,58.465c10.951,13.531 33.634,35.507 47.072,91.104c17.964,74.326 4.267,183.887 -1.445,222.035Z" style="fill:#390;"/><path d="M2907.35,1545.05c-6.575,-9.777 -22.631,-34.549 -70.931,-64.927c-53.117,-33.408 -195.201,-86.456 -208.218,-92.553c-14.432,-6.76 -68.724,-34.179 -79.493,-42.022c-19.218,-13.997 -35.972,-34.722 -48.446,-54.403c-3.454,-5.45 -62.873,-116.964 -74.578,-152.076c-3.807,-11.419 -8.868,-21.202 -12.426,-32.305l-0.094,-0.624c-2.144,-15.065 -9.855,-80.559 -9.855,-80.559c-1.614,-13.703 -14.05,-23.518 -27.753,-21.904c-13.703,1.614 -23.517,14.05 -21.903,27.753c-0,-0 10.474,85.707 11.35,88.568c3.699,12.085 9.145,22.578 13.247,34.883c12.543,37.626 76.079,157.191 79.78,163.031c15.677,24.734 37.089,50.461 61.242,68.052c11.912,8.676 71.756,39.407 87.72,46.885c12.666,5.933 151.122,57.092 202.808,89.599c46.747,29.401 56.9,52.496 60.722,56.774c7.166,8.017 14.676,9.122 19.803,9.122c13.798,-0 25,-11.202 25,-25c0,-7.222 -3.068,-13.733 -7.975,-18.294Zm-11.497,-6.084l0.362,0.084l-0.112,-0.032l-0.25,-0.052Zm-1.561,-0.305l0.713,0.127l-0.385,-0.08l-0.328,-0.047Zm-1.35,-0.18l0.832,0.106l-0.612,-0.088l-0.22,-0.018Zm-1.302,-0.102l0.797,0.06l-0.707,-0.058l-0.09,-0.002Z" style="fill:#390;"/><path d="M2393.84,1075.35c7.277,-5.155 11.556,-14.049 10.374,-23.51c-2.317,-18.549 -12.549,-25.105 -16.86,-27.088c-7.918,-3.643 -26.791,-6.282 -36.975,16.51c-11.662,26.099 -31.662,164.116 -6.584,267.87c16.317,67.513 43.507,94.38 56.805,110.812c27.657,34.175 22.6,23.999 46.817,56.743c4.754,6.427 58.748,58.803 94.956,126.82c5.293,9.943 16.203,57.523 16.411,77.349c0.145,13.797 11.464,24.881 25.261,24.736c13.797,-0.145 24.881,-11.464 24.736,-25.261c-0.27,-25.767 -15.393,-87.398 -22.272,-100.319c-37.889,-71.174 -93.918,-126.332 -98.892,-133.057c-24.934,-33.713 -19.675,-23.279 -48.15,-58.465c-10.951,-13.532 -33.634,-35.507 -47.072,-91.105c-17.964,-74.325 -4.267,-183.886 1.445,-222.035Z" style="fill:#390;"/></g><g id="Next---Christmas-Font" serif:id="Next - Christmas Font"><path d="M1596.36,714.044c-0,-0 -20.98,-14.375 -41.182,13.597c-1.165,1.554 -0.388,3.497 1.554,3.885c7.382,1.943 21.368,10.878 19.814,51.283c-1.943,45.843 -15.929,114.219 -26.807,154.624c-26.418,-40.793 -46.232,-139.473 -53.225,-176.381c-0.777,-37.296 -13.597,-49.728 -34.576,-50.505c-0,0 -14.375,-0.388 -19.425,15.54c-0.389,1.554 1.165,3.108 2.719,2.72c7.382,-2.331 22.533,-2.331 23.699,33.799c1.165,38.462 -6.216,72.65 -11.267,93.241c0,0 -3.108,15.54 -11.266,34.965c-50.506,-12.82 -119.271,-37.296 -135.976,17.483c-20.591,66.822 59.052,63.714 59.052,63.714c0,0 48.563,3.108 85.471,-51.282c31.857,3.885 37.684,-13.986 39.627,-22.533c0.388,-1.554 -0.389,-3.108 -2.72,-2.72c-5.827,1.554 -13.597,1.554 -22.921,0c4.273,-9.324 8.547,-20.202 12.043,-31.857c2.72,-10.489 5.439,-19.814 7.382,-28.361c7.77,57.887 24.476,133.645 55.556,136.365c4.273,0.388 16.317,-0 25.252,-13.986c0.777,-1.166 1.166,-2.72 1.943,-4.274c6.993,-21.368 68.765,-213.288 25.253,-239.317Zm-227.663,246.31c-50.894,1.166 -47.786,-35.354 -42.347,-44.289c11.267,-19.814 52.06,-15.929 107.616,-0c-13.987,22.922 -34.966,43.512 -65.269,44.289Zm214.842,-240.871c-0,-0 17.094,-2.331 19.037,19.813c-0,0 -6.993,-13.597 -19.037,-19.813Z" style="fill-rule:nonzero;"/><path d="M1654.25,971.621c60.607,5.827 97.903,-85.082 101.011,-92.852c-0,-0.389 0.388,-0.777 0.388,-1.166c1.554,-6.216 0,-12.432 -1.942,-15.928c-0.389,-1.554 -2.72,-1.554 -3.497,-0c-8.158,18.648 -45.454,97.902 -91.298,95.183c-20.202,-2.331 -18.648,-26.807 -13.986,-46.621c15.929,-1.165 51.283,-8.547 64.88,-49.728c18.26,-56.333 -17.094,-56.721 -17.094,-56.721c-43.124,-0.389 -68.376,60.218 -68.376,60.218c-0,-0 -48.563,99.456 29.914,107.615Zm27.973,-156.955c1.942,-1.554 5.827,-2.331 8.547,-1.166c-0,0 -9.324,4.274 -13.21,12.432c0,0 0,-7.381 4.663,-11.266Zm-27.973,67.988c0,-0 26.03,-65.269 40.793,-64.492c0,0 10.101,4.274 -3.108,41.959c-10.489,28.36 -32.246,35.742 -43.124,37.684c2.72,-8.935 5.439,-15.151 5.439,-15.151Z" style="fill-rule:nonzero;"/><path d="M1725.34,971.232c1.166,0.777 3.108,0.389 4.274,-0.388c11.655,-8.936 23.31,-19.425 34.188,-31.08c8.936,17.094 23.31,34.188 47.397,32.245c38.462,-1.554 73.039,-89.744 76.147,-97.902c-0,-0.389 -0,-0.777 0.388,-1.554c0.389,-4.662 -1.165,-8.936 -3.885,-11.267c-1.554,-1.554 -3.885,-0.777 -4.662,1.166c-38.85,88.967 -62.937,95.183 -62.937,95.183c-12.821,2.331 -22.145,-26.807 -26.807,-46.621c34.577,-41.569 60.995,-85.082 66.823,-95.571c1.165,-1.554 1.165,-3.885 -0,-5.828c-2.331,-3.885 -7.382,-6.216 -12.821,-6.216c-1.943,0 -3.885,1.166 -4.662,3.108c-17.094,32.634 -36.131,60.218 -53.613,82.751c-5.828,-30.691 -7.382,-69.153 -7.77,-80.031c-0,-1.554 -1.166,-3.108 -3.108,-3.885c-10.879,-3.497 -21.368,-1.554 -28.75,5.827c-3.108,3.497 -4.662,7.77 -4.662,12.432c0.777,13.986 3.497,48.952 12.432,84.694c0,-0 1.166,5.827 3.885,14.374c-17.482,18.649 -30.303,30.304 -34.965,34.577c-1.165,0.777 -1.942,2.331 -1.942,4.274c-0,5.827 2.719,8.547 5.05,9.712Zm48.952,-147.242c-0,-0 -5.828,-13.209 -10.879,-14.763c0,-0 10.879,-5.051 10.879,14.763Z" style="fill-rule:nonzero;"/><path d="M1895.51,783.586c-23.31,88.19 -26.806,136.752 -26.806,136.752c-4.274,53.614 29.914,51.671 29.914,51.671c38.851,0.777 69.931,-76.923 76.924,-92.463c1.165,-3.108 1.554,-6.605 0.777,-9.713c-0.389,-3.108 -1.943,-5.827 -3.108,-8.158c-1.166,-1.554 -3.885,-1.554 -4.662,0.388c-30.303,74.981 -61.384,103.342 -69.154,96.349c-11.655,-10.49 19.037,-122.767 35.354,-179.488c27.195,-0 34.188,9.324 35.742,14.374c0.777,1.554 2.331,1.943 3.497,0.777c5.439,-5.827 16.317,-19.813 -1.166,-28.361c-6.604,-3.496 -20.202,-3.108 -33.799,-2.331c1.942,-6.604 3.496,-11.655 4.273,-14.374c0.777,-1.554 0.777,-3.497 0.389,-5.439c-2.331,-14.763 -20.203,-18.648 -27.584,-19.425c-1.943,-0 -3.497,0.777 -3.885,2.719c-4.662,14.375 -8.547,27.972 -12.432,40.793c-22.533,2.331 -35.742,0.777 -44.289,-2.72c-5.439,-2.331 -8.548,-6.993 -10.102,-10.489c-0.388,-1.554 -2.719,-1.554 -3.496,-0.389c-3.497,5.051 -8.936,14.375 -5.439,21.757c4.662,10.489 13.986,15.151 59.052,7.77Zm41.182,-30.692c-0,-0 -0.777,-9.713 -3.108,-14.763c-0,-0 8.547,4.273 3.108,14.763Z" style="fill-rule:nonzero;"/></g></svg>