<?xml version="1.0" encoding="UTF-8" standalone="no"?><!DOCTYPE svg PUBLIC "-//W3C//DTD SVG 1.1//EN" "http://www.w3.org/Graphics/SVG/1.1/DTD/svg11.dtd"><svg width="100%" height="100%" viewBox="0 0 3332 1706" version="1.1" xmlns="http://www.w3.org/2000/svg" xmlns:xlink="http://www.w3.org/1999/xlink" xml:space="preserve" xmlns:serif="http://www.serif.com/" style="fill-rule:evenodd;clip-rule:evenodd;stroke-linejoin:round;stroke-miterlimit:2;"><g><rect x="0" y="506.06" width="734.124" height="687.059" style="fill:#fefffd;"/><clipPath id="_clip1"><rect x="0" y="506.06" width="734.124" height="687.059"/></clipPath><g clip-path="url(#_clip1)"><path d="M392.572,506.06l96.227,97.198l-146.183,147.658l146.437,147.297l-146.657,147.124l146.419,145.883l-146.657,-0l-146.419,-145.883l146.657,-147.124l-146.437,-147.297l146.183,-147.658l-100.394,-97.198l-241.748,-0l0,687.058l734.124,0l-0,-687.058l-341.552,-0Z" style="fill:#d20018;"/></g><rect x="2596.91" y="506.06" width="734.124" height="687.059" style="fill:#fefffd;"/><path d="M2938.47,506.06l-96.227,97.198l146.183,147.658l-146.438,147.297l146.657,147.124l-146.418,145.883l146.657,-0l146.418,-145.883l-146.657,-147.124l146.438,-147.297l-146.183,-147.658l100.393,-97.198l241.748,-0l0,687.058l-734.123,0l-0,-687.058l341.552,-0Z" style="fill:#d20018;"/><path id="Left" d="M953.563,677.824l219.439,-171.764l0,687.058l-219.439,-171.764l-219.439,171.764l-0,-687.058l219.439,171.764Z" style="fill:#9d0a0e;"/><clipPath id="_clip2"><path id="Left1" serif:id="Left" d="M953.563,677.824l219.439,-171.764l0,687.058l-219.439,-171.764l-219.439,171.764l-0,-687.058l219.439,171.764Z"/></clipPath><g clip-path="url(#_clip2)"><rect x="925.93" y="655.785" width="55.265" height="387.607" style="fill:#390;"/></g><path id="Right" d="M2377.47,677.824l219.44,-171.764l-0,687.058l-219.44,-171.764l-219.439,171.764l0,-687.058l219.439,171.764Z" style="fill:#9d0a0e;"/><clipPath id="_clip3"><path d="M2377.47,677.824l219.44,-171.764l-0,687.058l-219.44,-171.764l-219.439,171.764l0,-687.058l219.439,171.764Z"/></clipPath><g clip-path="url(#_clip3)"><rect x="2349.84" y="655.785" width="55.265" height="387.607" style="fill:#390;"/></g><rect x="1173" y="506.06" width="985.033" height="687.059" style="fill:#d20018;"/><rect x="1516.72" y="506.06" width="297.592" height="687.059" style="fill:#390;"/><path d="M2073.55,715.899c-0,-73.786 -59.905,-133.691 -133.691,-133.691l-545.999,0c-73.786,0 -133.691,59.905 -133.691,133.691l0,267.38c0,73.786 59.905,133.691 133.691,133.691l545.999,-0c73.786,-0 133.691,-59.905 133.691,-133.691l-0,-267.38Z" style="fill:#fefffd;"/><path d="M423.434,160.54c6.575,9.777 22.631,34.55 70.931,64.927c53.117,33.408 195.202,86.456 208.218,92.553c14.432,6.76 68.724,34.18 79.493,42.023c19.219,13.997 35.972,34.721 48.446,54.402c3.454,5.45 62.873,116.964 74.578,152.077c3.807,11.419 8.868,21.202 12.426,32.304l0.094,0.624c2.145,15.066 9.855,80.56 9.855,80.56c1.614,13.703 14.05,23.518 27.753,21.903c13.703,-1.614 23.518,-14.049 21.903,-27.753c0,0 -10.474,-85.706 -11.35,-88.567c-3.699,-12.086 -9.145,-22.579 -13.247,-34.883c-12.543,-37.627 -76.079,-157.191 -79.78,-163.031c-15.677,-24.735 -37.089,-50.462 -61.242,-68.053c-11.912,-8.676 -71.755,-39.407 -87.72,-46.885c-12.665,-5.932 -151.122,-57.091 -202.807,-89.598c-46.748,-29.402 -56.9,-52.497 -60.723,-56.774c-7.166,-8.018 -14.676,-9.122 -19.803,-9.122c-13.798,-0 -25,11.202 -25,25c-0,7.221 3.069,13.732 7.975,18.293Zm15.62,6.669l0.09,0.003l-0.797,-0.061l0.707,0.058Zm-1.432,-0.118l0.22,0.018l-0.832,-0.105l0.612,0.087Zm-1.458,-0.209l0.328,0.047l-0.712,-0.127l0.384,0.08Zm-1.483,-0.31l0.25,0.053l-0.362,-0.084l0.112,0.031Z" style="fill:#390;"/><path d="M936.948,630.243c-7.277,5.155 -11.556,14.049 -10.374,23.51c2.317,18.549 12.549,25.105 16.86,27.089c7.918,3.643 26.791,6.282 36.975,-16.511c11.662,-26.099 31.662,-164.115 6.585,-267.87c-16.318,-67.512 -43.508,-94.38 -56.806,-110.812c-27.657,-34.174 -22.6,-23.999 -46.817,-56.742c-4.754,-6.428 -58.748,-58.804 -94.956,-126.821c-5.293,-9.942 -16.203,-57.522 -16.411,-77.349c-0.145,-13.797 -11.464,-24.881 -25.261,-24.736c-13.797,0.145 -24.881,11.464 -24.736,25.262c0.27,25.766 15.394,87.397 22.272,100.319c37.889,71.173 93.918,126.331 98.892,133.057c24.934,33.712 19.675,23.279 48.15,58.465c10.951,13.531 33.634,35.507 47.072,91.104c17.964,74.326 4.267,183.887 -1.445,222.035Z" style="fill:#390;"/><path d="M2907.35,1545.05c-6.575,-9.777 -22.631,-34.549 -70.931,-64.927c-53.117,-33.408 -195.201,-86.456 -208.218,-92.553c-14.432,-6.76 -68.724,-34.179 -79.493,-42.022c-19.218,-13.997 -35.972,-34.722 -48.446,-54.403c-3.454,-5.45 -62.873,-116.964 -74.578,-152.076c-3.807,-11.419 -8.868,-21.202 -12.426,-32.305l-0.094,-0.624c-2.144,-15.065 -9.855,-80.559 -9.855,-80.559c-1.614,-13.703 -14.05,-23.518 -27.753,-21.904c-13.703,1.614 -23.517,14.05 -21.903,27.753c-0,-0 10.474,85.707 11.35,88.568c3.699,12.085 9.145,22.578 13.247,34.883c12.543,37.626 76.079,157.191 79.78,163.031c15.677,24.734 37.089,50.461 61.242,68.052c11.912,8.676 71.756,39.407 87.72,46.885c12.666,5.933 151.122,57.092 202.808,89.599c46.747,29.401 56.9,52.496 60.722,56.774c7.166,8.017 14.676,9.122 19.803,9.122c13.798,-0 25,-11.202 25,-25c0,-7.222 -3.068,-13.733 -7.975,-18.294Zm-11.497,-6.084l0.362,0.084l-0.112,-0.032l-0.25,-0.052Zm-1.561,-0.305l0.713,0.127l-0.385,-0.08l-0.328,-0.047Zm-1.35,-0.18l0.832,0.106l-0.612,-0.088l-0.22,-0.018Zm-1.302,-0.102l0.797,0.06l-0.707,-0.058l-0.09,-0.002Z" style="fill:#390;"/><path d="M2393.84,1075.35c7.277,-5.155 11.556,-14.049 10.374,-23.51c-2.317,-18.549 -12.549,-25.105 -16.86,-27.088c-7.918,-3.643 -26.791,-6.282 -36.975,16.51c-11.662,26.099 -31.662,164.116 -6.584,267.87c16.317,67.513 43.507,94.38 56.805,110.812c27.657,34.175 22.6,23.999 46.817,56.743c4.754,6.427 58.748,58.803 94.956,126.82c5.293,9.943 16.203,57.523 16.411,77.349c0.145,13.797 11.464,24.881 25.261,24.736c13.797,-0.145 24.881,-11.464 24.736,-25.261c-0.27,-25.767 -15.393,-87.398 -22.272,-100.319c-37.889,-71.174 -93.918,-126.332 -98.892,-133.057c-24.934,-33.713 -19.675,-23.279 -48.15,-58.465c-10.951,-13.532 -33.634,-35.507 -47.072,-91.105c-17.964,-74.325 -4.267,-183.886 1.445,-222.035Z" style="fill:#390;"/></g><g id="Quiz---Christmas-Font" serif:id="Quiz - Christmas Font"><path d="M1522.53,920.867c0.441,-2.207 -2.206,-3.089 -3.971,-1.765c-9.266,11.031 -23.828,10.59 -24.269,10.59c-5.736,-0 -11.472,-0.442 -17.65,-1.324c16.768,-16.768 33.535,-43.684 45.449,-85.603c32.211,-112.518 11.914,-184.442 -48.979,-182.677c0,-0 -80.307,-2.206 -105.459,102.811c-8.383,33.535 -6.177,66.188 3.089,94.869c-0.441,2.206 -1.324,4.412 -1.765,6.619c0,-0 -24.71,87.367 39.271,92.662c0,0 17.209,2.648 39.713,-7.942c14.12,6.177 29.122,9.266 43.684,7.942c24.71,-2.206 30.005,-24.269 30.887,-36.182Zm-1.324,-216.213c0,0 -7.501,-17.209 -20.738,-27.799c-0,0 19.415,1.765 20.738,27.799Zm-107.223,239.599c-16.768,-1.765 -18.974,-20.298 -17.65,-37.506c9.707,13.237 21.18,23.827 33.535,32.211c-7.943,5.736 -13.679,5.295 -15.885,5.295Zm33.535,-25.151c-17.65,-8.825 -33.977,-22.504 -46.332,-39.272c0.442,-2.206 0.883,-3.088 0.883,-3.088c10.149,-35.3 21.621,-49.42 33.976,-60.452c5.295,-4.853 11.031,-6.177 15.003,-5.736c1.323,0.441 3.088,-0.882 3.088,-2.647c-0.441,-15.444 -12.355,-20.298 -25.151,-17.65c-6.619,1.323 -15.002,6.618 -19.415,9.707c-8.384,6.178 -19.415,17.65 -29.122,35.741c-5.737,-21.18 -5.737,-44.566 0.882,-69.717c0,-0 21.621,-94.869 90.898,-91.339c31.328,1.765 40.595,51.185 8.383,162.38c-11.913,40.595 -23.386,66.188 -33.093,82.073Z" style="fill-rule:nonzero;"/><path d="M1577.25,954.402c0,-0 21.621,2.206 47.655,-45.008c-0.882,50.303 34.418,48.096 34.418,48.096c46.331,-1.323 81.19,-93.103 86.485,-106.782c0.441,-1.324 0.882,-3.089 0.882,-4.854c0,-4.854 -2.206,-9.266 -3.971,-12.796c-1.324,-2.648 -4.854,-2.206 -5.736,0.441c-29.564,77.66 -69.718,113.401 -76.778,108.548c-8.384,-5.737 13.679,-85.603 35.3,-140.759c0.883,-1.765 1.324,-3.971 1.324,-5.736c1.324,-18.533 -11.473,-28.682 -25.151,-30.888c-4.854,-0.882 -9.267,1.324 -11.032,5.736c-7.501,18.974 -13.237,36.624 -18.091,52.068c-42.801,126.197 -63.981,116.49 -63.981,116.49c-8.384,-5.736 12.355,-80.308 33.094,-135.023c2.206,-5.736 2.206,-11.913 -0.442,-17.208c-5.295,-11.473 -15.885,-15.003 -27.357,-15.444c-3.53,-0 -7.06,2.206 -8.384,5.295c-30.887,78.542 -32.211,119.137 -32.211,119.137c-5.736,61.334 33.976,58.687 33.976,58.687Zm108.548,-152.673c-0,0 -1.324,-14.561 -4.413,-22.504c0,0 15.885,7.943 4.413,22.504Zm-83.397,3.971c0,0 0.442,-13.237 -0.882,-19.856c-0,0 8.825,6.178 0.882,19.856Z" style="fill-rule:nonzero;"/><path d="M1750.66,957.049c46.332,-1.324 81.632,-93.104 86.485,-106.341c0.442,-1.765 0.883,-3.53 0.883,-4.854c-0,-4.854 -1.765,-9.707 -3.971,-13.237c-1.324,-2.207 -4.854,-1.765 -5.737,0.441c-29.563,77.66 -69.717,113.842 -76.336,108.989c-8.384,-6.178 9.708,-75.895 30.888,-130.61c0.882,-1.765 1.323,-3.972 1.323,-5.737c1.765,-18.532 -11.472,-28.681 -25.592,-31.328c-4.413,-0.442 -8.384,1.765 -10.149,6.177c-30.446,77.66 -31.77,118.255 -31.77,118.255c-5.736,60.893 33.976,58.245 33.976,58.245Zm27.358,-153.555c-0,9.266 -4.413,11.031 -4.413,11.031c0,0 2.207,-15.443 -1.323,-22.503c-0,-0 6.177,2.647 5.736,11.472Zm-5.295,-33.976c12.355,9.266 21.18,-3.971 24.71,-11.031c1.324,-2.648 2.206,-5.737 1.765,-8.825c-2.206,-14.562 -13.679,-19.415 -20.739,-20.739c-2.647,-0.441 -5.736,0.882 -6.619,3.971c-11.031,26.916 0.883,36.624 0.883,36.624Zm20.297,-25.593c0,0 6.178,7.943 -1.765,16.768c0,-0 2.648,-14.561 1.765,-16.768Z" style="fill-rule:nonzero;"/><path d="M1829.64,908.512c-39.712,49.42 -51.185,113.401 -3.971,127.962c55.156,16.768 104.576,-48.979 102.37,-116.049c-0.883,-23.386 -8.384,-41.036 -18.091,-53.832c14.12,-7.06 30.887,-13.679 50.302,-19.415c1.765,-0.883 3.53,-2.206 4.854,-3.53c3.53,-4.413 5.295,-7.943 6.177,-11.914c0,-1.765 -1.323,-3.089 -3.088,-2.647c-8.384,1.765 -33.977,8.825 -67.953,26.033c-15.002,-15.002 -30.446,-20.297 -30.446,-20.297c27.357,-4.854 59.569,-11.473 66.187,-25.593c9.708,-21.18 -9.266,-40.153 -41.918,-42.801c-36.183,-3.089 -52.95,1.765 -52.95,1.765c-13.679,3.53 -18.533,20.739 -19.857,30.005c-0.441,3.089 1.765,5.736 4.854,5.295c11.473,-2.206 36.183,-5.295 56.48,-4.854c24.71,0.442 41.478,5.737 41.919,9.708c0.441,3.53 -58.245,15.885 -94.869,19.856c-3.53,0.441 -6.177,3.53 -5.295,7.06c0.441,3.971 1.324,9.708 3.53,14.561c1.765,3.972 4.854,6.619 8.825,7.943c6.619,2.206 18.974,7.06 29.564,16.326c-13.679,9.708 -26.034,21.621 -36.624,34.418Zm91.78,-127.963c0,0 11.914,2.206 12.355,14.561c0,0 -5.295,-8.383 -12.355,-14.561Zm-44.125,105.018c8.825,12.355 14.561,28.681 11.031,51.626c0,-0 -8.825,91.339 -57.362,84.279c-0,-0 -36.624,-10.59 -14.12,-62.658c5.295,-12.355 15.002,-28.681 26.034,-42.36c-0,0 9.707,-13.679 34.417,-30.887Z" style="fill-rule:nonzero;"/></g></svg>