<svg xmlns="http://www.w3.org/2000/svg" viewBox="0 0 3332 1706" xml:space="preserve" style="fill-rule:evenodd;clip-rule:evenodd;stroke-linejoin:round;stroke-miterlimit:2"><path style="fill:#fefffd" d="M0 506.06h734.124v687.059H0z"/><clipPath id="a"><path d="M0 506.06h734.124v687.059H0z"/></clipPath><g clip-path="url(#a)"><path d="m392.572 506.06 96.227 97.198-146.183 147.658 146.437 147.297-146.657 147.124 146.419 145.883H342.158l-146.419-145.883 146.657-147.124-146.437-147.297 146.183-147.658-100.394-97.198H0v687.058h734.124V506.06H392.572Z" style="fill:#d20018"/></g><path style="fill:#fefffd" d="M2596.91 506.06h734.124v687.059H2596.91z"/><path d="m2938.47 506.06-96.227 97.198 146.183 147.658-146.438 147.297 146.657 147.124-146.418 145.883h146.657l146.418-145.883-146.657-147.124 146.438-147.297L2988.9 603.258l100.393-97.198h241.748v687.058h-734.123V506.06h341.552Z" style="fill:#d20018"/><path d="m953.563 677.824 219.439-171.764v687.058l-219.439-171.764-219.439 171.764V506.06l219.439 171.764Z" style="fill:#9d0a0e"/><clipPath id="b"><path d="m953.563 677.824 219.439-171.764v687.058l-219.439-171.764-219.439 171.764V506.06l219.439 171.764Z"/></clipPath><g clip-path="url(#b)"><path style="fill:#390" d="M925.93 655.785h55.265v387.607H925.93z"/></g><path d="m2377.47 677.824 219.44-171.764v687.058l-219.44-171.764-219.439 171.764V506.06l219.439 171.764Z" style="fill:#9d0a0e"/><clipPath id="c"><path d="m2377.47 677.824 219.44-171.764v687.058l-219.44-171.764-219.439 171.764V506.06l219.439 171.764Z"/></clipPath><g clip-path="url(#c)"><path style="fill:#390" d="M2349.84 655.785h55.265v387.607h-55.265z"/></g><path style="fill:#d20018" d="M1173 506.06h985.033v687.059H1173z"/><path style="fill:#390" d="M1516.72 506.06h297.592v687.059H1516.72z"/><path d="M2073.55 715.899c0-73.786-59.905-133.691-133.691-133.691H1393.86c-73.786 0-133.691 59.905-133.691 133.691v267.38c0 73.786 59.905 133.691 133.691 133.691h545.999c73.786 0 133.691-59.905 133.691-133.691v-267.38Z" style="fill:#fefffd"/><path d="M423.434 160.54c6.575 9.777 22.631 34.55 70.931 64.927 53.117 33.408 195.202 86.456 208.218 92.553 14.432 6.76 68.724 34.18 79.493 42.023 19.219 13.997 35.972 34.721 48.446 54.402 3.454 5.45 62.873 116.964 74.578 152.077 3.807 11.419 8.868 21.202 12.426 32.304l.094.624c2.145 15.066 9.855 80.56 9.855 80.56 1.614 13.703 14.05 23.518 27.753 21.903 13.703-1.614 23.518-14.049 21.903-27.753 0 0-10.474-85.706-11.35-88.567-3.699-12.086-9.145-22.579-13.247-34.883-12.543-37.627-76.079-157.191-79.78-163.031-15.677-24.735-37.089-50.462-61.242-68.053-11.912-8.676-71.755-39.407-87.72-46.885-12.665-5.932-151.122-57.091-202.807-89.598-46.748-29.402-56.9-52.497-60.723-56.774-7.166-8.018-14.676-9.122-19.803-9.122-13.798 0-25 11.202-25 25 0 7.221 3.069 13.732 7.975 18.293Zm15.62 6.669.09.003-.797-.061.707.058Zm-1.432-.118.22.018-.832-.105.612.087Zm-1.458-.209.328.047-.712-.127.384.08Zm-1.483-.31.25.053-.362-.084.112.031Z" style="fill:#390"/><path d="M936.948 630.243c-7.277 5.155-11.556 14.049-10.374 23.51 2.317 18.549 12.549 25.105 16.86 27.089 7.918 3.643 26.791 6.282 36.975-16.511 11.662-26.099 31.662-164.115 6.585-267.87-16.318-67.512-43.508-94.38-56.806-110.812-27.657-34.174-22.6-23.999-46.817-56.742-4.754-6.428-58.748-58.804-94.956-126.821-5.293-9.942-16.203-57.522-16.411-77.349C771.859 10.94 760.54-.144 746.743.001c-13.797.145-24.881 11.464-24.736 25.262.27 25.766 15.394 87.397 22.272 100.319 37.889 71.173 93.918 126.331 98.892 133.057 24.934 33.712 19.675 23.279 48.15 58.465 10.951 13.531 33.634 35.507 47.072 91.104 17.964 74.326 4.267 183.887-1.445 222.035ZM2907.35 1545.05c-6.575-9.777-22.631-34.549-70.931-64.927-53.117-33.408-195.201-86.456-208.218-92.553-14.432-6.76-68.724-34.179-79.493-42.022-19.218-13.997-35.972-34.722-48.446-54.403-3.454-5.45-62.873-116.964-74.578-152.076-3.807-11.419-8.868-21.202-12.426-32.305l-.094-.624c-2.144-15.065-9.855-80.559-9.855-80.559-1.614-13.703-14.05-23.518-27.753-21.904-13.703 1.614-23.517 14.05-21.903 27.753 0 0 10.474 85.707 11.35 88.568 3.699 12.085 9.145 22.578 13.247 34.883 12.543 37.626 76.079 157.191 79.78 163.031 15.677 24.734 37.089 50.461 61.242 68.052 11.912 8.676 71.756 39.407 87.72 46.885 12.666 5.933 151.122 57.092 202.808 89.599 46.747 29.401 56.9 52.496 60.722 56.774 7.166 8.017 14.676 9.122 19.803 9.122 13.798 0 25-11.202 25-25 0-7.222-3.068-13.733-7.975-18.294Zm-11.497-6.084.362.084-.112-.032-.25-.052Zm-1.561-.305.713.127-.385-.08-.328-.047Zm-1.35-.18.832.106-.612-.088-.22-.018Zm-1.302-.102.797.06-.707-.058-.09-.002Z" style="fill:#390"/><path d="M2393.84 1075.35c7.277-5.155 11.556-14.049 10.374-23.51-2.317-18.549-12.549-25.105-16.86-27.088-7.918-3.643-26.791-6.282-36.975 16.51-11.662 26.099-31.662 164.116-6.584 267.87 16.317 67.513 43.507 94.38 56.805 110.812 27.657 34.175 22.6 23.999 46.817 56.743 4.754 6.427 58.748 58.803 94.956 126.82 5.293 9.943 16.203 57.523 16.411 77.349.145 13.797 11.464 24.881 25.261 24.736 13.797-.145 24.881-11.464 24.736-25.261-.27-25.767-15.393-87.398-22.272-100.319-37.889-71.174-93.918-126.332-98.892-133.057-24.934-33.713-19.675-23.279-48.15-58.465-10.951-13.532-33.634-35.507-47.072-91.105-17.964-74.325-4.267-183.886 1.445-222.035Z" style="fill:#390"/><g><path d="M1629.63 940.981c39.946 1.199 71.903-78.694 79.094-95.072 1.198-3.196 1.598-6.392 1.198-9.987-.799-3.196-1.997-5.992-3.595-8.389-.799-1.597-3.595-1.597-4.394.4-31.558 77.097-63.515 106.257-71.105 99.067-7.989-6.791-1.198-60.719 12.384-114.646 14.38-58.322 31.557-106.657 31.557-106.657 3.196-17.577-9.986-27.963-19.573-33.156-4.794-2.397-10.786-.399-13.183 4.794-65.911 98.268-81.491 158.987-85.485 180.558-24.767-23.968-33.156-93.875-35.952-128.228.399-42.743-13.182-56.724-35.552-57.523 0 0-14.781-.4-19.974 15.978-.399 1.598 1.199 3.196 2.797 2.796 7.589-2.396 23.169-2.396 24.367 34.754 1.198 39.547-6.391 74.7-11.585 95.871 0 0-3.195 15.18-10.785 34.354-52.729-13.581-124.234-34.753-140.612 19.574-21.171 68.708 60.719 65.512 60.719 65.512s50.333 3.196 87.882-52.729c35.553 4.394 43.941-14.381 45.939-23.169.399-1.598-1.199-3.196-2.797-2.796-6.79 1.997-16.378 1.198-27.962-1.199 3.995-9.187 7.989-19.973 11.584-31.557 2.397-8.789 4.394-16.378 6.392-23.569 5.992 34.354 19.973 67.11 48.335 67.11 6.391 0 11.185-2.796 15.18-7.19-7.99-16.378 16.378-64.314 40.346-104.66-3.995 15.979-7.59 30.759-10.386 43.542 0 0-32.357 134.22 25.166 136.217Zm32.756-224.898s2.796-17.577-7.59-31.159c0 0 20.772 7.191 7.59 31.159Zm-273.234 212.914c-52.33 1.199-49.134-36.351-43.542-45.539 11.585-20.372 53.129-15.978 110.652 0-14.381 23.569-35.952 44.74-67.11 45.539Z" style="fill-rule:nonzero"/><path d="M1713.11 938.585c23.968 3.595 42.343-18.775 53.528-38.749.4 43.542 31.158 41.145 31.158 41.145 41.944-1.198 73.901-84.287 78.296-96.271.399-1.598.798-3.195.798-4.394 0-4.394-1.597-8.788-3.195-11.984-1.199-1.997-4.394-1.598-5.593.4-26.764 70.306-63.115 103.062-69.107 98.668-7.59-5.593 7.19-74.301 26.364-123.835.799-1.997 1.199-3.994 1.598-5.991 1.199-16.379-8.388-26.765-19.973-29.96-4.394-1.199-8.788 1.198-10.386 5.193-2.397 5.592-4.394 11.185-6.391 16.378-3.596-8.788-10.386-15.18-21.172-15.579-39.947-1.598-69.906 57.922-69.906 57.922-27.563 55.126-21.172 102.263 13.981 107.057Zm105.059-135.818s-1.198-15.979-3.595-21.172c0 0 11.984 6.791 3.595 21.172Zm-89.48 48.734s29.96-64.713 45.14-63.115c11.584.799 5.992 32.356 2.396 46.737-.399 2.397-.799 4.794-1.598 6.791v.4c-.399 1.997-.798 3.595-1.198 5.592-3.196 8.389-30.359 78.295-56.724 79.094 0 0-19.574-6.391 11.984-75.499Z" style="fill-rule:nonzero"/><path d="M1860.52 1034.06c41.145 0 34.354-73.502 17.976-109.853a317 317 0 0 1 2.397-11.984c4.794 22.769 19.174 25.166 19.174 25.166 55.127 17.177 75.499-75.499 75.499-75.499 9.587-35.552 5.593-75.898-20.772-82.689-17.177-4.394-32.756 9.587-45.139 26.365l4.793-14.381c1.997-5.193.799-11.185-3.196-15.18-6.391-7.19-14.38-8.788-19.573-9.187-3.196 0-5.593 1.997-6.791 4.793-4.394 13.582-19.175 58.722-31.558 107.456 0 0-43.941 154.993 7.19 154.993Zm109.853-228.095s-4.394-11.185-10.785-17.976c0 0 10.785 1.598 10.785 17.976Zm-64.314-8.388s0-11.984-1.598-17.976c0 0 8.389 5.992 1.598 17.976Zm-15.179 73.102c6.391-13.982 36.75-81.491 52.729-73.102 0 0 12.783 5.991-2.796 59.52 0 0-16.778 67.11-39.947 61.517-9.986-2.396-10.785-26.364-9.986-47.935Zm-17.177 75.898c7.989 30.759 3.195 75.499-5.992 72.303-5.992-2.397-.4-39.148 5.992-72.303Z" style="fill-rule:nonzero"/></g></svg>