<svg xmlns="http://www.w3.org/2000/svg" viewBox="0 0 3332 1706" xml:space="preserve" style="fill-rule:evenodd;clip-rule:evenodd;stroke-linejoin:round;stroke-miterlimit:2"><path style="fill:#fefffd" d="M0 506.06h734.124v687.059H0z"/><clipPath id="a"><path d="M0 506.06h734.124v687.059H0z"/></clipPath><g clip-path="url(#a)"><path d="m392.572 506.06 96.227 97.198-146.183 147.658 146.437 147.297-146.657 147.124 146.419 145.883H342.158l-146.419-145.883 146.657-147.124-146.437-147.297 146.183-147.658-100.394-97.198H0v687.058h734.124V506.06H392.572Z" style="fill:#d20018"/></g><path style="fill:#fefffd" d="M2596.91 506.06h734.124v687.059H2596.91z"/><path d="m2938.47 506.06-96.227 97.198 146.183 147.658-146.438 147.297 146.657 147.124-146.418 145.883h146.657l146.418-145.883-146.657-147.124 146.438-147.297L2988.9 603.258l100.393-97.198h241.748v687.058h-734.123V506.06h341.552Z" style="fill:#d20018"/><path d="m953.563 677.824 219.439-171.764v687.058l-219.439-171.764-219.439 171.764V506.06l219.439 171.764Z" style="fill:#9d0a0e"/><clipPath id="b"><path d="m953.563 677.824 219.439-171.764v687.058l-219.439-171.764-219.439 171.764V506.06l219.439 171.764Z"/></clipPath><g clip-path="url(#b)"><path style="fill:#390" d="M925.93 655.785h55.265v387.607H925.93z"/></g><path d="m2377.47 677.824 219.44-171.764v687.058l-219.44-171.764-219.439 171.764V506.06l219.439 171.764Z" style="fill:#9d0a0e"/><clipPath id="c"><path d="m2377.47 677.824 219.44-171.764v687.058l-219.44-171.764-219.439 171.764V506.06l219.439 171.764Z"/></clipPath><g clip-path="url(#c)"><path style="fill:#390" d="M2349.84 655.785h55.265v387.607h-55.265z"/></g><path style="fill:#d20018" d="M1173 506.06h985.033v687.059H1173z"/><path style="fill:#390" d="M1516.72 506.06h297.592v687.059H1516.72z"/><path d="M2073.55 715.899c0-73.786-59.905-133.691-133.691-133.691H1393.86c-73.786 0-133.691 59.905-133.691 133.691v267.38c0 73.786 59.905 133.691 133.691 133.691h545.999c73.786 0 133.691-59.905 133.691-133.691v-267.38Z" style="fill:#fefffd"/><path d="M423.434 160.54c6.575 9.777 22.631 34.55 70.931 64.927 53.117 33.408 195.202 86.456 208.218 92.553 14.432 6.76 68.724 34.18 79.493 42.023 19.219 13.997 35.972 34.721 48.446 54.402 3.454 5.45 62.873 116.964 74.578 152.077 3.807 11.419 8.868 21.202 12.426 32.304l.094.624c2.145 15.066 9.855 80.56 9.855 80.56 1.614 13.703 14.05 23.518 27.753 21.903 13.703-1.614 23.518-14.049 21.903-27.753 0 0-10.474-85.706-11.35-88.567-3.699-12.086-9.145-22.579-13.247-34.883-12.543-37.627-76.079-157.191-79.78-163.031-15.677-24.735-37.089-50.462-61.242-68.053-11.912-8.676-71.755-39.407-87.72-46.885-12.665-5.932-151.122-57.091-202.807-89.598-46.748-29.402-56.9-52.497-60.723-56.774-7.166-8.018-14.676-9.122-19.803-9.122-13.798 0-25 11.202-25 25 0 7.221 3.069 13.732 7.975 18.293Zm15.62 6.669.09.003-.797-.061.707.058Zm-1.432-.118.22.018-.832-.105.612.087Zm-1.458-.209.328.047-.712-.127.384.08Zm-1.483-.31.25.053-.362-.084.112.031Z" style="fill:#390"/><path d="M936.948 630.243c-7.277 5.155-11.556 14.049-10.374 23.51 2.317 18.549 12.549 25.105 16.86 27.089 7.918 3.643 26.791 6.282 36.975-16.511 11.662-26.099 31.662-164.115 6.585-267.87-16.318-67.512-43.508-94.38-56.806-110.812-27.657-34.174-22.6-23.999-46.817-56.742-4.754-6.428-58.748-58.804-94.956-126.821-5.293-9.942-16.203-57.522-16.411-77.349C771.859 10.94 760.54-.144 746.743.001c-13.797.145-24.881 11.464-24.736 25.262.27 25.766 15.394 87.397 22.272 100.319 37.889 71.173 93.918 126.331 98.892 133.057 24.934 33.712 19.675 23.279 48.15 58.465 10.951 13.531 33.634 35.507 47.072 91.104 17.964 74.326 4.267 183.887-1.445 222.035ZM2907.35 1545.05c-6.575-9.777-22.631-34.549-70.931-64.927-53.117-33.408-195.201-86.456-208.218-92.553-14.432-6.76-68.724-34.179-79.493-42.022-19.218-13.997-35.972-34.722-48.446-54.403-3.454-5.45-62.873-116.964-74.578-152.076-3.807-11.419-8.868-21.202-12.426-32.305l-.094-.624c-2.144-15.065-9.855-80.559-9.855-80.559-1.614-13.703-14.05-23.518-27.753-21.904-13.703 1.614-23.517 14.05-21.903 27.753 0 0 10.474 85.707 11.35 88.568 3.699 12.085 9.145 22.578 13.247 34.883 12.543 37.626 76.079 157.191 79.78 163.031 15.677 24.734 37.089 50.461 61.242 68.052 11.912 8.676 71.756 39.407 87.72 46.885 12.666 5.933 151.122 57.092 202.808 89.599 46.747 29.401 56.9 52.496 60.722 56.774 7.166 8.017 14.676 9.122 19.803 9.122 13.798 0 25-11.202 25-25 0-7.222-3.068-13.733-7.975-18.294Zm-11.497-6.084.362.084-.112-.032-.25-.052Zm-1.561-.305.713.127-.385-.08-.328-.047Zm-1.35-.18.832.106-.612-.088-.22-.018Zm-1.302-.102.797.06-.707-.058-.09-.002Z" style="fill:#390"/><path d="M2393.84 1075.35c7.277-5.155 11.556-14.049 10.374-23.51-2.317-18.549-12.549-25.105-16.86-27.088-7.918-3.643-26.791-6.282-36.975 16.51-11.662 26.099-31.662 164.116-6.584 267.87 16.317 67.513 43.507 94.38 56.805 110.812 27.657 34.175 22.6 23.999 46.817 56.743 4.754 6.427 58.748 58.803 94.956 126.82 5.293 9.943 16.203 57.523 16.411 77.349.145 13.797 11.464 24.881 25.261 24.736 13.797-.145 24.881-11.464 24.736-25.261-.27-25.767-15.393-87.398-22.272-100.319-37.889-71.174-93.918-126.332-98.892-133.057-24.934-33.713-19.675-23.279-48.15-58.465-10.951-13.532-33.634-35.507-47.072-91.105-17.964-74.325-4.267-183.886 1.445-222.035Z" style="fill:#390"/><g><path d="M1646.23 688.632c0-2.014-2.82-2.82-4.029-1.208-43.92 42.711-184.949 13.297-236.525 2.82 0 0-107.182-28.205-127.732 79.379-12.894 66.082 31.429 90.259 56.009 91.467 23.773 1.209 29.414-11.685 29.414-20.952 0-4.433-1.612-8.059-2.82-10.88-.806-1.209-3.224-1.209-3.627.403-3.626 10.074-10.476 12.491-10.476 12.491-4.836 2.015-12.894 2.821-18.938 1.209-51.174-15.312-37.474-72.529-37.474-72.529 19.744-87.841 119.673-56.814 119.673-56.814 12.491 4.029 24.176 7.253 35.459 10.476-9.671.403-20.953 3.627-24.982 18.132 0 0-7.656 29.818-16.118 63.665-16.118 2.82-21.759 2.014-27.4-.403-5.641-2.418-9.267-6.85-11.685-10.074-.806-1.209-2.821-1.209-3.627.403-3.223 4.836-8.864 15.312-4.432 22.162 6.044 9.67 17.729 12.088 42.712 5.238-2.821 11.282-5.239 22.565-8.059 33.041-18.535 78.17-30.221 89.856-43.115 89.05-2.417-.403-3.626 2.82-2.014 4.432 10.879 10.476 28.205 10.476 39.488.806 22.967-20.147 39.085-81.394 39.085-81.394 5.238-18.938 10.073-37.473 14.909-56.008 22.564-1.612 31.832 6.85 35.055 11.685 1.209 1.209 2.821 1.209 4.03 0 4.835-6.447 14.908-22.968-3.627-28.609-8.059-2.417-18.132-.806-31.429 2.015 5.641-22.968 10.879-45.935 15.312-70.514 67.693 17.326 104.764 19.744 104.764 19.744 82.602 6.85 84.214-42.309 82.199-59.233Zm-8.058 12.895s1.611 20.952-14.506 24.176c0 0 10.879-11.282 14.506-24.176Z" style="fill-rule:nonzero"/><path d="M1520.11 957.796c31.833-1.209 49.562-26.191 59.232-51.979 29.012-12.088 49.562-36.265 56.815-47.144 3.223-4.835 3.626-10.88 1.612-15.312-.806-1.612-3.224-1.612-4.433-.403-15.714 20.953-32.638 35.862-48.352 45.129 4.835-20.55 5.641-37.876 5.641-37.876s4.835-65.276-39.488-65.276c0 0-34.653-1.209-52.382 44.726-11.283 10.88-23.774 29.012-29.012 57.62 0 0-12.894 72.53 50.367 70.515Zm59.232-145.461s-8.461-10.88-14.102-15.715c0 0 12.894 2.015 14.102 15.715Zm-54.799 46.741c6.447-45.129 26.594-54.8 26.594-54.8 24.176-1.209 21.758 50.77 21.758 50.77-1.208 16.521-3.626 30.221-7.252 41.1-9.268 2.821-17.327 3.224-24.177 1.209-20.55-5.641-16.923-38.279-16.923-38.279Zm-19.744 40.294c6.85 6.85 16.923 11.685 32.235 13.297 7.656.806 15.312.403 22.564-.806-15.311 33.041-38.682 35.055-38.682 35.055-18.132 1.209-18.132-28.205-16.117-47.546Z" style="fill-rule:nonzero"/><path d="M1664.36 957.796c31.832-1.209 49.561-26.191 59.232-51.979 29.011-12.088 49.561-36.265 56.814-47.144 3.224-4.835 3.627-10.88 1.612-15.312-.806-1.612-3.224-1.612-4.432-.403-15.715 20.953-32.639 35.862-48.353 45.129 4.835-20.55 5.641-37.876 5.641-37.876s4.835-65.276-39.488-65.276c0 0-34.653-1.209-52.382 44.726-11.282 10.88-23.774 29.012-29.012 57.62 0 0-12.894 72.53 50.368 70.515Zm59.232-145.461s-8.462-10.88-14.103-15.715c0 0 12.894 2.015 14.103 15.715Zm-54.8 46.741c6.447-45.129 26.594-54.8 26.594-54.8 24.176-1.209 21.759 50.77 21.759 50.77-1.209 16.521-3.627 30.221-7.253 41.1-9.268 2.821-17.327 3.224-24.177 1.209-20.549-5.641-16.923-38.279-16.923-38.279Zm-19.744 40.294c6.85 6.85 16.923 11.685 32.235 13.297 7.656.806 15.312.403 22.565-.806-15.312 33.041-38.682 35.055-38.682 35.055-18.133 1.209-18.133-28.205-16.118-47.546Z" style="fill-rule:nonzero"/><path d="M1788.46 955.378c24.176 3.627 42.711-18.938 53.994-39.085.403 43.92 31.429 41.503 31.429 41.503 42.309-1.209 78.976-79.782 85.826-95.9 1.612-3.223 2.015-6.447 1.209-10.073-.806-3.224-2.015-6.044-3.224-8.059-1.209-2.015-4.029-2.015-4.835 0-29.012 70.514-68.097 101.541-77.767 100.332-7.253-.806 2.82-52.785 14.909-94.691 40.293-26.997 56.008-72.126 56.008-72.126 28.609-78.573-15.312-78.976-15.312-78.976-26.997-1.209-52.382 65.276-64.873 105.167-4.029-8.462-10.476-14.103-20.953-14.506-40.294-1.611-70.514 58.427-70.514 58.427-27.803 55.605-21.356 103.152 14.103 107.987Zm152.311-245.39s-10.074 6.85-13.7 16.924c0 0-2.015-17.73 13.7-16.924Zm-1.209 11.686s4.835 21.758-6.447 51.979c-6.044 16.52-17.729 37.876-37.07 56.008 9.67-31.429 32.235-101.138 43.517-107.987Zm-135.387 145.863s30.22-65.276 45.532-63.664c11.685.806 6.044 32.235 2.82 47.144-.806 2.418-1.209 4.835-2.014 6.85v.403c-.403 2.015-.806 3.626-1.209 5.641-3.224 8.462-30.624 78.976-57.218 79.782 0 0-19.744-6.447 12.089-76.156Z" style="fill-rule:nonzero"/><path d="M1926.27 954.975c-.403 21.356 26.191 41.1 54.397 21.356 24.579-16.52 19.341-66.888 13.7-97.914 17.729-11.685 36.667-18.535 43.92-21.356 4.432-1.612 7.656-5.238 8.865-9.67 0-.806 0-2.015.403-3.224 0-1.612-1.612-3.224-3.627-2.418-20.953 6.447-38.279 14.103-52.785 22.565-.403-2.418-.806-4.029-.806-5.641-2.014-7.656-3.223-14.506-4.029-20.147 20.953-12.894 33.041-31.429 28.206-44.726-6.044-16.521-29.415-8.865-29.415-8.865s-33.847 8.865-37.876 39.085c0 0-3.627 30.22 11.282 64.873-33.444 33.041-32.235 66.082-32.235 66.082Zm82.2-148.281s-1.612-10.074-5.642-14.909c0 0 10.477 2.015 5.642 14.909Zm-17.73-7.656s6.85-1.209 7.253 6.447c0 4.835-.806 8.059-13.297 19.744-1.612-25.788 6.044-26.191 6.044-26.191Zm-27.4 105.973c3.627 17.729 6.045 45.935-14.908 60.844 0 0-18.938-20.147 14.908-60.844Z" style="fill-rule:nonzero"/></g></svg>