<svg xmlns="http://www.w3.org/2000/svg" viewBox="0 0 3332 1706" xml:space="preserve" style="fill-rule:evenodd;clip-rule:evenodd;stroke-linejoin:round;stroke-miterlimit:2"><path style="fill:#fefffd" d="M0 506.06h734.124v687.059H0z"/><clipPath id="a"><path d="M0 506.06h734.124v687.059H0z"/></clipPath><g clip-path="url(#a)"><path d="m392.572 506.06 96.227 97.198-146.183 147.658 146.437 147.297-146.657 147.124 146.419 145.883H342.158l-146.419-145.883 146.657-147.124-146.437-147.297 146.183-147.658-100.394-97.198H0v687.058h734.124V506.06H392.572Z" style="fill:#d20018"/></g><path style="fill:#fefffd" d="M2596.91 506.06h734.124v687.059H2596.91z"/><path d="m2938.47 506.06-96.227 97.198 146.183 147.658-146.438 147.297 146.657 147.124-146.418 145.883h146.657l146.418-145.883-146.657-147.124 146.438-147.297L2988.9 603.258l100.393-97.198h241.748v687.058h-734.123V506.06h341.552Z" style="fill:#d20018"/><path d="m953.563 677.824 219.439-171.764v687.058l-219.439-171.764-219.439 171.764V506.06l219.439 171.764Z" style="fill:#9d0a0e"/><clipPath id="b"><path d="m953.563 677.824 219.439-171.764v687.058l-219.439-171.764-219.439 171.764V506.06l219.439 171.764Z"/></clipPath><g clip-path="url(#b)"><path style="fill:#390" d="M925.93 655.785h55.265v387.607H925.93z"/></g><path d="m2377.47 677.824 219.44-171.764v687.058l-219.44-171.764-219.439 171.764V506.06l219.439 171.764Z" style="fill:#9d0a0e"/><clipPath id="c"><path d="m2377.47 677.824 219.44-171.764v687.058l-219.44-171.764-219.439 171.764V506.06l219.439 171.764Z"/></clipPath><g clip-path="url(#c)"><path style="fill:#390" d="M2349.84 655.785h55.265v387.607h-55.265z"/></g><path style="fill:#d20018" d="M1173 506.06h985.033v687.059H1173z"/><path style="fill:#390" d="M1516.72 506.06h297.592v687.059H1516.72z"/><path d="M2073.55 715.899c0-73.786-59.905-133.691-133.691-133.691H1393.86c-73.786 0-133.691 59.905-133.691 133.691v267.38c0 73.786 59.905 133.691 133.691 133.691h545.999c73.786 0 133.691-59.905 133.691-133.691v-267.38Z" style="fill:#fefffd"/><path d="M423.434 160.54c6.575 9.777 22.631 34.55 70.931 64.927 53.117 33.408 195.202 86.456 208.218 92.553 14.432 6.76 68.724 34.18 79.493 42.023 19.219 13.997 35.972 34.721 48.446 54.402 3.454 5.45 62.873 116.964 74.578 152.077 3.807 11.419 8.868 21.202 12.426 32.304l.094.624c2.145 15.066 9.855 80.56 9.855 80.56 1.614 13.703 14.05 23.518 27.753 21.903 13.703-1.614 23.518-14.049 21.903-27.753 0 0-10.474-85.706-11.35-88.567-3.699-12.086-9.145-22.579-13.247-34.883-12.543-37.627-76.079-157.191-79.78-163.031-15.677-24.735-37.089-50.462-61.242-68.053-11.912-8.676-71.755-39.407-87.72-46.885-12.665-5.932-151.122-57.091-202.807-89.598-46.748-29.402-56.9-52.497-60.723-56.774-7.166-8.018-14.676-9.122-19.803-9.122-13.798 0-25 11.202-25 25 0 7.221 3.069 13.732 7.975 18.293Zm15.62 6.669.09.003-.797-.061.707.058Zm-1.432-.118.22.018-.832-.105.612.087Zm-1.458-.209.328.047-.712-.127.384.08Zm-1.483-.31.25.053-.362-.084.112.031Z" style="fill:#390"/><path d="M936.948 630.243c-7.277 5.155-11.556 14.049-10.374 23.51 2.317 18.549 12.549 25.105 16.86 27.089 7.918 3.643 26.791 6.282 36.975-16.511 11.662-26.099 31.662-164.115 6.585-267.87-16.318-67.512-43.508-94.38-56.806-110.812-27.657-34.174-22.6-23.999-46.817-56.742-4.754-6.428-58.748-58.804-94.956-126.821-5.293-9.942-16.203-57.522-16.411-77.349C771.859 10.94 760.54-.144 746.743.001c-13.797.145-24.881 11.464-24.736 25.262.27 25.766 15.394 87.397 22.272 100.319 37.889 71.173 93.918 126.331 98.892 133.057 24.934 33.712 19.675 23.279 48.15 58.465 10.951 13.531 33.634 35.507 47.072 91.104 17.964 74.326 4.267 183.887-1.445 222.035ZM2907.35 1545.05c-6.575-9.777-22.631-34.549-70.931-64.927-53.117-33.408-195.201-86.456-208.218-92.553-14.432-6.76-68.724-34.179-79.493-42.022-19.218-13.997-35.972-34.722-48.446-54.403-3.454-5.45-62.873-116.964-74.578-152.076-3.807-11.419-8.868-21.202-12.426-32.305l-.094-.624c-2.144-15.065-9.855-80.559-9.855-80.559-1.614-13.703-14.05-23.518-27.753-21.904-13.703 1.614-23.517 14.05-21.903 27.753 0 0 10.474 85.707 11.35 88.568 3.699 12.085 9.145 22.578 13.247 34.883 12.543 37.626 76.079 157.191 79.78 163.031 15.677 24.734 37.089 50.461 61.242 68.052 11.912 8.676 71.756 39.407 87.72 46.885 12.666 5.933 151.122 57.092 202.808 89.599 46.747 29.401 56.9 52.496 60.722 56.774 7.166 8.017 14.676 9.122 19.803 9.122 13.798 0 25-11.202 25-25 0-7.222-3.068-13.733-7.975-18.294Zm-11.497-6.084.362.084-.112-.032-.25-.052Zm-1.561-.305.713.127-.385-.08-.328-.047Zm-1.35-.18.832.106-.612-.088-.22-.018Zm-1.302-.102.797.06-.707-.058-.09-.002Z" style="fill:#390"/><path d="M2393.84 1075.35c7.277-5.155 11.556-14.049 10.374-23.51-2.317-18.549-12.549-25.105-16.86-27.088-7.918-3.643-26.791-6.282-36.975 16.51-11.662 26.099-31.662 164.116-6.584 267.87 16.317 67.513 43.507 94.38 56.805 110.812 27.657 34.175 22.6 23.999 46.817 56.743 4.754 6.427 58.748 58.803 94.956 126.82 5.293 9.943 16.203 57.523 16.411 77.349.145 13.797 11.464 24.881 25.261 24.736 13.797-.145 24.881-11.464 24.736-25.261-.27-25.767-15.393-87.398-22.272-100.319-37.889-71.174-93.918-126.332-98.892-133.057-24.934-33.713-19.675-23.279-48.15-58.465-10.951-13.532-33.634-35.507-47.072-91.105-17.964-74.325-4.267-183.886 1.445-222.035Z" style="fill:#390"/><g><path d="M1347.45 789.945c.808 1.616 3.232 1.616 4.444-.404 5.253-10.506 21.415-41.214 44.042-59.396-16.162 34.344-28.284 77.982-34.748 107.882 0 0-6.869 28.688-6.465 56.568-23.435 5.253-25.052 33.536-25.052 33.536-4.848 45.254 35.153 46.871 35.153 46.871 20.203 1.616 43.638-7.273 65.861-25.456 8.485 10.101 18.586 25.86 35.153 25.86 18.586 0 21.414-19.799 21.818-27.88.405-1.212-1.212-2.02-2.424-1.212-5.657 4.04-10.505 3.636-10.505 3.636-8.485 0-18.587-5.657-29.9-12.93 27.071-27.879 50.911-69.901 61.82-123.236 22.627-106.67-73.942-110.307-73.942-110.307-47.678-1.212-73.538 26.264-86.063 46.871-1.212 1.616-2.021 3.636-2.425 5.656-1.616 6.061-3.636 20.607 3.233 33.941Zm17.778 173.339c-28.284.404-23.435-33.537-23.435-33.537 1.616-14.141 7.677-20.202 13.334-22.627 2.02 21.011 9.697 39.194 29.496 41.618 1.616 0 2.424-1.212 2.02-2.424-1.616-5.657-1.616-17.779-.404-32.729 10.505 6.465 21.415 14.95 29.496 21.819-13.738 16.566-30.304 27.88-50.507 27.88Zm128.085-213.745s-8.889-14.545-21.011-25.455c0 0 17.375 3.637 21.011 25.455Zm-60.204-33.536s55.356 4.849 33.133 105.054c0 0-12.93 60.204-41.214 102.226-12.121-8.486-24.647-16.971-37.173-22.627 2.425-18.183 6.465-38.385 11.314-56.972 12.929-48.082 26.667-85.659 26.667-85.659 6.465-22.627-19.394-29.092-27.071-30.708 10.505-7.677 21.819-12.526 34.344-11.314ZM1532.11 972.981c24.244 3.637 42.83-18.99 54.144-39.193.404 44.042 31.516 41.618 31.516 41.618 42.425-1.213 74.75-85.256 79.194-97.377.404-1.617.808-3.233.808-4.445 0-4.445-1.616-8.889-3.232-12.122-1.212-2.02-4.445-1.616-5.657.404-27.071 71.114-63.84 104.246-69.901 99.802-7.677-5.657 7.273-75.154 26.668-125.257.808-2.02 1.212-4.04 1.616-6.061 1.212-16.566-8.485-27.071-20.203-30.304-4.445-1.212-8.889 1.212-10.505 5.253-2.425 5.657-4.445 11.313-6.465 16.566-3.637-8.889-10.506-15.354-21.415-15.758-40.405-1.616-70.709 58.588-70.709 58.588-27.88 55.759-21.415 103.438 14.141 108.286Zm106.267-137.378s-1.213-16.162-3.637-21.415c0 0 12.122 6.869 3.637 21.415Zm-90.509 49.295s30.305-65.457 45.659-63.841c11.717.808 6.06 32.728 2.424 47.274-.404 2.425-.808 4.849-1.616 6.869v.404c-.404 2.021-.808 3.637-1.212 5.657-3.233 8.485-30.709 79.195-57.376 80.003 0 0-19.799-6.465 12.121-76.366Z" style="fill-rule:nonzero"/><path d="M1707.47 779.439c-24.243 91.721-27.88 142.227-27.88 142.227-4.445 55.76 31.112 53.74 31.112 53.74 40.406.808 72.73-80.003 80.003-96.165 1.212-3.233 1.616-6.869.808-10.102-.404-3.232-2.02-6.06-3.232-8.485-1.213-1.616-4.041-1.616-4.849.404-31.516 77.983-63.841 107.479-71.922 100.206-12.121-10.91 19.799-127.681 36.769-186.673 28.284 0 35.557 9.697 37.173 14.95.808 1.616 2.424 2.02 3.637.808 5.656-6.061 16.97-20.607-1.213-29.496-6.868-3.636-21.01-3.232-35.152-2.424 2.02-6.869 3.636-12.122 4.444-14.95.808-1.617.808-3.637.404-5.657-2.424-15.354-21.01-19.395-28.687-20.203-2.021 0-3.637.808-4.041 2.829-4.849 14.95-8.889 29.091-12.93 42.425-23.435 2.425-37.173.808-46.062-2.828-5.657-2.424-8.889-7.273-10.505-10.91-.404-1.616-2.829-1.616-3.637-.404-3.636 5.253-9.293 14.95-5.656 22.627 4.848 10.91 14.546 15.758 61.416 8.081Zm42.829-31.92s-.808-10.101-3.232-15.354c0 0 8.889 4.445 3.232 15.354Z" style="fill-rule:nonzero"/><path d="M1810.09 975.002c63.033 6.06 101.822-88.488 105.054-96.569 0-.404.404-.808.404-1.213 1.617-6.464 0-12.929-2.02-16.566-.404-1.616-2.828-1.616-3.636 0-8.485 19.395-47.275 101.822-94.953 98.993-21.011-2.424-19.395-27.879-14.546-48.486 16.566-1.212 53.335-8.889 67.477-51.719 18.991-58.588-17.778-58.992-17.778-58.992-44.85-.404-71.114 62.629-71.114 62.629s-50.506 103.437 31.112 111.923Zm29.092-163.238c2.021-1.616 6.061-2.425 8.889-1.212 0 0-9.697 4.444-13.737 12.929 0 0 0-7.677 4.848-11.717Zm-29.092 70.709s27.072-67.881 42.426-67.073c0 0 10.505 4.445-3.232 43.638-10.91 29.496-33.537 37.173-44.85 39.193 2.828-9.293 5.656-15.758 5.656-15.758Z" style="fill-rule:nonzero"/><path d="M1882.82 972.577c-.404 21.415 26.264 41.214 54.547 21.415 24.648-16.566 19.395-67.073 13.738-98.185 17.779-11.718 36.769-18.587 44.042-21.415 4.445-1.616 7.677-5.253 8.889-9.697 0-.808 0-2.02.404-3.233 0-1.616-1.616-3.232-3.636-2.424-21.011 6.465-38.385 14.142-52.931 22.627-.404-2.424-.808-4.04-.808-5.657-2.021-7.677-3.233-14.546-4.041-20.202 21.011-12.93 33.133-31.517 28.284-44.85-6.061-16.567-29.496-8.89-29.496-8.89s-33.941 8.89-37.981 39.194c0 0-3.637 30.304 11.313 65.052-33.536 33.133-32.324 66.265-32.324 66.265Zm82.427-148.692s-1.616-10.101-5.657-14.95c0 0 10.506 2.021 5.657 14.95Zm-17.778-7.677s6.869-1.212 7.273 6.465c0 4.849-.808 8.081-13.334 19.799-1.616-25.86 6.061-26.264 6.061-26.264Zm-27.476 106.267c3.637 17.778 6.061 46.062-14.95 61.012 0 0-18.99-20.203 14.95-61.012Z" style="fill-rule:nonzero"/></g></svg>