<svg xmlns="http://www.w3.org/2000/svg" viewBox="0 0 3332 1706" xml:space="preserve" style="fill-rule:evenodd;clip-rule:evenodd;stroke-linejoin:round;stroke-miterlimit:2"><path style="fill:#fefffd" d="M0 506.06h734.124v687.059H0z"/><clipPath id="a"><path d="M0 506.06h734.124v687.059H0z"/></clipPath><g clip-path="url(#a)"><path d="m392.572 506.06 96.227 97.198-146.183 147.658 146.437 147.297-146.657 147.124 146.419 145.883H342.158l-146.419-145.883 146.657-147.124-146.437-147.297 146.183-147.658-100.394-97.198H0v687.058h734.124V506.06H392.572Z" style="fill:#d20018"/></g><path style="fill:#fefffd" d="M2596.91 506.06h734.124v687.059H2596.91z"/><path d="m2938.47 506.06-96.227 97.198 146.183 147.658-146.438 147.297 146.657 147.124-146.418 145.883h146.657l146.418-145.883-146.657-147.124 146.438-147.297L2988.9 603.258l100.393-97.198h241.748v687.058h-734.123V506.06h341.552Z" style="fill:#d20018"/><path d="m953.563 677.824 219.439-171.764v687.058l-219.439-171.764-219.439 171.764V506.06l219.439 171.764Z" style="fill:#9d0a0e"/><clipPath id="b"><path d="m953.563 677.824 219.439-171.764v687.058l-219.439-171.764-219.439 171.764V506.06l219.439 171.764Z"/></clipPath><g clip-path="url(#b)"><path style="fill:#390" d="M925.93 655.785h55.265v387.607H925.93z"/></g><path d="m2377.47 677.824 219.44-171.764v687.058l-219.44-171.764-219.439 171.764V506.06l219.439 171.764Z" style="fill:#9d0a0e"/><clipPath id="c"><path d="m2377.47 677.824 219.44-171.764v687.058l-219.44-171.764-219.439 171.764V506.06l219.439 171.764Z"/></clipPath><g clip-path="url(#c)"><path style="fill:#390" d="M2349.84 655.785h55.265v387.607h-55.265z"/></g><path style="fill:#d20018" d="M1173 506.06h985.033v687.059H1173z"/><path style="fill:#390" d="M1516.72 506.06h297.592v687.059H1516.72z"/><path d="M2073.55 715.899c0-73.786-59.905-133.691-133.691-133.691H1393.86c-73.786 0-133.691 59.905-133.691 133.691v267.38c0 73.786 59.905 133.691 133.691 133.691h545.999c73.786 0 133.691-59.905 133.691-133.691v-267.38Z" style="fill:#fefffd"/><path d="M423.434 160.54c6.575 9.777 22.631 34.55 70.931 64.927 53.117 33.408 195.202 86.456 208.218 92.553 14.432 6.76 68.724 34.18 79.493 42.023 19.219 13.997 35.972 34.721 48.446 54.402 3.454 5.45 62.873 116.964 74.578 152.077 3.807 11.419 8.868 21.202 12.426 32.304l.094.624c2.145 15.066 9.855 80.56 9.855 80.56 1.614 13.703 14.05 23.518 27.753 21.903 13.703-1.614 23.518-14.049 21.903-27.753 0 0-10.474-85.706-11.35-88.567-3.699-12.086-9.145-22.579-13.247-34.883-12.543-37.627-76.079-157.191-79.78-163.031-15.677-24.735-37.089-50.462-61.242-68.053-11.912-8.676-71.755-39.407-87.72-46.885-12.665-5.932-151.122-57.091-202.807-89.598-46.748-29.402-56.9-52.497-60.723-56.774-7.166-8.018-14.676-9.122-19.803-9.122-13.798 0-25 11.202-25 25 0 7.221 3.069 13.732 7.975 18.293Zm15.62 6.669.09.003-.797-.061.707.058Zm-1.432-.118.22.018-.832-.105.612.087Zm-1.458-.209.328.047-.712-.127.384.08Zm-1.483-.31.25.053-.362-.084.112.031Z" style="fill:#390"/><path d="M936.948 630.243c-7.277 5.155-11.556 14.049-10.374 23.51 2.317 18.549 12.549 25.105 16.86 27.089 7.918 3.643 26.791 6.282 36.975-16.511 11.662-26.099 31.662-164.115 6.585-267.87-16.318-67.512-43.508-94.38-56.806-110.812-27.657-34.174-22.6-23.999-46.817-56.742-4.754-6.428-58.748-58.804-94.956-126.821-5.293-9.942-16.203-57.522-16.411-77.349C771.859 10.94 760.54-.144 746.743.001c-13.797.145-24.881 11.464-24.736 25.262.27 25.766 15.394 87.397 22.272 100.319 37.889 71.173 93.918 126.331 98.892 133.057 24.934 33.712 19.675 23.279 48.15 58.465 10.951 13.531 33.634 35.507 47.072 91.104 17.964 74.326 4.267 183.887-1.445 222.035ZM2907.35 1545.05c-6.575-9.777-22.631-34.549-70.931-64.927-53.117-33.408-195.201-86.456-208.218-92.553-14.432-6.76-68.724-34.179-79.493-42.022-19.218-13.997-35.972-34.722-48.446-54.403-3.454-5.45-62.873-116.964-74.578-152.076-3.807-11.419-8.868-21.202-12.426-32.305l-.094-.624c-2.144-15.065-9.855-80.559-9.855-80.559-1.614-13.703-14.05-23.518-27.753-21.904-13.703 1.614-23.517 14.05-21.903 27.753 0 0 10.474 85.707 11.35 88.568 3.699 12.085 9.145 22.578 13.247 34.883 12.543 37.626 76.079 157.191 79.78 163.031 15.677 24.734 37.089 50.461 61.242 68.052 11.912 8.676 71.756 39.407 87.72 46.885 12.666 5.933 151.122 57.092 202.808 89.599 46.747 29.401 56.9 52.496 60.722 56.774 7.166 8.017 14.676 9.122 19.803 9.122 13.798 0 25-11.202 25-25 0-7.222-3.068-13.733-7.975-18.294Zm-11.497-6.084.362.084-.112-.032-.25-.052Zm-1.561-.305.713.127-.385-.08-.328-.047Zm-1.35-.18.832.106-.612-.088-.22-.018Zm-1.302-.102.797.06-.707-.058-.09-.002Z" style="fill:#390"/><path d="M2393.84 1075.35c7.277-5.155 11.556-14.049 10.374-23.51-2.317-18.549-12.549-25.105-16.86-27.088-7.918-3.643-26.791-6.282-36.975 16.51-11.662 26.099-31.662 164.116-6.584 267.87 16.317 67.513 43.507 94.38 56.805 110.812 27.657 34.175 22.6 23.999 46.817 56.743 4.754 6.427 58.748 58.803 94.956 126.82 5.293 9.943 16.203 57.523 16.411 77.349.145 13.797 11.464 24.881 25.261 24.736 13.797-.145 24.881-11.464 24.736-25.261-.27-25.767-15.393-87.398-22.272-100.319-37.889-71.174-93.918-126.332-98.892-133.057-24.934-33.713-19.675-23.279-48.15-58.465-10.951-13.532-33.634-35.507-47.072-91.105-17.964-74.325-4.267-183.886 1.445-222.035Z" style="fill:#390"/><g><path d="M1466.04 879.256c-33.294 6.659-67.005 20.393-85.733 47.861-17.063 24.554-12.069 46.195-2.497 54.935 10.405 9.989 24.971 9.989 24.971 9.989 1.248 0 59.097 6.242 98.634-104.045 15.399-1.665 45.78-2.497 73.664-2.497 1.249 0 2.497-1.249 2.497-2.497-1.248-5.411-5.41-10.405-11.653-10.405-18.728 0-39.953 0-59.93 1.249 11.237-34.127 14.566-51.19 16.647-70.751 0 0 3.33-19.56-7.907-32.878 13.318 3.329 21.225 3.746 21.225 3.746 78.242 6.659 82.404-39.954 81.155-58.265 0-2.914-3.746-4.162-5.41-2.081-38.705 40.369-117.363 19.56-161.062 5.826 0 0-82.403-28.3-110.703 27.468-4.162 8.324-7.908 19.977-8.324 30.797 0 0-6.243 47.861 44.531 52.023 24.555 1.664 30.798-11.653 31.214-21.225 0-3.746-1.249-7.076-2.497-9.989-.833-1.664-3.746-1.664-4.578.416-3.746 9.156-10.821 11.653-10.821 11.653-6.659 2.497-16.231 2.497-22.474.833-10.82-3.33-23.306-9.989-22.889-32.462 0 0 2.913-54.52 62.843-48.277 22.473 2.497 45.363 15.399 45.363 15.399a304.705 304.705 0 0 0 32.462 14.982c0 49.525-11.653 94.057-15.399 106.958 0 0-.832 4.162-3.329 11.237Zm-38.705 78.658s-5.41 7.907-16.231 14.982c-7.907 4.994-19.144 7.075-25.387-.416 0 0-11.653-11.653 11.237-37.04 12.486-13.734 29.965-30.797 63.676-40.369-7.075 17.895-17.896 41.618-33.295 62.843Zm183.119-233.893s2.913 21.225-13.318 25.803c0 0 9.989-12.485 13.318-25.803Z" style="fill-rule:nonzero"/><path d="M1583.82 992.457c32.878-1.249 51.19-27.052 61.178-53.687 29.965-12.486 51.19-37.457 58.681-48.693 3.33-4.995 3.746-11.237 1.665-15.815-.832-1.665-3.329-1.665-4.578-.416-16.231 21.641-33.71 37.04-49.941 46.612 4.994-21.225 5.826-39.121 5.826-39.121s4.994-67.421-40.785-67.421c0 0-35.792-1.249-54.104 46.196-11.653 11.237-24.554 29.965-29.965 59.513 0 0-13.317 74.913 52.023 72.832Zm61.178-150.241s-8.74-11.237-14.566-16.231c0 0 13.318 2.081 14.566 16.231Zm-56.6 48.277c6.659-46.612 27.468-56.601 27.468-56.601 24.97-1.248 22.473 52.439 22.473 52.439-1.248 17.063-3.745 31.213-7.491 42.45-9.572 2.914-17.896 3.33-24.971 1.249-21.225-5.827-17.479-39.537-17.479-39.537Zm-20.393 41.618c7.075 7.075 17.479 12.069 33.294 13.734 7.908.832 15.815.416 23.306-.833-15.815 34.127-39.953 36.208-39.953 36.208-18.728 1.248-18.728-29.133-16.647-49.109Z" style="fill-rule:nonzero"/><path d="M1702.01 993.289c.416-.416.416-.416.832-.416 4.994-.416 8.74-3.746 9.572-8.74l3.746-18.728c7.075-22.057 14.982-41.202 23.306-57.849 5.41 5.41 14.15 18.312 12.485 47.028-2.081 39.121 33.294 37.873 33.294 37.873 44.532-1.249 83.652-90.311 88.647-101.132 0-.832.416-1.665.416-2.497 1.248-6.659-1.665-11.653-3.746-14.566-1.248-1.665-3.745-1.665-4.162.416-32.878 75.745-71.999 103.629-79.906 101.964-7.075-1.665 1.665-13.734 3.746-42.867 1.248-14.15-7.492-22.473-17.064-27.051 48.693-6.243 59.098-42.867 59.098-42.867 7.907-22.89 1.248-39.537-14.15-45.779-27.468-11.237-57.849 30.797-57.849 30.797-11.237 14.15-21.225 29.965-27.884 41.618 1.664-7.908 3.745-16.647 5.826-25.803 1.665-7.908 3.746-15.815 5.411-23.723 21.641-13.733 45.363-42.034 51.606-81.571 3.329-19.56 1.248-30.797-2.497-37.04-4.994-9.155-12.902-8.323-12.902-8.323-4.578 0-8.74 1.665-13.318 4.578-46.612 29.965-78.657 202.263-86.565 249.291-2.497 13.734 8.324 26.219 22.058 25.387Zm126.934-150.657s-4.994-9.988-9.572-16.647c0 0 11.653 3.329 9.572 16.647Zm-51.19 7.908s20.809-22.89 27.884-15.399c7.075 7.907-8.74 28.3-8.74 28.3-17.063 22.474-39.12 25.803-47.86 26.219 10.404-17.479 20.393-30.381 28.716-39.12Zm2.081-124.022s5.827.416 1.249 29.133c-3.746 22.473-14.15 49.525-33.711 68.669 13.734-58.681 24.139-97.386 32.462-97.802Z" style="fill-rule:nonzero"/><path d="M1893.04 992.041c64.924 6.242 104.877-91.144 108.206-99.467 0-.416.417-.833.417-1.249 1.664-6.659 0-13.318-2.081-17.063-.416-1.665-2.914-1.665-3.746 0-8.74 19.976-48.693 104.877-97.802 101.964-21.641-2.497-19.977-28.717-14.982-49.942 17.063-1.248 54.935-9.156 69.501-53.271 19.561-60.346-18.311-60.762-18.311-60.762-46.196-.416-73.248 64.508-73.248 64.508s-52.022 106.542 32.046 115.282Zm29.965-168.137c2.081-1.665 6.242-2.497 9.156-1.248 0 0-9.989 4.578-14.15 13.317 0 0 0-7.907 4.994-12.069Zm-29.965 72.832s27.884-69.919 43.699-69.086c0 0 10.82 4.578-3.33 44.947-11.237 30.381-34.543 38.289-46.196 40.369 2.914-9.572 5.827-16.23 5.827-16.23Z" style="fill-rule:nonzero"/></g></svg>