<?xml version="1.0" encoding="UTF-8" standalone="no"?><!DOCTYPE svg PUBLIC "-//W3C//DTD SVG 1.1//EN" "http://www.w3.org/Graphics/SVG/1.1/DTD/svg11.dtd"><svg width="100%" height="100%" viewBox="0 0 3332 1706" version="1.1" xmlns="http://www.w3.org/2000/svg" xmlns:xlink="http://www.w3.org/1999/xlink" xml:space="preserve" xmlns:serif="http://www.serif.com/" style="fill-rule:evenodd;clip-rule:evenodd;stroke-linejoin:round;stroke-miterlimit:2;"><g><rect x="0" y="506.06" width="734.124" height="687.059" style="fill:#fefffd;"/><clipPath id="_clip1"><rect x="0" y="506.06" width="734.124" height="687.059"/></clipPath><g clip-path="url(#_clip1)"><path d="M392.572,506.06l96.227,97.198l-146.183,147.658l146.437,147.297l-146.657,147.124l146.419,145.883l-146.657,-0l-146.419,-145.883l146.657,-147.124l-146.437,-147.297l146.183,-147.658l-100.394,-97.198l-241.748,-0l0,687.058l734.124,0l-0,-687.058l-341.552,-0Z" style="fill:#d20018;"/></g><rect x="2596.91" y="506.06" width="734.124" height="687.059" style="fill:#fefffd;"/><path d="M2938.47,506.06l-96.227,97.198l146.183,147.658l-146.438,147.297l146.657,147.124l-146.418,145.883l146.657,-0l146.418,-145.883l-146.657,-147.124l146.438,-147.297l-146.183,-147.658l100.393,-97.198l241.748,-0l0,687.058l-734.123,0l-0,-687.058l341.552,-0Z" style="fill:#d20018;"/><path id="Left" d="M953.563,677.824l219.439,-171.764l0,687.058l-219.439,-171.764l-219.439,171.764l-0,-687.058l219.439,171.764Z" style="fill:#9d0a0e;"/><clipPath id="_clip2"><path id="Left1" serif:id="Left" d="M953.563,677.824l219.439,-171.764l0,687.058l-219.439,-171.764l-219.439,171.764l-0,-687.058l219.439,171.764Z"/></clipPath><g clip-path="url(#_clip2)"><rect x="925.93" y="655.785" width="55.265" height="387.607" style="fill:#390;"/></g><path id="Right" d="M2377.47,677.824l219.44,-171.764l-0,687.058l-219.44,-171.764l-219.439,171.764l0,-687.058l219.439,171.764Z" style="fill:#9d0a0e;"/><clipPath id="_clip3"><path d="M2377.47,677.824l219.44,-171.764l-0,687.058l-219.44,-171.764l-219.439,171.764l0,-687.058l219.439,171.764Z"/></clipPath><g clip-path="url(#_clip3)"><rect x="2349.84" y="655.785" width="55.265" height="387.607" style="fill:#390;"/></g><rect x="1173" y="506.06" width="985.033" height="687.059" style="fill:#d20018;"/><rect x="1516.72" y="506.06" width="297.592" height="687.059" style="fill:#390;"/><path d="M2073.55,715.899c-0,-73.786 -59.905,-133.691 -133.691,-133.691l-545.999,0c-73.786,0 -133.691,59.905 -133.691,133.691l0,267.38c0,73.786 59.905,133.691 133.691,133.691l545.999,-0c73.786,-0 133.691,-59.905 133.691,-133.691l-0,-267.38Z" style="fill:#fefffd;"/><path d="M423.434,160.54c6.575,9.777 22.631,34.55 70.931,64.927c53.117,33.408 195.202,86.456 208.218,92.553c14.432,6.76 68.724,34.18 79.493,42.023c19.219,13.997 35.972,34.721 48.446,54.402c3.454,5.45 62.873,116.964 74.578,152.077c3.807,11.419 8.868,21.202 12.426,32.304l0.094,0.624c2.145,15.066 9.855,80.56 9.855,80.56c1.614,13.703 14.05,23.518 27.753,21.903c13.703,-1.614 23.518,-14.049 21.903,-27.753c0,0 -10.474,-85.706 -11.35,-88.567c-3.699,-12.086 -9.145,-22.579 -13.247,-34.883c-12.543,-37.627 -76.079,-157.191 -79.78,-163.031c-15.677,-24.735 -37.089,-50.462 -61.242,-68.053c-11.912,-8.676 -71.755,-39.407 -87.72,-46.885c-12.665,-5.932 -151.122,-57.091 -202.807,-89.598c-46.748,-29.402 -56.9,-52.497 -60.723,-56.774c-7.166,-8.018 -14.676,-9.122 -19.803,-9.122c-13.798,-0 -25,11.202 -25,25c-0,7.221 3.069,13.732 7.975,18.293Zm15.62,6.669l0.09,0.003l-0.797,-0.061l0.707,0.058Zm-1.432,-0.118l0.22,0.018l-0.832,-0.105l0.612,0.087Zm-1.458,-0.209l0.328,0.047l-0.712,-0.127l0.384,0.08Zm-1.483,-0.31l0.25,0.053l-0.362,-0.084l0.112,0.031Z" style="fill:#390;"/><path d="M936.948,630.243c-7.277,5.155 -11.556,14.049 -10.374,23.51c2.317,18.549 12.549,25.105 16.86,27.089c7.918,3.643 26.791,6.282 36.975,-16.511c11.662,-26.099 31.662,-164.115 6.585,-267.87c-16.318,-67.512 -43.508,-94.38 -56.806,-110.812c-27.657,-34.174 -22.6,-23.999 -46.817,-56.742c-4.754,-6.428 -58.748,-58.804 -94.956,-126.821c-5.293,-9.942 -16.203,-57.522 -16.411,-77.349c-0.145,-13.797 -11.464,-24.881 -25.261,-24.736c-13.797,0.145 -24.881,11.464 -24.736,25.262c0.27,25.766 15.394,87.397 22.272,100.319c37.889,71.173 93.918,126.331 98.892,133.057c24.934,33.712 19.675,23.279 48.15,58.465c10.951,13.531 33.634,35.507 47.072,91.104c17.964,74.326 4.267,183.887 -1.445,222.035Z" style="fill:#390;"/><path d="M2907.35,1545.05c-6.575,-9.777 -22.631,-34.549 -70.931,-64.927c-53.117,-33.408 -195.201,-86.456 -208.218,-92.553c-14.432,-6.76 -68.724,-34.179 -79.493,-42.022c-19.218,-13.997 -35.972,-34.722 -48.446,-54.403c-3.454,-5.45 -62.873,-116.964 -74.578,-152.076c-3.807,-11.419 -8.868,-21.202 -12.426,-32.305l-0.094,-0.624c-2.144,-15.065 -9.855,-80.559 -9.855,-80.559c-1.614,-13.703 -14.05,-23.518 -27.753,-21.904c-13.703,1.614 -23.517,14.05 -21.903,27.753c-0,-0 10.474,85.707 11.35,88.568c3.699,12.085 9.145,22.578 13.247,34.883c12.543,37.626 76.079,157.191 79.78,163.031c15.677,24.734 37.089,50.461 61.242,68.052c11.912,8.676 71.756,39.407 87.72,46.885c12.666,5.933 151.122,57.092 202.808,89.599c46.747,29.401 56.9,52.496 60.722,56.774c7.166,8.017 14.676,9.122 19.803,9.122c13.798,-0 25,-11.202 25,-25c0,-7.222 -3.068,-13.733 -7.975,-18.294Zm-11.497,-6.084l0.362,0.084l-0.112,-0.032l-0.25,-0.052Zm-1.561,-0.305l0.713,0.127l-0.385,-0.08l-0.328,-0.047Zm-1.35,-0.18l0.832,0.106l-0.612,-0.088l-0.22,-0.018Zm-1.302,-0.102l0.797,0.06l-0.707,-0.058l-0.09,-0.002Z" style="fill:#390;"/><path d="M2393.84,1075.35c7.277,-5.155 11.556,-14.049 10.374,-23.51c-2.317,-18.549 -12.549,-25.105 -16.86,-27.088c-7.918,-3.643 -26.791,-6.282 -36.975,16.51c-11.662,26.099 -31.662,164.116 -6.584,267.87c16.317,67.513 43.507,94.38 56.805,110.812c27.657,34.175 22.6,23.999 46.817,56.743c4.754,6.427 58.748,58.803 94.956,126.82c5.293,9.943 16.203,57.523 16.411,77.349c0.145,13.797 11.464,24.881 25.261,24.736c13.797,-0.145 24.881,-11.464 24.736,-25.261c-0.27,-25.767 -15.393,-87.398 -22.272,-100.319c-37.889,-71.174 -93.918,-126.332 -98.892,-133.057c-24.934,-33.713 -19.675,-23.279 -48.15,-58.465c-10.951,-13.532 -33.634,-35.507 -47.072,-91.105c-17.964,-74.325 -4.267,-183.886 1.445,-222.035Z" style="fill:#390;"/></g><g id="Start---Christmas-Font" serif:id="Start - Christmas Font"><path d="M1544.02,852.717c-14.059,0 -35.719,0.38 -56.238,4.18c-3.8,-8.74 -8.36,-16.719 -12.54,-23.939c-6.84,-11.4 -11.4,-20.52 -11.4,-20.52c-4.18,-8.74 -6.46,-15.959 -7.6,-22.419c51.299,-23.18 69.159,-46.359 69.159,-46.359c13.3,-15.96 7.98,-26.219 4.94,-30.399c-4.94,-7.22 -17.48,-5.7 -17.48,-5.7c0,-0 -43.319,1.9 -78.278,47.119c-8.36,10.639 -12.92,20.899 -14.82,30.019c-8.359,3.04 -18.239,6.46 -28.499,10.64c-25.079,9.879 -51.679,22.419 -68.778,42.939c-17.1,20.139 -17.86,39.139 -13.3,51.678c7.22,19 21.659,23.56 30.019,25.08c2.28,0.38 4.18,-2.28 2.66,-4.56c-3.42,-6.08 -4.56,-13.68 -3.8,-21.28c4.18,-37.239 43.319,-63.838 81.318,-82.458c2.28,15.58 10.64,26.98 14.82,32.3c0,-0 9.5,11.019 18.24,25.079c-33.06,9.12 -62.699,25.459 -72.199,52.439c-13.679,37.999 23.94,45.979 23.94,45.979c4.94,1.14 9.499,1.14 14.439,1.14c36.86,-1.14 64.219,-21.28 76.379,-55.479c4.179,-12.16 2.28,-26.219 -2.66,-39.899c10.639,-2.28 23.939,-3.42 39.899,-3.8c1.14,0 1.9,0 2.66,-0.38c4.56,-2.28 8.359,-5.32 10.639,-8.74c0.76,-1.14 0,-2.66 -1.52,-2.66Zm-15.199,-123.877c-0,0 -2.28,-10.64 -3.8,-14.439c-0,-0 9.5,5.699 3.8,14.439Zm-53.199,14.06c20.14,-23.94 40.279,-23.94 40.279,-23.94c0,0 4.18,0 5.7,1.9c1.9,2.66 -0,10.64 -7.6,17.86c-14.06,14.06 -40.659,26.219 -56.619,32.679c3.04,-8.74 9.12,-17.479 18.24,-28.499Zm-9.88,164.536c-5.7,27.739 -36.859,50.159 -56.618,42.559c-0,0 -23.56,-7.6 -7.98,-36.859c7.22,-13.68 26.979,-28.119 57.758,-37.619c5.32,11.02 9.12,22.799 6.84,31.919Z" style="fill-rule:nonzero;"/><path d="M1552,778.619c-22.799,86.258 -26.219,133.757 -26.219,133.757c-4.18,52.439 29.259,50.539 29.259,50.539c37.999,0.76 68.399,-75.238 75.238,-90.438c1.14,-3.04 1.52,-6.46 0.76,-9.5c-0.38,-3.04 -1.9,-5.7 -3.04,-7.98c-1.14,-1.52 -3.799,-1.52 -4.559,0.38c-29.64,73.339 -60.039,101.078 -67.639,94.238c-11.4,-10.26 18.62,-120.077 34.579,-175.556c26.6,0 33.44,9.12 34.96,14.06c0.759,1.52 2.279,1.9 3.419,0.76c5.32,-5.7 15.96,-19.38 -1.14,-27.74c-6.459,-3.419 -19.759,-3.039 -33.059,-2.279c1.9,-6.46 3.42,-11.4 4.18,-14.06c0.76,-1.52 0.76,-3.42 0.38,-5.32c-2.28,-14.44 -19.759,-18.24 -26.979,-19c-1.9,0 -3.42,0.76 -3.8,2.66c-4.56,14.06 -8.36,27.36 -12.16,39.899c-22.039,2.28 -34.959,0.76 -43.319,-2.66c-5.32,-2.279 -8.36,-6.839 -9.88,-10.259c-0.38,-1.52 -2.66,-1.52 -3.42,-0.38c-3.419,4.94 -8.739,14.059 -5.319,21.279c4.559,10.26 13.679,14.82 57.758,7.6Zm40.279,-30.019c0,-0 -0.76,-9.5 -3.04,-14.44c0,0 8.36,4.18 3.04,14.44Z" style="fill-rule:nonzero;"/><path d="M1634.45,960.635c22.8,3.42 40.279,-17.86 50.919,-36.859c0.38,41.419 29.639,39.139 29.639,39.139c39.899,-1.14 70.299,-80.178 74.479,-91.578c0.38,-1.52 0.76,-3.04 0.76,-4.18c-0,-4.18 -1.52,-8.36 -3.04,-11.4c-1.14,-1.9 -4.18,-1.52 -5.32,0.38c-25.46,66.879 -60.039,98.038 -65.739,93.858c-7.219,-5.32 6.84,-70.678 25.08,-117.797c0.76,-1.9 1.14,-3.8 1.52,-5.7c1.14,-15.58 -7.98,-25.459 -19,-28.499c-4.18,-1.14 -8.36,1.14 -9.88,4.939c-2.28,5.32 -4.179,10.64 -6.079,15.58c-3.42,-8.36 -9.88,-14.44 -20.14,-14.82c-37.999,-1.519 -66.498,55.099 -66.498,55.099c-26.22,52.439 -20.14,97.278 13.299,101.838Zm99.938,-129.197c-0,-0 -1.14,-15.2 -3.42,-20.14c0,0 11.4,6.46 3.42,20.14Zm-85.118,46.359c-0,-0 28.499,-61.559 42.939,-60.039c11.02,0.76 5.7,30.779 2.28,44.459c-0.38,2.28 -0.76,4.56 -1.52,6.46l-0,0.38c-0.38,1.9 -0.76,3.42 -1.14,5.32c-3.04,7.98 -28.879,74.478 -53.959,75.238c0,0 -18.619,-6.08 11.4,-71.818Z" style="fill-rule:nonzero;"/><path d="M1790.63,963.675c1.9,-0 3.8,-1.52 3.8,-3.8c0.38,-6.08 1.52,-12.92 2.279,-20.14c26.22,-83.218 67.639,-120.837 73.719,-120.077c-0,0 -45.219,59.659 -17.86,76.378c34.199,15.96 64.599,-22.799 64.599,-22.799c3.04,-4.94 4.56,-11.78 3.8,-17.48c-0,-1.52 -2.28,-1.9 -3.04,-0.76c-11.78,17.1 -31.92,30.78 -52.059,32.68c-2.66,-0 -3.8,-3.04 -1.9,-4.56c29.639,-25.84 42.559,-68.779 25.079,-79.419c-22.799,-13.679 -52.818,28.12 -52.818,28.12c-7.98,10.26 -15.2,21.279 -21.28,31.159c3.42,-9.5 6.84,-18.999 11.02,-29.639c0.76,-1.52 1.14,-3.04 1.14,-4.56c1.9,-16.72 -9.12,-28.119 -21.28,-31.159c-3.04,-0.76 -6.08,1.14 -7.6,3.8c-12.919,32.299 -20.519,60.038 -25.079,80.178c-4.94,19.759 -8.36,49.398 -8.36,63.458c1.9,11.78 14.82,18.62 25.84,18.62Zm98.037,-130.337c0,-0 1.52,-10.26 -1.52,-18.62c0,0 10.26,6.46 1.52,18.62Zm-71.438,-0.38c0,-0 0,-11.4 -1.14,-17.1c0,0 7.6,5.7 1.14,17.1Z" style="fill-rule:nonzero;"/><path d="M1932.75,778.619c-22.799,86.258 -26.219,133.757 -26.219,133.757c-4.18,52.439 29.259,50.539 29.259,50.539c37.999,0.76 68.399,-75.238 75.238,-90.438c1.14,-3.04 1.52,-6.46 0.76,-9.5c-0.38,-3.04 -1.9,-5.7 -3.039,-7.98c-1.14,-1.52 -3.8,-1.52 -4.56,0.38c-29.64,73.339 -60.039,101.078 -67.639,94.238c-11.4,-10.26 18.62,-120.077 34.579,-175.556c26.6,0 33.44,9.12 34.96,14.06c0.76,1.52 2.28,1.9 3.419,0.76c5.32,-5.7 15.96,-19.38 -1.139,-27.74c-6.46,-3.419 -19.76,-3.039 -33.06,-2.279c1.9,-6.46 3.42,-11.4 4.18,-14.06c0.76,-1.52 0.76,-3.42 0.38,-5.32c-2.28,-14.44 -19.759,-18.24 -26.979,-19c-1.9,0 -3.42,0.76 -3.8,2.66c-4.56,14.06 -8.36,27.36 -12.16,39.899c-22.039,2.28 -34.959,0.76 -43.319,-2.66c-5.32,-2.279 -8.36,-6.839 -9.88,-10.259c-0.38,-1.52 -2.659,-1.52 -3.419,-0.38c-3.42,4.94 -8.74,14.059 -5.32,21.279c4.56,10.26 13.679,14.82 57.758,7.6Zm40.279,-30.019c0,-0 -0.76,-9.5 -3.04,-14.44c0,0 8.36,4.18 3.04,14.44Z" style="fill-rule:nonzero;"/></g></svg>