<?xml version="1.0" encoding="UTF-8" standalone="no"?><!DOCTYPE svg PUBLIC "-//W3C//DTD SVG 1.1//EN" "http://www.w3.org/Graphics/SVG/1.1/DTD/svg11.dtd"><svg width="100%" height="100%" viewBox="0 0 1867 2440" version="1.1" xmlns="http://www.w3.org/2000/svg" xmlns:xlink="http://www.w3.org/1999/xlink" xml:space="preserve" xmlns:serif="http://www.serif.com/" style="fill-rule:evenodd;clip-rule:evenodd;stroke-miterlimit:10;"><g><path d="M943.854,20.937c18.75,34.167 37.5,67.5 55,101.25c30,57.917 65.833,112.084 106.667,162.5c42.083,51.667 89.583,98.334 140,142.084c10.416,8.75 21.666,16.25 33.75,25c-21.25,14.583 -46.667,15.833 -70.834,17.5c-49.583,3.75 -98.75,6.25 -151.666,9.583c94.583,194.583 248.75,310.833 457.083,367.083c-17.5,15.834 -32.083,30.834 -48.75,43.334c-47.083,35.833 -101.667,57.083 -158.333,72.5c-42.084,11.666 -84.584,20.833 -130.417,32.083c13.333,20.833 24.167,42.5 39.583,61.25c28.75,35.417 58.75,70.417 90.417,102.917c52.083,53.75 113.75,95.833 180,129.166c72.917,36.667 147.917,69.584 224.167,105c-14.167,12.917 -28.75,29.584 -46.667,42.084c-70.833,50.416 -150.417,80.833 -235,99.166c-36.25,7.917 -72.083,15.417 -114.583,24.167c20.833,19.583 37.5,38.333 57.083,52.5c55,39.167 110,79.167 168.333,112.917c49.167,28.75 102.5,50.416 155.417,72.5c43.333,17.916 87.917,32.083 132.083,47.916c4.584,1.667 9.584,2.084 18.334,3.75c-8.75,10.834 -14.584,22.084 -23.75,29.167c-27.917,22.083 -55,45 -85.417,62.917c-61.667,36.25 -127.083,65 -197.917,80c-74.166,15.833 -148.333,12.916 -222.083,-3.334c-75.417,-16.25 -147.5,-42.916 -219.167,-70c-23.75,-9.166 -48.75,-15.416 -72.916,-24.166c-11.667,-4.167 -16.25,0.416 -17.5,11.25c-4.584,47.083 11.25,92.083 65,93.333c8.333,0.417 16.25,2.5 24.583,2.917c25,1.25 36.25,12.916 32.083,37.916c-8.333,52.084 -18.333,104.167 -27.5,156.667c-10.833,60.833 -21.25,121.667 -31.666,182.5c-1.25,8.333 -4.584,12.083 -13.75,12.083c-71.667,-0.416 -143.334,0 -215,-0.416c-9.167,-0 -18.334,-2.084 -29.167,-2.917c-5,-26.667 -10,-53.333 -14.583,-80c-14.584,-86.25 -29.167,-172.083 -43.75,-258.333c-7.5,-43.75 -4.167,-40 36.666,-47.917c18.334,-3.333 37.917,-6.25 54.584,-14.583c24.166,-12.084 36.666,-62.917 25.416,-87.917c-4.166,-9.583 -10,-7.917 -17.083,-5.417c-43.75,16.25 -87.917,32.5 -131.667,49.167c-85,32.083 -171.666,53.75 -263.75,56.667c-109.583,3.333 -207.916,-26.667 -301.666,-78.334c-46.25,-25.833 -90.417,-55.416 -134.584,-85.833c197.917,-75 390.417,-154.167 547.5,-307.5c-149.166,-21.667 -283.333,-71.25 -407.5,-159.583c21.667,-10 38.75,-18.75 56.667,-25.417c109.167,-40.417 210.417,-95.833 302.5,-166.667c72.917,-55.833 133.75,-123.333 182.083,-202.083c1.25,-1.667 1.667,-3.75 2.5,-6.25c-57.916,-16.667 -115.833,-30.833 -172.083,-50.417c-56.25,-19.583 -109.583,-45.833 -154.583,-92.5c20,-8.75 37.916,-17.916 56.25,-25c80,-31.25 153.75,-72.916 218.333,-130c62.917,-55.833 114.583,-121.25 158.75,-192.5c2.917,-4.583 5.417,-9.583 7.917,-14.583c2.083,-5 4.166,-10 6.25,-16.25c-74.584,-12.083 -150.834,7.083 -226.667,-20c78.75,-57.083 145.417,-120.417 197.083,-197.083c51.25,-75.834 97.5,-155 147.917,-235.834Z" style="fill:#00863d;fill-rule:nonzero;stroke:#00863d;stroke-width:4.17px;"/><path d="M1004.38,2418.26c6.795,-0.832 9.484,-4.614 10.578,-11.906c10.417,-60.833 20.833,-121.667 31.667,-182.5c9.166,-52.5 19.166,-104.583 27.5,-156.667c4.166,-25 -7.084,-36.666 -32.084,-37.916c-8.333,-0.417 -16.25,-2.5 -24.583,-2.917c-53.75,-1.25 -69.583,-46.25 -65,-93.333c1.25,-10.834 5.833,-15.417 17.5,-11.25c12.127,4.39 24.463,8.152 36.743,11.967c-4.353,46.824 11.592,91.372 65.068,92.616c8.333,0.417 16.25,2.5 24.583,2.917c25,1.25 36.25,12.916 32.083,37.916c-8.333,52.084 -18.333,104.167 -27.5,156.667c-10.833,60.833 -21.25,121.667 -31.666,182.5c-1.25,8.333 -4.584,12.083 -13.75,12.083c-17.05,-0.099 -34.099,-0.151 -51.139,-0.177Zm-1.922,-1939.41c52.917,-3.333 107.227,-3.333 54.311,-0c94.583,194.583 248.75,310.833 457.083,367.083c-17.5,15.834 -32.083,30.834 -48.75,43.334c-47.083,35.833 -101.667,57.083 -158.333,72.5c-42.084,11.666 -84.584,20.833 -130.417,32.083c13.333,20.833 24.167,42.5 39.583,61.25c28.75,35.417 58.75,70.417 90.417,102.917c52.083,53.75 113.75,95.833 180,129.166c72.917,36.667 147.917,69.584 224.167,105c-14.167,12.917 -28.75,29.584 -46.667,42.084c-70.833,50.416 -150.417,80.833 -235,99.166c-36.25,7.917 -72.083,15.417 -114.583,24.167c20.833,19.583 37.5,38.333 57.083,52.5c55,39.167 110,79.167 168.333,112.917c49.167,28.75 102.5,50.416 155.417,72.5c43.333,17.916 87.917,32.083 132.083,47.916c4.584,1.667 9.584,2.084 18.334,3.75c-8.75,10.834 -14.584,22.084 -23.75,29.167c-27.917,22.083 -55,45 -85.417,62.917c-61.667,36.25 -127.083,65 -197.917,80c-42.623,9.099 -85.247,12.006 -127.789,9.746c24.484,-1.333 48.981,-4.517 73.479,-9.746c70.833,-15 136.25,-43.75 197.916,-80c30.417,-17.917 57.5,-40.834 85.417,-62.917c9.167,-7.083 15,-18.333 23.75,-29.167c-8.75,-1.666 -13.75,-2.083 -18.333,-3.75c-44.167,-15.833 -88.75,-30 -132.084,-47.916c-52.916,-22.084 -106.25,-43.75 -155.416,-72.5c-58.334,-33.75 -113.334,-73.75 -168.334,-112.917c-19.583,-14.167 -36.25,-32.917 -57.083,-52.5c42.5,-8.75 78.333,-16.25 114.583,-24.167c84.584,-18.333 164.167,-48.75 235,-99.166c17.917,-12.5 32.5,-29.167 46.667,-42.084c-76.25,-35.416 -151.25,-68.333 -224.167,-105c-66.25,-33.333 -127.916,-75.416 -180,-129.166c-31.666,-32.5 -61.666,-67.5 -90.416,-102.917c-15.417,-18.75 -26.25,-40.417 -39.584,-61.25c45.834,-11.25 88.334,-20.417 130.417,-32.083c56.667,-15.417 111.25,-36.667 158.333,-72.5c16.667,-12.5 31.25,-27.5 48.75,-43.334c-208.333,-56.25 -362.5,-172.5 -457.083,-367.083Zm-304.83,-9.539c6.504,0.133 13.004,0.172 19.5,0.167c-6.494,-0.134 -12.993,-0.172 -19.5,-0.167Z" style="fill:#006e3d;fill-rule:nonzero;stroke:#00863d;stroke-width:4.17px;"/></g></svg>