<?xml version="1.0" encoding="UTF-8" standalone="no"?><!DOCTYPE svg PUBLIC "-//W3C//DTD SVG 1.1//EN" "http://www.w3.org/Graphics/SVG/1.1/DTD/svg11.dtd"><svg width="100%" height="100%" viewBox="0 0 3332 1706" version="1.1" xmlns="http://www.w3.org/2000/svg" xmlns:xlink="http://www.w3.org/1999/xlink" xml:space="preserve" xmlns:serif="http://www.serif.com/" style="fill-rule:evenodd;clip-rule:evenodd;stroke-linejoin:round;stroke-miterlimit:2;"><g><rect x="0" y="506.06" width="734.124" height="687.059" style="fill:#fefffd;"/><clipPath id="_clip1"><rect x="0" y="506.06" width="734.124" height="687.059"/></clipPath><g clip-path="url(#_clip1)"><path d="M392.572,506.06l96.227,97.198l-146.183,147.658l146.437,147.297l-146.657,147.124l146.419,145.883l-146.657,-0l-146.419,-145.883l146.657,-147.124l-146.437,-147.297l146.183,-147.658l-100.394,-97.198l-241.748,-0l0,687.058l734.124,0l-0,-687.058l-341.552,-0Z" style="fill:#d20018;"/></g><rect x="2596.91" y="506.06" width="734.124" height="687.059" style="fill:#fefffd;"/><path d="M2938.47,506.06l-96.227,97.198l146.183,147.658l-146.438,147.297l146.657,147.124l-146.418,145.883l146.657,-0l146.418,-145.883l-146.657,-147.124l146.438,-147.297l-146.183,-147.658l100.393,-97.198l241.748,-0l0,687.058l-734.123,0l-0,-687.058l341.552,-0Z" style="fill:#d20018;"/><path id="Left" d="M953.563,677.824l219.439,-171.764l0,687.058l-219.439,-171.764l-219.439,171.764l-0,-687.058l219.439,171.764Z" style="fill:#9d0a0e;"/><clipPath id="_clip2"><path id="Left1" serif:id="Left" d="M953.563,677.824l219.439,-171.764l0,687.058l-219.439,-171.764l-219.439,171.764l-0,-687.058l219.439,171.764Z"/></clipPath><g clip-path="url(#_clip2)"><rect x="925.93" y="655.785" width="55.265" height="387.607" style="fill:#390;"/></g><path id="Right" d="M2377.47,677.824l219.44,-171.764l-0,687.058l-219.44,-171.764l-219.439,171.764l0,-687.058l219.439,171.764Z" style="fill:#9d0a0e;"/><clipPath id="_clip3"><path d="M2377.47,677.824l219.44,-171.764l-0,687.058l-219.44,-171.764l-219.439,171.764l0,-687.058l219.439,171.764Z"/></clipPath><g clip-path="url(#_clip3)"><rect x="2349.84" y="655.785" width="55.265" height="387.607" style="fill:#390;"/></g><rect x="1173" y="506.06" width="985.033" height="687.059" style="fill:#d20018;"/><rect x="1516.72" y="506.06" width="297.592" height="687.059" style="fill:#390;"/><path d="M2073.55,715.899c-0,-73.786 -59.905,-133.691 -133.691,-133.691l-545.999,0c-73.786,0 -133.691,59.905 -133.691,133.691l0,267.38c0,73.786 59.905,133.691 133.691,133.691l545.999,-0c73.786,-0 133.691,-59.905 133.691,-133.691l-0,-267.38Z" style="fill:#fefffd;"/><path d="M423.434,160.54c6.575,9.777 22.631,34.55 70.931,64.927c53.117,33.408 195.202,86.456 208.218,92.553c14.432,6.76 68.724,34.18 79.493,42.023c19.219,13.997 35.972,34.721 48.446,54.402c3.454,5.45 62.873,116.964 74.578,152.077c3.807,11.419 8.868,21.202 12.426,32.304l0.094,0.624c2.145,15.066 9.855,80.56 9.855,80.56c1.614,13.703 14.05,23.518 27.753,21.903c13.703,-1.614 23.518,-14.049 21.903,-27.753c0,0 -10.474,-85.706 -11.35,-88.567c-3.699,-12.086 -9.145,-22.579 -13.247,-34.883c-12.543,-37.627 -76.079,-157.191 -79.78,-163.031c-15.677,-24.735 -37.089,-50.462 -61.242,-68.053c-11.912,-8.676 -71.755,-39.407 -87.72,-46.885c-12.665,-5.932 -151.122,-57.091 -202.807,-89.598c-46.748,-29.402 -56.9,-52.497 -60.723,-56.774c-7.166,-8.018 -14.676,-9.122 -19.803,-9.122c-13.798,-0 -25,11.202 -25,25c-0,7.221 3.069,13.732 7.975,18.293Zm15.62,6.669l0.09,0.003l-0.797,-0.061l0.707,0.058Zm-1.432,-0.118l0.22,0.018l-0.832,-0.105l0.612,0.087Zm-1.458,-0.209l0.328,0.047l-0.712,-0.127l0.384,0.08Zm-1.483,-0.31l0.25,0.053l-0.362,-0.084l0.112,0.031Z" style="fill:#390;"/><path d="M936.948,630.243c-7.277,5.155 -11.556,14.049 -10.374,23.51c2.317,18.549 12.549,25.105 16.86,27.089c7.918,3.643 26.791,6.282 36.975,-16.511c11.662,-26.099 31.662,-164.115 6.585,-267.87c-16.318,-67.512 -43.508,-94.38 -56.806,-110.812c-27.657,-34.174 -22.6,-23.999 -46.817,-56.742c-4.754,-6.428 -58.748,-58.804 -94.956,-126.821c-5.293,-9.942 -16.203,-57.522 -16.411,-77.349c-0.145,-13.797 -11.464,-24.881 -25.261,-24.736c-13.797,0.145 -24.881,11.464 -24.736,25.262c0.27,25.766 15.394,87.397 22.272,100.319c37.889,71.173 93.918,126.331 98.892,133.057c24.934,33.712 19.675,23.279 48.15,58.465c10.951,13.531 33.634,35.507 47.072,91.104c17.964,74.326 4.267,183.887 -1.445,222.035Z" style="fill:#390;"/><path d="M2907.35,1545.05c-6.575,-9.777 -22.631,-34.549 -70.931,-64.927c-53.117,-33.408 -195.201,-86.456 -208.218,-92.553c-14.432,-6.76 -68.724,-34.179 -79.493,-42.022c-19.218,-13.997 -35.972,-34.722 -48.446,-54.403c-3.454,-5.45 -62.873,-116.964 -74.578,-152.076c-3.807,-11.419 -8.868,-21.202 -12.426,-32.305l-0.094,-0.624c-2.144,-15.065 -9.855,-80.559 -9.855,-80.559c-1.614,-13.703 -14.05,-23.518 -27.753,-21.904c-13.703,1.614 -23.517,14.05 -21.903,27.753c-0,-0 10.474,85.707 11.35,88.568c3.699,12.085 9.145,22.578 13.247,34.883c12.543,37.626 76.079,157.191 79.78,163.031c15.677,24.734 37.089,50.461 61.242,68.052c11.912,8.676 71.756,39.407 87.72,46.885c12.666,5.933 151.122,57.092 202.808,89.599c46.747,29.401 56.9,52.496 60.722,56.774c7.166,8.017 14.676,9.122 19.803,9.122c13.798,-0 25,-11.202 25,-25c0,-7.222 -3.068,-13.733 -7.975,-18.294Zm-11.497,-6.084l0.362,0.084l-0.112,-0.032l-0.25,-0.052Zm-1.561,-0.305l0.713,0.127l-0.385,-0.08l-0.328,-0.047Zm-1.35,-0.18l0.832,0.106l-0.612,-0.088l-0.22,-0.018Zm-1.302,-0.102l0.797,0.06l-0.707,-0.058l-0.09,-0.002Z" style="fill:#390;"/><path d="M2393.84,1075.35c7.277,-5.155 11.556,-14.049 10.374,-23.51c-2.317,-18.549 -12.549,-25.105 -16.86,-27.088c-7.918,-3.643 -26.791,-6.282 -36.975,16.51c-11.662,26.099 -31.662,164.116 -6.584,267.87c16.317,67.513 43.507,94.38 56.805,110.812c27.657,34.175 22.6,23.999 46.817,56.743c4.754,6.427 58.748,58.803 94.956,126.82c5.293,9.943 16.203,57.523 16.411,77.349c0.145,13.797 11.464,24.881 25.261,24.736c13.797,-0.145 24.881,-11.464 24.736,-25.261c-0.27,-25.767 -15.393,-87.398 -22.272,-100.319c-37.889,-71.174 -93.918,-126.332 -98.892,-133.057c-24.934,-33.713 -19.675,-23.279 -48.15,-58.465c-10.951,-13.532 -33.634,-35.507 -47.072,-91.105c-17.964,-74.325 -4.267,-183.886 1.445,-222.035Z" style="fill:#390;"/></g><g id="Replay---Christmas-Font" serif:id="Replay - Christmas Font"><path d="M1466.2,845.151c23.411,-14.786 34.5,-52.674 34.5,-52.674c22.486,-73.004 -13.862,-70.848 -13.862,-70.848c-21.562,-0.924 -50.517,43.433 -65.919,70.232c0.308,-0.924 0.308,-1.54 0.616,-2.464c3.081,-10.165 5.545,-18.79 7.701,-26.183c6.777,-4.005 12.938,-9.241 18.79,-17.558c14.478,-20.022 2.156,-28.955 2.156,-28.955c-4.62,-4.005 -19.406,-8.625 -32.035,11.397c-0,0 -8.009,11.705 -16.018,32.652c-35.116,11.705 -79.473,19.098 -94.566,41.276c-10.473,15.402 -0.924,33.268 8.009,38.812c1.54,0.925 3.388,-0.308 3.388,-2.156c-0.308,-3.696 0.616,-8.625 2.156,-12.013c9.549,-22.487 61.299,-40.044 73.312,-46.205c0.616,-0.308 0.924,-0.616 1.54,-0.924c-11.705,38.504 -34.807,129.374 3.081,141.695c2.464,0.616 4.62,-1.54 3.696,-3.696c-2.772,-8.009 -4.928,-28.031 6.161,-77.933c3.08,24.643 12.937,75.161 40.968,80.397c0,0 25.875,6.161 31.112,-20.022c0.308,-1.54 -1.54,-2.772 -3.081,-2.156c-4.004,2.464 -10.781,5.236 -19.098,2.156c-16.325,-6.161 -27.415,-36.656 -32.035,-52.366c1.54,0.924 2.464,1.232 2.464,1.232c13.554,6.161 27.415,2.773 36.964,-3.696Zm36.04,-99.495c0,0 -4.928,-11.705 -11.397,-17.866c-0,0 11.397,0.308 11.397,17.866Zm-56.37,-20.946c1.848,1.232 -0,10.165 -6.161,16.325c-1.232,1.233 -2.464,2.465 -4.004,3.389c7.393,-19.406 10.165,-19.714 10.165,-19.714Zm-26.799,86.865c15.094,-23.718 47.129,-72.696 60.991,-74.852c-0,0 11.397,-0.924 -2.465,45.281c0,0 -18.79,59.451 -44.664,56.37c-9.241,-1.232 -12.63,-16.326 -13.862,-26.799Z" style="fill-rule:nonzero;"/><path d="M1528.42,920.311c48.053,4.621 77.625,-67.459 80.089,-73.62c-0,-0.308 0.308,-0.616 0.308,-0.924c1.232,-4.929 -0,-9.857 -1.54,-12.629c-0.308,-1.233 -2.157,-1.233 -2.773,-0c-6.468,14.785 -36.04,77.624 -72.388,75.468c-16.017,-1.848 -14.785,-21.254 -11.089,-36.964c12.63,-0.924 40.661,-6.777 51.442,-39.428c14.477,-44.665 -13.554,-44.973 -13.554,-44.973c-34.191,-0.308 -54.214,47.745 -54.214,47.745c0,-0 -38.504,78.857 23.719,85.325Zm22.178,-124.445c1.541,-1.233 4.621,-1.849 6.777,-0.925c0,0 -7.393,3.389 -10.473,9.858c0,-0 0,-5.853 3.696,-8.933Zm-22.178,53.905c0,0 20.638,-51.749 32.344,-51.133c-0,-0 8.008,3.388 -2.465,33.267c-8.317,22.487 -25.566,28.34 -34.191,29.88c2.156,-7.085 4.312,-12.014 4.312,-12.014Z" style="fill-rule:nonzero;"/><path d="M1596.19,992.391c31.728,0 26.491,-56.678 13.862,-84.709c0.616,-3.389 1.232,-6.469 1.848,-9.241c3.697,17.558 14.786,19.406 14.786,19.406c42.509,13.245 58.218,-58.218 58.218,-58.218c7.393,-27.415 4.313,-58.527 -16.018,-63.763c-13.245,-3.389 -25.258,7.392 -34.807,20.33c1.54,-4.621 2.772,-8.317 3.696,-11.089c1.54,-4.005 0.616,-8.625 -2.464,-11.706c-4.929,-5.544 -11.089,-6.776 -15.094,-7.085c-2.464,0 -4.312,1.541 -5.236,3.697c-3.389,10.473 -14.786,45.281 -24.335,82.861c-0,0 -33.884,119.517 5.544,119.517Zm84.71,-175.887c-0,-0 -3.389,-8.625 -8.317,-13.862c-0,0 8.317,1.232 8.317,13.862Zm-49.594,-6.469c0,0 0,-9.241 -1.232,-13.861c0,-0 6.469,4.62 1.232,13.861Zm-11.705,56.37c4.929,-10.781 28.339,-62.839 40.661,-56.37c-0,0 9.857,4.621 -2.157,45.897c0,0 -12.937,51.75 -30.803,47.437c-7.701,-1.848 -8.317,-20.33 -7.701,-36.964Zm-13.245,58.527c6.16,23.718 2.464,58.218 -4.621,55.754c-4.62,-1.848 -0.308,-30.187 4.621,-55.754Z" style="fill-rule:nonzero;"/><path d="M1718.79,920.619c32.344,0.616 60.375,-60.99 65.611,-73.312c1.232,-2.464 1.54,-5.236 0.924,-7.701c-0.616,-2.464 -1.54,-4.62 -2.772,-6.468c-0.616,-1.233 -2.772,-1.233 -3.388,0.308c-22.179,53.598 -52.058,77.624 -59.451,76.392c-6.161,-0.924 -5.853,-25.875 6.161,-69c34.808,-20.022 48.053,-58.218 48.053,-58.218c21.562,-60.067 -11.705,-60.375 -11.705,-60.375c-33.884,-0.924 -60.375,102.576 -60.375,102.576c0,-0 -28.031,95.182 16.942,95.798Zm49.901,-188.825c0,0 -7.7,5.237 -10.473,12.938c0,-0 -1.232,-13.246 10.473,-12.938Zm0.309,8.009c-0,0 3.696,16.942 -4.929,40.045c-5.237,14.169 -15.71,32.959 -33.576,47.437c7.085,-20.946 29.263,-81.629 38.505,-87.482Z" style="fill-rule:nonzero;"/><path d="M1788.4,918.771c18.482,2.772 32.651,-14.478 41.276,-29.879c0.308,33.575 24.027,31.727 24.027,31.727c32.343,-0.924 56.986,-64.995 60.374,-74.236c0.309,-1.232 0.617,-2.464 0.617,-3.388c-0,-3.389 -1.233,-6.777 -2.465,-9.241c-0.924,-1.54 -3.388,-1.232 -4.312,0.308c-20.638,54.214 -48.67,79.472 -53.29,76.084c-5.853,-4.312 5.545,-57.294 20.33,-95.49c0.616,-1.541 0.924,-3.081 1.232,-4.621c0.924,-12.629 -6.468,-20.638 -15.401,-23.102c-3.389,-0.925 -6.777,0.924 -8.009,4.004c-1.848,4.312 -3.389,8.625 -4.929,12.629c-2.772,-6.776 -8.009,-11.705 -16.326,-12.013c-30.803,-1.232 -53.906,44.665 -53.906,44.665c-21.254,42.509 -16.325,78.857 10.782,82.553Zm81.013,-104.731c-0,-0 -0.925,-12.322 -2.773,-16.326c0,-0 9.241,5.236 2.773,16.326Zm-69,37.58c-0,-0 23.103,-49.902 34.808,-48.67c8.933,0.616 4.62,24.951 1.848,36.04c-0.308,1.848 -0.616,3.697 -1.232,5.237l-0,0.308c-0.308,1.54 -0.616,2.772 -0.924,4.312c-2.465,6.469 -23.411,60.375 -43.741,60.991c-0,0 -15.094,-4.928 9.241,-58.218Z" style="fill-rule:nonzero;"/><path d="M1906.07,926.472c-32.344,40.352 1.848,49.901 1.848,49.901c35.732,10.474 59.45,-37.888 73.62,-85.941c23.41,-14.786 36.964,-29.879 44.665,-44.357c2.772,-5.545 2.156,-10.165 -0,-13.553c-0.616,-0.617 -1.54,-0.617 -2.156,0.308c-10.782,19.406 -24.335,32.959 -38.197,43.432c7.393,-28.647 12.014,-54.83 13.554,-65.611c0.924,-7.085 -1.848,-13.861 -7.701,-17.866c-3.696,-2.464 -7.701,-4.004 -10.781,-4.62c-3.081,-0.616 -6.161,1.232 -6.777,4.62c-0.616,3.697 -1.232,9.549 -2.464,16.326c-22.179,81.629 -47.437,85.017 -47.437,85.017c-5.853,-3.696 8.317,-48.361 22.794,-81.937c2.772,-6.468 0.616,-14.169 -5.545,-17.866c-4.004,-2.464 -8.932,-3.388 -14.477,-3.696c-2.156,-0 -4.005,1.232 -4.621,3.08c-21.87,48.67 -22.794,73.62 -22.794,73.62c-4.005,37.889 23.718,36.04 23.718,36.04c0,0 18.483,2.465 36.965,-31.111c-1.849,6.777 -4.313,14.786 -7.085,23.102c-19.098,9.858 -36.348,17.558 -47.129,31.112Zm3.696,37.58c-0,0 -15.094,-1.848 2.772,-26.799c0,0 10.781,-14.786 35.732,-28.647c-10.781,28.339 -25.259,56.37 -38.504,55.446Zm85.633,-148.472c0,-0 -1.232,-8.933 -4.928,-17.558c-0,-0 8.317,3.08 4.928,17.558Zm-53.906,-0c0,-0 0.617,-5.237 0,-15.094c0,0 5.853,4.621 0,15.094Z" style="fill-rule:nonzero;"/></g></svg>