<?xml version="1.0" encoding="UTF-8" standalone="no"?><!DOCTYPE svg PUBLIC "-//W3C//DTD SVG 1.1//EN" "http://www.w3.org/Graphics/SVG/1.1/DTD/svg11.dtd"><svg width="100%" height="100%" viewBox="0 0 3332 1706" version="1.1" xmlns="http://www.w3.org/2000/svg" xmlns:xlink="http://www.w3.org/1999/xlink" xml:space="preserve" xmlns:serif="http://www.serif.com/" style="fill-rule:evenodd;clip-rule:evenodd;stroke-linejoin:round;stroke-miterlimit:2;"><g><rect x="0" y="506.06" width="734.124" height="687.059" style="fill:#fefffd;"/><clipPath id="_clip1"><rect x="0" y="506.06" width="734.124" height="687.059"/></clipPath><g clip-path="url(#_clip1)"><path d="M392.572,506.06l96.227,97.198l-146.183,147.658l146.437,147.297l-146.657,147.124l146.419,145.883l-146.657,-0l-146.419,-145.883l146.657,-147.124l-146.437,-147.297l146.183,-147.658l-100.394,-97.198l-241.748,-0l0,687.058l734.124,0l-0,-687.058l-341.552,-0Z" style="fill:#d20018;"/></g><rect x="2596.91" y="506.06" width="734.124" height="687.059" style="fill:#fefffd;"/><path d="M2938.47,506.06l-96.227,97.198l146.183,147.658l-146.438,147.297l146.657,147.124l-146.418,145.883l146.657,-0l146.418,-145.883l-146.657,-147.124l146.438,-147.297l-146.183,-147.658l100.393,-97.198l241.748,-0l0,687.058l-734.123,0l-0,-687.058l341.552,-0Z" style="fill:#d20018;"/><path id="Left" d="M953.563,677.824l219.439,-171.764l0,687.058l-219.439,-171.764l-219.439,171.764l-0,-687.058l219.439,171.764Z" style="fill:#9d0a0e;"/><clipPath id="_clip2"><path id="Left1" serif:id="Left" d="M953.563,677.824l219.439,-171.764l0,687.058l-219.439,-171.764l-219.439,171.764l-0,-687.058l219.439,171.764Z"/></clipPath><g clip-path="url(#_clip2)"><rect x="925.93" y="655.785" width="55.265" height="387.607" style="fill:#390;"/></g><path id="Right" d="M2377.47,677.824l219.44,-171.764l-0,687.058l-219.44,-171.764l-219.439,171.764l0,-687.058l219.439,171.764Z" style="fill:#9d0a0e;"/><clipPath id="_clip3"><path d="M2377.47,677.824l219.44,-171.764l-0,687.058l-219.44,-171.764l-219.439,171.764l0,-687.058l219.439,171.764Z"/></clipPath><g clip-path="url(#_clip3)"><rect x="2349.84" y="655.785" width="55.265" height="387.607" style="fill:#390;"/></g><rect x="1173" y="506.06" width="985.033" height="687.059" style="fill:#d20018;"/><rect x="1516.72" y="506.06" width="297.592" height="687.059" style="fill:#390;"/><path d="M2073.55,715.899c-0,-73.786 -59.905,-133.691 -133.691,-133.691l-545.999,0c-73.786,0 -133.691,59.905 -133.691,133.691l0,267.38c0,73.786 59.905,133.691 133.691,133.691l545.999,-0c73.786,-0 133.691,-59.905 133.691,-133.691l-0,-267.38Z" style="fill:#fefffd;"/><path d="M423.434,160.54c6.575,9.777 22.631,34.55 70.931,64.927c53.117,33.408 195.202,86.456 208.218,92.553c14.432,6.76 68.724,34.18 79.493,42.023c19.219,13.997 35.972,34.721 48.446,54.402c3.454,5.45 62.873,116.964 74.578,152.077c3.807,11.419 8.868,21.202 12.426,32.304l0.094,0.624c2.145,15.066 9.855,80.56 9.855,80.56c1.614,13.703 14.05,23.518 27.753,21.903c13.703,-1.614 23.518,-14.049 21.903,-27.753c0,0 -10.474,-85.706 -11.35,-88.567c-3.699,-12.086 -9.145,-22.579 -13.247,-34.883c-12.543,-37.627 -76.079,-157.191 -79.78,-163.031c-15.677,-24.735 -37.089,-50.462 -61.242,-68.053c-11.912,-8.676 -71.755,-39.407 -87.72,-46.885c-12.665,-5.932 -151.122,-57.091 -202.807,-89.598c-46.748,-29.402 -56.9,-52.497 -60.723,-56.774c-7.166,-8.018 -14.676,-9.122 -19.803,-9.122c-13.798,-0 -25,11.202 -25,25c-0,7.221 3.069,13.732 7.975,18.293Zm15.62,6.669l0.09,0.003l-0.797,-0.061l0.707,0.058Zm-1.432,-0.118l0.22,0.018l-0.832,-0.105l0.612,0.087Zm-1.458,-0.209l0.328,0.047l-0.712,-0.127l0.384,0.08Zm-1.483,-0.31l0.25,0.053l-0.362,-0.084l0.112,0.031Z" style="fill:#390;"/><path d="M936.948,630.243c-7.277,5.155 -11.556,14.049 -10.374,23.51c2.317,18.549 12.549,25.105 16.86,27.089c7.918,3.643 26.791,6.282 36.975,-16.511c11.662,-26.099 31.662,-164.115 6.585,-267.87c-16.318,-67.512 -43.508,-94.38 -56.806,-110.812c-27.657,-34.174 -22.6,-23.999 -46.817,-56.742c-4.754,-6.428 -58.748,-58.804 -94.956,-126.821c-5.293,-9.942 -16.203,-57.522 -16.411,-77.349c-0.145,-13.797 -11.464,-24.881 -25.261,-24.736c-13.797,0.145 -24.881,11.464 -24.736,25.262c0.27,25.766 15.394,87.397 22.272,100.319c37.889,71.173 93.918,126.331 98.892,133.057c24.934,33.712 19.675,23.279 48.15,58.465c10.951,13.531 33.634,35.507 47.072,91.104c17.964,74.326 4.267,183.887 -1.445,222.035Z" style="fill:#390;"/><path d="M2907.35,1545.05c-6.575,-9.777 -22.631,-34.549 -70.931,-64.927c-53.117,-33.408 -195.201,-86.456 -208.218,-92.553c-14.432,-6.76 -68.724,-34.179 -79.493,-42.022c-19.218,-13.997 -35.972,-34.722 -48.446,-54.403c-3.454,-5.45 -62.873,-116.964 -74.578,-152.076c-3.807,-11.419 -8.868,-21.202 -12.426,-32.305l-0.094,-0.624c-2.144,-15.065 -9.855,-80.559 -9.855,-80.559c-1.614,-13.703 -14.05,-23.518 -27.753,-21.904c-13.703,1.614 -23.517,14.05 -21.903,27.753c-0,-0 10.474,85.707 11.35,88.568c3.699,12.085 9.145,22.578 13.247,34.883c12.543,37.626 76.079,157.191 79.78,163.031c15.677,24.734 37.089,50.461 61.242,68.052c11.912,8.676 71.756,39.407 87.72,46.885c12.666,5.933 151.122,57.092 202.808,89.599c46.747,29.401 56.9,52.496 60.722,56.774c7.166,8.017 14.676,9.122 19.803,9.122c13.798,-0 25,-11.202 25,-25c0,-7.222 -3.068,-13.733 -7.975,-18.294Zm-11.497,-6.084l0.362,0.084l-0.112,-0.032l-0.25,-0.052Zm-1.561,-0.305l0.713,0.127l-0.385,-0.08l-0.328,-0.047Zm-1.35,-0.18l0.832,0.106l-0.612,-0.088l-0.22,-0.018Zm-1.302,-0.102l0.797,0.06l-0.707,-0.058l-0.09,-0.002Z" style="fill:#390;"/><path d="M2393.84,1075.35c7.277,-5.155 11.556,-14.049 10.374,-23.51c-2.317,-18.549 -12.549,-25.105 -16.86,-27.088c-7.918,-3.643 -26.791,-6.282 -36.975,16.51c-11.662,26.099 -31.662,164.116 -6.584,267.87c16.317,67.513 43.507,94.38 56.805,110.812c27.657,34.175 22.6,23.999 46.817,56.743c4.754,6.427 58.748,58.803 94.956,126.82c5.293,9.943 16.203,57.523 16.411,77.349c0.145,13.797 11.464,24.881 25.261,24.736c13.797,-0.145 24.881,-11.464 24.736,-25.261c-0.27,-25.767 -15.393,-87.398 -22.272,-100.319c-37.889,-71.174 -93.918,-126.332 -98.892,-133.057c-24.934,-33.713 -19.675,-23.279 -48.15,-58.465c-10.951,-13.532 -33.634,-35.507 -47.072,-91.105c-17.964,-74.325 -4.267,-183.886 1.445,-222.035Z" style="fill:#390;"/></g><g id="Extra-Font" serif:id="Extra Font"><path d="M1347.45,789.945c0.808,1.616 3.232,1.616 4.444,-0.404c5.253,-10.506 21.415,-41.214 44.042,-59.396c-16.162,34.344 -28.284,77.982 -34.748,107.882c-0,0 -6.869,28.688 -6.465,56.568c-23.435,5.253 -25.052,33.536 -25.052,33.536c-4.848,45.254 35.153,46.871 35.153,46.871c20.203,1.616 43.638,-7.273 65.861,-25.456c8.485,10.101 18.586,25.86 35.153,25.86c18.586,-0 21.414,-19.799 21.818,-27.88c0.405,-1.212 -1.212,-2.02 -2.424,-1.212c-5.657,4.04 -10.505,3.636 -10.505,3.636c-8.485,0 -18.587,-5.657 -29.9,-12.93c27.071,-27.879 50.911,-69.901 61.82,-123.236c22.627,-106.67 -73.942,-110.307 -73.942,-110.307c-47.678,-1.212 -73.538,26.264 -86.063,46.871c-1.212,1.616 -2.021,3.636 -2.425,5.656c-1.616,6.061 -3.636,20.607 3.233,33.941Zm17.778,173.339c-28.284,0.404 -23.435,-33.537 -23.435,-33.537c1.616,-14.141 7.677,-20.202 13.334,-22.627c2.02,21.011 9.697,39.194 29.496,41.618c1.616,0 2.424,-1.212 2.02,-2.424c-1.616,-5.657 -1.616,-17.779 -0.404,-32.729c10.505,6.465 21.415,14.95 29.496,21.819c-13.738,16.566 -30.304,27.88 -50.507,27.88Zm128.085,-213.745c0,0 -8.889,-14.545 -21.011,-25.455c0,0 17.375,3.637 21.011,25.455Zm-60.204,-33.536c0,0 55.356,4.849 33.133,105.054c-0,0 -12.93,60.204 -41.214,102.226c-12.121,-8.486 -24.647,-16.971 -37.173,-22.627c2.425,-18.183 6.465,-38.385 11.314,-56.972c12.929,-48.082 26.667,-85.659 26.667,-85.659c6.465,-22.627 -19.394,-29.092 -27.071,-30.708c10.505,-7.677 21.819,-12.526 34.344,-11.314Z" style="fill-rule:nonzero;"/><path d="M1532.11,972.981c24.244,3.637 42.83,-18.99 54.144,-39.193c0.404,44.042 31.516,41.618 31.516,41.618c42.425,-1.213 74.75,-85.256 79.194,-97.377c0.404,-1.617 0.808,-3.233 0.808,-4.445c0,-4.445 -1.616,-8.889 -3.232,-12.122c-1.212,-2.02 -4.445,-1.616 -5.657,0.404c-27.071,71.114 -63.84,104.246 -69.901,99.802c-7.677,-5.657 7.273,-75.154 26.668,-125.257c0.808,-2.02 1.212,-4.04 1.616,-6.061c1.212,-16.566 -8.485,-27.071 -20.203,-30.304c-4.445,-1.212 -8.889,1.212 -10.505,5.253c-2.425,5.657 -4.445,11.313 -6.465,16.566c-3.637,-8.889 -10.506,-15.354 -21.415,-15.758c-40.405,-1.616 -70.709,58.588 -70.709,58.588c-27.88,55.759 -21.415,103.438 14.141,108.286Zm106.267,-137.378c-0,-0 -1.213,-16.162 -3.637,-21.415c0,0 12.122,6.869 3.637,21.415Zm-90.509,49.295c0,-0 30.305,-65.457 45.659,-63.841c11.717,0.808 6.06,32.728 2.424,47.274c-0.404,2.425 -0.808,4.849 -1.616,6.869l-0,0.404c-0.404,2.021 -0.808,3.637 -1.212,5.657c-3.233,8.485 -30.709,79.195 -57.376,80.003c-0,-0 -19.799,-6.465 12.121,-76.366Z" style="fill-rule:nonzero;"/><path d="M1707.47,779.439c-24.243,91.721 -27.88,142.227 -27.88,142.227c-4.445,55.76 31.112,53.74 31.112,53.74c40.406,0.808 72.73,-80.003 80.003,-96.165c1.212,-3.233 1.616,-6.869 0.808,-10.102c-0.404,-3.232 -2.02,-6.06 -3.232,-8.485c-1.213,-1.616 -4.041,-1.616 -4.849,0.404c-31.516,77.983 -63.841,107.479 -71.922,100.206c-12.121,-10.91 19.799,-127.681 36.769,-186.673c28.284,-0 35.557,9.697 37.173,14.95c0.808,1.616 2.424,2.02 3.637,0.808c5.656,-6.061 16.97,-20.607 -1.213,-29.496c-6.868,-3.636 -21.01,-3.232 -35.152,-2.424c2.02,-6.869 3.636,-12.122 4.444,-14.95c0.808,-1.617 0.808,-3.637 0.404,-5.657c-2.424,-15.354 -21.01,-19.395 -28.687,-20.203c-2.021,0 -3.637,0.808 -4.041,2.829c-4.849,14.95 -8.889,29.091 -12.93,42.425c-23.435,2.425 -37.173,0.808 -46.062,-2.828c-5.657,-2.424 -8.889,-7.273 -10.505,-10.91c-0.404,-1.616 -2.829,-1.616 -3.637,-0.404c-3.636,5.253 -9.293,14.95 -5.656,22.627c4.848,10.91 14.546,15.758 61.416,8.081Zm42.829,-31.92c0,0 -0.808,-10.101 -3.232,-15.354c0,0 8.889,4.445 3.232,15.354Z" style="fill-rule:nonzero;"/><path d="M1810.09,975.002c63.033,6.06 101.822,-88.488 105.054,-96.569c0,-0.404 0.404,-0.808 0.404,-1.213c1.617,-6.464 0,-12.929 -2.02,-16.566c-0.404,-1.616 -2.828,-1.616 -3.636,0c-8.485,19.395 -47.275,101.822 -94.953,98.993c-21.011,-2.424 -19.395,-27.879 -14.546,-48.486c16.566,-1.212 53.335,-8.889 67.477,-51.719c18.991,-58.588 -17.778,-58.992 -17.778,-58.992c-44.85,-0.404 -71.114,62.629 -71.114,62.629c0,-0 -50.506,103.437 31.112,111.923Zm29.092,-163.238c2.021,-1.616 6.061,-2.425 8.889,-1.212c0,-0 -9.697,4.444 -13.737,12.929c-0,0 -0,-7.677 4.848,-11.717Zm-29.092,70.709c0,0 27.072,-67.881 42.426,-67.073c0,0 10.505,4.445 -3.232,43.638c-10.91,29.496 -33.537,37.173 -44.85,39.193c2.828,-9.293 5.656,-15.758 5.656,-15.758Z" style="fill-rule:nonzero;"/><path d="M1882.82,972.577c-0.404,21.415 26.264,41.214 54.547,21.415c24.648,-16.566 19.395,-67.073 13.738,-98.185c17.779,-11.718 36.769,-18.587 44.042,-21.415c4.445,-1.616 7.677,-5.253 8.889,-9.697c0,-0.808 0,-2.02 0.404,-3.233c0,-1.616 -1.616,-3.232 -3.636,-2.424c-21.011,6.465 -38.385,14.142 -52.931,22.627c-0.404,-2.424 -0.808,-4.04 -0.808,-5.657c-2.021,-7.677 -3.233,-14.546 -4.041,-20.202c21.011,-12.93 33.133,-31.517 28.284,-44.85c-6.061,-16.567 -29.496,-8.89 -29.496,-8.89c-0,0 -33.941,8.89 -37.981,39.194c-0,-0 -3.637,30.304 11.313,65.052c-33.536,33.133 -32.324,66.265 -32.324,66.265Zm82.427,-148.692c0,0 -1.616,-10.101 -5.657,-14.95c0,0 10.506,2.021 5.657,14.95Zm-17.778,-7.677c-0,0 6.869,-1.212 7.273,6.465c-0,4.849 -0.808,8.081 -13.334,19.799c-1.616,-25.86 6.061,-26.264 6.061,-26.264Zm-27.476,106.267c3.637,17.778 6.061,46.062 -14.95,61.012c0,-0 -18.99,-20.203 14.95,-61.012Z" style="fill-rule:nonzero;"/></g></svg>