<svg xmlns="http://www.w3.org/2000/svg" viewBox="0 0 3332 1706" xml:space="preserve" style="fill-rule:evenodd;clip-rule:evenodd;stroke-linejoin:round;stroke-miterlimit:2"><path style="fill:#fefffd" d="M0 506.06h734.124v687.059H0z"/><clipPath id="a"><path d="M0 506.06h734.124v687.059H0z"/></clipPath><g clip-path="url(#a)"><path d="m392.572 506.06 96.227 97.198-146.183 147.658 146.437 147.297-146.657 147.124 146.419 145.883H342.158l-146.419-145.883 146.657-147.124-146.437-147.297 146.183-147.658-100.394-97.198H0v687.058h734.124V506.06H392.572Z" style="fill:#d20018"/></g><path style="fill:#fefffd" d="M2596.91 506.06h734.124v687.059H2596.91z"/><path d="m2938.47 506.06-96.227 97.198 146.183 147.658-146.438 147.297 146.657 147.124-146.418 145.883h146.657l146.418-145.883-146.657-147.124 146.438-147.297L2988.9 603.258l100.393-97.198h241.748v687.058h-734.123V506.06h341.552Z" style="fill:#d20018"/><path d="m953.563 677.824 219.439-171.764v687.058l-219.439-171.764-219.439 171.764V506.06l219.439 171.764Z" style="fill:#9d0a0e"/><clipPath id="b"><path d="m953.563 677.824 219.439-171.764v687.058l-219.439-171.764-219.439 171.764V506.06l219.439 171.764Z"/></clipPath><g clip-path="url(#b)"><path style="fill:#390" d="M925.93 655.785h55.265v387.607H925.93z"/></g><path d="m2377.47 677.824 219.44-171.764v687.058l-219.44-171.764-219.439 171.764V506.06l219.439 171.764Z" style="fill:#9d0a0e"/><clipPath id="c"><path d="m2377.47 677.824 219.44-171.764v687.058l-219.44-171.764-219.439 171.764V506.06l219.439 171.764Z"/></clipPath><g clip-path="url(#c)"><path style="fill:#390" d="M2349.84 655.785h55.265v387.607h-55.265z"/></g><path style="fill:#d20018" d="M1173 506.06h985.033v687.059H1173z"/><path style="fill:#390" d="M1516.72 506.06h297.592v687.059H1516.72z"/><path d="M2073.55 715.899c0-73.786-59.905-133.691-133.691-133.691H1393.86c-73.786 0-133.691 59.905-133.691 133.691v267.38c0 73.786 59.905 133.691 133.691 133.691h545.999c73.786 0 133.691-59.905 133.691-133.691v-267.38Z" style="fill:#fefffd"/><path d="M423.434 160.54c6.575 9.777 22.631 34.55 70.931 64.927 53.117 33.408 195.202 86.456 208.218 92.553 14.432 6.76 68.724 34.18 79.493 42.023 19.219 13.997 35.972 34.721 48.446 54.402 3.454 5.45 62.873 116.964 74.578 152.077 3.807 11.419 8.868 21.202 12.426 32.304l.094.624c2.145 15.066 9.855 80.56 9.855 80.56 1.614 13.703 14.05 23.518 27.753 21.903 13.703-1.614 23.518-14.049 21.903-27.753 0 0-10.474-85.706-11.35-88.567-3.699-12.086-9.145-22.579-13.247-34.883-12.543-37.627-76.079-157.191-79.78-163.031-15.677-24.735-37.089-50.462-61.242-68.053-11.912-8.676-71.755-39.407-87.72-46.885-12.665-5.932-151.122-57.091-202.807-89.598-46.748-29.402-56.9-52.497-60.723-56.774-7.166-8.018-14.676-9.122-19.803-9.122-13.798 0-25 11.202-25 25 0 7.221 3.069 13.732 7.975 18.293Zm15.62 6.669.09.003-.797-.061.707.058Zm-1.432-.118.22.018-.832-.105.612.087Zm-1.458-.209.328.047-.712-.127.384.08Zm-1.483-.31.25.053-.362-.084.112.031Z" style="fill:#390"/><path d="M936.948 630.243c-7.277 5.155-11.556 14.049-10.374 23.51 2.317 18.549 12.549 25.105 16.86 27.089 7.918 3.643 26.791 6.282 36.975-16.511 11.662-26.099 31.662-164.115 6.585-267.87-16.318-67.512-43.508-94.38-56.806-110.812-27.657-34.174-22.6-23.999-46.817-56.742-4.754-6.428-58.748-58.804-94.956-126.821-5.293-9.942-16.203-57.522-16.411-77.349C771.859 10.94 760.54-.144 746.743.001c-13.797.145-24.881 11.464-24.736 25.262.27 25.766 15.394 87.397 22.272 100.319 37.889 71.173 93.918 126.331 98.892 133.057 24.934 33.712 19.675 23.279 48.15 58.465 10.951 13.531 33.634 35.507 47.072 91.104 17.964 74.326 4.267 183.887-1.445 222.035ZM2907.35 1545.05c-6.575-9.777-22.631-34.549-70.931-64.927-53.117-33.408-195.201-86.456-208.218-92.553-14.432-6.76-68.724-34.179-79.493-42.022-19.218-13.997-35.972-34.722-48.446-54.403-3.454-5.45-62.873-116.964-74.578-152.076-3.807-11.419-8.868-21.202-12.426-32.305l-.094-.624c-2.144-15.065-9.855-80.559-9.855-80.559-1.614-13.703-14.05-23.518-27.753-21.904-13.703 1.614-23.517 14.05-21.903 27.753 0 0 10.474 85.707 11.35 88.568 3.699 12.085 9.145 22.578 13.247 34.883 12.543 37.626 76.079 157.191 79.78 163.031 15.677 24.734 37.089 50.461 61.242 68.052 11.912 8.676 71.756 39.407 87.72 46.885 12.666 5.933 151.122 57.092 202.808 89.599 46.747 29.401 56.9 52.496 60.722 56.774 7.166 8.017 14.676 9.122 19.803 9.122 13.798 0 25-11.202 25-25 0-7.222-3.068-13.733-7.975-18.294Zm-11.497-6.084.362.084-.112-.032-.25-.052Zm-1.561-.305.713.127-.385-.08-.328-.047Zm-1.35-.18.832.106-.612-.088-.22-.018Zm-1.302-.102.797.06-.707-.058-.09-.002Z" style="fill:#390"/><path d="M2393.84 1075.35c7.277-5.155 11.556-14.049 10.374-23.51-2.317-18.549-12.549-25.105-16.86-27.088-7.918-3.643-26.791-6.282-36.975 16.51-11.662 26.099-31.662 164.116-6.584 267.87 16.317 67.513 43.507 94.38 56.805 110.812 27.657 34.175 22.6 23.999 46.817 56.743 4.754 6.427 58.748 58.803 94.956 126.82 5.293 9.943 16.203 57.523 16.411 77.349.145 13.797 11.464 24.881 25.261 24.736 13.797-.145 24.881-11.464 24.736-25.261-.27-25.767-15.393-87.398-22.272-100.319-37.889-71.174-93.918-126.332-98.892-133.057-24.934-33.713-19.675-23.279-48.15-58.465-10.951-13.532-33.634-35.507-47.072-91.105-17.964-74.325-4.267-183.886 1.445-222.035Z" style="fill:#390"/><g><path d="M1408.96 733.656c-10.896-1.676-20.395 0-28.497 3.073-6.425-7.263-17.042-6.425-17.042-6.425s-51.964 1.117-84.93 85.769c0 0-32.967 88.283 27.099 101.414 20.954 4.47 36.04-3.912 46.936-16.763.279 2.794.558 5.588 1.397 7.543 2.514 7.823 10.616 11.734 18.438 8.661 1.118-.28 1.397-1.956.559-2.515-6.146-4.749-6.984-22.908 9.499-75.152 3.073.838 4.47 2.794 5.029 4.191.559 1.117 1.956 1.117 2.514.279 2.515-3.632 6.426-10.337-.279-15.645-3.632-2.794-12.572-1.956-19.557-.559-5.866.838-10.616 1.956-10.616 1.956-11.175 1.955-17.601.838-21.512-1.677-1.956-1.117-3.073-2.793-3.911-4.19-.559-.838-1.676-.838-2.235.279-1.676 2.515-3.632 6.985-2.794 11.455 1.956 7.543 6.426 12.013 29.614 5.587 1.397-.279 3.073-.559 4.191-.838-4.191 20.115-18.998 80.74-51.685 67.33 0 0-34.084-14.528-5.308-89.401 0 0 8.381-21.232 20.115-41.906 12.013-20.674 27.658-40.231 41.068-38.834 0 0 2.794.28 4.191 3.911-12.293 6.985-19.277 16.484-19.277 16.484-25.703 34.084-4.749 39.671-4.749 39.671 8.66 2.515 17.321-3.352 22.908-9.778 9.22-10.337 13.131-25.144 13.131-25.144 1.956-7.822 2.235-13.689 1.118-18.159 6.705-2.235 14.807-2.515 24.026-.28 25.144 6.426 66.213 28.497 90.798 37.437 24.585 8.94 63.418 12.572 76.27-12.852 8.102-15.645 3.073-25.423-.28-29.893-1.117-1.117-2.793-.559-3.352.838-5.867 20.674-34.922 24.585-34.922 24.585-43.304 5.867-88.563-24.305-127.955-30.452Zm-38.834 27.379s-2.235 5.867-5.308 12.572c-4.47 8.94-10.895 18.998-15.365 16.204-7.544-4.47 8.94-26.261 8.94-26.261 3.073-4.47 7.822-9.499 13.968-13.69 0 3.073-.838 6.705-2.235 11.175Zm203.946-12.013s3.911 13.41-6.426 18.718c0 0 6.985-12.851 6.426-18.718Z" style="fill-rule:nonzero"/><path d="M1410.08 918.884c1.397 0 2.794-1.118 2.794-2.794.28-4.47 1.118-9.499 1.676-14.807 19.278-61.184 49.73-88.842 54.2-88.284 0 0-33.246 43.863-13.131 56.155 25.144 11.734 47.494-16.762 47.494-16.762 2.235-3.632 3.353-8.661 2.794-12.852 0-1.117-1.676-1.397-2.235-.558-8.661 12.572-23.468 22.629-38.275 24.026-1.955 0-2.794-2.235-1.397-3.352 21.792-18.998 31.291-50.568 18.439-58.39-16.762-10.058-38.833 20.674-38.833 20.674-5.867 7.543-11.175 15.645-15.645 22.909 2.514-6.985 5.028-13.969 8.102-21.792.558-1.117.838-2.235.838-3.352 1.397-12.293-6.705-20.674-15.645-22.909-2.235-.559-4.471.838-5.588 2.793-9.499 23.747-15.086 44.142-18.439 58.949-3.632 14.528-6.146 36.319-6.146 46.656 1.397 8.661 10.895 13.69 18.997 13.69Zm72.08-95.827s1.117-7.543-1.118-13.689c0 0 7.543 4.749 1.118 13.689Zm-52.523-.279s0-8.382-.838-12.572c0 0 5.587 4.19.838 12.572Z" style="fill-rule:nonzero"/><path d="M1521.27 918.045c43.583 4.191 70.403-61.183 72.638-66.771 0-.279.279-.559.279-.838 1.118-4.47 0-8.94-1.397-11.454-.279-1.118-1.955-1.118-2.514 0-5.867 13.41-32.687 70.403-65.654 68.447-14.527-1.676-13.41-19.277-10.057-33.525 11.454-.838 36.877-6.147 46.656-35.761 13.13-40.509-12.293-40.789-12.293-40.789-31.011-.279-49.17 43.304-49.17 43.304s-34.923 71.52 21.512 77.387Zm20.115-112.868c1.397-1.118 4.19-1.676 6.146-.838 0 0-6.705 3.073-9.499 8.94 0 0 0-5.308 3.353-8.102Zm-20.115 48.891s18.718-46.935 29.334-46.377c0 0 7.264 3.073-2.235 30.173-7.543 20.395-23.188 25.703-31.011 27.1 1.956-6.426 3.912-10.896 3.912-10.896Z" style="fill-rule:nonzero"/><path d="M1607.6 918.045c43.583 4.191 70.403-61.183 72.638-66.771 0-.279.28-.559.28-.838 1.117-4.47 0-8.94-1.397-11.454-.28-1.118-1.956-1.118-2.515 0-5.866 13.41-32.687 70.403-65.653 68.447-14.528-1.676-13.41-19.277-10.058-33.525 11.455-.838 36.878-6.147 46.656-35.761 13.131-40.509-12.292-40.789-12.292-40.789-31.011-.279-49.171 43.304-49.171 43.304s-34.922 71.52 21.512 77.387Zm20.115-112.868c1.397-1.118 4.191-1.676 6.147-.838 0 0-6.705 3.073-9.499 8.94 0 0 0-5.308 3.352-8.102Zm-20.115 48.891s18.719-46.935 29.335-46.377c0 0 7.264 3.073-2.235 30.173-7.543 20.395-23.188 25.703-31.011 27.1 1.956-6.426 3.911-10.896 3.911-10.896Z" style="fill-rule:nonzero"/><path d="M1687.22 782.827c-16.763 63.418-19.277 98.341-19.277 98.341-3.073 38.554 21.512 37.157 21.512 37.157 27.938.559 50.288-55.317 55.317-66.492.838-2.235 1.117-4.749.558-6.984-.279-2.236-1.397-4.191-2.235-5.867-.838-1.118-2.793-1.118-3.352.279-21.792 53.92-44.142 74.314-49.729 69.286-8.382-7.544 13.689-88.284 25.423-129.073 19.556 0 24.585 6.705 25.703 10.337.558 1.118 1.676 1.397 2.514.559 3.911-4.191 11.734-14.248-.838-20.395-4.75-2.514-14.528-2.235-24.306-1.676 1.397-4.749 2.514-8.381 3.073-10.337.559-1.117.559-2.514.28-3.911-1.677-10.616-14.528-13.41-19.836-13.969-1.397 0-2.515.559-2.794 1.956-3.352 10.337-6.146 20.115-8.94 29.334-16.204 1.677-25.703.559-31.849-1.955-3.911-1.677-6.146-5.029-7.264-7.544-.279-1.117-1.956-1.117-2.514-.279-2.515 3.632-6.426 10.337-3.912 15.645 3.353 7.543 10.058 10.896 42.466 5.588Zm29.614-22.071s-.559-6.985-2.235-10.616c0 0 6.146 3.073 2.235 10.616Z" style="fill-rule:nonzero"/><path d="M1747.85 918.325c29.334-.838 51.685-58.949 54.758-67.33.279-1.118.558-2.235.558-3.073 0-3.073-1.117-6.147-2.514-8.382-.838-1.397-3.073-1.117-3.632.28-18.718 49.17-44.142 72.079-48.332 69.006-5.308-3.911 6.146-48.053 19.556-82.696.559-1.117.838-2.514.838-3.632 1.118-11.734-7.263-18.159-16.204-19.835-2.793-.28-5.308 1.117-6.425 3.911-19.277 49.17-20.115 74.873-20.115 74.873-3.632 38.554 21.512 36.878 21.512 36.878Zm17.321-97.224c0 5.867-2.794 6.985-2.794 6.985s1.397-9.778-.838-14.248c0 0 3.911 1.676 3.632 7.263Zm-3.352-21.512c7.822 5.867 13.41-2.514 15.645-6.984.838-1.676 1.397-3.632 1.117-5.588-1.397-9.219-8.66-12.292-13.131-13.13-1.676-.28-3.631.558-4.19 2.514-6.985 17.042.559 23.188.559 23.188Zm12.851-16.204s3.911 5.029-1.118 10.617c0 0 1.677-9.22 1.118-10.617Z" style="fill-rule:nonzero"/><path d="M1801.77 918.884c1.396 0 2.793-1.397 2.793-3.074.28-4.19 1.118-9.219 1.677-14.527 19.277-61.463 49.729-89.122 54.199-88.284 7.543 1.397-11.175 33.526-11.175 33.526-15.366 25.702-15.366 46.376-15.366 46.376-.559 26.262 18.159 25.424 18.159 25.424 29.335-.838 58.39-58.111 62.86-67.33.559-1.118.839-2.235.839-3.353 0-3.352-1.397-6.425-2.794-8.381-.838-1.397-2.515-1.118-3.353.279-22.629 48.612-52.523 72.08-56.713 69.007-5.588-3.632 9.498-36.04 23.467-58.111 15.087-24.026 11.734-43.583-2.235-49.17-18.159-7.544-38.833 20.674-38.833 20.674-5.867 7.263-11.175 15.645-15.645 22.629 2.514-6.705 5.028-13.689 8.102-21.791.558-.838.838-1.956.838-3.073 1.397-12.572-6.705-20.674-15.645-22.909-2.235-.559-4.47.558-5.588 2.793-9.499 23.468-15.086 44.142-18.439 58.67-3.632 14.527-6.146 36.598-6.146 46.935 1.397 8.661 10.896 13.69 18.998 13.69Zm78.784-94.709s-1.397-10.617-3.632-13.69c0 0 7.823 3.632 3.632 13.69Zm-58.39-1.397s-.279-8.102-1.397-12.572c0 0 5.867 3.911 1.397 12.572Z" style="fill-rule:nonzero"/><path d="M1904.02 923.633c-29.335 36.598 1.676 45.259 1.676 45.259 32.408 9.499 53.92-34.363 66.771-77.946 21.233-13.41 33.525-27.1 40.51-40.231 2.514-5.028 1.955-9.219 0-12.292-.559-.559-1.397-.559-1.956.279-9.778 17.601-22.071 29.894-34.643 39.392 6.705-25.982 10.896-49.729 12.293-59.507.838-6.426-1.676-12.572-6.984-16.204-3.353-2.235-6.985-3.632-9.779-4.191-2.793-.558-5.587 1.118-6.146 4.191 0 .838-.279 1.676-.279 2.794-3.073-4.47-7.264-7.543-13.41-7.543-29.614-.28-45.539 39.951-45.539 39.951-15.366 34.642-1.117 60.345 20.953 61.183 8.94.28 16.484-4.749 22.071-11.734-.838 2.794-1.955 5.588-2.794 8.382-17.321 8.94-32.966 15.924-42.744 28.217Zm3.352 34.084s-13.689-1.676 2.515-24.306c0 0 9.778-13.41 32.407-25.982-9.778 25.703-22.909 51.126-34.922 50.288Zm76.829-134.66s-.838-9.219-3.911-15.086c0 0 7.543 2.514 3.911 15.086Zm-55.317 67.889s-15.924-.559-.838-44.142c0 0 15.645-40.23 27.658-40.789 8.382-.279 5.588 24.865 5.029 31.011l-.838 5.029c-2.235 6.425-15.366 46.656-31.011 48.891Z" style="fill-rule:nonzero"/><path d="M1991.19 916.369c-.279 14.807 18.16 28.497 37.716 14.807 17.042-11.454 13.41-46.377 9.499-67.889 12.293-8.102 25.424-12.851 30.452-14.807 3.073-1.117 5.308-3.631 6.147-6.705 0-.558 0-1.397.279-2.235 0-1.117-1.118-2.235-2.514-1.676-14.528 4.47-26.541 9.778-36.599 15.645-.279-1.676-.559-2.794-.559-3.911-1.396-5.308-2.235-10.058-2.793-13.969 14.527-8.94 22.909-21.791 19.556-31.011-4.191-11.454-20.394-6.146-20.394-6.146s-23.468 6.146-26.262 27.099c0 0-2.514 20.954 7.823 44.98-23.189 22.909-22.351 45.818-22.351 45.818Zm56.993-102.811s-1.117-6.984-3.911-10.337c0 0 7.264 1.397 3.911 10.337Zm-12.292-5.308s4.749-.838 5.029 4.47c0 3.353-.559 5.588-9.22 13.69-1.117-17.881 4.191-18.16 4.191-18.16Zm-18.998 73.476c2.515 12.293 4.191 31.849-10.337 42.186 0 0-13.131-13.969 10.337-42.186Z" style="fill-rule:nonzero"/></g></svg>