<?xml version="1.0" encoding="UTF-8" standalone="no"?><!DOCTYPE svg PUBLIC "-//W3C//DTD SVG 1.1//EN" "http://www.w3.org/Graphics/SVG/1.1/DTD/svg11.dtd"><svg width="100%" height="100%" viewBox="0 0 3852 383" version="1.1" xmlns="http://www.w3.org/2000/svg" xmlns:xlink="http://www.w3.org/1999/xlink" xml:space="preserve" xmlns:serif="http://www.serif.com/" style="fill-rule:evenodd;clip-rule:evenodd;stroke-linejoin:round;stroke-miterlimit:2;"><g><path d="M246.036,25.391c47.053,11.892 125.129,52.74 171.147,69.286c46.536,16.546 118.925,23.267 140.124,-23.785c13.444,-28.956 3.619,-47.053 -3.619,-55.326c-1.552,-2.068 -5.171,-1.034 -5.688,1.552c-8.79,38.262 -62.564,45.501 -62.564,45.501c-79.111,10.858 -165.977,-44.984 -239.4,-56.36c-20.165,-3.102 -37.745,0 -52.74,5.688c-12.409,-13.444 -32.058,-11.892 -32.058,-11.892c0,-0 -96.173,2.068 -148.913,158.737c-0,0 -52.74,165.977 59.979,187.693c107.548,20.683 152.533,-127.714 152.533,-127.714c-0,0 3.619,-10.858 -4.654,-18.614c-1.551,-1.034 -3.619,-0.517 -4.136,1.034c-8.273,22.234 -54.809,139.607 -134.436,126.68c-0,0 -64.116,-26.887 -18.614,-165.459c-0,-0 13.443,-39.297 33.609,-77.559c20.165,-38.263 47.052,-74.457 71.871,-71.872c0,0 5.171,0.517 8.79,7.239c-22.233,12.926 -34.126,30.507 -34.126,30.507c-44.467,63.081 -5.17,73.422 -5.17,73.422c16.028,4.654 31.54,-6.205 41.364,-18.097c16.029,-19.131 21.717,-46.535 21.717,-46.535c3.102,-14.478 2.585,-25.336 -0,-33.609c12.927,-4.137 27.404,-4.654 44.984,-0.517Zm307.652,9.307c-0,-0 9.307,24.819 -9.308,34.643c0,-0 11.376,-23.785 9.308,-34.643Zm-376.938,22.233c0,0 -3.619,10.859 -8.79,23.268c-7.239,16.546 -18.097,35.16 -26.887,29.99c-13.961,-8.273 13.961,-48.604 13.961,-48.604c5.687,-8.273 13.96,-17.58 24.818,-25.336c0,5.687 -1.034,12.409 -3.102,20.682Z" style="fill:#fefffd;fill-rule:nonzero;"/><path d="M255.86,348.037c40.848,-1.552 63.599,-33.609 76.008,-66.701c37.229,-15.512 63.599,-46.536 72.906,-60.496c4.137,-6.205 4.654,-13.961 2.068,-19.649c-1.034,-2.068 -4.136,-2.068 -5.687,-0.517c-20.166,26.887 -41.882,46.019 -62.048,57.911c6.205,-26.37 7.239,-48.604 7.239,-48.604c0,0 6.205,-83.764 -50.672,-83.764c0,0 -44.467,-1.551 -67.218,57.394c-14.477,13.961 -30.506,37.229 -37.228,73.94c-0,-0 -16.546,93.071 64.632,90.486Zm76.008,-186.659c0,-0 -10.858,-13.961 -18.097,-20.166c0,0 16.546,2.585 18.097,20.166Zm-70.32,59.979c8.273,-57.911 34.126,-70.321 34.126,-70.321c31.024,-1.551 27.921,65.15 27.921,65.15c-1.551,21.2 -4.653,38.78 -9.307,52.74c-11.892,3.62 -22.233,4.137 -31.023,1.551c-26.37,-7.238 -21.717,-49.12 -21.717,-49.12Zm-25.336,51.706c8.79,8.79 21.717,14.995 41.365,17.063c9.824,1.034 19.648,0.517 28.955,-1.034c-19.648,42.399 -49.637,44.984 -49.637,44.984c-23.268,1.551 -23.268,-36.194 -20.683,-61.013Z" style="fill:#fefffd;fill-rule:nonzero;"/><path d="M415.115,344.934c0,0 25.336,2.586 55.843,-52.74c-1.034,58.945 40.331,56.36 40.331,56.36c54.291,-1.552 95.139,-109.1 101.344,-125.129c0.517,-1.551 1.034,-3.62 1.034,-5.688c-0,-5.687 -2.586,-10.858 -4.654,-14.995c-1.551,-3.102 -5.688,-2.585 -6.722,0.518c-34.643,91.002 -81.695,132.884 -89.968,127.197c-9.824,-6.722 16.029,-100.31 41.365,-164.943c1.034,-2.068 1.551,-4.653 1.551,-6.722c1.551,-21.716 -13.444,-33.609 -29.473,-36.194c-5.687,-1.034 -10.858,1.551 -12.926,6.722c-8.79,22.233 -15.512,42.916 -21.2,61.013c-50.155,147.879 -74.974,136.504 -74.974,136.504c-9.824,-6.722 14.478,-94.105 38.78,-158.221c2.585,-6.721 2.585,-13.96 -0.517,-20.165c-6.205,-13.444 -18.614,-17.58 -32.058,-18.097c-4.136,-0 -8.273,2.585 -9.824,6.205c-36.194,92.036 -37.745,139.606 -37.745,139.606c-6.722,71.872 39.813,68.769 39.813,68.769Zm127.197,-178.903c0,0 -1.551,-17.063 -5.17,-26.37c-0,0 18.614,9.307 5.17,26.37Zm-97.724,4.654c-0,-0 0.517,-15.512 -1.034,-23.268c-0,-0 10.341,7.239 1.034,23.268Z" style="fill:#fefffd;fill-rule:nonzero;"/><path d="M613.15,349.071c2.585,-0 5.17,-2.586 5.17,-5.688c0.517,-7.756 2.068,-17.063 3.103,-26.887c35.677,-113.754 92.036,-164.943 100.309,-163.391c13.961,2.585 -20.682,62.047 -20.682,62.047c-28.438,47.57 -28.438,85.832 -28.438,85.832c-1.035,48.604 33.609,47.053 33.609,47.053c54.291,-1.552 108.065,-107.549 116.338,-124.612c1.034,-2.068 1.551,-4.137 1.551,-6.205c0,-6.205 -2.585,-11.892 -5.17,-15.512c-1.551,-2.585 -4.654,-2.068 -6.205,0.517c-41.882,89.969 -97.207,133.402 -104.963,127.714c-10.341,-6.721 17.58,-66.7 43.433,-107.548c27.921,-44.467 21.716,-80.662 -4.137,-91.003c-33.609,-13.961 -71.871,38.263 -71.871,38.263c-10.858,13.443 -20.683,28.955 -28.955,41.881c4.653,-12.409 9.307,-25.336 14.994,-40.33c1.034,-1.551 1.551,-3.62 1.551,-5.688c2.586,-23.268 -12.409,-38.262 -28.955,-42.399c-4.136,-1.034 -8.273,1.034 -10.341,5.171c-17.58,43.433 -27.921,81.695 -34.126,108.582c-6.722,26.888 -11.376,67.735 -11.376,86.867c2.586,16.029 20.166,25.336 35.161,25.336Zm145.811,-175.284c-0,0 -2.586,-19.648 -6.722,-25.336c0,0 14.478,6.722 6.722,25.336Zm-108.066,-2.585c0,-0 -0.517,-14.995 -2.585,-23.268c-0,-0 10.858,7.239 2.585,23.268Z" style="fill:#fefffd;fill-rule:nonzero;"/><path d="M833.935,97.262c-31.024,117.373 -35.678,182.005 -35.678,182.005c-5.687,71.355 39.814,68.77 39.814,68.77c51.706,1.034 93.071,-102.378 102.378,-123.061c1.551,-4.136 2.068,-8.79 1.034,-12.926c-0.517,-4.137 -2.585,-7.756 -4.136,-10.859c-1.551,-2.068 -5.171,-2.068 -6.205,0.517c-40.331,99.793 -81.696,137.539 -92.037,128.231c-15.512,-13.96 25.336,-163.391 47.053,-238.882c36.194,0 45.501,12.41 47.569,19.132c1.035,2.068 3.103,2.585 4.654,1.034c7.239,-7.756 21.717,-26.37 -1.551,-37.746c-8.79,-4.653 -26.887,-4.136 -44.985,-3.102c2.586,-8.79 4.654,-15.512 5.688,-19.131c1.034,-2.069 1.034,-4.654 0.517,-7.239c-3.102,-19.649 -26.887,-24.819 -36.711,-25.853c-2.585,-0 -4.654,1.034 -5.171,3.619c-6.204,19.131 -11.375,37.228 -16.546,54.291c-29.989,3.103 -47.569,1.035 -58.945,-3.619c-7.238,-3.102 -11.375,-9.307 -13.443,-13.961c-0.517,-2.068 -3.62,-2.068 -4.654,-0.517c-4.653,6.722 -11.892,19.132 -7.239,28.956c6.205,13.96 18.615,20.165 78.594,10.341Zm54.808,-40.848c0,0 -1.034,-12.926 -4.136,-19.648c-0,-0 11.375,5.688 4.136,19.648Z" style="fill:#fefffd;fill-rule:nonzero;"/><path d="M946.137,344.934c31.024,4.654 54.808,-24.302 69.286,-50.155c0.517,56.36 40.331,53.258 40.331,53.258c54.291,-1.552 101.344,-102.378 110.134,-123.061c2.068,-4.136 2.585,-8.273 1.551,-12.926c-1.034,-4.137 -2.585,-7.756 -4.136,-10.342c-1.552,-2.585 -5.171,-2.585 -6.205,0c-37.229,90.486 -87.384,130.3 -99.793,128.749c-9.307,-1.035 3.619,-67.735 19.131,-121.51c51.706,-34.643 71.872,-92.554 71.872,-92.554c36.711,-100.827 -19.649,-101.344 -19.649,-101.344c-34.643,-1.551 -67.218,83.764 -83.246,134.953c-5.171,-10.858 -13.444,-18.097 -26.888,-18.614c-51.706,-2.068 -90.485,74.974 -90.485,74.974c-35.677,71.354 -27.404,132.367 18.097,138.572Zm195.449,-314.89c-0,0 -12.927,8.79 -17.58,21.717c-0,-0 -2.585,-22.751 17.58,-21.717Zm-1.551,14.995c-0,-0 6.204,27.921 -8.273,66.701c-7.756,21.199 -22.751,48.603 -47.57,71.871c12.41,-40.331 41.365,-129.782 55.843,-138.572Zm-173.733,187.176c0,-0 38.78,-83.764 58.428,-81.696c14.995,1.034 7.756,41.365 3.62,60.496c-1.035,3.103 -1.552,6.205 -2.586,8.79l0,0.518c-0.517,2.585 -1.034,4.653 -1.551,7.238c-4.136,10.859 -39.297,101.344 -73.423,102.378c0,0 -25.336,-8.273 15.512,-97.724Z" style="fill:#fefffd;fill-rule:nonzero;"/><path d="M1196.39,348.037c40.848,-1.552 63.599,-33.609 76.008,-66.701c37.229,-15.512 63.599,-46.536 72.906,-60.496c4.136,-6.205 4.654,-13.961 2.068,-19.649c-1.034,-2.068 -4.136,-2.068 -5.687,-0.517c-20.166,26.887 -41.882,46.019 -62.048,57.911c6.205,-26.37 7.239,-48.604 7.239,-48.604c0,0 6.205,-83.764 -50.672,-83.764c0,0 -44.467,-1.551 -67.218,57.394c-14.478,13.961 -30.506,37.229 -37.228,73.94c-0,-0 -16.546,93.071 64.632,90.486Zm76.008,-186.659c0,-0 -10.858,-13.961 -18.097,-20.166c0,0 16.546,2.585 18.097,20.166Zm-70.32,59.979c8.273,-57.911 34.126,-70.321 34.126,-70.321c31.024,-1.551 27.921,65.15 27.921,65.15c-1.551,21.2 -4.653,38.78 -9.307,52.74c-11.892,3.62 -22.233,4.137 -31.023,1.551c-26.37,-7.238 -21.717,-49.12 -21.717,-49.12Zm-25.336,51.706c8.79,8.79 21.717,14.995 41.365,17.063c9.824,1.034 19.648,0.517 28.955,-1.034c-19.648,42.399 -49.637,44.984 -49.637,44.984c-23.268,1.551 -23.268,-36.194 -20.683,-61.013Z" style="fill:#fefffd;fill-rule:nonzero;"/><path d="M1373.75,347.52c25.853,-3.62 49.638,-80.145 66.184,-129.266c0,0 -5.17,37.746 -6.205,66.701c0,0 -4.653,63.599 28.439,63.082c24.302,-0.517 54.291,-46.536 71.871,-95.14c7.756,-0.517 14.478,-5.17 17.063,-16.029c0.517,-1.034 -0.517,-2.068 -2.068,-1.551c-3.619,1.034 -7.239,1.551 -9.824,2.069c1.551,-5.171 2.585,-9.825 3.619,-14.478c13.961,-57.911 14.478,-99.793 -12.926,-97.208c-0,0 -22.234,-2.585 -32.058,63.082c-6.205,40.331 7.239,55.325 17.58,61.013c-17.58,49.121 -36.194,68.769 -36.194,68.252c-14.995,4.137 -3.103,-101.861 0.517,-133.919c1.034,-8.273 -3.62,-16.546 -11.376,-19.131c-9.307,-3.619 -21.199,-3.102 -28.955,-2.068c-4.653,0.517 -8.79,4.136 -10.341,8.79c-19.131,72.388 -47.57,156.152 -52.223,153.567c-5.171,-2.585 -6.205,-32.058 2.068,-82.73c6.722,-38.262 19.131,-78.076 23.268,-91.52c1.034,-3.102 -0,-6.204 -2.586,-8.273c-10.858,-9.307 -24.819,-8.273 -34.126,-6.204c-5.687,1.551 -10.858,5.687 -12.926,11.375c-5.171,14.478 -16.029,47.57 -21.717,98.759c-6.722,57.91 10.341,104.963 42.916,100.827Zm144.26,-152.533c2.586,-42.917 11.893,-47.57 11.893,-47.57c11.892,6.205 -5.688,74.974 -5.688,74.974c-1.034,2.585 -1.551,5.687 -2.585,8.273c-3.103,-5.171 -5.171,-14.995 -3.62,-35.677Zm-46.018,-0.518c-0,0 -2.585,-14.994 -11.375,-23.267c-0,-0 15.511,-0 11.375,23.267Zm-80.145,-28.438c0,0 1.035,-14.995 -5.17,-21.716c-0,-0 14.995,-0 5.17,21.716Z" style="fill:#fefffd;fill-rule:nonzero;"/><path d="M1589.88,349.071c2.585,-0 5.17,-2.586 5.17,-5.688c0.517,-7.756 2.069,-17.063 3.103,-26.887c35.677,-113.754 92.037,-164.943 100.31,-163.391c13.96,2.585 -20.683,62.047 -20.683,62.047c-28.438,47.57 -28.438,85.832 -28.438,85.832c-1.034,48.604 33.609,47.053 33.609,47.053c54.291,-1.552 108.066,-107.549 116.339,-124.612c1.034,-2.068 1.551,-4.137 1.551,-6.205c-0,-6.205 -2.586,-11.892 -5.171,-15.512c-1.551,-2.585 -4.653,-2.068 -6.205,0.517c-41.882,89.969 -97.207,133.402 -104.963,127.714c-10.341,-6.721 17.58,-66.7 43.433,-107.548c27.921,-44.467 21.717,-80.662 -4.136,-91.003c-33.609,-13.961 -71.872,38.263 -71.872,38.263c-10.858,13.443 -20.682,28.955 -28.955,41.881c4.653,-12.409 9.307,-25.336 14.994,-40.33c1.035,-1.551 1.552,-3.62 1.552,-5.688c2.585,-23.268 -12.41,-38.262 -28.956,-42.399c-4.136,-1.034 -8.273,1.034 -10.341,5.171c-17.58,43.433 -27.921,81.695 -34.126,108.582c-6.722,26.888 -11.375,67.735 -11.375,86.867c2.585,16.029 20.165,25.336 35.16,25.336Zm145.811,-175.284c0,0 -2.585,-19.648 -6.722,-25.336c0,0 14.478,6.722 6.722,25.336Zm-108.066,-2.585c0,-0 -0.517,-14.995 -2.585,-23.268c-0,-0 10.858,7.239 2.585,23.268Z" style="fill:#fefffd;fill-rule:nonzero;"/><path d="M1914.08,97.262c-31.024,117.373 -35.677,182.005 -35.677,182.005c-5.688,71.355 39.814,68.77 39.814,68.77c51.706,1.034 93.071,-102.378 102.378,-123.061c1.551,-4.136 2.068,-8.79 1.034,-12.926c-0.517,-4.137 -2.586,-7.756 -4.137,-10.859c-1.551,-2.068 -5.17,-2.068 -6.204,0.517c-40.331,99.793 -81.696,137.539 -92.037,128.231c-15.512,-13.96 25.336,-163.391 47.052,-238.882c36.194,0 45.502,12.41 47.57,19.132c1.034,2.068 3.102,2.585 4.653,1.034c7.239,-7.756 21.717,-26.37 -1.551,-37.746c-8.79,-4.653 -26.887,-4.136 -44.984,-3.102c2.585,-8.79 4.653,-15.512 5.688,-19.131c1.034,-2.069 1.034,-4.654 0.517,-7.239c-3.103,-19.649 -26.888,-24.819 -36.712,-25.853c-2.585,-0 -4.653,1.034 -5.17,3.619c-6.205,19.131 -11.376,37.228 -16.546,54.291c-29.99,3.103 -47.57,1.035 -58.945,-3.619c-7.239,-3.102 -11.376,-9.307 -13.444,-13.961c-0.517,-2.068 -3.619,-2.068 -4.653,-0.517c-4.654,6.722 -11.893,19.132 -7.239,28.956c6.205,13.96 18.614,20.165 78.593,10.341Zm54.809,-40.848c-0,0 -1.035,-12.926 -4.137,-19.648c0,-0 11.375,5.688 4.137,19.648Z" style="fill:#fefffd;fill-rule:nonzero;"/><path d="M2052.13,348.037c40.848,-1.552 63.599,-33.609 76.008,-66.701c37.229,-15.512 63.599,-46.536 72.906,-60.496c4.136,-6.205 4.653,-13.961 2.068,-19.649c-1.034,-2.068 -4.136,-2.068 -5.688,-0.517c-20.165,26.887 -41.881,46.019 -62.047,57.911c6.205,-26.37 7.239,-48.604 7.239,-48.604c0,0 6.205,-83.764 -50.672,-83.764c0,0 -44.467,-1.551 -67.218,57.394c-14.478,13.961 -30.506,37.229 -37.228,73.94c-0,-0 -16.546,93.071 64.632,90.486Zm76.008,-186.659c0,-0 -10.858,-13.961 -18.097,-20.166c0,0 16.546,2.585 18.097,20.166Zm-70.32,59.979c8.273,-57.911 34.126,-70.321 34.126,-70.321c31.024,-1.551 27.921,65.15 27.921,65.15c-1.551,21.2 -4.653,38.78 -9.307,52.74c-11.892,3.62 -22.233,4.137 -31.023,1.551c-26.371,-7.238 -21.717,-49.12 -21.717,-49.12Zm-25.336,51.706c8.79,8.79 21.717,14.995 41.365,17.063c9.824,1.034 19.648,0.517 28.955,-1.034c-19.648,42.399 -49.638,44.984 -49.638,44.984c-23.267,1.551 -23.267,-36.194 -20.682,-61.013Z" style="fill:#fefffd;fill-rule:nonzero;"/><path d="M2520.59,25.391c47.052,11.892 125.128,52.74 171.147,69.286c46.535,16.546 118.924,23.267 140.123,-23.785c13.444,-28.956 3.62,-47.053 -3.619,-55.326c-1.551,-2.068 -5.171,-1.034 -5.688,1.552c-8.79,38.262 -62.564,45.501 -62.564,45.501c-79.11,10.858 -165.977,-44.984 -239.399,-56.36c-20.166,-3.102 -37.746,0 -52.741,5.688c-12.409,-13.444 -32.057,-11.892 -32.057,-11.892c-0,-0 -96.174,2.068 -148.914,158.737c0,0 -52.74,165.977 59.979,187.693c107.549,20.683 152.533,-127.714 152.533,-127.714c0,0 3.62,-10.858 -4.653,-18.614c-1.552,-1.034 -3.62,-0.517 -4.137,1.034c-8.273,22.234 -54.808,139.607 -134.436,126.68c0,0 -64.115,-26.887 -18.614,-165.459c0,-0 13.444,-39.297 33.609,-77.559c20.165,-38.263 47.053,-74.457 71.871,-71.872c0,0 5.171,0.517 8.79,7.239c-22.233,12.926 -34.126,30.507 -34.126,30.507c-44.467,63.081 -5.17,73.422 -5.17,73.422c16.029,4.654 31.541,-6.205 41.365,-18.097c16.029,-19.131 21.716,-46.535 21.716,-46.535c3.103,-14.478 2.586,-25.336 0,-33.609c12.927,-4.137 27.405,-4.654 44.985,-0.517Zm307.651,9.307c-0,-0 9.307,24.819 -9.307,34.643c-0,-0 11.375,-23.785 9.307,-34.643Zm-376.938,22.233c0,0 -3.619,10.859 -8.79,23.268c-7.238,16.546 -18.097,35.16 -26.887,29.99c-13.96,-8.273 13.961,-48.604 13.961,-48.604c5.688,-8.273 13.961,-17.58 24.819,-25.336c-0,5.687 -1.034,12.409 -3.103,20.682Z" style="fill:#fefffd;fill-rule:nonzero;"/><path d="M2492.15,349.071l1.034,-0c6.205,-0.517 10.859,-5.171 11.893,-10.859c1.034,-5.687 2.585,-13.443 4.653,-23.267c35.678,-114.271 98.759,-169.596 101.344,-161.84c2.586,7.756 -18.097,54.808 -18.097,54.808c-21.716,52.74 -23.785,87.9 -23.785,87.9c-4.136,59.979 41.365,52.224 41.365,52.224c54.809,-1.552 96.174,-110.134 101.344,-125.129c0.517,-1.551 1.034,-3.103 1.034,-4.654c0.517,-6.722 -2.585,-12.926 -5.17,-17.063c-1.034,-2.068 -4.137,-1.551 -5.171,0.517c-34.643,92.037 -82.213,134.436 -90.486,128.749c-9.824,-7.239 19.132,-85.316 28.439,-108.066c18.614,-43.95 21.716,-80.145 -4.137,-91.003c-34.126,-13.444 -71.871,38.263 -71.871,38.263c-13.961,17.58 -26.37,37.745 -34.643,52.223c2.068,-10.342 4.653,-21.2 7.239,-32.058c2.068,-10.341 4.653,-20.165 6.721,-29.473c26.888,-17.58 56.36,-52.74 64.116,-101.861c4.136,-24.301 1.551,-38.262 -3.102,-46.018c-6.205,-10.858 -16.029,-10.341 -16.029,-10.341c-5.688,-0 -10.859,2.068 -16.546,5.687c-57.911,37.229 -97.725,251.292 -107.549,310.237c-3.102,16.546 10.341,32.058 27.404,31.024Zm152.533,-171.147c0,-0 -3.102,-25.854 -7.239,-33.609c0,-0 14.995,9.824 7.239,33.609Zm-55.842,-159.772c-0,-0 7.239,0.517 1.551,35.677c-4.137,24.819 -19.131,59.979 -40.848,82.213c16.546,-70.838 28.955,-117.89 39.297,-117.89Z" style="fill:#fefffd;fill-rule:nonzero;"/><path d="M2711.38,349.071c2.585,-0 5.171,-2.069 5.171,-5.171c0.517,-8.273 2.068,-17.58 3.102,-27.404c35.677,-113.236 92.037,-164.426 100.31,-163.391c-0,-0 -61.53,81.178 -24.302,103.929c46.536,21.716 87.9,-31.024 87.9,-31.024c4.137,-6.722 6.205,-16.029 5.171,-23.785c0,-2.068 -3.102,-2.585 -4.136,-1.034c-16.029,23.268 -43.434,41.882 -70.838,44.468c-3.619,-0 -5.17,-4.137 -2.585,-6.205c40.331,-35.16 57.911,-93.588 34.126,-108.066c-31.024,-18.614 -71.872,38.263 -71.872,38.263c-10.858,13.96 -20.682,28.955 -28.955,42.399c4.654,-12.927 9.307,-25.854 14.995,-40.331c1.034,-2.068 1.551,-4.137 1.551,-6.205c2.585,-22.751 -12.409,-38.262 -28.955,-42.399c-4.137,-1.034 -8.273,1.551 -10.342,5.171c-17.58,43.95 -27.921,81.695 -34.126,109.1c-6.721,26.887 -11.375,67.217 -11.375,86.349c2.585,16.029 20.165,25.336 35.16,25.336Zm133.402,-177.352c-0,-0 2.068,-13.961 -2.068,-25.336c-0,-0 13.96,8.79 2.068,25.336Zm-97.208,-0.517c0,-0 0,-15.512 -1.551,-23.268c0,-0 10.341,7.756 1.551,23.268Z" style="fill:#fefffd;fill-rule:nonzero;"/><path d="M2898.04,348.037c54.292,-1.552 95.656,-109.1 101.344,-124.612c0.517,-2.068 1.034,-4.137 1.034,-5.688c0,-5.687 -2.068,-11.375 -4.653,-15.512c-1.552,-2.585 -5.688,-2.068 -6.722,0.517c-34.643,91.003 -81.696,133.402 -89.452,127.715c-9.824,-7.239 11.376,-88.935 36.195,-153.051c1.034,-2.068 1.551,-4.653 1.551,-6.721c2.068,-21.717 -13.444,-33.609 -29.99,-36.712c-5.17,-0.517 -9.824,2.069 -11.892,7.239c-35.677,91.003 -37.229,138.573 -37.229,138.573c-6.721,71.354 39.814,68.252 39.814,68.252Zm32.058,-179.938c-0,10.859 -5.171,12.927 -5.171,12.927c0,-0 2.586,-18.097 -1.551,-26.37c0,-0 7.239,3.102 6.722,13.443Zm-6.205,-39.813c14.478,10.858 24.819,-4.654 28.956,-12.927c1.551,-3.102 2.585,-6.722 2.068,-10.341c-2.585,-17.063 -16.029,-22.751 -24.302,-24.302c-3.102,-0.517 -6.722,1.034 -7.756,4.654c-12.926,31.54 1.034,42.916 1.034,42.916Zm23.785,-29.99c-0,0 7.239,9.307 -2.068,19.648c-0,0 3.102,-17.063 2.068,-19.648Z" style="fill:#fefffd;fill-rule:nonzero;"/><path d="M2955.44,344.417c-0.517,27.404 33.609,52.74 69.803,27.404c31.541,-21.199 24.819,-85.832 17.58,-125.645c22.751,-14.995 47.053,-23.785 56.36,-27.405c5.688,-2.068 9.824,-6.721 11.375,-12.409c0,-1.034 0,-2.585 0.517,-4.137c0,-2.068 -2.068,-4.136 -4.653,-3.102c-26.887,8.273 -49.121,18.097 -67.735,28.955c-0.517,-3.102 -1.034,-5.17 -1.034,-7.238c-2.586,-9.825 -4.137,-18.615 -5.171,-25.853c26.887,-16.546 42.399,-40.331 36.194,-57.394c-7.756,-21.2 -37.745,-11.376 -37.745,-11.376c-0,0 -43.433,11.376 -48.604,50.155c0,0 -4.653,38.78 14.478,83.247c-42.916,42.399 -41.365,84.798 -41.365,84.798Zm105.48,-190.278c0,-0 -2.068,-12.927 -7.239,-19.132c0,0 13.444,2.586 7.239,19.132Zm-22.75,-9.824c-0,-0 8.79,-1.552 9.307,8.273c-0,6.204 -1.034,10.341 -17.063,25.336c-2.068,-33.092 7.756,-33.609 7.756,-33.609Zm-35.16,135.987c4.653,22.75 7.755,58.945 -19.132,78.076c0,-0 -24.302,-25.853 19.132,-78.076Z" style="fill:#fefffd;fill-rule:nonzero;"/><path d="M3125.03,97.262c-31.024,117.373 -35.677,182.005 -35.677,182.005c-5.688,71.355 39.813,68.77 39.813,68.77c51.706,1.034 93.071,-102.378 102.378,-123.061c1.552,-4.136 2.069,-8.79 1.035,-12.926c-0.517,-4.137 -2.586,-7.756 -4.137,-10.859c-1.551,-2.068 -5.171,-2.068 -6.205,0.517c-40.33,99.793 -81.695,137.539 -92.036,128.231c-15.512,-13.96 25.336,-163.391 47.052,-238.882c36.194,0 45.501,12.41 47.57,19.132c1.034,2.068 3.102,2.585 4.653,1.034c7.239,-7.756 21.717,-26.37 -1.551,-37.746c-8.79,-4.653 -26.887,-4.136 -44.984,-3.102c2.585,-8.79 4.653,-15.512 5.687,-19.131c1.035,-2.069 1.035,-4.654 0.517,-7.239c-3.102,-19.649 -26.887,-24.819 -36.711,-25.853c-2.585,-0 -4.653,1.034 -5.17,3.619c-6.205,19.131 -11.376,37.228 -16.546,54.291c-29.99,3.103 -47.57,1.035 -58.945,-3.619c-7.239,-3.102 -11.376,-9.307 -13.444,-13.961c-0.517,-2.068 -3.619,-2.068 -4.654,-0.517c-4.653,6.722 -11.892,19.132 -7.238,28.956c6.204,13.96 18.614,20.165 78.593,10.341Zm54.808,-40.848c0,0 -1.034,-12.926 -4.136,-19.648c-0,-0 11.375,5.688 4.136,19.648Z" style="fill:#fefffd;fill-rule:nonzero;"/><path d="M3232.06,349.071c2.585,-0 5.17,-2.069 5.17,-5.171c0.517,-6.722 1.551,-14.995 2.585,-22.751c17.063,-54.808 33.092,-84.798 59.462,-128.748c17.063,-28.438 28.956,-40.331 33.092,-39.296c0,-0 3.62,0.517 -10.341,32.574c-13.96,32.058 -37.745,103.413 -22.751,125.129c8.273,11.376 23.785,13.444 32.575,12.927c3.62,-0 7.239,-2.586 8.273,-6.205c3.62,-12.409 13.444,-43.95 39.814,-98.242c19.131,-40.847 33.092,-60.496 36.711,-57.393c3.103,2.068 0.517,8.273 -3.619,17.58c-5.171,13.443 -11.893,28.438 -11.893,28.438c-21.199,52.74 -23.784,87.9 -23.784,87.9c-3.62,59.979 41.882,52.224 41.882,52.224c54.808,-1.552 96.173,-110.134 101.344,-125.129c0.517,-1.551 1.034,-3.103 1.034,-4.654c-0,-6.722 -2.586,-12.926 -5.171,-17.063c-1.551,-2.068 -4.136,-1.551 -5.171,0.517c-34.643,92.037 -82.729,134.436 -90.485,128.749c-10.341,-7.239 18.614,-85.316 28.438,-108.066c18.097,-43.95 23.785,-85.315 -1.034,-95.657c-34.643,-14.477 -63.081,35.678 -86.866,85.833c-19.131,39.296 -28.439,70.32 -28.439,70.32c-3.102,-7.239 28.439,-83.764 28.439,-83.764c27.404,-63.081 -3.103,-71.871 -3.103,-71.871c-33.609,-15.512 -67.218,42.916 -67.218,42.916c-11.375,17.063 -20.682,34.643 -28.438,49.637c5.171,-14.994 10.858,-30.506 17.58,-48.086c1.034,-2.068 1.551,-4.137 1.551,-6.205c2.586,-22.751 -12.409,-38.262 -28.955,-42.399c-4.137,-1.034 -8.273,1.551 -10.341,5.171c-17.58,43.95 -27.922,81.695 -34.126,109.1c-6.722,26.887 -11.376,67.217 -11.376,86.349c2.586,16.029 20.166,25.336 35.161,25.336Zm222.336,-187.693c-0,-0 -2.586,-19.649 -6.722,-25.336c-0,-0 14.478,6.721 6.722,25.336Zm-90.486,2.068c0,-0 -2.585,-19.649 -6.722,-25.336c0,-0 14.478,6.722 6.722,25.336Zm-94.622,5.687c-0,0 -1.034,-15.511 -3.102,-23.267c-0,-0 10.858,7.239 3.102,23.267Z" style="fill:#fefffd;fill-rule:nonzero;"/><path d="M3525.75,344.934c31.024,4.654 54.809,-24.302 69.286,-50.155c0.517,56.36 40.331,53.258 40.331,53.258c54.292,-1.552 95.656,-109.1 101.344,-124.612c0.517,-2.068 1.034,-4.137 1.034,-5.688c0,-5.687 -2.068,-11.375 -4.136,-15.512c-1.551,-2.585 -5.688,-2.068 -7.239,0.517c-34.643,91.003 -81.696,133.402 -89.452,127.715c-9.824,-7.239 9.307,-96.174 34.126,-160.289c1.034,-2.586 1.552,-5.171 2.069,-7.756c1.551,-21.2 -10.859,-34.643 -25.853,-38.78c-5.688,-1.551 -11.376,1.551 -13.444,6.722c-3.102,7.239 -5.688,14.478 -8.273,21.199c-4.654,-11.375 -13.444,-19.648 -27.404,-20.165c-51.706,-2.068 -90.486,74.974 -90.486,74.974c-35.677,71.354 -27.404,132.367 18.097,138.572Zm135.987,-175.801c0,0 -1.551,-20.682 -4.653,-27.404c-0,0 15.512,8.79 4.653,27.404Zm-115.821,63.082c-0,-0 38.779,-83.764 58.427,-81.696c14.995,1.034 7.756,41.882 3.103,60.496c-0.517,3.103 -1.034,6.205 -2.068,8.79l-0,0.518c-0.517,2.585 -1.035,4.653 -1.552,7.238c-4.136,10.859 -39.296,101.344 -73.422,102.378c-0,0 -25.336,-8.273 15.512,-97.724Z" style="fill:#fefffd;fill-rule:nonzero;"/><path d="M3695.87,344.417c-0.517,27.404 33.609,52.74 69.803,27.404c31.541,-21.199 24.819,-85.832 17.581,-125.645c22.75,-14.995 47.052,-23.785 56.359,-27.405c5.688,-2.068 9.824,-6.721 11.376,-12.409c-0,-1.034 -0,-2.585 0.517,-4.137c-0,-2.068 -2.069,-4.136 -4.654,-3.102c-26.887,8.273 -49.121,18.097 -67.735,28.955c-0.517,-3.102 -1.034,-5.17 -1.034,-7.238c-2.585,-9.825 -4.137,-18.615 -5.171,-25.853c26.888,-16.546 42.399,-40.331 36.195,-57.394c-7.756,-21.2 -37.746,-11.376 -37.746,-11.376c0,0 -43.433,11.376 -48.604,50.155c0,0 -4.653,38.78 14.478,83.247c-42.916,42.399 -41.365,84.798 -41.365,84.798Zm105.481,-190.278c-0,-0 -2.069,-12.927 -7.239,-19.132c-0,0 13.443,2.586 7.239,19.132Zm-22.751,-9.824c0,-0 8.79,-1.552 9.307,8.273c0,6.204 -1.034,10.341 -17.063,25.336c-2.068,-33.092 7.756,-33.609 7.756,-33.609Zm-35.16,135.987c4.653,22.75 7.756,58.945 -19.131,78.076c-0,-0 -24.302,-25.853 19.131,-78.076Z" style="fill:#fefffd;fill-rule:nonzero;"/></g></svg>