<svg xmlns="http://www.w3.org/2000/svg" viewBox="0 0 33334 7694" xml:space="preserve" style="fill-rule:evenodd;clip-rule:evenodd;stroke-linejoin:round;stroke-miterlimit:2"><path style="fill:#9d0a0e" d="M0 0h33333.3v7693.4H0z"/><path d="M7078.88 3280.4c-.258 68.15-21.171 136.817-82.092 190.125-60.795 53.438-165.991 94.096-340.241 94.096h-350.7v-562.379h335.079c156.312 0 267.187 31.75 336.758 81.188 69.313 49.825 100.679 115.262 101.196 196.97M6794.79 2607.02c65.312-46.983 96.808-113.587 97.195-213.362-.258-68.538-19.879-127.267-69.187-171.021-49.433-43.887-133.333-74.996-268.863-74.996h-248.083v532.954h170.25c147.404 0 252.988-26.204 318.688-73.575" style="fill:#fff;fill-rule:nonzero"/><path d="M7457.21 3321.69c.905-259.954-172.183-457.571-449.308-533.467 74.863-38.204 133.979-84.929 177.35-141.854 57.825-76.412 85.575-169.991 85.187-279.187.388-133.979-52.404-270.671-165.604-373.029-113.325-102.225-285.254-168.442-519.912-168.313h-648.088v2060.81h760.638c271.316 0 461.833-73.571 584.454-182.642 122.75-108.55 175.413-251.05 175.283-382.321m722.434 964.321h-3040.62v-2861.34h3040.62v2861.34ZM3291.3 2607.02c65.179-46.983 96.804-113.587 97.321-213.362-.129-68.538-19.879-127.267-69.183-171.021-49.567-43.887-133.467-74.996-269.121-74.996h-247.825v532.954h170.25c147.275 0 252.858-26.204 318.558-73.575M3474.2 3083.44c-69.442-49.437-180.446-81.187-336.625-81.187h-335.079v562.379h350.696c174.25 0 279.187-40.659 340.112-94.096 60.925-53.308 81.963-121.975 82.092-190.125-.517-81.708-31.879-147.146-101.196-196.971" style="fill:#fff;fill-rule:nonzero"/><path d="M3953.85 3321.69c.9-259.954-172.446-457.571-449.183-533.467 74.604-38.204 133.72-84.929 176.962-141.854 58.083-76.412 85.579-169.991 85.45-279.187.125-133.979-52.537-270.671-165.733-373.029-113.2-102.225-285.129-168.442-519.788-168.313h-648.212v2060.81h760.637c271.446 0 461.834-73.571 584.454-182.642 122.621-108.55 175.671-251.05 175.413-382.321m722.433 964.321h-3040.5v-2861.34h3040.5v2861.34ZM11079.3 3334.98l-48.792 29.816c-235.433 143.792-491.517 220.85-724.112 220.721-497.971-1.937-825.821-297.004-827.113-726.308.517-420.138 342.954-731.079 814.462-732.113 240.209.13 457.701 62.213 716.238 203.938l47.5 26.075v-383.483l-20.392-8.005c-291.454-115.004-517.204-166.245-740.116-166.116-344.763-.129-643.829 113.712-856.929 306.808-212.975 193.225-339.596 465.963-339.342 779.229.129 218.267 90.096 473.963 282.933 676.996 192.196 203.038 488.421 350.958 894.621 350.829h1.421c336.883 0 570.512-74.996 781.679-179.158l17.942-8.775V3334.98Zm603.812 951.025h-3040.5v-2861.34h3040.5v2861.34Z" style="fill:#fff;fill-rule:nonzero"/><g><path d="M14607.3 3046.36c-135.004 0-342.983 4.133-540.016 45.5-36.488-95.138-80.275-182.004-120.413-260.596-65.679-124.092-109.462-223.363-109.462-223.363-40.138-95.137-62.029-173.729-72.975-244.05 492.583-252.32 664.079-504.641 664.079-504.641 127.704-173.729 76.625-285.413 47.433-330.913-47.433-78.591-167.846-62.046-167.846-62.046s-415.958 20.684-751.65 512.917c-80.271 115.817-124.058 227.5-142.3 326.775-80.275 33.092-175.141 70.317-273.658 115.817-240.821 107.55-496.238 244.05-660.429 467.416-164.196 219.23-171.496 426.046-127.709 562.55 69.325 206.821 207.98 256.455 288.255 273 21.891 4.138 40.133-24.816 25.541-49.633-32.841-66.183-43.787-148.912-36.487-231.642 40.133-405.366 415.958-694.912 780.837-897.6 21.892 169.596 102.167 293.688 142.304 351.596 0 0 91.217 119.954 175.142 273.004-317.446 99.271-602.05 277.138-693.271 570.821-131.354 413.642 229.875 500.504 229.875 500.504 47.434 12.413 91.217 12.413 138.655 12.413 353.929-12.413 616.641-231.642 733.404-603.917 40.137-132.362 21.891-285.412-25.542-434.321 102.167-24.82 229.875-37.229 383.121-41.366 10.95 0 18.246 0 25.541-4.134 43.788-24.82 80.275-57.912 102.167-95.137 7.3-12.408 0-28.954-14.596-28.954Zm-145.95-1348.47s-21.891-115.817-36.487-157.183c0 0 91.221 62.05 36.487 157.183Zm-510.829 153.05c193.384-260.596 386.771-260.596 386.771-260.596s40.138 0 54.733 20.683c18.242 28.955 0 115.821-72.979 194.413-135.004 153.046-390.416 285.408-543.666 355.729 29.191-95.137 87.57-190.275 175.141-310.229ZM13855.654 3642c-54.733 301.955-353.933 546.005-543.67 463.275 0 0-226.225-82.729-76.625-401.229 69.329-148.912 259.062-306.096 554.616-409.504 51.084 119.954 87.571 248.183 65.68 347.458Z" style="fill:#fff;fill-rule:nonzero"/><path d="M14654.8 4245.9c383.121 8.275 715.158-819.008 777.188-984.462 14.595-33.092 18.245-70.321 10.95-103.408-7.3-33.092-18.246-62.05-32.842-86.867-7.296-16.546-32.838-16.546-40.138 4.137-262.712 719.734-616.641 1042.37-704.212 1025.83-72.975-12.408-69.329-347.454 72.975-926.554 412.312-268.862 569.208-781.779 569.208-781.779 255.417-806.596-138.654-810.733-138.654-810.733-401.362-12.409-715.158 1377.42-715.158 1377.42s-332.042 1278.15 200.683 1286.42Zm591.1-2535.61s-91.217 70.317-124.058 173.729c0 0-14.596-177.867 124.058-173.729Zm3.65 107.546s43.788 227.5-58.379 537.733c-62.029 190.271-186.088 442.592-397.717 637.004 83.921-281.275 346.634-1096.15 456.096-1174.74Z" style="fill:#fff;fill-rule:nonzero"/><path d="M15614.4 4241.77c569.208 62.05 919.492-905.87 948.683-988.6 0-4.133 3.65-8.27 3.65-12.408 14.596-66.183 0-132.362-18.246-169.592-3.65-16.545-25.541-16.545-32.837 0-76.625 198.546-426.908 1042.38-857.467 1013.42-189.733-24.817-175.141-285.408-131.354-496.367 149.6-12.408 481.638-91 609.346-529.458 171.492-599.779-160.546-603.917-160.546-603.917-405.017-4.133-642.187 641.142-642.187 641.142s-456.096 1058.92 280.958 1145.78Zm262.712-1671.1c18.242-16.546 54.73-24.821 80.271-12.408 0 0-87.571 45.5-124.058 132.362 0 0 0-78.591 43.787-119.954Zm-262.712 723.871s244.467-694.917 383.121-686.642c0 0 94.871 45.5-29.188 446.73-98.521 301.958-302.85 380.55-405.016 401.233 25.541-95.138 51.083-161.321 51.083-161.321Z" style="fill:#fff;fill-rule:nonzero"/><path d="M16606.9 4245.9c383.121-12.408 675.025-872.779 715.158-996.87 3.65-16.546 7.3-33.092 7.3-45.5 0-45.5-14.595-91.005-32.841-124.092-10.946-20.683-40.134-16.546-47.434 4.133-244.466 728.009-576.508 1067.19-631.237 1021.69-69.329-57.908 80.271-711.463 255.412-1224.38 7.3-16.546 10.946-37.225 10.946-53.771 14.596-173.729-94.866-268.867-211.629-293.687-36.487-4.134-69.325 16.545-83.921 57.912-251.766 728.004-262.712 1108.55-262.712 1108.55-47.434 570.825 280.958 546.004 280.958 546.004Zm226.221-1439.47c0 86.862-36.488 103.408-36.488 103.408s18.246-144.771-10.945-210.954c0 0 51.083 24.817 47.433 107.546Zm-43.783-318.504c102.166 86.866 175.141-37.225 204.333-103.409 10.946-24.821 18.242-53.775 14.592-82.729-18.242-136.5-113.113-182-171.492-194.412-21.892-4.134-47.433 8.275-54.729 37.229-91.221 252.321 7.296 343.321 7.296 343.321Zm167.841-239.913s51.084 74.458-14.591 157.183c0 0 21.891-136.5 14.591-157.183Z" style="fill:#fff;fill-rule:nonzero"/><path d="M17172.4 4324.52c-383.121 541.871 21.896 670.1 21.896 670.1 423.258 140.638 704.212-508.779 872.058-1154.06 277.308-198.546 437.854-401.229 529.071-595.642 32.841-74.454 25.541-136.5 0-182-7.296-8.275-18.242-8.275-25.538 4.134-127.708 260.596-288.254 442.596-452.45 583.233 87.571-384.683 142.3-736.279 160.546-881.054 10.946-95.138-21.892-186.138-91.221-239.908-43.783-33.092-91.221-53.775-127.708-62.05-36.488-8.271-72.975 16.545-80.271 62.05 0 12.408-3.65 24.816-3.65 41.362-40.137-66.183-94.867-111.683-175.142-111.683-386.77-4.138-594.75 591.504-594.75 591.504-200.683 512.917-14.595 893.462 273.659 905.875 116.758 4.133 215.279-70.321 288.254-173.729-10.946 41.362-25.542 82.725-36.488 124.091-226.225 132.363-430.558 235.775-558.266 417.775Zm43.787 504.642s-178.791-24.817 32.838-359.867c0 0 127.708-198.545 423.258-384.687-127.704 380.55-299.2 756.962-456.096 744.554Zm1003.42-1993.75s-10.95-136.5-51.084-223.366c0 0 98.517 37.229 51.084 223.366Zm-722.463 1005.15s-207.979-8.271-10.945-653.55c0 0 204.333-595.642 361.229-603.917 109.466-4.137 72.975 368.142 65.679 459.142-3.65 24.817-7.296 49.638-10.946 74.454-29.192 95.138-200.683 690.779-405.017 723.871Z" style="fill:#fff;fill-rule:nonzero"/><path d="M18559 4254.19h7.3c43.784-4.137 76.625-41.367 83.921-86.867 7.3-45.5 18.246-107.545 32.838-186.137 251.766-914.146 696.921-1356.74 715.162-1294.69 18.246 62.046-127.704 438.459-127.704 438.459-153.25 421.912-167.846 703.187-167.846 703.187-29.191 479.821 291.904 417.775 291.904 417.775 386.771-12.408 678.671-881.054 715.159-1001.01 3.65-12.409 7.3-24.817 7.3-37.229 3.65-53.771-18.246-103.409-36.488-136.5-7.3-16.546-29.191-12.409-36.487 4.137-244.471 736.279-580.159 1075.46-638.538 1029.96-69.329-57.909 135.004-682.505 200.684-864.509 131.354-351.591 153.245-641.141-29.192-728.004-240.821-107.55-507.179 306.092-507.179 306.092-98.521 140.637-186.092 301.958-244.471 417.775 14.596-82.725 32.837-169.592 51.083-256.454 14.596-82.73 32.838-161.321 47.434-235.775 189.737-140.638 397.716-421.913 452.45-814.871 29.191-194.413 10.945-306.096-21.892-368.142-43.788-86.862-113.113-82.729-113.113-82.729-40.137 0-76.625 16.546-116.762 45.504-408.663 297.821-689.621 2010.29-758.946 2481.84-21.892 132.366 72.975 256.458 193.383 248.187Zm1076.39-1369.15s-21.892-206.821-51.083-268.867c0 0 105.816 78.592 51.083 268.867Zm-394.067-1278.15s51.084 4.138 10.946 285.413c-29.191 198.545-135.004 479.825-288.254 657.687 116.763-566.687 204.333-943.1 277.308-943.1ZM22521.5 3232.52c277.304-198.55 408.662-707.325 408.662-707.325 266.363-980.329-164.196-951.375-164.196-951.375-255.416-12.408-598.4 583.234-780.841 943.1 3.65-12.408 3.65-20.679 7.3-33.091 36.487-136.5 65.679-252.317 91.22-351.592 80.271-53.775 153.246-124.092 222.575-235.775 171.492-268.867 25.542-388.821 25.542-388.821-54.733-53.775-229.875-115.821-379.475 153.046 0 0-94.867 157.183-189.737 438.458-415.963 157.184-941.388 256.459-1120.17 554.28-124.059 206.816-10.946 446.729 94.866 521.183 18.246 12.412 40.138-4.133 40.138-28.954-3.65-49.638 7.296-115.817 25.541-161.317 113.113-301.958 726.109-537.733 868.413-620.462 7.296-4.138 10.946-8.271 18.242-12.409-138.655 517.05-412.313 1737.29 36.487 1902.75 29.192 8.271 54.733-20.683 43.788-49.637-32.842-107.546-58.384-376.413 72.975-1046.51 36.487 330.909 153.25 1009.28 485.287 1079.6 0 0 306.496 82.725 368.529-268.866 3.646-20.684-18.246-37.23-36.491-28.955-47.434 33.092-127.705 70.317-226.221 28.955-193.388-82.73-324.746-492.234-379.475-703.188 18.242 12.408 29.192 16.546 29.192 16.546 160.545 82.725 324.741 37.225 437.854-49.638Zm426.904-1336.06s-58.379-157.183-135.004-239.912c0 0 135.004 4.137 135.004 239.912Zm-667.725-281.275c21.892 16.546 0 136.5-72.975 219.229-14.596 16.546-29.192 33.092-47.438 45.5 87.571-260.596 120.413-264.729 120.413-264.729Zm-317.446 1166.46c178.792-318.5 558.267-976.188 722.458-1005.15 0 0 135.009-12.409-29.187 608.054 0 0-222.575 798.325-529.075 756.962-109.463-16.545-149.6-219.229-164.196-359.87ZM23171 4245.9c383.121-12.408 675.025-872.779 715.158-996.87 3.65-16.546 7.3-33.092 7.3-45.5 0-45.5-14.596-91.005-32.842-124.092-10.945-20.683-40.133-16.546-47.433 4.133-244.467 728.009-576.508 1067.19-631.237 1021.69-69.33-57.908 80.27-711.463 255.412-1224.38 7.3-16.546 10.946-37.225 10.946-53.771 14.596-173.729-94.867-268.867-211.629-293.687-36.488-4.134-69.325 16.545-83.921 57.912-251.767 728.004-262.713 1108.55-262.713 1108.55-47.433 570.825 280.959 546.004 280.959 546.004Zm226.221-1439.47c0 86.862-36.488 103.408-36.488 103.408s18.246-144.771-10.946-210.954c0 0 51.084 24.817 47.434 107.546Zm-43.784-318.504c102.167 86.866 175.142-37.225 204.334-103.409 10.945-24.821 18.241-53.775 14.591-82.729-18.241-136.5-113.108-182-171.491-194.412-21.892-4.134-47.434 8.275-54.73 37.229-91.22 252.321 7.296 343.321 7.296 343.321Zm167.846-239.913s51.079 74.458-14.596 157.183c0 0 21.892-136.5 14.596-157.183Z" style="fill:#fff;fill-rule:nonzero"/><path d="M23911.8 4221.11c218.929 37.225 386.771-194.413 488.938-401.234 3.65 450.871 284.604 426.05 284.604 426.05 383.125-12.408 715.162-819.008 777.191-984.462 14.596-33.092 18.246-66.183 10.946-103.408-7.296-33.092-18.241-62.05-29.187-82.73-10.946-20.683-36.488-20.683-43.788 0-262.712 723.871-616.641 1042.37-704.212 1029.96-65.679-8.271 25.541-541.867 135.004-972.054 364.879-277.138 507.179-740.417 507.179-740.417 259.067-806.596-138.654-810.733-138.654-810.733-244.467-12.409-474.342 670.096-587.454 1079.6-36.488-86.863-94.867-144.775-189.734-148.909-364.879-16.545-638.537 599.775-638.537 599.775-251.767 570.825-193.388 1058.92 127.704 1108.56Zm1379.24-2519.07s-91.221 70.321-124.059 173.729c0 0-18.245-182 124.059-173.729Zm-10.946 119.958s43.783 223.363-58.379 533.596c-54.734 169.592-160.55 388.821-335.692 574.958 87.571-322.637 291.904-1038.24 394.071-1108.55Zm-1225.99 1497.38s273.659-670.096 412.313-653.55c105.816 8.271 54.733 330.913 25.541 483.959-7.296 24.816-10.945 49.637-18.245 70.32v4.134c-3.646 20.683-7.296 37.229-10.946 57.912-29.188 86.863-277.309 810.734-518.125 819.004 0 0-178.792-66.179 109.462-781.779Z" style="fill:#fff;fill-rule:nonzero"/><path d="M25630.3 4241.77c569.208 62.05 919.491-905.87 948.683-988.6 0-4.133 3.65-8.27 3.65-12.408 14.596-66.183 0-132.362-18.246-169.592-3.646-16.545-25.541-16.545-32.837 0-76.625 198.546-426.909 1042.38-857.467 1013.42-189.733-24.817-175.142-285.408-131.354-496.367 149.6-12.408 481.637-91 609.346-529.458 171.491-599.779-160.546-603.917-160.546-603.917-405.017-4.133-642.188 641.142-642.188 641.142s-456.096 1058.92 280.959 1145.78Zm262.712-1671.1c18.242-16.546 54.733-24.821 80.271-12.408 0 0-87.571 45.5-124.058 132.362 0 0 0-78.591 43.787-119.954Zm-262.712 723.871s244.466-694.917 383.12-686.642c0 0 94.871 45.5-29.187 446.73-98.521 301.958-302.85 380.55-405.017 401.233 25.542-95.138 51.084-161.321 51.084-161.321Z" style="fill:#fff;fill-rule:nonzero"/><path d="M32778.3 3153.9c-14.596-4.137-32.838-4.137-47.434-4.137-32.837 0-32.837 0-21.891-33.092 3.65-28.954 10.946-53.771 18.241-82.729 10.95-62.046-3.646-111.679-43.783-157.183-10.946-16.546-21.892-28.954-36.487-49.634h18.241c14.596 4.134 29.192 8.271 40.138 12.409 21.891 4.137 36.487-8.275 43.787-33.092 10.946-28.954 7.296-37.229-10.946-49.637-43.787-33.092-76.625-74.455-127.708-91 0 0 0-4.138-3.65-8.275 10.946-4.134 18.246-8.271 25.542-8.271h51.083c32.838 4.137 58.379-8.275 76.625-41.363 7.296-8.275 7.296-20.683 7.296-33.091 0-4.138-10.946-12.413-14.596-16.546-3.646 8.271-10.946 12.408-10.946 20.679 0 16.546-10.946 33.092-25.541 37.229-10.946 4.138-21.892 4.138-32.838 4.138 3.65-12.409 7.296-20.684 10.946-33.092 3.65-8.275 3.65-12.408 3.65-20.683-3.65 0-14.596 0-14.596 4.137-7.3 4.138-14.596 16.546-21.892 24.817-14.595 20.683-58.383 37.229-83.925 24.821 10.946-12.409 21.896-20.684 32.842-33.092 25.542-28.954 36.488-66.183 25.542-107.546 0-8.275-7.3-12.412-14.596-16.546 0 4.134-3.65 12.409-3.65 20.679-3.65 4.138 0 8.275 0 12.413-3.65 41.362-36.488 86.862-72.975 103.408-21.892 4.138-54.733-12.408-72.975-41.362-14.596-20.684-18.246-53.775 0-70.321 10.946-12.408 25.542-20.683 36.487-33.092 18.242-12.408 32.838-24.816 43.784-37.225 10.95-12.412 14.595-24.821 0-33.091-3.646-4.138-14.592 8.27-21.892 16.545-10.946 8.271-18.242 24.817-25.542 28.955-18.241 12.408-29.187 8.27-32.837-16.546 0-16.546 7.296-37.229 7.296-57.909v-20.683c-3.646 4.138-14.596 0-18.242 8.271-3.65 8.275-7.3 20.683-10.946 28.958v62.046c-3.65 16.546-3.65 37.225-21.896 49.633-10.946-16.545-7.296-33.087 0-49.633 7.3-28.958 10.946-62.046 7.3-91.004-3.65-16.546-7.3-24.817-25.541-24.817 0 16.546 3.646 33.092 0 45.5-3.65 24.817-7.3 53.775-14.596 74.454 0 8.275-14.596 12.413-21.892 16.546-3.65-8.271-10.946-20.679-7.3-28.954 3.65-20.683 14.596-37.229 21.896-53.771 3.646-4.137 10.946-12.412 10.946-20.683 0-8.275-7.3-12.408-10.946-16.546-3.65 4.138-7.3 8.271-10.95 12.408-7.296 16.546-14.592 33.092-25.542 45.5 0 4.138-10.945 8.275-10.945 4.138-3.646-4.138-7.296-8.275-7.296-12.408 3.65-16.546 7.296-28.955 14.595-45.5v-12.413c-3.65 0-10.945-4.133-14.595 0-18.246 16.546-29.192 37.229-25.542 62.046 3.65 45.504 21.892 74.458 54.733 103.412 21.892 20.684 47.434 41.363 65.675 70.317 21.896 37.229 47.438 62.046 83.925 78.592 18.242 8.275 32.838 20.683 51.084 33.091l-21.896 24.821c-14.596-4.137-29.188-8.275-43.783-8.275-21.892 0-40.138-4.133-62.03-4.133-10.945-4.138-21.895-4.138-32.841-8.275-3.646 4.137-3.646 8.275-3.646 8.275 32.837 45.5 62.029 91 113.112 95.133 14.592 28.959 29.188 57.913 43.784 82.729 3.65 8.275 7.3 12.409 10.946 20.684 10.945 24.816 10.945 49.637-10.946 62.046-14.596 12.408-29.192 16.545-47.434 16.545-40.137 4.138-76.625-12.408-113.112-33.091-51.083-28.954-105.817-49.638-164.196-41.363-36.487 4.134-54.733-20.683-54.733-62.046 0-8.275-3.646-16.545-7.296-24.82-7.296 4.137-14.596 4.137-21.892 12.408-7.3 4.137-14.596 12.412-18.246 20.683-3.645 12.409-7.295 28.954-3.645 45.5-76.625-45.5-167.846-86.862-277.309-128.229 7.296-20.679 14.596-37.225 21.892-57.908 10.946-24.817-7.296-49.638-29.192-49.638-18.241 0-36.487 8.275-54.729 12.409-36.487 8.275-36.487 8.275-36.487-33.092 0-33.088 3.645-66.179 0-95.133-3.65-74.459-36.488-128.23-91.221-165.459-18.246-12.408-32.838-24.816-54.734-41.362 14.596-4.138 18.246-8.275 21.896-8.275h47.434c25.541-4.134 36.487-20.679 40.137-53.771 3.646-33.092 0-41.367-29.192-53.775-54.733-20.683-105.816-57.908-167.845-57.908 0 0 0-4.138-3.646-8.275 7.296-4.134 14.591-12.409 25.541-16.546 18.242-8.271 40.134-12.409 58.38-16.546 40.137-8.271 65.679-33.088 76.625-74.454 3.645-12.409 3.645-28.954 0-41.363-3.65-4.137-14.596-8.275-25.542-12.408 0 8.271-7.3 16.546-7.3 24.817 7.3 20.683 0 41.362-14.592 53.775-10.95 8.27-25.541 8.27-40.137 16.545 3.645-16.545 3.645-28.958 7.296-45.504 0-8.271 0-12.408-3.65-20.679-3.646 4.133-14.592 4.133-18.242 8.271-3.65 8.275-7.3 24.821-10.946 37.229-10.946 24.817-62.029 62.046-91.221 57.908 10.946-16.545 18.246-33.091 25.542-53.77 25.541-41.367 25.541-86.867 3.65-128.23-3.65-8.275-14.596-8.275-21.896-12.408 0 4.133-3.646 12.408 0 20.679 0 8.275 0 12.409 3.65 16.546 7.3 49.638-14.596 111.683-54.729 140.638-21.896 16.545-65.679 8.275-94.871-16.546-21.892-20.679-32.838-53.771-18.242-82.725 7.296-20.684 21.892-33.092 36.488-49.638 10.946-16.546 25.541-37.229 36.487-57.912 7.296-16.546 7.296-33.092-10.946-37.225-3.65-4.138-14.595 16.546-21.895 24.816-7.296 16.546-10.946 33.092-21.892 45.5-14.596 16.546-29.192 16.546-36.488-8.27-7.295-20.684-7.295-45.5-7.295-70.321-3.65-4.134-3.65-12.409-7.3-20.679-7.296 4.133-14.596 4.133-18.242 12.408-3.65 12.408-7.3 28.954-3.65 41.362 3.65 20.684 10.946 45.5 14.596 66.184 3.65 24.816 7.296 45.5-10.946 66.183-18.246-12.408-14.596-37.229-14.596-53.775 3.65-41.362-3.65-74.454-18.246-111.683-3.646-12.409-14.596-24.817-32.837-16.546 3.65 16.546 10.946 33.092 14.596 53.775 3.645 28.954 3.645 57.908 3.645 91 0 8.275-14.591 16.546-21.891 24.821-3.646-12.413-18.242-24.821-18.242-33.092 0-24.821 10.946-45.5 14.596-66.183 0-8.275 3.646-20.684 3.646-28.954-3.646-8.275-10.946-12.413-18.242-16.546 0 8.271-3.65 12.408-7.3 20.679-3.646 20.683-7.296 41.367-14.596 57.912-3.646 4.134-10.946 12.409-14.591 12.409-3.65-4.138-10.95-12.409-10.95-16.546 0-16.546 3.65-37.229 3.65-53.775 0-4.133-3.65-12.408-3.65-16.546-3.646 0-10.946 4.138-14.592 8.275-18.246 20.683-21.896 49.638-10.946 78.592 14.592 45.5 43.783 78.591 87.571 95.137 32.837 16.546 69.325 33.092 94.867 57.909 32.837 33.091 69.325 53.775 116.762 62.045 21.892 4.138 43.783 12.409 69.325 16.546-10.946 20.684-18.242 28.954-21.892 37.229-18.245 4.138-32.841 4.138-51.083 8.271-21.892 4.138-47.433 8.275-72.975 16.546-10.946 0-25.542 0-40.137 4.138v8.27c47.433 41.367 98.516 78.592 156.895 66.184 25.542 28.954 47.438 57.912 69.33 82.729 3.65 4.137 10.945 12.408 18.241 16.546 21.896 20.683 25.542 53.771 3.65 78.591-10.946 12.409-29.191 24.817-47.433 33.092-43.788 16.546-91.221 12.408-138.654 4.138-65.679-16.546-131.359-24.821-197.034 8.27-40.137 16.546-65.679-4.137-80.275-49.637 0-12.408-7.295-16.546-10.945-28.954-10.946 8.271-18.246 12.408-25.542 20.683-7.296 8.271-10.946 20.679-10.946 28.954-10.946 45.5 14.596 82.729 62.029 99.275-237.171-12.412-485.287 57.909-737.054 153.046-18.246-57.912-58.379-103.412-116.762-132.367-21.892-12.408-43.784-28.954-69.325-45.5 14.595-4.137 18.241-8.27 25.541-12.408 18.242 0 40.138-4.137 58.379-8.275 32.838-4.133 43.788-28.954 47.434-70.317 0-41.362-7.296-53.775-43.784-62.045-72.975-20.684-142.304-57.909-218.929-49.638 0 0 0-4.137-3.646-12.408 7.296-8.275 18.242-20.684 29.188-24.821 21.896-12.408 47.433-20.679 72.975-28.954 47.437-12.409 76.625-49.638 87.571-103.409 3.65-16.545 0-33.091-7.296-49.637-3.65-8.271-18.246-8.271-29.192-12.408-3.646 8.27-10.946 20.679-7.296 33.091 7.296 24.817 3.65 49.638-14.595 66.179-10.946 12.413-29.192 16.546-47.434 24.821 0-16.546 0-33.091 3.65-53.775 0-8.271-3.65-20.679-3.65-28.954-10.946 4.138-21.891 8.275-21.891 12.408-7.3 16.546-10.946 33.092-14.596 49.638-10.946 37.229-69.329 86.867-105.817 86.867 7.3-24.821 18.246-45.5 29.192-70.321 21.891-57.909 18.241-111.684-14.596-165.454-3.65-8.275-18.242-8.275-29.192-12.413 0 8.275 0 20.683 3.65 28.958 0 8.271 3.65 12.409 3.65 20.68 18.242 62.045-3.65 140.637-51.083 186.137-25.542 20.683-80.275 16.546-120.408-12.408-32.842-24.817-47.438-62.046-32.842-103.409 7.3-20.683 25.542-41.366 40.137-62.045 14.596-24.821 29.192-53.775 40.138-82.73 7.296-16.545 7.296-41.362-14.596-45.5-7.296 0-21.892 24.817-25.542 37.23-10.945 20.679-10.945 45.5-21.891 57.908-18.246 28.954-36.488 24.817-51.084-4.138-7.3-24.816-10.945-53.77-14.595-82.729-3.65-12.408-7.296-20.679-10.946-28.954-7.3 4.138-21.892 8.275-21.892 16.546-3.65 16.546-3.65 37.229 0 53.775 3.646 28.954 18.242 53.771 25.542 82.729 7.296 28.954 14.591 57.908-7.3 82.725-25.542-12.408-25.542-41.362-25.542-66.183 0-49.634-10.946-91-32.837-132.363-7.3-20.683-21.892-33.091-43.788-20.683 7.3 24.821 18.246 41.367 25.542 66.183 3.65 37.229 10.946 74.454 10.946 111.684 0 12.408-14.592 24.816-21.892 33.091-10.946-12.408-25.542-24.821-25.542-37.229-3.65-28.954 3.65-53.771 7.3-82.729 3.646-12.408 3.646-28.954 0-37.225 0-8.275-10.95-12.408-18.246-20.683-3.65 8.275-7.295 20.683-7.295 28.954-7.3 24.821-10.946 49.637-14.596 74.458-3.65 8.271-10.946 16.542-14.596 16.542-7.296-4.134-18.246-12.409-18.246-16.542-3.646-24.821 0-45.504-3.646-70.321 0-4.137 0-12.408-3.65-20.683-7.296 4.137-14.596 4.137-18.241 12.412-18.246 33.088-21.896 66.18-7.3 103.409 25.541 57.908 65.679 91 124.058 107.546 40.137 12.408 87.571 28.954 124.058 57.908 47.434 37.229 94.871 57.912 153.25 62.046l87.571 12.412c-10.946 24.817-18.246 41.363-21.892 49.634-21.895 4.137-43.787 8.275-62.029 12.412-29.191 12.408-62.029 24.817-91.221 33.092-14.595 4.133-32.837 8.271-47.433 12.408v12.408c65.679 41.363 127.708 86.863 204.329 62.046 32.842 33.092 62.029 62.046 94.871 91 7.296 8.275 14.596 12.409 21.892 20.684 29.191 24.816 40.137 62.045 14.596 95.137-14.596 20.683-32.838 37.229-54.734 49.638-54.729 28.954-116.758 28.954-175.141 24.816-83.921-12.408-167.842-12.408-248.117 37.229-43.783 24.817-80.271 4.138-102.167-53.775-3.646-12.408-14.591-20.679-18.241-28.954-10.946 8.275-25.542 16.546-32.842 24.817-3.646 12.412-7.296 24.821-10.946 41.367-3.646 53.77 29.192 99.275 91.221 111.683 43.783 12.408 51.083 20.679 36.487 70.317 0 4.137-3.65 4.137-3.65 8.275-153.245 62.045-299.2 107.545-434.204 132.362-255.412 41.367-441.504-12.408-580.158-173.729-14.592-53.771-43.783-41.363-102.163-45.5-25.541-4.133-58.383 20.683-76.625 45.5-29.191 28.958-25.541 62.046-62.029 95.137-25.541 24.821-47.433 16.546-80.275 28.955 0 0-36.487-33.088-14.596-119.955 21.896-82.729-40.133-161.32-40.133-161.32-47.437-115.817-120.412-144.771-240.821-107.546-65.679 20.683-127.708 28.954-189.737 0-14.596-4.138-32.838-4.138-43.788 16.546-10.946 16.545-14.591 41.366 0 70.32 10.95 24.817 32.842 24.817 43.788 12.409 40.137-62.046 87.571-20.684 135.004-16.546 3.65 0 10.946 0 32.842 4.137-43.788 86.863-51.084 144.771-36.492 215.092-76.621 24.817-102.163 49.638-160.546 107.546 0-12.408-25.542-70.317-32.837-91-3.65-20.683-14.596-49.638-29.192-53.775-18.242-4.133-43.783 8.275-62.029 20.683-21.892 12.409-36.488 37.229-58.379 53.775-36.488 28.954-36.488 70.317-29.192 115.817 10.946 49.637 43.787 33.092 72.975 37.229 14.596 0 29.192-4.137 51.083-4.137-32.837 95.137-62.029 169.591-54.729 273.004 3.646 4.133 3.646 8.271 3.646 12.408-10.946 24.817-18.242 49.638-21.892 70.317-65.679-16.542-131.354-37.225-197.033-62.046-131.358-53.771-266.363-124.092-394.071-210.954-222.575-148.913-357.579-297.821-361.229-297.821-21.892-24.821-54.729-24.821-76.625 0-18.242 24.817-18.242 66.183 3.65 86.862 0 4.138 14.596 20.684 40.137 45.5 58.38 82.73 167.846 219.23 317.446 359.867 138.65 128.229 284.604 235.775 437.854 314.367 116.759 62.05 237.171 107.55 357.58 140.637 7.295 28.959 10.945 66.184 14.595 99.275 0 0-94.87-12.408-94.87 28.954 0 0 0 33.092 69.329 33.092 116.758 4.138 222.575 16.546 339.337 20.683 135.004 0 317.442 0 452.446-8.275 105.817-8.27 182.442-12.408 262.713-49.633 94.87-41.367 149.604-161.321 113.112-252.321 0 0-29.187-57.912-51.079-49.637-25.542 12.408-36.492 24.816-29.192 53.771 21.892 57.912 18.242 111.683-18.246 157.183-29.187 37.229-54.729 37.229-83.92-4.133-36.488-53.775-47.434-107.546-18.246-173.73 25.541-62.045 36.491-128.229 51.083-194.412 21.896-119.954 40.138-161.321 142.304-128.229 0 0 43.788 28.954 69.325-8.271 21.896-41.367-25.537-95.138-25.537-95.138-54.734-62.045-131.359-49.637-204.334 4.138-36.487 24.817-43.787 37.225-76.625 66.179-32.837-173.729-153.25-20.679-226.225-45.5 10.946-70.317-43.783-144.775-54.733-165.454 80.275-53.775 58.383-70.321 138.654-161.321 3.65-4.137 3.65-8.271 7.3-8.271 0 0 21.892-4.137 43.784-12.412 36.487 45.504 124.058 144.775 284.608 223.366 109.462 53.775 233.521 86.867 364.875 99.275-3.646 8.271-10.946 16.546-18.242 24.817-7.3 8.275-10.946 20.683-21.891 24.821-72.98 16.546-72.98 45.5-72.98 111.683 0 20.679 7.3 41.363 10.95 66.179 18.242-12.408 36.488-24.816 51.08-41.362 58.383-57.908 113.112-119.954 171.495-182 167.842 0 350.284-28.958 543.667-91.004 164.196-53.771 313.796-111.684 463.396-169.592 51.083-20.679 98.517-41.362 149.6-62.046-14.596 45.5-29.188 86.867-43.783 128.229-7.3 12.409-10.946 20.684-21.896 28.955-21.892 24.82-43.784 45.5-65.675 66.183-7.3 8.271-14.596 20.683-18.246 33.092-7.296 28.954-10.946 57.908-14.596 86.862 0 8.275 0 16.546 3.65 20.683 7.296 4.138 18.246 4.138 21.892 0 25.541-20.683 51.083-41.362 72.975-66.183 72.979-95.137 113.112-210.954 149.604-326.775 47.433-20.683 94.867-37.229 142.3-49.637 0 12.408 3.65 24.82 7.3 37.229 10.946-8.275 29.187-16.546 40.133-24.821 14.596-16.546 32.842-28.954 47.438-45.5 120.408-33.092 240.816-57.908 368.525-70.317 171.491-20.683 346.633-12.408 529.075 24.817-7.3 20.683-10.946 41.367-14.596 62.046-3.65 4.137-3.65 12.408 0 16.546 3.65 4.137 10.946 4.137 18.242 0 18.245-12.409 40.137-24.817 58.383-45.5 7.296-4.138 10.946-8.271 18.242-16.546 72.979 16.546 149.6 41.362 226.225 66.183-25.542 16.546-54.73 28.954-83.921 33.092-18.246 4.137-32.838 20.679-51.084 28.954-3.65 4.137-10.945 8.271-18.241 8.271-51.084-8.271-54.734 12.412-69.329 49.637-3.65 16.546-3.65 33.092-7.296 45.5 14.591-4.133 29.187-4.133 40.133-12.408 62.029-24.817 124.063-53.771 182.442-82.729 47.433-24.817 91.221-24.817 131.354 12.412 0 4.134 7.3 4.134 10.946 4.134 51.083 33.091 105.816 45.5 156.9 8.275 54.733-37.23 98.516-37.23 153.25 4.137 51.083 41.363 113.112 62.046 178.787 53.771 3.65 28.954 25.542 28.954 43.788 28.954h36.487c21.892 0 40.138 0 62.029-4.133-25.541 33.087-47.433 57.908-69.325 86.862-3.65 4.138-10.95 8.271-18.245 12.409l-54.734 24.82c-7.296 0-14.591 8.271-18.241 12.409-10.946 16.546-18.246 33.091-25.542 53.771-3.65 4.137-3.65 12.412-3.65 12.412 3.65 4.133 10.946 8.271 14.596 4.133 18.246-4.133 40.137-8.27 58.379-20.679 80.275-45.5 135.008-124.091 189.737-202.683 14.596-16.546 3.65-41.367-14.595-49.638Zm-4367.58 893.463c72.975-16.546 105.813-33.092 153.246-74.454 10.946 41.362 25.542 78.591 43.788 128.225-51.084 4.137-91.221 8.275-135.005 16.546-51.083 8.275-65.679-24.817-62.029-70.317Zm-1499.65-525.325c-72.979-66.179-135.008-132.363-186.091-194.408 51.083 41.362 113.112 86.862 178.791 132.362 135.004 91 273.659 165.458 412.313 223.367 80.275 28.954 156.9 53.775 233.521 74.454 14.595 70.321 58.383 132.367 105.816 198.55-105.816-28.954-211.629-74.458-313.796-128.229-153.25-78.592-295.55-182.004-430.554-306.096Zm912.196 591.508c-58.383 8.271-83.925-20.683-83.925-82.729 94.871 24.817 182.442 33.092 266.363 41.363 14.595 4.137 25.541 16.545 36.487 24.82-76.625 12.409-145.95 12.409-218.925 16.546Zm525.425-49.637v49.637c-135.008 16.546-229.875 4.134-248.121-41.366 87.571 4.137 145.954 0 248.121-8.271Zm353.929-823.146c25.542 12.408 54.734 24.821 83.925 33.092 58.379 16.545 120.409 24.82 189.734 24.82 47.437 0 102.166-4.137 160.55-12.412 65.675-12.408 131.354-28.954 200.679-49.638-43.784 62.05-87.571 115.821-149.6 157.184h-3.646c-138.654-8.271-266.363-41.363-379.475-95.134-40.138-16.545-72.975-37.229-102.167-57.912Zm1101.93 66.183c-175.142 57.909-339.338 86.863-492.584 91 0 0 0-4.137 3.646-4.137 51.083-57.909 109.463-86.863 182.442-57.909 7.296 0 14.591 0 18.241 4.138 87.571 8.271 167.846-4.138 222.575-86.867 58.384-82.725 124.059-111.679 218.93-82.725 91.22 24.817 182.437 16.546 270.008-37.229 3.65 8.275 7.3 12.408 10.946 16.546-138.654 53.775-280.954 107.546-434.204 157.183Zm682.325-347.458c-21.896 4.137-43.788 12.408-65.68 20.683-43.787 20.684-43.787 20.684-47.433-33.091l-10.95-124.092v-4.138c251.767-95.137 507.183-165.454 740.704-148.908-3.646 8.271-7.296 12.408-14.596 20.679-36.487 28.954-76.62 45.5-120.408 45.5-18.246-4.133-36.487 4.138-47.433 20.684-40.138 49.637-80.275 91-135.004 119.954-18.246 8.275-29.192 33.091-47.438 49.637-3.646 4.138-10.946 12.409-18.242 12.409-47.433 8.275-58.379 20.683-62.029 53.775-43.787 12.408-87.571 28.954-131.358 45.5 3.65-8.271 3.65-12.409 7.3-20.684 7.296-33.087-14.596-62.046-47.433-57.908Zm627.587-66.183c-102.162 8.275-197.033 28.958-291.9 49.637 21.892-16.546 40.133-37.225 62.029-53.771 47.434-41.366 94.867-62.046 153.246-33.091 3.65 4.133 7.3 4.133 10.95 4.133 69.325 16.546 135.004 12.412 182.438-45.5 51.083-62.046 105.816-78.592 175.141-49.633 69.325 28.954 145.95 28.954 218.929-4.138 10.946 28.954 32.838 28.954 58.38 20.679 10.945-4.133 18.241-8.271 29.191-12.408 18.242 8.275 40.134 12.408 58.379 20.683-10.945 24.817-21.891 49.638-32.841 70.317-3.646 8.275-10.946 16.546-18.242 24.821-14.596 12.408-32.837 24.816-47.433 37.229-193.388-41.367-375.825-49.638-558.267-28.958Zm638.538 45.5c29.191-37.225 51.083-82.725 72.975-128.225 145.954 53.77 255.416 111.683 350.283 165.454 0 4.137-3.646 4.137-3.646 8.275-7.3 8.271-14.596 12.408-21.896 16.546-32.837 16.541-69.325 20.679-105.812 4.133-14.596-4.133-29.192-4.133-43.788 8.275h-3.646c-83.925-28.954-164.195-53.775-244.47-74.458Z" style="fill:#fff;fill-rule:nonzero"/></g><g><path d="M9988.42 6921.81c-162.475 0-302.129-59.192-418.959-177.567-116.829-118.379-175.246-259.579-175.246-423.604 0-166.087 58.8-307.804 176.405-425.15 117.604-117.346 259.191-176.016 424.766-176.016 165.571 0 307.159 58.67 424.763 176.016 117.604 117.346 176.404 258.546 176.404 423.604 0 168.15-58.929 310.642-176.792 427.471-117.862 116.829-261.641 175.246-431.341 175.246Zm0-85.883c168.154 0 301.745-61.638 400.779-184.917 80.983-100.579 121.471-210.962 121.471-331.146 0-141.846-50.417-263.058-151.259-363.637-100.837-100.584-222.179-150.875-364.025-150.875-141.846 0-263.191 50.421-364.029 151.258-100.842 100.842-151.258 222.183-151.258 364.029 0 140.3 50.158 261.254 150.483 362.867 100.325 101.612 219.604 152.421 357.838 152.421Zm226.695-209.675c-72.729 25.275-138.491 37.912-197.295 37.912-97.484 0-177.305-31.721-239.459-95.166-62.154-63.442-93.233-144.938-93.233-244.488 0-104.196 30.304-187.367 90.913-249.521 60.604-62.154 141.458-93.233 242.554-93.233 48.487 0 107.287 6.708 176.404 20.117l20.117 3.87-.001 95.163c-70.149-28.883-133.075-43.325-188.783-43.325-68.087 0-122.892 24.242-164.412 72.729-41.521 48.483-62.284 112.442-62.284 191.879 0 78.917 21.663 141.329 64.992 187.234 43.329 45.908 101.871 68.862 175.629 68.862 58.288 0 116.575-15.992 174.858-47.971v95.938ZM12157.9 5826.77s-118.842 14.263-156.871 321.663c-17.429 148.95 4.754 228.175 33.275 270.958-64.967 202.821-133.1 388.213-133.1 388.213-110.921-80.813 11.092-690.863 34.859-803.363 1.583-11.091-6.338-20.6-15.846-20.6-28.521-1.583-53.875 9.509-74.471 23.767-39.617 26.937-66.554 68.137-77.646 114.087-17.429 72.892-50.704 225.009-58.625 375.538-44.371 231.346-96.658 316.908-118.842 345.433-22.183-68.137-42.783-229.762-1.587-617.975 4.754-53.875 11.091-99.825 15.846-139.437 30.108-25.354 57.045-57.046 80.812-104.584 53.875-114.087-15.846-148.945-15.846-148.945-26.937-15.846-106.162-26.938-152.116 85.566 0 0-30.104 66.55-52.288 179.054-167.962 90.317-386.629 166.375-443.675 291.555-41.196 87.15 23.771 169.545 74.475 190.145 7.921 3.171 17.429-3.166 15.846-12.675-4.754-19.016-4.754-44.366-1.588-63.383 30.109-122.008 277.296-256.696 332.759-299.479 3.167-1.583 4.75-3.167 6.337-4.754-26.937 213.916-66.55 719.383 175.884 694.033h-3.167 3.167c15.845-14.262 57.046-90.321 91.904-175.887 11.091 58.629 30.108 109.337 60.212 144.195 42.784 44.367 98.242 36.446 131.517 20.6 12.679-6.337 22.183-15.845 28.521-26.937 23.771-49.121 96.658-209.163 164.796-383.463 41.195 19.017 90.316-3.166 109.333-33.275 4.754-4.754 0-12.675-4.754-12.675-31.692-1.583-57.046-12.675-76.059-30.108 50.705-136.271 93.488-274.125 102.996-370.783 25.354-229.759-76.058-196.484-76.058-196.484Zm-503.887 49.121c12.679 4.754 9.508 52.292-15.846 87.15-4.75 7.925-11.092 15.846-17.429 22.184 20.6-104.58 33.275-109.334 33.275-109.334Zm423.075 399.304c-22.184-153.7 45.954-373.95 45.954-373.95 42.779 15.846 7.921 185.392-45.954 373.95Zm139.441-329.583s-14.262-61.796-36.446-90.321c0 0 41.2 0 36.446 90.321ZM12327.4 6893.19c166.379-4.754 293.141-334.337 310.57-381.875 1.584-6.337 3.171-12.675 3.171-17.429 0-17.433-6.337-34.863-14.262-47.538-4.754-7.925-17.429-6.337-20.6 1.584-106.163 278.879-250.358 408.812-274.125 391.383-30.108-22.183 34.858-272.542 110.917-469.025 3.17-6.337 4.754-14.262 4.754-20.6 6.337-66.55-41.196-102.996-91.904-112.504-15.846-1.583-30.105 6.342-36.442 22.187-109.333 278.88-114.088 424.659-114.088 424.659-20.6 218.666 122.009 209.158 122.009 209.158Zm98.241-551.421c0 33.275-15.845 39.613-15.845 39.613s7.925-55.459-4.755-80.813c0 0 22.184 9.509 20.6 41.2Zm-19.012-122.012c44.367 33.275 76.058-14.259 88.733-39.613 4.754-9.508 7.921-20.6 6.338-31.691-7.921-52.288-49.121-69.721-74.475-74.471-9.504-1.588-20.596 3.166-23.767 14.258-39.613 96.658 3.171 131.517 3.171 131.517Zm72.887-91.904s22.184 28.525-6.337 60.212c0 0 9.508-52.287 6.337-60.212Z" style="fill:#fff;fill-rule:nonzero"/><path d="M12633.2 6896.36c7.925 0 15.846-7.925 15.846-17.434 1.583-23.766 6.337-52.287 9.508-82.395 109.334-348.6 282.05-505.471 307.4-500.717 42.784 7.925-63.379 190.146-63.379 190.146-87.15 145.779-87.15 263.037-87.15 263.037-3.171 148.946 102.996 144.192 102.996 144.192 166.375-4.754 331.171-329.588 356.521-381.875 3.171-6.338 4.754-12.675 4.754-19.017 0-19.012-7.921-36.441-15.846-47.533-4.754-7.925-14.258-6.342-19.012 1.583-128.35 275.713-297.896 408.813-321.663 391.384-31.692-20.6 53.871-204.409 133.1-329.588 85.567-136.271 66.55-247.187-12.675-278.879-102.996-42.783-220.254 117.258-220.254 117.258-33.275 41.196-63.379 88.734-88.733 128.346 14.262-38.029 28.52-77.642 45.95-123.596 3.17-4.75 4.754-11.091 4.754-17.429 7.925-71.304-38.029-117.254-88.734-129.933-12.675-3.167-25.354 3.171-31.691 15.846-53.875 133.104-85.567 250.358-104.579 332.754-20.6 82.4-34.863 207.579-34.863 266.204 7.925 49.121 61.8 77.646 107.75 77.646Zm446.842-537.163s-7.921-60.212-20.596-77.641c0 0 44.367 20.595 20.596 77.641Zm-331.167-7.925s-1.587-45.95-7.925-71.304c0 0 33.275 22.183 7.925 71.304Z" style="fill:#fff;fill-rule:nonzero"/><path d="M13309.8 6124.69c-95.075 359.692-109.337 557.758-109.337 557.758-17.429 218.667 122.012 210.746 122.012 210.746 158.454 3.171 285.217-313.741 313.742-377.121 4.75-12.679 6.337-26.937 3.167-39.616-1.584-12.675-7.921-23.767-12.675-33.275-4.755-6.338-15.846-6.338-19.017 1.587-123.592 305.817-250.358 421.488-282.05 392.967-47.533-42.783 77.646-500.717 144.196-732.063 110.916 0 139.441 38.03 145.779 58.63 3.167 6.337 9.508 7.925 14.258 3.17 22.184-23.77 66.554-80.812-4.75-115.675-26.937-14.258-82.4-12.675-137.858-9.504 7.925-26.937 14.263-47.537 17.429-58.629 3.171-6.337 3.171-14.262 1.588-22.183-9.509-60.213-82.396-76.059-112.505-79.229-7.92 0-14.262 3.17-15.845 11.091-19.013 58.629-34.859 114.088-50.705 166.379-91.904 9.509-145.779 3.167-180.637-11.091-22.183-9.509-34.863-28.521-41.2-42.784-1.583-6.337-11.092-6.337-14.262-1.583-14.259 20.596-36.442 58.625-22.184 88.733 19.017 42.784 57.046 61.796 240.854 31.692Zm167.959-125.179s-3.167-39.613-12.675-60.213c0 0 34.862 17.43 12.675 60.213Z" style="fill:#fff;fill-rule:nonzero"/><path d="M13712.3 6891.61c247.188 23.766 399.305-347.017 411.98-378.709 0-1.583 1.587-3.166 1.587-4.754 6.338-25.35 0-50.704-7.925-64.966-1.583-6.338-11.092-6.338-14.262 0-33.275 76.058-185.392 399.308-372.367 388.216-82.396-9.508-76.058-109.333-57.042-190.146 64.963-4.754 209.159-34.862 264.617-202.825 74.475-229.758-69.721-231.341-69.721-231.341-175.883-1.584-278.879 245.604-278.879 245.604s-198.067 405.646 122.012 438.921Zm114.084-640.159c7.925-6.337 23.771-9.508 34.862-4.754 0 0-38.029 17.429-53.875 50.709 0 0 0-30.109 19.013-45.955Zm-114.084 277.296s106.163-266.204 166.375-263.033c0 0 41.2 17.429-12.675 171.129-42.783 115.671-131.516 145.779-175.887 153.7 11.091-36.442 22.187-61.796 22.187-61.796Z" style="fill:#fff;fill-rule:nonzero"/><path d="M14127.5 6896.36c7.921 0 15.846-6.342 15.846-15.846 1.584-25.354 6.338-53.875 9.504-83.983 109.338-347.013 282.05-503.884 307.405-500.717-.001 0-188.563 248.775-74.476 318.496 142.609 66.55 269.376-95.075 269.376-95.075 12.675-20.596 19.012-49.121 15.845-72.888 0-6.337-9.508-7.925-12.679-3.171-49.121 71.305-133.1 128.35-217.083 136.271-11.092 0-15.842-12.675-7.921-19.012 123.596-107.75 177.471-286.804 104.579-331.171-95.071-57.042-220.25 117.258-220.25 117.258-33.275 42.779-63.383 88.734-88.737 129.929 14.262-39.612 28.525-79.225 45.954-123.591 3.167-6.338 4.754-12.679 4.754-19.017 7.921-69.721-38.029-117.254-88.737-129.933-12.675-3.167-25.35 4.754-31.688 15.846-53.875 134.687-85.567 250.358-104.583 334.341-20.596 82.396-34.859 205.992-34.859 264.617 7.921 49.121 61.796 77.646 107.75 77.646Zm408.813-543.5s6.337-42.784-6.338-77.646c0 0 42.784 26.937 6.338 77.646Zm-297.896-1.588s0-47.533-4.754-71.304c0 0 31.692 23.771 4.754 71.304ZM16041.6 5826.77s-118.842 14.263-156.871 321.663c-17.433 148.95 4.754 228.175 33.275 270.958-64.967 202.821-133.104 388.213-133.104 388.213-110.917-80.813 11.092-690.863 34.862-803.363 1.584-11.091-6.337-20.6-15.845-20.6-28.521-1.583-53.875 9.509-74.475 23.767-39.613 26.937-66.55 68.137-77.642 114.087-17.429 72.892-50.704 225.009-58.629 375.538-44.367 231.346-96.658 316.908-118.842 345.433-22.183-68.137-42.783-229.762-1.583-617.975 4.754-53.875 11.092-99.825 15.846-139.437 30.104-25.354 57.041-57.046 80.812-104.584 53.875-114.087-15.846-148.945-15.846-148.945-26.937-15.846-106.166-26.938-152.116 85.566 0 0-30.109 66.55-52.292 179.054-167.962 90.317-386.629 166.375-443.671 291.555-41.2 87.15 23.767 169.545 74.471 190.145 7.925 3.171 17.433-3.166 15.846-12.675-4.754-19.016-4.754-44.366-1.583-63.383 30.108-122.008 277.295-256.696 332.754-299.479 3.171-1.583 4.754-3.167 6.337-4.754-26.937 213.916-66.55 719.383 175.888 694.033h-3.171 3.171c15.846-14.262 57.041-90.321 91.904-175.887 11.092 58.629 30.104 109.337 60.212 144.195 42.78 44.367 98.242 36.446 131.517 20.6 12.675-6.337 22.183-15.845 28.521-26.937 23.766-49.121 96.658-209.163 164.792-383.463 41.2 19.017 90.32-3.166 109.333-33.275 4.754-4.754 0-12.675-4.75-12.675-31.692-1.583-57.046-12.675-76.058-30.108 50.704-136.271 93.487-274.125 102.991-370.783 25.354-229.759-76.054-196.484-76.054-196.484Zm-503.887 49.121c12.675 4.754 9.508 52.292-15.846 87.15-4.754 7.925-11.092 15.846-17.429 22.184 20.6-104.58 33.275-109.334 33.275-109.334Zm423.075 399.304c-22.184-153.7 45.95-373.95 45.95-373.95 42.783 15.846 7.925 185.392-45.95 373.95Zm139.437-329.583s-14.258-61.796-36.442-90.321c0 0 41.196 0 36.442 90.321ZM16290.4 6893.19c125.179-4.754 194.9-102.996 232.929-204.408 114.088-47.534 194.9-142.609 223.421-185.392 12.675-19.012 14.263-42.779 6.338-60.212-3.167-6.338-12.675-6.338-17.43-1.584-61.795 82.396-128.35 141.025-190.145 177.471 19.016-80.812 22.183-148.95 22.183-148.95s19.017-256.696-155.283-256.696c0 0-136.271-4.754-205.992 175.884-44.367 42.783-93.488 114.087-114.088 226.591 0 0-50.704 285.217 198.067 277.296Zm232.929-572.021s-33.275-42.783-55.458-61.796c0 0 50.704 7.921 55.458 61.796Zm-215.5 183.809c25.354-177.471 104.584-215.5 104.584-215.5 95.07-4.755 85.562 199.654 85.562 199.654-4.754 64.966-14.258 118.841-28.521 161.621-36.446 11.095-68.133 12.679-95.071 4.754-80.812-22.184-66.554-150.529-66.554-150.529Zm-77.641 158.454c26.937 26.937 66.55 45.95 126.762 52.287 30.108 3.171 60.217 1.588 88.738-3.166-60.213 129.933-152.117 137.854-152.117 137.854-71.304 4.754-71.304-110.917-63.383-186.975Z" style="fill:#fff;fill-rule:nonzero"/><path d="M16762.6 6896.36c7.921 0 15.846-7.925 15.846-17.434 1.584-23.766 6.338-52.287 9.508-82.395 109.334-348.6 282.046-505.471 307.4-500.717 42.784 7.925-63.383 190.146-63.383 190.146-87.15 145.779-87.15 263.037-87.15 263.037-3.166 148.946 102.996 144.192 102.996 144.192 166.379-4.754 331.171-329.588 356.525-381.875 3.167-6.338 4.754-12.675 4.754-19.017 0-19.012-7.925-36.441-15.846-47.533-4.754-7.925-14.262-6.342-19.016 1.583-128.346 275.713-297.892 408.813-321.663 391.384-31.692-20.6 53.875-204.409 133.104-329.588 85.563-136.271 66.55-247.187-12.679-278.879-102.996-42.783-220.25 117.258-220.25 117.258-33.275 41.196-63.383 88.734-88.733 128.346 14.258-38.029 28.521-77.642 45.95-123.596 3.171-4.75 4.754-11.091 4.754-17.429 7.921-71.304-38.029-117.254-88.733-129.933-12.679-3.167-25.354 3.171-31.692 15.846-53.875 133.104-85.567 250.358-104.579 332.754-20.6 82.4-34.863 207.579-34.863 266.204 7.925 49.121 61.8 77.646 107.75 77.646Zm446.842-537.163s-7.921-60.212-20.6-77.641c0 0 44.367 20.595 20.6 77.641Zm-331.171-7.925s-1.583-45.95-7.921-71.304c0 0 33.275 22.183 7.921 71.304Z" style="fill:#fff;fill-rule:nonzero"/><path d="M17418.6 6883.69c95.071 14.263 167.959-74.471 212.33-153.7 1.583 172.717 123.591 163.208 123.591 163.208 166.379-4.754 310.571-313.741 337.509-377.12 6.337-12.68 7.925-25.355 4.754-39.617-3.167-12.675-7.921-23.767-12.675-31.688-4.754-7.925-15.846-7.925-19.017 0-114.088 277.296-267.788 399.305-305.817 394.55-28.521-3.166 11.092-207.575 58.629-372.366 158.455-106.167 220.25-283.634 220.25-283.634 112.505-308.987-60.212-310.57-60.212-310.57-106.163-4.755-205.992 256.695-255.113 413.566-15.841-33.279-41.195-55.462-82.395-57.046-158.455-6.337-277.296 229.759-277.296 229.759-109.334 218.666-83.979 405.646 55.462 424.658Zm598.959-964.987s-39.617 26.937-53.875 66.55c0 0-7.925-69.721 53.875-66.55Zm-4.754 45.95s19.012 85.566-25.355 204.408c-23.766 64.967-69.72 148.946-145.779 220.25 38.029-123.592 126.767-397.721 171.133-424.658Zm-532.408 573.608s118.842-256.696 179.054-250.358c45.95 3.166 23.767 126.762 11.092 185.391-3.171 9.509-4.754 19.013-7.925 26.938v1.583c-1.583 7.925-3.167 14.263-4.754 22.183-12.675 33.275-120.425 310.571-225.004 313.742 0 0-77.642-25.354 47.537-299.479Z" style="fill:#fff;fill-rule:nonzero"/><path d="M18164.9 6891.61c247.187 23.766 399.304-347.017 411.979-378.709 0-1.583 1.587-3.166 1.587-4.754 6.338-25.35 0-50.704-7.925-64.966-1.583-6.338-11.091-6.338-14.258 0-33.279 76.058-185.396 399.308-372.371 388.216-82.396-9.508-76.058-109.333-57.041-190.146 64.966-4.754 209.158-34.862 264.616-202.825 74.475-229.758-69.721-231.341-69.721-231.341-175.883-1.584-278.879 245.604-278.879 245.604s-198.066 405.646 122.013 438.921Zm114.087-640.159c7.921-6.337 23.767-9.508 34.859-4.754 0 0-38.03 17.429-53.875 50.709 0 0 0-30.109 19.016-45.955Zm-114.087 277.296s106.162-266.204 166.375-263.033c0 0 41.2 17.429-12.675 171.129-42.784 115.671-131.517 145.779-175.884 153.7 11.092-36.442 22.184-61.796 22.184-61.796Z" style="fill:#fff;fill-rule:nonzero"/><path d="M18580 6896.36c7.921 0 15.845-6.342 15.845-15.846 1.584-25.354 6.338-53.875 9.509-83.983 109.333-347.013 282.046-503.884 307.4-500.717 0 0-188.563 248.775-74.475 318.496 142.612 66.55 269.375-95.075 269.375-95.075 12.675-20.596 19.012-49.121 15.846-72.888 0-6.337-9.509-7.925-12.68-3.171-49.12 71.305-133.1 128.35-217.079 136.271-11.091 0-15.846-12.675-7.925-19.012 123.596-107.75 177.471-286.804 104.579-331.171-95.07-57.042-220.25 117.258-220.25 117.258-33.275 42.779-63.383 88.734-88.733 129.929 14.258-39.612 28.521-79.225 45.95-123.591 3.171-6.338 4.754-12.679 4.754-19.017 7.921-69.721-38.029-117.254-88.733-129.933-12.679-3.167-25.354 4.754-31.692 15.846-53.875 134.687-85.566 250.358-104.579 334.341-20.6 82.396-34.862 205.992-34.862 264.617 7.925 49.121 61.795 77.646 107.75 77.646Zm408.812-543.5s6.338-42.784-6.337-77.646c0 0 42.783 26.937 6.337 77.646Zm-297.896-1.588s0-47.533-4.754-71.304c0 0 31.692 23.771 4.754 71.304ZM20099.6 5904.44c144.196 36.446 383.463 161.625 524.488 212.329 142.608 50.709 364.441 71.304 429.408-72.887 41.2-88.734 11.092-144.196-11.092-169.546-4.754-6.338-15.846-3.171-17.429 4.754-26.938 117.254-191.729 139.438-191.729 139.438-242.438 33.275-508.642-137.855-733.646-172.713-61.796-9.508-115.671 0-161.625 17.429-38.029-41.2-98.242-36.446-98.242-36.446s-294.725 6.338-456.346 486.455c0 0-161.625 508.641 183.805 575.191 329.587 63.384 467.441-391.383 467.441-391.383s11.092-33.275-14.258-57.042c-4.754-3.171-11.092-1.587-12.679 3.167-25.35 68.137-167.963 427.829-411.979 388.217 0 0-196.488-82.396-57.046-507.055 0 0 41.2-120.429 102.996-237.683 61.796-117.258 144.191-228.175 220.25-220.254 0 0 15.846 1.587 26.937 22.183-68.133 39.617-104.579 93.492-104.579 93.492-136.271 193.312-15.846 225.004-15.846 225.004 49.121 14.263 96.659-19.017 126.767-55.458 49.121-58.629 66.55-142.609 66.55-142.609 9.508-44.37 7.921-77.645 0-102.995 39.612-12.68 83.979-14.263 137.854-1.588Zm942.804 28.525s28.525 76.058-28.521 106.163c0 0 34.863-72.888 28.521-106.163Zm-1155.13 68.133s-11.092 33.275-26.938 71.305c-22.183 50.708-55.458 107.75-82.395 91.904-42.784-25.354 42.783-148.946 42.783-148.946 17.429-25.354 42.783-53.875 76.058-77.646 0 17.433-3.171 38.029-9.508 63.383Z" style="fill:#fff;fill-rule:nonzero"/><path d="M20058.4 6893.19c166.375 3.171 310.571-313.742 337.508-377.121 6.338-12.679 7.921-26.937 4.75-39.616-3.167-12.675-7.921-23.767-14.258-33.275-3.171-6.338-14.263-6.338-17.429 1.587-114.088 275.708-267.792 399.304-305.821 392.967-31.688-4.754-30.104-133.104 31.691-354.938 179.055-102.996 247.192-299.479 247.192-299.479 110.917-308.987-60.212-310.571-60.212-310.571-174.3-4.754-310.571 527.65-310.571 527.65s-144.196 489.625 87.15 492.796Zm256.696-971.325s-39.617 26.938-53.875 66.55c0 0-6.338-68.137 53.875-66.55Zm1.583 41.196s19.017 87.15-25.354 205.992c-26.938 72.887-80.809 169.545-172.713 244.02 36.442-107.75 150.529-419.904 198.067-450.012Z" style="fill:#fff;fill-rule:nonzero"/><path d="M20416.5 6883.69c95.075 14.263 167.962-74.471 212.329-153.7 1.587 172.717 123.596 163.208 123.596 163.208 166.379-4.754 293.141-334.337 310.57-381.875 1.584-6.337 3.171-12.675 3.171-17.429 0-17.433-6.337-34.862-12.679-47.537-4.75-7.925-17.429-6.338-22.183 1.583-106.163 278.879-250.358 408.813-274.125 391.383-30.108-22.183 28.521-294.725 104.579-491.208 3.171-7.925 4.754-15.846 6.338-23.767 4.754-64.966-33.275-106.166-79.225-118.841-17.43-4.754-34.863 4.754-41.2 20.596-9.509 22.187-17.43 44.37-25.35 64.966-14.263-34.858-41.2-60.212-83.984-61.796-158.454-6.337-277.296 229.759-277.296 229.759-109.333 218.666-83.979 405.646 55.459 424.658Zm416.737-538.746s-4.754-63.379-14.262-83.979c0 0 47.537 26.938 14.262 83.979Zm-354.937 193.317s118.841-256.696 179.054-250.358c45.95 3.166 23.766 128.345 9.504 185.391-1.583 9.509-3.167 19.013-6.338 26.938v1.583c-1.583 7.925-3.166 14.263-4.754 22.183-12.675 33.275-120.425 310.571-225.004 313.742 0 0-77.642-25.354 47.538-299.479Z" style="fill:#fff;fill-rule:nonzero"/><path d="M21067.8 6896.36c7.921 0 15.846-7.925 15.846-17.434 1.583-23.766 6.337-52.287 9.508-82.395 109.333-348.6 282.05-505.471 307.4-500.717 42.783 7.925-63.379 190.146-63.379 190.146-87.15 145.779-87.15 263.037-87.15 263.037-3.171 148.946 102.991 144.192 102.991 144.192 166.379-4.754 331.171-329.588 356.525-381.875 3.171-6.338 4.754-12.675 4.754-19.017 0-19.012-7.925-36.441-15.845-47.533-4.755-7.925-14.263-6.342-19.017 1.583-128.346 275.713-297.892 408.813-321.663 391.384-31.691-20.6 53.875-204.409 133.105-329.588 85.562-136.271 66.55-247.187-12.68-278.879-102.991-42.783-220.25 117.258-220.25 117.258-33.275 41.196-63.383 88.734-88.733 128.346 14.258-38.029 28.521-77.642 45.95-123.596 3.171-4.75 4.754-11.091 4.754-17.429 7.921-71.304-38.029-117.254-88.733-129.933-12.679-3.167-25.354 3.171-31.692 15.846-53.875 133.104-85.566 250.358-104.579 332.754-20.6 82.4-34.862 207.579-34.862 266.204 7.925 49.121 61.8 77.646 107.75 77.646Zm446.841-537.163s-7.921-60.212-20.6-77.641c0 0 44.367 20.595 20.6 77.641Zm-331.171-7.925s-1.583-45.95-7.92-71.304c0 0 33.275 22.183 7.92 71.304ZM22253 6587.36c28.52-38.029 53.875-77.642 79.225-117.259 98.241-153.7 144.196-299.479 144.196-299.479 19.012-52.287 26.937-96.654 31.691-133.1 7.921-57.046 0-98.241-3.171-112.504-28.521-117.254-148.946-102.996-148.946-102.996-34.862 1.584-66.554 11.092-93.487 28.521-68.138 41.2-95.075 104.583-95.075 104.583-7.921 17.43-11.092 31.688-12.675 44.367-1.588 11.092 0 19.013 3.167 25.35 4.754 6.342 9.508 9.508 17.433 9.508 4.75 1.588 11.092-1.583 17.429-7.92 15.846-19.017 52.288-71.305 52.288-71.305s44.366-68.137 118.841-58.629c0 0 82.396 11.092 58.629 126.763-4.754 17.429-9.508 38.029-19.016 61.8-30.104 83.979-79.225 164.791-115.671 218.666-33.275 52.288-107.75 164.792-164.792 242.434 0 0-101.412 129.933-175.883 202.825-3.171 4.75-12.679 15.841-17.433 26.933-11.092 25.354-26.938 80.813 11.091 99.829 3.171 1.584 9.509 3.167 17.434 4.754 0 0 106.162 14.259 228.175 1.584 23.766-3.171 42.779-3.171 53.87-6.338 44.371-9.508 44.371-31.691 44.371-31.691 1.584-11.092-12.679-19.013-36.446-25.355-88.733-22.183-191.729-9.504-191.729-9.504 95.071-85.566 196.484-221.837 196.484-221.837Zm234.512-603.713s-23.766-80.812-53.875-114.087c0 0 60.213 14.262 53.875 114.087ZM22905.9 5825.19c-82.396-11.092-139.442 28.521-153.7 41.196 0 0-69.721 45.954-142.612 231.346-9.505 26.937-19.013 55.458-26.938 83.979-17.429 55.458-31.687 112.504-44.367 167.962-12.675 55.459-23.766 110.921-31.691 161.625 0 0-60.213 283.634 80.812 366.03 9.508 3.17 39.617 11.091 80.813 7.925 104.579-9.509 172.716-88.738 172.716-88.738 95.071-104.579 156.871-294.725 156.871-294.725 101.409-289.971 72.888-465.854 72.888-465.854-23.767-201.238-164.792-210.746-164.792-210.746Zm30.104 289.971c-3.166 26.937-6.337 53.875-9.504 80.812-4.754 28.521-11.092 57.042-17.433 85.567-6.338 28.521-12.675 58.625-20.596 88.733-12.679 57.042-26.938 110.917-42.783 160.038 0 0-31.692 85.567-69.721 150.533h1.583s-99.825 175.884-164.792 136.271c-60.212-28.521-39.612-217.083-39.612-217.083 3.167-42.784 9.504-87.15 19.012-134.688 7.925-45.95 19.017-95.071 30.109-142.608 83.979-367.613 196.483-445.258 196.483-445.258 17.429-7.921 74.471-25.35 107.75 106.166 0 0 9.504 41.196 9.504 74.475 1.588 17.429 0 36.442 0 57.042Zm15.846-237.683s58.629 1.587 66.55 88.737c0 0-34.858-66.554-66.55-88.737ZM23335.3 6587.36c28.521-38.029 53.875-77.642 79.225-117.259 98.241-153.7 144.196-299.479 144.196-299.479 19.012-52.287 26.937-96.654 31.691-133.1 7.921-57.046 0-98.241-3.171-112.504-28.521-117.254-148.946-102.996-148.946-102.996-34.862 1.584-66.554 11.092-93.491 28.521-68.133 41.2-95.071 104.583-95.071 104.583-7.925 17.43-11.092 31.688-12.675 44.367-1.588 11.092 0 19.013 3.167 25.35 4.754 6.342 9.508 9.508 17.429 9.508 4.754 1.588 11.091-1.583 17.433-7.92 15.846-19.017 52.288-71.305 52.288-71.305s44.366-68.137 118.841-58.629c0 0 82.396 11.092 58.629 126.763-4.754 17.429-9.508 38.029-19.016 61.8-30.104 83.979-79.225 164.791-115.671 218.666-33.275 52.288-107.75 164.792-164.792 242.434 0 0-101.412 129.933-175.887 202.825-3.167 4.75-12.675 15.841-17.429 26.933-11.092 25.354-26.938 80.813 11.091 99.829 3.171 1.584 9.509 3.167 17.434 4.754 0 0 106.162 14.259 228.17 1.584 23.771-3.171 42.784-3.171 53.875-6.338 44.367-9.508 44.367-31.691 44.367-31.691 1.588-11.092-12.675-19.013-36.442-25.355-88.737-22.183-191.729-9.504-191.729-9.504 95.071-85.566 196.484-221.837 196.484-221.837Zm234.512-603.713s-23.771-80.812-53.875-114.087c0 0 60.213 14.262 53.875 114.087ZM23880.4 5828.36c-49.121 28.525-134.687 106.166-134.687 106.166-23.767 19.013-23.767 36.446-3.171 57.042 14.262 12.679 34.862-1.583 34.862-1.583 12.675-6.338 30.104-20.6 47.538-34.859-63.384 204.405-144.196 595.788-169.55 708.292-34.859 150.529-41.196 215.496 28.525 215.496 47.533 0 82.395-123.592 82.395-123.592 66.55-198.071 169.546-717.8 172.717-842.979 3.167-128.35-58.629-83.983-58.629-83.983Zm26.938 145.779s6.337-80.813-4.755-118.842c0 0 34.859 19.017 4.755 118.842Z" style="fill:#fff;fill-rule:nonzero"/></g></svg>