<?xml version="1.0" encoding="UTF-8" standalone="no"?><!DOCTYPE svg PUBLIC "-//W3C//DTD SVG 1.1//EN" "http://www.w3.org/Graphics/SVG/1.1/DTD/svg11.dtd"><svg width="100%" height="100%" viewBox="0 0 8000 2331" version="1.1" xmlns="http://www.w3.org/2000/svg" xmlns:xlink="http://www.w3.org/1999/xlink" xml:space="preserve" xmlns:serif="http://www.serif.com/" style="fill-rule:evenodd;clip-rule:evenodd;stroke-miterlimit:10;"><g><rect x="0" y="-0" width="8000" height="2330.61" style="fill:#9d0a0e;"/><clipPath id="_clip1"><rect x="0" y="-0" width="8000" height="2330.61"/></clipPath><g clip-path="url(#_clip1)"><g><path d="M786.515,287.445c15.979,29.117 31.958,57.524 46.872,86.286c25.566,49.357 56.103,95.518 90.902,138.483c35.863,44.031 76.343,83.801 119.308,121.085c8.878,7.456 18.465,13.848 28.762,21.305c-18.109,12.428 -39.769,13.493 -60.364,14.913c-42.255,3.196 -84.156,5.327 -129.251,8.167c80.604,165.825 211.986,264.894 389.529,312.831c-14.914,13.493 -27.342,26.276 -41.545,36.929c-40.125,30.537 -86.641,48.647 -134.933,61.785c-35.864,9.942 -72.082,17.754 -111.142,27.342c11.363,17.754 20.595,36.218 33.733,52.197c24.501,30.182 50.068,60.01 77.054,87.706c44.386,45.806 96.938,81.67 153.397,110.077c62.14,31.248 126.056,59.299 191.036,89.482c-12.073,11.007 -24.501,25.211 -39.769,35.863c-60.365,42.966 -128.186,68.887 -200.269,84.511c-30.892,6.746 -61.43,13.138 -97.648,20.595c17.754,16.689 31.957,32.668 48.646,44.741c46.872,33.378 93.743,67.466 143.455,96.228c41.9,24.501 87.351,42.965 132.447,61.785c36.929,15.269 74.923,27.341 112.562,40.835c3.906,1.42 8.167,1.775 15.624,3.195c-7.457,9.233 -12.428,18.82 -20.24,24.856c-23.79,18.82 -46.871,38.35 -72.792,53.618c-52.553,30.893 -108.302,55.394 -168.666,68.177c-63.205,13.493 -126.411,11.008 -189.261,-2.841c-64.27,-13.848 -125.7,-36.574 -186.775,-59.654c-20.24,-7.812 -41.545,-13.138 -62.14,-20.595c-9.943,-3.551 -13.848,0.355 -14.914,9.587c-3.906,40.125 9.588,78.474 55.394,79.539c7.101,0.355 13.848,2.131 20.95,2.486c21.305,1.065 30.892,11.008 27.341,32.313c-7.101,44.386 -15.623,88.771 -23.435,133.512c-9.233,51.843 -18.11,103.685 -26.987,155.528c-1.065,7.101 -3.906,10.297 -11.718,10.297c-61.074,-0.355 -122.149,0 -183.224,-0.355c-7.812,0 -15.624,-1.775 -24.856,-2.485c-4.261,-22.726 -8.522,-45.451 -12.428,-68.177c-12.428,-73.503 -24.856,-146.65 -37.284,-220.153c-6.392,-37.284 -3.551,-34.088 31.248,-40.835c15.623,-2.841 32.312,-5.326 46.516,-12.428c20.595,-10.298 31.247,-53.618 21.66,-74.923c-3.551,-8.167 -8.522,-6.747 -14.559,-4.616c-37.284,13.848 -74.923,27.696 -112.207,41.9c-72.437,27.341 -146.295,45.806 -224.769,48.291c-93.388,2.841 -177.188,-22.725 -257.082,-66.756c-39.415,-22.015 -77.054,-47.226 -114.693,-73.147c168.666,-63.916 332.715,-131.382 466.583,-262.054c-127.121,-18.464 -241.459,-60.719 -347.274,-135.998c18.464,-8.522 33.023,-15.979 48.292,-21.66c93.032,-34.443 179.318,-81.67 257.792,-142.034c62.14,-47.582 113.982,-105.106 155.172,-172.217c1.066,-1.42 1.421,-3.196 2.131,-5.326c-49.357,-14.204 -98.714,-26.277 -146.651,-42.966c-47.936,-16.689 -93.387,-39.059 -131.736,-78.829c17.044,-7.456 32.312,-15.268 47.936,-21.305c68.177,-26.631 131.027,-62.14 186.065,-110.787c53.618,-47.581 97.649,-103.33 135.288,-164.049c2.486,-3.906 4.616,-8.167 6.747,-12.428c1.775,-4.261 3.55,-8.522 5.326,-13.849c-63.56,-10.297 -128.541,6.037 -193.167,-17.044c67.111,-48.647 123.925,-102.62 167.956,-167.955c43.675,-64.626 83.09,-132.092 126.055,-200.979Z" style="fill:#00863d;fill-rule:nonzero;stroke:#00863d;stroke-width:3.55px;"/><path d="M838.098,2330.46c5.791,-0.709 8.082,-3.932 9.014,-10.146c8.877,-51.843 17.755,-103.685 26.987,-155.528c7.812,-44.741 16.334,-89.126 23.436,-133.512c3.55,-21.305 -6.037,-31.248 -27.342,-32.313c-7.102,-0.355 -13.848,-2.131 -20.95,-2.486c-45.806,-1.065 -59.3,-39.414 -55.394,-79.539c1.066,-9.232 4.972,-13.138 14.914,-9.587c10.335,3.742 20.848,6.947 31.313,10.198c-3.71,39.904 9.878,77.869 55.451,78.928c7.101,0.355 13.848,2.131 20.95,2.486c21.305,1.065 30.892,11.008 27.341,32.313c-7.101,44.386 -15.623,88.771 -23.435,133.512c-9.233,51.843 -18.11,103.685 -26.987,155.528c-1.065,7.101 -3.906,10.297 -11.718,10.297c-14.529,-0.084 -29.059,-0.129 -43.58,-0.151Zm-1.638,-1652.77c45.096,-2.84 91.379,-2.84 46.284,0c80.604,165.825 211.986,264.894 389.529,312.831c-14.914,13.493 -27.342,26.276 -41.545,36.929c-40.125,30.537 -86.641,48.647 -134.933,61.785c-35.864,9.942 -72.082,17.754 -111.142,27.342c11.363,17.754 20.595,36.218 33.733,52.197c24.501,30.182 50.068,60.01 77.054,87.706c44.386,45.806 96.938,81.67 153.397,110.077c62.14,31.248 126.056,59.299 191.036,89.482c-12.073,11.007 -24.501,25.211 -39.769,35.863c-60.365,42.966 -128.186,68.887 -200.269,84.511c-30.892,6.746 -61.43,13.138 -97.648,20.595c17.754,16.689 31.957,32.668 48.646,44.741c46.872,33.378 93.743,67.466 143.455,96.228c41.9,24.501 87.351,42.965 132.447,61.785c36.929,15.269 74.923,27.341 112.562,40.835c3.906,1.42 8.167,1.775 15.624,3.195c-7.457,9.233 -12.428,18.82 -20.24,24.856c-23.79,18.82 -46.871,38.35 -72.792,53.618c-52.553,30.893 -108.302,55.394 -168.666,68.177c-36.324,7.755 -72.648,10.232 -108.903,8.306c20.866,-1.136 41.742,-3.849 62.619,-8.306c60.365,-12.783 116.113,-37.284 168.666,-68.177c25.921,-15.268 49.002,-34.798 72.792,-53.618c7.812,-6.036 12.784,-15.623 20.24,-24.856c-7.456,-1.42 -11.717,-1.775 -15.623,-3.195c-37.64,-13.494 -75.634,-25.566 -112.563,-40.835c-45.096,-18.82 -90.547,-37.284 -132.447,-61.785c-49.712,-28.762 -96.583,-62.85 -143.454,-96.228c-16.689,-12.073 -30.893,-28.052 -48.647,-44.741c36.219,-7.457 66.756,-13.849 97.648,-20.595c72.083,-15.624 139.904,-41.545 200.269,-84.511c15.269,-10.652 27.697,-24.856 39.77,-35.863c-64.981,-30.183 -128.897,-58.234 -191.037,-89.482c-56.458,-28.407 -109.011,-64.271 -153.397,-110.077c-26.986,-27.696 -52.553,-57.524 -77.053,-87.706c-13.139,-15.979 -22.371,-34.443 -33.734,-52.197c39.06,-9.588 75.279,-17.4 111.142,-27.342c48.292,-13.138 94.808,-31.248 134.933,-61.785c14.203,-10.653 26.631,-23.436 41.545,-36.929c-177.543,-47.937 -308.925,-147.006 -389.529,-312.831Zm-259.778,-8.129c5.543,0.114 11.082,0.147 16.618,0.143c-5.535,-0.115 -11.073,-0.147 -16.618,-0.143Z" style="fill:#006e3d;fill-rule:nonzero;stroke:#00863d;stroke-width:3.55px;"/></g></g><g><path d="M1698.93,1271.49c-0.062,16.356 -5.081,32.836 -19.702,45.63c-14.591,12.825 -39.838,22.583 -81.658,22.583l-84.168,0l0,-134.971l80.419,-0c37.515,-0 64.125,7.62 80.822,19.485c16.635,11.958 24.163,27.663 24.287,47.273" style="fill:#fff;fill-rule:nonzero;"/><path d="M1630.75,1109.88c15.675,-11.276 23.234,-27.261 23.327,-51.207c-0.062,-16.449 -4.771,-30.544 -16.605,-41.045c-11.864,-10.533 -32,-17.999 -64.527,-17.999l-59.54,0l0,127.909l40.86,-0c35.377,-0 60.717,-6.289 76.485,-17.658" style="fill:#fff;fill-rule:nonzero;"/><path d="M1789.73,1281.4c0.217,-62.389 -41.324,-109.817 -107.834,-128.032c17.967,-9.169 32.155,-20.383 42.564,-34.045c13.878,-18.339 20.538,-40.798 20.445,-67.005c0.093,-32.155 -12.577,-64.961 -39.745,-89.527c-27.198,-24.534 -68.461,-40.426 -124.779,-40.395l-155.541,0l0,494.595l182.553,0c65.116,0 110.84,-17.657 140.269,-43.834c29.46,-26.052 42.099,-60.252 42.068,-91.757m173.384,231.437l-729.749,0l-0,-686.721l729.749,0l0,686.721Z" style="fill:#fff;fill-rule:nonzero;"/><path d="M789.913,1109.88c15.643,-11.276 23.233,-27.261 23.357,-51.207c-0.031,-16.449 -4.771,-30.544 -16.604,-41.045c-11.896,-10.533 -32.032,-17.999 -64.589,-17.999l-59.478,0l-0,127.909l40.86,-0c35.346,-0 60.686,-6.289 76.454,-17.658" style="fill:#fff;fill-rule:nonzero;"/><path d="M833.808,1224.22c-16.666,-11.865 -43.307,-19.485 -80.79,-19.485l-80.419,-0l-0,134.971l84.167,0c41.82,0 67.005,-9.758 81.627,-22.583c14.622,-12.794 19.671,-29.274 19.702,-45.63c-0.124,-19.61 -7.651,-35.315 -24.287,-47.273" style="fill:#fff;fill-rule:nonzero;"/><path d="M948.923,1281.4c0.216,-62.389 -41.387,-109.817 -107.804,-128.032c17.905,-9.169 32.093,-20.383 42.471,-34.045c13.94,-18.339 20.539,-40.798 20.508,-67.005c0.03,-32.155 -12.609,-64.961 -39.776,-89.527c-27.168,-24.534 -68.431,-40.426 -124.749,-40.395l-155.571,0l-0,494.595l182.553,0c65.147,0 110.84,-17.657 140.269,-43.834c29.429,-26.052 42.161,-60.252 42.099,-91.757m173.384,231.437l-729.719,0l0,-686.721l729.719,0l-0,686.721Z" style="fill:#fff;fill-rule:nonzero;"/><path d="M2659.03,1284.59l-11.71,7.156c-56.504,34.51 -117.964,53.004 -173.787,52.973c-119.513,-0.465 -198.197,-71.281 -198.507,-174.314c0.124,-100.833 82.309,-175.459 195.471,-175.707c57.65,0.031 109.848,14.931 171.897,48.945l11.4,6.258l0,-92.036l-4.894,-1.921c-69.949,-27.601 -124.129,-39.899 -177.628,-39.868c-82.743,-0.031 -154.519,27.291 -205.663,73.634c-51.114,46.374 -81.503,111.831 -81.442,187.015c0.031,52.384 21.623,113.751 67.904,162.479c46.127,48.729 117.221,84.23 214.709,84.199l0.341,-0c80.852,-0 136.923,-17.999 187.603,-42.998l4.306,-2.106l-0,-93.709Zm144.915,228.246l-729.719,0l0,-686.721l729.719,0l-0,686.721Z" style="fill:#fff;fill-rule:nonzero;"/></g><g><path d="M3505.76,1215.32c-32.401,-0 -82.316,0.992 -129.604,10.92c-8.757,-22.833 -19.266,-43.681 -28.899,-62.543c-15.763,-29.782 -26.271,-53.607 -26.271,-53.607c-9.633,-22.833 -14.887,-41.695 -17.514,-58.572c118.22,-60.557 159.379,-121.114 159.379,-121.114c30.649,-41.695 18.39,-68.499 11.384,-79.419c-11.384,-18.862 -40.283,-14.891 -40.283,-14.891c0,0 -99.83,4.964 -180.396,123.1c-19.265,27.796 -29.774,54.6 -34.152,78.426c-19.266,7.942 -42.034,16.876 -65.678,27.796c-57.797,25.812 -119.097,58.572 -158.503,112.18c-39.407,52.615 -41.159,102.251 -30.65,135.012c16.638,49.637 49.915,61.549 69.181,65.52c5.254,0.993 9.632,-5.956 6.13,-11.912c-7.882,-15.884 -10.509,-35.739 -8.757,-55.594c9.632,-97.288 99.83,-166.779 187.401,-215.424c5.254,40.703 24.52,70.485 34.153,84.383c-0,0 21.892,28.789 42.034,65.521c-76.187,23.825 -144.492,66.513 -166.385,136.997c-31.525,99.274 55.17,120.121 55.17,120.121c11.384,2.979 21.892,2.979 33.277,2.979c84.943,-2.979 147.994,-55.594 176.017,-144.94c9.633,-31.767 5.254,-68.499 -6.13,-104.237c24.52,-5.957 55.17,-8.935 91.949,-9.928c2.628,0 4.379,0 6.13,-0.992c10.509,-5.957 19.266,-13.899 24.52,-22.833c1.752,-2.978 0,-6.949 -3.503,-6.949Zm-35.028,-323.633c0,0 -5.254,-27.796 -8.757,-37.724c-0,0 21.893,14.892 8.757,37.724Zm-122.599,36.732c46.412,-62.543 92.825,-62.543 92.825,-62.543c0,0 9.633,0 13.136,4.964c4.378,6.949 -0,27.797 -17.515,46.659c-32.401,36.731 -93.7,68.498 -130.48,85.375c7.006,-22.833 21.017,-45.666 42.034,-74.455Zm-22.768,429.855c-13.136,72.469 -84.944,131.041 -130.481,111.186c-0,0 -54.294,-19.855 -18.39,-96.295c16.639,-35.739 62.175,-73.463 133.108,-98.281c12.26,28.789 21.017,59.564 15.763,83.39Z" style="fill:#fff;fill-rule:nonzero;"/><path d="M3517.14,1503.21c91.949,1.986 171.638,-196.562 186.525,-236.271c3.503,-7.942 4.379,-16.877 2.628,-24.818c-1.752,-7.942 -4.379,-14.892 -7.882,-20.848c-1.751,-3.971 -7.881,-3.971 -9.633,0.993c-63.051,172.736 -147.994,250.169 -169.011,246.198c-17.514,-2.978 -16.639,-83.389 17.514,-222.373c98.955,-64.527 136.61,-187.627 136.61,-187.627c61.3,-193.583 -33.277,-194.576 -33.277,-194.576c-96.327,-2.978 -171.638,330.581 -171.638,330.581c-0,0 -79.69,306.756 48.164,308.741Zm141.864,-608.547c0,-0 -21.892,16.876 -29.774,41.695c0,-0 -3.503,-42.688 29.774,-41.695Zm0.876,25.811c0,-0 10.509,54.6 -14.011,129.056c-14.887,45.665 -44.661,106.222 -95.452,152.881c20.141,-67.506 83.192,-263.075 109.463,-281.937Z" style="fill:#fff;fill-rule:nonzero;"/><path d="M3747.45,1502.22c136.61,14.892 220.678,-217.409 227.684,-237.264c0,-0.992 0.876,-1.985 0.876,-2.978c3.503,-15.884 -0,-31.767 -4.379,-40.702c-0.876,-3.971 -6.13,-3.971 -7.881,0c-18.39,47.651 -102.458,250.17 -205.792,243.22c-45.536,-5.956 -42.034,-68.498 -31.525,-119.128c35.904,-2.978 115.593,-21.84 146.243,-127.07c41.158,-143.947 -38.531,-144.94 -38.531,-144.94c-97.204,-0.992 -154.125,153.874 -154.125,153.874c0,0 -109.463,254.141 67.43,274.988Zm63.051,-401.065c4.378,-3.971 13.135,-5.957 19.265,-2.978c0,-0 -21.017,10.92 -29.774,31.767c0,0 0,-18.862 10.509,-28.789Zm-63.051,173.729c-0,-0 58.672,-166.78 91.949,-164.794c0,-0 22.769,10.92 -7.005,107.215c-23.645,72.47 -72.684,91.332 -97.204,96.296c6.13,-22.833 12.26,-38.717 12.26,-38.717Z" style="fill:#fff;fill-rule:nonzero;"/><path d="M3985.65,1503.21c91.949,-2.978 162.006,-209.467 171.638,-239.249c0.876,-3.971 1.752,-7.942 1.752,-10.92c-0,-10.92 -3.503,-21.841 -7.882,-29.782c-2.627,-4.964 -9.632,-3.971 -11.384,0.992c-58.672,174.722 -138.362,256.126 -151.497,245.206c-16.639,-13.898 19.265,-170.751 61.299,-293.85c1.752,-3.971 2.627,-8.934 2.627,-12.905c3.503,-41.695 -22.768,-64.528 -50.791,-70.485c-8.757,-0.992 -16.638,3.971 -20.141,13.899c-60.424,174.721 -63.051,266.053 -63.051,266.053c-11.384,136.998 67.43,131.041 67.43,131.041Zm54.293,-345.472c0,20.847 -8.757,24.818 -8.757,24.818c0,0 4.379,-34.745 -2.627,-50.629c0,-0 12.26,5.956 11.384,25.811Zm-10.508,-76.441c24.52,20.848 42.034,-8.934 49.04,-24.818c2.627,-5.957 4.378,-12.906 3.502,-19.855c-4.378,-32.76 -27.147,-43.68 -41.158,-46.659c-5.254,-0.992 -11.384,1.986 -13.135,8.935c-21.893,60.557 1.751,82.397 1.751,82.397Zm40.282,-57.579c0,0 12.26,17.87 -3.502,37.724c-0,0 5.254,-32.76 3.502,-37.724Z" style="fill:#fff;fill-rule:nonzero;"/><path d="M4121.38,1522.08c-91.949,130.049 5.255,160.824 5.255,160.824c101.582,33.753 169.011,-122.107 209.294,-276.974c66.554,-47.651 105.085,-96.295 126.977,-142.954c7.882,-17.869 6.13,-32.76 0,-43.68c-1.751,-1.986 -4.378,-1.986 -6.129,0.992c-30.65,62.543 -69.181,106.223 -108.588,139.976c21.017,-92.324 34.152,-176.707 38.531,-211.453c2.627,-22.833 -5.254,-44.673 -21.893,-57.578c-10.508,-7.942 -21.893,-12.906 -30.65,-14.892c-8.757,-1.985 -17.514,3.971 -19.265,14.892c-0,2.978 -0.876,5.956 -0.876,9.927c-9.633,-15.884 -22.768,-26.804 -42.034,-26.804c-92.825,-0.993 -142.74,141.961 -142.74,141.961c-48.164,123.1 -3.503,214.431 65.678,217.41c28.022,0.992 51.667,-16.877 69.181,-41.695c-2.627,9.927 -6.13,19.854 -8.757,29.782c-54.294,31.767 -103.334,56.586 -133.984,100.266Zm10.509,121.114c-0,0 -42.91,-5.956 7.881,-86.368c0,-0 30.65,-47.651 101.582,-92.325c-30.649,91.332 -71.808,181.671 -109.463,178.693Zm240.82,-478.499c-0,0 -2.628,-32.76 -12.26,-53.608c-0,0 23.644,8.935 12.26,53.608Zm-173.391,241.235c0,0 -49.915,-1.985 -2.627,-156.852c0,-0 49.04,-142.954 86.695,-144.94c26.272,-0.993 17.514,88.354 15.763,110.194c-0.876,5.956 -1.751,11.913 -2.627,17.869c-7.006,22.833 -48.164,165.787 -97.204,173.729Z" style="fill:#fff;fill-rule:nonzero;"/><path d="M4454.15,1505.2l1.752,-0c10.508,-0.993 18.39,-9.928 20.141,-20.848c1.752,-10.92 4.379,-25.811 7.881,-44.673c60.424,-219.395 167.261,-325.618 171.639,-310.726c4.379,14.891 -30.649,105.23 -30.649,105.23c-36.78,101.259 -40.283,168.765 -40.283,168.765c-7.006,115.157 70.057,100.266 70.057,100.266c92.825,-2.978 162.881,-211.453 171.638,-240.242c0.876,-2.978 1.752,-5.956 1.752,-8.935c0.876,-12.905 -4.379,-24.818 -8.757,-32.76c-1.752,-3.971 -7.006,-2.978 -8.757,0.993c-58.673,176.707 -139.238,258.111 -153.249,247.191c-16.639,-13.898 32.401,-163.801 48.164,-207.482c31.525,-84.382 36.779,-153.874 -7.006,-174.721c-57.797,-25.812 -121.723,73.462 -121.723,73.462c-23.645,33.753 -44.662,72.47 -58.673,100.266c3.503,-19.854 7.881,-40.702 12.26,-61.549c3.503,-19.855 7.881,-38.717 11.384,-56.586c45.537,-33.753 95.452,-101.259 108.588,-195.569c7.006,-46.659 2.627,-73.463 -5.254,-88.354c-10.509,-20.847 -27.147,-19.855 -27.147,-19.855c-9.633,0 -18.39,3.971 -28.023,10.921c-98.079,71.477 -165.509,482.47 -182.147,595.641c-5.254,31.768 17.514,61.55 46.412,59.565Zm258.334,-328.596c0,-0 -5.254,-49.637 -12.26,-64.528c0,0 25.396,18.862 12.26,64.528Zm-94.576,-306.756c-0,0 12.26,0.993 2.627,68.499c-7.006,47.651 -32.401,115.158 -69.181,157.845c28.023,-136.005 49.04,-226.344 66.554,-226.344Z" style="fill:#fff;fill-rule:nonzero;"/><path d="M5405.17,1260c66.553,-47.652 98.079,-169.758 98.079,-169.758c63.927,-235.279 -39.407,-228.33 -39.407,-228.33c-61.3,-2.978 -143.616,139.976 -187.402,226.344c0.876,-2.978 0.876,-4.963 1.752,-7.942c8.757,-32.76 15.763,-60.556 21.893,-84.382c19.265,-12.906 36.779,-29.782 53.418,-56.586c41.158,-64.528 6.13,-93.317 6.13,-93.317c-13.136,-12.906 -55.17,-27.797 -91.074,36.731c0,-0 -22.768,37.724 -45.537,105.23c-99.831,37.724 -225.933,61.55 -268.842,133.027c-29.774,49.636 -2.627,107.215 22.768,125.084c4.379,2.979 9.633,-0.992 9.633,-6.949c-0.876,-11.913 1.751,-27.796 6.13,-38.716c27.147,-72.47 174.266,-129.056 208.419,-148.911c1.751,-0.993 2.627,-1.985 4.378,-2.978c-33.277,124.092 -98.955,416.949 8.757,456.659c7.006,1.985 13.136,-4.964 10.509,-11.913c-7.882,-25.811 -14.012,-90.339 17.514,-251.162c8.757,79.418 36.78,242.227 116.469,259.104c-0,-0 73.559,19.854 88.447,-64.528c0.875,-4.964 -4.379,-8.935 -8.758,-6.949c-11.384,7.942 -30.649,16.876 -54.293,6.949c-46.413,-19.855 -77.939,-118.136 -91.074,-168.765c4.378,2.978 7.006,3.971 7.006,3.971c38.531,19.854 77.938,8.934 105.085,-11.913Zm102.457,-320.654c0,-0 -14.011,-37.724 -32.401,-57.579c0,0 32.401,0.993 32.401,57.579Zm-160.254,-67.506c5.254,3.971 -0,32.76 -17.514,52.615c-3.503,3.971 -7.006,7.942 -11.385,10.92c21.017,-62.543 28.899,-63.535 28.899,-63.535Zm-76.187,279.951c42.91,-76.44 133.984,-234.285 173.39,-241.235c0,0 32.402,-2.978 -7.005,145.933c-0,-0 -53.418,191.598 -126.978,181.671c-26.271,-3.971 -35.904,-52.615 -39.407,-86.369Z" style="fill:#fff;fill-rule:nonzero;"/><path d="M5561.05,1503.21c91.949,-2.978 162.006,-209.467 171.638,-239.249c0.876,-3.971 1.752,-7.942 1.752,-10.92c-0,-10.92 -3.503,-21.841 -7.882,-29.782c-2.627,-4.964 -9.632,-3.971 -11.384,0.992c-58.672,174.722 -138.362,256.126 -151.497,245.206c-16.639,-13.898 19.265,-170.751 61.299,-293.85c1.752,-3.971 2.627,-8.934 2.627,-12.905c3.503,-41.695 -22.768,-64.528 -50.791,-70.485c-8.757,-0.992 -16.638,3.971 -20.141,13.899c-60.424,174.721 -63.051,266.053 -63.051,266.053c-11.384,136.998 67.43,131.041 67.43,131.041Zm54.293,-345.472c0,20.847 -8.757,24.818 -8.757,24.818c0,0 4.379,-34.745 -2.627,-50.629c0,-0 12.26,5.956 11.384,25.811Zm-10.508,-76.441c24.52,20.848 42.034,-8.934 49.04,-24.818c2.627,-5.957 4.378,-12.906 3.502,-19.855c-4.378,-32.76 -27.146,-43.68 -41.158,-46.659c-5.254,-0.992 -11.384,1.986 -13.135,8.935c-21.893,60.557 1.751,82.397 1.751,82.397Zm40.283,-57.579c-0,0 12.259,17.87 -3.503,37.724c-0,0 5.254,-32.76 3.503,-37.724Z" style="fill:#fff;fill-rule:nonzero;"/><path d="M5738.82,1497.26c52.543,8.934 92.825,-46.659 117.345,-96.296c0.876,108.209 68.305,102.252 68.305,102.252c91.95,-2.978 171.639,-196.562 186.526,-236.271c3.503,-7.942 4.379,-15.884 2.627,-24.818c-1.751,-7.942 -4.378,-14.892 -7.005,-19.855c-2.627,-4.964 -8.757,-4.964 -10.509,-0c-63.051,173.729 -147.994,250.169 -169.011,247.191c-15.763,-1.985 6.13,-130.048 32.401,-233.293c87.571,-66.513 121.723,-177.7 121.723,-177.7c62.176,-193.583 -33.277,-194.576 -33.277,-194.576c-58.672,-2.978 -113.842,160.823 -140.989,259.104c-8.757,-20.847 -22.768,-34.746 -45.536,-35.738c-87.571,-3.971 -153.249,143.946 -153.249,143.946c-60.424,136.998 -46.413,254.141 30.649,266.054Zm331.018,-604.577c0,0 -21.893,16.877 -29.774,41.695c-0,0 -4.379,-43.68 29.774,-41.695Zm-2.627,28.79c-0,-0 10.508,53.607 -14.011,128.063c-13.136,40.702 -38.532,93.317 -80.566,137.99c21.017,-77.433 70.057,-249.177 94.577,-266.053Zm-294.238,359.37c-0,0 65.678,-160.823 98.955,-156.852c25.396,1.985 13.136,79.419 6.13,116.15c-1.751,5.956 -2.627,11.913 -4.379,16.877l0,0.992c-0.875,4.964 -1.751,8.935 -2.627,13.899c-7.005,20.847 -66.554,194.576 -124.35,196.561c-0,0 -42.91,-15.883 26.271,-187.627Z" style="fill:#fff;fill-rule:nonzero;"/><path d="M6151.27,1502.22c136.61,14.892 220.678,-217.409 227.684,-237.264c0,-0.992 0.876,-1.985 0.876,-2.978c3.503,-15.884 -0,-31.767 -4.379,-40.702c-0.875,-3.971 -6.13,-3.971 -7.881,0c-18.39,47.651 -102.458,250.17 -205.792,243.22c-45.536,-5.956 -42.034,-68.498 -31.525,-119.128c35.904,-2.978 115.593,-21.84 146.243,-127.07c41.158,-143.947 -38.531,-144.94 -38.531,-144.94c-97.204,-0.992 -154.125,153.874 -154.125,153.874c0,0 -109.463,254.141 67.43,274.988Zm63.051,-401.065c4.378,-3.971 13.136,-5.957 19.265,-2.978c0,-0 -21.017,10.92 -29.774,31.767c0,0 0,-18.862 10.509,-28.789Zm-63.051,173.729c-0,-0 58.672,-166.78 91.949,-164.794c0,-0 22.769,10.92 -7.005,107.215c-23.645,72.47 -72.684,91.332 -97.204,96.296c6.13,-22.833 12.26,-38.717 12.26,-38.717Z" style="fill:#fff;fill-rule:nonzero;"/><path d="M7866.79,1241.13c-3.503,-0.993 -7.881,-0.993 -11.384,-0.993c-7.881,0 -7.881,0 -5.254,-7.942c0.876,-6.949 2.627,-12.905 4.378,-19.855c2.628,-14.891 -0.875,-26.803 -10.508,-37.724c-2.627,-3.971 -5.254,-6.949 -8.757,-11.912l4.378,-0c3.503,0.992 7.006,1.985 9.633,2.978c5.254,0.993 8.757,-1.986 10.509,-7.942c2.627,-6.949 1.751,-8.935 -2.627,-11.913c-10.509,-7.942 -18.39,-17.869 -30.65,-21.84c-0,-0 -0,-0.993 -0.876,-1.986c2.627,-0.992 4.379,-1.985 6.13,-1.985l12.26,-0c7.881,0.993 14.011,-1.986 18.39,-9.927c1.751,-1.986 1.751,-4.964 1.751,-7.942c0,-0.993 -2.627,-2.979 -3.503,-3.971c-0.875,1.985 -2.627,2.978 -2.627,4.963c0,3.971 -2.627,7.942 -6.13,8.935c-2.627,0.993 -5.254,0.993 -7.881,0.993c0.876,-2.978 1.751,-4.964 2.627,-7.942c0.876,-1.986 0.876,-2.978 0.876,-4.964c-0.876,0 -3.503,0 -3.503,0.993c-1.752,0.993 -3.503,3.971 -5.254,5.956c-3.503,4.964 -14.012,8.935 -20.142,5.957c2.627,-2.978 5.255,-4.964 7.882,-7.942c6.13,-6.949 8.757,-15.884 6.13,-25.811c-0,-1.986 -1.752,-2.979 -3.503,-3.971c-0,0.992 -0.876,2.978 -0.876,4.963c-0.876,0.993 0,1.986 0,2.979c-0.876,9.927 -8.757,20.847 -17.514,24.818c-5.254,0.993 -13.136,-2.978 -17.514,-9.927c-3.503,-4.964 -4.379,-12.906 -0,-16.877c2.627,-2.978 6.13,-4.964 8.757,-7.942c4.378,-2.978 7.881,-5.956 10.508,-8.934c2.628,-2.979 3.503,-5.957 0,-7.942c-0.875,-0.993 -3.502,1.985 -5.254,3.971c-2.627,1.985 -4.378,5.956 -6.13,6.949c-4.378,2.978 -7.005,1.985 -7.881,-3.971c-0,-3.971 1.751,-8.935 1.751,-13.898l0,-4.964c-0.875,0.993 -3.503,-0 -4.378,1.985c-0.876,1.986 -1.752,4.964 -2.627,6.95l-0,14.891c-0.876,3.971 -0.876,8.934 -5.255,11.912c-2.627,-3.971 -1.751,-7.941 0,-11.912c1.752,-6.95 2.627,-14.891 1.752,-21.841c-0.876,-3.971 -1.752,-5.956 -6.13,-5.956c-0,3.971 0.875,7.942 -0,10.92c-0.876,5.956 -1.752,12.906 -3.503,17.869c-0,1.986 -3.503,2.979 -5.254,3.971c-0.876,-1.985 -2.627,-4.963 -1.752,-6.949c0.876,-4.964 3.503,-8.935 5.255,-12.905c0.875,-0.993 2.627,-2.979 2.627,-4.964c-0,-1.986 -1.752,-2.978 -2.627,-3.971c-0.876,0.993 -1.752,1.985 -2.628,2.978c-1.751,3.971 -3.502,7.942 -6.13,10.92c0,0.993 -2.627,1.986 -2.627,0.993c-0.875,-0.993 -1.751,-1.986 -1.751,-2.978c0.876,-3.971 1.751,-6.949 3.503,-10.92l-0,-2.979c-0.876,0 -2.627,-0.992 -3.503,0c-4.379,3.971 -7.006,8.935 -6.13,14.891c0.876,10.921 5.254,17.87 13.136,24.819c5.254,4.964 11.384,9.927 15.762,16.876c5.255,8.935 11.385,14.891 20.142,18.862c4.378,1.986 7.881,4.964 12.26,7.942c-2.628,2.979 -4.379,4.964 -5.255,5.957c-3.503,-0.993 -7.005,-1.986 -10.508,-1.986c-5.254,0 -9.633,-0.992 -14.887,-0.992c-2.627,-0.993 -5.255,-0.993 -7.882,-1.986c-0.875,0.993 -0.875,1.986 -0.875,1.986c7.881,10.92 14.887,21.84 27.147,22.832c3.502,6.95 7.005,13.899 10.508,19.855c0.876,1.986 1.752,2.978 2.627,4.964c2.627,5.956 2.627,11.913 -2.627,14.891c-3.503,2.978 -7.006,3.971 -11.384,3.971c-9.633,0.993 -18.39,-2.978 -27.147,-7.942c-12.26,-6.949 -25.396,-11.913 -39.407,-9.927c-8.757,0.992 -13.136,-4.964 -13.136,-14.891c0,-1.986 -0.875,-3.971 -1.751,-5.957c-1.751,0.993 -3.503,0.993 -5.254,2.978c-1.752,0.993 -3.503,2.979 -4.379,4.964c-0.875,2.978 -1.751,6.949 -0.875,10.92c-18.39,-10.92 -40.283,-20.847 -66.554,-30.775c1.751,-4.963 3.503,-8.934 5.254,-13.898c2.627,-5.956 -1.751,-11.913 -7.006,-11.913c-4.378,0 -8.757,1.986 -13.135,2.978c-8.757,1.986 -8.757,1.986 -8.757,-7.942c-0,-7.941 0.875,-15.883 -0,-22.832c-0.876,-17.87 -8.757,-30.775 -21.893,-39.71c-4.379,-2.978 -7.881,-5.956 -13.136,-9.927c3.503,-0.993 4.379,-1.986 5.255,-1.986l11.384,0c6.13,-0.992 8.757,-4.963 9.633,-12.905c0.875,-7.942 -0,-9.928 -7.006,-12.906c-13.136,-4.964 -25.396,-13.898 -40.283,-13.898c0,-0 0,-0.993 -0.875,-1.986c1.751,-0.992 3.502,-2.978 6.13,-3.971c4.378,-1.985 9.632,-2.978 14.011,-3.971c9.633,-1.985 15.763,-7.941 18.39,-17.869c0.875,-2.978 0.875,-6.949 -0,-9.927c-0.876,-0.993 -3.503,-1.986 -6.13,-2.978c-0,1.985 -1.752,3.971 -1.752,5.956c1.752,4.964 0,9.927 -3.502,12.906c-2.628,1.985 -6.13,1.985 -9.633,3.971c0.875,-3.971 0.875,-6.95 1.751,-10.921c0,-1.985 0,-2.978 -0.876,-4.963c-0.875,0.992 -3.502,0.992 -4.378,1.985c-0.876,1.986 -1.752,5.957 -2.627,8.935c-2.627,5.956 -14.887,14.891 -21.893,13.898c2.627,-3.971 4.379,-7.942 6.13,-12.905c6.13,-9.928 6.13,-20.848 0.876,-30.775c-0.876,-1.986 -3.503,-1.986 -5.255,-2.978c0,0.992 -0.875,2.978 0,4.963c0,1.986 0,2.978 0.876,3.971c1.752,11.913 -3.503,26.804 -13.135,33.753c-5.255,3.971 -15.763,1.986 -22.769,-3.971c-5.254,-4.963 -7.881,-12.905 -4.378,-19.854c1.751,-4.964 5.254,-7.942 8.757,-11.913c2.627,-3.971 6.13,-8.935 8.757,-13.899c1.751,-3.971 1.751,-7.942 -2.627,-8.934c-0.876,-0.993 -3.503,3.971 -5.255,5.956c-1.751,3.971 -2.627,7.942 -5.254,10.92c-3.503,3.971 -7.006,3.971 -8.757,-1.985c-1.751,-4.964 -1.751,-10.92 -1.751,-16.877c-0.876,-0.992 -0.876,-2.978 -1.752,-4.963c-1.751,0.992 -3.503,0.992 -4.378,2.978c-0.876,2.978 -1.752,6.949 -0.876,9.927c0.876,4.964 2.627,10.92 3.503,15.884c0.876,5.956 1.751,10.92 -2.627,15.884c-4.379,-2.978 -3.503,-8.935 -3.503,-12.906c0.876,-9.927 -0.876,-17.869 -4.379,-26.804c-0.875,-2.978 -3.503,-5.956 -7.881,-3.971c0.876,3.971 2.627,7.942 3.503,12.906c0.875,6.949 0.875,13.898 0.875,21.84c0,1.986 -3.502,3.971 -5.254,5.957c-0.875,-2.979 -4.378,-5.957 -4.378,-7.942c-0,-5.957 2.627,-10.92 3.503,-15.884c-0,-1.986 0.875,-4.964 0.875,-6.949c-0.875,-1.986 -2.627,-2.979 -4.378,-3.971c-0,1.985 -0.876,2.978 -1.752,4.963c-0.875,4.964 -1.751,9.928 -3.503,13.899c-0.875,0.992 -2.627,2.978 -3.502,2.978c-0.876,-0.993 -2.628,-2.978 -2.628,-3.971c0,-3.971 0.876,-8.935 0.876,-12.906c0,-0.992 -0.876,-2.978 -0.876,-3.971c-0.875,0 -2.627,0.993 -3.502,1.986c-4.379,4.964 -5.255,11.913 -2.627,18.862c3.502,10.92 10.508,18.862 21.017,22.833c7.881,3.971 16.638,7.942 22.768,13.898c7.881,7.942 16.638,12.906 28.023,14.891c5.254,0.993 10.508,2.978 16.638,3.971c-2.627,4.964 -4.378,6.949 -5.254,8.935c-4.379,0.993 -7.882,0.993 -12.26,1.985c-5.254,0.993 -11.384,1.986 -17.514,3.971c-2.627,0 -6.13,0 -9.633,0.993l-0,1.985c11.384,9.928 23.644,18.862 37.655,15.884c6.13,6.949 11.385,13.899 16.639,19.855c0.876,0.993 2.627,2.978 4.378,3.971c5.255,4.964 6.13,12.905 0.876,18.862c-2.627,2.978 -7.006,5.956 -11.384,7.942c-10.509,3.971 -21.893,2.978 -33.277,0.993c-15.763,-3.971 -31.526,-5.957 -47.288,1.985c-9.633,3.971 -15.763,-0.993 -19.266,-11.913c0,-2.978 -1.751,-3.971 -2.627,-6.949c-2.627,1.985 -4.379,2.978 -6.13,4.964c-1.751,1.985 -2.627,4.963 -2.627,6.949c-2.627,10.92 3.503,19.855 14.887,23.826c-56.921,-2.979 -116.469,13.898 -176.893,36.731c-4.379,-13.899 -14.011,-24.819 -28.023,-31.768c-5.254,-2.978 -10.508,-6.949 -16.638,-10.92c3.503,-0.993 4.378,-1.985 6.13,-2.978c4.378,-0 9.633,-0.993 14.011,-1.986c7.881,-0.992 10.509,-6.949 11.384,-16.876c0,-9.927 -1.751,-12.906 -10.508,-14.891c-17.514,-4.964 -34.153,-13.898 -52.543,-11.913c0,0 0,-0.993 -0.875,-2.978c1.751,-1.986 4.378,-4.964 7.005,-5.957c5.255,-2.978 11.384,-4.963 17.514,-6.949c11.385,-2.978 18.39,-11.913 21.017,-24.818c0.876,-3.971 0,-7.942 -1.751,-11.913c-0.876,-1.985 -4.379,-1.985 -7.006,-2.978c-0.875,1.985 -2.627,4.963 -1.751,7.942c1.751,5.956 0.876,11.913 -3.503,15.883c-2.627,2.979 -7.006,3.971 -11.384,5.957c-0,-3.971 -0,-7.942 0.876,-12.906c-0,-1.985 -0.876,-4.963 -0.876,-6.949c-2.627,0.993 -5.254,1.986 -5.254,2.978c-1.752,3.971 -2.627,7.942 -3.503,11.913c-2.627,8.935 -16.639,20.848 -25.396,20.848c1.752,-5.957 4.379,-10.92 7.006,-16.877c5.254,-13.898 4.378,-26.804 -3.503,-39.709c-0.876,-1.986 -4.378,-1.986 -7.006,-2.979c0,1.986 0,4.964 0.876,6.95c0,1.985 0.876,2.978 0.876,4.963c4.378,14.891 -0.876,33.753 -12.26,44.673c-6.13,4.964 -19.266,3.971 -28.898,-2.978c-7.882,-5.956 -11.385,-14.891 -7.882,-24.818c1.752,-4.964 6.13,-9.928 9.633,-14.891c3.503,-5.957 7.006,-12.906 9.633,-19.855c1.751,-3.971 1.751,-9.927 -3.503,-10.92c-1.751,-0 -5.254,5.956 -6.13,8.935c-2.627,4.963 -2.627,10.92 -5.254,13.898c-4.379,6.949 -8.757,5.956 -12.26,-0.993c-1.752,-5.956 -2.627,-12.905 -3.503,-19.855c-0.876,-2.978 -1.751,-4.963 -2.627,-6.949c-1.752,0.993 -5.254,1.986 -5.254,3.971c-0.876,3.971 -0.876,8.935 -0,12.906c0.875,6.949 4.378,12.905 6.13,19.855c1.751,6.949 3.502,13.898 -1.752,19.854c-6.13,-2.978 -6.13,-9.927 -6.13,-15.884c0,-11.912 -2.627,-21.84 -7.881,-31.767c-1.752,-4.964 -5.254,-7.942 -10.509,-4.964c1.752,5.957 4.379,9.928 6.13,15.884c0.876,8.935 2.627,17.869 2.627,26.804c0,2.978 -3.502,5.956 -5.254,7.942c-2.627,-2.978 -6.13,-5.957 -6.13,-8.935c-0.876,-6.949 0.876,-12.905 1.752,-19.855c0.875,-2.978 0.875,-6.949 -0,-8.934c-0,-1.986 -2.628,-2.978 -4.379,-4.964c-0.876,1.986 -1.751,4.964 -1.751,6.949c-1.752,5.957 -2.627,11.913 -3.503,17.87c-0.876,1.985 -2.627,3.97 -3.503,3.97c-1.751,-0.992 -4.379,-2.978 -4.379,-3.97c-0.875,-5.957 0,-10.921 -0.875,-16.877c-0,-0.993 -0,-2.978 -0.876,-4.964c-1.751,0.993 -3.503,0.993 -4.378,2.979c-4.379,7.941 -5.255,15.883 -1.752,24.818c6.13,13.898 15.763,21.84 29.774,25.811c9.633,2.978 21.017,6.949 29.774,13.898c11.384,8.935 22.769,13.899 36.78,14.891c7.006,0.993 14.011,1.986 21.017,2.979c-2.627,5.956 -4.379,9.927 -5.254,11.912c-5.255,0.993 -10.509,1.986 -14.887,2.979c-7.006,2.978 -14.887,5.956 -21.893,7.942c-3.503,0.992 -7.881,1.985 -11.384,2.978l-0,2.978c15.763,9.927 30.65,20.847 49.039,14.891c7.882,7.942 14.887,14.891 22.769,21.84c1.751,1.986 3.503,2.978 5.254,4.964c7.006,5.956 9.633,14.891 3.503,22.833c-3.503,4.964 -7.881,8.935 -13.136,11.913c-13.135,6.949 -28.022,6.949 -42.034,5.956c-20.141,-2.978 -40.282,-2.978 -59.548,8.935c-10.508,5.956 -19.265,0.993 -24.52,-12.906c-0.875,-2.978 -3.502,-4.963 -4.378,-6.949c-2.627,1.986 -6.13,3.971 -7.882,5.956c-0.875,2.979 -1.751,5.957 -2.627,9.928c-0.875,12.905 7.006,23.826 21.893,26.804c10.508,2.978 12.26,4.963 8.757,16.876c0,0.993 -0.876,0.993 -0.876,1.986c-36.779,14.891 -71.808,25.811 -104.209,31.767c-61.299,9.928 -105.961,-2.978 -139.238,-41.695c-3.502,-12.905 -10.508,-9.927 -24.519,-10.92c-6.13,-0.992 -14.012,4.964 -18.39,10.92c-7.006,6.95 -6.13,14.891 -14.887,22.833c-6.13,5.957 -11.384,3.971 -19.266,6.949c0,0 -8.757,-7.941 -3.503,-28.789c5.255,-19.855 -9.632,-38.717 -9.632,-38.717c-11.385,-27.796 -28.899,-34.745 -57.797,-25.811c-15.763,4.964 -30.65,6.949 -45.537,0c-3.503,-0.993 -7.881,-0.993 -10.509,3.971c-2.627,3.971 -3.502,9.928 0,16.877c2.628,5.956 7.882,5.956 10.509,2.978c9.633,-14.891 21.017,-4.964 32.401,-3.971c0.876,-0 2.627,-0 7.882,0.993c-10.509,20.847 -12.26,34.745 -8.758,51.622c-18.389,5.956 -24.519,11.913 -38.531,25.811c0,-2.978 -6.13,-16.876 -7.881,-21.84c-0.876,-4.964 -3.503,-11.913 -7.006,-12.906c-4.378,-0.992 -10.508,1.986 -14.887,4.964c-5.254,2.978 -8.757,8.935 -14.011,12.906c-8.757,6.949 -8.757,16.876 -7.006,27.796c2.627,11.913 10.509,7.942 17.514,8.935c3.503,-0 7.006,-0.993 12.26,-0.993c-7.881,22.833 -14.887,40.702 -13.135,65.521c0.875,0.992 0.875,1.985 0.875,2.978c-2.627,5.956 -4.378,11.913 -5.254,16.876c-15.763,-3.97 -31.525,-8.934 -47.288,-14.891c-31.526,-12.905 -63.927,-29.782 -94.577,-50.629c-53.418,-35.739 -85.819,-71.477 -86.695,-71.477c-5.254,-5.957 -13.135,-5.957 -18.39,-0c-4.378,5.956 -4.378,15.884 0.876,20.847c0,0.993 3.503,4.964 9.633,10.92c14.011,19.855 40.283,52.615 76.187,86.368c33.276,30.775 68.305,56.586 105.085,75.448c28.022,14.892 56.921,25.812 85.819,33.753c1.751,6.95 2.627,15.884 3.503,23.826c-0,0 -22.769,-2.978 -22.769,6.949c0,0 0,7.942 16.639,7.942c28.022,0.993 53.418,3.971 81.441,4.964c32.401,-0 76.186,-0 108.587,-1.986c25.396,-1.985 43.786,-2.978 63.051,-11.912c22.769,-9.928 35.905,-38.717 27.147,-60.557c0,-0 -7.005,-13.899 -12.259,-11.913c-6.13,2.978 -8.758,5.956 -7.006,12.905c5.254,13.899 4.378,26.804 -4.379,37.724c-7.005,8.935 -13.135,8.935 -20.141,-0.992c-8.757,-12.906 -11.384,-25.811 -4.379,-41.695c6.13,-14.891 8.758,-30.775 12.26,-46.659c5.255,-28.789 9.633,-38.717 34.153,-30.775c0,0 10.509,6.949 16.638,-1.985c5.255,-9.928 -6.129,-22.833 -6.129,-22.833c-13.136,-14.891 -31.526,-11.913 -49.04,0.993c-8.757,5.956 -10.509,8.934 -18.39,15.883c-7.881,-41.695 -36.78,-4.963 -54.294,-10.92c2.627,-16.876 -10.508,-34.746 -13.136,-39.709c19.266,-12.906 14.012,-16.877 33.277,-38.717c0.876,-0.993 0.876,-1.985 1.752,-1.985c-0,-0 5.254,-0.993 10.508,-2.979c8.757,10.921 29.774,34.746 68.306,53.608c26.271,12.906 56.045,20.848 87.57,23.826c-0.875,1.985 -2.627,3.971 -4.378,5.956c-1.752,1.986 -2.627,4.964 -5.254,5.957c-17.515,3.971 -17.515,10.92 -17.515,26.804c0,4.963 1.752,9.927 2.628,15.883c4.378,-2.978 8.757,-5.956 12.259,-9.927c14.012,-13.898 27.147,-28.789 41.159,-43.68c40.282,-0 84.068,-6.95 130.48,-21.841c39.407,-12.905 75.311,-26.804 111.215,-40.702c12.26,-4.963 23.644,-9.927 35.904,-14.891c-3.503,10.92 -7.005,20.848 -10.508,30.775c-1.752,2.978 -2.627,4.964 -5.255,6.949c-5.254,5.957 -10.508,10.92 -15.762,15.884c-1.752,1.985 -3.503,4.964 -4.379,7.942c-1.751,6.949 -2.627,13.898 -3.503,20.847c0,1.986 0,3.971 0.876,4.964c1.751,0.993 4.379,0.993 5.254,-0c6.13,-4.964 12.26,-9.927 17.514,-15.884c17.515,-22.833 27.147,-50.629 35.905,-78.426c11.384,-4.964 22.768,-8.935 34.152,-11.913c0,2.978 0.876,5.957 1.752,8.935c2.627,-1.986 7.005,-3.971 9.632,-5.957c3.503,-3.971 7.882,-6.949 11.385,-10.92c28.898,-7.942 57.796,-13.898 88.446,-16.876c41.158,-4.964 83.192,-2.978 126.978,5.956c-1.752,4.964 -2.627,9.928 -3.503,14.891c-0.876,0.993 -0.876,2.978 -0,3.971c0.876,0.993 2.627,0.993 4.378,0c4.379,-2.978 9.633,-5.956 14.012,-10.92c1.751,-0.993 2.627,-1.985 4.378,-3.971c17.515,3.971 35.904,9.927 54.294,15.884c-6.13,3.971 -13.135,6.949 -20.141,7.942c-4.379,0.993 -7.881,4.963 -12.26,6.949c-0.876,0.993 -2.627,1.985 -4.378,1.985c-12.26,-1.985 -13.136,2.979 -16.639,11.913c-0.876,3.971 -0.876,7.942 -1.751,10.92c3.502,-0.992 7.005,-0.992 9.632,-2.978c14.887,-5.956 29.775,-12.905 43.786,-19.855c11.384,-5.956 21.893,-5.956 31.525,2.979c0,0.992 1.752,0.992 2.627,0.992c12.26,7.942 25.396,10.92 37.656,1.986c13.136,-8.935 23.644,-8.935 36.78,0.993c12.26,9.927 27.147,14.891 42.909,12.905c0.876,6.949 6.13,6.949 10.509,6.949l8.757,0c5.254,0 9.633,0 14.887,-0.992c-6.13,7.941 -11.384,13.898 -16.638,20.847c-0.876,0.993 -2.628,1.985 -4.379,2.978c-4.379,1.986 -8.757,3.971 -13.136,5.957c-1.751,-0 -3.502,1.985 -4.378,2.978c-2.627,3.971 -4.379,7.942 -6.13,12.905c-0.876,0.993 -0.876,2.979 -0.876,2.979c0.876,0.992 2.627,1.985 3.503,0.992c4.379,-0.992 9.633,-1.985 14.011,-4.963c19.266,-10.92 32.402,-29.782 45.537,-48.644c3.503,-3.971 0.876,-9.928 -3.503,-11.913Zm-1048.22,214.431c17.514,-3.971 25.395,-7.942 36.779,-17.869c2.627,9.927 6.13,18.862 10.509,30.774c-12.26,0.993 -21.893,1.986 -32.401,3.971c-12.26,1.986 -15.763,-5.956 -14.887,-16.876Zm-359.916,-126.078c-17.515,-15.883 -32.402,-31.767 -44.662,-46.658c12.26,9.927 27.147,20.847 42.91,31.767c32.401,21.84 65.678,39.71 98.955,53.608c19.266,6.949 37.656,12.906 56.045,17.869c3.503,16.877 14.012,31.768 25.396,47.652c-25.396,-6.949 -50.791,-17.87 -75.311,-30.775c-36.78,-18.862 -70.932,-43.681 -103.333,-73.463Zm218.927,141.962c-14.012,1.985 -20.142,-4.964 -20.142,-19.855c22.769,5.956 43.786,7.942 63.927,9.927c3.503,0.993 6.13,3.971 8.757,5.957c-18.39,2.978 -35.028,2.978 -52.542,3.971Zm126.102,-11.913l-0,11.913c-32.402,3.971 -55.17,0.992 -59.549,-9.928c21.017,0.993 35.029,0 59.549,-1.985Zm84.943,-197.555c6.13,2.978 13.136,5.957 20.142,7.942c14.011,3.971 28.898,5.957 45.536,5.957c11.385,-0 24.52,-0.993 38.532,-2.979c15.762,-2.978 31.525,-6.949 48.163,-11.913c-10.508,14.892 -21.017,27.797 -35.904,37.724l-0.875,0c-33.277,-1.985 -63.927,-9.927 -91.074,-22.832c-9.633,-3.971 -17.514,-8.935 -24.52,-13.899Zm264.464,15.884c-42.034,13.898 -81.441,20.847 -118.22,21.84c-0,0 -0,-0.993 0.875,-0.993c12.26,-13.898 26.271,-20.847 43.786,-13.898c1.751,0 3.502,0 4.378,0.993c21.017,1.985 40.283,-0.993 53.418,-20.848c14.012,-19.854 29.774,-26.803 52.543,-19.854c21.893,5.956 43.785,3.971 64.802,-8.935c0.876,1.986 1.752,2.978 2.627,3.971c-33.277,12.906 -67.429,25.811 -104.209,37.724Zm163.758,-83.39c-5.255,0.993 -10.509,2.978 -15.763,4.964c-10.509,4.964 -10.509,4.964 -11.384,-7.942c-0.876,-9.927 -1.752,-19.855 -2.628,-29.782l0,-0.993c60.424,-22.833 121.724,-39.709 177.769,-35.738c-0.875,1.985 -1.751,2.978 -3.503,4.963c-8.757,6.949 -18.389,10.92 -28.898,10.92c-4.379,-0.992 -8.757,0.993 -11.384,4.964c-9.633,11.913 -19.266,21.84 -32.401,28.789c-4.379,1.986 -7.006,7.942 -11.385,11.913c-0.875,0.993 -2.627,2.978 -4.378,2.978c-11.384,1.986 -14.011,4.964 -14.887,12.906c-10.509,2.978 -21.017,6.949 -31.526,10.92c0.876,-1.985 0.876,-2.978 1.752,-4.964c1.751,-7.941 -3.503,-14.891 -11.384,-13.898Zm150.621,-15.884c-24.519,1.986 -47.288,6.95 -70.056,11.913c5.254,-3.971 9.632,-8.934 14.887,-12.905c11.384,-9.928 22.768,-14.891 36.779,-7.942c0.876,0.992 1.752,0.992 2.628,0.992c16.638,3.971 32.401,2.979 43.785,-10.92c12.26,-14.891 25.396,-18.862 42.034,-11.912c16.638,6.949 35.028,6.949 52.543,-0.993c2.627,6.949 7.881,6.949 14.011,4.963c2.627,-0.992 4.378,-1.985 7.006,-2.978c4.378,1.986 9.632,2.978 14.011,4.964c-2.627,5.956 -5.254,11.913 -7.882,16.876c-0.875,1.986 -2.627,3.971 -4.378,5.957c-3.503,2.978 -7.881,5.956 -11.384,8.935c-46.413,-9.928 -90.198,-11.913 -133.984,-6.95Zm153.249,10.92c7.006,-8.934 12.26,-19.854 17.514,-30.774c35.029,12.905 61.3,26.804 84.068,39.709c0,0.993 -0.875,0.993 -0.875,1.986c-1.752,1.985 -3.503,2.978 -5.255,3.971c-7.881,3.97 -16.638,4.963 -25.395,0.992c-3.503,-0.992 -7.006,-0.992 -10.509,1.986l-0.875,-0c-20.142,-6.949 -39.407,-12.906 -58.673,-17.87Z" style="fill:#fff;fill-rule:nonzero;"/></g></g><g><path d="M769.099,58.13c2.56,-6.622 8.928,-10.988 16.027,-10.988c7.099,0 13.467,4.366 16.026,10.988l35.256,91.22l97.65,5.342c7.088,0.387 13.209,5.095 15.402,11.846c2.194,6.752 0.01,14.157 -5.497,18.638l-75.861,61.718l25.095,94.521c1.822,6.862 -0.764,14.137 -6.507,18.31c-5.743,4.173 -13.461,4.383 -19.424,0.531l-82.14,-53.076l-82.14,53.076c-5.963,3.852 -13.681,3.642 -19.424,-0.531c-5.744,-4.173 -8.329,-11.448 -6.508,-18.31l25.096,-94.521l-75.861,-61.718c-5.507,-4.481 -7.691,-11.886 -5.497,-18.638c2.193,-6.751 8.313,-11.459 15.402,-11.846l97.65,-5.342l35.255,-91.22Z" style="fill:url(#_Linear2);"/><path d="M768.246,95.64c-1.151,4.03 -2.75,9.869 -4.729,16.243c-1.697,5.468 -3.759,11.274 -5.651,16.804c-0.844,2.468 -1.635,4.882 -2.444,7.146c-1.59,4.803 -3.279,10.32 -5.699,14.797c-1.6,2.961 -3.481,5.472 -6.031,6.719c-3.553,1.736 -9.55,2.845 -16.372,3.698c-7.877,0.984 -16.853,1.192 -24.607,2c-3.667,0.382 -6.974,1.131 -9.897,1.513c-2.679,0.35 -4.962,0.538 -6.665,0.794c-0.746,0.075 -1.29,0.741 -1.216,1.486c0.075,0.746 0.74,1.291 1.486,1.216c1.401,-0.079 3.189,-0.173 5.275,-0.149c3.515,0.041 7.781,0.56 12.482,0.542c5.691,-0.021 11.906,-0.634 17.855,-1.185c9.967,-0.923 19.179,-2.45 24.126,-4.868c3.517,-1.719 6.299,-5.011 8.507,-9.095c2.57,-4.755 4.4,-10.601 6.09,-15.701c1.138,-3.835 2.317,-8.042 3.391,-12.343c1.484,-5.938 2.728,-12.031 3.965,-17.401c1.041,-4.522 2.049,-8.519 2.763,-11.539c0.187,-0.726 -0.251,-1.467 -0.976,-1.653c-0.726,-0.187 -1.466,0.251 -1.653,0.976Z" style="fill:#fff;"/></g><defs><linearGradient id="_Linear2" x1="0" y1="0" x2="1" y2="0" gradientUnits="userSpaceOnUse" gradientTransform="matrix(-107.652,-134.122,134.122,-107.652,836.067,291.296)"><stop offset="0" style="stop-color:#fabc02;stop-opacity:1"/><stop offset="0.54" style="stop-color:#f9c402;stop-opacity:1"/><stop offset="1" style="stop-color:#f4e200;stop-opacity:1"/></linearGradient></defs></svg>