<?xml version="1.0" encoding="UTF-8" standalone="no"?><!DOCTYPE svg PUBLIC "-//W3C//DTD SVG 1.1//EN" "http://www.w3.org/Graphics/SVG/1.1/DTD/svg11.dtd"><svg width="100%" height="100%" viewBox="0 0 33334 7694" version="1.1" xmlns="http://www.w3.org/2000/svg" xmlns:xlink="http://www.w3.org/1999/xlink" xml:space="preserve" xmlns:serif="http://www.serif.com/" style="fill-rule:evenodd;clip-rule:evenodd;stroke-linejoin:round;stroke-miterlimit:2;"><g><rect x="0" y="0" width="33333.3" height="7693.4" style="fill:#9d0a0e;"/><g><path d="M7078.88,3280.4c-0.258,68.15 -21.171,136.817 -82.092,190.125c-60.795,53.438 -165.991,94.096 -340.241,94.096l-350.7,0l-0,-562.379l335.079,0c156.312,0 267.187,31.75 336.758,81.188c69.313,49.825 100.679,115.262 101.196,196.97" style="fill:#fff;fill-rule:nonzero;"/><path d="M6794.79,2607.02c65.312,-46.983 96.808,-113.587 97.195,-213.362c-0.258,-68.538 -19.879,-127.267 -69.187,-171.021c-49.433,-43.887 -133.333,-74.996 -268.863,-74.996l-248.083,0l0,532.954l170.25,0c147.404,0 252.988,-26.204 318.688,-73.575" style="fill:#fff;fill-rule:nonzero;"/><path d="M7457.21,3321.69c0.905,-259.954 -172.183,-457.571 -449.308,-533.467c74.863,-38.204 133.979,-84.929 177.35,-141.854c57.825,-76.412 85.575,-169.991 85.187,-279.187c0.388,-133.979 -52.404,-270.671 -165.604,-373.029c-113.325,-102.225 -285.254,-168.442 -519.912,-168.313l-648.088,0l0,2060.81l760.638,-0c271.316,-0 461.833,-73.571 584.454,-182.642c122.75,-108.55 175.413,-251.05 175.283,-382.321m722.434,964.321l-3040.62,-0l-0,-2861.34l3040.62,0l-0,2861.34Z" style="fill:#fff;fill-rule:nonzero;"/><path d="M3291.3,2607.02c65.179,-46.983 96.804,-113.587 97.321,-213.362c-0.129,-68.538 -19.879,-127.267 -69.183,-171.021c-49.567,-43.887 -133.467,-74.996 -269.121,-74.996l-247.825,0l-0,532.954l170.25,0c147.275,0 252.858,-26.204 318.558,-73.575" style="fill:#fff;fill-rule:nonzero;"/><path d="M3474.2,3083.44c-69.442,-49.437 -180.446,-81.187 -336.625,-81.187l-335.079,-0l-0,562.379l350.696,-0c174.25,-0 279.187,-40.659 340.112,-94.096c60.925,-53.308 81.963,-121.975 82.092,-190.125c-0.517,-81.708 -31.879,-147.146 -101.196,-196.971" style="fill:#fff;fill-rule:nonzero;"/><path d="M3953.85,3321.69c0.9,-259.954 -172.446,-457.571 -449.183,-533.467c74.604,-38.204 133.72,-84.929 176.962,-141.854c58.083,-76.412 85.579,-169.991 85.45,-279.187c0.125,-133.979 -52.537,-270.671 -165.733,-373.029c-113.2,-102.225 -285.129,-168.442 -519.788,-168.313l-648.212,0l-0,2060.81l760.637,-0c271.446,-0 461.834,-73.571 584.454,-182.642c122.621,-108.55 175.671,-251.05 175.413,-382.321m722.433,964.321l-3040.5,-0l0,-2861.34l3040.5,0l0,2861.34Z" style="fill:#fff;fill-rule:nonzero;"/><path d="M11079.3,3334.98l-48.792,29.816c-235.433,143.792 -491.517,220.85 -724.112,220.721c-497.971,-1.937 -825.821,-297.004 -827.113,-726.308c0.517,-420.138 342.954,-731.079 814.462,-732.113c240.209,0.13 457.701,62.213 716.238,203.938l47.5,26.075l0,-383.483l-20.392,-8.005c-291.454,-115.004 -517.204,-166.245 -740.116,-166.116c-344.763,-0.129 -643.829,113.712 -856.929,306.808c-212.975,193.225 -339.596,465.963 -339.342,779.229c0.129,218.267 90.096,473.963 282.933,676.996c192.196,203.038 488.421,350.958 894.621,350.829l1.421,0c336.883,0 570.512,-74.996 781.679,-179.158l17.942,-8.775l-0,-390.454Zm603.812,951.025l-3040.5,-0l0,-2861.34l3040.5,0l0,2861.34Z" style="fill:#fff;fill-rule:nonzero;"/></g><g><path d="M14607.3,3046.36c-135.004,-0 -342.983,4.133 -540.016,45.5c-36.488,-95.138 -80.275,-182.004 -120.413,-260.596c-65.679,-124.092 -109.462,-223.363 -109.462,-223.363c-40.138,-95.137 -62.029,-173.729 -72.975,-244.05c492.583,-252.32 664.079,-504.641 664.079,-504.641c127.704,-173.729 76.625,-285.413 47.433,-330.913c-47.433,-78.591 -167.846,-62.046 -167.846,-62.046c0,0 -415.958,20.684 -751.65,512.917c-80.271,115.817 -124.058,227.5 -142.3,326.775c-80.275,33.092 -175.141,70.317 -273.658,115.817c-240.821,107.55 -496.238,244.05 -660.429,467.416c-164.196,219.23 -171.496,426.046 -127.709,562.55c69.325,206.821 207.98,256.455 288.255,273c21.891,4.138 40.133,-24.816 25.541,-49.633c-32.841,-66.183 -43.787,-148.912 -36.487,-231.642c40.133,-405.366 415.958,-694.912 780.837,-897.6c21.892,169.596 102.167,293.688 142.304,351.596c0,0 91.217,119.954 175.142,273.004c-317.446,99.271 -602.05,277.138 -693.271,570.821c-131.354,413.642 229.875,500.504 229.875,500.504c47.434,12.413 91.217,12.413 138.655,12.413c353.929,-12.413 616.641,-231.642 733.404,-603.917c40.137,-132.362 21.891,-285.412 -25.542,-434.321c102.167,-24.82 229.875,-37.229 383.121,-41.366c10.95,-0 18.246,-0 25.541,-4.134c43.788,-24.82 80.275,-57.912 102.167,-95.137c7.3,-12.408 0,-28.954 -14.596,-28.954Zm-145.95,-1348.47c0,-0 -21.891,-115.817 -36.487,-157.183c-0,-0 91.221,62.05 36.487,157.183Zm-510.829,153.05c193.384,-260.596 386.771,-260.596 386.771,-260.596c0,0 40.138,0 54.733,20.683c18.242,28.955 0,115.821 -72.979,194.413c-135.004,153.046 -390.416,285.408 -543.666,355.729c29.191,-95.137 87.57,-190.275 175.141,-310.229Zm-94.867,1791.06c-54.733,301.955 -353.933,546.005 -543.67,463.275c-0,0 -226.225,-82.729 -76.625,-401.229c69.329,-148.912 259.062,-306.096 554.616,-409.504c51.084,119.954 87.571,248.183 65.68,347.458Z" style="fill:#fff;fill-rule:nonzero;"/><path d="M14654.8,4245.9c383.121,8.275 715.158,-819.008 777.188,-984.462c14.595,-33.092 18.245,-70.321 10.95,-103.408c-7.3,-33.092 -18.246,-62.05 -32.842,-86.867c-7.296,-16.546 -32.838,-16.546 -40.138,4.137c-262.712,719.734 -616.641,1042.37 -704.212,1025.83c-72.975,-12.408 -69.329,-347.454 72.975,-926.554c412.312,-268.862 569.208,-781.779 569.208,-781.779c255.417,-806.596 -138.654,-810.733 -138.654,-810.733c-401.362,-12.409 -715.158,1377.42 -715.158,1377.42c-0,-0 -332.042,1278.15 200.683,1286.42Zm591.1,-2535.61c0,-0 -91.217,70.317 -124.058,173.729c-0,0 -14.596,-177.867 124.058,-173.729Zm3.65,107.546c0,-0 43.788,227.5 -58.379,537.733c-62.029,190.271 -186.088,442.592 -397.717,637.004c83.921,-281.275 346.634,-1096.15 456.096,-1174.74Z" style="fill:#fff;fill-rule:nonzero;"/><path d="M15614.4,4241.77c569.208,62.05 919.492,-905.87 948.683,-988.6c0,-4.133 3.65,-8.27 3.65,-12.408c14.596,-66.183 0,-132.362 -18.246,-169.592c-3.65,-16.545 -25.541,-16.545 -32.837,0c-76.625,198.546 -426.908,1042.38 -857.467,1013.42c-189.733,-24.817 -175.141,-285.408 -131.354,-496.367c149.6,-12.408 481.638,-91 609.346,-529.458c171.492,-599.779 -160.546,-603.917 -160.546,-603.917c-405.017,-4.133 -642.187,641.142 -642.187,641.142c-0,0 -456.096,1058.92 280.958,1145.78Zm262.712,-1671.1c18.242,-16.546 54.73,-24.821 80.271,-12.408c0,-0 -87.571,45.5 -124.058,132.362c-0,0 -0,-78.591 43.787,-119.954Zm-262.712,723.871c-0,0 244.467,-694.917 383.121,-686.642c-0,0 94.871,45.5 -29.188,446.73c-98.521,301.958 -302.85,380.55 -405.016,401.233c25.541,-95.138 51.083,-161.321 51.083,-161.321Z" style="fill:#fff;fill-rule:nonzero;"/><path d="M16606.9,4245.9c383.121,-12.408 675.025,-872.779 715.158,-996.87c3.65,-16.546 7.3,-33.092 7.3,-45.5c0,-45.5 -14.595,-91.005 -32.841,-124.092c-10.946,-20.683 -40.134,-16.546 -47.434,4.133c-244.466,728.009 -576.508,1067.19 -631.237,1021.69c-69.329,-57.908 80.271,-711.463 255.412,-1224.38c7.3,-16.546 10.946,-37.225 10.946,-53.771c14.596,-173.729 -94.866,-268.867 -211.629,-293.687c-36.487,-4.134 -69.325,16.545 -83.921,57.912c-251.766,728.004 -262.712,1108.55 -262.712,1108.55c-47.434,570.825 280.958,546.004 280.958,546.004Zm226.221,-1439.47c-0,86.862 -36.488,103.408 -36.488,103.408c0,0 18.246,-144.771 -10.945,-210.954c-0,-0 51.083,24.817 47.433,107.546Zm-43.783,-318.504c102.166,86.866 175.141,-37.225 204.333,-103.409c10.946,-24.821 18.242,-53.775 14.592,-82.729c-18.242,-136.5 -113.113,-182 -171.492,-194.412c-21.892,-4.134 -47.433,8.275 -54.729,37.229c-91.221,252.321 7.296,343.321 7.296,343.321Zm167.841,-239.913c0,0 51.084,74.458 -14.591,157.183c-0,0 21.891,-136.5 14.591,-157.183Z" style="fill:#fff;fill-rule:nonzero;"/><path d="M17172.4,4324.52c-383.121,541.871 21.896,670.1 21.896,670.1c423.258,140.638 704.212,-508.779 872.058,-1154.06c277.308,-198.546 437.854,-401.229 529.071,-595.642c32.841,-74.454 25.541,-136.5 -0,-182c-7.296,-8.275 -18.242,-8.275 -25.538,4.134c-127.708,260.596 -288.254,442.596 -452.45,583.233c87.571,-384.683 142.3,-736.279 160.546,-881.054c10.946,-95.138 -21.892,-186.138 -91.221,-239.908c-43.783,-33.092 -91.221,-53.775 -127.708,-62.05c-36.488,-8.271 -72.975,16.545 -80.271,62.05c0,12.408 -3.65,24.816 -3.65,41.362c-40.137,-66.183 -94.867,-111.683 -175.142,-111.683c-386.77,-4.138 -594.75,591.504 -594.75,591.504c-200.683,512.917 -14.595,893.462 273.659,905.875c116.758,4.133 215.279,-70.321 288.254,-173.729c-10.946,41.362 -25.542,82.725 -36.488,124.091c-226.225,132.363 -430.558,235.775 -558.266,417.775Zm43.787,504.642c0,0 -178.791,-24.817 32.838,-359.867c-0,0 127.708,-198.545 423.258,-384.687c-127.704,380.55 -299.2,756.962 -456.096,744.554Zm1003.42,-1993.75c-0,0 -10.95,-136.5 -51.084,-223.366c0,-0 98.517,37.229 51.084,223.366Zm-722.463,1005.15c0,0 -207.979,-8.271 -10.945,-653.55c-0,0 204.333,-595.642 361.229,-603.917c109.466,-4.137 72.975,368.142 65.679,459.142c-3.65,24.817 -7.296,49.638 -10.946,74.454c-29.192,95.138 -200.683,690.779 -405.017,723.871Z" style="fill:#fff;fill-rule:nonzero;"/><path d="M18559,4254.19l7.3,0c43.784,-4.137 76.625,-41.367 83.921,-86.867c7.3,-45.5 18.246,-107.545 32.838,-186.137c251.766,-914.146 696.921,-1356.74 715.162,-1294.69c18.246,62.046 -127.704,438.459 -127.704,438.459c-153.25,421.912 -167.846,703.187 -167.846,703.187c-29.191,479.821 291.904,417.775 291.904,417.775c386.771,-12.408 678.671,-881.054 715.159,-1001.01c3.65,-12.409 7.3,-24.817 7.3,-37.229c3.65,-53.771 -18.246,-103.409 -36.488,-136.5c-7.3,-16.546 -29.191,-12.409 -36.487,4.137c-244.471,736.279 -580.159,1075.46 -638.538,1029.96c-69.329,-57.909 135.004,-682.505 200.684,-864.509c131.354,-351.591 153.245,-641.141 -29.192,-728.004c-240.821,-107.55 -507.179,306.092 -507.179,306.092c-98.521,140.637 -186.092,301.958 -244.471,417.775c14.596,-82.725 32.837,-169.592 51.083,-256.454c14.596,-82.73 32.838,-161.321 47.434,-235.775c189.737,-140.638 397.716,-421.913 452.45,-814.871c29.191,-194.413 10.945,-306.096 -21.892,-368.142c-43.788,-86.862 -113.113,-82.729 -113.113,-82.729c-40.137,-0 -76.625,16.546 -116.762,45.504c-408.663,297.821 -689.621,2010.29 -758.946,2481.84c-21.892,132.366 72.975,256.458 193.383,248.187Zm1076.39,-1369.15c0,0 -21.892,-206.821 -51.083,-268.867c-0,0 105.816,78.592 51.083,268.867Zm-394.067,-1278.15c0,0 51.084,4.138 10.946,285.413c-29.191,198.545 -135.004,479.825 -288.254,657.687c116.763,-566.687 204.333,-943.1 277.308,-943.1Z" style="fill:#fff;fill-rule:nonzero;"/><path d="M22521.5,3232.52c277.304,-198.55 408.662,-707.325 408.662,-707.325c266.363,-980.329 -164.196,-951.375 -164.196,-951.375c-255.416,-12.408 -598.4,583.234 -780.841,943.1c3.65,-12.408 3.65,-20.679 7.3,-33.091c36.487,-136.5 65.679,-252.317 91.22,-351.592c80.271,-53.775 153.246,-124.092 222.575,-235.775c171.492,-268.867 25.542,-388.821 25.542,-388.821c-54.733,-53.775 -229.875,-115.821 -379.475,153.046c0,0 -94.867,157.183 -189.737,438.458c-415.963,157.184 -941.388,256.459 -1120.17,554.28c-124.059,206.816 -10.946,446.729 94.866,521.183c18.246,12.412 40.138,-4.133 40.138,-28.954c-3.65,-49.638 7.296,-115.817 25.541,-161.317c113.113,-301.958 726.109,-537.733 868.413,-620.462c7.296,-4.138 10.946,-8.271 18.242,-12.409c-138.655,517.05 -412.313,1737.29 36.487,1902.75c29.192,8.271 54.733,-20.683 43.788,-49.637c-32.842,-107.546 -58.384,-376.413 72.975,-1046.51c36.487,330.909 153.25,1009.28 485.287,1079.6c0,0 306.496,82.725 368.529,-268.866c3.646,-20.684 -18.246,-37.23 -36.491,-28.955c-47.434,33.092 -127.705,70.317 -226.221,28.955c-193.388,-82.73 -324.746,-492.234 -379.475,-703.188c18.242,12.408 29.192,16.546 29.192,16.546c160.545,82.725 324.741,37.225 437.854,-49.638Zm426.904,-1336.06c-0,0 -58.379,-157.183 -135.004,-239.912c-0,-0 135.004,4.137 135.004,239.912Zm-667.725,-281.275c21.892,16.546 -0,136.5 -72.975,219.229c-14.596,16.546 -29.192,33.092 -47.438,45.5c87.571,-260.596 120.413,-264.729 120.413,-264.729Zm-317.446,1166.46c178.792,-318.5 558.267,-976.188 722.458,-1005.15c0,-0 135.009,-12.409 -29.187,608.054c-0,-0 -222.575,798.325 -529.075,756.962c-109.463,-16.545 -149.6,-219.229 -164.196,-359.87Z" style="fill:#fff;fill-rule:nonzero;"/><path d="M23171,4245.9c383.121,-12.408 675.025,-872.779 715.158,-996.87c3.65,-16.546 7.3,-33.092 7.3,-45.5c0,-45.5 -14.596,-91.005 -32.842,-124.092c-10.945,-20.683 -40.133,-16.546 -47.433,4.133c-244.467,728.009 -576.508,1067.19 -631.237,1021.69c-69.33,-57.908 80.27,-711.463 255.412,-1224.38c7.3,-16.546 10.946,-37.225 10.946,-53.771c14.596,-173.729 -94.867,-268.867 -211.629,-293.687c-36.488,-4.134 -69.325,16.545 -83.921,57.912c-251.767,728.004 -262.713,1108.55 -262.713,1108.55c-47.433,570.825 280.959,546.004 280.959,546.004Zm226.221,-1439.47c-0,86.862 -36.488,103.408 -36.488,103.408c0,0 18.246,-144.771 -10.946,-210.954c0,-0 51.084,24.817 47.434,107.546Zm-43.784,-318.504c102.167,86.866 175.142,-37.225 204.334,-103.409c10.945,-24.821 18.241,-53.775 14.591,-82.729c-18.241,-136.5 -113.108,-182 -171.491,-194.412c-21.892,-4.134 -47.434,8.275 -54.73,37.229c-91.22,252.321 7.296,343.321 7.296,343.321Zm167.846,-239.913c0,0 51.079,74.458 -14.596,157.183c0,0 21.892,-136.5 14.596,-157.183Z" style="fill:#fff;fill-rule:nonzero;"/><path d="M23911.8,4221.11c218.929,37.225 386.771,-194.413 488.938,-401.234c3.65,450.871 284.604,426.05 284.604,426.05c383.125,-12.408 715.162,-819.008 777.191,-984.462c14.596,-33.092 18.246,-66.183 10.946,-103.408c-7.296,-33.092 -18.241,-62.05 -29.187,-82.73c-10.946,-20.683 -36.488,-20.683 -43.788,0c-262.712,723.871 -616.641,1042.37 -704.212,1029.96c-65.679,-8.271 25.541,-541.867 135.004,-972.054c364.879,-277.138 507.179,-740.417 507.179,-740.417c259.067,-806.596 -138.654,-810.733 -138.654,-810.733c-244.467,-12.409 -474.342,670.096 -587.454,1079.6c-36.488,-86.863 -94.867,-144.775 -189.734,-148.909c-364.879,-16.545 -638.537,599.775 -638.537,599.775c-251.767,570.825 -193.388,1058.92 127.704,1108.56Zm1379.24,-2519.07c-0,-0 -91.221,70.321 -124.059,173.729c0,0 -18.245,-182 124.059,-173.729Zm-10.946,119.958c-0,0 43.783,223.363 -58.379,533.596c-54.734,169.592 -160.55,388.821 -335.692,574.958c87.571,-322.637 291.904,-1038.24 394.071,-1108.55Zm-1225.99,1497.38c0,0 273.659,-670.096 412.313,-653.55c105.816,8.271 54.733,330.913 25.541,483.959c-7.296,24.816 -10.945,49.637 -18.245,70.32l-0,4.134c-3.646,20.683 -7.296,37.229 -10.946,57.912c-29.188,86.863 -277.309,810.734 -518.125,819.004c-0,0 -178.792,-66.179 109.462,-781.779Z" style="fill:#fff;fill-rule:nonzero;"/><path d="M25630.3,4241.77c569.208,62.05 919.491,-905.87 948.683,-988.6c0,-4.133 3.65,-8.27 3.65,-12.408c14.596,-66.183 0,-132.362 -18.246,-169.592c-3.646,-16.545 -25.541,-16.545 -32.837,0c-76.625,198.546 -426.909,1042.38 -857.467,1013.42c-189.733,-24.817 -175.142,-285.408 -131.354,-496.367c149.6,-12.408 481.637,-91 609.346,-529.458c171.491,-599.779 -160.546,-603.917 -160.546,-603.917c-405.017,-4.133 -642.188,641.142 -642.188,641.142c0,0 -456.096,1058.92 280.959,1145.78Zm262.712,-1671.1c18.242,-16.546 54.733,-24.821 80.271,-12.408c-0,-0 -87.571,45.5 -124.058,132.362c-0,0 -0,-78.591 43.787,-119.954Zm-262.712,723.871c-0,0 244.466,-694.917 383.12,-686.642c0,0 94.871,45.5 -29.187,446.73c-98.521,301.958 -302.85,380.55 -405.017,401.233c25.542,-95.138 51.084,-161.321 51.084,-161.321Z" style="fill:#fff;fill-rule:nonzero;"/><path d="M32778.3,3153.9c-14.596,-4.137 -32.838,-4.137 -47.434,-4.137c-32.837,-0 -32.837,-0 -21.891,-33.092c3.65,-28.954 10.946,-53.771 18.241,-82.729c10.95,-62.046 -3.646,-111.679 -43.783,-157.183c-10.946,-16.546 -21.892,-28.954 -36.487,-49.634l18.241,0c14.596,4.134 29.192,8.271 40.138,12.409c21.891,4.137 36.487,-8.275 43.787,-33.092c10.946,-28.954 7.296,-37.229 -10.946,-49.637c-43.787,-33.092 -76.625,-74.455 -127.708,-91c-0,-0 -0,-4.138 -3.65,-8.275c10.946,-4.134 18.246,-8.271 25.542,-8.271l51.083,-0c32.838,4.137 58.379,-8.275 76.625,-41.363c7.296,-8.275 7.296,-20.683 7.296,-33.091c-0,-4.138 -10.946,-12.413 -14.596,-16.546c-3.646,8.271 -10.946,12.408 -10.946,20.679c0,16.546 -10.946,33.092 -25.541,37.229c-10.946,4.138 -21.892,4.138 -32.838,4.138c3.65,-12.409 7.296,-20.684 10.946,-33.092c3.65,-8.275 3.65,-12.408 3.65,-20.683c-3.65,-0 -14.596,-0 -14.596,4.137c-7.3,4.138 -14.596,16.546 -21.892,24.817c-14.595,20.683 -58.383,37.229 -83.925,24.821c10.946,-12.409 21.896,-20.684 32.842,-33.092c25.542,-28.954 36.488,-66.183 25.542,-107.546c-0,-8.275 -7.3,-12.412 -14.596,-16.546c-0,4.134 -3.65,12.409 -3.65,20.679c-3.65,4.138 -0,8.275 -0,12.413c-3.65,41.362 -36.488,86.862 -72.975,103.408c-21.892,4.138 -54.733,-12.408 -72.975,-41.362c-14.596,-20.684 -18.246,-53.775 -0,-70.321c10.946,-12.408 25.542,-20.683 36.487,-33.092c18.242,-12.408 32.838,-24.816 43.784,-37.225c10.95,-12.412 14.595,-24.821 -0,-33.091c-3.646,-4.138 -14.592,8.27 -21.892,16.545c-10.946,8.271 -18.242,24.817 -25.542,28.955c-18.241,12.408 -29.187,8.27 -32.837,-16.546c-0,-16.546 7.296,-37.229 7.296,-57.909l-0,-20.683c-3.646,4.138 -14.596,0 -18.242,8.271c-3.65,8.275 -7.3,20.683 -10.946,28.958l0,62.046c-3.65,16.546 -3.65,37.225 -21.896,49.633c-10.946,-16.545 -7.296,-33.087 0,-49.633c7.3,-28.958 10.946,-62.046 7.3,-91.004c-3.65,-16.546 -7.3,-24.817 -25.541,-24.817c-0,16.546 3.646,33.092 -0,45.5c-3.65,24.817 -7.3,53.775 -14.596,74.454c-0,8.275 -14.596,12.413 -21.892,16.546c-3.65,-8.271 -10.946,-20.679 -7.3,-28.954c3.65,-20.683 14.596,-37.229 21.896,-53.771c3.646,-4.137 10.946,-12.412 10.946,-20.683c-0,-8.275 -7.3,-12.408 -10.946,-16.546c-3.65,4.138 -7.3,8.271 -10.95,12.408c-7.296,16.546 -14.592,33.092 -25.542,45.5c0,4.138 -10.945,8.275 -10.945,4.138c-3.646,-4.138 -7.296,-8.275 -7.296,-12.408c3.65,-16.546 7.296,-28.955 14.595,-45.5l0,-12.413c-3.65,0 -10.945,-4.133 -14.595,0c-18.246,16.546 -29.192,37.229 -25.542,62.046c3.65,45.504 21.892,74.458 54.733,103.412c21.892,20.684 47.434,41.363 65.675,70.317c21.896,37.229 47.438,62.046 83.925,78.592c18.242,8.275 32.838,20.683 51.084,33.091c-10.95,12.413 -18.246,20.684 -21.896,24.821c-14.596,-4.137 -29.188,-8.275 -43.783,-8.275c-21.892,0 -40.138,-4.133 -62.03,-4.133c-10.945,-4.138 -21.895,-4.138 -32.841,-8.275c-3.646,4.137 -3.646,8.275 -3.646,8.275c32.837,45.5 62.029,91 113.112,95.133c14.592,28.959 29.188,57.913 43.784,82.729c3.65,8.275 7.3,12.409 10.946,20.684c10.945,24.816 10.945,49.637 -10.946,62.046c-14.596,12.408 -29.192,16.545 -47.434,16.545c-40.137,4.138 -76.625,-12.408 -113.112,-33.091c-51.083,-28.954 -105.817,-49.638 -164.196,-41.363c-36.487,4.134 -54.733,-20.683 -54.733,-62.046c-0,-8.275 -3.646,-16.545 -7.296,-24.82c-7.296,4.137 -14.596,4.137 -21.892,12.408c-7.3,4.137 -14.596,12.412 -18.246,20.683c-3.645,12.409 -7.295,28.954 -3.645,45.5c-76.625,-45.5 -167.846,-86.862 -277.309,-128.229c7.296,-20.679 14.596,-37.225 21.892,-57.908c10.946,-24.817 -7.296,-49.638 -29.192,-49.638c-18.241,0 -36.487,8.275 -54.729,12.409c-36.487,8.275 -36.487,8.275 -36.487,-33.092c-0,-33.088 3.645,-66.179 -0,-95.133c-3.65,-74.459 -36.488,-128.23 -91.221,-165.459c-18.246,-12.408 -32.838,-24.816 -54.734,-41.362c14.596,-4.138 18.246,-8.275 21.896,-8.275l47.434,-0c25.541,-4.134 36.487,-20.679 40.137,-53.771c3.646,-33.092 0,-41.367 -29.192,-53.775c-54.733,-20.683 -105.816,-57.908 -167.845,-57.908c-0,-0 -0,-4.138 -3.646,-8.275c7.296,-4.134 14.591,-12.409 25.541,-16.546c18.242,-8.271 40.134,-12.409 58.38,-16.546c40.137,-8.271 65.679,-33.088 76.625,-74.454c3.645,-12.409 3.645,-28.954 -0,-41.363c-3.65,-4.137 -14.596,-8.275 -25.542,-12.408c-0,8.271 -7.3,16.546 -7.3,24.817c7.3,20.683 -0,41.362 -14.592,53.775c-10.95,8.27 -25.541,8.27 -40.137,16.545c3.645,-16.545 3.645,-28.958 7.296,-45.504c-0,-8.271 -0,-12.408 -3.65,-20.679c-3.646,4.133 -14.592,4.133 -18.242,8.271c-3.65,8.275 -7.3,24.821 -10.946,37.229c-10.946,24.817 -62.029,62.046 -91.221,57.908c10.946,-16.545 18.246,-33.091 25.542,-53.77c25.541,-41.367 25.541,-86.867 3.65,-128.23c-3.65,-8.275 -14.596,-8.275 -21.896,-12.408c0,4.133 -3.646,12.408 0,20.679c0,8.275 0,12.409 3.65,16.546c7.3,49.638 -14.596,111.683 -54.729,140.638c-21.896,16.545 -65.679,8.275 -94.871,-16.546c-21.892,-20.679 -32.838,-53.771 -18.242,-82.725c7.296,-20.684 21.892,-33.092 36.488,-49.638c10.946,-16.546 25.541,-37.229 36.487,-57.912c7.296,-16.546 7.296,-33.092 -10.946,-37.225c-3.65,-4.138 -14.595,16.546 -21.895,24.816c-7.296,16.546 -10.946,33.092 -21.892,45.5c-14.596,16.546 -29.192,16.546 -36.488,-8.27c-7.295,-20.684 -7.295,-45.5 -7.295,-70.321c-3.65,-4.134 -3.65,-12.409 -7.3,-20.679c-7.296,4.133 -14.596,4.133 -18.242,12.408c-3.65,12.408 -7.3,28.954 -3.65,41.362c3.65,20.684 10.946,45.5 14.596,66.184c3.65,24.816 7.296,45.5 -10.946,66.183c-18.246,-12.408 -14.596,-37.229 -14.596,-53.775c3.65,-41.362 -3.65,-74.454 -18.246,-111.683c-3.646,-12.409 -14.596,-24.817 -32.837,-16.546c3.65,16.546 10.946,33.092 14.596,53.775c3.645,28.954 3.645,57.908 3.645,91c0,8.275 -14.591,16.546 -21.891,24.821c-3.646,-12.413 -18.242,-24.821 -18.242,-33.092c0,-24.821 10.946,-45.5 14.596,-66.183c-0,-8.275 3.646,-20.684 3.646,-28.954c-3.646,-8.275 -10.946,-12.413 -18.242,-16.546c0,8.271 -3.65,12.408 -7.3,20.679c-3.646,20.683 -7.296,41.367 -14.596,57.912c-3.646,4.134 -10.946,12.409 -14.591,12.409c-3.65,-4.138 -10.95,-12.409 -10.95,-16.546c-0,-16.546 3.65,-37.229 3.65,-53.775c-0,-4.133 -3.65,-12.408 -3.65,-16.546c-3.646,0 -10.946,4.138 -14.592,8.275c-18.246,20.683 -21.896,49.638 -10.946,78.592c14.592,45.5 43.783,78.591 87.571,95.137c32.837,16.546 69.325,33.092 94.867,57.909c32.837,33.091 69.325,53.775 116.762,62.045c21.892,4.138 43.783,12.409 69.325,16.546c-10.946,20.684 -18.242,28.954 -21.892,37.229c-18.245,4.138 -32.841,4.138 -51.083,8.271c-21.892,4.138 -47.433,8.275 -72.975,16.546c-10.946,0 -25.542,0 -40.137,4.138l-0,8.27c47.433,41.367 98.516,78.592 156.895,66.184c25.542,28.954 47.438,57.912 69.33,82.729c3.65,4.137 10.945,12.408 18.241,16.546c21.896,20.683 25.542,53.771 3.65,78.591c-10.946,12.409 -29.191,24.817 -47.433,33.092c-43.788,16.546 -91.221,12.408 -138.654,4.138c-65.679,-16.546 -131.359,-24.821 -197.034,8.27c-40.137,16.546 -65.679,-4.137 -80.275,-49.637c0,-12.408 -7.295,-16.546 -10.945,-28.954c-10.946,8.271 -18.246,12.408 -25.542,20.683c-7.296,8.271 -10.946,20.679 -10.946,28.954c-10.946,45.5 14.596,82.729 62.029,99.275c-237.171,-12.412 -485.287,57.909 -737.054,153.046c-18.246,-57.912 -58.379,-103.412 -116.762,-132.367c-21.892,-12.408 -43.784,-28.954 -69.325,-45.5c14.595,-4.137 18.241,-8.27 25.541,-12.408c18.242,0 40.138,-4.137 58.379,-8.275c32.838,-4.133 43.788,-28.954 47.434,-70.317c-0,-41.362 -7.296,-53.775 -43.784,-62.045c-72.975,-20.684 -142.304,-57.909 -218.929,-49.638c0,0 0,-4.137 -3.646,-12.408c7.296,-8.275 18.242,-20.684 29.188,-24.821c21.896,-12.408 47.433,-20.679 72.975,-28.954c47.437,-12.409 76.625,-49.638 87.571,-103.409c3.65,-16.545 -0,-33.091 -7.296,-49.637c-3.65,-8.271 -18.246,-8.271 -29.192,-12.408c-3.646,8.27 -10.946,20.679 -7.296,33.091c7.296,24.817 3.65,49.638 -14.595,66.179c-10.946,12.413 -29.192,16.546 -47.434,24.821c0,-16.546 0,-33.091 3.65,-53.775c0,-8.271 -3.65,-20.679 -3.65,-28.954c-10.946,4.138 -21.891,8.275 -21.891,12.408c-7.3,16.546 -10.946,33.092 -14.596,49.638c-10.946,37.229 -69.329,86.867 -105.817,86.867c7.3,-24.821 18.246,-45.5 29.192,-70.321c21.891,-57.909 18.241,-111.684 -14.596,-165.454c-3.65,-8.275 -18.242,-8.275 -29.192,-12.413c0,8.275 0,20.683 3.65,28.958c0,8.271 3.65,12.409 3.65,20.68c18.242,62.045 -3.65,140.637 -51.083,186.137c-25.542,20.683 -80.275,16.546 -120.408,-12.408c-32.842,-24.817 -47.438,-62.046 -32.842,-103.409c7.3,-20.683 25.542,-41.366 40.137,-62.045c14.596,-24.821 29.192,-53.775 40.138,-82.73c7.296,-16.545 7.296,-41.362 -14.596,-45.5c-7.296,0 -21.892,24.817 -25.542,37.23c-10.945,20.679 -10.945,45.5 -21.891,57.908c-18.246,28.954 -36.488,24.817 -51.084,-4.138c-7.3,-24.816 -10.945,-53.77 -14.595,-82.729c-3.65,-12.408 -7.296,-20.679 -10.946,-28.954c-7.3,4.138 -21.892,8.275 -21.892,16.546c-3.65,16.546 -3.65,37.229 0,53.775c3.646,28.954 18.242,53.771 25.542,82.729c7.296,28.954 14.591,57.908 -7.3,82.725c-25.542,-12.408 -25.542,-41.362 -25.542,-66.183c0,-49.634 -10.946,-91 -32.837,-132.363c-7.3,-20.683 -21.892,-33.091 -43.788,-20.683c7.3,24.821 18.246,41.367 25.542,66.183c3.65,37.229 10.946,74.454 10.946,111.684c-0,12.408 -14.592,24.816 -21.892,33.091c-10.946,-12.408 -25.542,-24.821 -25.542,-37.229c-3.65,-28.954 3.65,-53.771 7.3,-82.729c3.646,-12.408 3.646,-28.954 0,-37.225c0,-8.275 -10.95,-12.408 -18.246,-20.683c-3.65,8.275 -7.295,20.683 -7.295,28.954c-7.3,24.821 -10.946,49.637 -14.596,74.458c-3.65,8.271 -10.946,16.542 -14.596,16.542c-7.296,-4.134 -18.246,-12.409 -18.246,-16.542c-3.646,-24.821 0,-45.504 -3.646,-70.321c0,-4.137 0,-12.408 -3.65,-20.683c-7.296,4.137 -14.596,4.137 -18.241,12.412c-18.246,33.088 -21.896,66.18 -7.3,103.409c25.541,57.908 65.679,91 124.058,107.546c40.137,12.408 87.571,28.954 124.058,57.908c47.434,37.229 94.871,57.912 153.25,62.046c29.192,4.137 58.379,8.275 87.571,12.412c-10.946,24.817 -18.246,41.363 -21.892,49.634c-21.895,4.137 -43.787,8.275 -62.029,12.412c-29.191,12.408 -62.029,24.817 -91.221,33.092c-14.595,4.133 -32.837,8.271 -47.433,12.408l0,12.408c65.679,41.363 127.708,86.863 204.329,62.046c32.842,33.092 62.029,62.046 94.871,91c7.296,8.275 14.596,12.409 21.892,20.684c29.191,24.816 40.137,62.045 14.596,95.137c-14.596,20.683 -32.838,37.229 -54.734,49.638c-54.729,28.954 -116.758,28.954 -175.141,24.816c-83.921,-12.408 -167.842,-12.408 -248.117,37.229c-43.783,24.817 -80.271,4.138 -102.167,-53.775c-3.646,-12.408 -14.591,-20.679 -18.241,-28.954c-10.946,8.275 -25.542,16.546 -32.842,24.817c-3.646,12.412 -7.296,24.821 -10.946,41.367c-3.646,53.77 29.192,99.275 91.221,111.683c43.783,12.408 51.083,20.679 36.487,70.317c0,4.137 -3.65,4.137 -3.65,8.275c-153.245,62.045 -299.2,107.545 -434.204,132.362c-255.412,41.367 -441.504,-12.408 -580.158,-173.729c-14.592,-53.771 -43.783,-41.363 -102.163,-45.5c-25.541,-4.133 -58.383,20.683 -76.625,45.5c-29.191,28.958 -25.541,62.046 -62.029,95.137c-25.541,24.821 -47.433,16.546 -80.275,28.955c0,-0 -36.487,-33.088 -14.596,-119.955c21.896,-82.729 -40.133,-161.32 -40.133,-161.32c-47.437,-115.817 -120.412,-144.771 -240.821,-107.546c-65.679,20.683 -127.708,28.954 -189.737,-0c-14.596,-4.138 -32.838,-4.138 -43.788,16.546c-10.946,16.545 -14.591,41.366 0,70.32c10.95,24.817 32.842,24.817 43.788,12.409c40.137,-62.046 87.571,-20.684 135.004,-16.546c3.65,-0 10.946,-0 32.842,4.137c-43.788,86.863 -51.084,144.771 -36.492,215.092c-76.621,24.817 -102.163,49.638 -160.546,107.546c0,-12.408 -25.542,-70.317 -32.837,-91c-3.65,-20.683 -14.596,-49.638 -29.192,-53.775c-18.242,-4.133 -43.783,8.275 -62.029,20.683c-21.892,12.409 -36.488,37.229 -58.379,53.775c-36.488,28.954 -36.488,70.317 -29.192,115.817c10.946,49.637 43.787,33.092 72.975,37.229c14.596,0 29.192,-4.137 51.083,-4.137c-32.837,95.137 -62.029,169.591 -54.729,273.004c3.646,4.133 3.646,8.271 3.646,12.408c-10.946,24.817 -18.242,49.638 -21.892,70.317c-65.679,-16.542 -131.354,-37.225 -197.033,-62.046c-131.358,-53.771 -266.363,-124.092 -394.071,-210.954c-222.575,-148.913 -357.579,-297.821 -361.229,-297.821c-21.892,-24.821 -54.729,-24.821 -76.625,-0c-18.242,24.817 -18.242,66.183 3.65,86.862c-0,4.138 14.596,20.684 40.137,45.5c58.38,82.73 167.846,219.23 317.446,359.867c138.65,128.229 284.604,235.775 437.854,314.367c116.759,62.05 237.171,107.55 357.58,140.637c7.295,28.959 10.945,66.184 14.595,99.275c0,0 -94.87,-12.408 -94.87,28.954c-0,0 -0,33.092 69.329,33.092c116.758,4.138 222.575,16.546 339.337,20.683c135.004,0 317.442,0 452.446,-8.275c105.817,-8.27 182.442,-12.408 262.713,-49.633c94.87,-41.367 149.604,-161.321 113.112,-252.321c0,0 -29.187,-57.912 -51.079,-49.637c-25.542,12.408 -36.492,24.816 -29.192,53.771c21.892,57.912 18.242,111.683 -18.246,157.183c-29.187,37.229 -54.729,37.229 -83.92,-4.133c-36.488,-53.775 -47.434,-107.546 -18.246,-173.73c25.541,-62.045 36.491,-128.229 51.083,-194.412c21.896,-119.954 40.138,-161.321 142.304,-128.229c0,-0 43.788,28.954 69.325,-8.271c21.896,-41.367 -25.537,-95.138 -25.537,-95.138c-54.734,-62.045 -131.359,-49.637 -204.334,4.138c-36.487,24.817 -43.787,37.225 -76.625,66.179c-32.837,-173.729 -153.25,-20.679 -226.225,-45.5c10.946,-70.317 -43.783,-144.775 -54.733,-165.454c80.275,-53.775 58.383,-70.321 138.654,-161.321c3.65,-4.137 3.65,-8.271 7.3,-8.271c0,0 21.892,-4.137 43.784,-12.412c36.487,45.504 124.058,144.775 284.608,223.366c109.462,53.775 233.521,86.867 364.875,99.275c-3.646,8.271 -10.946,16.546 -18.242,24.817c-7.3,8.275 -10.946,20.683 -21.891,24.821c-72.98,16.546 -72.98,45.5 -72.98,111.683c0,20.679 7.3,41.363 10.95,66.179c18.242,-12.408 36.488,-24.816 51.08,-41.362c58.383,-57.908 113.112,-119.954 171.495,-182c167.842,-0 350.284,-28.958 543.667,-91.004c164.196,-53.771 313.796,-111.684 463.396,-169.592c51.083,-20.679 98.517,-41.362 149.6,-62.046c-14.596,45.5 -29.188,86.867 -43.783,128.229c-7.3,12.409 -10.946,20.684 -21.896,28.955c-21.892,24.82 -43.784,45.5 -65.675,66.183c-7.3,8.271 -14.596,20.683 -18.246,33.092c-7.296,28.954 -10.946,57.908 -14.596,86.862c0,8.275 0,16.546 3.65,20.683c7.296,4.138 18.246,4.138 21.892,0c25.541,-20.683 51.083,-41.362 72.975,-66.183c72.979,-95.137 113.112,-210.954 149.604,-326.775c47.433,-20.683 94.867,-37.229 142.3,-49.637c-0,12.408 3.65,24.82 7.3,37.229c10.946,-8.275 29.187,-16.546 40.133,-24.821c14.596,-16.546 32.842,-28.954 47.438,-45.5c120.408,-33.092 240.816,-57.908 368.525,-70.317c171.491,-20.683 346.633,-12.408 529.075,24.817c-7.3,20.683 -10.946,41.367 -14.596,62.046c-3.65,4.137 -3.65,12.408 -0,16.546c3.65,4.137 10.946,4.137 18.242,-0c18.245,-12.409 40.137,-24.817 58.383,-45.5c7.296,-4.138 10.946,-8.271 18.242,-16.546c72.979,16.546 149.6,41.362 226.225,66.183c-25.542,16.546 -54.73,28.954 -83.921,33.092c-18.246,4.137 -32.838,20.679 -51.084,28.954c-3.65,4.137 -10.945,8.271 -18.241,8.271c-51.084,-8.271 -54.734,12.412 -69.329,49.637c-3.65,16.546 -3.65,33.092 -7.296,45.5c14.591,-4.133 29.187,-4.133 40.133,-12.408c62.029,-24.817 124.063,-53.771 182.442,-82.729c47.433,-24.817 91.221,-24.817 131.354,12.412c-0,4.134 7.3,4.134 10.946,4.134c51.083,33.091 105.816,45.5 156.9,8.275c54.733,-37.23 98.516,-37.23 153.25,4.137c51.083,41.363 113.112,62.046 178.787,53.771c3.65,28.954 25.542,28.954 43.788,28.954l36.487,0c21.892,0 40.138,0 62.029,-4.133c-25.541,33.087 -47.433,57.908 -69.325,86.862c-3.65,4.138 -10.95,8.271 -18.245,12.409c-18.246,8.275 -36.488,16.545 -54.734,24.82c-7.296,0 -14.591,8.271 -18.241,12.409c-10.946,16.546 -18.246,33.091 -25.542,53.771c-3.65,4.137 -3.65,12.412 -3.65,12.412c3.65,4.133 10.946,8.271 14.596,4.133c18.246,-4.133 40.137,-8.27 58.379,-20.679c80.275,-45.5 135.008,-124.091 189.737,-202.683c14.596,-16.546 3.65,-41.367 -14.595,-49.638Zm-4367.58,893.463c72.975,-16.546 105.813,-33.092 153.246,-74.454c10.946,41.362 25.542,78.591 43.788,128.225c-51.084,4.137 -91.221,8.275 -135.005,16.546c-51.083,8.275 -65.679,-24.817 -62.029,-70.317Zm-1499.65,-525.325c-72.979,-66.179 -135.008,-132.363 -186.091,-194.408c51.083,41.362 113.112,86.862 178.791,132.362c135.004,91 273.659,165.458 412.313,223.367c80.275,28.954 156.9,53.775 233.521,74.454c14.595,70.321 58.383,132.367 105.816,198.55c-105.816,-28.954 -211.629,-74.458 -313.796,-128.229c-153.25,-78.592 -295.55,-182.004 -430.554,-306.096Zm912.196,591.508c-58.383,8.271 -83.925,-20.683 -83.925,-82.729c94.871,24.817 182.442,33.092 266.363,41.363c14.595,4.137 25.541,16.545 36.487,24.82c-76.625,12.409 -145.95,12.409 -218.925,16.546Zm525.425,-49.637l0,49.637c-135.008,16.546 -229.875,4.134 -248.121,-41.366c87.571,4.137 145.954,-0 248.121,-8.271Zm353.929,-823.146c25.542,12.408 54.734,24.821 83.925,33.092c58.379,16.545 120.409,24.82 189.734,24.82c47.437,0 102.166,-4.137 160.55,-12.412c65.675,-12.408 131.354,-28.954 200.679,-49.638c-43.784,62.05 -87.571,115.821 -149.6,157.184l-3.646,-0c-138.654,-8.271 -266.363,-41.363 -379.475,-95.134c-40.138,-16.545 -72.975,-37.229 -102.167,-57.912Zm1101.93,66.183c-175.142,57.909 -339.338,86.863 -492.584,91c0,0 0,-4.137 3.646,-4.137c51.083,-57.909 109.463,-86.863 182.442,-57.909c7.296,0 14.591,0 18.241,4.138c87.571,8.271 167.846,-4.138 222.575,-86.867c58.384,-82.725 124.059,-111.679 218.93,-82.725c91.22,24.817 182.437,16.546 270.008,-37.229c3.65,8.275 7.3,12.408 10.946,16.546c-138.654,53.775 -280.954,107.546 -434.204,157.183Zm682.325,-347.458c-21.896,4.137 -43.788,12.408 -65.68,20.683c-43.787,20.684 -43.787,20.684 -47.433,-33.091c-3.65,-41.363 -7.3,-82.73 -10.95,-124.092l0,-4.138c251.767,-95.137 507.183,-165.454 740.704,-148.908c-3.646,8.271 -7.296,12.408 -14.596,20.679c-36.487,28.954 -76.62,45.5 -120.408,45.5c-18.246,-4.133 -36.487,4.138 -47.433,20.684c-40.138,49.637 -80.275,91 -135.004,119.954c-18.246,8.275 -29.192,33.091 -47.438,49.637c-3.646,4.138 -10.946,12.409 -18.242,12.409c-47.433,8.275 -58.379,20.683 -62.029,53.775c-43.787,12.408 -87.571,28.954 -131.358,45.5c3.65,-8.271 3.65,-12.409 7.3,-20.684c7.296,-33.087 -14.596,-62.046 -47.433,-57.908Zm627.587,-66.183c-102.162,8.275 -197.033,28.958 -291.9,49.637c21.892,-16.546 40.133,-37.225 62.029,-53.771c47.434,-41.366 94.867,-62.046 153.246,-33.091c3.65,4.133 7.3,4.133 10.95,4.133c69.325,16.546 135.004,12.412 182.438,-45.5c51.083,-62.046 105.816,-78.592 175.141,-49.633c69.325,28.954 145.95,28.954 218.929,-4.138c10.946,28.954 32.838,28.954 58.38,20.679c10.945,-4.133 18.241,-8.271 29.191,-12.408c18.242,8.275 40.134,12.408 58.379,20.683c-10.945,24.817 -21.891,49.638 -32.841,70.317c-3.646,8.275 -10.946,16.546 -18.242,24.821c-14.596,12.408 -32.837,24.816 -47.433,37.229c-193.388,-41.367 -375.825,-49.638 -558.267,-28.958Zm638.538,45.5c29.191,-37.225 51.083,-82.725 72.975,-128.225c145.954,53.77 255.416,111.683 350.283,165.454c-0,4.137 -3.646,4.137 -3.646,8.275c-7.3,8.271 -14.596,12.408 -21.896,16.546c-32.837,16.541 -69.325,20.679 -105.812,4.133c-14.596,-4.133 -29.192,-4.133 -43.788,8.275l-3.646,-0c-83.925,-28.954 -164.195,-53.775 -244.47,-74.458Z" style="fill:#fff;fill-rule:nonzero;"/></g><g><path d="M9988.42,6921.81c-162.475,0 -302.129,-59.192 -418.959,-177.567c-116.829,-118.379 -175.246,-259.579 -175.246,-423.604c0,-166.087 58.8,-307.804 176.405,-425.15c117.604,-117.346 259.191,-176.016 424.766,-176.016c165.571,-0 307.159,58.67 424.763,176.016c117.604,117.346 176.404,258.546 176.404,423.604c-0,168.15 -58.929,310.642 -176.792,427.471c-117.862,116.829 -261.641,175.246 -431.341,175.246Zm-0,-85.883c168.154,-0 301.745,-61.638 400.779,-184.917c80.983,-100.579 121.471,-210.962 121.471,-331.146c-0,-141.846 -50.417,-263.058 -151.259,-363.637c-100.837,-100.584 -222.179,-150.875 -364.025,-150.875c-141.846,-0 -263.191,50.421 -364.029,151.258c-100.842,100.842 -151.258,222.183 -151.258,364.029c-0,140.3 50.158,261.254 150.483,362.867c100.325,101.612 219.604,152.421 357.838,152.421Zm226.695,-209.675c-72.729,25.275 -138.491,37.912 -197.295,37.912c-97.484,0 -177.305,-31.721 -239.459,-95.166c-62.154,-63.442 -93.233,-144.938 -93.233,-244.488c0,-104.196 30.304,-187.367 90.913,-249.521c60.604,-62.154 141.458,-93.233 242.554,-93.233c48.487,-0 107.287,6.708 176.404,20.117l20.117,3.87l-0.001,95.163c-70.149,-28.883 -133.075,-43.325 -188.783,-43.325c-68.087,-0 -122.892,24.242 -164.412,72.729c-41.521,48.483 -62.284,112.442 -62.284,191.879c0,78.917 21.663,141.329 64.992,187.234c43.329,45.908 101.871,68.862 175.629,68.862c58.288,0 116.575,-15.992 174.858,-47.971l0,95.938Z" style="fill:#fff;fill-rule:nonzero;"/><path d="M12157.9,5826.77c0,0 -118.842,14.263 -156.871,321.663c-17.429,148.95 4.754,228.175 33.275,270.958c-64.967,202.821 -133.1,388.213 -133.1,388.213c-110.921,-80.813 11.092,-690.863 34.859,-803.363c1.583,-11.091 -6.338,-20.6 -15.846,-20.6c-28.521,-1.583 -53.875,9.509 -74.471,23.767c-39.617,26.937 -66.554,68.137 -77.646,114.087c-17.429,72.892 -50.704,225.009 -58.625,375.538c-44.371,231.346 -96.658,316.908 -118.842,345.433c-22.183,-68.137 -42.783,-229.762 -1.587,-617.975c4.754,-53.875 11.091,-99.825 15.846,-139.437c30.108,-25.354 57.045,-57.046 80.812,-104.584c53.875,-114.087 -15.846,-148.945 -15.846,-148.945c-26.937,-15.846 -106.162,-26.938 -152.116,85.566c-0,0 -30.104,66.55 -52.288,179.054c-167.962,90.317 -386.629,166.375 -443.675,291.555c-41.196,87.15 23.771,169.545 74.475,190.145c7.921,3.171 17.429,-3.166 15.846,-12.675c-4.754,-19.016 -4.754,-44.366 -1.588,-63.383c30.109,-122.008 277.296,-256.696 332.759,-299.479c3.167,-1.583 4.75,-3.167 6.337,-4.754c-26.937,213.916 -66.55,719.383 175.884,694.033l-3.167,0l3.167,0c15.845,-14.262 57.046,-90.321 91.904,-175.887c11.091,58.629 30.108,109.337 60.212,144.195c42.784,44.367 98.242,36.446 131.517,20.6c12.679,-6.337 22.183,-15.845 28.521,-26.937c23.771,-49.121 96.658,-209.163 164.796,-383.463c41.195,19.017 90.316,-3.166 109.333,-33.275c4.754,-4.754 -0,-12.675 -4.754,-12.675c-31.692,-1.583 -57.046,-12.675 -76.059,-30.108c50.705,-136.271 93.488,-274.125 102.996,-370.783c25.354,-229.759 -76.058,-196.484 -76.058,-196.484Zm-503.887,49.121c12.679,4.754 9.508,52.292 -15.846,87.15c-4.75,7.925 -11.092,15.846 -17.429,22.184c20.6,-104.58 33.275,-109.334 33.275,-109.334Zm423.075,399.304c-22.184,-153.7 45.954,-373.95 45.954,-373.95c42.779,15.846 7.921,185.392 -45.954,373.95Zm139.441,-329.583c0,0 -14.262,-61.796 -36.446,-90.321c0,0 41.2,0 36.446,90.321Z" style="fill:#fff;fill-rule:nonzero;"/><path d="M12327.4,6893.19c166.379,-4.754 293.141,-334.337 310.57,-381.875c1.584,-6.337 3.171,-12.675 3.171,-17.429c0,-17.433 -6.337,-34.863 -14.262,-47.538c-4.754,-7.925 -17.429,-6.337 -20.6,1.584c-106.163,278.879 -250.358,408.812 -274.125,391.383c-30.108,-22.183 34.858,-272.542 110.917,-469.025c3.17,-6.337 4.754,-14.262 4.754,-20.6c6.337,-66.55 -41.196,-102.996 -91.904,-112.504c-15.846,-1.583 -30.105,6.342 -36.442,22.187c-109.333,278.88 -114.088,424.659 -114.088,424.659c-20.6,218.666 122.009,209.158 122.009,209.158Zm98.241,-551.421c0,33.275 -15.845,39.613 -15.845,39.613c-0,-0 7.925,-55.459 -4.755,-80.813c0,0 22.184,9.509 20.6,41.2Zm-19.012,-122.012c44.367,33.275 76.058,-14.259 88.733,-39.613c4.754,-9.508 7.921,-20.6 6.338,-31.691c-7.921,-52.288 -49.121,-69.721 -74.475,-74.471c-9.504,-1.588 -20.596,3.166 -23.767,14.258c-39.613,96.658 3.171,131.517 3.171,131.517Zm72.887,-91.904c0,-0 22.184,28.525 -6.337,60.212c-0,0 9.508,-52.287 6.337,-60.212Z" style="fill:#fff;fill-rule:nonzero;"/><path d="M12633.2,6896.36c7.925,-0 15.846,-7.925 15.846,-17.434c1.583,-23.766 6.337,-52.287 9.508,-82.395c109.334,-348.6 282.05,-505.471 307.4,-500.717c42.784,7.925 -63.379,190.146 -63.379,190.146c-87.15,145.779 -87.15,263.037 -87.15,263.037c-3.171,148.946 102.996,144.192 102.996,144.192c166.375,-4.754 331.171,-329.588 356.521,-381.875c3.171,-6.338 4.754,-12.675 4.754,-19.017c-0,-19.012 -7.921,-36.441 -15.846,-47.533c-4.754,-7.925 -14.258,-6.342 -19.012,1.583c-128.35,275.713 -297.896,408.813 -321.663,391.384c-31.692,-20.6 53.871,-204.409 133.1,-329.588c85.567,-136.271 66.55,-247.187 -12.675,-278.879c-102.996,-42.783 -220.254,117.258 -220.254,117.258c-33.275,41.196 -63.379,88.734 -88.733,128.346c14.262,-38.029 28.52,-77.642 45.95,-123.596c3.17,-4.75 4.754,-11.091 4.754,-17.429c7.925,-71.304 -38.029,-117.254 -88.734,-129.933c-12.675,-3.167 -25.354,3.171 -31.691,15.846c-53.875,133.104 -85.567,250.358 -104.579,332.754c-20.6,82.4 -34.863,207.579 -34.863,266.204c7.925,49.121 61.8,77.646 107.75,77.646Zm446.842,-537.163c-0,0 -7.921,-60.212 -20.596,-77.641c-0,-0 44.367,20.595 20.596,77.641Zm-331.167,-7.925c0,0 -1.587,-45.95 -7.925,-71.304c0,0 33.275,22.183 7.925,71.304Z" style="fill:#fff;fill-rule:nonzero;"/><path d="M13309.8,6124.69c-95.075,359.692 -109.337,557.758 -109.337,557.758c-17.429,218.667 122.012,210.746 122.012,210.746c158.454,3.171 285.217,-313.741 313.742,-377.121c4.75,-12.679 6.337,-26.937 3.167,-39.616c-1.584,-12.675 -7.921,-23.767 -12.675,-33.275c-4.755,-6.338 -15.846,-6.338 -19.017,1.587c-123.592,305.817 -250.358,421.488 -282.05,392.967c-47.533,-42.783 77.646,-500.717 144.196,-732.063c110.916,0 139.441,38.03 145.779,58.63c3.167,6.337 9.508,7.925 14.258,3.17c22.184,-23.77 66.554,-80.812 -4.75,-115.675c-26.937,-14.258 -82.4,-12.675 -137.858,-9.504c7.925,-26.937 14.263,-47.537 17.429,-58.629c3.171,-6.337 3.171,-14.262 1.588,-22.183c-9.509,-60.213 -82.396,-76.059 -112.505,-79.229c-7.92,-0 -14.262,3.17 -15.845,11.091c-19.013,58.629 -34.859,114.088 -50.705,166.379c-91.904,9.509 -145.779,3.167 -180.637,-11.091c-22.183,-9.509 -34.863,-28.521 -41.2,-42.784c-1.583,-6.337 -11.092,-6.337 -14.262,-1.583c-14.259,20.596 -36.442,58.625 -22.184,88.733c19.017,42.784 57.046,61.796 240.854,31.692Zm167.959,-125.179c-0,-0 -3.167,-39.613 -12.675,-60.213c-0,0 34.862,17.43 12.675,60.213Z" style="fill:#fff;fill-rule:nonzero;"/><path d="M13712.3,6891.61c247.188,23.766 399.305,-347.017 411.98,-378.709c-0,-1.583 1.587,-3.166 1.587,-4.754c6.338,-25.35 0,-50.704 -7.925,-64.966c-1.583,-6.338 -11.092,-6.338 -14.262,-0c-33.275,76.058 -185.392,399.308 -372.367,388.216c-82.396,-9.508 -76.058,-109.333 -57.042,-190.146c64.963,-4.754 209.159,-34.862 264.617,-202.825c74.475,-229.758 -69.721,-231.341 -69.721,-231.341c-175.883,-1.584 -278.879,245.604 -278.879,245.604c-0,-0 -198.067,405.646 122.012,438.921Zm114.084,-640.159c7.925,-6.337 23.771,-9.508 34.862,-4.754c0,0 -38.029,17.429 -53.875,50.709c0,-0 0,-30.109 19.013,-45.955Zm-114.084,277.296c0,0 106.163,-266.204 166.375,-263.033c0,-0 41.2,17.429 -12.675,171.129c-42.783,115.671 -131.516,145.779 -175.887,153.7c11.091,-36.442 22.187,-61.796 22.187,-61.796Z" style="fill:#fff;fill-rule:nonzero;"/><path d="M14127.5,6896.36c7.921,-0 15.846,-6.342 15.846,-15.846c1.584,-25.354 6.338,-53.875 9.504,-83.983c109.338,-347.013 282.05,-503.884 307.405,-500.717c-0.001,-0 -188.563,248.775 -74.476,318.496c142.609,66.55 269.376,-95.075 269.376,-95.075c12.675,-20.596 19.012,-49.121 15.845,-72.888c0,-6.337 -9.508,-7.925 -12.679,-3.171c-49.121,71.305 -133.1,128.35 -217.083,136.271c-11.092,0 -15.842,-12.675 -7.921,-19.012c123.596,-107.75 177.471,-286.804 104.579,-331.171c-95.071,-57.042 -220.25,117.258 -220.25,117.258c-33.275,42.779 -63.383,88.734 -88.737,129.929c14.262,-39.612 28.525,-79.225 45.954,-123.591c3.167,-6.338 4.754,-12.679 4.754,-19.017c7.921,-69.721 -38.029,-117.254 -88.737,-129.933c-12.675,-3.167 -25.35,4.754 -31.688,15.846c-53.875,134.687 -85.567,250.358 -104.583,334.341c-20.596,82.396 -34.859,205.992 -34.859,264.617c7.921,49.121 61.796,77.646 107.75,77.646Zm408.813,-543.5c-0,-0 6.337,-42.784 -6.338,-77.646c0,-0 42.784,26.937 6.338,77.646Zm-297.896,-1.588c0,0 0,-47.533 -4.754,-71.304c-0,0 31.692,23.771 4.754,71.304Z" style="fill:#fff;fill-rule:nonzero;"/><path d="M16041.6,5826.77c0,0 -118.842,14.263 -156.871,321.663c-17.433,148.95 4.754,228.175 33.275,270.958c-64.967,202.821 -133.104,388.213 -133.104,388.213c-110.917,-80.813 11.092,-690.863 34.862,-803.363c1.584,-11.091 -6.337,-20.6 -15.845,-20.6c-28.521,-1.583 -53.875,9.509 -74.475,23.767c-39.613,26.937 -66.55,68.137 -77.642,114.087c-17.429,72.892 -50.704,225.009 -58.629,375.538c-44.367,231.346 -96.658,316.908 -118.842,345.433c-22.183,-68.137 -42.783,-229.762 -1.583,-617.975c4.754,-53.875 11.092,-99.825 15.846,-139.437c30.104,-25.354 57.041,-57.046 80.812,-104.584c53.875,-114.087 -15.846,-148.945 -15.846,-148.945c-26.937,-15.846 -106.166,-26.938 -152.116,85.566c-0,0 -30.109,66.55 -52.292,179.054c-167.962,90.317 -386.629,166.375 -443.671,291.555c-41.2,87.15 23.767,169.545 74.471,190.145c7.925,3.171 17.433,-3.166 15.846,-12.675c-4.754,-19.016 -4.754,-44.366 -1.583,-63.383c30.108,-122.008 277.295,-256.696 332.754,-299.479c3.171,-1.583 4.754,-3.167 6.337,-4.754c-26.937,213.916 -66.55,719.383 175.888,694.033l-3.171,0l3.171,0c15.846,-14.262 57.041,-90.321 91.904,-175.887c11.092,58.629 30.104,109.337 60.212,144.195c42.78,44.367 98.242,36.446 131.517,20.6c12.675,-6.337 22.183,-15.845 28.521,-26.937c23.766,-49.121 96.658,-209.163 164.792,-383.463c41.2,19.017 90.32,-3.166 109.333,-33.275c4.754,-4.754 -0,-12.675 -4.75,-12.675c-31.692,-1.583 -57.046,-12.675 -76.058,-30.108c50.704,-136.271 93.487,-274.125 102.991,-370.783c25.354,-229.759 -76.054,-196.484 -76.054,-196.484Zm-503.887,49.121c12.675,4.754 9.508,52.292 -15.846,87.15c-4.754,7.925 -11.092,15.846 -17.429,22.184c20.6,-104.58 33.275,-109.334 33.275,-109.334Zm423.075,399.304c-22.184,-153.7 45.95,-373.95 45.95,-373.95c42.783,15.846 7.925,185.392 -45.95,373.95Zm139.437,-329.583c0,0 -14.258,-61.796 -36.442,-90.321c0,0 41.196,0 36.442,90.321Z" style="fill:#fff;fill-rule:nonzero;"/><path d="M16290.4,6893.19c125.179,-4.754 194.9,-102.996 232.929,-204.408c114.088,-47.534 194.9,-142.609 223.421,-185.392c12.675,-19.012 14.263,-42.779 6.338,-60.212c-3.167,-6.338 -12.675,-6.338 -17.43,-1.584c-61.795,82.396 -128.35,141.025 -190.145,177.471c19.016,-80.812 22.183,-148.95 22.183,-148.95c-0,0 19.017,-256.696 -155.283,-256.696c-0,0 -136.271,-4.754 -205.992,175.884c-44.367,42.783 -93.488,114.087 -114.088,226.591c0,0 -50.704,285.217 198.067,277.296Zm232.929,-572.021c0,0 -33.275,-42.783 -55.458,-61.796c-0,0 50.704,7.921 55.458,61.796Zm-215.5,183.809c25.354,-177.471 104.584,-215.5 104.584,-215.5c95.07,-4.755 85.562,199.654 85.562,199.654c-4.754,64.966 -14.258,118.841 -28.521,161.621c-36.446,11.095 -68.133,12.679 -95.071,4.754c-80.812,-22.184 -66.554,-150.529 -66.554,-150.529Zm-77.641,158.454c26.937,26.937 66.55,45.95 126.762,52.287c30.108,3.171 60.217,1.588 88.738,-3.166c-60.213,129.933 -152.117,137.854 -152.117,137.854c-71.304,4.754 -71.304,-110.917 -63.383,-186.975Z" style="fill:#fff;fill-rule:nonzero;"/><path d="M16762.6,6896.36c7.921,-0 15.846,-7.925 15.846,-17.434c1.584,-23.766 6.338,-52.287 9.508,-82.395c109.334,-348.6 282.046,-505.471 307.4,-500.717c42.784,7.925 -63.383,190.146 -63.383,190.146c-87.15,145.779 -87.15,263.037 -87.15,263.037c-3.166,148.946 102.996,144.192 102.996,144.192c166.379,-4.754 331.171,-329.588 356.525,-381.875c3.167,-6.338 4.754,-12.675 4.754,-19.017c0,-19.012 -7.925,-36.441 -15.846,-47.533c-4.754,-7.925 -14.262,-6.342 -19.016,1.583c-128.346,275.713 -297.892,408.813 -321.663,391.384c-31.692,-20.6 53.875,-204.409 133.104,-329.588c85.563,-136.271 66.55,-247.187 -12.679,-278.879c-102.996,-42.783 -220.25,117.258 -220.25,117.258c-33.275,41.196 -63.383,88.734 -88.733,128.346c14.258,-38.029 28.521,-77.642 45.95,-123.596c3.171,-4.75 4.754,-11.091 4.754,-17.429c7.921,-71.304 -38.029,-117.254 -88.733,-129.933c-12.679,-3.167 -25.354,3.171 -31.692,15.846c-53.875,133.104 -85.567,250.358 -104.579,332.754c-20.6,82.4 -34.863,207.579 -34.863,266.204c7.925,49.121 61.8,77.646 107.75,77.646Zm446.842,-537.163c0,0 -7.921,-60.212 -20.6,-77.641c-0,-0 44.367,20.595 20.6,77.641Zm-331.171,-7.925c0,0 -1.583,-45.95 -7.921,-71.304c0,0 33.275,22.183 7.921,71.304Z" style="fill:#fff;fill-rule:nonzero;"/><path d="M17418.6,6883.69c95.071,14.263 167.959,-74.471 212.33,-153.7c1.583,172.717 123.591,163.208 123.591,163.208c166.379,-4.754 310.571,-313.741 337.509,-377.12c6.337,-12.68 7.925,-25.355 4.754,-39.617c-3.167,-12.675 -7.921,-23.767 -12.675,-31.688c-4.754,-7.925 -15.846,-7.925 -19.017,0c-114.088,277.296 -267.788,399.305 -305.817,394.55c-28.521,-3.166 11.092,-207.575 58.629,-372.366c158.455,-106.167 220.25,-283.634 220.25,-283.634c112.505,-308.987 -60.212,-310.57 -60.212,-310.57c-106.163,-4.755 -205.992,256.695 -255.113,413.566c-15.841,-33.279 -41.195,-55.462 -82.395,-57.046c-158.455,-6.337 -277.296,229.759 -277.296,229.759c-109.334,218.666 -83.979,405.646 55.462,424.658Zm598.959,-964.987c-0,-0 -39.617,26.937 -53.875,66.55c-0,-0 -7.925,-69.721 53.875,-66.55Zm-4.754,45.95c-0,-0 19.012,85.566 -25.355,204.408c-23.766,64.967 -69.72,148.946 -145.779,220.25c38.029,-123.592 126.767,-397.721 171.133,-424.658Zm-532.408,573.608c0,-0 118.842,-256.696 179.054,-250.358c45.95,3.166 23.767,126.762 11.092,185.391c-3.171,9.509 -4.754,19.013 -7.925,26.938l-0,1.583c-1.583,7.925 -3.167,14.263 -4.754,22.183c-12.675,33.275 -120.425,310.571 -225.004,313.742c-0,0 -77.642,-25.354 47.537,-299.479Z" style="fill:#fff;fill-rule:nonzero;"/><path d="M18164.9,6891.61c247.187,23.766 399.304,-347.017 411.979,-378.709c-0,-1.583 1.587,-3.166 1.587,-4.754c6.338,-25.35 0,-50.704 -7.925,-64.966c-1.583,-6.338 -11.091,-6.338 -14.258,-0c-33.279,76.058 -185.396,399.308 -372.371,388.216c-82.396,-9.508 -76.058,-109.333 -57.041,-190.146c64.966,-4.754 209.158,-34.862 264.616,-202.825c74.475,-229.758 -69.721,-231.341 -69.721,-231.341c-175.883,-1.584 -278.879,245.604 -278.879,245.604c0,-0 -198.066,405.646 122.013,438.921Zm114.087,-640.159c7.921,-6.337 23.767,-9.508 34.859,-4.754c-0,0 -38.03,17.429 -53.875,50.709c-0,-0 -0,-30.109 19.016,-45.955Zm-114.087,277.296c-0,0 106.162,-266.204 166.375,-263.033c-0,-0 41.2,17.429 -12.675,171.129c-42.784,115.671 -131.517,145.779 -175.884,153.7c11.092,-36.442 22.184,-61.796 22.184,-61.796Z" style="fill:#fff;fill-rule:nonzero;"/><path d="M18580,6896.36c7.921,-0 15.845,-6.342 15.845,-15.846c1.584,-25.354 6.338,-53.875 9.509,-83.983c109.333,-347.013 282.046,-503.884 307.4,-500.717c-0,-0 -188.563,248.775 -74.475,318.496c142.612,66.55 269.375,-95.075 269.375,-95.075c12.675,-20.596 19.012,-49.121 15.846,-72.888c-0,-6.337 -9.509,-7.925 -12.68,-3.171c-49.12,71.305 -133.1,128.35 -217.079,136.271c-11.091,0 -15.846,-12.675 -7.925,-19.012c123.596,-107.75 177.471,-286.804 104.579,-331.171c-95.07,-57.042 -220.25,117.258 -220.25,117.258c-33.275,42.779 -63.383,88.734 -88.733,129.929c14.258,-39.612 28.521,-79.225 45.95,-123.591c3.171,-6.338 4.754,-12.679 4.754,-19.017c7.921,-69.721 -38.029,-117.254 -88.733,-129.933c-12.679,-3.167 -25.354,4.754 -31.692,15.846c-53.875,134.687 -85.566,250.358 -104.579,334.341c-20.6,82.396 -34.862,205.992 -34.862,264.617c7.925,49.121 61.795,77.646 107.75,77.646Zm408.812,-543.5c0,-0 6.338,-42.784 -6.337,-77.646c-0,-0 42.783,26.937 6.337,77.646Zm-297.896,-1.588c0,0 0,-47.533 -4.754,-71.304c0,0 31.692,23.771 4.754,71.304Z" style="fill:#fff;fill-rule:nonzero;"/><path d="M20099.6,5904.44c144.196,36.446 383.463,161.625 524.488,212.329c142.608,50.709 364.441,71.304 429.408,-72.887c41.2,-88.734 11.092,-144.196 -11.092,-169.546c-4.754,-6.338 -15.846,-3.171 -17.429,4.754c-26.938,117.254 -191.729,139.438 -191.729,139.438c-242.438,33.275 -508.642,-137.855 -733.646,-172.713c-61.796,-9.508 -115.671,0 -161.625,17.429c-38.029,-41.2 -98.242,-36.446 -98.242,-36.446c0,0 -294.725,6.338 -456.346,486.455c0,-0 -161.625,508.641 183.805,575.191c329.587,63.384 467.441,-391.383 467.441,-391.383c0,-0 11.092,-33.275 -14.258,-57.042c-4.754,-3.171 -11.092,-1.587 -12.679,3.167c-25.35,68.137 -167.963,427.829 -411.979,388.217c-0,-0 -196.488,-82.396 -57.046,-507.055c-0,0 41.2,-120.429 102.996,-237.683c61.796,-117.258 144.191,-228.175 220.25,-220.254c-0,-0 15.846,1.587 26.937,22.183c-68.133,39.617 -104.579,93.492 -104.579,93.492c-136.271,193.312 -15.846,225.004 -15.846,225.004c49.121,14.263 96.659,-19.017 126.767,-55.458c49.121,-58.629 66.55,-142.609 66.55,-142.609c9.508,-44.37 7.921,-77.645 -0,-102.995c39.612,-12.68 83.979,-14.263 137.854,-1.588Zm942.804,28.525c0,0 28.525,76.058 -28.521,106.163c0,-0 34.863,-72.888 28.521,-106.163Zm-1155.13,68.133c-0,0 -11.092,33.275 -26.938,71.305c-22.183,50.708 -55.458,107.75 -82.395,91.904c-42.784,-25.354 42.783,-148.946 42.783,-148.946c17.429,-25.354 42.783,-53.875 76.058,-77.646c0,17.433 -3.171,38.029 -9.508,63.383Z" style="fill:#fff;fill-rule:nonzero;"/><path d="M20058.4,6893.19c166.375,3.171 310.571,-313.742 337.508,-377.121c6.338,-12.679 7.921,-26.937 4.75,-39.616c-3.167,-12.675 -7.921,-23.767 -14.258,-33.275c-3.171,-6.338 -14.263,-6.338 -17.429,1.587c-114.088,275.708 -267.792,399.304 -305.821,392.967c-31.688,-4.754 -30.104,-133.104 31.691,-354.938c179.055,-102.996 247.192,-299.479 247.192,-299.479c110.917,-308.987 -60.212,-310.571 -60.212,-310.571c-174.3,-4.754 -310.571,527.65 -310.571,527.65c-0,0 -144.196,489.625 87.15,492.796Zm256.696,-971.325c-0,0 -39.617,26.938 -53.875,66.55c-0,0 -6.338,-68.137 53.875,-66.55Zm1.583,41.196c-0,-0 19.017,87.15 -25.354,205.992c-26.938,72.887 -80.809,169.545 -172.713,244.02c36.442,-107.75 150.529,-419.904 198.067,-450.012Z" style="fill:#fff;fill-rule:nonzero;"/><path d="M20416.5,6883.69c95.075,14.263 167.962,-74.471 212.329,-153.7c1.587,172.717 123.596,163.208 123.596,163.208c166.379,-4.754 293.141,-334.337 310.57,-381.875c1.584,-6.337 3.171,-12.675 3.171,-17.429c0,-17.433 -6.337,-34.862 -12.679,-47.537c-4.75,-7.925 -17.429,-6.338 -22.183,1.583c-106.163,278.879 -250.358,408.813 -274.125,391.383c-30.108,-22.183 28.521,-294.725 104.579,-491.208c3.171,-7.925 4.754,-15.846 6.338,-23.767c4.754,-64.966 -33.275,-106.166 -79.225,-118.841c-17.43,-4.754 -34.863,4.754 -41.2,20.596c-9.509,22.187 -17.43,44.37 -25.35,64.966c-14.263,-34.858 -41.2,-60.212 -83.984,-61.796c-158.454,-6.337 -277.296,229.759 -277.296,229.759c-109.333,218.666 -83.979,405.646 55.459,424.658Zm416.737,-538.746c0,0 -4.754,-63.379 -14.262,-83.979c-0,0 47.537,26.938 14.262,83.979Zm-354.937,193.317c-0,-0 118.841,-256.696 179.054,-250.358c45.95,3.166 23.766,128.345 9.504,185.391c-1.583,9.509 -3.167,19.013 -6.338,26.938l0,1.583c-1.583,7.925 -3.166,14.263 -4.754,22.183c-12.675,33.275 -120.425,310.571 -225.004,313.742c0,0 -77.642,-25.354 47.538,-299.479Z" style="fill:#fff;fill-rule:nonzero;"/><path d="M21067.8,6896.36c7.921,-0 15.846,-7.925 15.846,-17.434c1.583,-23.766 6.337,-52.287 9.508,-82.395c109.333,-348.6 282.05,-505.471 307.4,-500.717c42.783,7.925 -63.379,190.146 -63.379,190.146c-87.15,145.779 -87.15,263.037 -87.15,263.037c-3.171,148.946 102.991,144.192 102.991,144.192c166.379,-4.754 331.171,-329.588 356.525,-381.875c3.171,-6.338 4.754,-12.675 4.754,-19.017c0,-19.012 -7.925,-36.441 -15.845,-47.533c-4.755,-7.925 -14.263,-6.342 -19.017,1.583c-128.346,275.713 -297.892,408.813 -321.663,391.384c-31.691,-20.6 53.875,-204.409 133.105,-329.588c85.562,-136.271 66.55,-247.187 -12.68,-278.879c-102.991,-42.783 -220.25,117.258 -220.25,117.258c-33.275,41.196 -63.383,88.734 -88.733,128.346c14.258,-38.029 28.521,-77.642 45.95,-123.596c3.171,-4.75 4.754,-11.091 4.754,-17.429c7.921,-71.304 -38.029,-117.254 -88.733,-129.933c-12.679,-3.167 -25.354,3.171 -31.692,15.846c-53.875,133.104 -85.566,250.358 -104.579,332.754c-20.6,82.4 -34.862,207.579 -34.862,266.204c7.925,49.121 61.8,77.646 107.75,77.646Zm446.841,-537.163c0,0 -7.921,-60.212 -20.6,-77.641c0,-0 44.367,20.595 20.6,77.641Zm-331.171,-7.925c0,0 -1.583,-45.95 -7.92,-71.304c-0,0 33.275,22.183 7.92,71.304Z" style="fill:#fff;fill-rule:nonzero;"/><path d="M22253,6587.36c28.52,-38.029 53.875,-77.642 79.225,-117.259c98.241,-153.7 144.196,-299.479 144.196,-299.479c19.012,-52.287 26.937,-96.654 31.691,-133.1c7.921,-57.046 0,-98.241 -3.171,-112.504c-28.521,-117.254 -148.946,-102.996 -148.946,-102.996c-34.862,1.584 -66.554,11.092 -93.487,28.521c-68.138,41.2 -95.075,104.583 -95.075,104.583c-7.921,17.43 -11.092,31.688 -12.675,44.367c-1.588,11.092 -0,19.013 3.167,25.35c4.754,6.342 9.508,9.508 17.433,9.508c4.75,1.588 11.092,-1.583 17.429,-7.92c15.846,-19.017 52.288,-71.305 52.288,-71.305c-0,0 44.366,-68.137 118.841,-58.629c0,0 82.396,11.092 58.629,126.763c-4.754,17.429 -9.508,38.029 -19.016,61.8c-30.104,83.979 -79.225,164.791 -115.671,218.666c-33.275,52.288 -107.75,164.792 -164.792,242.434c0,-0 -101.412,129.933 -175.883,202.825c-3.171,4.75 -12.679,15.841 -17.433,26.933c-11.092,25.354 -26.938,80.813 11.091,99.829c3.171,1.584 9.509,3.167 17.434,4.754c-0,0 106.162,14.259 228.175,1.584c23.766,-3.171 42.779,-3.171 53.87,-6.338c44.371,-9.508 44.371,-31.691 44.371,-31.691c1.584,-11.092 -12.679,-19.013 -36.446,-25.355c-88.733,-22.183 -191.729,-9.504 -191.729,-9.504c95.071,-85.566 196.484,-221.837 196.484,-221.837Zm234.512,-603.713c0,0 -23.766,-80.812 -53.875,-114.087c0,-0 60.213,14.262 53.875,114.087Z" style="fill:#fff;fill-rule:nonzero;"/><path d="M22905.9,5825.19c-82.396,-11.092 -139.442,28.521 -153.7,41.196c0,-0 -69.721,45.954 -142.612,231.346c-9.505,26.937 -19.013,55.458 -26.938,83.979c-17.429,55.458 -31.687,112.504 -44.367,167.962c-12.675,55.459 -23.766,110.921 -31.691,161.625c-0,0 -60.213,283.634 80.812,366.03c9.508,3.17 39.617,11.091 80.813,7.925c104.579,-9.509 172.716,-88.738 172.716,-88.738c95.071,-104.579 156.871,-294.725 156.871,-294.725c101.409,-289.971 72.888,-465.854 72.888,-465.854c-23.767,-201.238 -164.792,-210.746 -164.792,-210.746Zm30.104,289.971c-3.166,26.937 -6.337,53.875 -9.504,80.812c-4.754,28.521 -11.092,57.042 -17.433,85.567c-6.338,28.521 -12.675,58.625 -20.596,88.733c-12.679,57.042 -26.938,110.917 -42.783,160.038c-0,-0 -31.692,85.567 -69.721,150.533l1.583,0c0,0 -99.825,175.884 -164.792,136.271c-60.212,-28.521 -39.612,-217.083 -39.612,-217.083c3.167,-42.784 9.504,-87.15 19.012,-134.688c7.925,-45.95 19.017,-95.071 30.109,-142.608c83.979,-367.613 196.483,-445.258 196.483,-445.258c17.429,-7.921 74.471,-25.35 107.75,106.166c0,0 9.504,41.196 9.504,74.475c1.588,17.429 0,36.442 0,57.042Zm15.846,-237.683c0,-0 58.629,1.587 66.55,88.737c0,0 -34.858,-66.554 -66.55,-88.737Z" style="fill:#fff;fill-rule:nonzero;"/><path d="M23335.3,6587.36c28.521,-38.029 53.875,-77.642 79.225,-117.259c98.241,-153.7 144.196,-299.479 144.196,-299.479c19.012,-52.287 26.937,-96.654 31.691,-133.1c7.921,-57.046 0,-98.241 -3.171,-112.504c-28.521,-117.254 -148.946,-102.996 -148.946,-102.996c-34.862,1.584 -66.554,11.092 -93.491,28.521c-68.133,41.2 -95.071,104.583 -95.071,104.583c-7.925,17.43 -11.092,31.688 -12.675,44.367c-1.588,11.092 -0,19.013 3.167,25.35c4.754,6.342 9.508,9.508 17.429,9.508c4.754,1.588 11.091,-1.583 17.433,-7.92c15.846,-19.017 52.288,-71.305 52.288,-71.305c-0,0 44.366,-68.137 118.841,-58.629c0,0 82.396,11.092 58.629,126.763c-4.754,17.429 -9.508,38.029 -19.016,61.8c-30.104,83.979 -79.225,164.791 -115.671,218.666c-33.275,52.288 -107.75,164.792 -164.792,242.434c0,-0 -101.412,129.933 -175.887,202.825c-3.167,4.75 -12.675,15.841 -17.429,26.933c-11.092,25.354 -26.938,80.813 11.091,99.829c3.171,1.584 9.509,3.167 17.434,4.754c-0,0 106.162,14.259 228.17,1.584c23.771,-3.171 42.784,-3.171 53.875,-6.338c44.367,-9.508 44.367,-31.691 44.367,-31.691c1.588,-11.092 -12.675,-19.013 -36.442,-25.355c-88.737,-22.183 -191.729,-9.504 -191.729,-9.504c95.071,-85.566 196.484,-221.837 196.484,-221.837Zm234.512,-603.713c0,0 -23.771,-80.812 -53.875,-114.087c0,-0 60.213,14.262 53.875,114.087Z" style="fill:#fff;fill-rule:nonzero;"/><path d="M23880.4,5828.36c-49.121,28.525 -134.687,106.166 -134.687,106.166c-23.767,19.013 -23.767,36.446 -3.171,57.042c14.262,12.679 34.862,-1.583 34.862,-1.583c12.675,-6.338 30.104,-20.6 47.538,-34.859c-63.384,204.405 -144.196,595.788 -169.55,708.292c-34.859,150.529 -41.196,215.496 28.525,215.496c47.533,-0 82.395,-123.592 82.395,-123.592c66.55,-198.071 169.546,-717.8 172.717,-842.979c3.167,-128.35 -58.629,-83.983 -58.629,-83.983Zm26.938,145.779c-0,-0 6.337,-80.813 -4.755,-118.842c0,0 34.859,19.017 4.755,118.842Z" style="fill:#fff;fill-rule:nonzero;"/></g></g></svg>