<?xml version="1.0" encoding="UTF-8" standalone="no"?><!DOCTYPE svg PUBLIC "-//W3C//DTD SVG 1.1//EN" "http://www.w3.org/Graphics/SVG/1.1/DTD/svg11.dtd"><svg width="100%" height="100%" viewBox="0 0 3891 343" version="1.1" xmlns="http://www.w3.org/2000/svg" xmlns:xlink="http://www.w3.org/1999/xlink" xml:space="preserve" xmlns:serif="http://www.serif.com/" style="fill-rule:evenodd;clip-rule:evenodd;stroke-linejoin:round;stroke-miterlimit:2;"><g><path d="M343.62,2.082c-0,-1.891 -2.616,-2.647 -3.737,-1.135c-40.724,40.082 -171.488,12.478 -219.311,2.647c0,0 -99.381,-26.469 -118.435,74.491c-11.956,61.635 29.141,84.701 51.932,85.835c22.043,1.135 27.274,-10.965 27.274,-19.662c-0,-4.16 -1.495,-7.563 -2.616,-10.21c-0.747,-1.134 -2.989,-1.134 -3.362,0.378c-3.363,9.454 -9.714,11.722 -9.714,11.722c-4.484,1.891 -11.956,2.647 -17.56,1.135c-47.449,-14.369 -34.746,-68.063 -34.746,-68.063c18.307,-82.432 110.963,-53.316 110.963,-53.316c7.472,2.647 14.945,4.537 22.043,6.806c-14.571,32.897 -29.515,91.885 -35.119,120.623c-0,-0 -11.209,47.266 -3.736,76.382c3.736,13.612 11.208,23.444 24.284,25.712c1.869,0.379 3.363,-1.89 2.242,-3.781c-5.23,-7.941 -7.472,-29.116 10.088,-93.019c12.329,-44.619 29.889,-98.314 29.889,-98.314c2.989,-11.722 -2.989,-18.906 -10.088,-22.687c66.877,17.772 103.491,20.04 103.491,20.04c76.591,6.429 78.086,-39.703 76.218,-55.584Zm-5.978,11.343c-0,0 1.494,19.285 -13.45,22.31c-0,0 10.087,-10.588 13.45,-22.31Z" style="fill:#fefffd;fill-rule:nonzero;"/><path d="M194.548,255.427l0.747,0c4.483,-0.378 7.846,-3.781 8.593,-7.94c0.747,-4.16 1.868,-9.832 3.362,-17.016c25.78,-83.566 71.361,-124.026 73.229,-118.354c1.868,5.672 -13.077,40.081 -13.077,40.081c-15.691,38.57 -17.186,64.282 -17.186,64.282c-2.989,43.863 29.889,38.191 29.889,38.191c39.603,-1.134 69.492,-80.541 73.228,-91.507c0.374,-1.134 0.748,-2.269 0.748,-3.403c0.373,-4.916 -1.868,-9.453 -3.736,-12.478c-0.748,-1.513 -2.989,-1.135 -3.737,0.378c-25.032,67.307 -59.404,98.313 -65.382,94.154c-7.099,-5.294 13.824,-62.391 20.549,-79.029c13.45,-32.141 15.692,-58.61 -2.989,-66.55c-24.659,-9.832 -51.932,27.981 -51.932,27.981c-10.088,12.856 -19.055,27.603 -25.033,38.191c1.495,-7.563 3.363,-15.503 5.231,-23.444c1.494,-7.563 3.363,-14.747 4.857,-21.553c19.428,-12.857 40.724,-38.569 46.328,-74.492c2.989,-17.772 1.121,-27.981 -2.242,-33.653c-4.483,-7.941 -11.582,-7.562 -11.582,-7.562c-4.109,-0 -7.845,1.512 -11.955,4.159c-41.845,27.225 -70.613,183.77 -77.712,226.877c-2.242,12.1 7.472,23.444 19.802,22.687Zm110.216,-125.16c-0,0 -2.242,-18.906 -5.231,-24.578c0,-0 10.835,7.184 5.231,24.578Zm-40.351,-116.842c0,0 5.231,0.379 1.121,26.091c-2.989,18.15 -13.823,43.863 -29.515,60.123c11.955,-51.804 20.922,-86.214 28.394,-86.214Z" style="fill:#fefffd;fill-rule:nonzero;"/><path d="M356.696,254.671c39.229,-1.134 69.119,-79.785 73.228,-91.129c0.374,-1.512 0.748,-3.025 0.748,-4.159c-0,-4.159 -1.495,-8.319 -3.363,-11.344c-1.121,-1.891 -4.11,-1.512 -4.857,0.378c-25.032,66.551 -59.031,97.557 -64.635,93.398c-7.099,-5.294 8.219,-65.038 26.153,-111.926c0.747,-1.513 1.121,-3.403 1.121,-4.916c1.494,-15.881 -9.714,-24.578 -21.67,-26.847c-3.736,-0.378 -7.099,1.513 -8.593,5.294c-25.779,66.551 -26.9,101.338 -26.9,101.338c-4.857,52.182 28.768,49.913 28.768,49.913Zm23.164,-131.588c0,7.94 -3.736,9.453 -3.736,9.453c-0,-0 1.868,-13.235 -1.121,-19.285c0,0 5.231,2.269 4.857,9.832Zm-4.483,-29.116c10.461,7.94 17.933,-3.403 20.922,-9.453c1.121,-2.269 1.868,-4.916 1.495,-7.563c-1.869,-12.478 -11.583,-16.638 -17.56,-17.772c-2.242,-0.378 -4.857,0.756 -5.605,3.403c-9.34,23.066 0.748,31.385 0.748,31.385Zm17.186,-21.932c-0,0 5.231,6.807 -1.495,14.369c0,0 2.242,-12.478 1.495,-14.369Z" style="fill:#fefffd;fill-rule:nonzero;"/><path d="M398.167,252.024c-0.373,20.041 24.285,38.569 50.438,20.041c22.79,-15.503 17.933,-62.769 12.703,-91.885c16.439,-10.966 33.999,-17.394 40.724,-20.041c4.11,-1.512 7.098,-4.915 8.219,-9.075c0,-0.756 0,-1.891 0.374,-3.025c-0,-1.512 -1.495,-3.025 -3.363,-2.269c-19.428,6.05 -35.493,13.235 -48.943,21.175c-0.374,-2.268 -0.747,-3.781 -0.747,-5.293c-1.868,-7.185 -2.989,-13.613 -3.736,-18.907c19.428,-12.1 30.636,-29.494 26.153,-41.972c-5.605,-15.503 -27.274,-8.319 -27.274,-8.319c-0,0 -31.384,8.319 -35.12,36.679c0,-0 -3.362,28.359 10.461,60.878c-31.01,31.007 -29.889,62.013 -29.889,62.013Zm76.217,-139.151c0,0 -1.494,-9.453 -5.23,-13.991c-0,0 9.714,1.891 5.23,13.991Zm-16.439,-7.184c0,-0 6.352,-1.135 6.725,6.05c0,4.537 -0.747,7.562 -12.329,18.528c-1.494,-24.2 5.604,-24.578 5.604,-24.578Zm-25.405,99.447c3.362,16.638 5.604,43.107 -13.824,57.098c-0,-0 -17.56,-18.907 13.824,-57.098Z" style="fill:#fefffd;fill-rule:nonzero;"/><path d="M571.15,342.775c38.483,0 32.131,-69.576 16.813,-103.985c0.747,-4.16 1.494,-7.941 2.242,-11.344c4.483,21.553 17.933,23.822 17.933,23.822c51.559,16.26 70.613,-71.466 70.613,-71.466c8.967,-33.654 5.231,-71.844 -19.428,-78.273c-16.065,-4.159 -30.636,9.075 -42.218,24.957c1.868,-5.672 3.362,-10.21 4.483,-13.613c1.868,-4.915 0.747,-10.587 -2.989,-14.369c-5.978,-6.806 -13.45,-8.319 -18.307,-8.697c-2.989,0 -5.23,1.891 -6.351,4.538c-4.11,12.856 -17.934,55.585 -29.516,101.716c0,0 -41.097,146.714 6.725,146.714Zm102.744,-215.911c0,-0 -4.11,-10.588 -10.087,-17.016c-0,0 10.087,1.513 10.087,17.016Zm-60.152,-7.941c0,0 0,-11.344 -1.494,-17.016c-0,0 7.846,5.672 1.494,17.016Zm-14.197,69.198c5.978,-13.235 34.372,-77.138 49.317,-69.198c0,0 11.956,5.672 -2.615,56.341c-0,0 -15.692,63.526 -37.362,58.232c-9.34,-2.269 -10.087,-24.956 -9.34,-45.375Zm-16.065,71.844c7.472,29.116 2.988,71.466 -5.605,68.441c-5.604,-2.269 -0.373,-37.056 5.605,-68.441Z" style="fill:#fefffd;fill-rule:nonzero;"/><path d="M717.981,252.402c22.416,3.404 39.603,-17.772 50.064,-36.678c0.373,41.216 29.142,38.947 29.142,38.947c39.229,-1.134 69.118,-79.785 73.228,-91.129c0.374,-1.512 0.747,-3.025 0.747,-4.159c0,-4.159 -1.494,-8.319 -2.989,-11.344c-1.121,-1.891 -4.109,-1.512 -5.23,0.378c-25.032,66.551 -59.031,97.557 -64.635,93.398c-7.099,-5.294 6.725,-70.332 24.658,-117.22c0.747,-1.891 1.121,-3.781 1.494,-5.672c1.121,-15.503 -7.845,-25.334 -18.68,-28.359c-4.11,-1.135 -8.22,1.134 -9.714,4.915c-2.242,5.294 -4.11,10.588 -5.978,15.504c-3.363,-8.319 -9.714,-14.369 -19.802,-14.747c-37.361,-1.513 -65.382,54.828 -65.382,54.828c-25.779,52.182 -19.801,96.801 13.077,101.338Zm98.26,-128.563c-0,-0 -1.121,-15.125 -3.363,-20.041c0,0 11.209,6.428 3.363,20.041Zm-83.69,46.132c0,-0 28.022,-61.257 42.219,-59.745c10.835,0.757 5.604,30.629 2.242,44.241c-0.374,2.269 -0.748,4.538 -1.495,6.428l0,0.379c-0.374,1.89 -0.747,3.403 -1.121,5.293c-2.989,7.941 -28.394,74.113 -53.053,74.87c0,-0 -18.307,-6.05 11.208,-71.466Z" style="fill:#fefffd;fill-rule:nonzero;"/><path d="M857.339,261.856c-39.23,49.534 2.241,61.256 2.241,61.256c43.339,12.857 72.108,-46.509 89.294,-105.497c28.395,-18.151 44.834,-36.679 54.174,-54.451c3.362,-6.806 2.615,-12.478 -0,-16.637c-0.747,-0.757 -1.868,-0.757 -2.615,0.378c-13.077,23.822 -29.516,40.459 -46.329,53.316c8.967,-35.166 14.571,-67.307 16.439,-80.542c1.121,-8.696 -2.241,-17.015 -9.34,-21.931c-4.483,-3.025 -9.34,-4.916 -13.076,-5.672c-3.736,-0.756 -7.473,1.513 -8.22,5.672c0,1.134 -0.373,2.269 -0.373,3.781c-4.11,-6.05 -9.714,-10.209 -17.934,-10.209c-39.603,-0.378 -60.899,54.072 -60.899,54.072c-20.549,46.888 -1.494,81.676 28.021,82.81c11.956,0.378 22.043,-6.428 29.516,-15.881c-1.121,3.781 -2.616,7.562 -3.737,11.344c-23.164,12.1 -44.086,21.553 -57.162,38.191Zm4.483,46.131c-0,0 -18.307,-2.269 3.362,-32.897c0,0 13.077,-18.15 43.34,-35.166c-13.077,34.788 -30.637,69.198 -46.702,68.063Zm102.744,-182.257c-0,-0 -1.121,-12.479 -5.231,-20.419c0,-0 10.088,3.403 5.231,20.419Zm-73.976,91.885c0,-0 -21.296,-0.757 -1.121,-59.745c0,0 20.923,-54.45 36.988,-55.206c11.208,-0.378 7.472,33.653 6.725,41.972c-0.374,2.269 -0.747,4.537 -1.121,6.806c-2.989,8.697 -20.548,63.148 -41.471,66.173Z" style="fill:#fefffd;fill-rule:nonzero;"/><path d="M1022.1,254.293c58.284,5.672 94.151,-82.81 97.14,-90.373c-0,-0.378 0.373,-0.756 0.373,-1.134c1.495,-6.05 0,-12.1 -1.868,-15.503c-0.373,-1.513 -2.615,-1.513 -3.362,-0c-7.846,18.15 -43.713,95.288 -87.799,92.641c-19.428,-2.269 -17.934,-26.091 -13.451,-45.375c15.319,-1.135 49.317,-8.319 62.394,-48.401c17.56,-54.828 -16.439,-55.206 -16.439,-55.206c-41.471,-0.378 -65.756,58.61 -65.756,58.61c-0,-0 -46.702,96.8 28.768,104.741Zm26.9,-152.764c1.868,-1.512 5.605,-2.268 8.22,-1.134c-0,-0 -8.967,4.159 -12.703,12.1c0,0 0,-7.184 4.483,-10.966Zm-26.9,66.173c0,-0 25.032,-63.526 39.23,-62.77c-0,0 9.714,4.16 -2.989,40.838c-10.088,27.604 -31.01,34.788 -41.471,36.679c2.615,-8.697 5.23,-14.747 5.23,-14.747Z" style="fill:#fefffd;fill-rule:nonzero;"/><path d="M1198.45,254.671c39.229,-1.134 69.118,-79.785 73.228,-91.129c0.374,-1.512 0.747,-3.025 0.747,-4.159c0,-4.159 -1.494,-8.319 -3.362,-11.344c-1.121,-1.891 -4.11,-1.512 -4.857,0.378c-25.032,66.551 -59.031,97.557 -64.635,93.398c-7.099,-5.294 8.219,-65.038 26.153,-111.926c0.747,-1.513 1.121,-3.403 1.121,-4.916c1.494,-15.881 -9.714,-24.578 -21.67,-26.847c-3.736,-0.378 -7.099,1.513 -8.593,5.294c-25.78,66.551 -26.9,101.338 -26.9,101.338c-4.857,52.182 28.768,49.913 28.768,49.913Zm23.164,-131.588c-0,7.94 -3.736,9.453 -3.736,9.453c-0,-0 1.868,-13.235 -1.121,-19.285c-0,0 5.231,2.269 4.857,9.832Zm-4.483,-29.116c10.461,7.94 17.933,-3.403 20.922,-9.453c1.121,-2.269 1.868,-4.916 1.494,-7.563c-1.868,-12.478 -11.582,-16.638 -17.559,-17.772c-2.242,-0.378 -4.857,0.756 -5.605,3.403c-9.34,23.066 0.748,31.385 0.748,31.385Zm17.186,-21.932c-0,0 5.23,6.807 -1.495,14.369c0,0 2.242,-12.478 1.495,-14.369Z" style="fill:#fefffd;fill-rule:nonzero;"/><path d="M1239.92,252.024c-0.374,20.041 24.285,38.569 50.438,20.041c22.79,-15.503 17.933,-62.769 12.703,-91.885c16.439,-10.966 33.999,-17.394 40.724,-20.041c4.109,-1.512 7.098,-4.915 8.219,-9.075c0,-0.756 0,-1.891 0.374,-3.025c-0,-1.512 -1.495,-3.025 -3.363,-2.269c-19.428,6.05 -35.493,13.235 -48.943,21.175c-0.374,-2.268 -0.747,-3.781 -0.747,-5.293c-1.868,-7.185 -2.989,-13.613 -3.736,-18.907c19.427,-12.1 30.636,-29.494 26.152,-41.972c-5.604,-15.503 -27.273,-8.319 -27.273,-8.319c-0,0 -31.384,8.319 -35.12,36.679c-0,-0 -3.363,28.359 10.461,60.878c-31.01,31.007 -29.889,62.013 -29.889,62.013Zm76.217,-139.151c0,0 -1.494,-9.453 -5.23,-13.991c-0,0 9.714,1.891 5.23,13.991Zm-16.439,-7.184c0,-0 6.352,-1.135 6.725,6.05c0,4.537 -0.747,7.562 -12.329,18.528c-1.494,-24.2 5.604,-24.578 5.604,-24.578Zm-25.405,99.447c3.362,16.638 5.604,43.107 -13.824,57.098c-0,-0 -17.56,-18.907 13.824,-57.098Z" style="fill:#fefffd;fill-rule:nonzero;"/><path d="M1451.01,254.671c29.515,-1.134 45.954,-24.578 54.921,-48.778c26.9,-11.344 45.955,-34.032 52.68,-44.241c2.989,-4.538 3.362,-10.21 1.494,-14.369c-0.747,-1.513 -2.989,-1.513 -4.11,-0.378c-14.571,19.662 -30.262,33.653 -44.833,42.35c4.483,-19.284 5.23,-35.544 5.23,-35.544c0,-0 4.484,-61.257 -36.614,-61.257c0,0 -32.131,-1.134 -48.57,41.972c-10.461,10.21 -22.043,27.226 -26.9,54.073c0,-0 -11.956,68.063 46.702,66.172Zm54.921,-136.504c0,-0 -7.846,-10.209 -13.076,-14.747c-0,-0 11.955,1.891 13.076,14.747Zm-50.811,43.863c5.977,-42.351 24.658,-51.426 24.658,-51.426c22.417,-1.134 20.175,47.645 20.175,47.645c-1.121,15.503 -3.362,28.359 -6.725,38.569c-8.593,2.646 -16.065,3.025 -22.417,1.134c-19.054,-5.294 -15.691,-35.922 -15.691,-35.922Zm-18.307,37.813c6.351,6.428 15.691,10.965 29.889,12.478c7.098,0.756 14.197,0.378 20.922,-0.756c-14.197,31.006 -35.867,32.897 -35.867,32.897c-16.813,1.134 -16.813,-26.469 -14.944,-44.619Z" style="fill:#fefffd;fill-rule:nonzero;"/><path d="M1562.35,255.427c1.868,0 3.736,-1.89 3.736,-4.159c0.374,-5.672 1.494,-12.478 2.242,-19.663c25.779,-83.188 66.503,-120.622 72.481,-119.488c10.087,1.891 -14.945,45.375 -14.945,45.375c-20.549,34.788 -20.549,62.77 -20.549,62.77c-0.747,35.544 24.285,34.409 24.285,34.409c39.23,-1.134 78.086,-78.65 84.063,-91.129c0.748,-1.512 1.121,-3.025 1.121,-4.537c0,-4.538 -1.868,-8.697 -3.736,-11.344c-1.121,-1.891 -3.362,-1.513 -4.483,0.378c-30.263,65.794 -70.24,97.557 -75.844,93.398c-7.472,-4.916 12.703,-48.779 31.384,-78.651c20.175,-32.519 15.691,-58.988 -2.989,-66.55c-24.285,-10.21 -51.933,27.981 -51.933,27.981c-7.845,9.831 -14.944,21.175 -20.922,30.628c3.363,-9.075 6.725,-18.528 10.835,-29.494c0.747,-1.134 1.121,-2.647 1.121,-4.159c1.868,-17.016 -8.967,-27.981 -20.923,-31.007c-2.989,-0.756 -5.978,0.757 -7.472,3.782c-12.703,31.763 -20.175,59.744 -24.658,79.407c-4.857,19.662 -8.22,49.534 -8.22,63.525c1.868,11.722 14.571,18.528 25.406,18.528Zm105.359,-128.185c-0,0 -1.868,-14.369 -4.857,-18.528c-0,-0 10.461,4.915 4.857,18.528Zm-78.085,-1.891c-0,0 -0.374,-10.965 -1.869,-17.015c0,-0 7.846,5.293 1.869,17.015Z" style="fill:#fefffd;fill-rule:nonzero;"/><path d="M1796.6,71.279c-22.417,85.835 -25.78,133.101 -25.78,133.101c-4.109,52.182 28.769,50.291 28.769,50.291c37.361,0.756 67.25,-74.869 73.975,-89.994c1.121,-3.025 1.495,-6.428 0.747,-9.453c-0.373,-3.026 -1.868,-5.672 -2.989,-7.941c-1.12,-1.513 -3.736,-1.513 -4.483,0.378c-29.142,72.979 -59.031,100.582 -66.503,93.776c-11.209,-10.21 18.307,-119.489 33.999,-174.695c26.153,-0 32.878,9.075 34.372,13.99c0.747,1.513 2.242,1.891 3.363,0.757c5.23,-5.672 15.691,-19.285 -1.121,-27.604c-6.352,-3.403 -19.428,-3.025 -32.505,-2.269c1.868,-6.428 3.363,-11.343 4.11,-13.99c0.747,-1.513 0.747,-3.403 0.374,-5.294c-2.242,-14.369 -19.428,-18.15 -26.527,-18.907c-1.868,0 -3.362,0.757 -3.736,2.647c-4.483,13.991 -8.219,27.226 -11.956,39.704c-21.669,2.269 -34.372,0.756 -42.592,-2.647c-5.23,-2.269 -8.219,-6.806 -9.714,-10.21c-0.373,-1.512 -2.615,-1.512 -3.362,-0.378c-3.363,4.916 -8.593,13.991 -5.231,21.176c4.484,10.209 13.45,14.747 56.79,7.562Zm39.603,-29.872c-0,-0 -0.748,-9.453 -2.989,-14.369c-0,0 8.219,4.16 2.989,14.369Z" style="fill:#fefffd;fill-rule:nonzero;"/><path d="M1868.71,255.427l0.747,0c4.484,-0.378 7.846,-3.781 8.593,-7.94c0.748,-4.16 1.868,-9.832 3.363,-17.016c25.779,-83.566 71.36,-124.026 73.228,-118.354c1.868,5.672 -13.076,40.081 -13.076,40.081c-15.692,38.57 -17.186,64.282 -17.186,64.282c-2.989,43.863 29.889,38.191 29.889,38.191c39.603,-1.134 69.492,-80.541 73.228,-91.507c0.374,-1.134 0.747,-2.269 0.747,-3.403c0.374,-4.916 -1.868,-9.453 -3.736,-12.478c-0.747,-1.513 -2.989,-1.135 -3.736,0.378c-25.032,67.307 -59.405,98.313 -65.383,94.154c-7.098,-5.294 13.824,-62.391 20.549,-79.029c13.45,-32.141 15.692,-58.61 -2.989,-66.55c-24.658,-9.832 -51.932,27.981 -51.932,27.981c-10.088,12.856 -19.054,27.603 -25.032,38.191c1.494,-7.563 3.362,-15.503 5.23,-23.444c1.495,-7.563 3.363,-14.747 4.857,-21.553c19.428,-12.857 40.724,-38.569 46.329,-74.492c2.988,-17.772 1.12,-27.981 -2.242,-33.653c-4.483,-7.941 -11.582,-7.562 -11.582,-7.562c-4.11,-0 -7.846,1.512 -11.956,4.159c-41.845,27.225 -70.613,183.77 -77.711,226.877c-2.242,12.1 7.472,23.444 19.801,22.687Zm110.216,-125.16c0,0 -2.242,-18.906 -5.23,-24.578c-0,-0 10.834,7.184 5.23,24.578Zm-40.35,-116.842c-0,0 5.23,0.379 1.121,26.091c-2.989,18.15 -13.824,43.863 -29.516,60.123c11.956,-51.804 20.923,-86.214 28.395,-86.214Z" style="fill:#fefffd;fill-rule:nonzero;"/><path d="M2044.68,254.293c58.284,5.672 94.151,-82.81 97.14,-90.373c-0,-0.378 0.373,-0.756 0.373,-1.134c1.495,-6.05 0,-12.1 -1.868,-15.503c-0.373,-1.513 -2.615,-1.513 -3.362,-0c-7.846,18.15 -43.713,95.288 -87.799,92.641c-19.428,-2.269 -17.934,-26.091 -13.451,-45.375c15.319,-1.135 49.317,-8.319 62.394,-48.401c17.56,-54.828 -16.439,-55.206 -16.439,-55.206c-41.471,-0.378 -65.756,58.61 -65.756,58.61c-0,-0 -46.702,96.8 28.768,104.741Zm26.9,-152.764c1.868,-1.512 5.605,-2.268 8.22,-1.134c-0,-0 -8.967,4.159 -12.703,12.1c0,0 0,-7.184 4.483,-10.966Zm-26.9,66.173c0,-0 25.032,-63.526 39.23,-62.77c-0,0 9.714,4.16 -2.989,40.838c-10.088,27.604 -31.01,34.788 -41.471,36.679c2.615,-8.697 5.23,-14.747 5.23,-14.747Z" style="fill:#fefffd;fill-rule:nonzero;"/><path d="M2470.23,3.594c0,0 -20.175,-13.991 -39.603,13.235c-1.121,1.512 -0.373,3.403 1.495,3.781c7.098,1.891 20.548,10.588 19.054,49.913c-1.868,44.619 -15.318,111.169 -25.779,150.495c-25.406,-39.704 -44.46,-135.748 -51.185,-171.67c-0.748,-36.301 -13.077,-48.401 -33.252,-49.157c-0,0 -13.824,-0.378 -18.681,15.125c-0.373,1.513 1.121,3.025 2.616,2.647c7.098,-2.269 21.669,-2.269 22.79,32.897c1.121,37.435 -5.978,70.71 -10.835,90.751c0,-0 -2.989,15.125 -10.835,34.031c-48.569,-12.478 -114.699,-36.3 -130.764,17.016c-19.802,65.038 56.789,62.013 56.789,62.013c-0,0 46.702,3.025 82.195,-49.913c30.636,3.782 36.24,-13.612 38.108,-21.931c0.374,-1.513 -0.373,-3.025 -2.615,-2.647c-5.604,1.512 -13.076,1.512 -22.043,-0c4.11,-9.075 8.219,-19.663 11.582,-31.007c2.615,-10.209 5.231,-19.284 7.099,-27.603c7.472,56.341 23.537,130.076 53.426,132.723c4.11,0.378 15.692,0 24.285,-13.613c0.748,-1.134 1.121,-2.646 1.868,-4.159c6.725,-20.797 66.13,-207.592 24.285,-232.927Zm-218.937,239.733c-48.944,1.135 -45.955,-34.409 -40.724,-43.106c10.835,-19.285 50.064,-15.504 103.491,-0c-13.45,22.309 -33.626,42.35 -62.767,43.106Zm206.608,-234.439c0,-0 16.439,-2.269 18.307,19.284c0,0 -6.725,-13.234 -18.307,-19.284Z" style="fill:#fefffd;fill-rule:nonzero;"/><path d="M2512.07,252.402c22.417,3.404 39.603,-17.772 50.064,-36.678c0.374,41.216 29.142,38.947 29.142,38.947c39.23,-1.134 69.119,-79.785 73.228,-91.129c0.374,-1.512 0.748,-3.025 0.748,-4.159c-0,-4.159 -1.495,-8.319 -2.989,-11.344c-1.121,-1.891 -4.11,-1.512 -5.231,0.378c-25.032,66.551 -59.031,97.557 -64.635,93.398c-7.099,-5.294 6.725,-70.332 24.659,-117.22c0.747,-1.891 1.12,-3.781 1.494,-5.672c1.121,-15.503 -7.846,-25.334 -18.681,-28.359c-4.109,-1.135 -8.219,1.134 -9.714,4.915c-2.241,5.294 -4.109,10.588 -5.977,15.504c-3.363,-8.319 -9.714,-14.369 -19.802,-14.747c-37.361,-1.513 -65.382,54.828 -65.382,54.828c-25.78,52.182 -19.802,96.801 13.076,101.338Zm98.26,-128.563c0,-0 -1.12,-15.125 -3.362,-20.041c-0,0 11.208,6.428 3.362,20.041Zm-83.689,46.132c-0,-0 28.021,-61.257 42.218,-59.745c10.835,0.757 5.605,30.629 2.242,44.241c-0.374,2.269 -0.747,4.538 -1.494,6.428l-0,0.379c-0.374,1.89 -0.748,3.403 -1.121,5.293c-2.989,7.941 -28.395,74.113 -53.053,74.87c-0,-0 -18.308,-6.05 11.208,-71.466Z" style="fill:#fefffd;fill-rule:nonzero;"/><path d="M2669.37,252.402c0,0 18.308,1.891 40.351,-38.569c-0.747,43.107 29.142,41.216 29.142,41.216c39.229,-1.134 68.745,-79.785 73.228,-91.507c0.374,-1.134 0.747,-2.647 0.747,-4.159c0,-4.159 -1.868,-7.941 -3.362,-10.966c-1.121,-2.269 -4.11,-1.89 -4.857,0.378c-25.032,66.551 -59.031,97.179 -65.009,93.02c-7.099,-4.916 11.582,-73.357 29.889,-120.623c0.747,-1.513 1.121,-3.403 1.121,-4.916c1.121,-15.881 -9.714,-24.578 -21.296,-26.469c-4.11,-0.756 -7.846,1.135 -9.341,4.916c-6.351,16.26 -11.208,31.385 -15.318,44.619c-36.24,108.145 -54.174,99.826 -54.174,99.826c-7.098,-4.916 10.461,-68.819 28.021,-115.707c1.868,-4.916 1.868,-10.21 -0.373,-14.747c-4.484,-9.832 -13.45,-12.857 -23.164,-13.235c-2.989,0 -5.978,1.891 -7.099,4.538c-26.153,67.307 -27.274,102.094 -27.274,102.094c-4.857,52.56 28.768,50.291 28.768,50.291Zm91.909,-130.832c0,0 -1.12,-12.478 -3.736,-19.284c0,-0 13.45,6.806 3.736,19.284Zm-70.613,3.403c0,0 0.374,-11.344 -0.747,-17.015c0,-0 7.472,5.293 0.747,17.015Z" style="fill:#fefffd;fill-rule:nonzero;"/><path d="M2798.26,261.856c-39.229,49.534 2.242,61.256 2.242,61.256c43.339,12.857 72.107,-46.509 89.294,-105.497c28.394,-18.151 44.833,-36.679 54.174,-54.451c3.362,-6.806 2.615,-12.478 -0,-16.637c-0.748,-0.757 -1.868,-0.757 -2.616,0.378c-13.076,23.822 -29.515,40.459 -46.328,53.316c8.967,-35.166 14.571,-67.307 16.439,-80.542c1.121,-8.696 -2.241,-17.015 -9.34,-21.931c-4.484,-3.025 -9.34,-4.916 -13.077,-5.672c-3.736,-0.756 -7.472,1.513 -8.219,5.672c-0,1.134 -0.374,2.269 -0.374,3.781c-4.109,-6.05 -9.714,-10.209 -17.933,-10.209c-39.603,-0.378 -60.899,54.072 -60.899,54.072c-20.549,46.888 -1.495,81.676 28.021,82.81c11.955,0.378 22.043,-6.428 29.515,-15.881c-1.121,3.781 -2.615,7.562 -3.736,11.344c-23.164,12.1 -44.086,21.553 -57.163,38.191Zm4.484,46.131c-0,0 -18.307,-2.269 3.362,-32.897c0,0 13.077,-18.15 43.339,-35.166c-13.076,34.788 -30.636,69.198 -46.701,68.063Zm102.743,-182.257c0,-0 -1.12,-12.479 -5.23,-20.419c-0,-0 10.087,3.403 5.23,20.419Zm-73.975,91.885c-0,-0 -21.296,-0.757 -1.121,-59.745c0,0 20.922,-54.45 36.988,-55.206c11.208,-0.378 7.472,33.653 6.725,41.972c-0.374,2.269 -0.747,4.537 -1.121,6.806c-2.989,8.697 -20.549,63.148 -41.471,66.173Z" style="fill:#fefffd;fill-rule:nonzero;"/><path d="M2940.24,255.427l0.748,0c4.483,-0.378 7.846,-3.781 8.593,-7.94c0.747,-4.16 1.868,-9.832 3.362,-17.016c25.78,-83.566 71.361,-124.026 73.229,-118.354c1.868,5.672 -13.077,40.081 -13.077,40.081c-15.692,38.57 -17.186,64.282 -17.186,64.282c-2.989,43.863 29.889,38.191 29.889,38.191c39.603,-1.134 69.492,-80.541 73.228,-91.507c0.374,-1.134 0.748,-2.269 0.748,-3.403c0.373,-4.916 -1.869,-9.453 -3.737,-12.478c-0.747,-1.513 -2.988,-1.135 -3.736,0.378c-25.032,67.307 -59.404,98.313 -65.382,94.154c-7.099,-5.294 13.824,-62.391 20.549,-79.029c13.45,-32.141 15.691,-58.61 -2.989,-66.55c-24.659,-9.832 -51.933,27.981 -51.933,27.981c-10.087,12.856 -19.054,27.603 -25.032,38.191c1.495,-7.563 3.363,-15.503 5.231,-23.444c1.494,-7.563 3.362,-14.747 4.857,-21.553c19.428,-12.857 40.724,-38.569 46.328,-74.492c2.989,-17.772 1.121,-27.981 -2.242,-33.653c-4.483,-7.941 -11.582,-7.562 -11.582,-7.562c-4.109,-0 -7.846,1.512 -11.955,4.159c-41.845,27.225 -70.613,183.77 -77.712,226.877c-2.242,12.1 7.472,23.444 19.801,22.687Zm110.217,-125.16c-0,0 -2.242,-18.906 -5.231,-24.578c-0,-0 10.835,7.184 5.231,24.578Zm-40.351,-116.842c0,0 5.231,0.379 1.121,26.091c-2.989,18.15 -13.824,43.863 -29.515,60.123c11.955,-51.804 20.922,-86.214 28.394,-86.214Z" style="fill:#fefffd;fill-rule:nonzero;"/><path d="M3107.24,71.279c-22.417,85.835 -25.78,133.101 -25.78,133.101c-4.109,52.182 28.769,50.291 28.769,50.291c37.361,0.756 67.25,-74.869 73.975,-89.994c1.121,-3.025 1.495,-6.428 0.748,-9.453c-0.374,-3.026 -1.869,-5.672 -2.989,-7.941c-1.121,-1.513 -3.737,-1.513 -4.484,0.378c-29.142,72.979 -59.031,100.582 -66.503,93.776c-11.208,-10.21 18.307,-119.489 33.999,-174.695c26.153,-0 32.878,9.075 34.372,13.99c0.748,1.513 2.242,1.891 3.363,0.757c5.23,-5.672 15.692,-19.285 -1.121,-27.604c-6.351,-3.403 -19.428,-3.025 -32.504,-2.269c1.868,-6.428 3.362,-11.343 4.109,-13.99c0.748,-1.513 0.748,-3.403 0.374,-5.294c-2.242,-14.369 -19.428,-18.15 -26.527,-18.907c-1.868,0 -3.362,0.757 -3.736,2.647c-4.483,13.991 -8.219,27.226 -11.955,39.704c-21.67,2.269 -34.373,0.756 -42.592,-2.647c-5.231,-2.269 -8.22,-6.806 -9.714,-10.21c-0.374,-1.512 -2.616,-1.512 -3.363,-0.378c-3.362,4.916 -8.593,13.991 -5.23,21.176c4.483,10.209 13.45,14.747 56.789,7.562Zm39.603,-29.872c-0,-0 -0.747,-9.453 -2.989,-14.369c-0,0 8.22,4.16 2.989,14.369Z" style="fill:#fefffd;fill-rule:nonzero;"/><path d="M3173.74,261.856c-39.229,49.534 2.242,61.256 2.242,61.256c43.339,12.857 72.107,-46.509 89.293,-105.497c28.395,-18.151 44.834,-36.679 54.174,-54.451c3.363,-6.806 2.616,-12.478 0,-16.637c-0.747,-0.757 -1.868,-0.757 -2.615,0.378c-13.076,23.822 -29.515,40.459 -46.328,53.316c8.967,-35.166 14.571,-67.307 16.439,-80.542c1.121,-8.696 -2.242,-17.015 -9.34,-21.931c-4.484,-3.025 -9.341,-4.916 -13.077,-5.672c-3.736,-0.756 -7.472,1.513 -8.219,5.672c-0.747,4.538 -1.495,11.722 -2.989,20.041c-26.9,100.204 -57.537,104.363 -57.537,104.363c-7.098,-4.537 10.088,-59.366 27.648,-100.582c3.362,-7.941 0.747,-17.394 -6.725,-21.931c-4.857,-3.025 -10.835,-4.16 -17.56,-4.538c-2.615,0 -4.857,1.513 -5.604,3.781c-26.527,59.745 -27.648,90.373 -27.648,90.373c-4.857,46.51 28.768,44.241 28.768,44.241c0,0 22.417,3.025 44.834,-38.191c-2.242,8.319 -5.23,18.15 -8.593,28.36c-23.164,12.1 -44.086,21.553 -57.163,38.191Zm4.483,46.131c0,0 -18.307,-2.269 3.363,-32.897c-0,0 13.076,-18.15 43.339,-35.166c-13.076,34.788 -30.636,69.198 -46.702,68.063Zm103.865,-182.257c0,-0 -1.494,-10.966 -5.978,-21.554c0,0 10.088,3.782 5.978,21.554Zm-65.382,-0c-0,-0 0.747,-6.429 -0,-18.529c-0,0 7.098,5.672 -0,18.529Z" style="fill:#fefffd;fill-rule:nonzero;"/><path d="M3436.39,231.983c-5.231,-0.756 -9.714,-1.89 -13.077,-3.403c-4.483,-1.89 -7.472,-6.428 -8.967,-9.831c-1.12,-2.647 -3.362,-2.647 -4.857,-0.378c-3.362,6.05 -7.845,16.259 -4.857,23.066c4.11,10.965 14.198,19.284 64.262,9.075c46.328,-9.075 60.152,3.025 64.262,9.075c0.747,1.512 2.988,1.512 4.109,0.378c5.231,-6.05 15.692,-21.553 -1.121,-30.628c-7.845,-4.538 -27.273,-3.025 -42.591,-1.135c-8.967,0.756 -16.813,1.891 -20.549,2.647c25.405,-18.15 23.164,-89.994 47.822,-167.132c10.088,-5.672 19.055,-12.479 28.395,-24.579c10.835,-14.369 10.088,-28.738 5.978,-33.275c-0,-0 -12.703,-18.906 -38.109,11.722c-8.967,10.587 -17.186,24.956 -24.658,40.46c-42.219,13.99 -95.272,23.444 -113.579,49.913c-12.703,19.284 -1.121,40.837 9.714,48.022c1.868,1.134 4.11,-0.378 4.11,-2.647c-0.374,-4.538 0.747,-10.588 2.615,-14.747c10.835,-26.469 68.745,-47.266 86.678,-55.963c-7.845,21.175 -13.823,43.485 -17.186,61.635c-11.208,62.769 -19.054,79.785 -28.394,87.725Zm116.567,-206.457c0,-0 1.121,-10.21 -1.868,-18.529c0,0 8.22,4.538 1.868,18.529Zm-6.351,-12.101c2.241,1.513 -0,12.479 -7.473,20.041c-2.989,3.025 -6.725,6.05 -10.834,8.697c13.076,-33.275 18.307,-28.738 18.307,-28.738Z" style="fill:#fefffd;fill-rule:nonzero;"/><path d="M3582.85,254.671c39.23,-1.134 69.119,-79.785 73.229,-91.129c0.373,-1.512 0.747,-3.025 0.747,-4.159c-0,-4.159 -1.495,-8.319 -3.363,-11.344c-1.121,-1.891 -4.11,-1.512 -4.857,0.378c-25.032,66.551 -59.031,97.557 -64.635,93.398c-7.099,-5.294 8.22,-65.038 26.153,-111.926c0.747,-1.513 1.121,-3.403 1.121,-4.916c1.494,-15.881 -9.714,-24.578 -21.67,-26.847c-3.736,-0.378 -7.098,1.513 -8.593,5.294c-25.779,66.551 -26.9,101.338 -26.9,101.338c-4.857,52.182 28.768,49.913 28.768,49.913Zm23.164,-131.588c0,7.94 -3.736,9.453 -3.736,9.453c0,-0 1.868,-13.235 -1.121,-19.285c0,0 5.231,2.269 4.857,9.832Zm-4.483,-29.116c10.461,7.94 17.933,-3.403 20.922,-9.453c1.121,-2.269 1.868,-4.916 1.495,-7.563c-1.868,-12.478 -11.582,-16.638 -17.56,-17.772c-2.242,-0.378 -4.857,0.756 -5.604,3.403c-9.341,23.066 0.747,31.385 0.747,31.385Zm17.186,-21.932c0,0 5.231,6.807 -1.494,14.369c-0,0 2.241,-12.478 1.494,-14.369Z" style="fill:#fefffd;fill-rule:nonzero;"/><path d="M3624.32,252.024c-0.373,20.041 24.285,38.569 50.438,20.041c22.791,-15.503 17.934,-62.769 12.703,-91.885c16.439,-10.966 33.999,-17.394 40.724,-20.041c4.11,-1.512 7.099,-4.915 8.219,-9.075c0,-0.756 0,-1.891 0.374,-3.025c0,-1.512 -1.494,-3.025 -3.362,-2.269c-19.428,6.05 -35.494,13.235 -48.944,21.175c-0.373,-2.268 -0.747,-3.781 -0.747,-5.293c-1.868,-7.185 -2.989,-13.613 -3.736,-18.907c19.428,-12.1 30.636,-29.494 26.153,-41.972c-5.604,-15.503 -27.274,-8.319 -27.274,-8.319c-0,0 -31.384,8.319 -35.12,36.679c0,-0 -3.362,28.359 10.461,60.878c-31.009,31.007 -29.889,62.013 -29.889,62.013Zm76.218,-139.151c-0,0 -1.495,-9.453 -5.231,-13.991c-0,0 9.714,1.891 5.231,13.991Zm-16.439,-7.184c-0,-0 6.351,-1.135 6.725,6.05c-0,4.537 -0.748,7.562 -12.33,18.528c-1.494,-24.2 5.605,-24.578 5.605,-24.578Zm-25.406,99.447c3.362,16.638 5.604,43.107 -13.824,57.098c0,-0 -17.56,-18.907 13.824,-57.098Z" style="fill:#fefffd;fill-rule:nonzero;"/><path d="M3746.87,71.279c-22.417,85.835 -25.78,133.101 -25.78,133.101c-4.109,52.182 28.769,50.291 28.769,50.291c37.361,0.756 67.25,-74.869 73.975,-89.994c1.121,-3.025 1.495,-6.428 0.747,-9.453c-0.373,-3.026 -1.868,-5.672 -2.989,-7.941c-1.12,-1.513 -3.736,-1.513 -4.483,0.378c-29.142,72.979 -59.031,100.582 -66.503,93.776c-11.209,-10.21 18.307,-119.489 33.999,-174.695c26.153,-0 32.878,9.075 34.372,13.99c0.747,1.513 2.242,1.891 3.363,0.757c5.23,-5.672 15.691,-19.285 -1.121,-27.604c-6.352,-3.403 -19.428,-3.025 -32.505,-2.269c1.868,-6.428 3.363,-11.343 4.11,-13.99c0.747,-1.513 0.747,-3.403 0.374,-5.294c-2.242,-14.369 -19.428,-18.15 -26.527,-18.907c-1.868,0 -3.362,0.757 -3.736,2.647c-4.483,13.991 -8.219,27.226 -11.956,39.704c-21.669,2.269 -34.372,0.756 -42.592,-2.647c-5.23,-2.269 -8.219,-6.806 -9.714,-10.21c-0.373,-1.512 -2.615,-1.512 -3.362,-0.378c-3.363,4.916 -8.593,13.991 -5.231,21.176c4.484,10.209 13.45,14.747 56.79,7.562Zm39.603,-29.872c-0,-0 -0.747,-9.453 -2.989,-14.369c-0,0 8.219,4.16 2.989,14.369Z" style="fill:#fefffd;fill-rule:nonzero;"/><path d="M3833.92,226.69c-7.473,-0 -14.198,5.672 -15.318,12.478c-1.495,6.806 3.362,12.1 10.461,12.1c7.098,0 13.823,-5.294 15.318,-12.1c1.121,-6.806 -3.363,-12.478 -10.461,-12.478Zm47.075,-224.986c-4.11,-0 -7.846,5.671 -10.835,11.721c-2.615,6.051 -4.483,12.101 -4.483,12.101c-1.121,2.646 -1.868,5.293 -2.615,7.94c-1.121,3.025 -1.868,6.05 -2.989,9.453c-0.748,3.404 -1.868,6.807 -2.989,10.588c-0.374,1.891 -0.747,3.781 -1.495,5.672c-0.373,1.891 -0.747,3.781 -1.121,5.672c-4.109,15.881 -7.845,33.275 -11.208,50.669c-3.362,17.016 -6.351,33.653 -8.219,47.644c-1.121,7.185 -2.242,13.235 -2.989,18.528c-0.374,2.647 -0.748,5.294 -0.748,7.185c-0.373,2.269 -0.373,4.159 -0.747,5.672c-0.747,12.478 1.121,17.772 2.989,20.419c1.868,2.269 4.11,1.512 4.11,1.512c4.11,-0.378 8.967,-9.831 13.824,-23.822c4.483,-13.991 9.34,-32.897 13.45,-52.56c2.241,-9.831 4.483,-20.04 6.351,-29.872c2.242,-9.831 4.11,-19.284 5.604,-27.981c1.868,-8.697 3.736,-16.638 4.857,-23.066c0.747,-3.403 1.495,-6.428 2.242,-9.075c0.374,-2.647 1.121,-4.916 1.494,-6.806c1.121,-3.782 1.868,-6.807 2.616,-10.21c-0,-1.512 0.373,-3.025 0.747,-4.537c0.374,-1.135 0.374,-2.647 0.747,-3.782c0.747,-5.293 1.121,-9.831 0.747,-12.856c-0.747,-6.806 -4.109,-10.209 -9.34,-10.209Zm1.494,31.006c0,0 1.495,-15.125 0.748,-23.066c-0,0 7.098,2.269 -0.748,23.066Z" style="fill:#fefffd;fill-rule:nonzero;"/></g></svg>