<?xml version="1.0" encoding="UTF-8" standalone="no"?><!DOCTYPE svg PUBLIC "-//W3C//DTD SVG 1.1//EN" "http://www.w3.org/Graphics/SVG/1.1/DTD/svg11.dtd"><svg width="100%" height="100%" viewBox="0 0 1429 1406" version="1.1" xmlns="http://www.w3.org/2000/svg" xmlns:xlink="http://www.w3.org/1999/xlink" xml:space="preserve" xmlns:serif="http://www.serif.com/" style="fill-rule:evenodd;clip-rule:evenodd;stroke-linejoin:round;stroke-miterlimit:2;"><g><path d="M1338.83,691.731c-12.334,0 -22.313,9.991 -22.313,22.314l-1204.95,0c-0,-12.323 -9.98,-22.314 -22.314,-22.314c-12.334,0 -22.314,9.991 -22.314,22.314l-0,580.162c-0,61.516 50.053,111.569 111.569,111.569l1071.07,0c61.516,0 111.569,-50.053 111.569,-111.569l0,-580.162c0,-12.323 -9.98,-22.314 -22.314,-22.314Z" style="fill:#d20018;fill-rule:nonzero;"/><path d="M66.942,1267.2l-0,27.003c-0,61.516 50.053,111.569 111.569,111.569l1071.07,0c61.516,0 111.569,-50.053 111.569,-111.569l0,-27.003c0,61.517 -50.053,111.57 -111.569,111.57l-1071.07,-0c-61.516,-0 -111.569,-50.053 -111.569,-111.57Z" style="fill:#9d0a0e;fill-rule:nonzero;"/></g><g><g><path d="M1338.83,446.278l-1249.58,0c-49.225,0 -89.256,40.04 -89.256,89.256l-0,133.883c-0,49.216 40.031,89.256 89.256,89.256l1249.58,-0c49.225,-0 89.256,-40.04 89.256,-89.256l0,-133.883c0,-49.216 -40.031,-89.256 -89.256,-89.256Z" style="fill:#d20018;fill-rule:nonzero;"/><path d="M0,646.097l0,23.32c0,49.216 40.031,89.256 89.256,89.256l1249.58,-0c49.225,-0 89.256,-40.04 89.256,-89.256l0,-23.32c0,49.216 -40.031,89.256 -89.256,89.256l-1249.58,-0c-49.225,-0 -89.256,-40.04 -89.256,-89.256Z" style="fill:#9d0a0e;fill-rule:nonzero;"/></g><g opacity="0.75"><rect x="624.789" y="423.964" width="178.511" height="981.812" style="fill:#fefffd;"/><g><g><path d="M624.789,1124.94l178.512,178.511l-0,-63.106l-178.512,-178.511l0,63.106Z" style="fill:#390;fill-rule:nonzero;"/></g><g><path d="M624.789,1013.37l178.512,178.511l-0,-63.107l-178.512,-178.511l0,63.107Z" style="fill:#390;fill-rule:nonzero;"/></g><g><path d="M803.301,634.03l-0,-63.106l-146.957,-146.96l-31.555,0l0,31.555l178.512,178.511Z" style="fill:#390;fill-rule:nonzero;"/></g><g><path d="M624.789,901.797l178.512,178.511l-0,-63.106l-178.512,-178.511l0,63.106Z" style="fill:#390;fill-rule:nonzero;"/></g><g><path d="M624.789,1173.4l0,63.107l169.274,169.27l9.238,0l-0,-53.866l-178.512,-178.511Z" style="fill:#390;fill-rule:nonzero;"/></g><g><path d="M624.789,790.228l178.512,178.511l-0,-63.107l-178.512,-178.511l0,63.107Z" style="fill:#390;fill-rule:nonzero;"/></g><g><path d="M624.789,567.088l178.512,178.512l-0,-63.107l-178.512,-178.511l0,63.106Z" style="fill:#390;fill-rule:nonzero;"/></g><g><path d="M745.6,1405.78l-120.811,-120.807l0,63.106l57.704,57.701l63.107,0Z" style="fill:#390;fill-rule:nonzero;"/></g><g><path d="M624.789,678.658l178.512,178.511l-0,-63.106l-178.512,-178.512l0,63.107Z" style="fill:#390;fill-rule:nonzero;"/></g></g></g><g><clipPath id="_clip1"><rect x="624.789" y="423.964" width="178.511" height="955.269"/></clipPath><g clip-path="url(#_clip1)"><rect x="624.789" y="423.964" width="178.511" height="981.812" style="fill:#fefffd;"/><g><g><path d="M624.789,1124.94l178.512,178.511l-0,-63.106l-178.512,-178.511l0,63.106Z" style="fill:#390;fill-rule:nonzero;"/></g><g><path d="M624.789,1013.37l178.512,178.511l-0,-63.107l-178.512,-178.511l0,63.107Z" style="fill:#390;fill-rule:nonzero;"/></g><g><path d="M803.301,634.03l-0,-63.106l-146.957,-146.96l-31.555,0l0,31.555l178.512,178.511Z" style="fill:#390;fill-rule:nonzero;"/></g><g><path d="M624.789,901.797l178.512,178.511l-0,-63.106l-178.512,-178.511l0,63.106Z" style="fill:#390;fill-rule:nonzero;"/></g><g><path d="M624.789,1173.4l0,63.107l169.274,169.27l9.238,0l-0,-53.866l-178.512,-178.511Z" style="fill:#390;fill-rule:nonzero;"/></g><g><path d="M624.789,790.228l178.512,178.511l-0,-63.107l-178.512,-178.511l0,63.107Z" style="fill:#390;fill-rule:nonzero;"/></g><g><path d="M624.789,567.088l178.512,178.512l-0,-63.107l-178.512,-178.511l0,63.106Z" style="fill:#390;fill-rule:nonzero;"/></g><g><path d="M745.6,1405.78l-120.811,-120.807l0,63.106l57.704,57.701l63.107,0Z" style="fill:#390;fill-rule:nonzero;"/></g><g><path d="M624.789,678.658l178.512,178.511l-0,-63.106l-178.512,-178.512l0,63.107Z" style="fill:#390;fill-rule:nonzero;"/></g></g></g></g><g><path d="M1182.64,803.214c-88.101,0 -140.028,-91.861 -190.234,-180.701c-37.189,-65.781 -75.377,-133.163 -130.69,-161.884c104.987,-40.921 237.102,-97.504 276.539,-136.935c73.959,-73.948 73.959,-194.276 -0,-268.224c-73.959,-73.96 -194.287,-73.96 -268.247,-0c-46.008,45.997 -115.393,218.235 -155.96,326.271c-40.567,-108.033 -109.952,-280.274 -155.957,-326.271c-73.96,-73.96 -194.288,-73.96 -268.247,-0c-73.96,73.948 -73.96,194.276 -0,268.224c39.437,39.431 171.549,96.014 276.539,136.935c-55.316,28.721 -93.501,96.103 -130.69,161.884c-50.206,88.843 -102.133,180.701 -190.234,180.701c-18.479,0 -33.471,14.981 -33.471,33.471c-0,18.49 14.992,33.471 33.471,33.471c127.15,-0 191.629,-114.066 248.504,-214.707c41.381,-73.184 80.453,-142.316 130.832,-142.316l0,0.087l178.511,-0l0,-0.087c50.382,0 89.451,69.132 130.832,142.316c56.876,100.641 121.355,214.707 248.505,214.707c18.479,-0 33.471,-14.981 33.471,-33.471c-0,-18.49 -14.995,-33.471 -33.474,-33.471Zm-265.304,-700.417c23.926,-23.926 55.35,-35.878 86.793,-35.878c31.423,0 62.866,11.963 86.793,35.878c47.852,47.853 47.852,125.711 -0,173.566c-34.082,34.082 -194.614,100.63 -321.198,147.624c46.982,-126.584 113.53,-287.108 147.612,-321.19Zm-580.161,0c23.926,-23.926 55.349,-35.878 86.792,-35.878c31.424,0 62.867,11.963 86.793,35.878c34.082,34.082 100.63,194.606 147.612,321.187c-126.584,-46.993 -287.119,-113.542 -321.197,-147.623c-47.853,-47.85 -47.853,-125.709 -0,-173.564Z" style="fill:#390;fill-rule:nonzero;"/><path d="M212.448,831.107c-0.305,1.814 -0.463,3.677 -0.463,5.578c-0,18.49 14.992,33.471 33.471,33.471c127.15,-0 191.629,-114.066 248.504,-214.707c41.381,-73.184 80.453,-142.316 130.832,-142.316l0,0.087l178.511,-0l0,-0.087c50.382,0 89.451,69.132 130.832,142.316c56.876,100.641 121.355,214.707 248.505,214.707c18.479,-0 33.471,-14.981 33.471,-33.471c-0,-1.901 -0.159,-3.764 -0.463,-5.578c-2.656,15.833 -16.429,27.892 -33.008,27.892c-127.15,-0 -191.629,-114.066 -248.505,-214.707c-41.381,-73.184 -80.45,-142.316 -130.832,-142.316l0,0.087l-178.511,-0l0,-0.087c-50.379,0 -89.451,69.132 -130.832,142.316c-56.875,100.641 -121.354,214.707 -248.504,214.707c-16.579,-0 -30.352,-12.059 -33.008,-27.892Zm981.192,-647.104c-1.358,46.685 -19.821,92.972 -55.388,128.534c-39.437,39.431 -171.552,96.014 -276.539,136.935c3.911,2.03 7.736,4.254 11.484,6.659c102.921,-40.486 227.042,-94.429 265.055,-132.437c38.392,-38.387 56.855,-89.271 55.388,-139.691Zm-959.187,0c-1.467,50.42 16.996,101.304 55.388,139.691c38.013,38.008 162.132,91.951 265.055,132.437c3.748,-2.405 7.573,-4.629 11.484,-6.659c-104.99,-40.921 -237.102,-97.504 -276.539,-136.935c-35.567,-35.562 -54.03,-81.849 -55.388,-128.534Zm540.101,227.028l-4.833,1.799c46.982,-126.584 113.53,-287.108 147.612,-321.19c23.926,-23.926 55.35,-35.878 86.793,-35.878c31.423,0 62.866,11.963 86.793,35.878c25.342,25.343 37.263,59.102 35.762,92.361c-1.332,-29.545 -13.253,-58.694 -35.762,-81.204c-23.927,-23.915 -55.37,-35.878 -86.793,-35.878c-31.443,0 -62.867,11.952 -86.793,35.878c-32.93,32.93 -96.168,183.899 -142.779,308.234Zm-473.145,-227.028c-1.501,-33.259 10.42,-67.019 35.763,-92.363c23.926,-23.926 55.349,-35.878 86.792,-35.878c31.424,0 62.867,11.963 86.793,35.878c34.082,34.082 100.63,194.606 147.612,321.187l-4.833,-1.799c-46.61,-124.332 -109.849,-275.301 -142.779,-308.231c-23.926,-23.915 -55.369,-35.878 -86.793,-35.878c-31.443,0 -62.866,11.952 -86.792,35.878c-22.51,22.511 -34.431,51.661 -35.763,81.206Z" style="fill:#00863d;fill-rule:nonzero;"/></g></g></svg>