<svg xmlns="http://www.w3.org/2000/svg" viewBox="0 0 1429 1406" xml:space="preserve" style="fill-rule:evenodd;clip-rule:evenodd;stroke-linejoin:round;stroke-miterlimit:2"><path d="M1338.83 691.731c-12.334 0-22.313 9.991-22.313 22.314H111.567c0-12.323-9.98-22.314-22.314-22.314s-22.314 9.991-22.314 22.314v580.162c0 61.516 50.053 111.569 111.569 111.569h1071.07c61.516 0 111.569-50.053 111.569-111.569V714.045c0-12.323-9.98-22.314-22.314-22.314Z" style="fill:#d20018;fill-rule:nonzero"/><path d="M66.942 1267.2v27.003c0 61.516 50.053 111.569 111.569 111.569h1071.07c61.516 0 111.569-50.053 111.569-111.569V1267.2c0 61.517-50.053 111.57-111.569 111.57H178.511c-61.516 0-111.569-50.053-111.569-111.57Z" style="fill:#9d0a0e;fill-rule:nonzero"/><g><path d="M1338.83 446.278H89.25c-49.225 0-89.256 40.04-89.256 89.256v133.883c0 49.216 40.031 89.256 89.256 89.256h1249.58c49.225 0 89.256-40.04 89.256-89.256V535.534c0-49.216-40.031-89.256-89.256-89.256Z" style="fill:#d20018;fill-rule:nonzero"/><path d="M0 646.097v23.32c0 49.216 40.031 89.256 89.256 89.256h1249.58c49.225 0 89.256-40.04 89.256-89.256v-23.32c0 49.216-40.031 89.256-89.256 89.256H89.256C40.031 735.353 0 695.313 0 646.097Z" style="fill:#9d0a0e;fill-rule:nonzero"/><g opacity=".75"><path style="fill:#fefffd" d="M624.789 423.964H803.3v981.812H624.789z"/><path d="m624.789 1124.94 178.512 178.511v-63.106l-178.512-178.511v63.106ZM624.789 1013.37l178.512 178.511v-63.107L624.789 950.263v63.107ZM803.301 634.03v-63.106l-146.957-146.96h-31.555v31.555L803.301 634.03ZM624.789 901.797l178.512 178.511v-63.106L624.789 838.691v63.106ZM624.789 1173.4v63.107l169.274 169.27h9.238v-53.866L624.789 1173.4ZM624.789 790.228l178.512 178.511v-63.107L624.789 727.121v63.107ZM624.789 567.088 803.301 745.6v-63.107L624.789 503.982v63.106ZM745.6 1405.78l-120.811-120.807v63.106l57.704 57.701H745.6ZM624.789 678.658l178.512 178.511v-63.106L624.789 615.551v63.107Z" style="fill:#390;fill-rule:nonzero"/></g><clipPath id="a"><path d="M624.789 423.964H803.3v955.269H624.789z"/></clipPath><g clip-path="url(#a)"><path style="fill:#fefffd" d="M624.789 423.964H803.3v981.812H624.789z"/><path d="m624.789 1124.94 178.512 178.511v-63.106l-178.512-178.511v63.106ZM624.789 1013.37l178.512 178.511v-63.107L624.789 950.263v63.107ZM803.301 634.03v-63.106l-146.957-146.96h-31.555v31.555L803.301 634.03ZM624.789 901.797l178.512 178.511v-63.106L624.789 838.691v63.106ZM624.789 1173.4v63.107l169.274 169.27h9.238v-53.866L624.789 1173.4ZM624.789 790.228l178.512 178.511v-63.107L624.789 727.121v63.107ZM624.789 567.088 803.301 745.6v-63.107L624.789 503.982v63.106ZM745.6 1405.78l-120.811-120.807v63.106l57.704 57.701H745.6ZM624.789 678.658l178.512 178.511v-63.106L624.789 615.551v63.107Z" style="fill:#390;fill-rule:nonzero"/></g><g><path d="M1182.64 803.214c-88.101 0-140.028-91.861-190.234-180.701-37.189-65.781-75.377-133.163-130.69-161.884 104.987-40.921 237.102-97.504 276.539-136.935 73.959-73.948 73.959-194.276 0-268.224-73.959-73.96-194.287-73.96-268.247 0C824 101.467 754.615 273.705 714.048 381.741 673.481 273.708 604.096 101.467 558.091 55.47c-73.96-73.96-194.288-73.96-268.247 0-73.96 73.948-73.96 194.276 0 268.224 39.437 39.431 171.549 96.014 276.539 136.935-55.316 28.721-93.501 96.103-130.69 161.884-50.206 88.843-102.133 180.701-190.234 180.701-18.479 0-33.471 14.981-33.471 33.471 0 18.49 14.992 33.471 33.471 33.471 127.15 0 191.629-114.066 248.504-214.707 41.381-73.184 80.453-142.316 130.832-142.316v.087h178.511v-.087c50.382 0 89.451 69.132 130.832 142.316 56.876 100.641 121.355 214.707 248.505 214.707 18.479 0 33.471-14.981 33.471-33.471 0-18.49-14.995-33.471-33.474-33.471ZM917.336 102.797c23.926-23.926 55.35-35.878 86.793-35.878 31.423 0 62.866 11.963 86.793 35.878 47.852 47.853 47.852 125.711 0 173.566-34.082 34.082-194.614 100.63-321.198 147.624 46.982-126.584 113.53-287.108 147.612-321.19Zm-580.161 0c23.926-23.926 55.349-35.878 86.792-35.878 31.424 0 62.867 11.963 86.793 35.878 34.082 34.082 100.63 194.606 147.612 321.187-126.584-46.993-287.119-113.542-321.197-147.623-47.853-47.85-47.853-125.709 0-173.564Z" style="fill:#390;fill-rule:nonzero"/><path d="M212.448 831.107a33.618 33.618 0 0 0-.463 5.578c0 18.49 14.992 33.471 33.471 33.471 127.15 0 191.629-114.066 248.504-214.707 41.381-73.184 80.453-142.316 130.832-142.316v.087h178.511v-.087c50.382 0 89.451 69.132 130.832 142.316 56.876 100.641 121.355 214.707 248.505 214.707 18.479 0 33.471-14.981 33.471-33.471 0-1.901-.159-3.764-.463-5.578-2.656 15.833-16.429 27.892-33.008 27.892-127.15 0-191.629-114.066-248.505-214.707-41.381-73.184-80.45-142.316-130.832-142.316v.087H624.792v-.087c-50.379 0-89.451 69.132-130.832 142.316-56.875 100.641-121.354 214.707-248.504 214.707-16.579 0-30.352-12.059-33.008-27.892Zm981.192-647.104c-1.358 46.685-19.821 92.972-55.388 128.534-39.437 39.431-171.552 96.014-276.539 136.935a144.697 144.697 0 0 1 11.484 6.659c102.921-40.486 227.042-94.429 265.055-132.437 38.392-38.387 56.855-89.271 55.388-139.691Zm-959.187 0c-1.467 50.42 16.996 101.304 55.388 139.691 38.013 38.008 162.132 91.951 265.055 132.437a144.697 144.697 0 0 1 11.484-6.659c-104.99-40.921-237.102-97.504-276.539-136.935-35.567-35.562-54.03-81.849-55.388-128.534Zm540.101 227.028-4.833 1.799c46.982-126.584 113.53-287.108 147.612-321.19 23.926-23.926 55.35-35.878 86.793-35.878 31.423 0 62.866 11.963 86.793 35.878 25.342 25.343 37.263 59.102 35.762 92.361-1.332-29.545-13.253-58.694-35.762-81.204-23.927-23.915-55.37-35.878-86.793-35.878-31.443 0-62.867 11.952-86.793 35.878-32.93 32.93-96.168 183.899-142.779 308.234ZM301.409 184.003c-1.501-33.259 10.42-67.019 35.763-92.363 23.926-23.926 55.349-35.878 86.792-35.878 31.424 0 62.867 11.963 86.793 35.878 34.082 34.082 100.63 194.606 147.612 321.187l-4.833-1.799c-46.61-124.332-109.849-275.301-142.779-308.231-23.926-23.915-55.369-35.878-86.793-35.878-31.443 0-62.866 11.952-86.792 35.878-22.51 22.511-34.431 51.661-35.763 81.206Z" style="fill:#00863d;fill-rule:nonzero"/></g></g></svg>