<?xml version="1.0" encoding="UTF-8" standalone="no"?><!DOCTYPE svg PUBLIC "-//W3C//DTD SVG 1.1//EN" "http://www.w3.org/Graphics/SVG/1.1/DTD/svg11.dtd"><svg width="100%" height="100%" viewBox="0 0 2206 2206" version="1.1" xmlns="http://www.w3.org/2000/svg" xmlns:xlink="http://www.w3.org/1999/xlink" xml:space="preserve" xmlns:serif="http://www.serif.com/" style="fill-rule:evenodd;clip-rule:evenodd;stroke-linecap:round;stroke-linejoin:round;stroke-miterlimit:1.5;"><path d="M2187.24,329.738c-0,-171.639 -139.349,-310.988 -310.988,-310.988l-1546.52,-0c-171.639,-0 -310.988,139.349 -310.988,310.988l-0,1546.52c-0,171.639 139.349,310.988 310.988,310.988l1546.52,-0c171.639,-0 310.988,-139.349 310.988,-310.988l-0,-1546.52Z" style="fill:#9d0a0e;stroke:#000;stroke-width:37.5px;"/><g><path d="M754.223,919.76c-25.422,-63.975 701.916,-84.513 676.494,-20.539c65.195,-36.053 156.515,-22.092 208.506,35.299c51.991,57.391 67.315,134.196 12.878,182.126c76.509,-7.583 131.722,44.551 150.278,116.117c18.555,71.565 -25.983,143.121 -98.652,165.512c72.669,22.391 161.377,77.177 142.889,148.76c-14.672,56.809 -28.161,91.2 -111.832,110.835c54.437,47.93 59.296,129.411 7.305,186.802c-51.992,57.391 -143.312,71.352 -208.507,35.298c25.422,63.975 -10.36,139.243 -85.49,171.092c-75.129,31.85 -164.287,9.549 -205.255,-47.836c-8.628,67.35 -77.964,121.496 -161.352,121.496c-83.387,0 -152.724,-54.146 -161.351,-121.496c-40.969,57.385 -130.127,79.686 -205.256,47.836c-75.129,-31.849 -110.912,-107.117 -85.49,-171.092c-65.194,36.054 -156.515,22.093 -208.506,-35.298c-51.991,-57.391 -47.132,-138.872 7.304,-186.802c-85.023,-12.285 -75.69,-126.796 -63.284,-152.962c22.007,-46.413 43.642,-63.703 116.31,-86.094c-72.668,-22.391 -117.207,-93.947 -98.651,-165.512c18.555,-71.566 93.951,-119.024 170.46,-111.442c-54.437,-47.929 -59.296,-129.41 -7.305,-186.801c51.991,-57.391 143.312,-71.352 208.507,-35.299Z" style="fill:#fefffd;stroke:#000;stroke-width:33.33px;"/><path d="M754.223,919.76c-25.422,-63.975 701.916,-84.513 676.494,-20.539c65.195,-36.053 156.515,-22.092 208.506,35.299c51.991,57.391 67.315,134.196 12.878,182.126c76.509,-7.583 131.722,44.551 150.278,116.117c18.555,71.565 -25.983,143.121 -98.652,165.512c72.669,22.391 161.377,77.177 142.889,148.76c-14.672,56.809 -28.161,91.2 -111.832,110.835c54.437,47.93 59.296,129.411 7.305,186.802c-51.992,57.391 -143.312,71.352 -208.507,35.298c25.422,63.975 -10.36,139.243 -85.49,171.092c-75.129,31.85 -164.287,9.549 -205.255,-47.836c-8.628,67.35 -77.964,121.496 -161.352,121.496c-83.387,0 -152.724,-54.146 -161.351,-121.496c-40.969,57.385 -130.127,79.686 -205.256,47.836c-75.129,-31.849 -110.912,-107.117 -85.49,-171.092c-65.194,36.054 -156.515,22.093 -208.506,-35.298c-51.991,-57.391 -47.132,-138.872 7.304,-186.802c-85.023,-12.285 -75.69,-126.796 -63.284,-152.962c22.007,-46.413 43.642,-63.703 116.31,-86.094c-72.668,-22.391 -117.207,-93.947 -98.651,-165.512c18.555,-71.566 93.951,-119.024 170.46,-111.442c-54.437,-47.929 -59.296,-129.41 -7.305,-186.801c51.991,-57.391 143.312,-71.352 208.507,-35.299Z" style="fill:#fefffd;"/><path d="M949.77,2067.65c28.843,21.967 67.031,35.509 108.733,35.509c83.387,0 152.724,-54.146 161.351,-121.496c6.424,8.998 14.033,17.133 22.591,24.336c-10.138,66.054 -78.715,118.727 -160.96,118.727c-54.035,0 -102.17,-22.736 -131.715,-57.076Zm-295.088,-59.708c10.993,8.422 23.442,15.719 37.214,21.557c75.129,31.85 164.287,9.549 205.255,-47.836c1.612,12.581 5.342,24.701 10.888,36.095c-44.703,46.411 -124.748,62.311 -193.161,33.308c-24.507,-10.389 -44.827,-25.398 -60.196,-43.124Zm1146.57,-560.461c33.665,26.509 55.439,60.538 45.361,99.558c-14.672,56.809 -28.161,91.2 -111.832,110.835c54.437,47.93 59.296,129.411 7.305,186.802c-51.992,57.391 -143.312,71.352 -208.507,35.298c25.422,63.975 -10.36,139.243 -85.49,171.092c-71.53,30.324 -155.778,11.561 -199.041,-39.832c46.2,34.478 115.662,43.869 176.059,18.265c75.129,-31.849 110.912,-107.117 85.49,-171.092c65.194,36.054 156.515,22.093 208.506,-35.298c51.991,-57.391 47.132,-138.872 -7.304,-186.802c83.671,-19.635 97.16,-54.026 111.832,-110.835c7.523,-29.127 -2.703,-55.473 -22.379,-77.991Zm-1382.42,394.889c53.21,40.815 130.425,47.638 187.568,16.037c-4.459,11.221 -7.035,22.79 -7.844,34.42c-60.828,18.048 -133.472,0.648 -177.68,-48.151c-0.691,-0.764 -1.373,-1.531 -2.044,-2.306Zm-42.782,-215.951c8.186,4.807 17.831,8.253 29.148,9.888c-3.435,3.025 -6.673,6.183 -9.707,9.456c-7.871,-5.274 -14.277,-11.879 -19.441,-19.344Zm35.275,-253.049c13.691,10.329 29.487,18.516 46.899,23.881c-4.927,1.518 -9.619,3.013 -14.09,4.496c-12.476,-7.927 -23.511,-17.525 -32.809,-28.377Zm1332.62,-232.254c28.305,21.005 48.551,53.578 58.423,91.651c17.049,65.754 -19.166,131.5 -81.523,159.108c-13.416,-6.047 -27.024,-11.13 -40.111,-15.163c72.669,-22.391 117.207,-93.947 98.651,-165.512c-6.945,-26.787 -19.026,-50.852 -35.44,-70.084Zm-125.628,-225.82c7.476,5.735 14.485,12.152 20.895,19.228c45.305,50.011 62.767,114.763 30.484,162.307c-12.719,-2.496 -26.281,-3.166 -40.588,-1.748c53.701,-47.283 39.514,-122.667 -10.791,-179.787Z" style="fill:#d9d9d9;"/><path d="M1595.39,964.26c-30.564,-177.848 74.84,230.683 -37.278,412.902c-88.876,-41.347 -818.712,-47.187 -930.648,3.754c-77.059,-135.51 -33.929,-541.267 -30.475,-419.274c87.818,-163.08 259.262,-106.74 486.455,-116.85c154.116,-6.858 206.932,-72.352 336.217,-22.373c46.755,18.074 98.52,108.983 175.729,141.841Z" style="fill:#f9cfb0;"/><clipPath id="_clip1"><path d="M1595.39,964.26c-30.564,-177.848 74.84,230.683 -37.278,412.902c-88.876,-41.347 -818.712,-47.187 -930.648,3.754c-77.059,-135.51 -33.929,-541.267 -30.475,-419.274c87.818,-163.08 259.262,-106.74 486.455,-116.85c154.116,-6.858 206.932,-72.352 336.217,-22.373c46.755,18.074 98.52,108.983 175.729,141.841Z"/></clipPath><g clip-path="url(#_clip1)"><path d="M1568.94,1369.36c-3.456,9.625 46.348,49.701 33.29,36.966c263.515,25.454 270.235,-594.969 321.935,-759.226l-10.15,-2.092l-3.192,1.03l3.917,1.134c-60.477,61.522 -83.393,254.727 -127.526,397.025c-58.373,188.211 -136.623,325.376 -218.274,325.163Zm-77.403,-430.462c3.709,4.455 7.333,9.17 10.864,14.144c1.292,-1.373 2.577,-2.733 3.853,-4.076c-4.822,-3.632 -9.73,-6.984 -14.717,-10.068Z" style="fill:#eabd9b;"/><path d="M622.245,1368.78c4.321,9.445 -34.807,59.071 -24.836,43.745c-220.676,62.374 -285.057,-594.343 -384.82,-737.024l8.762,-3.802l2.973,0.558l-3.338,1.806c61.785,54.204 112.778,229.74 170.482,370.478c76.323,186.148 158.146,337.566 230.777,324.239Zm13.121,-459.596c-2.724,5.223 -5.338,10.703 -7.835,16.438c-1.328,-1.22 -2.648,-2.426 -3.957,-3.617c3.821,-4.547 7.753,-8.816 11.792,-12.821Z" style="fill:#eabd9b;"/><path d="M839.347,1758.56c5.006,9.099 112.042,-18.135 120.854,-34.154c-114.958,54.392 -209.765,-84.92 -274.975,-271.103c-53.29,-152.149 -88.047,-346.551 -87.651,-401.141c-58.187,31.023 -51.398,322.668 103.725,439.745c192.694,145.433 52.939,303.35 138.047,266.653Z" style="fill:#eabd9b;"/><path d="M1390.12,1870.39c-4.623,9.3 -254.112,-235.429 -263.584,-251.068c112.904,-44.17 170.503,-73.424 186.095,-82.292c89.551,-50.932 193.238,-137.123 222.189,-178.83c15.308,-22.054 76.048,-154.565 67.439,-203.666c19.04,32.302 14.534,304.291 -85.319,443.684c-141.667,197.768 -40.257,305.292 -126.82,272.172Z" style="fill:#eabd9b;"/></g><path d="M1595.39,964.26c-30.564,-177.848 74.84,230.683 -37.278,412.902c-88.876,-41.347 -818.712,-47.187 -930.648,3.754c-77.059,-135.51 -33.929,-541.267 -30.475,-419.274c87.818,-163.08 259.262,-106.74 486.455,-116.85c154.116,-6.858 206.932,-72.352 336.217,-22.373c46.755,18.074 98.52,108.983 175.729,141.841Z" style="fill:none;stroke:#000;stroke-width:16.67px;"/><path d="M865.535,1088.53c21.061,-11.329 -26.535,-35.592 -62.355,-29.305c-39.359,6.909 -71.354,34.348 -70.207,55.285c0.434,7.915 41.54,-7.732 68.455,-20.737c25.91,-12.518 58.603,-2.282 64.107,-5.243Z" style="fill:#fefffd;"/><clipPath id="_clip2"><path d="M865.535,1088.53c21.061,-11.329 -26.535,-35.592 -62.355,-29.305c-39.359,6.909 -71.354,34.348 -70.207,55.285c0.434,7.915 41.54,-7.732 68.455,-20.737c25.91,-12.518 58.603,-2.282 64.107,-5.243Z"/></clipPath><g clip-path="url(#_clip2)"><path d="M730.96,1116.64c9.435,-19.657 40.549,-49.221 70.871,-53.959c42.086,-6.575 66.268,9.891 66.568,24.29l-0.304,-0.042c2.386,0.704 4.656,1.336 6.805,1.858c1.133,-14.373 -25.59,-30.792 -68.069,-31.885c-44.502,-1.146 -79.037,43.01 -76.189,59.817c0.107,-0.025 0.213,-0.052 0.318,-0.079Z" style="fill:#e6e6e6;"/></g><path d="M1285.91,1092.45c-21.061,-11.328 26.535,-35.591 62.355,-29.304c39.359,6.908 71.354,34.347 70.207,55.284c-0.434,7.915 -41.54,-7.732 -68.455,-20.736c-25.91,-12.519 -58.602,-2.283 -64.107,-5.244Z" style="fill:#fefffd;"/><clipPath id="_clip3"><path d="M1285.91,1092.45c-21.061,-11.328 26.535,-35.591 62.355,-29.304c39.359,6.908 71.354,34.347 70.207,55.284c-0.434,7.915 -41.54,-7.732 -68.455,-20.736c-25.91,-12.519 -58.602,-2.283 -64.107,-5.244Z"/></clipPath><g clip-path="url(#_clip3)"><path d="M1420.49,1120.57c-9.435,-19.658 -40.549,-49.222 -70.871,-53.959c-42.086,-6.576 -66.268,9.89 -66.568,24.29l0.304,-0.042c-2.385,0.704 -4.656,1.336 -6.805,1.858c-1.133,-14.373 25.59,-30.792 68.069,-31.886c44.502,-1.145 79.037,43.011 76.189,59.817c-0.107,-0.025 -0.213,-0.051 -0.318,-0.078Z" style="fill:#e6e6e6;"/></g><g><path d="M1667.11,1319.33c0.297,12.404 -7.044,83.624 -43.66,122.463c-23.862,25.311 -99.508,89.919 -230.347,102.941c-84.86,8.446 -266.02,8.173 -294.606,-158.033c-12.996,-75.566 38.558,-129.021 123.813,-131.063c60.403,-1.447 85.182,24.207 170.793,51.976c30.773,9.982 39.456,17.214 111.694,33.638c28.359,6.448 78.952,4.704 105.303,0c12.184,-2.175 56.904,-26.348 57.01,-21.922Z" style="fill:#fefffd;stroke:#000;stroke-width:33.33px;"/><path d="M1667.11,1319.33c0.297,12.404 -7.044,83.624 -43.66,122.463c-23.862,25.311 -99.508,89.919 -230.347,102.941c-84.86,8.446 -266.02,8.173 -294.606,-158.033c-12.996,-75.566 38.558,-129.021 123.813,-131.063c60.403,-1.447 85.182,24.207 170.793,51.976c30.773,9.982 39.456,17.214 111.694,33.638c28.359,6.448 78.952,4.704 105.303,0c12.184,-2.175 56.904,-26.348 57.01,-21.922Z" style="fill:#fefffd;"/><path d="M1659.1,1320.88c4.835,-1.891 7.978,-2.718 8.006,-1.549c0.297,12.404 -7.044,83.624 -43.66,122.463c-23.862,25.311 -99.508,89.919 -230.347,102.941c-65.334,6.503 -187.749,7.837 -253.663,-67.735c66.109,65.363 178.767,66.867 240.628,62.389c131.143,-9.494 208.501,-72.042 233.036,-96.702c37.648,-37.838 46.904,-108.835 46.942,-121.242c0.001,-0.378 -0.329,-0.557 -0.942,-0.565Z" style="fill:#bfbfbf;"/></g><g><path d="M499.585,1319.33c-0.297,12.404 7.044,83.624 43.66,122.463c23.862,25.311 99.507,89.919 230.347,102.941c84.86,8.446 266.019,8.173 294.605,-158.033c12.997,-75.566 -38.558,-129.021 -123.812,-131.063c-60.403,-1.447 -85.183,24.207 -170.793,51.976c-30.773,9.982 -39.456,17.214 -111.694,33.638c-28.359,6.448 -78.953,4.704 -105.303,0c-12.184,-2.175 -56.904,-26.348 -57.01,-21.922Z" style="fill:#fefffd;stroke:#000;stroke-width:33.33px;"/><path d="M499.585,1319.33c-0.297,12.404 7.044,83.624 43.66,122.463c23.862,25.311 99.507,89.919 230.347,102.941c84.86,8.446 266.019,8.173 294.605,-158.033c12.997,-75.566 -38.558,-129.021 -123.812,-131.063c-60.403,-1.447 -85.183,24.207 -170.793,51.976c-30.773,9.982 -39.456,17.214 -111.694,33.638c-28.359,6.448 -78.953,4.704 -105.303,0c-12.184,-2.175 -56.904,-26.348 -57.01,-21.922Z" style="fill:#fefffd;"/><path d="M507.59,1320.88c-4.835,-1.891 -7.977,-2.718 -8.005,-1.549c-0.297,12.404 7.044,83.624 43.66,122.463c23.862,25.311 99.507,89.919 230.347,102.941c65.333,6.503 187.748,7.837 253.663,-67.735c-66.109,65.363 -178.767,66.867 -240.629,62.389c-131.142,-9.494 -208.5,-72.042 -233.036,-96.702c-37.648,-37.838 -46.904,-108.835 -46.941,-121.242c-0.001,-0.378 0.329,-0.557 0.941,-0.565Z" style="fill:#bfbfbf;"/></g><ellipse cx="1080.01" cy="1255.58" rx="81.539" ry="85.173" style="fill:#f9cfb0;stroke:#623a28;stroke-width:18.75px;"/><ellipse cx="1080.01" cy="1255.58" rx="81.539" ry="85.173" style="fill:#f9cfb0;"/><clipPath id="_clip4"><ellipse cx="1080.01" cy="1255.58" rx="81.539" ry="85.173"/></clipPath><g clip-path="url(#_clip4)"><path d="M1114.53,1178.4c27.773,13.591 47.025,43.054 47.025,77.177c0,47.009 -36.536,85.174 -81.539,85.174c-19.324,-0 -37.087,-7.037 -51.062,-18.786c10.479,5.128 22.178,7.995 34.513,7.995c45.003,0 81.539,-38.165 81.539,-85.173c0,-26.823 -11.895,-50.766 -30.476,-66.387Z" style="fill:#eabd9b;"/><path d="M1042.34,1333.77c-2.864,-1.123 -5.684,-2.423 -8.453,-3.907c-39.666,-21.256 -53.844,-72.153 -31.64,-113.587c22.203,-41.434 72.433,-57.816 112.1,-36.56c2.768,1.484 5.413,3.112 7.934,4.875c-38.088,-14.94 -82.993,1.925 -103.646,40.467c-20.654,38.542 -9.828,85.272 23.705,108.712Z" style="fill:#eabd9b;"/></g><ellipse cx="830.296" cy="1170.32" rx="40.423" ry="49.179" style="fill:#1a1a1a;"/><path d="M803.855,1207.51c-11.39,-8.7 -18.97,-24.121 -18.97,-41.68c-0,-27.143 18.113,-49.179 40.423,-49.179c10.106,-0 19.351,4.522 26.441,11.991c-6.221,-4.751 -13.575,-7.499 -21.453,-7.499c-22.31,0 -40.423,22.037 -40.423,49.179c-0,14.848 5.419,28.167 13.982,37.188Z" style="fill:#4d4d4d;"/><ellipse cx="1341.44" cy="1171.07" rx="42.457" ry="49.745" style="fill:#1a1a1a;"/><path d="M1322.28,1215.46c-13.818,-8.212 -23.295,-25.017 -23.295,-44.395c0,-27.455 19.025,-49.745 42.457,-49.745c9.111,0 17.555,3.37 24.475,9.104c-5.756,-3.421 -12.268,-5.351 -19.162,-5.351c-23.432,0 -42.457,22.29 -42.457,49.745c0,16.781 7.107,31.632 17.982,40.642Z" style="fill:#4d4d4d;"/></g><g><path d="M657.706,630.395c0,-0 -5.958,-14.183 0,-58.477c0,0 55.63,-157.298 189.853,-273.896c153.788,-133.595 365.776,-201.79 441.805,-211.533c76.028,-9.743 213.696,-16.145 283.383,80.147c69.687,96.292 270.955,535.456 257.907,647.084l-61.973,0.604c12.785,16.17 -219.452,-281.975 -275.802,-385.423c-28.349,-52.044 22.229,226.124 38.446,220.719c0,-0 -110.425,86.284 -122.346,125.592c-0,-0 -97.055,-116.477 -114.845,-192.454c0,-0 -73.713,198.648 -152.47,223.578c-0,-0 -154.38,-95.507 -172.718,-246.733c0,-0 -74.472,226.609 -133.28,246.733c0,-0 -55.668,-170.5 -177.96,-175.941" style="fill:#d20018;stroke:#000;stroke-width:33.33px;"/><path d="M657.706,630.395c0,-0 -5.958,-14.183 0,-58.477c0,0 55.63,-157.298 189.853,-273.896c153.788,-133.595 365.776,-201.79 441.805,-211.533c76.028,-9.743 213.696,-16.145 283.383,80.147c69.687,96.292 270.955,535.456 257.907,647.084l-61.973,0.604c12.785,16.17 -219.452,-281.975 -275.802,-385.423c-28.349,-52.044 22.229,226.124 38.446,220.719c0,-0 -110.425,86.284 -122.346,125.592c-0,-0 -97.055,-116.477 -114.845,-192.454c0,-0 -73.713,198.648 -152.47,223.578c-0,-0 -154.38,-95.507 -172.718,-246.733c0,-0 -74.472,226.609 -133.28,246.733c0,-0 -55.668,-170.5 -177.96,-175.941" style="fill:#d20018;"/><path d="M1375.72,81.388c69.821,1.551 149.341,19.355 197.028,85.248c69.687,96.292 270.955,535.456 257.907,647.084l-61.944,0.603c0.638,0.832 0.649,0.858 -0.029,0.001l0.029,-0.001l-0.4,-0.526l-0.871,-1.132l36.594,-0.357c13.048,-111.627 -188.22,-550.792 -257.908,-647.084c-41.714,-57.64 -107.788,-78.483 -170.406,-83.836Zm16.976,673.349c30.547,-42.877 112.009,-106.529 112.009,-106.529c-16.217,5.405 -40.039,-271.412 -11.69,-219.368c5.263,9.662 -2.568,23.155 5.409,35.78c7.323,65.832 21.923,188.659 32.902,185c0,-0 -110.425,86.284 -122.346,125.592c-0,-0 -6.431,-7.717 -16.284,-20.475Z" style="fill:#9d0a0e;"/><path d="M1554,657.384c-159.905,-61.735 -743.529,-157.591 -925.245,-90.297c-67.774,25.099 -70.653,88.287 -80.708,165.268c-8.817,67.505 -35.759,145.616 53.287,217.953c458.031,68.422 802.47,63.003 986.851,-12.812c-15.778,-43.653 44.061,-68.875 53.023,-131.977c12.054,-84.878 -17.735,-121.314 -87.208,-148.135Z" style="fill:#fefffd;stroke:#000;stroke-width:35.42px;"/><path d="M1554,657.384c-159.905,-61.735 -743.529,-157.591 -925.245,-90.297c-67.774,25.099 -70.653,88.287 -80.708,165.268c-8.817,67.505 -35.759,145.616 53.287,217.953c458.031,68.422 802.47,63.003 986.851,-12.812c-15.778,-43.653 44.061,-68.875 53.023,-131.977c12.054,-84.878 -17.735,-121.314 -87.208,-148.135Z" style="fill:#fefffd;"/><path d="M1459.85,628.882c26.757,7.357 49.473,14.561 67.063,21.352c69.473,26.821 99.261,63.257 87.207,148.135c-8.961,63.102 -68.801,88.324 -53.023,131.977c-181.356,74.572 -517.565,81.037 -964.376,16.122c1.496,1.277 3.035,2.559 4.611,3.84c458.031,68.422 802.47,63.003 986.851,-12.812c-15.778,-43.653 44.061,-68.875 53.023,-131.977c12.054,-84.878 -17.735,-121.314 -87.208,-148.135c-23.266,-8.983 -55.503,-18.687 -94.148,-28.502Z" style="fill:#e6e6e6;"/><g><ellipse cx="1877.55" cy="887.797" rx="128.838" ry="116.644" style="fill:#fefffd;"/><clipPath id="_clip5"><ellipse cx="1877.55" cy="887.797" rx="128.838" ry="116.644"/></clipPath><g clip-path="url(#_clip5)"><path d="M1860.1,1003.99c-2.981,0.3 -6.005,0.453 -9.061,0.453c-56.479,-0 -102.333,-52.267 -102.333,-116.644c0,-64.377 45.854,-116.644 102.333,-116.644c3.056,0 6.08,0.153 9.061,0.453c-52.245,5.238 -93.272,55.296 -93.272,116.191c0,60.894 41.027,110.953 93.272,116.191Z" style="fill:#f2f2f2;"/><path d="M1867.42,771.51c3.346,-0.237 6.722,-0.357 10.128,-0.357c71.107,0 128.838,52.267 128.838,116.644c-0,64.377 -57.731,116.644 -128.838,116.644c-3.406,-0 -6.782,-0.12 -10.128,-0.357c66.378,-4.678 118.711,-54.993 118.711,-116.287c-0,-61.294 -52.333,-111.609 -118.711,-116.287Z" style="fill:#ccc;"/><path d="M1888.84,1009.07c-1.003,0.022 -2.01,0.032 -3.021,0.032c-71.633,0 -129.79,-53.31 -129.79,-118.973c0,-65.663 58.157,-118.973 129.79,-118.973c1.011,0 2.018,0.011 3.021,0.033c-70.241,1.473 -132.811,51.874 -132.811,116.611c0,64.737 62.57,119.796 132.811,121.27Z" style="fill:#f6ca04;stroke:#fefffd;stroke-width:8.33px;"/></g><ellipse cx="1877.55" cy="887.797" rx="128.838" ry="116.644" style="fill:none;stroke:#000;stroke-width:14.58px;"/></g></g></svg>