<svg xmlns="http://www.w3.org/2000/svg" viewBox="0 0 1674 2077" xml:space="preserve" style="fill-rule:evenodd;clip-rule:evenodd;stroke-linecap:round;stroke-linejoin:round;stroke-miterlimit:1.5"><path d="M413.989 855.156c-25.422-63.975 701.916-84.514 676.494-20.539 65.195-36.054 156.516-22.093 208.507 35.298 51.991 57.391 67.314 134.197 12.878 182.126 76.508-7.582 131.722 44.552 150.277 116.117 18.556 71.566-25.982 143.122-98.651 165.513 72.669 22.391 161.377 77.176 142.889 148.759-14.672 56.81-28.161 91.201-111.832 110.836 54.436 47.929 59.295 129.41 7.304 186.801-51.991 57.391-143.312 71.352-208.506 35.299 25.422 63.974-10.361 139.242-85.49 171.092-75.129 31.849-164.287 9.548-205.256-47.836-8.627 67.349-77.964 121.496-161.351 121.496s-152.724-54.147-161.352-121.496c-40.968 57.384-130.126 79.685-205.255 47.836-75.13-31.85-110.912-107.118-85.49-171.092-65.195 36.053-156.515 22.092-208.506-35.299-51.992-57.391-47.132-138.872 7.304-186.801-85.023-12.285-75.691-126.797-63.284-152.963 22.006-46.413 43.641-63.702 116.31-86.093-72.669-22.391-117.207-93.947-98.652-165.513 18.556-71.565 93.952-119.024 170.46-111.441-54.436-47.93-59.295-129.411-7.304-186.802 51.991-57.391 143.311-71.352 208.506-35.298Z" style="fill:#fefffd;stroke:#000;stroke-width:33.33px"/><path d="M413.989 855.156c-25.422-63.975 701.916-84.514 676.494-20.539 65.195-36.054 156.516-22.093 208.507 35.298 51.991 57.391 67.314 134.197 12.878 182.126 76.508-7.582 131.722 44.552 150.277 116.117 18.556 71.566-25.982 143.122-98.651 165.513 72.669 22.391 161.377 77.176 142.889 148.759-14.672 56.81-28.161 91.201-111.832 110.836 54.436 47.929 59.295 129.41 7.304 186.801-51.991 57.391-143.312 71.352-208.506 35.299 25.422 63.974-10.361 139.242-85.49 171.092-75.129 31.849-164.287 9.548-205.256-47.836-8.627 67.349-77.964 121.496-161.351 121.496s-152.724-54.147-161.352-121.496c-40.968 57.384-130.126 79.685-205.255 47.836-75.13-31.85-110.912-107.118-85.49-171.092-65.195 36.053-156.515 22.092-208.506-35.299-51.992-57.391-47.132-138.872 7.304-186.801-85.023-12.285-75.691-126.797-63.284-152.963 22.006-46.413 43.641-63.702 116.31-86.093-72.669-22.391-117.207-93.947-98.652-165.513 18.556-71.565 93.952-119.024 170.46-111.441-54.436-47.93-59.295-129.411-7.304-186.802 51.991-57.391 143.311-71.352 208.506-35.298Z" style="fill:#fefffd"/><path d="M609.536 2003.04c28.843 21.968 67.031 35.51 108.733 35.51 83.388 0 152.724-54.147 161.352-121.496 6.424 8.997 14.032 17.133 22.59 24.335-10.138 66.054-78.714 118.728-160.959 118.728-54.035 0-102.17-22.737-131.716-57.077Zm-295.087-59.707c10.993 8.422 23.442 15.719 37.213 21.557 75.129 31.849 164.287 9.548 205.256-47.836 1.611 12.58 5.341 24.701 10.887 36.095-44.702 46.411-124.748 62.31-193.16 33.308-24.507-10.39-44.828-25.399-60.196-43.124Zm1146.57-560.462c33.665 26.51 55.439 60.538 45.361 99.558-14.672 56.81-28.161 91.201-111.832 110.836 54.436 47.929 59.295 129.41 7.304 186.801-51.991 57.391-143.312 71.352-208.506 35.299 25.422 63.974-10.361 139.242-85.49 171.092-71.531 30.324-155.778 11.56-199.041-39.833 46.199 34.478 115.662 43.87 176.058 18.266 75.13-31.85 110.912-107.118 85.49-171.093 65.195 36.054 156.515 22.093 208.507-35.298 51.991-57.391 47.132-138.872-7.305-186.801 83.671-19.635 97.16-54.027 111.832-110.836 7.523-29.127-2.702-55.473-22.378-77.991Zm-1382.42 394.89c53.21 40.815 130.424 47.638 187.567 16.036a114.507 114.507 0 0 0-7.844 34.421c-60.828 18.047-133.471.648-177.679-48.152a137.492 137.492 0 0 1-2.044-2.305ZM35.817 1561.81c8.186 4.806 17.831 8.252 29.147 9.888a133.461 133.461 0 0 0-9.706 9.456c-7.871-5.274-14.278-11.88-19.441-19.344Zm35.274-253.05c13.691 10.329 29.488 18.517 46.899 23.882a690.281 690.281 0 0 0-14.089 4.495c-12.476-7.926-23.512-17.524-32.81-28.377Zm1332.62-232.253c28.305 21.004 48.552 53.577 58.423 91.65 17.049 65.755-19.165 131.501-81.522 159.109a346.754 346.754 0 0 0-40.112-15.163c72.669-22.391 117.207-93.947 98.652-165.513-6.946-26.787-19.027-50.851-35.441-70.083Zm-125.628-225.821a157.699 157.699 0 0 1 20.896 19.228c45.305 50.011 62.767 114.763 30.483 162.307-12.718-2.496-26.281-3.166-40.588-1.748 53.702-47.283 39.514-122.666-10.791-179.787Z" style="fill:#d9d9d9"/><path d="M1255.16 899.656c-30.563-177.849 74.841 230.682-37.277 412.901-88.877-41.347-818.712-47.187-930.649 3.755-77.059-135.51-33.929-541.268-30.475-419.275 87.818-163.079 259.262-106.739 486.456-116.849 154.115-6.858 206.932-72.353 336.217-22.374 46.755 18.075 98.52 108.984 175.728 141.842Z" style="fill:#f9cfb0"/><clipPath id="a"><path d="M1255.16 899.656c-30.563-177.849 74.841 230.682-37.277 412.901-88.877-41.347-818.712-47.187-930.649 3.755-77.059-135.51-33.929-541.268-30.475-419.275 87.818-163.079 259.262-106.739 486.456-116.849 154.115-6.858 206.932-72.353 336.217-22.374 46.755 18.075 98.52 108.984 175.728 141.842Z"/></clipPath><g clip-path="url(#a)"><path d="M1228.71 1304.76c-3.455 9.625 46.349 49.702 33.29 36.967 263.516 25.454 270.235-594.969 321.935-759.226l-10.15-2.092-3.192 1.03 3.917 1.133c-60.477 61.523-83.392 254.728-127.525 397.026-58.374 188.211-136.624 325.375-218.275 325.162Zm-77.403-430.462c3.71 4.455 7.334 9.17 10.864 14.145a1085.37 1085.37 0 0 1 3.853-4.077 194.197 194.197 0 0 0-14.717-10.068ZM282.011 1304.18c4.322 9.444-34.806 59.07-24.835 43.745-220.677 62.373-285.058-594.343-384.82-737.024l8.761-3.802 2.974.557-3.339 1.806C-57.463 663.666-6.47 839.203 51.235 979.941c76.322 186.147 158.145 337.566 230.776 324.239Zm13.121-459.596a260.754 260.754 0 0 0-7.835 16.437 963.556 963.556 0 0 0-3.957-3.616 191.888 191.888 0 0 1 11.792-12.821Z" style="fill:#eabd9b"/><path d="M499.113 1693.96c5.007 9.1 112.042-18.134 120.855-34.154-114.959 54.392-209.766-84.92-274.976-271.103-53.29-152.148-88.046-346.55-87.651-401.141-58.187 31.024-51.398 322.669 103.725 439.745 192.694 145.433 52.94 303.351 138.047 266.653ZM1049.88 1805.79c-4.623 9.3-254.113-235.429-263.585-251.067 112.905-44.171 170.503-73.425 186.096-82.293 89.551-50.931 193.238-137.123 222.188-178.83 15.309-22.054 76.048-154.564 67.439-203.666 19.04 32.302 14.534 304.291-85.318 443.685-141.668 197.768-40.258 305.292-126.82 272.171Z" style="fill:#eabd9b"/></g><path d="M1255.16 899.656c-30.563-177.849 74.841 230.682-37.277 412.901-88.877-41.347-818.712-47.187-930.649 3.755-77.059-135.51-33.929-541.268-30.475-419.275 87.818-163.079 259.262-106.739 486.456-116.849 154.115-6.858 206.932-72.353 336.217-22.374 46.755 18.075 98.52 108.984 175.728 141.842Z" style="fill:none;stroke:#000;stroke-width:16.67px"/><path d="M525.302 1023.92c21.061-11.328-26.535-35.591-62.356-29.304-39.359 6.908-71.354 34.347-70.206 55.284.434 7.915 41.539-7.732 68.455-20.736 25.91-12.519 58.602-2.283 64.107-5.244Z" style="fill:#fefffd"/><clipPath id="b"><path d="M525.302 1023.92c21.061-11.328-26.535-35.591-62.356-29.304-39.359 6.908-71.354 34.347-70.206 55.284.434 7.915 41.539-7.732 68.455-20.736 25.91-12.519 58.602-2.283 64.107-5.244Z"/></clipPath><g clip-path="url(#b)"><path d="M390.726 1052.04c9.436-19.658 40.55-49.222 70.872-53.959 42.086-6.576 66.268 9.89 66.567 24.29l-.303-.042c2.385.704 4.655 1.336 6.804 1.858 1.133-14.374-25.59-30.793-68.068-31.886-44.502-1.145-79.038 43.011-76.189 59.817.106-.025.212-.051.317-.078Z" style="fill:#e6e6e6"/></g><path d="M945.676 1027.85c-21.06-11.329 26.535-35.592 62.356-29.305 39.359 6.909 71.354 34.348 70.206 55.285-.433 7.915-41.539-7.732-68.455-20.737-25.91-12.518-58.602-2.282-64.107-5.243Z" style="fill:#fefffd"/><clipPath id="c"><path d="M945.676 1027.85c-21.06-11.329 26.535-35.592 62.356-29.305 39.359 6.909 71.354 34.348 70.206 55.285-.433 7.915-41.539-7.732-68.455-20.737-25.91-12.518-58.602-2.282-64.107-5.243Z"/></clipPath><g clip-path="url(#c)"><path d="M1080.25 1055.96c-9.436-19.657-40.55-49.221-70.872-53.959-42.086-6.575-66.268 9.891-66.567 24.29l.303-.042c-2.385.704-4.655 1.336-6.804 1.858-1.133-14.373 25.59-30.792 68.068-31.885 44.502-1.146 79.038 43.01 76.189 59.817a16.302 16.302 0 0 1-.317-.079Z" style="fill:#e6e6e6"/></g><path d="M1326.87 1254.73c.297 12.403-7.044 83.623-43.659 122.462-23.863 25.312-99.508 89.92-230.348 102.942-84.859 8.446-266.019 8.172-294.605-158.034-12.997-75.566 38.558-129.021 123.812-131.063 60.403-1.446 85.183 24.207 170.793 51.976 30.774 9.982 39.456 17.215 111.694 33.639 28.359 6.447 78.953 4.703 105.303 0 12.184-2.175 56.904-26.348 57.01-21.922Z" style="fill:#fefffd;stroke:#000;stroke-width:33.33px"/><path d="M1326.87 1254.73c.297 12.403-7.044 83.623-43.659 122.462-23.863 25.312-99.508 89.92-230.348 102.942-84.859 8.446-266.019 8.172-294.605-158.034-12.997-75.566 38.558-129.021 123.812-131.063 60.403-1.446 85.183 24.207 170.793 51.976 30.774 9.982 39.456 17.215 111.694 33.639 28.359 6.447 78.953 4.703 105.303 0 12.184-2.175 56.904-26.348 57.01-21.922Z" style="fill:#fefffd"/><path d="M1318.87 1256.28c4.835-1.891 7.977-2.718 8.005-1.548.297 12.403-7.044 83.623-43.659 122.462-23.863 25.312-99.508 89.92-230.348 102.942-65.333 6.502-187.748 7.836-253.663-67.735 66.109 65.363 178.767 66.867 240.629 62.388 131.143-9.494 208.5-72.041 233.036-96.701 37.648-37.839 46.904-108.835 46.941-121.243.001-.378-.329-.556-.941-.565Z" style="fill:#bfbfbf"/><path d="M159.352 1254.73c-.297 12.403 7.044 83.623 43.659 122.462 23.863 25.312 99.508 89.92 230.347 102.942 84.86 8.446 266.02 8.172 294.606-158.034 12.997-75.566-38.558-129.021-123.813-131.063-60.403-1.446-85.182 24.207-170.793 51.976-30.773 9.982-39.455 17.215-111.694 33.639-28.359 6.447-78.952 4.703-105.302 0-12.185-2.175-56.904-26.348-57.01-21.922Z" style="fill:#fefffd;stroke:#000;stroke-width:33.33px"/><path d="M159.352 1254.73c-.297 12.403 7.044 83.623 43.659 122.462 23.863 25.312 99.508 89.92 230.347 102.942 84.86 8.446 266.02 8.172 294.606-158.034 12.997-75.566-38.558-129.021-123.813-131.063-60.403-1.446-85.182 24.207-170.793 51.976-30.773 9.982-39.455 17.215-111.694 33.639-28.359 6.447-78.952 4.703-105.302 0-12.185-2.175-56.904-26.348-57.01-21.922Z" style="fill:#fefffd"/><path d="M167.357 1256.28c-4.835-1.891-7.977-2.718-8.005-1.548-.297 12.403 7.044 83.623 43.659 122.462 23.863 25.312 99.508 89.92 230.347 102.942 65.334 6.502 187.749 7.836 253.663-67.735-66.108 65.363-178.767 66.867-240.628 62.388-131.143-9.494-208.5-72.041-233.036-96.701-37.648-37.839-46.904-108.835-46.941-121.243-.001-.378.328-.556.941-.565Z" style="fill:#bfbfbf"/><ellipse cx="739.781" cy="1190.98" rx="81.539" ry="85.173" style="fill:#f9cfb0;stroke:#623a28;stroke-width:18.75px"/><ellipse cx="739.781" cy="1190.98" rx="81.539" ry="85.173" style="fill:#f9cfb0"/><clipPath id="d"><ellipse cx="739.781" cy="1190.98" rx="81.539" ry="85.173"/></clipPath><g clip-path="url(#d)"><path d="M774.294 1113.8c27.774 13.591 47.026 43.055 47.026 77.178 0 47.008-36.537 85.173-81.539 85.173-19.324 0-37.088-7.037-51.063-18.786a78.27 78.27 0 0 0 34.514 7.996c45.003 0 81.539-38.165 81.539-85.173 0-26.823-11.896-50.767-30.477-66.388Z" style="fill:#eabd9b"/><path d="M702.106 1269.17a78.825 78.825 0 0 1-8.453-3.908c-39.667-21.256-53.844-72.152-31.641-113.586 22.203-41.434 72.434-57.816 112.1-36.56a78.647 78.647 0 0 1 7.935 4.874c-38.089-14.94-82.993 1.926-103.647 40.468-20.654 38.542-9.828 85.271 23.706 108.712Z" style="fill:#eabd9b"/></g><ellipse cx="490.062" cy="1105.71" rx="40.423" ry="49.179" style="fill:#1a1a1a"/><path d="M463.621 1142.9c-11.39-8.699-18.97-24.121-18.97-41.68 0-27.142 18.113-49.179 40.423-49.179 10.107 0 19.352 4.522 26.441 11.992-6.22-4.752-13.575-7.5-21.453-7.5-22.31 0-40.423 22.037-40.423 49.18 0 14.847 5.42 28.166 13.982 37.187Z" style="fill:#4d4d4d"/><ellipse cx="1001.21" cy="1106.46" rx="42.457" ry="49.745" style="fill:#1a1a1a"/><path d="M982.047 1150.86c-13.817-8.212-23.294-25.017-23.294-44.394 0-27.455 19.024-49.745 42.457-49.745 9.11 0 17.555 3.369 24.475 9.103-5.756-3.421-12.268-5.35-19.162-5.35-23.433 0-42.457 22.29-42.457 49.745 0 16.78 7.107 31.631 17.981 40.641Z" style="fill:#4d4d4d"/><g><path d="M317.473 565.79s-5.959-14.182 0-58.477c0 0 55.63-157.298 189.852-273.896C661.113 99.822 873.102 31.627 949.13 21.884c76.029-9.743 213.696-16.145 283.383 80.147 69.688 96.292 270.956 535.457 257.908 647.085l-61.974.603c12.786 16.17-219.452-281.974-275.802-385.422-28.349-52.045 22.23 226.124 38.447 220.718 0 0-110.426 86.284-122.347 125.592 0 0-97.054-116.476-114.844-192.454 0 0-73.713 198.648-152.471 223.578 0 0-154.38-95.507-172.717-246.733 0 0-74.472 226.61-133.28 246.733 0 0-55.668-170.499-177.96-175.941" style="fill:#d20018;stroke:#000;stroke-width:33.33px"/><path d="M317.473 565.79s-5.959-14.182 0-58.477c0 0 55.63-157.298 189.852-273.896C661.113 99.822 873.102 31.627 949.13 21.884c76.029-9.743 213.696-16.145 283.383 80.147 69.688 96.292 270.956 535.457 257.908 647.085l-61.974.603c12.786 16.17-219.452-281.974-275.802-385.422-28.349-52.045 22.23 226.124 38.447 220.718 0 0-110.426 86.284-122.347 125.592 0 0-97.054-116.476-114.844-192.454 0 0-73.713 198.648-152.471 223.578 0 0-154.38-95.507-172.717-246.733 0 0-74.472 226.61-133.28 246.733 0 0-55.668-170.499-177.96-175.941" style="fill:#d20018"/><path d="M1035.49 16.783c69.821 1.551 149.341 19.356 197.028 85.248 69.688 96.292 270.956 535.457 257.908 647.085l-61.944.603c.637.831.648.857-.03 0h.03l-.401-.527-.87-1.132 36.593-.356c13.048-111.628-188.22-550.793-257.907-647.085-41.715-57.64-107.788-78.483-170.407-83.836Zm16.977 673.349c30.547-42.876 112.008-106.529 112.008-106.529-16.217 5.406-40.038-271.412-11.689-219.367 5.263 9.662-2.569 23.154 5.408 35.779 7.324 65.832 21.924 188.66 32.903 185 0 0-110.426 86.284-122.347 125.592 0 0-6.43-7.717-16.283-20.475Z" style="fill:#9d0a0e"/><path d="M1213.77 592.779c-159.905-61.735-743.529-157.591-925.245-90.296-67.773 25.098-70.653 88.286-80.708 165.267-8.817 67.505-35.759 145.617 53.288 217.953 458.031 68.422 802.47 63.004 986.85-12.811-15.778-43.653 44.062-68.876 53.023-131.977 12.054-84.878-17.735-121.314-87.208-148.136Z" style="fill:#fefffd;stroke:#000;stroke-width:35.42px"/><path d="M1213.77 592.779c-159.905-61.735-743.529-157.591-925.245-90.296-67.773 25.098-70.653 88.286-80.708 165.267-8.817 67.505-35.759 145.617 53.288 217.953 458.031 68.422 802.47 63.004 986.85-12.811-15.778-43.653 44.062-68.876 53.023-131.977 12.054-84.878-17.735-121.314-87.208-148.136Z" style="fill:#fefffd"/><path d="M1119.62 564.278c26.756 7.356 49.473 14.56 67.062 21.351 69.473 26.822 99.262 63.257 87.208 148.135-8.962 63.102-68.801 88.324-53.023 131.978-181.357 74.571-517.565 81.036-964.376 16.121a242.319 242.319 0 0 0 4.611 3.84c458.031 68.422 802.47 63.004 986.85-12.811-15.778-43.653 44.062-68.876 53.023-131.977 12.054-84.878-17.735-121.314-87.208-148.136-23.266-8.982-55.502-18.687-94.147-28.501Z" style="fill:#e6e6e6"/><ellipse cx="1537.31" cy="823.192" rx="128.838" ry="116.644" style="fill:#fefffd"/><clipPath id="e"><ellipse cx="1537.31" cy="823.192" rx="128.838" ry="116.644"/></clipPath><g clip-path="url(#e)"><path d="M1519.87 939.384a90.805 90.805 0 0 1-9.061.452c-56.479 0-102.333-52.266-102.333-116.644 0-64.377 45.854-116.643 102.333-116.643 3.055 0 6.08.153 9.061.452-52.246 5.238-93.272 55.297-93.272 116.191 0 60.895 41.026 110.953 93.272 116.192Z" style="fill:#f2f2f2"/><path d="M1527.18 706.905c3.347-.236 6.722-.356 10.128-.356 71.108 0 128.838 52.266 128.838 116.643 0 64.378-57.73 116.644-128.838 116.644-3.406 0-6.781-.12-10.128-.356 66.379-4.679 118.711-54.994 118.711-116.288 0-61.293-52.332-111.608-118.711-116.287Z" style="fill:#ccc"/><path d="M1548.6 944.462c-1.003.022-2.01.033-3.02.033-71.633 0-129.79-53.31-129.79-118.973s58.157-118.973 129.79-118.973c1.01 0 2.017.01 3.02.032-70.241 1.474-132.81 51.874-132.81 116.611s62.569 119.797 132.81 121.27Z" style="fill:#f6ca04;stroke:#fefffd;stroke-width:8.33px"/></g><ellipse cx="1537.31" cy="823.192" rx="128.838" ry="116.644" style="fill:none;stroke:#000;stroke-width:14.58px"/></g></svg>