<?xml version="1.0" encoding="UTF-8" standalone="no"?><!DOCTYPE svg PUBLIC "-//W3C//DTD SVG 1.1//EN" "http://www.w3.org/Graphics/SVG/1.1/DTD/svg11.dtd"><svg width="100%" height="100%" viewBox="0 0 1937 1268" version="1.1" xmlns="http://www.w3.org/2000/svg" xmlns:xlink="http://www.w3.org/1999/xlink" xml:space="preserve" xmlns:serif="http://www.serif.com/" style="fill-rule:evenodd;clip-rule:evenodd;stroke-linejoin:round;stroke-miterlimit:2;"><g id="Santa"><path d="M1026.29,393.93c-5.121,33.359 -36.915,57.882 -71.77,49.561c2.526,4.867 2.395,11.909 8.714,14.085c24.944,-8.132 48.49,-19.53 72.502,-29.901c-2.461,-11.398 -4.456,-22.988 -9.446,-33.745m219.053,6.027c12.239,12.721 28.536,22.091 36.719,38.163c-34.705,43.812 -17.624,25.561 -77.492,31.758c-19.033,14.316 -58.497,79.577 -50.354,46.807c-29.934,11.716 -63.391,3.84 -93.456,14.663c-30.997,10.631 -60.861,24.012 -91.858,34.705c1.529,14.663 -7.05,41.236 15.564,43.349c27.138,-1.409 50.553,-24.267 79.286,-16.265c15.167,0.834 14.17,17.288 16.561,27.855c30.2,7.554 73.037,14.919 77.958,51.158c2.395,44.758 -18.094,86.698 -25.675,130.239c-10.709,59.676 -408.83,220.911 -422.399,236.278c28.736,55.836 -139.332,-417.36 -103.745,-376.636c97.01,-100.945 34.782,-222.095 52.482,-315.927c-33.126,9.478 -61.862,-15.238 -69.244,-44.887c17.694,-3.521 28.668,10.501 42.237,18.314c12.703,1.153 20.023,-12.676 22.749,-22.732c-6.785,-20.297 -21.817,-37.778 -21.286,-60.125c-41.281,3.095 -25.028,0.356 -40.973,-22.666c5.256,-4.866 10.508,-9.666 15.764,-14.47c-0.066,-9.541 -0,-19.082 0.2,-28.622c-24.278,38.226 -57.003,71.074 -96.783,94.507c-1.463,13.317 3.458,32.655 -12.973,38.993c-40.041,13.829 -85.008,-34.319 -58.601,-69.858c13.57,-22.091 41.705,-10.886 57.935,1.601c86.733,-154.624 75.093,-252.27 273.184,-217.766c29.999,8.258 36.453,42.259 45.563,66.849c10.242,-2.88 20.489,-5.764 30.731,-8.774c18.159,15.175 32.86,36.881 32.46,60.699c-5.522,13.829 -17.227,24.204 -26.738,35.472c10.508,4.93 20.955,9.926 31.328,15.049c-3.724,9.733 -7.451,19.4 -11.24,29.071c46.953,17.525 38.394,8.773 62.194,58.779c9.711,23.818 26.938,45.78 27.007,72.353c1.93,17.736 -1.528,36.943 7.186,53.4c14.3,16.458 37.45,2.306 49.687,-9.285c11.505,-16.008 -7.251,-29.838 -15.899,-42.003c11.109,5.508 24.809,8.003 33.191,17.61c-1.397,4.867 -4.189,14.534 -5.587,19.401c1.464,3.009 2.927,6.082 4.39,9.092c18.159,-10.757 35.852,1.153 52.017,8.581c45.409,-42.585 55.324,-36.829 115.273,-24.33c60.674,-59.588 209.603,21.737 339.352,56.546c93.936,25.201 -33.426,41.272 -37.74,37.156c-46.967,-44.817 -183.015,-75.05 -225.553,-85.423c-18.042,-4.4 -45.662,-1.4 -33.422,11.321Z" style="fill:#d20018;fill-rule:nonzero;"/><path d="M1026.29,393.93c-5.121,33.359 -36.915,57.882 -71.77,49.561c2.526,4.867 2.395,11.909 8.714,14.085c24.944,-8.132 48.49,-19.53 72.502,-29.901c-2.461,-11.398 -4.456,-22.988 -9.446,-33.745m219.053,6.027c12.239,12.721 28.536,22.091 36.719,38.163c-34.705,43.812 -17.624,25.561 -77.492,31.758c-19.033,14.316 -58.497,79.577 -50.354,46.807c-29.934,11.716 -63.391,3.84 -93.456,14.663c-30.997,10.631 -60.861,24.012 -91.858,34.705c1.529,14.663 -7.05,41.236 15.564,43.349c27.138,-1.409 50.553,-24.267 79.286,-16.265c15.167,0.834 14.17,17.288 16.561,27.855c30.2,7.554 73.037,14.919 77.958,51.158c2.395,44.758 -18.094,86.698 -25.675,130.239c-10.709,59.676 -408.83,220.911 -422.399,236.278c28.736,55.836 -139.332,-417.36 -103.745,-376.636c97.01,-100.945 34.782,-222.095 52.482,-315.927c-33.126,9.478 -61.862,-15.238 -69.244,-44.887c17.694,-3.521 28.668,10.501 42.237,18.314c12.703,1.153 20.023,-12.676 22.749,-22.732c-6.785,-20.297 -21.817,-37.778 -21.286,-60.125c-41.281,3.095 -25.028,0.356 -40.973,-22.666c5.256,-4.866 10.508,-9.666 15.764,-14.47c-0.066,-9.541 -0,-19.082 0.2,-28.622c-24.278,38.226 -57.003,71.074 -96.783,94.507c-1.463,13.317 3.458,32.655 -12.973,38.993c-40.041,13.829 -85.008,-34.319 -58.601,-69.858c13.57,-22.091 41.705,-10.886 57.935,1.601c86.733,-154.624 75.093,-252.27 273.184,-217.766c29.999,8.258 36.453,42.259 45.563,66.849c10.242,-2.88 20.489,-5.764 30.731,-8.774c18.159,15.175 32.86,36.881 32.46,60.699c-5.522,13.829 -17.227,24.204 -26.738,35.472c10.508,4.93 20.955,9.926 31.328,15.049c-3.724,9.733 -7.451,19.4 -11.24,29.071c46.953,17.525 38.394,8.773 62.194,58.779c9.711,23.818 26.938,45.78 27.007,72.353c1.93,17.736 -1.528,36.943 7.186,53.4c14.3,16.458 37.45,2.306 49.687,-9.285c11.505,-16.008 -7.251,-29.838 -15.899,-42.003c11.109,5.508 24.809,8.003 33.191,17.61c-1.397,4.867 -4.189,14.534 -5.587,19.401c1.464,3.009 2.927,6.082 4.39,9.092c18.159,-10.757 35.852,1.153 52.017,8.581c45.409,-42.585 55.324,-36.829 115.273,-24.33c60.674,-59.588 209.603,21.737 339.352,56.546c93.936,25.201 -33.426,41.272 -37.74,37.156c-46.967,-44.817 -183.015,-75.05 -225.553,-85.423c-18.042,-4.4 -45.662,-1.4 -33.422,11.321Z" style="fill:#d20018;fill-rule:nonzero;stroke:#fefffd;stroke-width:16.67px;"/><path d="M1041.77,592.32c7.066,-1.257 14.335,-1.312 21.981,0.817c15.167,0.834 14.17,17.288 16.561,27.855c30.2,7.554 73.037,14.919 77.958,51.158c2.395,44.758 -18.094,86.698 -25.675,130.239c-10.379,57.838 -384.673,211.075 -420.068,234.447c1.778,7.524 1.261,8.811 -2.331,1.831c0.417,-0.473 1.2,-1.085 2.331,-1.831c-0.553,-2.341 -1.329,-5.286 -2.306,-8.784c80.948,-40.284 394.344,-172.808 403.829,-225.663c7.581,-43.541 28.07,-85.481 25.675,-130.239c-4.921,-36.239 -47.758,-43.604 -77.958,-51.158c-2.391,-10.567 -1.394,-27.021 -16.561,-27.855c-1.155,-0.322 -2.301,-0.593 -3.436,-0.817Zm-64.27,15.278c-3.799,0.946 -7.65,1.6 -11.58,1.804c-22.614,-2.113 -14.035,-28.686 -15.564,-43.349c30.997,-10.693 60.862,-24.074 91.858,-34.705c30.065,-10.823 63.522,-2.947 93.456,-14.663c-0.529,2.13 -0.857,3.846 -1.002,5.189c-24.492,4.02 -50.251,0.957 -73.909,9.474c-30.997,10.631 -60.861,24.012 -91.858,34.705c1.342,12.873 -5.106,34.924 8.599,41.545Zm165.335,-87.362c11.213,-12.266 31.232,-41.365 43.189,-50.358c18.032,-1.867 29.083,-1.515 36.67,-1.31c-5.119,0.191 -11.091,0.582 -18.125,1.31c-19.033,14.316 -58.497,79.577 -50.354,46.807c-3.741,1.465 -7.538,2.623 -11.38,3.551Zm112.581,-160.808c73.576,-4.63 185.891,50.446 286.641,77.475c93.936,25.201 -33.426,41.272 -37.74,37.156l-0.243,-0.23c32.876,-3.526 91.778,-17.519 19.438,-36.926c-92.615,-24.846 -195.002,-73.393 -268.096,-77.475Zm-22.921,108.975c8.688,-1.137 12.402,-6.778 31.021,-30.283c-8.183,-16.072 -24.479,-25.442 -36.719,-38.163c-10.756,-11.179 9.271,-14.851 26.529,-12.59c-9.3,1.47 -14.772,5.535 -7.984,12.59c12.239,12.721 28.536,22.091 36.719,38.163c-27.691,34.958 -22.413,30.403 -49.566,30.283Zm-274.433,-15.523c-1.263,-2.478 -1.864,-5.438 -2.916,-8.019c-6.181,0.597 -12.622,0.193 -19.172,-1.37c2.526,4.867 2.395,11.909 8.714,14.085c4.5,-1.467 8.954,-3.04 13.374,-4.696Zm52.003,-53.342c2.485,6.728 4.071,13.704 5.55,20.689c-4.089,5.742 -9.131,10.722 -14.876,14.686c-6.699,2.975 -13.394,5.955 -20.129,8.842c-6.878,1.543 -14.193,1.83 -21.697,0.614c22.204,-3.665 40.423,-20.317 46.957,-42.122c1.438,-0.857 2.84,-1.766 4.195,-2.709Zm-176.597,-319.033c4.657,-1.327 9.313,-2.669 13.968,-4.037c18.159,15.175 32.86,36.881 32.46,60.699c-5.522,13.829 -17.227,24.204 -26.738,35.472c10.508,4.93 20.955,9.926 31.328,15.049c-3.724,9.733 -7.451,19.4 -11.24,29.071c46.953,17.525 38.394,8.773 62.194,58.779c9.711,23.818 26.938,45.78 27.007,72.353c1.93,17.736 -1.528,36.943 7.186,53.4c2.311,2.66 4.853,4.52 7.541,5.719c-9.251,3.104 -18.813,2.652 -26.086,-5.719c-8.714,-16.457 -5.256,-35.664 -7.185,-53.4c-0.07,-26.573 -17.297,-48.535 -27.008,-72.353c-23.8,-50.006 -15.24,-41.254 -62.194,-58.779c3.789,-9.671 7.517,-19.338 11.24,-29.071c-10.373,-5.123 -20.82,-10.119 -31.328,-15.049c9.511,-11.268 21.217,-21.643 26.738,-35.472c0.366,-21.78 -11.894,-41.793 -27.883,-56.662Zm208.562,312.63c11.408,-3.568 22.579,0.617 33.242,5.676c-2.055,1.851 -4.178,3.806 -6.385,5.876c-8.575,-3.941 -17.581,-9.143 -26.857,-11.552Zm-25.679,-27.323c-4.157,-5.572 -9.39,-10.83 -12.93,-15.809c11.109,5.508 24.809,8.003 33.191,17.61c-1.397,4.867 -4.189,14.534 -5.587,19.401c0.774,1.591 1.548,3.2 2.322,4.808c-5.429,-0.172 -10.931,0.999 -16.477,4.284l-0.641,-1.325c1.092,-0.93 2.125,-1.86 3.091,-2.775c6.171,-8.587 3.636,-16.547 -1.377,-23.959l0.125,-0.434c-0.55,-0.63 -1.123,-1.23 -1.717,-1.801Zm123.362,6.04c12.799,-1.876 26.829,0.844 47.933,5.319c-1.198,1.018 -2.357,2.077 -3.486,3.186c-18.89,-3.939 -32.812,-7.208 -44.447,-8.505Zm-504.362,-24.561c1.664,-0.308 3.345,-0.703 5.038,-1.187c-0.117,0.619 -0.231,1.24 -0.337,1.848c-1.589,-0.145 -3.157,-0.367 -4.701,-0.661Zm-44.815,-43.004c-0.309,-1.018 -0.59,-2.041 -0.847,-3.07c14.857,-2.957 24.977,6.456 35.873,14.175c-3.313,2.856 -7.359,4.577 -12.181,4.139c-7.882,-4.538 -14.889,-11.172 -22.845,-15.244Zm-115.803,1.607c1.789,-0.374 3.573,-0.865 5.347,-1.478c16.43,-6.338 11.509,-25.676 12.972,-38.993c39.78,-23.433 72.506,-56.281 96.783,-94.507c-0.184,8.776 -0.254,17.553 -0.212,26.33c-2.596,3.259 -5.26,6.465 -7.995,9.618c-2.585,2.371 -5.171,4.75 -7.757,7.144l0.571,0.84c-18.289,19.588 -39.335,36.726 -62.845,50.575c-1.463,13.317 3.458,32.655 -12.973,38.993c-7.968,2.752 -16.131,3.05 -23.891,1.478Zm140.098,-68.18c-3.187,0.028 -5.533,-0.129 -7.318,-0.515c2.215,-0.148 4.652,-0.324 7.331,-0.525l-0.013,1.04Zm-161.01,-14.444c9.386,-3.039 20.469,-0.408 30.315,4.347c-1.547,2.84 -3.118,5.682 -4.722,8.542c-7.018,-5.4 -16.262,-10.559 -25.593,-12.889Zm238.377,-211.648c21.946,-0.803 47.863,1.357 78.944,6.771c28.106,7.737 35.544,38.071 43.863,62.088c-5.616,1.602 -11.231,3.182 -16.845,4.761c-9.11,-24.59 -15.564,-58.591 -45.563,-66.849c-22.741,-3.961 -42.718,-6.18 -60.399,-6.771Z" style="fill:#9d0a0e;fill-rule:nonzero;"/></g><g><path id="Sleigh" d="M1122.89,830.772c111.316,-17.713 205.924,-94.012 215.219,-255.175c2.933,-50.868 31.352,-91.801 75.327,-129.521c31.865,-27.332 109.211,-60.21 172.742,-27.406c99.644,52.871 71.693,208.922 -20.554,213.54c-60.769,3.073 -71.154,-113.744 8.979,-78.502c-6.053,-13.381 -9.51,-34.449 -28.401,-35.535c-64.073,3.14 -100.587,60.458 -1.864,171.986c61.058,71.018 23.75,234.601 -95.385,280.07c4.59,9.859 11.505,19.849 9.645,31.246c-5.852,31.888 -57.272,45.525 -77.491,18.826c-10.243,-10.63 1.132,-22.603 4.589,-33.359c-17.427,-10.631 -37.916,-8.581 -51.485,6.787c28.737,55.836 54.146,115.319 103.167,158.156c31.517,35.906 181.891,50.71 225.094,-23.5c23.881,-35.216 -15.363,-85.737 -56.606,-79.076c-11.841,1.92 -23.015,12.421 -22.283,24.523c11.84,8.707 31.397,9.859 36.784,25.101c-0.401,15.816 -15.364,23.051 -27.936,29.519c-13.569,-7.105 -28.471,-13.192 -38.647,-24.715c-28.537,-31.054 2.26,-80.808 38.382,-90.412c39.976,-1.794 78.824,22.859 98.377,55.833c16.23,29.263 4.258,63.197 -4.39,92.972c242.514,-127.388 229.345,-345.432 123.721,-396.668c5.788,38.289 10.578,83.561 -18.559,114.741c-33.392,32.4 -89.132,36.369 -131.503,19.656c-88.801,-39.571 -88.401,-183.191 1.132,-221.995c73.834,-30.031 165.827,-0.256 212.322,61.215c73.703,93.324 73.506,267.337 -34.255,372.719c-169.7,168.135 -414.028,141.566 -479.718,143.045c-1087.68,-23.173 -1109.94,43.608 -1198.7,-101.616c-52.917,-89.006 -2.915,-156.815 62.059,-155.21c113.356,-1.438 101.235,190.738 -34.92,107.187c67.992,119.538 98.154,101.728 166.759,104.689c-72.768,-59.75 -57.57,-164.828 40.908,-173.264c24.011,-1.346 39.379,21.064 48.559,39.442c22.822,46.265 -66.865,88.409 -66.384,35.023c6.254,-12.932 23.616,-13.447 35.256,-19.656c-5.056,-6.401 -6.85,-15.56 -14.17,-19.978c-38.047,-15.687 -82.282,34.193 -58.004,67.489c17.292,26.187 52.016,50.391 85.142,39.635c60.731,-43.99 93.191,-112.566 125.585,-176.66c-7.581,-4.993 -15.298,-9.926 -22.949,-14.789c-6.919,2.88 -13.835,5.763 -20.754,8.643c2.329,9.541 10.577,20.361 2.595,29.52c-18.756,25.931 -70.973,8.707 -68.312,-23.178c-1.263,-14.344 13.238,-21.642 22.017,-30.672c-122.192,3.233 -245.367,-4.107 -299.124,-110.582c-63.311,-129.831 -48.906,-257.753 71.108,-350.695c71.727,-54.128 51.493,-215.82 -33.061,-223.593c-32.86,-2.754 -70.376,8.325 -88.801,36.176c-14.967,22.733 -8.648,50.647 -4.324,75.492c6.85,-18.951 9.776,-40.468 24.612,-55.643c32.156,-33.511 120.688,-32.251 122.59,38.738c1.894,66.359 -46.334,141.61 -140.818,109.874c-153.929,-44.857 -139.254,-318.73 51.416,-339.872c-7.05,-18.952 -10.042,-44.757 -35.852,-47.448c3.392,-3.395 6.719,-6.724 10.042,-10.052c-11.906,-4.548 -23.681,-9.285 -35.521,-13.959c30.931,-26.38 74.234,-17.61 110.884,-28.367c-2.461,-6.401 -4.921,-12.806 -7.382,-19.207c26.473,-7.043 54.943,-1.216 80.884,-7.491c24.078,-25.483 61.397,-9.667 85.409,7.365c-16.43,5.508 -32.726,11.972 -46.36,22.602c5.186,1.539 15.633,4.611 20.885,6.146c-0.401,4.93 -1.132,14.726 -1.529,19.593c142.254,67.015 189.758,118.707 159.373,307.217c35.256,40.98 99.34,109.405 143.099,157.162c37.206,40.605 302.98,312.665 471.38,285.868Z" style="fill:#00863d;fill-rule:nonzero;"/><path id="Sleigh1" serif:id="Sleigh" d="M1122.89,830.772c111.316,-17.714 205.924,-94.013 215.219,-255.176c2.933,-50.867 31.352,-91.8 75.327,-129.52c31.865,-27.333 109.211,-60.21 172.742,-27.407c99.644,52.871 71.693,208.922 -20.554,213.54c-60.769,3.073 -71.154,-113.744 8.979,-78.501c-6.053,-13.381 -9.51,-34.449 -28.401,-35.535c-64.073,3.139 -100.587,60.458 -1.864,171.985c61.058,71.019 23.75,234.602 -95.385,280.07c4.59,9.86 11.505,19.849 9.645,31.247c-5.852,31.888 -57.272,45.524 -77.491,18.826c-10.243,-10.631 1.132,-22.603 4.589,-33.36c-17.427,-10.63 -37.916,-8.58 -51.485,6.787c28.737,55.836 54.146,115.32 103.167,158.157c31.517,35.905 181.891,50.709 225.094,-23.5c23.881,-35.217 -15.363,-85.737 -56.606,-79.077c-11.841,1.92 -23.015,12.421 -22.283,24.523c11.84,8.707 31.397,9.86 36.784,25.101c-0.401,15.816 -15.364,23.052 -27.936,29.52c-13.569,-7.106 -28.471,-13.192 -38.647,-24.716c-28.537,-31.054 2.26,-80.807 38.382,-90.411c39.976,-1.794 78.824,22.858 98.377,55.832c16.23,29.264 4.258,63.198 -4.39,92.973c242.514,-127.389 229.345,-345.432 123.721,-396.669c5.788,38.289 10.578,83.562 -18.559,114.742c-33.392,32.399 -89.132,36.369 -131.503,19.656c-88.801,-39.572 -88.401,-183.191 1.132,-221.995c73.834,-30.031 165.827,-0.256 212.322,61.214c73.703,93.324 73.506,267.338 -34.255,372.72c-169.7,168.134 -414.028,141.566 -479.718,143.045c-1087.68,-23.174 -1109.94,43.608 -1198.7,-101.617c-52.917,-89.006 -2.915,-156.814 62.059,-155.209c113.356,-1.439 101.235,190.737 -34.92,107.187c67.992,119.537 98.154,101.727 166.759,104.689c-72.768,-59.751 -57.57,-164.829 40.908,-173.265c24.011,-1.345 39.379,21.065 48.559,39.442c22.822,46.266 -66.865,88.41 -66.384,35.024c6.254,-12.933 23.616,-13.448 35.256,-19.656c-5.056,-6.402 -6.85,-15.561 -14.17,-19.979c-38.047,-15.686 -82.282,34.193 -58.004,67.49c17.292,26.187 52.016,50.391 85.142,39.634c60.731,-43.99 93.191,-112.565 125.585,-176.66c-7.581,-4.992 -15.298,-9.926 -22.949,-14.789c-6.919,2.88 -13.835,5.764 -20.754,8.644c2.329,9.541 10.577,20.36 2.595,29.519c-18.756,25.931 -70.973,8.707 -68.312,-23.177c-1.263,-14.345 13.238,-21.643 22.017,-30.672c-122.192,3.232 -245.367,-4.107 -299.124,-110.583c-63.311,-129.83 -48.906,-257.752 71.108,-350.695c71.727,-54.127 51.493,-215.82 -33.061,-223.593c-32.86,-2.754 -70.376,8.325 -88.801,36.177c-14.967,22.732 -8.648,50.647 -4.324,75.492c6.85,-18.952 9.776,-40.469 24.612,-55.644c32.156,-33.511 120.688,-32.251 122.59,38.738c1.894,66.359 -46.334,141.61 -140.818,109.874c-153.929,-44.857 -139.254,-318.729 51.416,-339.872c-7.05,-18.951 -10.042,-44.757 -35.852,-47.448c3.392,-3.395 6.719,-6.723 10.042,-10.052c-11.906,-4.548 -23.681,-9.285 -35.521,-13.959c30.931,-26.38 74.234,-17.61 110.884,-28.367c-2.461,-6.401 -4.921,-12.806 -7.382,-19.207c26.473,-7.043 54.943,-1.216 80.884,-7.491c24.078,-25.483 61.397,-9.667 85.409,7.365c-16.43,5.508 -32.726,11.972 -46.36,22.603c5.186,1.538 15.633,4.611 20.885,6.145c-0.401,4.93 -1.132,14.727 -1.529,19.593c142.254,67.015 189.758,118.708 159.373,307.217c35.256,40.98 99.34,109.405 143.099,157.163c37.206,40.604 302.98,312.664 471.38,285.868Z" style="fill:#00863d;fill-rule:nonzero;stroke:#fefffd;stroke-width:22.92px;"/><path id="Sleigh2" serif:id="Sleigh" d="M1711.77,666.421c61.381,-3.908 125.257,24.748 161.496,72.658c73.703,93.324 73.506,267.337 -34.255,372.719c-137.101,135.836 -322.911,144.589 -423.88,143.718c104.332,-0.988 273.895,-17.432 401.357,-143.718c107.761,-105.382 107.957,-279.395 34.254,-372.719c-31.816,-42.064 -84.938,-69.287 -138.972,-72.658Zm-873.252,582.888c-157.468,-0.071 -275.529,1.446 -365.314,1.575c88.28,0.136 205.89,-1.496 365.314,-1.575Zm-507.084,-39.857l0.533,0.441c-68.605,-2.961 -98.766,14.849 -166.758,-104.689c11.382,6.985 21.898,12.043 31.56,15.451c54.046,89.688 84.121,88.583 134.665,88.797Zm1197.17,-28.221c-48.874,2.28 -97.371,-10.682 -113.753,-29.346c-49.021,-42.837 -74.431,-102.32 -103.167,-158.156c10.758,-12.184 25.864,-15.996 40.347,-11.754c-6.57,2.035 -12.692,5.942 -17.824,11.754c28.737,55.836 54.146,115.319 103.167,158.156c13.852,15.781 50.662,27.485 91.23,29.346Zm-1130.89,-1.169c-31.392,6.571 -63.26,-16.387 -79.588,-41.113c-23.447,-32.157 17.012,-79.783 54.082,-68.872c-28.387,7.865 -50.225,43.271 -31.558,68.872c12.398,18.776 33.759,36.533 57.064,41.113Zm1190.88,-165.651c1.183,-0.406 2.373,-0.768 3.569,-1.086c39.976,-1.794 78.824,22.859 98.377,55.833c13.532,24.4 7.459,52.047 0.052,77.82c-8.624,5.183 -17.604,10.235 -26.965,15.152c8.648,-29.775 20.619,-63.709 4.389,-92.972c-16.436,-27.718 -46.506,-49.556 -79.422,-54.747Zm-1203.86,23.557c3.43,-0.575 6.987,-1.025 10.661,-1.339c24.011,-1.346 39.379,21.064 48.559,39.442c17.534,35.546 -31.344,68.658 -54.713,57.884c22.282,-7.157 45.022,-31.869 32.189,-57.884c-7.567,-15.151 -19.341,-33.042 -36.696,-38.103Zm1196.09,84.599c8.988,-5.392 16.732,-12.316 17.019,-23.634c-5.387,-15.242 -24.944,-16.394 -36.784,-25.101c-0.732,-12.102 10.442,-22.603 22.283,-24.523c6.479,-1.046 12.909,-0.682 19.049,0.813c-10.456,3.195 -19.469,12.802 -18.809,23.71c11.84,8.707 31.397,9.859 36.784,25.101c-0.401,15.816 -15.364,23.051 -27.936,29.519c-3.809,-1.994 -7.722,-3.909 -11.606,-5.885Zm-1369.9,-124.076c3.844,-0.411 7.758,-0.572 11.728,-0.474c53.584,-0.68 79.129,41.903 76.791,78.168c-6.414,9.919 -10.457,21.119 -12.106,32.933c-10.276,12.63 -27.019,19.872 -50.207,16.174c60.799,-11.314 52.271,-118.721 -26.206,-126.801Zm260.648,37.925c6.376,-1.84 12.078,-5.447 16.18,-11.118c7.982,-9.159 -0.266,-19.979 -2.595,-29.52c6.919,-2.88 13.835,-5.763 20.754,-8.643c2.96,1.881 5.93,3.773 8.897,5.675l-7.128,2.968c2.329,9.541 10.577,20.361 2.595,29.52c-8.663,11.977 -24.466,14.748 -38.703,11.118Zm929.716,-3.219c16.691,-3.731 31.775,-15.309 34.787,-31.722c1.86,-11.397 -5.055,-21.387 -9.645,-31.246c119.135,-45.469 156.443,-209.052 95.385,-280.07c-98.724,-111.528 -62.209,-168.846 1.864,-171.986c2.896,0.167 5.429,0.803 7.664,1.809c-54.211,10.898 -77.791,67.616 12.995,170.177c17.011,19.786 26.387,46.756 28.484,76.359c-2.028,12.322 -2.384,24.969 -1.064,37.411c-8.296,67.535 -50.466,138.691 -122.805,166.3c4.59,9.859 11.505,19.849 9.645,31.246c-4.366,23.792 -34.099,37.424 -57.31,31.722Zm-987.051,-61.24c9.057,-0.087 18.141,-0.268 27.22,-0.509c-0.15,0.155 -0.302,0.309 -0.455,0.462c-8.945,0.114 -17.872,0.142 -26.765,0.047Zm1286.02,-62.876c25.629,-2.054 50.385,-11.265 68.537,-28.878c29.137,-31.18 24.347,-76.452 18.559,-114.741c8.968,4.35 17.269,9.902 24.814,16.511c4.173,34.23 4.19,71.434 -20.85,98.23c-23.454,22.758 -57.935,31.489 -91.06,28.878Zm-1388.85,-896.414c21.633,-5.112 46.807,6.867 64.641,19.517c-16.43,5.508 -32.726,11.972 -46.36,22.602c5.186,1.539 15.633,4.611 20.885,6.146c-0.401,4.93 -1.132,14.726 -1.529,19.593c142.254,67.015 189.758,118.707 159.373,307.217c35.256,40.98 99.34,109.405 143.099,157.162c34.668,37.836 267.791,276.632 435.694,287.35c-168.747,11.484 -421.968,-247.789 -458.217,-287.35c-43.759,-47.757 -107.843,-116.182 -143.099,-157.162c30.385,-188.51 -17.119,-240.202 -159.373,-307.217c0.397,-4.867 1.128,-14.663 1.529,-19.593c-5.253,-1.535 -15.699,-4.607 -20.886,-6.146c13.635,-10.63 29.93,-17.094 46.361,-22.602c-11.86,-8.412 -26.965,-16.528 -42.118,-19.517Zm1204.52,392.716c23.391,-1.728 47.693,1.638 70.253,13.287c99.644,52.871 71.693,208.922 -20.554,213.54c-4.43,0.224 -8.592,-0.189 -12.477,-1.136c84.108,-14.98 106.435,-161.506 10.508,-212.404c-15.381,-7.942 -31.572,-12.034 -47.73,-13.287Zm21.267,143.211c3.564,-1.134 7.632,-1.671 12.223,-1.482c0.87,2.313 1.737,4.545 2.665,6.596c-5.361,-2.357 -10.317,-4.035 -14.888,-5.114Zm-1357.5,-226.572c25.838,-3.192 53.75,4.3 67.915,26.34c5.012,13.954 8.109,29.288 9.177,44.928c-3.359,55.256 -40.641,111.851 -109.664,104.825c59.088,-6.451 88.834,-64.384 87.339,-116.774c-1.009,-37.639 -26.37,-55.675 -54.767,-59.319Zm-74.778,29.358c-9.064,14.073 -12.042,31.332 -17.657,46.866c-4.324,-24.845 -10.643,-52.759 4.324,-75.492c18.425,-27.851 55.94,-38.93 88.801,-36.176c0.439,0.04 0.877,0.085 1.314,0.135c-26.64,2.536 -53.057,14.069 -67.592,36.041c-5.867,8.911 -8.463,18.619 -9.19,28.626Z" style="fill:#006e3d;fill-rule:nonzero;"/></g></svg>