<?xml version="1.0" encoding="UTF-8"?>
<svg xmlns="http://www.w3.org/2000/svg" xmlns:xlink="http://www.w3.org/1999/xlink" width="50px" height="33px" viewBox="0 0 50 33" version="1.1">
<g id="surface1">
<path style=" stroke:none;fill-rule:nonzero;fill:rgb(82.352941%,0%,9.411765%);fill-opacity:1;" d="M 26.492188 10.253906 C 26.359375 11.121094 25.539062 11.757812 24.640625 11.542969 C 24.703125 11.667969 24.699219 11.851562 24.863281 11.910156 C 25.507812 11.695312 26.117188 11.398438 26.734375 11.128906 C 26.671875 10.832031 26.621094 10.53125 26.492188 10.253906 M 32.144531 10.410156 C 32.460938 10.738281 32.882812 10.984375 33.09375 11.402344 C 32.199219 12.542969 32.640625 12.066406 31.09375 12.230469 C 30.601562 12.601562 29.582031 14.300781 29.792969 13.445312 C 29.019531 13.75 28.15625 13.546875 27.382812 13.828125 C 26.582031 14.105469 25.808594 14.453125 25.011719 14.730469 C 25.050781 15.113281 24.828125 15.804688 25.414062 15.859375 C 26.113281 15.824219 26.71875 15.226562 27.457031 15.4375 C 27.851562 15.457031 27.824219 15.886719 27.886719 16.160156 C 28.664062 16.359375 29.773438 16.550781 29.898438 17.492188 C 29.960938 18.65625 29.429688 19.75 29.234375 20.882812 C 28.960938 22.433594 18.683594 26.632812 18.332031 27.03125 C 19.074219 28.484375 14.734375 16.167969 15.65625 17.230469 C 18.160156 14.601562 16.550781 11.449219 17.007812 9.007812 C 16.152344 9.253906 15.414062 8.609375 15.222656 7.839844 C 15.679688 7.746094 15.960938 8.113281 16.3125 8.316406 C 16.640625 8.347656 16.828125 7.984375 16.898438 7.722656 C 16.722656 7.195312 16.335938 6.742188 16.351562 6.160156 C 15.285156 6.238281 15.703125 6.167969 15.292969 5.570312 C 15.429688 5.441406 15.5625 5.316406 15.699219 5.191406 C 15.699219 4.945312 15.699219 4.695312 15.703125 4.449219 C 15.078125 5.441406 14.234375 6.296875 13.207031 6.90625 C 13.167969 7.253906 13.296875 7.757812 12.871094 7.921875 C 11.835938 8.28125 10.675781 7.03125 11.359375 6.105469 C 11.707031 5.53125 12.433594 5.820312 12.855469 6.144531 C 15.09375 2.121094 14.792969 -0.417969 19.90625 0.480469 C 20.679688 0.695312 20.847656 1.578125 21.082031 2.21875 C 21.347656 2.144531 21.609375 2.070312 21.875 1.988281 C 22.34375 2.386719 22.722656 2.949219 22.710938 3.570312 C 22.570312 3.929688 22.269531 4.199219 22.023438 4.492188 C 22.292969 4.621094 22.5625 4.75 22.832031 4.882812 C 22.734375 5.136719 22.640625 5.390625 22.542969 5.640625 C 23.753906 6.097656 23.53125 5.871094 24.148438 7.171875 C 24.398438 7.789062 24.84375 8.363281 24.84375 9.054688 C 24.894531 9.515625 24.804688 10.015625 25.027344 10.445312 C 25.398438 10.871094 25.996094 10.503906 26.3125 10.203125 C 26.609375 9.785156 26.125 9.425781 25.902344 9.109375 C 26.1875 9.253906 26.542969 9.316406 26.757812 9.566406 C 26.722656 9.695312 26.648438 9.945312 26.613281 10.070312 C 26.652344 10.152344 26.691406 10.230469 26.726562 10.308594 C 27.195312 10.027344 27.652344 10.339844 28.070312 10.53125 C 29.242188 9.421875 29.5 9.574219 31.046875 9.898438 C 32.613281 8.347656 36.457031 10.464844 39.804688 11.371094 C 42.230469 12.027344 38.941406 12.445312 38.832031 12.335938 C 37.617188 11.171875 34.105469 10.382812 33.007812 10.113281 C 32.542969 10 31.832031 10.078125 32.144531 10.410156 Z M 32.144531 10.410156 "/>
<path style="fill-rule:nonzero;fill:rgb(82.352941%,0%,9.411765%);fill-opacity:1;stroke-width:16.67;stroke-linecap:butt;stroke-linejoin:round;stroke:rgb(99.607843%,100%,99.215686%);stroke-opacity:1;stroke-miterlimit:2;" d="M 1026.307344 393.99858 C 1021.162188 427.319602 989.383281 451.785038 954.577813 443.52983 C 956.999063 448.33286 956.847734 455.387311 963.203516 457.638731 C 988.172656 449.383523 1011.779844 437.976326 1035.689687 427.619792 C 1033.268438 416.212595 1031.301172 404.655303 1026.307344 393.99858 M 1245.279141 400.002367 C 1257.536719 412.610322 1273.880156 422.066288 1282.051875 438.12642 C 1247.397734 481.954072 1264.497813 463.642519 1204.571875 469.946496 C 1185.504531 484.205492 1146.007891 549.496686 1154.179609 516.625947 C 1124.216641 528.333333 1090.773125 520.528409 1060.810156 531.335227 C 1029.787891 541.991951 999.824922 555.350379 968.953984 566.007102 C 970.467266 580.716383 961.841563 607.283144 984.540781 609.38447 C 1011.628516 608.033617 1035.084375 585.069129 1063.685391 593.174242 C 1078.969531 593.924716 1077.910234 610.435133 1080.331484 620.941761 C 1110.445781 628.596591 1153.422969 635.951231 1158.265469 672.124053 C 1160.686719 716.852273 1140.106094 758.878788 1132.539688 802.40625 C 1121.946719 861.993845 723.802422 1023.345644 710.182891 1038.655303 C 738.935234 1094.49053 570.809687 621.241951 606.523125 662.067708 C 703.524453 561.053977 641.177266 439.927557 658.882656 346.118371 C 625.741797 355.574337 597.140781 330.808712 589.725703 301.240057 C 607.431094 297.637784 618.326719 311.746686 631.94625 319.55161 C 644.657812 320.752367 651.921563 306.793561 654.645469 296.737216 C 647.835703 276.474432 632.854219 259.063447 633.459531 236.699337 C 592.146953 239.701231 608.339063 236.999527 592.449609 214.035038 C 597.746094 209.081913 602.89125 204.278883 608.187734 199.475852 C 608.187734 190.019886 608.187734 180.413826 608.339063 170.95786 C 584.126562 209.081913 551.439687 241.952652 511.640391 265.367424 C 510.127109 278.725852 515.120938 298.088068 498.626172 304.392045 C 458.524219 318.200758 413.579766 270.170455 440.062188 234.598011 C 453.530391 212.534091 481.677422 223.641098 498.020859 236.098958 C 584.731875 81.50142 573.079609 -16.060133 771.168125 18.461648 C 801.131094 26.716856 807.638203 60.638258 816.717891 85.253788 C 827.008203 82.401989 837.147188 79.550189 847.4375 76.398201 C 865.596875 91.70786 880.275703 113.321496 879.821719 137.186553 C 874.373906 150.995265 862.721641 161.351799 853.187969 172.608902 C 863.629609 177.562027 874.07125 182.515152 884.512891 187.618371 C 880.729688 197.374527 877.097813 207.130682 873.314609 216.736742 C 920.226328 234.297822 911.600625 225.59233 935.510469 275.573864 C 945.195469 299.288826 962.446875 321.352746 962.446875 347.919508 C 964.414141 365.630682 960.933594 384.842803 969.559297 401.35322 C 983.935469 417.713542 1007.088672 403.60464 1019.34625 392.047348 C 1030.847188 375.987216 1012.0825 362.178504 1003.456797 350.020833 C 1014.50375 355.574337 1028.274609 357.975852 1036.597656 367.581913 C 1035.235703 372.535038 1032.360469 382.141098 1030.998516 386.944129 C 1032.511797 390.096117 1034.025078 393.098011 1035.387031 396.099905 C 1053.546406 385.293087 1071.251797 397.300663 1087.443906 404.655303 C 1132.842344 362.028409 1142.83 367.882102 1202.755938 380.339962 C 1263.438516 320.752367 1412.345391 402.103693 1542.033594 436.925663 C 1636.008359 462.141572 1508.590078 478.201705 1504.352891 473.999053 C 1457.289844 429.270833 1321.245859 398.951705 1278.722656 388.59517 C 1260.714609 384.242424 1233.172891 387.244318 1245.279141 400.002367 Z M 1245.279141 400.002367 " transform="matrix(0.0258131,0,0,0.0260252,0,0)"/>
<path style=" stroke:none;fill-rule:nonzero;fill:rgb(61.568627%,3.921569%,5.490196%);fill-opacity:1;" d="M 26.890625 15.414062 C 27.074219 15.382812 27.261719 15.382812 27.457031 15.4375 C 27.851562 15.457031 27.824219 15.886719 27.886719 16.160156 C 28.664062 16.359375 29.773438 16.550781 29.898438 17.492188 C 29.960938 18.65625 29.429688 19.75 29.234375 20.882812 C 28.96875 22.386719 19.304688 26.375 18.390625 26.984375 C 18.4375 27.179688 18.425781 27.214844 18.332031 27.03125 C 18.34375 27.019531 18.363281 27.003906 18.390625 26.984375 C 18.378906 26.921875 18.359375 26.847656 18.332031 26.753906 C 20.421875 25.707031 28.511719 22.257812 28.757812 20.882812 C 28.953125 19.75 29.480469 18.65625 29.417969 17.492188 C 29.292969 16.550781 28.1875 16.359375 27.40625 16.160156 C 27.347656 15.886719 27.371094 15.457031 26.980469 15.4375 C 26.949219 15.429688 26.921875 15.421875 26.890625 15.414062 Z M 25.230469 15.8125 C 25.132812 15.835938 25.035156 15.855469 24.933594 15.859375 C 24.351562 15.804688 24.570312 15.113281 24.53125 14.730469 C 25.332031 14.453125 26.101562 14.105469 26.902344 13.828125 C 27.679688 13.546875 28.542969 13.75 29.316406 13.445312 C 29.300781 13.503906 29.292969 13.546875 29.289062 13.582031 C 28.65625 13.6875 27.992188 13.605469 27.382812 13.828125 C 26.582031 14.105469 25.808594 14.453125 25.011719 14.730469 C 25.046875 15.066406 24.878906 15.640625 25.230469 15.8125 Z M 29.5 13.539062 C 29.789062 13.21875 30.304688 12.460938 30.613281 12.230469 C 31.082031 12.179688 31.367188 12.1875 31.5625 12.195312 C 31.429688 12.199219 31.273438 12.210938 31.09375 12.230469 C 30.601562 12.601562 29.582031 14.300781 29.792969 13.445312 C 29.699219 13.484375 29.597656 13.515625 29.5 13.539062 Z M 32.40625 9.355469 C 34.304688 9.234375 37.203125 10.667969 39.804688 11.371094 C 42.230469 12.027344 38.941406 12.445312 38.832031 12.335938 L 38.824219 12.332031 C 39.671875 12.238281 41.195312 11.875 39.328125 11.371094 C 36.9375 10.722656 34.292969 9.460938 32.40625 9.355469 Z M 31.816406 12.191406 C 32.039062 12.160156 32.132812 12.015625 32.617188 11.402344 C 32.402344 10.984375 31.984375 10.738281 31.667969 10.410156 C 31.390625 10.117188 31.90625 10.023438 32.351562 10.082031 C 32.113281 10.121094 31.972656 10.226562 32.144531 10.410156 C 32.460938 10.738281 32.882812 10.984375 33.09375 11.402344 C 32.378906 12.3125 32.515625 12.195312 31.816406 12.191406 Z M 24.730469 11.785156 C 24.699219 11.722656 24.683594 11.644531 24.65625 11.578125 C 24.496094 11.59375 24.328125 11.582031 24.160156 11.542969 C 24.226562 11.667969 24.222656 11.851562 24.386719 11.910156 C 24.5 11.871094 24.617188 11.828125 24.730469 11.785156 Z M 26.074219 10.398438 C 26.136719 10.574219 26.179688 10.753906 26.214844 10.9375 C 26.109375 11.085938 25.980469 11.214844 25.832031 11.320312 C 25.660156 11.394531 25.488281 11.472656 25.3125 11.550781 C 25.136719 11.589844 24.945312 11.597656 24.753906 11.566406 C 25.324219 11.46875 25.796875 11.035156 25.964844 10.46875 C 26 10.445312 26.039062 10.421875 26.074219 10.398438 Z M 21.515625 2.09375 C 21.632812 2.0625 21.753906 2.027344 21.875 1.988281 C 22.34375 2.386719 22.722656 2.949219 22.710938 3.570312 C 22.570312 3.929688 22.269531 4.199219 22.023438 4.492188 C 22.292969 4.621094 22.5625 4.75 22.832031 4.882812 C 22.734375 5.136719 22.640625 5.390625 22.542969 5.640625 C 23.753906 6.097656 23.53125 5.871094 24.148438 7.171875 C 24.398438 7.789062 24.84375 8.363281 24.84375 9.054688 C 24.894531 9.515625 24.804688 10.015625 25.027344 10.445312 C 25.089844 10.511719 25.15625 10.5625 25.222656 10.59375 C 24.984375 10.671875 24.738281 10.660156 24.550781 10.445312 C 24.324219 10.015625 24.414062 9.515625 24.363281 9.054688 C 24.363281 8.363281 23.917969 7.789062 23.667969 7.171875 C 23.054688 5.871094 23.273438 6.097656 22.0625 5.640625 C 22.160156 5.390625 22.257812 5.136719 22.351562 4.882812 C 22.085938 4.75 21.816406 4.621094 21.542969 4.492188 C 21.789062 4.199219 22.089844 3.929688 22.234375 3.570312 C 22.242188 3.003906 21.925781 2.480469 21.515625 2.09375 Z M 26.898438 10.230469 C 27.191406 10.136719 27.480469 10.246094 27.757812 10.378906 C 27.703125 10.425781 27.648438 10.476562 27.589844 10.53125 C 27.371094 10.429688 27.136719 10.292969 26.898438 10.230469 Z M 26.234375 9.519531 C 26.128906 9.375 25.992188 9.238281 25.902344 9.109375 C 26.1875 9.253906 26.542969 9.316406 26.757812 9.566406 C 26.722656 9.695312 26.648438 9.945312 26.613281 10.070312 C 26.632812 10.113281 26.652344 10.15625 26.675781 10.195312 C 26.535156 10.191406 26.390625 10.222656 26.25 10.308594 L 26.230469 10.273438 C 26.261719 10.25 26.285156 10.226562 26.3125 10.203125 C 26.472656 9.980469 26.40625 9.769531 26.277344 9.578125 L 26.28125 9.566406 C 26.265625 9.550781 26.25 9.535156 26.234375 9.519531 Z M 29.417969 9.675781 C 29.75 9.628906 30.113281 9.699219 30.65625 9.816406 C 30.625 9.84375 30.597656 9.871094 30.566406 9.898438 C 30.078125 9.796875 29.71875 9.710938 29.417969 9.675781 Z M 16.398438 9.039062 C 16.441406 9.03125 16.488281 9.019531 16.53125 9.007812 C 16.527344 9.023438 16.523438 9.039062 16.523438 9.054688 C 16.480469 9.050781 16.441406 9.046875 16.398438 9.039062 Z M 15.242188 7.917969 C 15.234375 7.894531 15.226562 7.867188 15.222656 7.839844 C 15.605469 7.761719 15.867188 8.007812 16.148438 8.207031 C 16.0625 8.28125 15.957031 8.328125 15.832031 8.316406 C 15.628906 8.199219 15.449219 8.023438 15.242188 7.917969 Z M 12.253906 7.960938 C 12.300781 7.953125 12.347656 7.9375 12.390625 7.921875 C 12.816406 7.757812 12.6875 7.253906 12.726562 6.90625 C 13.753906 6.296875 14.597656 5.441406 15.226562 4.449219 C 15.222656 4.675781 15.21875 4.90625 15.21875 5.132812 C 15.152344 5.21875 15.085938 5.300781 15.011719 5.382812 C 14.945312 5.445312 14.878906 5.507812 14.8125 5.570312 L 14.828125 5.589844 C 14.355469 6.101562 13.8125 6.546875 13.207031 6.90625 C 13.167969 7.253906 13.296875 7.757812 12.871094 7.921875 C 12.664062 7.992188 12.453125 8 12.253906 7.960938 Z M 15.871094 6.1875 C 15.789062 6.1875 15.726562 6.183594 15.683594 6.171875 C 15.738281 6.167969 15.800781 6.164062 15.871094 6.160156 Z M 11.714844 5.8125 C 11.957031 5.730469 12.242188 5.800781 12.496094 5.921875 C 12.457031 5.996094 12.417969 6.070312 12.375 6.144531 C 12.195312 6.003906 11.957031 5.871094 11.714844 5.8125 Z M 17.867188 0.300781 C 18.433594 0.28125 19.101562 0.335938 19.90625 0.480469 C 20.632812 0.679688 20.824219 1.46875 21.039062 2.09375 C 20.894531 2.136719 20.746094 2.175781 20.601562 2.21875 C 20.367188 1.578125 20.203125 0.695312 19.425781 0.480469 C 18.839844 0.375 18.324219 0.316406 17.867188 0.300781 Z M 17.867188 0.300781 "/>
<path style=" stroke:none;fill-rule:nonzero;fill:rgb(0%,52.54902%,23.921569%);fill-opacity:1;" d="M 28.984375 21.621094 C 31.859375 21.160156 34.300781 19.175781 34.539062 14.980469 C 34.617188 13.65625 35.351562 12.589844 36.484375 11.609375 C 37.308594 10.898438 39.304688 10.042969 40.945312 10.894531 C 43.515625 12.273438 42.792969 16.332031 40.414062 16.453125 C 38.84375 16.535156 38.578125 13.492188 40.644531 14.410156 C 40.488281 14.0625 40.398438 13.515625 39.914062 13.484375 C 38.257812 13.566406 37.316406 15.058594 39.863281 17.960938 C 41.441406 19.808594 40.476562 24.066406 37.402344 25.25 C 37.519531 25.507812 37.699219 25.765625 37.652344 26.0625 C 37.5 26.894531 36.171875 27.25 35.652344 26.554688 C 35.386719 26.277344 35.679688 25.964844 35.769531 25.683594 C 35.320312 25.410156 34.789062 25.460938 34.441406 25.863281 C 35.183594 27.316406 35.835938 28.863281 37.101562 29.976562 C 37.917969 30.914062 41.796875 31.296875 42.914062 29.367188 C 43.53125 28.449219 42.515625 27.136719 41.453125 27.308594 C 41.148438 27.359375 40.859375 27.632812 40.878906 27.945312 C 41.183594 28.171875 41.6875 28.203125 41.828125 28.601562 C 41.816406 29.011719 41.429688 29.199219 41.105469 29.367188 C 40.753906 29.183594 40.371094 29.023438 40.109375 28.726562 C 39.371094 27.917969 40.167969 26.621094 41.097656 26.371094 C 42.128906 26.324219 43.132812 26.96875 43.636719 27.824219 C 44.058594 28.585938 43.75 29.46875 43.523438 30.246094 C 49.785156 26.929688 49.445312 21.253906 46.71875 19.921875 C 46.867188 20.917969 46.992188 22.097656 46.238281 22.90625 C 45.378906 23.75 43.9375 23.855469 42.84375 23.417969 C 40.550781 22.390625 40.5625 18.652344 42.875 17.640625 C 44.78125 16.859375 47.15625 17.636719 48.355469 19.234375 C 50.257812 21.664062 50.253906 26.191406 47.46875 28.933594 C 43.089844 33.3125 36.785156 32.617188 35.085938 32.65625 C 7.011719 32.054688 6.4375 33.792969 4.144531 30.011719 C 2.78125 27.695312 4.070312 25.933594 5.746094 25.972656 C 8.671875 25.9375 8.359375 30.9375 4.847656 28.761719 C 6.601562 31.875 7.378906 31.410156 9.152344 31.488281 C 7.273438 29.933594 7.664062 27.199219 10.207031 26.976562 C 10.828125 26.945312 11.222656 27.527344 11.460938 28.003906 C 12.050781 29.210938 9.734375 30.304688 9.746094 28.917969 C 9.90625 28.578125 10.355469 28.566406 10.65625 28.40625 C 10.527344 28.238281 10.480469 28 10.289062 27.886719 C 9.308594 27.476562 8.167969 28.773438 8.792969 29.640625 C 9.238281 30.324219 10.136719 30.953125 10.992188 30.671875 C 12.558594 29.527344 13.398438 27.742188 14.234375 26.074219 C 14.039062 25.945312 13.839844 25.816406 13.640625 25.691406 C 13.460938 25.765625 13.285156 25.839844 13.105469 25.914062 C 13.164062 26.164062 13.378906 26.445312 13.171875 26.683594 C 12.6875 27.359375 11.339844 26.910156 11.410156 26.082031 C 11.375 25.707031 11.75 25.515625 11.976562 25.28125 C 8.824219 25.367188 5.644531 25.175781 4.253906 22.402344 C 2.621094 19.023438 2.992188 15.695312 6.089844 13.277344 C 7.941406 11.867188 7.421875 7.660156 5.238281 7.457031 C 4.390625 7.386719 3.421875 7.675781 2.945312 8.398438 C 2.558594 8.992188 2.722656 9.71875 2.832031 10.363281 C 3.011719 9.871094 3.085938 9.3125 3.46875 8.917969 C 4.300781 8.042969 6.585938 8.078125 6.632812 9.925781 C 6.683594 11.652344 5.4375 13.609375 3 12.785156 C -0.976562 11.617188 -0.597656 4.488281 4.324219 3.9375 C 4.144531 3.445312 4.066406 2.773438 3.398438 2.703125 C 3.488281 2.617188 3.574219 2.527344 3.660156 2.441406 C 3.351562 2.324219 3.046875 2.199219 2.742188 2.078125 C 3.539062 1.390625 4.660156 1.621094 5.605469 1.339844 C 5.542969 1.175781 5.476562 1.007812 5.414062 0.839844 C 6.097656 0.65625 6.832031 0.808594 7.503906 0.644531 C 8.125 -0.015625 9.085938 0.394531 9.707031 0.835938 C 9.28125 0.980469 8.863281 1.148438 8.511719 1.425781 C 8.644531 1.464844 8.914062 1.546875 9.050781 1.585938 C 9.039062 1.714844 9.019531 1.96875 9.007812 2.09375 C 12.683594 3.839844 13.90625 5.183594 13.125 10.089844 C 14.035156 11.15625 15.6875 12.9375 16.816406 14.179688 C 17.777344 15.238281 24.636719 22.320312 28.984375 21.621094 Z M 28.984375 21.621094 "/>
<path style="fill-rule:nonzero;fill:rgb(0%,52.54902%,23.921569%);fill-opacity:1;stroke-width:22.92;stroke-linecap:butt;stroke-linejoin:round;stroke:rgb(99.607843%,100%,99.215686%);stroke-opacity:1;stroke-miterlimit:2;" d="M 1122.854687 830.774148 C 1234.232188 813.062973 1328.812266 736.814867 1338.043281 575.613163 C 1341.069844 524.731061 1369.519531 483.755208 1413.404688 446.081439 C 1445.334922 418.764205 1522.663594 385.893466 1586.221406 418.61411 C 1685.795313 471.597538 1657.799609 627.545928 1565.640781 632.198864 C 1504.806875 635.350852 1494.516562 518.427083 1574.569141 553.699337 C 1568.516016 540.340909 1565.035469 519.327652 1546.270781 518.126894 C 1482.107656 521.278883 1445.637578 578.615057 1544.303516 690.135417 C 1605.440078 761.130208 1568.062031 924.733428 1448.966797 970.212121 C 1453.506641 980.118371 1460.467734 990.024621 1458.651797 1001.431818 C 1452.75 1033.401989 1401.298438 1047.060606 1381.171797 1020.34375 C 1370.881484 1009.687027 1382.231094 997.679451 1385.711641 986.872633 C 1368.308906 976.366004 1347.728281 978.317235 1334.260078 993.776989 C 1363.012422 1049.612216 1388.284219 1109.049716 1437.314531 1151.826705 C 1468.942109 1187.849432 1619.210938 1202.558712 1662.490781 1128.411932 C 1686.400625 1093.139678 1647.055313 1042.70786 1605.894063 1049.312027 C 1594.090469 1051.263258 1582.892188 1061.769886 1583.648828 1073.777462 C 1595.452422 1082.482955 1614.97375 1083.683712 1620.421563 1098.993371 C 1619.967578 1114.753314 1604.986094 1121.95786 1592.425859 1128.411932 C 1578.806328 1121.357481 1563.976172 1115.203598 1553.837188 1103.796402 C 1525.236172 1072.726799 1556.107109 1022.89536 1592.123203 1013.289299 C 1632.073828 1011.488163 1670.965156 1036.253788 1690.486484 1069.124527 C 1706.829922 1098.392992 1694.875 1132.314394 1686.097969 1162.183239 C 1928.676953 1034.752841 1915.511406 816.665246 1809.884375 765.482955 C 1815.634844 803.757102 1820.477344 849.085701 1791.271016 880.155303 C 1757.978828 912.575758 1702.13875 916.628314 1659.766875 899.817708 C 1570.937266 860.342803 1571.39125 716.702178 1660.9775 677.827652 C 1734.825625 647.808712 1826.833125 677.677557 1873.290859 739.066288 C 1946.987656 832.425189 1946.836328 1006.384943 1838.939375 1111.75142 C 1669.300547 1279.857481 1425.056953 1253.29072 1359.229219 1254.791667 C 271.633984 1231.677083 249.38875 1298.469223 160.559141 1153.177557 C 107.745625 1064.171402 157.683906 996.478693 222.603672 997.97964 C 335.948438 996.628788 323.842188 1188.75 187.798203 1105.147254 C 255.744531 1224.772727 285.858828 1206.911458 354.561797 1209.913352 C 281.772969 1150.175663 296.905781 1045.109375 395.420391 1036.553977 C 419.481562 1035.35322 434.765703 1057.71733 443.996719 1076.028883 C 466.847266 1122.408144 377.109688 1164.434659 377.563672 1111.151042 C 383.768125 1098.092803 401.170859 1097.642519 412.823125 1091.488636 C 407.829297 1085.034564 406.013359 1075.878788 398.598281 1071.526042 C 360.614922 1055.766098 316.427109 1105.597538 340.639609 1138.918561 C 357.891016 1165.185133 392.696484 1189.350379 425.837344 1178.543561 C 486.519922 1134.565814 519.055469 1065.972538 551.439687 1001.882102 C 543.873281 996.928977 536.155547 991.975852 528.437813 987.172822 C 521.476719 990.024621 514.666953 992.87642 507.705859 995.72822 C 509.975781 1005.33428 518.298828 1016.141098 510.278438 1025.296875 C 491.51375 1051.263258 439.305547 1034.002367 442.029453 1002.182292 C 440.6675 987.773201 455.195 980.418561 463.972031 971.412879 C 341.850234 974.714962 218.669141 967.360322 164.796328 860.793087 C 101.541172 730.961174 115.917344 603.080492 235.920547 510.171875 C 307.650078 455.987689 287.523438 294.335701 202.931016 286.530777 C 170.092813 283.829072 132.563438 294.93608 114.101406 322.703598 C 99.119922 345.517992 105.475703 373.435606 109.712891 398.201231 C 116.673984 379.289299 119.549219 357.825758 134.379375 342.666193 C 166.612266 309.044981 255.139219 310.395833 256.955156 381.390625 C 258.922422 447.732481 210.64875 522.929924 116.22 491.259943 C -37.832031 446.381629 -23.153203 172.458807 167.520234 151.295455 C 160.559141 132.383523 157.532578 106.567235 131.655469 103.86553 C 135.136016 100.563447 138.465234 97.111269 141.794453 93.809186 C 129.839531 89.306345 118.035938 84.503314 106.232344 79.850379 C 137.103281 53.433712 180.534453 62.289299 217.155859 51.482481 C 214.734609 45.178504 212.162031 38.724432 209.740781 32.27036 C 236.223203 25.215909 264.672891 31.069602 290.701328 24.765625 C 314.7625 -0.600379 351.989219 15.159564 376.050391 32.120265 C 359.555625 37.673769 343.363516 44.127841 329.743984 54.784564 C 334.889141 56.285511 345.330781 59.4375 350.627266 60.938447 C 350.173281 65.891572 349.416641 75.647727 348.962656 80.450758 C 491.362422 147.543087 538.728125 199.175663 508.4625 387.694602 C 543.721953 428.670455 607.73375 497.113636 651.467578 544.84375 C 688.694297 585.519413 954.426484 857.641098 1122.854687 830.774148 Z M 1122.854687 830.774148 " transform="matrix(0.0258131,0,0,0.0260252,0,0)"/>
<path style=" stroke:none;fill-rule:nonzero;fill:rgb(0%,43.137255%,23.921569%);fill-opacity:1;" d="M 44.1875 17.34375 C 45.769531 17.242188 47.417969 17.988281 48.355469 19.234375 C 50.257812 21.664062 50.253906 26.191406 47.46875 28.933594 C 43.929688 32.46875 39.136719 32.699219 36.527344 32.675781 C 39.222656 32.648438 43.597656 32.222656 46.890625 28.933594 C 49.671875 26.191406 49.675781 21.664062 47.773438 19.234375 C 46.953125 18.140625 45.582031 17.429688 44.1875 17.34375 Z M 21.644531 32.511719 C 17.578125 32.511719 14.53125 32.550781 12.214844 32.554688 C 14.492188 32.558594 17.53125 32.515625 21.644531 32.511719 Z M 8.554688 31.476562 L 8.570312 31.488281 C 6.796875 31.410156 6.019531 31.875 4.265625 28.761719 C 4.558594 28.945312 4.828125 29.078125 5.078125 29.164062 C 6.472656 31.5 7.25 31.472656 8.554688 31.476562 Z M 39.457031 30.742188 C 38.195312 30.800781 36.945312 30.464844 36.523438 29.976562 C 35.257812 28.863281 34.601562 27.316406 33.859375 25.863281 C 34.136719 25.546875 34.527344 25.445312 34.898438 25.554688 C 34.730469 25.609375 34.574219 25.710938 34.441406 25.863281 C 35.183594 27.316406 35.835938 28.863281 37.101562 29.976562 C 37.460938 30.390625 38.410156 30.695312 39.457031 30.742188 Z M 10.265625 30.710938 C 9.457031 30.882812 8.632812 30.285156 8.210938 29.640625 C 7.605469 28.804688 8.652344 27.566406 9.609375 27.847656 C 8.875 28.054688 8.3125 28.976562 8.792969 29.640625 C 9.113281 30.128906 9.664062 30.59375 10.265625 30.710938 Z M 41.007812 26.398438 C 41.035156 26.390625 41.066406 26.378906 41.097656 26.371094 C 42.128906 26.324219 43.132812 26.96875 43.636719 27.824219 C 43.988281 28.460938 43.832031 29.179688 43.640625 29.851562 C 43.417969 29.984375 43.183594 30.117188 42.945312 30.246094 C 43.167969 29.46875 43.476562 28.585938 43.058594 27.824219 C 42.632812 27.105469 41.855469 26.535156 41.007812 26.398438 Z M 9.929688 27.011719 C 10.019531 27 10.113281 26.988281 10.207031 26.976562 C 10.828125 26.945312 11.222656 27.527344 11.460938 28.003906 C 11.914062 28.929688 10.652344 29.792969 10.046875 29.511719 C 10.621094 29.324219 11.210938 28.683594 10.878906 28.003906 C 10.683594 27.609375 10.378906 27.144531 9.929688 27.011719 Z M 40.804688 29.214844 C 41.039062 29.074219 41.238281 28.894531 41.246094 28.601562 C 41.105469 28.203125 40.601562 28.171875 40.296875 27.945312 C 40.277344 27.632812 40.566406 27.359375 40.871094 27.308594 C 41.039062 27.28125 41.203125 27.289062 41.363281 27.328125 C 41.09375 27.414062 40.859375 27.664062 40.878906 27.945312 C 41.183594 28.171875 41.6875 28.203125 41.828125 28.601562 C 41.816406 29.011719 41.429688 29.199219 41.105469 29.367188 C 41.007812 29.316406 40.90625 29.265625 40.804688 29.214844 Z M 5.445312 25.984375 C 5.542969 25.976562 5.644531 25.972656 5.746094 25.972656 C 7.128906 25.957031 7.789062 27.0625 7.730469 28.007812 C 7.5625 28.265625 7.460938 28.558594 7.417969 28.863281 C 7.152344 29.195312 6.71875 29.382812 6.121094 29.285156 C 7.691406 28.992188 7.46875 26.195312 5.445312 25.984375 Z M 12.171875 26.972656 C 12.335938 26.925781 12.484375 26.832031 12.589844 26.683594 C 12.796875 26.445312 12.582031 26.164062 12.523438 25.914062 C 12.703125 25.839844 12.878906 25.765625 13.058594 25.691406 C 13.136719 25.738281 13.210938 25.789062 13.289062 25.839844 L 13.105469 25.914062 C 13.164062 26.164062 13.378906 26.445312 13.171875 26.683594 C 12.949219 26.996094 12.539062 27.066406 12.171875 26.972656 Z M 36.171875 26.890625 C 36.601562 26.792969 36.992188 26.492188 37.070312 26.0625 C 37.117188 25.765625 36.9375 25.507812 36.820312 25.25 C 39.894531 24.066406 40.859375 19.808594 39.28125 17.960938 C 36.734375 15.058594 37.675781 13.566406 39.332031 13.484375 C 39.40625 13.488281 39.472656 13.507812 39.527344 13.53125 C 38.128906 13.816406 37.519531 15.292969 39.863281 17.960938 C 40.304688 18.476562 40.546875 19.179688 40.597656 19.949219 C 40.546875 20.269531 40.539062 20.597656 40.570312 20.921875 C 40.359375 22.679688 39.269531 24.53125 37.402344 25.25 C 37.519531 25.507812 37.699219 25.765625 37.652344 26.0625 C 37.539062 26.683594 36.769531 27.039062 36.171875 26.890625 Z M 10.691406 25.296875 C 10.925781 25.292969 11.160156 25.289062 11.394531 25.28125 C 11.390625 25.285156 11.386719 25.289062 11.382812 25.292969 C 11.152344 25.296875 10.921875 25.296875 10.691406 25.296875 Z M 43.890625 23.660156 C 44.550781 23.605469 45.191406 23.367188 45.65625 22.90625 C 46.410156 22.097656 46.285156 20.917969 46.136719 19.921875 C 46.367188 20.035156 46.582031 20.179688 46.777344 20.351562 C 46.886719 21.242188 46.886719 22.210938 46.238281 22.90625 C 45.632812 23.5 44.742188 23.726562 43.890625 23.660156 Z M 8.039062 0.328125 C 8.597656 0.195312 9.246094 0.507812 9.707031 0.835938 C 9.28125 0.980469 8.863281 1.148438 8.511719 1.425781 C 8.644531 1.464844 8.914062 1.546875 9.050781 1.585938 C 9.039062 1.714844 9.019531 1.96875 9.011719 2.09375 C 12.683594 3.839844 13.90625 5.183594 13.125 10.089844 C 14.035156 11.15625 15.6875 12.9375 16.816406 14.179688 C 17.710938 15.164062 23.730469 21.378906 28.0625 21.660156 C 23.707031 21.957031 17.171875 15.210938 16.234375 14.179688 C 15.105469 12.9375 13.453125 11.15625 12.542969 10.089844 C 13.328125 5.183594 12.101562 3.839844 8.429688 2.09375 C 8.4375 1.96875 8.457031 1.714844 8.46875 1.585938 C 8.332031 1.546875 8.0625 1.464844 7.929688 1.425781 C 8.28125 1.148438 8.703125 0.980469 9.125 0.835938 C 8.820312 0.617188 8.429688 0.40625 8.039062 0.328125 Z M 39.128906 10.550781 C 39.734375 10.503906 40.363281 10.59375 40.945312 10.894531 C 43.515625 12.273438 42.792969 16.332031 40.414062 16.453125 C 40.300781 16.460938 40.191406 16.449219 40.089844 16.425781 C 42.261719 16.035156 42.839844 12.21875 40.363281 10.894531 C 39.964844 10.6875 39.546875 10.582031 39.128906 10.550781 Z M 39.679688 14.277344 C 39.773438 14.246094 39.875 14.234375 39.996094 14.238281 C 40.019531 14.300781 40.039062 14.355469 40.0625 14.410156 C 39.925781 14.347656 39.796875 14.304688 39.679688 14.277344 Z M 4.636719 8.378906 C 5.304688 8.296875 6.027344 8.492188 6.390625 9.066406 C 6.519531 9.429688 6.601562 9.828125 6.628906 10.234375 C 6.542969 11.671875 5.578125 13.144531 3.796875 12.964844 C 5.324219 12.796875 6.089844 11.289062 6.050781 9.925781 C 6.027344 8.945312 5.371094 8.476562 4.636719 8.378906 Z M 2.707031 9.144531 C 2.472656 9.511719 2.398438 9.960938 2.253906 10.363281 C 2.140625 9.71875 1.976562 8.992188 2.363281 8.398438 C 2.839844 7.675781 3.808594 7.386719 4.65625 7.457031 C 4.667969 7.460938 4.679688 7.460938 4.691406 7.460938 C 4.003906 7.527344 3.320312 7.828125 2.945312 8.398438 C 2.792969 8.632812 2.726562 8.882812 2.707031 9.144531 Z M 2.707031 9.144531 "/>
</g>
</svg>
