<?xml version="1.0" encoding="UTF-8" standalone="no"?><!DOCTYPE svg PUBLIC "-//W3C//DTD SVG 1.1//EN" "http://www.w3.org/Graphics/SVG/1.1/DTD/svg11.dtd"><svg width="100%" height="100%" viewBox="0 0 3275 3298" version="1.1" xmlns="http://www.w3.org/2000/svg" xmlns:xlink="http://www.w3.org/1999/xlink" xml:space="preserve" xmlns:serif="http://www.serif.com/" style="fill-rule:evenodd;clip-rule:evenodd;stroke-linejoin:round;stroke-miterlimit:2;"><path d="M3191.94,1554.48l-272.238,0l122.046,-122.035c32.417,-32.406 32.417,-84.949 0.011,-117.344c-32.406,-32.406 -84.949,-32.417 -117.344,-0.011l-239.412,239.39l-402.384,0l179.036,-192.424c31.212,-33.546 29.32,-86.044 -4.237,-117.277c-13.753,-12.79 -30.703,-19.937 -48.073,-21.697c-10.533,-0.52 -237.819,-0.033 -237.819,-0.033l266.021,-266.021l333.964,0c45.838,0 82.98,-37.141 82.98,-82.979c-0,-45.838 -37.142,-82.98 -82.98,-82.98l-168.016,0l195.721,-195.72c32.406,-32.418 32.406,-84.949 -0,-117.366c-32.418,-32.396 -86.786,-32.396 -119.203,-0l-199.848,198.022l0,-172.598c0,-45.837 -37.141,-82.979 -82.979,-82.979c-45.838,0 -82.98,37.142 -82.98,82.979l0,338.568l-274.794,276.642l-4.592,-250.543c-0.011,-0.398 0.387,-0.774 0.376,-1.172c-0.387,-20.181 -7.789,-40.284 -22.902,-55.973c-31.787,-32.992 -86.055,-33.966 -119.059,-2.146l-176.48,168.459l-0,-389.671l237.542,-235.706c32.406,-32.417 33.325,-84.949 0.918,-117.355c-32.417,-32.395 -86.331,-32.395 -118.738,-0l-119.722,118.34l-0,-269.872c-0,-45.837 -37.142,-82.979 -82.98,-82.979c-45.838,-0 -82.979,37.142 -82.979,82.979l-0,269.883l-116.503,-118.34c-32.418,-32.395 -84.02,-32.395 -116.437,-0c-32.406,32.417 -33.789,84.949 -1.383,117.355l234.323,235.706l-0,391.895l-178.97,-171.214c-33.292,-31.499 -84.861,-30.072 -116.393,3.197c-11.893,12.569 -18.62,27.881 -21.176,43.758c-1.571,6.45 -2.246,13.144 -2.224,20.037l-0.974,234.876l-277.704,-275.979l0,-330.745c0,-45.837 -37.142,-82.979 -82.979,-82.979c-45.838,0 -82.98,37.142 -82.98,82.979l0,164.787l-188.374,-190.211c-32.417,-32.396 -84.02,-32.396 -116.437,-0c-32.406,32.417 -31.941,84.948 0.465,117.366l196.185,195.72l-175.828,0c-45.837,0 -82.979,37.142 -82.979,82.98c0,45.838 37.142,82.979 82.979,82.979l341.787,0l273.766,273.766l-255.101,9.194c-44.488,1.615 -83.245,38.005 -83.676,82.072c-0.045,1.239 -3.862,2.49 -3.862,3.729l0,0.121c0,0.089 3.817,0.189 3.817,0.266c0.498,20.745 10.566,41.335 26.498,57.068l175.264,171.236l-384.173,0l-239.401,-239.401c-32.417,-32.395 -84.949,-32.395 -117.355,-0c-32.406,32.417 -32.406,84.949 0,117.355l122.035,122.035l-280.028,-0c-45.837,-0 -82.979,37.142 -82.979,82.979c-0,45.838 37.142,82.98 82.979,82.98l276.82,-0l-118.827,118.826c-32.406,32.418 -32.406,84.949 0,117.355c16.209,16.198 37.452,24.297 58.683,24.297c21.232,-0 42.475,-8.099 58.683,-24.297l236.171,-236.17l387.536,-0l-168.758,181.382c-31.212,33.546 -29.32,86.044 4.237,117.277c15.977,14.87 36.257,22.228 56.493,22.228c0.376,-0 0.752,-0.056 1.139,-0.056c0.244,0 0.487,0.034 0.719,0.034l0.609,-0l243.462,-1.383l-277.97,277.97l-338.568,-0c-45.837,-0 -82.979,37.141 -82.979,82.979c0,45.838 37.142,82.979 82.979,82.979l172.609,0l-192.501,192.502c-32.407,32.417 -32.407,84.948 -0,117.355c16.208,16.197 37.451,24.296 58.683,24.296c21.231,0 40.626,-8.099 56.835,-24.296l188.363,-190.2l0,168.005c0,45.838 37.142,82.98 82.98,82.98c45.837,-0 82.979,-37.142 82.979,-82.98l0,-333.964l281.522,-279.674l10.809,269.849c1.637,44.765 38.912,80.833 83.333,79.937c15.092,-0.299 31.466,-5.145 47.708,-17.072c11.761,-8.641 174.08,-174.942 174.08,-174.942l-0,391.497l-232.022,233.858c-32.417,32.406 -31.488,84.948 0.908,117.355c16.208,16.208 37.893,24.307 59.136,24.307c21.232,0 40.859,-8.099 57.057,-24.296l114.921,-116.525l-0,272.227c-0,45.838 37.141,82.98 82.979,82.98c45.838,-0 82.98,-37.142 82.98,-82.98l-0,-280.028l126.173,124.326c16.208,16.197 38.369,24.296 59.601,24.296c21.232,0 42.939,-8.099 59.137,-24.296c32.406,-32.418 30.791,-84.949 -1.616,-117.355l-243.295,-241.692l-0,-394.982c-0,0 151.896,142.681 175.872,165.694c23.975,23.013 43.614,35.957 72.192,35.957l0.509,0c45.827,0 82.758,-39.874 82.481,-85.701l-3.385,-262.17l269.782,271.63l0,341.764c0,45.838 37.142,82.98 82.98,82.98c45.838,-0 82.979,-37.142 82.979,-82.98l0,-175.816l199.859,198.011c16.209,16.197 38.359,24.296 59.601,24.296c21.232,0 42.928,-8.099 59.137,-24.296c32.406,-32.418 32.639,-84.949 0.232,-117.355l-192.291,-192.502l164.797,0c45.838,0 82.98,-37.141 82.98,-82.979c-0,-45.838 -37.142,-82.979 -82.98,-82.979l-330.744,-0l-284.808,-284.808l255.123,-9.194c0.907,-0.033 1.792,-0.177 2.689,-0.232c0.332,-0.022 0.663,-0.056 0.995,-0.089c44.002,-3.529 77.857,-41.036 76.253,-85.59c-0.963,-26.819 -14.604,-50.131 -34.907,-64.58l-153.29,-152.959l385.411,-0l236.16,236.17c16.208,16.209 37.44,24.308 58.683,24.308c21.231,-0 42.474,-8.099 58.672,-24.297c32.417,-32.406 32.417,-84.948 0.011,-117.344l-118.827,-118.826l269.008,-0c45.838,-0 82.98,-37.142 82.98,-82.979c-0,-45.838 -37.142,-82.991 -82.98,-82.991Zm-981.425,-166.147l-154.585,166.147l-215.824,0l165.981,-165.981l204.428,-0.166Zm-338.39,-328.587l3.939,221.3l-159.309,158.38l-0,-231.689l155.37,-147.991Zm-475.162,0.896l153.833,147.405l-0,223.546l-154.065,-154.983l0.232,-215.968Zm-336.354,338.324l218.645,-7.878l163.392,163.392l-224.587,0l-157.45,-155.514Zm4.248,476.113l143.875,-154.64l230.694,-0l-153.135,153.136l-221.434,1.504Zm338.744,355.396l-9.448,-232.807l156.643,-157.562l-0,239.025l-147.195,151.344Zm475.262,-3.707l-162.108,-149.119l-0,-245.387l159.785,158.867l2.323,235.639Zm333.821,-361.79l-217.008,7.811l-152.35,-152.35l224.509,-0l144.849,144.539Z" style="fill:#fffefe;fill-rule:nonzero;"/><path d="M2875.82,1573.61l-216.876,0l97.227,-97.218c25.824,-25.816 25.824,-67.673 0.008,-93.48c-25.816,-25.816 -67.673,-25.825 -93.48,-0.009l-190.725,190.707l-320.553,0l142.627,-153.292c24.864,-26.724 23.357,-68.546 -3.376,-93.427c-10.956,-10.189 -24.459,-15.883 -38.296,-17.284c-8.391,-0.415 -189.456,-0.027 -189.456,-0.027l211.922,-211.922l266.049,0c36.516,0 66.104,-29.588 66.104,-66.104c-0,-36.516 -29.588,-66.105 -66.104,-66.105l-133.849,0l155.919,-155.918c25.816,-25.825 25.816,-67.673 -0,-93.498c-25.825,-25.807 -69.137,-25.807 -94.962,0l-159.206,157.752l0,-137.498c0,-36.516 -29.588,-66.104 -66.104,-66.104c-36.516,-0 -66.104,29.588 -66.104,66.104l-0,269.715l-218.912,220.384l-3.658,-199.592c-0.008,-0.317 0.309,-0.617 0.3,-0.934c-0.308,-16.077 -6.205,-32.091 -18.245,-44.59c-25.322,-26.283 -68.554,-27.058 -94.846,-1.71l-140.591,134.201l-0,-310.426l189.235,-187.772c25.816,-25.825 26.547,-67.673 0.731,-93.489c-25.824,-25.807 -68.775,-25.807 -94.591,-0l-95.375,94.274l-0,-214.99c-0,-36.516 -29.589,-66.104 -66.105,-66.104c-36.516,-0 -66.104,29.588 -66.104,66.104l-0,214.998l-92.811,-94.273c-25.824,-25.808 -66.933,-25.808 -92.757,-0c-25.816,25.824 -26.918,67.673 -1.102,93.489l186.67,187.772l-0,312.198l-142.574,-136.396c-26.521,-25.093 -67.603,-23.956 -92.722,2.547c-9.475,10.013 -14.834,22.212 -16.87,34.86c-1.252,5.138 -1.79,10.47 -1.772,15.962l-0.776,187.11l-221.229,-219.854l-0,-263.484c-0,-36.516 -29.588,-66.104 -66.104,-66.104c-36.516,-0 -66.105,29.588 -66.105,66.104l0,131.275l-150.066,-151.529c-25.824,-25.807 -66.933,-25.807 -92.757,0c-25.816,25.825 -25.446,67.673 0.37,93.498l156.288,155.918l-140.071,0c-36.516,0 -66.104,29.589 -66.104,66.105c-0,36.516 29.588,66.104 66.104,66.104l272.28,0l218.092,218.092l-203.223,7.324c-35.441,1.287 -66.316,30.276 -66.66,65.382c-0.035,0.987 -3.076,1.983 -3.076,2.97l0,0.097c0,0.071 3.041,0.15 3.041,0.212c0.397,16.526 8.418,32.929 21.11,45.462l139.621,136.413l-306.046,0l-190.716,-190.716c-25.824,-25.807 -67.673,-25.807 -93.489,0c-25.816,25.825 -25.816,67.674 0,93.49l97.218,97.217l-223.081,0c-36.516,0 -66.104,29.589 -66.104,66.105c-0,36.516 29.588,66.104 66.104,66.104l220.525,0l-94.662,94.662c-25.816,25.824 -25.816,67.673 0,93.489c12.913,12.903 29.835,19.355 46.749,19.355c16.914,0 33.837,-6.452 46.749,-19.355l188.142,-188.142l308.726,-0l-134.439,144.495c-24.864,26.724 -23.357,68.546 3.375,93.428c12.728,11.846 28.884,17.707 45.004,17.707c0.3,0 0.6,-0.044 0.908,-0.044c0.194,-0 0.388,0.026 0.573,0.026l0.485,0l193.95,-1.101l-221.441,221.441l-269.715,-0c-36.516,-0 -66.104,29.588 -66.104,66.104c-0,36.516 29.588,66.105 66.104,66.105l137.506,-0l-153.353,153.353c-25.816,25.825 -25.816,67.673 -0,93.489c12.912,12.904 29.835,19.356 46.749,19.356c16.914,-0 32.365,-6.452 45.277,-19.356l150.057,-151.52l0,133.839c0,36.517 29.589,66.105 66.105,66.105c36.516,-0 66.104,-29.588 66.104,-66.105l-0,-266.048l224.27,-222.798l8.611,214.971c1.305,35.662 30.999,64.395 66.387,63.681c12.022,-0.238 25.067,-4.098 38.006,-13.6c9.369,-6.883 138.678,-139.366 138.678,-139.366l-0,311.881l-184.837,186.3c-25.825,25.816 -25.084,67.673 0.723,93.489c12.912,12.913 30.187,19.364 47.11,19.364c16.914,0 32.55,-6.451 45.454,-19.355l91.55,-92.828l-0,216.866c-0,36.516 29.588,66.105 66.104,66.105c36.516,-0 66.105,-29.589 66.105,-66.105l-0,-223.08l100.514,99.042c12.912,12.904 30.566,19.355 47.48,19.355c16.914,0 34.207,-6.451 47.111,-19.355c25.816,-25.825 24.529,-67.673 -1.287,-93.489l-193.818,-192.54l-0,-314.657c-0,-0 121.006,113.664 140.106,131.997c19.1,18.333 34.744,28.645 57.511,28.645l0.405,0c36.507,0 65.928,-31.765 65.708,-68.272l-2.697,-208.855l214.918,216.39l0,272.262c0,36.517 29.589,66.105 66.105,66.105c36.516,-0 66.104,-29.588 66.104,-66.105l0,-140.062l159.215,157.743c12.912,12.904 30.558,19.356 47.481,19.356c16.914,-0 34.198,-6.452 47.11,-19.356c25.816,-25.825 26.001,-67.673 0.185,-93.489l-153.186,-153.353l131.284,-0c36.516,-0 66.104,-29.589 66.104,-66.105c-0,-36.516 -29.588,-66.104 -66.104,-66.104l-263.484,-0l-226.888,-226.888l203.24,-7.325c0.723,-0.026 1.428,-0.141 2.142,-0.185c0.265,-0.017 0.529,-0.044 0.793,-0.07c35.053,-2.812 62.024,-32.691 60.746,-68.185c-0.767,-21.365 -11.634,-39.936 -27.808,-51.447l-122.117,-121.852l307.033,-0l188.133,188.142c12.913,12.912 29.827,19.364 46.749,19.364c16.914,0 33.837,-6.452 46.741,-19.355c25.824,-25.816 25.824,-67.674 0.008,-93.481l-94.661,-94.661l214.302,-0c36.516,-0 66.104,-29.589 66.104,-66.105c-0,-36.516 -29.588,-66.113 -66.104,-66.113Zm-781.839,-132.359l-123.149,132.359l-171.933,0l132.227,-132.226l162.855,-0.133Zm-269.574,-261.764l3.138,176.296l-126.912,126.171l-0,-184.572l123.774,-117.895Zm-378.532,0.714l122.549,117.427l-0,178.086l-122.734,-123.466l0.185,-172.047Zm-267.952,269.521l174.181,-6.276l130.164,130.164l-178.914,0l-125.431,-123.888Zm3.385,379.289l114.616,-123.192l183.779,-0l-121.993,121.993l-176.402,1.199Zm269.856,283.121l-7.528,-185.463l124.788,-125.519l-0,190.416l-117.26,120.566Zm378.61,-2.953l-129.141,-118.794l-0,-195.484l127.291,126.559l1.85,187.719Zm265.934,-288.215l-172.876,6.223l-121.368,-121.368l178.852,-0l115.392,115.145Z" style="fill:url(#_Linear1);fill-rule:nonzero;"/><path d="M1700.64,2712.5l-40.481,-39.888l-0,223.08c-0,29.454 -19.251,54.401 -45.864,62.949c6.375,2.049 13.178,3.156 20.24,3.156c36.516,-0 66.105,-29.589 66.105,-66.105l-0,-183.192Zm127.69,75.41c6.651,2.067 13.537,3.099 20.304,3.099c16.914,0 34.207,-6.451 47.111,-19.355c25.816,-25.825 24.529,-67.673 -1.287,-93.489l-193.818,-192.54l-0,-276.61c-22.861,-21.496 -40.481,-38.047 -40.481,-38.047l-0,314.657l193.818,192.54c25.816,25.816 27.102,67.664 1.287,93.489c-7.741,7.741 -17.062,13.16 -26.934,16.256Zm-300.38,-68.038l-0,-41.046l-91.551,92.828c-7.645,7.645 -16.249,13.026 -25.513,16.142c6.694,2.143 13.647,3.213 20.541,3.213c16.914,0 32.55,-6.451 45.454,-19.355l51.069,-51.782Zm-250.133,-626.907l-1.549,-38.676l-224.27,222.798l-0,266.048c-0,29.454 -19.25,54.401 -45.864,62.949c6.375,2.049 13.178,3.156 20.241,3.156c36.516,-0 66.104,-29.588 66.104,-66.105l-0,-266.048l185.338,-184.122Zm1030.98,350.215l-40.481,-40.107l0,140.062c0,29.454 -19.25,54.401 -45.864,62.949c6.376,2.049 13.179,3.156 20.241,3.156c36.516,-0 66.104,-29.588 66.104,-66.105l0,-99.955Zm-1389.01,6.992l0,-40.876l-150.057,151.52c-7.623,7.619 -16.132,12.988 -25.306,16.108c6.653,2.165 13.582,3.248 20.51,3.248c16.914,-0 32.365,-6.452 45.277,-19.356l109.576,-110.644Zm1489.82,-136.198l-40.481,-0l153.186,153.353c25.816,25.816 25.631,67.664 -0.185,93.489c-7.746,7.741 -17.066,13.16 -26.937,16.257c6.65,2.066 13.537,3.099 20.308,3.099c16.914,-0 34.198,-6.452 47.11,-19.356c25.816,-25.825 26.001,-67.673 0.185,-93.489l-153.186,-153.353Zm-881.655,-92.662l-0,-41.337c-0,0 -129.309,132.483 -138.679,139.366c-6.43,4.722 -12.887,8.051 -19.233,10.234c6.83,2.324 14.139,3.519 21.709,3.366c12.022,-0.238 25.067,-4.098 38.006,-13.6c5.902,-4.337 59.409,-58.523 98.197,-98.029Zm434.256,-125.534l-41.014,-41.295l2.697,208.855c0.179,29.629 -19.167,56.135 -45.976,65.069c6.269,2.109 12.929,3.203 20.344,3.203l0.405,0c36.507,0 65.928,-31.765 65.708,-68.272l-2.164,-167.56Zm205.307,-389.965l-40.481,-0l122.117,121.852c16.173,11.511 27.041,30.082 27.808,51.447c1.278,35.494 -25.693,65.373 -60.746,68.185c-0.264,0.026 -0.529,0.053 -0.793,0.07c-0.714,0.044 -1.419,0.159 -2.142,0.185l-203.24,7.325l226.888,226.888l263.483,-0c36.516,-0 66.105,29.588 66.105,66.104c-0,36.516 -29.589,66.105 -66.105,66.105l40.482,-0c36.516,-0 66.104,-29.589 66.104,-66.105c-0,-36.516 -29.588,-66.104 -66.104,-66.104l-263.484,-0l-226.888,-226.888l203.24,-7.325c0.723,-0.026 1.428,-0.141 2.142,-0.185c0.265,-0.017 0.529,-0.044 0.793,-0.07c35.053,-2.812 62.024,-32.691 60.746,-68.185c-0.767,-21.365 -11.634,-39.936 -27.808,-51.447l-122.117,-121.852Zm-1204.25,475.952l-229.234,-0l229.234,-0Zm564.673,-339.902l-84.307,84.8l5.906,145.508l-38.86,39.955l-7.527,-185.463l124.788,-125.519l-0,40.719Zm172.69,-6.719l-0,155.235l88.29,81.216l0.37,37.578l-129.141,-118.794l-0,-195.484l40.481,40.249Zm-516.153,125.411l0.231,-0.231l-160.669,0.912c1.742,0.138 3.488,0.207 5.234,0.207c0.3,0 0.6,-0.044 0.908,-0.044c0.194,-0 0.388,0.026 0.573,0.026l0.485,0l153.238,-0.87Zm1477.04,-254.733l-40.481,-0l94.661,94.661c25.816,25.807 25.816,67.665 -0.009,93.481c-7.69,7.69 -16.808,13.089 -26.501,16.195c6.57,2.107 13.406,3.16 20.242,3.16c16.914,0 33.837,-6.452 46.741,-19.355c25.824,-25.816 25.824,-67.674 0.008,-93.481l-94.661,-94.661Zm-1854.91,-0.009l-40.481,-0l-188.142,188.142c-7.696,7.69 -16.816,13.089 -26.508,16.195c6.572,2.107 13.407,3.16 20.24,3.16c16.914,0 33.837,-6.452 46.749,-19.355l188.142,-188.142Zm489.314,-0l-114.359,122.915l-40.738,0.277l114.616,-123.192l40.481,-0Zm505.54,-0l119.961,119.961l-39.074,1.407l-121.368,-121.368l40.481,-0Zm887.724,-339.112c9.693,3.107 18.814,8.509 26.51,16.205c25.816,25.807 25.816,67.664 -0.009,93.48l-97.226,97.218l216.875,0c36.517,0 66.105,29.597 66.105,66.113c-0,36.516 -29.588,66.105 -66.105,66.105l40.482,-0c36.516,-0 66.104,-29.589 66.104,-66.105c-0,-36.516 -29.588,-66.113 -66.104,-66.113l-216.876,0l97.227,-97.218c25.824,-25.816 25.824,-67.673 0.008,-93.48c-18.125,-18.125 -44.158,-23.529 -66.991,-16.205Zm-516.305,-57.284c21.204,0.016 36.694,0.069 39.011,0.184c13.838,1.401 27.341,7.095 38.297,17.284c26.733,24.881 28.24,66.703 3.376,93.427l-142.627,153.292l320.553,0l-280.072,0l142.627,-153.292c24.864,-26.724 23.357,-68.546 -3.376,-93.427c-10.956,-10.189 -24.459,-15.883 -38.296,-17.284c-3.64,-0.18 -39.758,-0.209 -79.493,-0.184Zm-1621.41,57.276c9.693,3.106 18.812,8.505 26.507,16.195l190.716,190.716l306.046,0l-265.565,0l-190.716,-190.716c-18.129,-18.116 -44.154,-23.515 -66.988,-16.195Zm1502,74.585l-122.343,0.1l-132.227,132.226l131.452,0l-171.933,0l132.227,-132.226l162.854,-0.133l-0.03,0.033Zm-740.438,3.57l-135.108,4.868l125.431,123.888l138.433,0l-178.914,0l-125.431,-123.888l174.181,-6.276l1.408,1.408Zm-731.324,128.747l-182.6,0l182.6,0Zm1202.89,-356.199l-83.967,79.98l-0,144.327l-40.481,40.245l-0,-184.572l123.774,-117.895l0.674,37.915Zm-338.766,1.548l-0.144,133.298l82.253,82.743l-0,40.723l-122.734,-123.466l0.185,-172.047l40.44,38.749Zm829.008,-121.292l-40.481,0l-211.922,211.922c0,0 16.877,-0.036 40.555,-0.073l211.848,-211.849Zm-407.311,-133.577c10.396,3.202 20.109,8.939 28.058,17.189c12.04,12.499 17.937,28.513 18.245,44.59c0.009,0.317 -0.308,0.617 -0.3,0.934l3.658,199.592l39.748,-40.016l-2.925,-159.576c-0.008,-0.317 0.309,-0.617 0.3,-0.934c-0.308,-16.077 -6.205,-32.091 -18.245,-44.59c-17.976,-18.658 -44.978,-24.462 -68.539,-17.189Zm-861.395,-290.742c26.614,8.548 45.864,33.495 45.864,62.948l-0,263.484l221.229,219.854l0.166,-40.064l-180.914,-179.79l-0,-263.484c-0,-36.516 -29.588,-66.104 -66.104,-66.104c-7.063,-0 -13.866,1.107 -20.241,3.156Zm354.374,290.937c8.976,2.938 17.481,7.889 24.859,14.87l142.574,136.396l-0,-38.727l-102.093,-97.669c-18.209,-17.229 -43.283,-22.092 -65.34,-14.87Zm462.55,-458.496c9.948,3.089 19.28,8.521 27.058,16.294c25.816,25.816 25.085,67.664 -0.731,93.489l-189.235,187.772l-0,310.426l40.481,-38.641l-0,-271.785l189.235,-187.772c25.816,-25.825 26.547,-67.673 0.731,-93.489c-18.046,-18.034 -44.455,-23.466 -67.539,-16.294Zm672.179,193.927c10.035,3.085 19.436,8.527 27.24,16.326c25.816,25.825 25.816,67.673 0,93.498l-155.918,155.918l133.848,0c36.516,0 66.105,29.589 66.105,66.105c-0,36.516 -29.589,66.104 -66.105,66.104l40.482,0c36.516,0 66.104,-29.588 66.104,-66.104c-0,-36.516 -29.588,-66.105 -66.104,-66.105l-133.849,0l155.919,-155.918c25.816,-25.825 25.816,-67.673 -0,-93.498c-18.021,-18.008 -44.556,-23.45 -67.722,-16.326Zm-1661.61,265.742l-99.59,0l99.59,0Zm1388.82,-292.11c26.614,8.548 45.864,33.495 45.864,62.948l0,137.498l40.481,-40.112l0,-97.386c0,-36.516 -29.588,-66.104 -66.104,-66.104c-7.062,-0 -13.865,1.107 -20.241,3.156Zm-1478.86,26.567c9.523,3.118 18.499,8.493 26.138,16.127l150.066,151.529l0,-40.876l-109.585,-110.653c-18.185,-18.173 -43.95,-23.549 -66.619,-16.127Zm665.407,-193.95c9.523,3.117 18.499,8.493 26.138,16.127l92.811,94.273l-0,-41.119l-52.33,-53.154c-18.185,-18.174 -43.95,-23.549 -66.619,-16.127Zm205.294,-167.546c26.613,8.548 45.864,33.494 45.864,62.948l-0,214.99l40.481,-40.014l-0,-174.976c-0,-36.516 -29.589,-66.104 -66.105,-66.104c-7.062,-0 -13.865,1.107 -20.24,3.156Z" style="fill:url(#_Linear2);fill-rule:nonzero;"/><path d="M1550.81,2988.72l-0,225.345c-0,45.838 37.141,82.98 82.979,82.98c8.022,-0 15.777,-1.138 23.119,-3.263c-34.582,-10.003 -59.861,-41.9 -59.861,-79.717l-0,-272.227l-46.237,46.882Zm212.196,-9.123l79.936,78.766c16.208,16.197 38.369,24.296 59.601,24.296c7.716,0 15.494,-1.069 23.05,-3.21c-13.365,-3.746 -26.096,-10.775 -36.415,-21.086l-126.172,-124.326l-0,45.56Zm-212.196,-616.733l-0,344.275l-232.022,233.858c-32.417,32.406 -31.488,84.948 0.908,117.355c16.208,16.208 37.893,24.307 59.136,24.307c7.85,0 15.48,-1.107 22.797,-3.322c-13.088,-3.775 -25.48,-10.769 -35.697,-20.985c-32.395,-32.407 -33.324,-84.949 -0.907,-117.355l232.022,-233.858l-0,-391.497c-0,-0 -19.884,20.372 -46.237,47.222Zm-763.411,287.326l0,121.318c0,45.838 37.142,82.98 82.98,82.98c8.021,-0 15.777,-1.138 23.118,-3.263c-34.581,-10.003 -59.861,-41.9 -59.861,-79.717l0,-168.005l-46.237,46.687Zm1303.88,-444.91l222.936,224.464l0,341.764c0,45.838 37.142,82.98 82.98,82.98c8.021,-0 15.777,-1.138 23.118,-3.263c-34.581,-10.003 -59.861,-41.9 -59.861,-79.717l0,-341.764l-269.782,-271.63l0.609,47.166Zm-1415.27,278.566l-192.501,192.502c-32.407,32.417 -32.407,84.948 -0,117.355c16.208,16.197 37.451,24.296 58.683,24.296c7.887,0 15.521,-1.118 22.83,-3.354c-12.914,-3.781 -25.089,-10.762 -35.277,-20.942c-32.406,-32.407 -32.406,-84.938 0,-117.355l192.502,-192.502l-46.237,0Zm1850.4,157.655l153.622,152.202c16.209,16.197 38.359,24.296 59.601,24.296c7.716,0 15.493,-1.069 23.047,-3.21c-13.367,-3.746 -26.093,-10.775 -36.411,-21.086l-199.859,-198.011l0,45.809Zm-1289.77,-439.455l9.04,225.673c1.637,44.765 38.912,80.833 83.333,79.937c6.876,-0.136 14.018,-1.216 21.29,-3.479c-32.65,-10.015 -57.068,-40.418 -58.386,-76.458l-10.81,-269.849l-44.467,44.176Zm526.357,145.744c46.782,43.984 114.317,107.535 129.635,122.238c23.975,23.013 43.614,35.957 72.192,35.957l0.509,0c7.795,0 15.333,-1.153 22.471,-3.294c-17.26,-5.2 -32.018,-16.425 -48.935,-32.663c-23.976,-23.013 -175.872,-165.694 -175.872,-165.694l-0,43.456Zm-643.323,-307.608l-277.705,277.706l46.236,-0l277.97,-277.97l-46.501,0.264Zm431.116,-153.571l46.237,-46.508l-0,239.025l-147.195,151.344l-1.852,-45.636l102.81,-105.708l-0,-192.517Zm212.195,-8.381l0,-45.971l159.786,158.867l2.323,235.639l-46.66,-42.921l-1.9,-192.718l-113.549,-112.896Zm-734.71,-157.794l-46.237,-0l-168.758,181.382c-31.212,33.546 -29.32,86.044 4.237,117.277c15.977,14.87 36.257,22.228 56.493,22.228c0.376,-0 0.752,-0.056 1.139,-0.056c0.244,0 0.487,0.034 0.719,0.034l0.609,-0l37.525,-0.213c-18.119,-1.359 -35.916,-8.653 -50.248,-21.993c-33.557,-31.233 -35.449,-83.731 -4.237,-117.277l168.758,-181.382Zm1706.19,-0l-46.237,-0l236.16,236.17c16.208,16.209 37.44,24.308 58.683,24.308c7.788,-0 15.577,-1.09 23.116,-3.27c-13.022,-3.763 -25.299,-10.774 -35.562,-21.038l-236.16,-236.17Zm-2374.67,-0.011l-118.827,118.826c-32.406,32.418 -32.406,84.949 0,117.355c16.209,16.198 37.452,24.297 58.683,24.297c7.788,-0 15.577,-1.09 23.119,-3.271c-13.02,-3.76 -25.302,-10.769 -35.565,-21.026c-32.406,-32.406 -32.406,-84.937 0,-117.355l118.827,-118.826l-46.237,-0Zm1125.87,0.011l-153.136,153.136l-221.433,1.504l0.294,-0.316l174.903,-1.188l153.135,-153.136l46.237,-0Zm628.409,-0l144.849,144.539l-217.008,7.811l-1.607,-1.606l172.378,-6.205l-144.849,-144.539l46.237,-0Zm-1751.07,-165.97l46.237,-0l-122.035,-122.035c-32.406,-32.406 -32.406,-84.938 0,-117.355c10.26,-10.256 22.537,-17.266 35.556,-21.026c-28.101,-8.122 -59.646,-1.113 -81.793,21.026c-32.406,32.417 -32.406,84.949 0,117.355l122.035,122.035Zm1847.47,-166.098l46.272,-0.038l-154.585,166.147l-46.237,0l154.55,-166.109Zm-929.618,4.325l44.629,-1.608l163.392,163.392l-46.237,0l-161.784,-161.784Zm1404.14,161.784l46.237,0l239.412,-239.39c10.253,-10.257 22.524,-17.266 35.54,-21.028c-28.099,-8.123 -59.642,-1.115 -81.777,21.028l-239.412,239.39Zm-1839.81,-597.452l273.766,273.766l-255.101,9.194c-44.488,1.615 -83.245,38.005 -83.676,82.072c-0.045,1.239 -3.862,2.49 -3.862,3.729l0,0.121c0,0.089 3.817,0.189 3.817,0.266c0.498,20.745 10.566,41.335 26.498,57.068l175.264,171.236l46.237,0l-175.264,-171.236c-15.932,-15.733 -26,-36.323 -26.498,-57.068c0,-0.077 -3.817,-0.177 -3.817,-0.266l0,-0.121c0,-1.239 3.817,-2.49 3.861,-3.729c0.432,-44.067 39.189,-80.457 83.677,-82.072l255.101,-9.194l-273.766,-273.766l-46.237,0Zm1027.7,146.024l45.466,-43.306l3.939,221.3l-159.31,158.38l0,-45.967l113.073,-112.413l-3.168,-177.994Zm-429.744,1.849l0.048,-44.259l153.833,147.405l-0,223.546l-46.237,-46.512l-0,-177.034l-107.644,-103.146Zm774.696,118.063l-0.085,0.085c-0,0 75.042,-0.161 140.884,-0.198c-41.791,-0.032 -100.371,0.045 -140.799,0.113Zm-133.037,-150.052l0.838,45.705l274.794,-276.642l0,-338.568c0,-37.816 25.28,-69.713 59.861,-79.716c-7.341,-2.126 -15.097,-3.263 -23.118,-3.263c-45.838,0 -82.98,37.142 -82.98,82.979l0,338.568l-229.395,230.937Zm-853.562,-8.542l46.047,45.761l0.974,-234.876c-0.022,-6.893 0.653,-13.587 2.224,-20.037c2.556,-15.877 9.282,-31.189 21.176,-43.758c10.478,-11.055 23.169,-18.594 36.666,-22.576c-28.666,-8.464 -60.736,-0.812 -82.903,22.576c-11.893,12.569 -18.62,27.881 -21.176,43.758c-1.571,6.45 -2.246,13.144 -2.224,20.037l-0.784,189.115Zm319.547,-129.126l46.237,44.233l-0,-391.895l-234.323,-235.706c-32.406,-32.406 -31.023,-84.938 1.383,-117.355c10.198,-10.192 22.296,-17.177 35.1,-20.955c-27.887,-8.234 -59.118,-1.249 -81.337,20.955c-32.406,32.417 -33.789,84.949 -1.383,117.355l234.323,235.706l-0,347.662Zm212.195,-2.137l0,44.135l176.481,-168.459c10.175,-9.81 22.371,-16.503 35.311,-20.102c-27.975,-7.774 -59.505,-1.151 -81.548,20.102l-130.244,124.324Zm-1083.76,-142.038l46.237,0l-196.185,-195.72c-32.407,-32.418 -32.871,-84.949 -0.465,-117.366c10.198,-10.192 22.296,-17.177 35.1,-20.956c-27.887,-8.233 -59.118,-1.248 -81.337,20.956c-32.406,32.417 -31.941,84.948 0.465,117.366l196.185,195.72Zm1847.17,-160.879l0,45.815l199.848,-198.022c10.389,-10.383 23.034,-17.438 36.483,-21.164c-28.53,-7.904 -60.693,-0.849 -82.72,21.164l-153.611,152.207Zm-1739.01,-8.684l46.237,46.688l0,-164.787c0,-37.816 25.28,-69.713 59.861,-79.716c-7.341,-2.126 -15.097,-3.263 -23.118,-3.263c-45.838,0 -82.98,37.142 -82.98,82.979l0,118.099Zm763.4,-315.611l46.237,46.966l-0,-269.883c-0,-37.816 25.279,-69.713 59.861,-79.716c-7.342,-2.126 -15.097,-3.263 -23.119,-3.263c-45.838,-0 -82.979,37.142 -82.979,82.979l-0,222.917Zm212.195,1.252l0,45.703l119.723,-118.34c10.354,-10.35 22.903,-17.394 36.247,-21.13c-28.419,-7.958 -60.431,-0.915 -82.484,21.13l-73.486,72.637Zm-1213.35,2010.74l-46.237,-0c-45.837,-0 -82.979,37.141 -82.979,82.979c0,45.838 37.142,82.979 82.979,82.979l46.237,0c-45.838,0 -82.979,-37.141 -82.979,-82.979c-0,-45.838 37.141,-82.979 82.979,-82.979Zm-420.429,-763.422l-46.237,-0c-45.837,-0 -82.979,37.142 -82.979,82.979c-0,45.838 37.142,82.98 82.979,82.98l46.237,-0c-45.838,-0 -82.979,-37.142 -82.979,-82.98c-0,-45.837 37.141,-82.979 82.979,-82.979Zm420.429,-763.4l-46.237,0c-45.837,0 -82.979,37.142 -82.979,82.98c0,45.838 37.142,82.979 82.979,82.979l46.237,0c-45.838,0 -82.979,-37.141 -82.979,-82.979c-0,-45.838 37.141,-82.98 82.979,-82.98Z" style="fill:#dffffb;fill-rule:nonzero;"/><path d="M1716.77,2986.83l-53.569,-52.785l-0,280.028c-0,36.464 -23.504,67.425 -56.195,78.563c8.4,2.863 17.41,4.417 26.784,4.417c45.838,-0 82.98,-37.142 82.98,-82.98l-0,-227.243Zm158.902,91.506c8.778,2.887 17.908,4.331 26.872,4.331c21.232,0 42.939,-8.099 59.137,-24.296c32.406,-32.418 30.791,-84.949 -1.616,-117.355l-243.295,-241.692l-0,-344.632c-30.014,-28.223 -53.569,-50.35 -53.569,-50.35l-0,394.982l243.295,241.692c32.406,32.406 34.022,84.937 1.616,117.355c-9.359,9.359 -20.558,16.014 -32.44,19.965Zm-378.43,-82.174l-0,-54.316l-114.921,116.525c-9.228,9.228 -19.569,15.827 -30.684,19.795c8.833,3.002 18.055,4.501 27.196,4.501c21.232,0 40.859,-8.099 57.057,-24.296l61.352,-62.209Zm-313.88,-787.103l-2.051,-51.181l-281.521,279.674l-0,333.964c-0,36.464 -23.504,67.425 -56.195,78.563c8.401,2.864 17.411,4.417 26.785,4.417c45.837,-0 82.979,-37.142 82.979,-82.98l0,-333.964l230.003,-228.493Zm1296.82,439.714l-53.569,-53.073l0,175.816c0,36.464 -23.504,67.425 -56.195,78.563c8.401,2.864 17.411,4.417 26.785,4.417c45.838,-0 82.979,-37.142 82.979,-82.98l0,-122.743Zm-1746.35,8.829l0,-54.091l-188.363,190.2c-9.197,9.19 -19.42,15.773 -30.42,19.747c8.782,3.033 17.969,4.549 27.154,4.549c21.231,0 40.626,-8.099 56.835,-24.296l134.794,-136.109Zm1984.12,-339.706c45.838,-0 82.98,37.141 82.98,82.979c-0,45.838 -37.142,82.979 -82.98,82.979l-164.797,0l192.291,192.502c32.406,32.406 32.174,84.937 -0.232,117.355c-9.365,9.359 -20.563,16.014 -32.444,19.965c8.777,2.887 17.908,4.331 26.876,4.331c21.232,0 42.928,-8.099 59.137,-24.296c32.406,-32.418 32.639,-84.949 0.232,-117.355l-192.291,-192.502l164.797,0c45.838,0 82.98,-37.141 82.98,-82.979c-0,-45.838 -37.142,-82.979 -82.98,-82.979l-53.569,-0Zm-1220.7,52.446l-0,-54.692c-0,-0 -162.319,166.301 -174.08,174.942c-7.611,5.589 -15.251,9.623 -22.773,12.363c8.964,3.234 18.617,4.911 28.634,4.709c15.092,-0.299 31.466,-5.145 47.708,-17.072c7.271,-5.341 72.08,-70.937 120.511,-120.25Zm547.902,-157.574l-54.274,-54.646l3.385,262.17c0.222,36.68 -23.394,69.546 -56.331,81.204c8.27,2.959 17.059,4.497 26.91,4.497l0.509,0c45.827,0 82.758,-39.874 82.481,-85.701l-2.68,-207.524Zm-1422.69,271.086l-119.04,0c0,0 119.04,0 119.04,0Zm2012.22,-763.41l-385.411,-0l153.29,152.959c20.302,14.449 33.944,37.761 34.907,64.58c1.604,44.554 -32.251,82.061 -76.253,85.59c-0.332,0.033 -0.664,0.067 -0.995,0.089c-0.897,0.055 -1.782,0.199 -2.689,0.232l-255.123,9.194l284.808,284.808l53.569,-0l-284.808,-284.808l255.123,-9.194c0.907,-0.033 1.792,-0.177 2.689,-0.232c0.332,-0.022 0.663,-0.056 0.995,-0.089c44.002,-3.529 77.857,-41.036 76.253,-85.59c-0.963,-26.819 -14.604,-50.131 -34.907,-64.58l-153.29,-152.959l331.842,-0Zm-1137.44,173.55l-103.074,103.679l7.302,179.934l-51.423,52.873l-9.448,-232.807l156.643,-157.562l-0,53.883Zm219.528,-8.466l-0,192.126l108.049,99.391l0.49,49.728l-162.108,-149.119l-0,-245.387l53.569,53.261Zm-650.686,154.704l0.306,-0.306l-199.11,1.131c2.246,0.183 4.498,0.274 6.751,0.274c0.376,-0 0.752,-0.056 1.139,-0.056c0.244,0 0.487,0.034 0.719,0.034l0.609,-0l189.586,-1.077Zm2072.3,-485.747c45.838,0 82.98,37.153 82.98,82.991c-0,45.837 -37.142,82.979 -82.98,82.979l-269.008,-0l118.827,118.826c32.406,32.396 32.406,84.938 -0.011,117.344c-9.288,9.288 -20.234,15.913 -31.889,19.875c8.668,2.949 17.726,4.422 26.786,4.422c21.231,-0 42.474,-8.099 58.672,-24.297c32.417,-32.406 32.417,-84.948 0.011,-117.344l-118.827,-118.826l269.008,-0c45.838,-0 82.98,-37.142 82.98,-82.979c-0,-45.838 -37.142,-82.991 -82.98,-82.991l-53.569,0Zm-2209.9,165.959l-387.536,-0l-236.171,236.17c-9.294,9.288 -20.243,15.913 -31.898,19.874c8.667,2.949 17.727,4.423 26.784,4.423c21.232,-0 42.475,-8.099 58.683,-24.297l236.171,-236.17l333.967,-0Zm457.382,-0l-177.125,-0l-143.534,154.274l-53.91,0.366l143.875,-154.64l230.694,-0Zm607.958,150.489l-51.708,1.861l-152.35,-152.35l53.569,-0l150.489,150.489Zm-1687.59,-150.5l-223.251,-0c0,-0 223.251,-0 223.251,-0Zm2650.06,-425.213c11.656,3.962 22.607,10.592 31.901,19.886c32.406,32.395 32.406,84.938 -0.011,117.344l-122.046,122.035l53.569,0l122.046,-122.035c32.417,-32.406 32.417,-84.949 0.011,-117.344c-23.119,-23.119 -56.486,-29.75 -85.47,-19.886Zm-2683.43,-0.01c11.655,3.961 22.602,10.586 31.896,19.874l239.401,239.401l53.569,0l-239.401,-239.401c-23.123,-23.108 -56.48,-29.732 -85.465,-19.874Zm1884.05,93.172l-150.819,0.122l-165.981,165.981l-53.569,0l165.981,-165.981l204.428,-0.166l-0.04,0.044Zm-929.358,4.574l-166.939,6.015l157.45,155.514l-53.569,0l-157.45,-155.514l218.645,-7.878l1.863,1.863Zm1080.39,-170.098c26.043,0.021 44.97,0.088 47.837,0.229c17.37,1.76 34.32,8.907 48.073,21.697c33.557,31.233 35.449,83.731 4.237,117.277l-179.036,192.424l53.569,0l179.036,-192.424c31.212,-33.546 29.32,-86.044 -4.237,-117.277c-13.753,-12.79 -30.703,-19.937 -48.073,-21.697c-4.618,-0.228 -50.894,-0.262 -101.406,-0.229Zm-488.49,-112.933l-102.694,97.817l-0,178.433l-53.569,53.256l-0,-231.689l155.37,-147.991l0.893,50.174Zm-422.541,2l-0.177,164.69l100.496,101.095l-0,53.888l-154.065,-154.983l0.232,-215.968l53.514,51.278Zm1321.03,-320.851c45.838,0 82.98,37.142 82.98,82.98c-0,45.838 -37.142,82.979 -82.98,82.979l-333.964,0l-266.021,266.021c-0,0 22.495,-0.048 53.666,-0.096l265.924,-265.925l333.964,0c45.838,0 82.98,-37.141 82.98,-82.979c-0,-45.838 -37.142,-82.98 -82.98,-82.98l-53.569,0Zm-793.059,-1.28c12.531,4.096 24.217,11.15 33.842,21.14c15.113,15.689 22.515,35.792 22.902,55.973c0.011,0.398 -0.387,0.774 -0.376,1.172l4.592,250.543l52.598,-52.952l-3.621,-197.591c-0.011,-0.398 0.387,-0.774 0.376,-1.172c-0.387,-20.181 -7.789,-40.284 -22.902,-55.973c-22.915,-23.784 -57.514,-30.928 -87.411,-21.14Zm-1081.29,-364.944c32.691,11.138 56.195,42.098 56.195,78.562l-0,330.745l277.704,275.979l0.22,-53.018l-224.355,-222.961l0,-330.745c0,-45.837 -37.142,-82.979 -82.979,-82.979c-9.374,0 -18.384,1.553 -26.785,4.417Zm444.84,365.216c10.76,3.738 20.944,9.798 29.826,18.202l178.97,171.214l-0,-51.248l-125.401,-119.966c-23.238,-21.987 -55.38,-27.931 -83.395,-18.202Zm580.627,-575.564c11.971,3.944 23.184,10.615 32.588,20.013c32.406,32.406 31.488,84.938 -0.918,117.355l-237.542,235.706l-0,389.671l53.569,-51.134l-0,-338.537l237.542,-235.706c32.406,-32.417 33.325,-84.949 0.918,-117.355c-23.013,-22.997 -56.859,-29.669 -86.157,-20.013Zm-1077.43,742.531l-288.218,0c0,0 288.218,0 288.218,0Zm1921.2,-499.103c12.075,3.938 23.377,10.624 32.816,20.058c32.407,32.417 32.407,84.948 0,117.366l-195.72,195.72l53.569,0l195.721,-195.72c32.406,-32.418 32.406,-84.949 -0,-117.366c-22.978,-22.962 -56.983,-29.649 -86.386,-20.058Zm-342.429,-33.08c32.691,11.138 56.195,42.098 56.195,78.562l0,172.598l53.569,-53.08l0,-119.518c0,-45.837 -37.141,-82.979 -82.979,-82.979c-9.374,0 -18.384,1.553 -26.785,4.417Zm-1856.38,33.359c11.443,3.972 22.214,10.565 31.434,19.779l188.374,190.211l0,-54.092l-134.805,-136.119c-23.198,-23.182 -56.22,-29.775 -85.003,-19.779Zm835.271,-243.461c11.443,3.972 22.214,10.565 31.434,19.778l116.503,118.34l-0,-54.414l-62.934,-63.926c-23.198,-23.182 -56.22,-29.775 -85.003,-19.778Zm257.701,-210.327c32.691,11.138 56.195,42.098 56.195,78.562l-0,269.872l53.569,-52.951l-0,-216.921c-0,-45.837 -37.142,-82.979 -82.98,-82.979c-9.374,-0 -18.384,1.553 -26.784,4.417Z" style="fill:#cbcbcb;fill-rule:nonzero;"/><defs><linearGradient id="_Linear1" x1="0" y1="0" x2="1" y2="0" gradientUnits="userSpaceOnUse" gradientTransform="matrix(1460.44,1436.88,-1436.88,1460.44,995.855,993.481)"><stop offset="0" style="stop-color:#fffefe;stop-opacity:1"/><stop offset="1" style="stop-color:#ade6fd;stop-opacity:1"/></linearGradient><linearGradient id="_Linear2" x1="0" y1="0" x2="1" y2="0" gradientUnits="userSpaceOnUse" gradientTransform="matrix(690.405,679.267,-679.267,690.405,-128.35,-209.739)"><stop offset="0" style="stop-color:#fffefe;stop-opacity:1"/><stop offset="1" style="stop-color:#79caea;stop-opacity:1"/></linearGradient></defs></svg>