<svg xmlns="http://www.w3.org/2000/svg" viewBox="0 0 3275 3298" xml:space="preserve" style="fill-rule:evenodd;clip-rule:evenodd;stroke-linejoin:round;stroke-miterlimit:2"><path d="M3191.94 1554.48h-272.238l122.046-122.035c32.417-32.406 32.417-84.949.011-117.344-32.406-32.406-84.949-32.417-117.344-.011l-239.412 239.39h-402.384l179.036-192.424c31.212-33.546 29.32-86.044-4.237-117.277-13.753-12.79-30.703-19.937-48.073-21.697-10.533-.52-237.819-.033-237.819-.033l266.021-266.021h333.964c45.838 0 82.98-37.141 82.98-82.979s-37.142-82.98-82.98-82.98h-168.016l195.721-195.72c32.406-32.418 32.406-84.949 0-117.366-32.418-32.396-86.786-32.396-119.203 0l-199.848 198.022V503.407c0-45.837-37.141-82.979-82.979-82.979s-82.98 37.142-82.98 82.979v338.568l-274.794 276.642-4.592-250.543c-.011-.398.387-.774.376-1.172-.387-20.181-7.789-40.284-22.902-55.973-31.787-32.992-86.055-33.966-119.059-2.146l-176.48 168.459V587.571l237.542-235.706c32.406-32.417 33.325-84.949.918-117.355-32.417-32.395-86.331-32.395-118.738 0l-119.722 118.34V82.978c0-45.837-37.142-82.979-82.98-82.979s-82.979 37.142-82.979 82.979v269.883l-116.503-118.34c-32.418-32.395-84.02-32.395-116.437 0-32.406 32.417-33.789 84.949-1.383 117.355l234.323 235.706v391.895l-178.97-171.214c-33.292-31.499-84.861-30.072-116.393 3.197-11.893 12.569-18.62 27.881-21.176 43.758-1.571 6.45-2.246 13.144-2.224 20.037l-.974 234.876-277.704-275.979V503.407c0-45.837-37.142-82.979-82.979-82.979-45.838 0-82.98 37.142-82.98 82.979v164.787L599.022 477.983c-32.417-32.396-84.02-32.396-116.437 0-32.406 32.417-31.941 84.948.465 117.366l196.185 195.72H503.407c-45.837 0-82.979 37.142-82.979 82.98s37.142 82.979 82.979 82.979h341.787l273.766 273.766-255.101 9.194c-44.488 1.615-83.245 38.005-83.676 82.072-.045 1.239-3.862 2.49-3.862 3.729v.121c0 .089 3.817.189 3.817.266.498 20.745 10.566 41.335 26.498 57.068L981.9 1554.48H597.727l-239.401-239.401c-32.417-32.395-84.949-32.395-117.355 0-32.406 32.417-32.406 84.949 0 117.355l122.035 122.035H82.978c-45.837 0-82.979 37.142-82.979 82.979 0 45.838 37.142 82.98 82.979 82.98h276.82l-118.827 118.826c-32.406 32.418-32.406 84.949 0 117.355 16.209 16.198 37.452 24.297 58.683 24.297 21.232 0 42.475-8.099 58.683-24.297l236.171-236.17h387.536l-168.758 181.382c-31.212 33.546-29.32 86.044 4.237 117.277 15.977 14.87 36.257 22.228 56.493 22.228.376 0 .752-.056 1.139-.056.244 0 .487.034.719.034h.609l243.462-1.383-277.97 277.97H503.407c-45.837 0-82.979 37.141-82.979 82.979s37.142 82.979 82.979 82.979h172.609l-192.501 192.502c-32.407 32.417-32.407 84.948 0 117.355 16.208 16.197 37.451 24.296 58.683 24.296 21.231 0 40.626-8.099 56.835-24.296l188.363-190.2v168.005c0 45.838 37.142 82.98 82.98 82.98 45.837 0 82.979-37.142 82.979-82.98v-333.964l281.522-279.674 10.809 269.849c1.637 44.765 38.912 80.833 83.333 79.937 15.092-.299 31.466-5.145 47.708-17.072 11.761-8.641 174.08-174.942 174.08-174.942v391.497L1318.785 2941c-32.417 32.406-31.488 84.948.908 117.355 16.208 16.208 37.893 24.307 59.136 24.307 21.232 0 40.859-8.099 57.057-24.296l114.921-116.525v272.227c0 45.838 37.141 82.98 82.979 82.98s82.98-37.142 82.98-82.98V2934.04l126.173 124.326c16.208 16.197 38.369 24.296 59.601 24.296s42.939-8.099 59.137-24.296c32.406-32.418 30.791-84.949-1.616-117.355l-243.295-241.692v-394.982s151.896 142.681 175.872 165.694c23.975 23.013 43.614 35.957 72.192 35.957h.509c45.827 0 82.758-39.874 82.481-85.701l-3.385-262.17 269.782 271.63v341.764c0 45.838 37.142 82.98 82.98 82.98s82.979-37.142 82.979-82.98v-175.816l199.859 198.011c16.209 16.197 38.359 24.296 59.601 24.296 21.232 0 42.928-8.099 59.137-24.296 32.406-32.418 32.639-84.949.232-117.355l-192.291-192.502h164.797c45.838 0 82.98-37.141 82.98-82.979s-37.142-82.979-82.98-82.979h-330.744l-284.808-284.808 255.123-9.194c.907-.033 1.792-.177 2.689-.232.332-.022.663-.056.995-.089 44.002-3.529 77.857-41.036 76.253-85.59-.963-26.819-14.604-50.131-34.907-64.58l-153.29-152.959h385.411l236.16 236.17c16.208 16.209 37.44 24.308 58.683 24.308 21.231 0 42.474-8.099 58.672-24.297 32.417-32.406 32.417-84.948.011-117.344l-118.827-118.826h269.008c45.838 0 82.98-37.142 82.98-82.979 0-45.838-37.142-82.991-82.98-82.991Zm-981.425-166.147L2055.93 1554.48h-215.824l165.981-165.981 204.428-.166Zm-338.39-328.587 3.939 221.3-159.309 158.38v-231.689l155.37-147.991Zm-475.162.896 153.833 147.405v223.546l-154.065-154.983.232-215.968Zm-336.354 338.324 218.645-7.878 163.392 163.392h-224.587l-157.45-155.514Zm4.248 476.113 143.875-154.64h230.694l-153.135 153.136-221.434 1.504Zm338.744 355.396-9.448-232.807 156.643-157.562v239.025l-147.195 151.344Zm475.262-3.707-162.108-149.119v-245.387l159.785 158.867 2.323 235.639Zm333.821-361.79-217.008 7.811-152.35-152.35h224.509l144.849 144.539Z" style="fill:#fffefe;fill-rule:nonzero"/><path d="M2875.82 1573.61h-216.876l97.227-97.218c25.824-25.816 25.824-67.673.008-93.48-25.816-25.816-67.673-25.825-93.48-.009l-190.725 190.707h-320.553l142.627-153.292c24.864-26.724 23.357-68.546-3.376-93.427-10.956-10.189-24.459-15.883-38.296-17.284-8.391-.415-189.456-.027-189.456-.027l211.922-211.922h266.049c36.516 0 66.104-29.588 66.104-66.104s-29.588-66.105-66.104-66.105h-133.849l155.919-155.918c25.816-25.825 25.816-67.673 0-93.498-25.825-25.807-69.137-25.807-94.962 0l-159.206 157.752V736.287c0-36.516-29.588-66.104-66.104-66.104s-66.104 29.588-66.104 66.104v269.715l-218.912 220.384-3.658-199.592c-.008-.317.309-.617.3-.934-.308-16.077-6.205-32.091-18.245-44.59-25.322-26.283-68.554-27.058-94.846-1.71l-140.591 134.201V803.335l189.235-187.772c25.816-25.825 26.547-67.673.731-93.489-25.824-25.807-68.775-25.807-94.591 0l-95.375 94.274v-214.99c0-36.516-29.589-66.104-66.105-66.104-36.516 0-66.104 29.588-66.104 66.104v214.998l-92.811-94.273c-25.824-25.808-66.933-25.808-92.757 0-25.816 25.824-26.918 67.673-1.102 93.489l186.67 187.772v312.198L1425.85 979.146c-26.521-25.093-67.603-23.956-92.722 2.547-9.475 10.013-14.834 22.212-16.87 34.86-1.252 5.138-1.79 10.47-1.772 15.962l-.776 187.11-221.229-219.854V736.287c0-36.516-29.588-66.104-66.104-66.104s-66.105 29.588-66.105 66.104v131.275L810.206 716.033c-25.824-25.807-66.933-25.807-92.757 0-25.816 25.825-25.446 67.673.37 93.498l156.288 155.918H734.036c-36.516 0-66.104 29.589-66.104 66.105 0 36.516 29.588 66.104 66.104 66.104h272.28l218.092 218.092-203.223 7.324c-35.441 1.287-66.316 30.276-66.66 65.382-.035.987-3.076 1.983-3.076 2.97v.097c0 .071 3.041.15 3.041.212.397 16.526 8.418 32.929 21.11 45.462l139.621 136.413H809.175l-190.716-190.716c-25.824-25.807-67.673-25.807-93.489 0-25.816 25.825-25.816 67.674 0 93.49l97.218 97.217H399.107c-36.516 0-66.104 29.589-66.104 66.105 0 36.516 29.588 66.104 66.104 66.104h220.525l-94.662 94.662c-25.816 25.824-25.816 67.673 0 93.489 12.913 12.903 29.835 19.355 46.749 19.355s33.837-6.452 46.749-19.355l188.142-188.142h308.726l-134.439 144.495c-24.864 26.724-23.357 68.546 3.375 93.428 12.728 11.846 28.884 17.707 45.004 17.707.3 0 .6-.044.908-.044.194 0 .388.026.573.026h.485l193.95-1.101-221.441 221.441H734.036c-36.516 0-66.104 29.588-66.104 66.104s29.588 66.105 66.104 66.105h137.506l-153.353 153.353c-25.816 25.825-25.816 67.673 0 93.489 12.912 12.904 29.835 19.356 46.749 19.356s32.365-6.452 45.277-19.356l150.057-151.52v133.839c0 36.517 29.589 66.105 66.105 66.105 36.516 0 66.104-29.588 66.104-66.105v-266.048l224.27-222.798 8.611 214.971c1.305 35.662 30.999 64.395 66.387 63.681 12.022-.238 25.067-4.098 38.006-13.6 9.369-6.883 138.678-139.366 138.678-139.366v311.881l-184.837 186.3c-25.825 25.816-25.084 67.673.723 93.489 12.912 12.913 30.187 19.364 47.11 19.364 16.914 0 32.55-6.451 45.454-19.355l91.55-92.828v216.866c0 36.516 29.588 66.105 66.104 66.105s66.105-29.589 66.105-66.105v-223.08l100.514 99.042c12.912 12.904 30.566 19.355 47.48 19.355 16.914 0 34.207-6.451 47.111-19.355 25.816-25.825 24.529-67.673-1.287-93.489l-193.818-192.54v-314.657s121.006 113.664 140.106 131.997c19.1 18.333 34.744 28.645 57.511 28.645h.405c36.507 0 65.928-31.765 65.708-68.272l-2.697-208.855 214.918 216.39v272.262c0 36.517 29.589 66.105 66.105 66.105 36.516 0 66.104-29.588 66.104-66.105v-140.062l159.215 157.743c12.912 12.904 30.558 19.356 47.481 19.356 16.914 0 34.198-6.452 47.11-19.356 25.816-25.825 26.001-67.673.185-93.489l-153.186-153.353h131.284c36.516 0 66.104-29.589 66.104-66.105 0-36.516-29.588-66.104-66.104-66.104h-263.484l-226.888-226.888 203.24-7.325c.723-.026 1.428-.141 2.142-.185.265-.017.529-.044.793-.07 35.053-2.812 62.024-32.691 60.746-68.185-.767-21.365-11.634-39.936-27.808-51.447l-122.117-121.852h307.033l188.133 188.142c12.913 12.912 29.827 19.364 46.749 19.364 16.914 0 33.837-6.452 46.741-19.355 25.824-25.816 25.824-67.674.008-93.481l-94.661-94.661h214.302c36.516 0 66.104-29.589 66.104-66.105 0-36.516-29.588-66.113-66.104-66.113Zm-781.839-132.359-123.149 132.359h-171.933l132.227-132.226 162.855-.133Zm-269.574-261.764 3.138 176.296-126.912 126.171v-184.572l123.774-117.895Zm-378.532.714 122.549 117.427v178.086l-122.734-123.466.185-172.047Zm-267.952 269.521 174.181-6.276 130.164 130.164h-178.914l-125.431-123.888Zm3.385 379.289 114.616-123.192h183.779l-121.993 121.993-176.402 1.199Zm269.856 283.121-7.528-185.463 124.788-125.519v190.416l-117.26 120.566Zm378.61-2.953-129.141-118.794v-195.484l127.291 126.559 1.85 187.719Zm265.934-288.215-172.876 6.223-121.368-121.368h178.852l115.392 115.145Z" style="fill:url(#a);fill-rule:nonzero"/><path d="m1700.64 2712.5-40.481-39.888v223.08c0 29.454-19.251 54.401-45.864 62.949a66.044 66.044 0 0 0 20.24 3.156c36.516 0 66.105-29.589 66.105-66.105V2712.5Zm127.69 75.41a68.617 68.617 0 0 0 20.304 3.099c16.914 0 34.207-6.451 47.111-19.355 25.816-25.825 24.529-67.673-1.287-93.489l-193.818-192.54v-276.61c-22.861-21.496-40.481-38.047-40.481-38.047v314.657l193.818 192.54c25.816 25.816 27.102 67.664 1.287 93.489-7.741 7.741-17.062 13.16-26.934 16.256Zm-300.38-68.038v-41.046l-91.551 92.828c-7.645 7.645-16.249 13.026-25.513 16.142a67.475 67.475 0 0 0 20.541 3.213c16.914 0 32.55-6.451 45.454-19.355l51.069-51.782Zm-250.133-626.907-1.549-38.676-224.27 222.798v266.048c0 29.454-19.25 54.401-45.864 62.949a66.046 66.046 0 0 0 20.241 3.156c36.516 0 66.104-29.588 66.104-66.105v-266.048l185.338-184.122Zm1030.98 350.215-40.481-40.107v140.062c0 29.454-19.25 54.401-45.864 62.949a66.055 66.055 0 0 0 20.241 3.156c36.516 0 66.104-29.588 66.104-66.105v-99.955Zm-1389.01 6.992v-40.876l-150.057 151.52c-7.623 7.619-16.132 12.988-25.306 16.108a66.302 66.302 0 0 0 20.51 3.248c16.914 0 32.365-6.452 45.277-19.356l109.576-110.644Zm1489.82-136.198h-40.481l153.186 153.353c25.816 25.816 25.631 67.664-.185 93.489-7.746 7.741-17.066 13.16-26.937 16.257a68.65 68.65 0 0 0 20.308 3.099c16.914 0 34.198-6.452 47.11-19.356 25.816-25.825 26.001-67.673.185-93.489l-153.186-153.353Zm-881.655-92.662v-41.337s-129.309 132.483-138.679 139.366c-6.43 4.722-12.887 8.051-19.233 10.234a63.283 63.283 0 0 0 21.709 3.366c12.022-.238 25.067-4.098 38.006-13.6 5.902-4.337 59.409-58.523 98.197-98.029Zm434.256-125.534-41.014-41.295 2.697 208.855c.179 29.629-19.167 56.135-45.976 65.069 6.269 2.109 12.929 3.203 20.344 3.203h.405c36.507 0 65.928-31.765 65.708-68.272l-2.164-167.56Zm205.307-389.965h-40.481l122.117 121.852c16.173 11.511 27.041 30.082 27.808 51.447 1.278 35.494-25.693 65.373-60.746 68.185-.264.026-.529.053-.793.07-.714.044-1.419.159-2.142.185l-203.24 7.325 226.888 226.888h263.483c36.516 0 66.105 29.588 66.105 66.104s-29.589 66.105-66.105 66.105h40.482c36.516 0 66.104-29.589 66.104-66.105 0-36.516-29.588-66.104-66.104-66.104h-263.484l-226.888-226.888 203.24-7.325c.723-.026 1.428-.141 2.142-.185.265-.017.529-.044.793-.07 35.053-2.812 62.024-32.691 60.746-68.185-.767-21.365-11.634-39.936-27.808-51.447l-122.117-121.852Zm-1204.25 475.952H734.031h229.234Zm564.673-339.902-84.307 84.8 5.906 145.508-38.86 39.955-7.527-185.463 124.788-125.519v40.719Zm172.69-6.719v155.235l88.29 81.216.37 37.578-129.141-118.794v-195.484l40.481 40.249Zm-516.153 125.411.231-.231-160.669.912c1.742.138 3.488.207 5.234.207.3 0 .6-.044.908-.044.194 0 .388.026.573.026h.485l153.238-.87Zm1477.04-254.733h-40.481l94.661 94.661c25.816 25.807 25.816 67.665-.009 93.481-7.69 7.69-16.808 13.089-26.501 16.195a66.305 66.305 0 0 0 20.242 3.16c16.914 0 33.837-6.452 46.741-19.355 25.824-25.816 25.824-67.674.008-93.481l-94.661-94.661Zm-1854.91-.009h-40.481l-188.142 188.142c-7.696 7.69-16.816 13.089-26.508 16.195a66.316 66.316 0 0 0 20.24 3.16c16.914 0 33.837-6.452 46.749-19.355l188.142-188.142Zm489.314 0-114.359 122.915-40.738.277 114.616-123.192h40.481Zm505.54 0 119.961 119.961-39.074 1.407-121.368-121.368h40.481Zm887.724-339.112c9.693 3.107 18.814 8.509 26.51 16.205 25.816 25.807 25.816 67.664-.009 93.48l-97.226 97.218h216.875c36.517 0 66.105 29.597 66.105 66.113s-29.588 66.105-66.105 66.105h40.482c36.516 0 66.104-29.589 66.104-66.105 0-36.516-29.588-66.113-66.104-66.113h-216.876l97.227-97.218c25.824-25.816 25.824-67.673.008-93.48-18.125-18.125-44.158-23.529-66.991-16.205Zm-516.305-57.284c21.204.016 36.694.069 39.011.184 13.838 1.401 27.341 7.095 38.297 17.284 26.733 24.881 28.24 66.703 3.376 93.427l-142.627 153.292h320.553-280.072l142.627-153.292c24.864-26.724 23.357-68.546-3.376-93.427-10.956-10.189-24.459-15.883-38.296-17.284-3.64-.18-39.758-.209-79.493-.184Zm-1621.41 57.276c9.693 3.106 18.812 8.505 26.507 16.195l190.716 190.716h306.046-265.565l-190.716-190.716c-18.129-18.116-44.154-23.515-66.988-16.195Zm1502 74.585-122.343.1-132.227 132.226h131.452-171.933l132.227-132.226 162.854-.133-.03.033Zm-740.438 3.57-135.108 4.868 125.431 123.888h138.433-178.914l-125.431-123.888 174.181-6.276 1.408 1.408Zm-731.324 128.747h-182.6 182.6Zm1202.89-356.199-83.967 79.98v144.327l-40.481 40.245v-184.572l123.774-117.895.674 37.915Zm-338.766 1.548-.144 133.298 82.253 82.743v40.723l-122.734-123.466.185-172.047 40.44 38.749Zm829.008-121.292h-40.481l-211.922 211.922s16.877-.036 40.555-.073l211.848-211.849Zm-407.311-133.577c10.396 3.202 20.109 8.939 28.058 17.189 12.04 12.499 17.937 28.513 18.245 44.59.009.317-.308.617-.3.934l3.658 199.592 39.748-40.016-2.925-159.576c-.008-.317.309-.617.3-.934-.308-16.077-6.205-32.091-18.245-44.59-17.976-18.658-44.978-24.462-68.539-17.189Zm-861.395-290.742c26.614 8.548 45.864 33.495 45.864 62.948v263.484l221.229 219.854.166-40.064-180.914-179.79V736.281c0-36.516-29.588-66.104-66.104-66.104a66.046 66.046 0 0 0-20.241 3.156Zm354.374 290.937c8.976 2.938 17.481 7.889 24.859 14.87l142.574 136.396v-38.727l-102.093-97.669c-18.209-17.229-43.283-22.092-65.34-14.87Zm462.55-458.496c9.948 3.089 19.28 8.521 27.058 16.294 25.816 25.816 25.085 67.664-.731 93.489l-189.235 187.772v310.426l40.481-38.641V803.329l189.235-187.772c25.816-25.825 26.547-67.673.731-93.489-18.046-18.034-44.455-23.466-67.539-16.294Zm672.179 193.927c10.035 3.085 19.436 8.527 27.24 16.326 25.816 25.825 25.816 67.673 0 93.498l-155.918 155.918h133.848c36.516 0 66.105 29.589 66.105 66.105 0 36.516-29.589 66.104-66.105 66.104h40.482c36.516 0 66.104-29.588 66.104-66.104s-29.588-66.105-66.104-66.105h-133.849l155.919-155.918c25.816-25.825 25.816-67.673 0-93.498-18.021-18.008-44.556-23.45-67.722-16.326ZM833.625 965.443h-99.59 99.59Zm1388.82-292.11c26.614 8.548 45.864 33.495 45.864 62.948v137.498l40.481-40.112v-97.386c0-36.516-29.588-66.104-66.104-66.104a66.055 66.055 0 0 0-20.241 3.156ZM743.585 699.9c9.523 3.118 18.499 8.493 26.138 16.127l150.066 151.529V826.68L810.204 716.027c-18.185-18.173-43.95-23.549-66.619-16.127Zm665.407-193.95c9.523 3.117 18.499 8.493 26.138 16.127l92.811 94.273v-41.119l-52.33-53.154c-18.185-18.174-43.95-23.549-66.619-16.127Zm205.294-167.546c26.613 8.548 45.864 33.494 45.864 62.948v214.99l40.481-40.014V401.352c0-36.516-29.589-66.104-66.105-66.104a66.044 66.044 0 0 0-20.24 3.156Z" style="fill:url(#b);fill-rule:nonzero"/><path d="M1550.81 2988.72v225.345c0 45.838 37.141 82.98 82.979 82.98a83.028 83.028 0 0 0 23.119-3.263c-34.582-10.003-59.861-41.9-59.861-79.717v-272.227l-46.237 46.882Zm212.196-9.123 79.936 78.766c16.208 16.197 38.369 24.296 59.601 24.296a84.66 84.66 0 0 0 23.05-3.21c-13.365-3.746-26.096-10.775-36.415-21.086l-126.172-124.326v45.56Zm-212.196-616.733v344.275l-232.022 233.858c-32.417 32.406-31.488 84.948.908 117.355 16.208 16.208 37.893 24.307 59.136 24.307 7.85 0 15.48-1.107 22.797-3.322-13.088-3.775-25.48-10.769-35.697-20.985-32.395-32.407-33.324-84.949-.907-117.355l232.022-233.858v-391.497s-19.884 20.372-46.237 47.222ZM787.399 2650.19v121.318c0 45.838 37.142 82.98 82.98 82.98a83.02 83.02 0 0 0 23.118-3.263c-34.581-10.003-59.861-41.9-59.861-79.717v-168.005l-46.237 46.687Zm1303.88-444.91 222.936 224.464v341.764c0 45.838 37.142 82.98 82.98 82.98a83.02 83.02 0 0 0 23.118-3.263c-34.581-10.003-59.861-41.9-59.861-79.717v-341.764l-269.782-271.63.609 47.166Zm-1415.27 278.566-192.501 192.502c-32.407 32.417-32.407 84.948 0 117.355 16.208 16.197 37.451 24.296 58.683 24.296 7.887 0 15.521-1.118 22.83-3.354-12.914-3.781-25.089-10.762-35.277-20.942-32.406-32.407-32.406-84.938 0-117.355l192.502-192.502h-46.237Zm1850.4 157.655 153.622 152.202c16.209 16.197 38.359 24.296 59.601 24.296a84.628 84.628 0 0 0 23.047-3.21c-13.367-3.746-26.093-10.775-36.411-21.086l-199.859-198.011v45.809Zm-1289.77-439.455 9.04 225.673c1.637 44.765 38.912 80.833 83.333 79.937 6.876-.136 14.018-1.216 21.29-3.479-32.65-10.015-57.068-40.418-58.386-76.458l-10.81-269.849-44.467 44.176Zm526.357 145.744c46.782 43.984 114.317 107.535 129.635 122.238 23.975 23.013 43.614 35.957 72.192 35.957h.509a78.074 78.074 0 0 0 22.471-3.294c-17.26-5.2-32.018-16.425-48.935-32.663-23.976-23.013-175.872-165.694-175.872-165.694v43.456Zm-643.323-307.608-277.705 277.706h46.236l277.97-277.97-46.501.264Zm431.116-153.571 46.237-46.508v239.025l-147.195 151.344-1.852-45.636 102.81-105.708v-192.517Zm212.195-8.381v-45.971l159.786 158.867 2.323 235.639-46.66-42.921-1.9-192.718-113.549-112.896Zm-734.71-157.794h-46.237l-168.758 181.382c-31.212 33.546-29.32 86.044 4.237 117.277 15.977 14.87 36.257 22.228 56.493 22.228.376 0 .752-.056 1.139-.056.244 0 .487.034.719.034h.609l37.525-.213c-18.119-1.359-35.916-8.653-50.248-21.993-33.557-31.233-35.449-83.731-4.237-117.277l168.758-181.382Zm1706.19 0h-46.237l236.16 236.17c16.208 16.209 37.44 24.308 58.683 24.308 7.788 0 15.577-1.09 23.116-3.27-13.022-3.763-25.299-10.774-35.562-21.038l-236.16-236.17Zm-2374.67-.011-118.827 118.826c-32.406 32.418-32.406 84.949 0 117.355 16.209 16.198 37.452 24.297 58.683 24.297 7.788 0 15.577-1.09 23.119-3.271-13.02-3.76-25.302-10.769-35.565-21.026-32.406-32.406-32.406-84.937 0-117.355l118.827-118.826h-46.237Zm1125.87.011-153.136 153.136-221.433 1.504.294-.316 174.903-1.188 153.135-153.136h46.237Zm628.409 0 144.849 144.539-217.008 7.811-1.607-1.606 172.378-6.205-144.849-144.539h46.237Zm-1751.07-165.97h46.237l-122.035-122.035c-32.406-32.406-32.406-84.938 0-117.355 10.26-10.256 22.537-17.266 35.556-21.026-28.101-8.122-59.646-1.113-81.793 21.026-32.406 32.417-32.406 84.949 0 117.355l122.035 122.035Zm1847.47-166.098 46.272-.038-154.585 166.147h-46.237l154.55-166.109Zm-929.618 4.325 44.629-1.608 163.392 163.392h-46.237l-161.784-161.784Zm1404.14 161.784h46.237l239.412-239.39c10.253-10.257 22.524-17.266 35.54-21.028-28.099-8.123-59.642-1.115-81.777 21.028l-239.412 239.39ZM845.185 957.025l273.766 273.766-255.101 9.194c-44.488 1.615-83.245 38.005-83.676 82.072-.045 1.239-3.862 2.49-3.862 3.729v.121c0 .089 3.817.189 3.817.266.498 20.745 10.566 41.335 26.498 57.068l175.264 171.236h46.237l-175.264-171.236c-15.932-15.733-26-36.323-26.498-57.068 0-.077-3.817-.177-3.817-.266v-.121c0-1.239 3.817-2.49 3.861-3.729.432-44.067 39.189-80.457 83.677-82.072l255.101-9.194-273.766-273.766h-46.237Zm1027.7 146.024 45.466-43.306 3.939 221.3-159.31 158.38v-45.967l113.073-112.413-3.168-177.994Zm-429.744 1.849.048-44.259 153.833 147.405v223.546l-46.237-46.512v-177.034l-107.644-103.146Zm774.696 118.063-.085.085s75.042-.161 140.884-.198c-41.791-.032-100.371.045-140.799.113ZM2084.8 1072.909l.838 45.705 274.794-276.642V503.404c0-37.816 25.28-69.713 59.861-79.716a82.983 82.983 0 0 0-23.118-3.263c-45.838 0-82.98 37.142-82.98 82.979v338.568L2084.8 1072.909Zm-853.562-8.542 46.047 45.761.974-234.876c-.022-6.893.653-13.587 2.224-20.037 2.556-15.877 9.282-31.189 21.176-43.758 10.478-11.055 23.169-18.594 36.666-22.576-28.666-8.464-60.736-.812-82.903 22.576-11.893 12.569-18.62 27.881-21.176 43.758-1.571 6.45-2.246 13.144-2.224 20.037l-.784 189.115Zm319.547-129.126 46.237 44.233V587.579l-234.323-235.706c-32.406-32.406-31.023-84.938 1.383-117.355 10.198-10.192 22.296-17.177 35.1-20.955-27.887-8.234-59.118-1.249-81.337 20.955-32.406 32.417-33.789 84.949-1.383 117.355l234.323 235.706v347.662Zm212.195-2.137v44.135l176.481-168.459c10.175-9.81 22.371-16.503 35.311-20.102-27.975-7.774-59.505-1.151-81.548 20.102L1762.98 933.104ZM679.22 791.066h46.237l-196.185-195.72c-32.407-32.418-32.871-84.949-.465-117.366 10.198-10.192 22.296-17.177 35.1-20.956-27.887-8.233-59.118-1.248-81.337 20.956-32.406 32.417-31.941 84.948.465 117.366l196.185 195.72Zm1847.17-160.879v45.815l199.848-198.022c10.389-10.383 23.034-17.438 36.483-21.164-28.53-7.904-60.693-.849-82.72 21.164L2526.39 630.187Zm-1739.01-8.684 46.237 46.688V503.404c0-37.816 25.28-69.713 59.861-79.716a82.983 82.983 0 0 0-23.118-3.263c-45.838 0-82.98 37.142-82.98 82.979v118.099Zm763.4-315.611 46.237 46.966V82.975c0-37.816 25.279-69.713 59.861-79.716a82.99 82.99 0 0 0-23.119-3.263c-45.838 0-82.979 37.142-82.979 82.979v222.917Zm212.195 1.252v45.703l119.723-118.34c10.354-10.35 22.903-17.394 36.247-21.13-28.419-7.958-60.431-.915-82.484 21.13l-73.486 72.637Zm-1213.35 2010.74h-46.237c-45.837 0-82.979 37.141-82.979 82.979s37.142 82.979 82.979 82.979h46.237c-45.838 0-82.979-37.141-82.979-82.979s37.141-82.979 82.979-82.979Zm-420.429-763.422H82.959c-45.837 0-82.979 37.142-82.979 82.979 0 45.838 37.142 82.98 82.979 82.98h46.237c-45.838 0-82.979-37.142-82.979-82.98 0-45.837 37.141-82.979 82.979-82.979Zm420.429-763.4h-46.237c-45.837 0-82.979 37.142-82.979 82.98s37.142 82.979 82.979 82.979h46.237c-45.838 0-82.979-37.141-82.979-82.979s37.141-82.98 82.979-82.98Z" style="fill:#dffffb;fill-rule:nonzero"/><path d="m1716.77 2986.83-53.569-52.785v280.028c0 36.464-23.504 67.425-56.195 78.563a82.879 82.879 0 0 0 26.784 4.417c45.838 0 82.98-37.142 82.98-82.98V2986.83Zm158.902 91.506c8.778 2.887 17.908 4.331 26.872 4.331 21.232 0 42.939-8.099 59.137-24.296 32.406-32.418 30.791-84.949-1.616-117.355l-243.295-241.692v-344.632c-30.014-28.223-53.569-50.35-53.569-50.35v394.982l243.295 241.692c32.406 32.406 34.022 84.937 1.616 117.355-9.359 9.359-20.558 16.014-32.44 19.965Zm-378.43-82.174v-54.316l-114.921 116.525c-9.228 9.228-19.569 15.827-30.684 19.795a84.657 84.657 0 0 0 27.196 4.501c21.232 0 40.859-8.099 57.057-24.296l61.352-62.209Zm-313.88-787.103-2.051-51.181-281.521 279.674v333.964c0 36.464-23.504 67.425-56.195 78.563a82.862 82.862 0 0 0 26.785 4.417c45.837 0 82.979-37.142 82.979-82.98v-333.964l230.003-228.493Zm1296.82 439.714-53.569-53.073v175.816c0 36.464-23.504 67.425-56.195 78.563a82.862 82.862 0 0 0 26.785 4.417c45.838 0 82.979-37.142 82.979-82.98v-122.743Zm-1746.35 8.829v-54.091l-188.363 190.2c-9.197 9.19-19.42 15.773-30.42 19.747a83.204 83.204 0 0 0 27.154 4.549c21.231 0 40.626-8.099 56.835-24.296l134.794-136.109Zm1984.12-339.706c45.838 0 82.98 37.141 82.98 82.979s-37.142 82.979-82.98 82.979h-164.797l192.291 192.502c32.406 32.406 32.174 84.937-.232 117.355-9.365 9.359-20.563 16.014-32.444 19.965 8.777 2.887 17.908 4.331 26.876 4.331 21.232 0 42.928-8.099 59.137-24.296 32.406-32.418 32.639-84.949.232-117.355l-192.291-192.502h164.797c45.838 0 82.98-37.141 82.98-82.979s-37.142-82.979-82.98-82.979h-53.569Zm-1220.7 52.446v-54.692s-162.319 166.301-174.08 174.942c-7.611 5.589-15.251 9.623-22.773 12.363a79.473 79.473 0 0 0 28.634 4.709c15.092-.299 31.466-5.145 47.708-17.072 7.271-5.341 72.08-70.937 120.511-120.25Zm547.902-157.574-54.274-54.646 3.385 262.17c.222 36.68-23.394 69.546-56.331 81.204 8.27 2.959 17.059 4.497 26.91 4.497h.509c45.827 0 82.758-39.874 82.481-85.701l-2.68-207.524Zm-1422.69 271.086h-119.04 119.04Zm2012.22-763.41h-385.411l153.29 152.959c20.302 14.449 33.944 37.761 34.907 64.58 1.604 44.554-32.251 82.061-76.253 85.59-.332.033-.664.067-.995.089-.897.055-1.782.199-2.689.232l-255.123 9.194 284.808 284.808h53.569l-284.808-284.808 255.123-9.194c.907-.033 1.792-.177 2.689-.232.332-.022.663-.056.995-.089 44.002-3.529 77.857-41.036 76.253-85.59-.963-26.819-14.604-50.131-34.907-64.58l-153.29-152.959h331.842Zm-1137.44 173.55-103.074 103.679 7.302 179.934-51.423 52.873-9.448-232.807 156.643-157.562v53.883Zm219.528-8.466v192.126l108.049 99.391.49 49.728-162.108-149.119v-245.387l53.569 53.261Zm-650.686 154.704.306-.306-199.11 1.131c2.246.183 4.498.274 6.751.274.376 0 .752-.056 1.139-.056.244 0 .487.034.719.034h.609l189.586-1.077Zm2072.3-485.747c45.838 0 82.98 37.153 82.98 82.991 0 45.837-37.142 82.979-82.98 82.979h-269.008l118.827 118.826c32.406 32.396 32.406 84.938-.011 117.344-9.288 9.288-20.234 15.913-31.889 19.875a83.181 83.181 0 0 0 26.786 4.422c21.231 0 42.474-8.099 58.672-24.297 32.417-32.406 32.417-84.948.011-117.344l-118.827-118.826h269.008c45.838 0 82.98-37.142 82.98-82.979 0-45.838-37.142-82.991-82.98-82.991h-53.569Zm-2209.9 165.959H540.95l-236.171 236.17c-9.294 9.288-20.243 15.913-31.898 19.874a83.18 83.18 0 0 0 26.784 4.423c21.232 0 42.475-8.099 58.683-24.297l236.171-236.17h333.967Zm457.382 0h-177.125l-143.534 154.274-53.91.366 143.875-154.64h230.694Zm607.958 150.489-51.708 1.861-152.35-152.35h53.569l150.489 150.489Zm-1687.59-150.5H82.985h223.251Zm2650.06-425.213c11.656 3.962 22.607 10.592 31.901 19.886 32.406 32.395 32.406 84.938-.011 117.344l-122.046 122.035h53.569l122.046-122.035c32.417-32.406 32.417-84.949.011-117.344-23.119-23.119-56.486-29.75-85.47-19.886Zm-2683.43-.01c11.655 3.961 22.602 10.586 31.896 19.874l239.401 239.401h53.569l-239.401-239.401c-23.123-23.108-56.48-29.732-85.465-19.874Zm1884.05 93.172-150.819.122-165.981 165.981h-53.569l165.981-165.981 204.428-.166-.04.044Zm-929.358 4.574-166.939 6.015 157.45 155.514H1164.5l-157.45-155.514 218.645-7.878 1.863 1.863Zm1080.39-170.098c26.043.021 44.97.088 47.837.229 17.37 1.76 34.32 8.907 48.073 21.697 33.557 31.233 35.449 83.731 4.237 117.277l-179.036 192.424h53.569l179.036-192.424c31.212-33.546 29.32-86.044-4.237-117.277-13.753-12.79-30.703-19.937-48.073-21.697-4.618-.228-50.894-.262-101.406-.229Zm-488.49-112.933-102.694 97.817v178.433l-53.569 53.256v-231.689l155.37-147.991.893 50.174Zm-422.541 2-.177 164.69 100.496 101.095v53.888l-154.065-154.983.232-215.968 53.514 51.278Zm1321.03-320.851c45.838 0 82.98 37.142 82.98 82.98s-37.142 82.979-82.98 82.979h-333.964l-266.021 266.021s22.495-.048 53.666-.096l265.924-265.925h333.964c45.838 0 82.98-37.141 82.98-82.979s-37.142-82.98-82.98-82.98h-53.569Zm-793.059-1.28c12.531 4.096 24.217 11.15 33.842 21.14 15.113 15.689 22.515 35.792 22.902 55.973.011.398-.387.774-.376 1.172l4.592 250.543 52.598-52.952-3.621-197.591c-.011-.398.387-.774.376-1.172-.387-20.181-7.789-40.284-22.902-55.973-22.915-23.784-57.514-30.928-87.411-21.14ZM843.598 424.85c32.691 11.138 56.195 42.098 56.195 78.562v330.745l277.704 275.979.22-53.018-224.355-222.961V503.412c0-45.837-37.142-82.979-82.979-82.979a82.862 82.862 0 0 0-26.785 4.417Zm444.84 365.216c10.76 3.738 20.944 9.798 29.826 18.202l178.97 171.214v-51.248l-125.401-119.966c-23.238-21.987-55.38-27.931-83.395-18.202Zm580.627-575.564c11.971 3.944 23.184 10.615 32.588 20.013 32.406 32.406 31.488 84.938-.918 117.355l-237.542 235.706v389.671l53.569-51.134V587.576l237.542-235.706c32.406-32.417 33.325-84.949.918-117.355-23.013-22.997-56.859-29.669-86.157-20.013ZM791.635 957.033H503.417h288.218Zm1921.2-499.103c12.075 3.938 23.377 10.624 32.816 20.058 32.407 32.417 32.407 84.948 0 117.366l-195.72 195.72h53.569l195.721-195.72c32.406-32.418 32.406-84.949 0-117.366-22.978-22.962-56.983-29.649-86.386-20.058Zm-342.429-33.08c32.691 11.138 56.195 42.098 56.195 78.562V676.01l53.569-53.08V503.412c0-45.837-37.141-82.979-82.979-82.979a82.862 82.862 0 0 0-26.785 4.417Zm-1856.38 33.359c11.443 3.972 22.214 10.565 31.434 19.779l188.374 190.211v-54.092L599.029 477.988c-23.198-23.182-56.22-29.775-85.003-19.779Zm835.271-243.461c11.443 3.972 22.214 10.565 31.434 19.778l116.503 118.34v-54.414l-62.934-63.926c-23.198-23.182-56.22-29.775-85.003-19.778ZM1606.998 4.421c32.691 11.138 56.195 42.098 56.195 78.562v269.872l53.569-52.951V82.983c0-45.837-37.142-82.979-82.98-82.979-9.374 0-18.384 1.553-26.784 4.417Z" style="fill:#cbcbcb;fill-rule:nonzero"/><defs><linearGradient id="a" x1="0" y1="0" x2="1" y2="0" gradientUnits="userSpaceOnUse" gradientTransform="rotate(44.534 -715.24 1712.803) scale(2048.78)"><stop offset="0" style="stop-color:#fffefe;stop-opacity:1"/><stop offset="1" style="stop-color:#ade6fd;stop-opacity:1"/></linearGradient><linearGradient id="b" x1="0" y1="0" x2="1" y2="0" gradientUnits="userSpaceOnUse" gradientTransform="scale(968.536) rotate(44.534 .198 -.27)"><stop offset="0" style="stop-color:#fffefe;stop-opacity:1"/><stop offset="1" style="stop-color:#79caea;stop-opacity:1"/></linearGradient></defs></svg>